<svg xmlns="http://www.w3.org/2000/svg" viewBox="0 0 23.17 110.91"><defs><style>.cls-1{fill:#907f3e;stroke:#2d2d2d;stroke-miterlimit:10;stroke-width:2px;}.cls-2{fill:#b4a86b;}.cls-3{fill:#2d2d2d;}.cls-4{opacity:0.2;}</style></defs><title>FenceV</title><g id="Слой_2" data-name="Слой 2"><g id="Outlines"><path class="cls-1" d="M21.67,49.38a13.06,13.06,0,0,1-10.33,5.5A13.06,13.06,0,0,1,1,49.38Q1,27.83,1,6.29l21.14-.09Z"/><path class="cls-2" d="M11.58,12.5C5.37,12.5.5,9.86.5,6.5S5.37.5,11.58.5s11.08,2.64,11.08,6S17.8,12.5,11.58,12.5Z"/><path class="cls-3" d="M11.58,1c5.84,0,10.58,2.46,10.58,5.5S17.43,12,11.58,12,1,9.54,1,6.5,5.74,1,11.58,1m0-1C5.09,0,0,2.86,0,6.5S5.09,13,11.58,13s11.58-2.86,11.58-6.5S18.08,0,11.58,0Z"/><path class="cls-1" d="M21.67,61.21a13.06,13.06,0,0,1-10.33,5.5A13.06,13.06,0,0,1,1,61.21Q1,39.67,1,18.13L22.15,18Z"/><path class="cls-2" d="M11.58,24.33C5.37,24.33.5,21.7.5,18.33s4.87-6,11.08-6,11.08,2.64,11.08,6S17.8,24.33,11.58,24.33Z"/><path class="cls-3" d="M11.58,12.83c5.84,0,10.58,2.46,10.58,5.5s-4.74,5.5-10.58,5.5S1,21.37,1,18.33s4.74-5.5,10.58-5.5m0-1C5.09,11.83,0,14.69,0,18.33s5.09,6.5,11.58,6.5S23.17,22,23.17,18.33s-5.09-6.5-11.58-6.5Z"/><path class="cls-1" d="M22.15,29.65h0c0,.2,0,.41,0,.61L22,41c0,.25,0,.5,0,.75v.63c0,.43,0,.85,0,1.28,0,3.67-.08,7.35-.12,11,0,.37,0,.74,0,1.11s0,1,0,1.45c0,.13,0,.27,0,.4q-.09,7.57-.17,15.14a13.06,13.06,0,0,1-10.33,5.49A13,13,0,0,1,1,72.83a0,0,0,0,1,0,0V56q0-3.33,0-6.64V42.51H1v-.07c0-4.07,0-8.14,0-12.21v-.48H1l20.87-.08Z"/><path class="cls-2" d="M11.58,35.94C5.37,35.94.5,33.3.5,29.94s4.87-6,11.08-6,11.08,2.64,11.08,6S17.8,35.94,11.58,35.94Z"/><path class="cls-3" d="M11.58,24.44c5.84,0,10.58,2.46,10.58,5.5s-4.74,5.5-10.58,5.5S1,33,1,29.94s4.74-5.5,10.58-5.5m0-1C5.09,23.44,0,26.29,0,29.94s5.09,6.5,11.58,6.5,11.58-2.86,11.58-6.5-5.09-6.5-11.58-6.5Z"/><path class="cls-1" d="M22.15,42.42h0c0,.2,0,.41,0,.61q-.06,6-.13,12.07c0,.24,0,.48,0,.72,0,.48,0,1,0,1.45h0q-.16,14.14-.32,28.29a13,13,0,0,1-10.33,5.5A13,13,0,0,1,1,85.59a0,0,0,0,1,0,0V72.82c0-3.87,0-7.73,0-11.6V55.84q0-3.23,0-6.45V42.51H1l14.49,0,6.24,0Z"/><path class="cls-2" d="M11.58,48.71c-.43,0-.86,0-1.27,0C4.93,48.35.81,46,.52,43V43a.72.72,0,0,1,0-.14v-.29l0-.1c.32-3.3,5.08-5.74,11.06-5.74,4.81,0,9,1.64,10.53,4.08l.06.12c.08.14.12.23.17.33a3,3,0,0,1,.16.41,3.82,3.82,0,0,1,.15.69,3.25,3.25,0,0,1,0,.36c0,.12,0,.25,0,.37a3.41,3.41,0,0,1-.17.77,2.91,2.91,0,0,1-.17.41,3,3,0,0,1-.13.27C20.71,47,16.46,48.71,11.58,48.71Z"/><path class="cls-3" d="M11.58,37.21c4.74,0,8.74,1.61,10.1,3.84l.07.14.13.26a2.36,2.36,0,0,1,.13.34,3.37,3.37,0,0,1,.14.63h0a2.53,2.53,0,0,1,0,.28c0,.11,0,.22,0,.33a2.88,2.88,0,0,1-.15.66,2.31,2.31,0,0,1-.14.33c0,.09-.08.18-.13.27-1.31,2.26-5.35,3.91-10.14,3.91-.42,0-.83,0-1.23,0C5.26,47.87,1.28,45.69,1,43V42.9a.15.15,0,0,1,0-.07v-.24s0-.06,0-.08H1v-.07c.29-2.91,4.9-5.22,10.57-5.22m0-1C5.34,36.21.37,38.84,0,42.33v.1H0a1.2,1.2,0,0,0,0,.15v.24A1.25,1.25,0,0,0,0,43v.09c.32,3.24,4.55,5.74,10.28,6.08.37,0,.79,0,1.29,0,5.05,0,9.48-1.77,11-4.41.07-.12.12-.23.16-.33a3.35,3.35,0,0,0,.18-.43,4,4,0,0,0,.21-.91c0-.14,0-.28,0-.42s0-.22,0-.33v-.1A4.35,4.35,0,0,0,23,41.5a3.44,3.44,0,0,0-.18-.46c0-.11-.1-.22-.17-.33l0-.05,0-.08,0,0c-1.58-2.58-6-4.32-11-4.32Z"/><path class="cls-1" d="M22.15,55.83h0c0,.23,0,.45,0,.68v0c0,.25,0,.5,0,.75q-.23,23.25-.47,46.51a13.7,13.7,0,0,1-2.14,2.6,11.75,11.75,0,0,1-8.19,3.51c-6.5,0-10.05-5.64-10.33-6.11q0-9.11,0-18.21,0-6.37,0-12.76V55.92l14.43-.06,6.28,0Z"/><path class="cls-2" d="M11.58,62.77C5.69,62.77.83,60,.52,56.5v-.66A5.67,5.67,0,0,1,3.36,51.7a14.58,14.58,0,0,1,7-2.11c.41,0,.83-.05,1.27-.05a15.37,15.37,0,0,1,7.93,2,6.89,6.89,0,0,1,2.67,2.69l.05.11.09.2c.06.15.11.29.15.43a4.88,4.88,0,0,1,.16.81c0,.14,0,.26,0,.38s0,.28,0,.41a4.32,4.32,0,0,1-.16.8h0l-.18.49-.14.3C20.68,60.93,16.43,62.77,11.58,62.77Z"/><path class="cls-3" d="M11.58,50a15,15,0,0,1,7.67,1.91,6.38,6.38,0,0,1,2.49,2.49c0,.09.09.18.13.28s.1.26.14.39a4.36,4.36,0,0,1,.14.72h0c0,.1,0,.21,0,.31s0,.25,0,.37v0a3.76,3.76,0,0,1-.16.74h0l-.15.39L21.7,58c-1.34,2.5-5.36,4.31-10.12,4.31C5.91,62.27,1.3,59.7,1,56.46v-.1a.28.28,0,0,1,0-.09V56a.28.28,0,0,1,0-.09v-.1a5.23,5.23,0,0,1,2.62-3.72,14.07,14.07,0,0,1,6.71-2c.41,0,.82,0,1.24,0m0-1c-.36,0-.84,0-1.34.05a15,15,0,0,0-7.16,2.19A6.15,6.15,0,0,0,0,55.75v.09H0A1.37,1.37,0,0,0,0,56v.24a1.37,1.37,0,0,0,0,.18H0v.09c.34,3.83,5.32,6.72,11.57,6.72,5,0,9.45-1.94,11-4.84l0,0,0,0,.06-.12.07-.16v0l.08-.2.07-.19.07-.17v0a5,5,0,0,0,.15-.77v-.1c0-.13,0-.27,0-.41s0-.24,0-.35v-.09a5.31,5.31,0,0,0-.17-.88c-.05-.17-.11-.32-.17-.47s-.08-.17-.11-.25l0-.08a7.41,7.41,0,0,0-2.89-2.94A15.86,15.86,0,0,0,11.58,49Z"/><path class="cls-4" d="M19.52,106.4a11.75,11.75,0,0,1-8.19,3.51c-6.5,0-10.05-5.64-10.33-6.11Q1,86.19,1,68.57c2.32,1.72,4.92,4.22,5.32,7,.75,5.13-1.5,12.63,1.38,19s4.87,7,8.24,8.5A9.85,9.85,0,0,1,19.52,106.4Z"/><path class="cls-4" d="M22.15,55.84c0,.14,0,.22,0,.31s0,.25,0,.37v0c0,.25,0,.5,0,.75H21.7c-1.08-.13-.53-3.24-2.08-5.11-1.89-2.28-6.67-2.44-7.23-2.44a9.94,9.94,0,0,1-1.71-.33.61.61,0,0,1-.42-.22.44.44,0,0,1,0-.54c.17-.12.53.13.62.18.77.48,3.39.19,7.37-1.65,3-1.4,3.59-2.19,3.68-2.79,0-.18.17-1.34.18-1.34h0q-.06,6-.13,12.07A3.46,3.46,0,0,1,22.15,55.84Z"/></g></g></svg>