<svg xmlns="http://www.w3.org/2000/svg" viewBox="0 0 140 140"><defs><style>.cls-1{fill:#070;opacity:0;}.cls-2{fill:#895f0b;}.cls-3{fill:#2d2d2d;}.cls-4{fill:#f4ae00;}.cls-5{fill:#e70f00;}</style></defs><title>AutoDoorVActivated</title><g id="Слой_2" data-name="Слой 2"><g id="Outlines"><rect class="cls-1" width="140" height="140"/><polygon class="cls-2" points="52.14 0.84 91.54 1.68 92.05 138.33 52.14 139.16 52.14 0.84"/><path class="cls-3" d="M52.64,1.36,91,2.17q.25,67.83.5,135.67l-38.9.8V1.36m-1-1V139.67l1,0,38.9-.8,1,0v-1l-.26-70.55L92,2.17v-1l-1,0L71.86.76,52.66.36l-1,0Z"/><path class="cls-4" d="M52.64,1.36,91,2.17q.25,67.83.5,135.67l-38.9.79Z"/><path class="cls-5" d="M58.15,7.78,84.21,8l.44,123.7H58.15Z"/><polygon class="cls-4" points="58.42 89.71 84.65 115.94 84.65 131.71 81.05 131.71 58.15 108.81 58.15 89.98 58.42 89.71"/><polygon class="cls-4" points="58.42 57.46 84.65 83.69 84.65 103.06 58.15 76.56 58.15 57.73 58.42 57.46"/><polygon class="cls-4" points="58.42 25.32 84.65 51.54 84.65 70.92 58.15 44.41 58.15 25.59 58.42 25.32"/><polygon class="cls-4" points="58.15 7.78 71.99 7.78 84.65 20.44 84.65 39.81 58.15 13.31 58.15 7.78"/></g></g></svg>