<svg xmlns="http://www.w3.org/2000/svg" viewBox="0 0 140 140"><defs><style>.cls-1{fill:#070;opacity:0;}.cls-2{fill:#895f0b;}.cls-3{fill:#2d2d2d;}.cls-4{fill:#f4ae00;}.cls-5{fill:#e70f00;}</style></defs><title>AutoDoorHActivated</title><g id="Слой_2" data-name="Слой 2"><g id="Outlines"><rect class="cls-1" width="140" height="140"/><polygon class="cls-2" points="6.83 114.56 0.75 75.26 139.18 75.26 134.57 114.56 6.83 114.56"/><path class="cls-3" d="M138.62,75.76l-4.49,38.31H7.25L1.33,75.76H138.62m1.12-1H.17l.18,1.15,3,19.15,3,19.15.13.85H135l.1-.88L137.37,95l2.25-19.15.13-1.12Z"/><path class="cls-4" d="M138.62,75.76l-4.49,38.31H7.25L1.34,75.76Z"/><path class="cls-5" d="M132.2,81.27l-3.69,26.5H11.38L8.27,81.27Z"/><polygon class="cls-4" points="50.27 81.54 24.04 107.77 8.27 107.77 8.27 104.17 31.17 81.27 50 81.27 50.27 81.54"/><polygon class="cls-4" points="82.52 81.54 56.29 107.77 36.92 107.77 63.42 81.27 82.25 81.27 82.52 81.54"/><polygon class="cls-4" points="114.66 81.54 88.44 107.77 69.06 107.77 95.57 81.27 114.39 81.27 114.66 81.54"/><polygon class="cls-4" points="132.2 81.27 132.2 95.11 119.54 107.77 100.17 107.77 126.67 81.27 132.2 81.27"/></g></g></svg>