<svg xmlns="http://www.w3.org/2000/svg" viewBox="0 0 140 140"><defs><style>.cls-1{fill:#070;opacity:0;}.cls-2{fill:#895f0b;}.cls-3{fill:#2d2d2d;}.cls-4{fill:#f4ae00;}.cls-5{fill:#6f4e00;}.cls-6{fill:#0c0c0c;opacity:0.43;}.cls-7{fill:#e70f00;}</style></defs><title>AutoDoorV</title><g id="Слой_2" data-name="Слой 2"><g id="Outlines"><rect class="cls-1" width="140" height="140"/><rect class="cls-2" x="51.25" y="7.3" width="37.5" height="95.13"/><path class="cls-3" d="M88.25,7.8v94.13H51.75V7.8h36.5m1-1H50.75v96.13h38.5V6.8Z"/><rect class="cls-4" x="51.75" y="7.79" width="36.5" height="92.63"/><rect class="cls-5" x="51.25" y="101.43" width="37.5" height="34.75"/><path class="cls-3" d="M88.25,101.93v33.75H51.75V101.93h36.5m1-1H50.75v35.75h38.5V100.93Z"/><path class="cls-6" d="M88.25,122.67v13H51.75V101.93s9.59,7.75,18.25,14C75.74,120.07,83.6,121.9,88.25,122.67Z"/><rect class="cls-7" x="56.69" y="13.26" width="26.33" height="81.66"/><polygon class="cls-4" points="83.02 23.71 83.02 37.47 58.81 13.26 72.57 13.26 83.02 23.71"/><polygon class="cls-4" points="83.02 50.24 83.02 64 56.69 37.66 56.69 23.91 83.02 50.24"/><polygon class="cls-4" points="83.02 76.86 83.02 90.62 56.69 64.29 56.69 50.54 83.02 76.86"/><polygon class="cls-4" points="74.85 94.92 61.1 94.92 56.69 90.51 56.69 76.76 74.85 94.92"/></g></g></svg>