<svg xmlns="http://www.w3.org/2000/svg" viewBox="0 0 140 140"><defs><style>.cls-1{fill:#070;opacity:0;}.cls-2{fill:#895f0b;}.cls-3{fill:#2d2d2d;}.cls-4{fill:#f4ae00;}.cls-5{fill:#0c0c0c;opacity:0.43;}.cls-6{fill:#6f4e00;}.cls-7{fill:#e70f00;}</style></defs><title>AutoDoorH</title><g id="Слой_2" data-name="Слой 2"><g id="Outlines"><rect class="cls-1" width="140" height="140"/><rect class="cls-2" x="0.83" y="22.99" width="138.29" height="39.31"/><path class="cls-3" d="M138.62,23.49V61.8H1.33V23.49H138.62m1-1H.33V62.8H139.62V22.49Z"/><rect class="cls-4" x="1.34" y="23.49" width="137.28" height="38.31"/><path class="cls-5" d="M138.67,64.24v4.28H22a50.19,50.19,0,0,1-3.71-4.28Z"/><rect class="cls-6" x="0.83" y="61.3" width="138.29" height="53.26"/><path class="cls-3" d="M138.62,61.8v52.26H1.33V61.8H138.62m1-1H.33v54.26H139.62V60.8Z"/><path class="cls-5" d="M138.62,111.48v2.58H1.33V61.8h17A50.19,50.19,0,0,0,22,66.08c9.29,9.86,36.63,34,86.95,41.48C121.2,109.39,130.92,110.65,138.62,111.48Z"/><rect class="cls-7" x="8.27" y="29.01" width="123.93" height="26.5"/><polygon class="cls-4" points="50.27 29.28 24.04 55.51 8.27 55.51 8.27 51.91 31.17 29.01 50 29.01 50.27 29.28"/><polygon class="cls-4" points="82.52 29.28 56.29 55.51 36.92 55.51 63.42 29.01 82.25 29.01 82.52 29.28"/><polygon class="cls-4" points="114.66 29.28 88.44 55.51 69.06 55.51 95.57 29.01 114.39 29.01 114.66 29.28"/><polygon class="cls-4" points="132.2 29.01 132.2 42.85 119.54 55.51 100.17 55.51 126.67 29.01 132.2 29.01"/></g></g></svg>