<svg id="Layer_1" data-name="Layer 1" xmlns="http://www.w3.org/2000/svg" viewBox="0 0 102.73 130.33"><defs><style>.cls-1{fill:#5e4d4d;}.cls-2{fill:#646666;}.cls-3{fill:#687399;}.cls-4{fill:#fff;opacity:0.24;isolation:isolate;}.cls-5{fill:#382e31;}</style></defs><g id="Слой_2" data-name="Слой 2"><g id="Outlines"><path class="cls-1" d="M9.62,128.5A7.63,7.63,0,0,1,2,120.87V98.21a2,2,0,0,1,2-2H98.73a2,2,0,0,1,2,2V126.5a2,2,0,0,1-2,2Z" transform="translate(0 -0.17)"/><path d="M98.73,98.21V126.5H9.62A5.64,5.64,0,0,1,4,120.88V98.21H98.73m0-4H4a4,4,0,0,0-4,4v22.66a9.64,9.64,0,0,0,9.63,9.63h89.1a4,4,0,0,0,4-4V98.21A4,4,0,0,0,98.73,94.21Z" transform="translate(0 -0.17)"/><rect class="cls-2" x="2" y="2" width="98.77" height="98.05" rx="2"/><path d="M98.73,4.17v94H4v-94H98.73m0-4H4a4,4,0,0,0-4,4v94a4,4,0,0,0,4,4H98.73a4,4,0,0,0,4-4v-94A4,4,0,0,0,98.73.17Z" transform="translate(0 -0.17)"/><rect class="cls-2" x="3" y="3" width="49.39" height="49.39" rx="1"/><path d="M51.39,4.17V51.55H4V4.17H51.39m0-2H4a2,2,0,0,0-2,2V51.55a2,2,0,0,0,2,2H51.39a2,2,0,0,0,2-2V4.17A2,2,0,0,0,51.39,2.17Z" transform="translate(0 -0.17)"/><rect class="cls-3" x="50.39" y="3" width="49.39" height="49.39"/><path d="M98.73,4.17V51.55H51.39V4.17H98.73m2-2H49.39V53.55h51.34Z" transform="translate(0 -0.17)"/><rect class="cls-3" x="3" y="50.9" width="49.39" height="49.39"/><path d="M51.39,52.07V99.45H4V52.07H51.39m2-2H2v51.39H53.39Z" transform="translate(0 -0.17)"/><rect class="cls-2" x="50.39" y="50.9" width="49.39" height="49.39" rx="1"/><path d="M98.73,52.07V99.45H51.39V52.07H98.73m0-2H51.39a2,2,0,0,0-2,2V99.45a2,2,0,0,0,2,2H98.73a2,2,0,0,0,2-2V52.07A2,2,0,0,0,98.73,50.07Z" transform="translate(0 -0.17)"/><path class="cls-4" d="M98.73,4.17v94H91.48c1-11.36-6.53-35.54-8.22-42.07s3.38-19.58,5.56-24.9S80.64,16,78,12.63c-2.33-3-59.8.57-74,1.49v-10Z" transform="translate(0 -0.17)"/><rect class="cls-5" x="4" y="101.85" width="94.77" height="8.93"/><path class="cls-4" d="M4,55.43s30.4,1.42,31.48,2.83,11.33-1.92,10,6.58,4.5,32,4.5,32V51.19H4Z" transform="translate(0 -0.17)"/></g></g></svg>