<svg xmlns="http://www.w3.org/2000/svg" viewBox="0 0 140.04 140"><defs><style>.cls-1{fill:#070;opacity:0;}.cls-2{fill:#5e4d4d;}.cls-3{fill:#646666;}.cls-4{fill:#687399;}.cls-5{fill:#fff;opacity:0.24;}.cls-6{fill:#382e31;}</style></defs><title>BlockTile</title><g id="Слой_2" data-name="Слой 2"><g id="Outlines"><rect class="cls-1" width="140" height="140"/><path class="cls-2" d="M46.89,128.5a7.63,7.63,0,0,1-7.62-7.63V98.21a2,2,0,0,1,2-2H136a2,2,0,0,1,2,2V126.5a2,2,0,0,1-2,2Z"/><path d="M136,98.21V126.5H46.89a5.63,5.63,0,0,1-5.62-5.62V98.21H136m0-4H41.27a4,4,0,0,0-4,4v22.66a9.64,9.64,0,0,0,9.63,9.63H136a4,4,0,0,0,4-4V98.21a4,4,0,0,0-4-4Z"/><rect class="cls-3" x="39.27" y="2.17" width="98.77" height="98.05" rx="2" ry="2"/><path d="M136,4.17v94H41.27v-94H136m0-4H41.27a4,4,0,0,0-4,4v94a4,4,0,0,0,4,4H136a4,4,0,0,0,4-4v-94a4,4,0,0,0-4-4Z"/><rect class="cls-3" x="40.27" y="3.17" width="49.39" height="49.39" rx="1" ry="1"/><path d="M88.66,4.17V51.55H41.27V4.17H88.66m0-2H41.27a2,2,0,0,0-2,2V51.55a2,2,0,0,0,2,2H88.66a2,2,0,0,0,2-2V4.17a2,2,0,0,0-2-2Z"/><rect class="cls-4" x="87.66" y="3.17" width="49.39" height="49.39"/><path d="M136,4.17V51.55H88.66V4.17H136m2-2H86.66V53.55H138V2.17Z"/><rect class="cls-4" x="40.27" y="51.07" width="49.39" height="49.39"/><path d="M88.66,52.07V99.45H41.27V52.07H88.66m2-2H39.27v51.39H90.66V50.07Z"/><rect class="cls-3" x="87.66" y="51.07" width="49.39" height="49.39" rx="1" ry="1"/><path d="M136,52.07V99.45H88.66V52.07H136m0-2H88.66a2,2,0,0,0-2,2V99.45a2,2,0,0,0,2,2H136a2,2,0,0,0,2-2V52.07a2,2,0,0,0-2-2Z"/><path class="cls-5" d="M136,4.17v94h-7.25c1-11.36-6.53-35.54-8.22-42.07s3.38-19.58,5.56-24.9S117.91,16,115.25,12.63c-2.33-3-59.8.57-74,1.49v-10Z"/><rect class="cls-6" x="41.27" y="102.02" width="94.77" height="8.93"/><path class="cls-5" d="M41.27,55.43s30.4,1.42,31.48,2.83,11.33-1.92,10,6.58,4.5,32,4.5,32V51.19h-46Z"/></g></g></svg>