<?xml version="1.0" encoding="utf-8"?>
<!-- Generator: Adobe Illustrator 24.3.0, SVG Export Plug-In . SVG Version: 6.00 Build 0)  -->
<svg version="1.1" id="Layer_1" xmlns="http://www.w3.org/2000/svg" xmlns:xlink="http://www.w3.org/1999/xlink" x="0px" y="0px"
	 viewBox="0 0 102.8 130.5" style="enable-background:new 0 0 102.8 130.5;" xml:space="preserve">
<style type="text/css">
	.st0{fill:#5E4D4D;}
	.st1{fill:#646666;}
	.st2{fill:#382E31;}
</style>
<g id="Слой_2">
	<g id="Outlines">
		<path class="st0" d="M9.6,128.5c-4.2,0-7.6-3.4-7.6-7.6V98.2c0-1.1,0.9-2,2-2h94.7c1.1,0,2,0.9,2,2v28.3c0,1.1-0.9,2-2,2H9.6z"/>
		<path d="M98.7,98.2v28.3H9.6c-3.1,0-5.6-2.5-5.6-5.6V98.2H98.7 M98.7,94.2H4c-2.2,0-4,1.8-4,4v22.7c0,5.3,4.3,9.6,9.6,9.6h89.1
			c2.2,0,4-1.8,4-4V98.2C102.7,96,100.9,94.2,98.7,94.2z"/>
		<path class="st1" d="M4,2.2h94.8c1.1,0,2,0.9,2,2v94.1c0,1.1-0.9,2-2,2H4c-1.1,0-2-0.9-2-2V4.2C2,3.1,2.9,2.2,4,2.2z"/>
		<path d="M98.7,4.2v94H4v-94L98.7,4.2 M98.7,0.2H4c-2.2,0-4,1.8-4,4v94c0,2.2,1.8,4,4,4h94.7c2.2,0,4-1.8,4-4v-94
			C102.7,2,100.9,0.2,98.7,0.2z"/>
		<rect x="4" y="102" class="st2" width="94.8" height="8.9"/>
	</g>
</g>
</svg>
