<?xml version="1.0" encoding="UTF-8"?>
<!DOCTYPE svg PUBLIC "-//W3C//DTD SVG 1.1//EN" "http://www.w3.org/Graphics/SVG/1.1/DTD/svg11.dtd">
<svg xmlns="http://www.w3.org/2000/svg" version="1.1" width="149px" height="177px" style="shape-rendering:geometricPrecision; text-rendering:geometricPrecision; image-rendering:optimizeQuality; fill-rule:evenodd; clip-rule:evenodd" xmlns:xlink="http://www.w3.org/1999/xlink">
<g><path style="opacity:0.986" fill="#031604" d="M 54.5,1.5 C 57.8333,1.5 61.1667,1.5 64.5,1.5C 66.56,3.14785 68.8933,4.64785 71.5,6C 72.8228,6.81595 73.4894,7.98261 73.5,9.5C 88.8333,10.1667 104.167,10.8333 119.5,11.5C 103.83,11.6666 88.1631,11.4999 72.5,11C 69.7084,10.4577 67.0417,9.62438 64.5,8.5C 62.5379,6.98274 60.2046,6.31608 57.5,6.5C 55.6307,6.50681 53.964,6.84014 52.5,7.5C 48.5431,9.45683 45.5431,12.4568 43.5,16.5C 38.0345,11.1752 31.7012,9.67521 24.5,12C 23.8366,13.5185 22.8366,14.6851 21.5,15.5C 17.1539,15.3343 12.8206,15.501 8.5,16C 2.30202,23.7753 3.63536,29.942 12.5,34.5C 13.7927,36.2959 15.2927,37.9625 17,39.5C 17.6917,40.4368 17.525,41.1034 16.5,41.5C 8.18969,42.1022 5.35635,46.4355 8,54.5C 8.84981,56.01 9.68314,57.51 10.5,59C 5.82857,62.3543 2.6619,66.8543 1,72.5C 0.333333,74.8333 0.333333,77.1667 1,79.5C 2.6459,84.7852 4.81256,89.7852 7.5,94.5C 9.13678,96.1237 8.80344,97.1237 6.5,97.5C 3.55998,97.0905 1.22664,95.7572 -0.5,93.5C -0.5,85.1667 -0.5,76.8333 -0.5,68.5C 0.73623,66.351 1.73623,64.0177 2.5,61.5C 2.75115,59.8297 3.41782,58.3297 4.5,57C 3.20801,53.8347 3.20801,50.668 4.5,47.5C 5.73586,45.3893 7.23586,43.3893 9,41.5C 9.66667,39.5 9.66667,37.5 9,35.5C 5.22318,32.2331 2.05651,28.5664 -0.5,24.5C -0.5,23.1667 -0.5,21.8333 -0.5,20.5C 3.16667,17.5 6.5,14.1667 9.5,10.5C 15.7773,10.9075 21.4439,9.40752 26.5,6C 30.0252,5.82129 33.3586,5.32129 36.5,4.5C 38.9051,7.51666 41.9051,8.18333 45.5,6.5C 48.7282,5.05703 51.7282,3.39036 54.5,1.5 Z"/></g>
<g><path style="opacity:0.024" fill="#005f00" d="M 64.5,1.5 C 67.4587,1.35013 69.9587,2.35013 72,4.5C 72.6924,3.97473 73.1924,3.30806 73.5,2.5C 79.5,1.16667 85.5,1.16667 91.5,2.5C 85.8624,3.32991 80.1958,3.82991 74.5,4C 74.8333,4.33333 75.1667,4.66667 75.5,5C 83.1549,6.05429 90.8215,6.88762 98.5,7.5C 90.5671,9.46837 82.2337,10.135 73.5,9.5C 73.4894,7.98261 72.8228,6.81595 71.5,6C 68.8933,4.64785 66.56,3.14785 64.5,1.5 Z"/></g>
<g><path style="opacity:0.012" fill="#006600" d="M 102.5,3.5 C 101.325,3.71901 100.325,3.38568 99.5,2.5C 101.052,1.20211 102.052,1.53545 102.5,3.5 Z"/></g>
<g><path style="opacity:0.153" fill="#006000" d="M 137.5,1.5 C 140.533,1.13152 143.2,1.79818 145.5,3.5C 145.877,5.82412 146.877,6.49079 148.5,5.5C 148.5,8.5 148.5,11.5 148.5,14.5C 143.713,11.0519 140.046,6.71857 137.5,1.5 Z"/></g>
<g><path style="opacity:0.004" fill="#006600" d="M 148.5,1.5 C 148.5,2.5 148.5,3.5 148.5,4.5C 147.609,3.89022 146.609,3.55688 145.5,3.5C 145.821,1.95186 146.821,1.28519 148.5,1.5 Z"/></g>
<g><path style="opacity:0.115" fill="#005601" d="M 36.5,4.5 C 33.3586,5.32129 30.0252,5.82129 26.5,6C 21.4439,9.40752 15.7773,10.9075 9.5,10.5C 13.5813,8.92891 17.9147,7.76225 22.5,7C 23.1667,5.66667 24.1667,4.66667 25.5,4C 29.2554,3.24465 32.9221,3.41131 36.5,4.5 Z"/></g>
<g><path style="opacity:0.357" fill="#005d00" d="M 124.5,3.5 C 123.086,5.05419 121.419,6.38752 119.5,7.5C 112.548,3.73869 105.548,3.73869 98.5,7.5C 99.5274,5.80584 100.861,4.4725 102.5,3.5C 104.57,3.55138 106.403,2.88472 108,1.5C 110.983,2.70673 113.983,2.70673 117,1.5C 117.833,1.83333 118.667,2.16667 119.5,2.5C 118.494,3.39567 118.494,4.06233 119.5,4.5C 121.071,3.69063 122.738,3.35729 124.5,3.5 Z"/></g>
<g><path style="opacity:0.149" fill="#003504" d="M 54.5,1.5 C 51.7282,3.39036 48.7282,5.05703 45.5,6.5C 47.4913,3.20574 50.4913,1.53908 54.5,1.5 Z"/></g>
<g><path style="opacity:0.004" fill="#006600" d="M 88.5,5.5 C 89.8333,6.16667 89.8333,6.16667 88.5,5.5 Z"/></g>
<g><path style="opacity:0.009" fill="#006600" d="M 93.5,6.5 C 94.2506,5.42654 95.2506,5.25988 96.5,6C 95.552,6.48278 94.552,6.64945 93.5,6.5 Z"/></g>
<g><path style="opacity:1" fill="#1f8f1d" d="M 52.5,7.5 C 53.964,6.84014 55.6307,6.50681 57.5,6.5C 60.2046,6.31608 62.5379,6.98274 64.5,8.5C 60.5483,7.72791 56.5483,7.39458 52.5,7.5 Z"/></g>
<g><path style="opacity:1" fill="#38e532" d="M 142.5,15.5 C 142.795,17.7354 142.461,19.7354 141.5,21.5C 140.839,22.7175 140.172,24.0508 139.5,25.5C 133.505,25.1729 129.505,22.1729 127.5,16.5C 122.962,14.3487 120.296,15.6821 119.5,20.5C 117.751,24.8849 114.418,26.8849 109.5,26.5C 109.714,24.8561 109.38,23.3561 108.5,22C 106.527,21.5045 104.527,21.3379 102.5,21.5C 103.64,24.0248 104.307,26.6915 104.5,29.5C 101.823,31.1678 99.156,32.8345 96.5,34.5C 93.8127,34.3359 91.146,34.5026 88.5,35C 86.8767,37.0795 85.3767,39.2462 84,41.5C 81.0686,43.0471 78.5686,42.5471 76.5,40C 76.9273,29.6493 73.5939,27.9826 66.5,35C 63.4601,37.0314 60.2934,37.5314 57,36.5C 56.059,34.2726 54.8923,32.2726 53.5,30.5C 52.0212,28.2232 50.5212,25.8899 49,23.5C 47.7365,21.393 45.9032,20.393 43.5,20.5C 44.1087,24.5634 42.7754,27.73 39.5,30C 35.1472,31.5651 30.8139,33.0651 26.5,34.5C 26.1788,32.9519 25.1788,32.2852 23.5,32.5C 23.6621,30.4727 23.4955,28.4727 23,26.5C 19.2912,23.2854 15.4579,20.2854 11.5,17.5C 14.2469,16.7648 17.5802,16.0981 21.5,15.5C 22.8366,14.6851 23.8366,13.5185 24.5,12C 31.7012,9.67521 38.0345,11.1752 43.5,16.5C 45.5431,12.4568 48.5431,9.45683 52.5,7.5C 56.5483,7.39458 60.5483,7.72791 64.5,8.5C 67.0417,9.62438 69.7084,10.4577 72.5,11C 88.1631,11.4999 103.83,11.6666 119.5,11.5C 123.103,9.11453 126.937,7.11453 131,5.5C 136.882,6.55302 140.716,9.88636 142.5,15.5 Z"/></g>
<g><path style="opacity:0.086" fill="#005900" d="M 9.5,10.5 C 6.5,14.1667 3.16667,17.5 -0.5,20.5C -0.5,19.8333 -0.5,19.1667 -0.5,18.5C 2.42016,15.3661 5.75349,12.6994 9.5,10.5 Z"/></g>
<g><path style="opacity:1" fill="#04cb03" d="M 141.5,21.5 C 141.5,23.8333 141.5,26.1667 141.5,28.5C 141.421,30.6663 140.754,32.6663 139.5,34.5C 139.752,36.0729 140.418,37.4062 141.5,38.5C 139.201,37.0677 137.535,37.7344 136.5,40.5C 131.658,40.5866 127.658,42.4199 124.5,46C 126.357,52.2468 130.357,54.0801 136.5,51.5C 136.5,52.8333 136.5,54.1667 136.5,55.5C 129.743,55.4035 127.577,58.4035 130,64.5C 131.948,65.1094 133.782,65.776 135.5,66.5C 133.396,66.2011 131.396,66.5344 129.5,67.5C 127.009,74.2584 124.342,80.425 121.5,86C 118.089,90.4171 114.256,94.5838 110,98.5C 109.667,97.5 109.333,96.5 109,95.5C 108.768,96.7375 108.268,97.7375 107.5,98.5C 107.5,97.5 107.5,96.5 107.5,95.5C 104.359,94.6787 101.025,94.1787 97.5,94C 99.7885,93.1779 102.122,92.5112 104.5,92C 106.182,89.782 108.182,87.9486 110.5,86.5C 111.869,88.124 113.536,88.624 115.5,88C 114.944,87.6174 114.611,87.1174 114.5,86.5C 116.23,85.9744 117.564,84.9744 118.5,83.5C 119.925,80.277 119.592,77.1103 117.5,74C 121.593,67.6466 123.593,60.6466 123.5,53C 123.707,47.6092 123.207,42.1092 122,36.5C 120.53,33.0183 118.697,29.8516 116.5,27C 118.692,25.6413 120.359,23.8079 121.5,21.5C 121.043,20.7025 120.376,20.3691 119.5,20.5C 120.296,15.6821 122.962,14.3487 127.5,16.5C 129.505,22.1729 133.505,25.1729 139.5,25.5C 140.172,24.0508 140.839,22.7175 141.5,21.5 Z"/></g>
<g><path style="opacity:1" fill="#0d6d02" d="M 21.5,15.5 C 17.5802,16.0981 14.2469,16.7648 11.5,17.5C 11.0766,18.2646 10.7432,19.0979 10.5,20C 11.9331,23.4665 13.2664,26.9665 14.5,30.5C 13.7745,31.8669 13.1079,33.2003 12.5,34.5C 3.63536,29.942 2.30202,23.7753 8.5,16C 12.8206,15.501 17.1539,15.3343 21.5,15.5 Z"/></g>
<g><path style="opacity:1" fill="#02c201" d="M 119.5,20.5 C 120.376,20.3691 121.043,20.7025 121.5,21.5C 120.359,23.8079 118.692,25.6413 116.5,27C 118.697,29.8516 120.53,33.0183 122,36.5C 123.207,42.1092 123.707,47.6092 123.5,53C 123.593,60.6466 121.593,67.6466 117.5,74C 119.592,77.1103 119.925,80.277 118.5,83.5C 119.43,74.7457 116.097,72.4124 108.5,76.5C 108.826,79.3113 109.659,81.978 111,84.5C 111.816,85.8228 112.983,86.4894 114.5,86.5C 114.611,87.1174 114.944,87.6174 115.5,88C 113.536,88.624 111.869,88.124 110.5,86.5C 108.182,87.9486 106.182,89.782 104.5,92C 102.122,92.5112 99.7885,93.1779 97.5,94C 101.025,94.1787 104.359,94.6787 107.5,95.5C 103.363,95.1463 99.3628,95.6463 95.5,97C 92.9586,98.8484 91.9586,101.348 92.5,104.5C 95.8333,104.5 99.1667,104.5 102.5,104.5C 99.3586,105.321 96.0252,105.821 92.5,106C 93.6721,106.419 94.6721,107.085 95.5,108C 90.9225,110.478 86.2558,111.645 81.5,111.5C 85.5368,104.045 83.3701,100.711 75,101.5C 74.0546,101.905 73.3879,102.572 73,103.5C 70.8361,109.82 73.0028,112.82 79.5,112.5C 71.3839,114.692 63.0505,115.025 54.5,113.5C 52.8651,113.122 51.3651,112.456 50,111.5C 49.1268,111.735 48.2935,112.069 47.5,112.5C 45.7046,110.297 43.3712,109.131 40.5,109C 42.3839,108.784 44.0506,108.117 45.5,107C 44.9056,106.536 44.2389,106.369 43.5,106.5C 49.6232,100.358 48.2899,96.3579 39.5,94.5C 37.1186,95.2647 35.1186,96.5981 33.5,98.5C 32.8365,100.042 32.1698,101.709 31.5,103.5C 27.0519,100.917 24.2186,97.2508 23,92.5C 22.8138,95.0356 22.3138,97.369 21.5,99.5C 21.5,97.1667 21.5,94.8333 21.5,92.5C 18.3136,92.3871 15.6469,91.2205 13.5,89C 14.6278,87.5319 15.2945,85.8652 15.5,84C 14.5664,79.8658 13.233,75.8658 11.5,72C 12.6759,66.7775 15.6759,65.2775 20.5,67.5C 21.29,66.3915 21.79,65.0581 22,63.5C 22.7532,68.9291 24.5865,73.9291 27.5,78.5C 30.8333,82.5 34.5,86.1667 38.5,89.5C 45.6141,95.0002 53.7807,98.0002 63,98.5C 64.9855,98.4313 66.4855,97.7647 67.5,96.5C 67.8333,95.5 68.5,94.8333 69.5,94.5C 70.3019,93.0484 70.8019,91.3817 71,89.5C 71.5194,90.5156 72.3527,91.1822 73.5,91.5C 80.0854,90.5714 85.5854,88.2381 90,84.5C 90.4983,81.1832 90.665,77.8499 90.5,74.5C 93.0593,74.1984 95.3926,74.5318 97.5,75.5C 95.5,75.5 93.5,75.5 91.5,75.5C 92.1143,79.1352 92.4476,82.8019 92.5,86.5C 94.5,86.5 96.5,86.5 98.5,86.5C 98.5,83.8333 98.5,81.1667 98.5,78.5C 100.379,75.9625 102.046,73.7959 103.5,72C 103.167,71.6667 102.833,71.3333 102.5,71C 104.718,69.5063 105.385,67.673 104.5,65.5C 105.604,63.2531 107.271,61.4197 109.5,60C 110.773,57.784 110.773,55.6173 109.5,53.5C 110.043,53.44 110.376,53.1067 110.5,52.5C 108.197,44.5476 106.197,36.881 104.5,29.5C 104.307,26.6915 103.64,24.0248 102.5,21.5C 104.527,21.3379 106.527,21.5045 108.5,22C 109.38,23.3561 109.714,24.8561 109.5,26.5C 114.418,26.8849 117.751,24.8849 119.5,20.5 Z"/></g>
<g><path style="opacity:1" fill="#098a08" d="M 142.5,15.5 C 143.16,16.964 143.493,18.6307 143.5,20.5C 143.618,23.4857 142.952,26.1524 141.5,28.5C 141.5,26.1667 141.5,23.8333 141.5,21.5C 142.461,19.7354 142.795,17.7354 142.5,15.5 Z"/></g>
<g><path style="opacity:0.049" fill="#005901" d="M 148.5,25.5 C 148.5,26.5 148.5,27.5 148.5,28.5C 147.167,28.8333 147.167,29.1667 148.5,29.5C 148.5,32.8333 148.5,36.1667 148.5,39.5C 144.577,34.7619 144.577,30.0952 148.5,25.5 Z"/></g>
<g><path style="opacity:0.124" fill="#005c01" d="M -0.5,24.5 C 2.05651,28.5664 5.22318,32.2331 9,35.5C 9.66667,37.5 9.66667,39.5 9,41.5C 7.23586,43.3893 5.73586,45.3893 4.5,47.5C 4.85326,44.1215 6.1866,41.1215 8.5,38.5C 6.19125,34.5256 3.19125,31.1923 -0.5,28.5C -0.5,27.1667 -0.5,25.8333 -0.5,24.5 Z"/></g>
<g><path style="opacity:1" fill="#01be00" d="M 11.5,17.5 C 15.4579,20.2854 19.2912,23.2854 23,26.5C 23.4955,28.4727 23.6621,30.4727 23.5,32.5C 25.1788,32.2852 26.1788,32.9519 26.5,34.5C 27.2625,35.2679 28.2625,35.7679 29.5,36C 27.9544,37.4396 27.121,39.2729 27,41.5C 26.3333,47.5 26.3333,53.5 27,59.5C 28.8248,63.8186 30.6581,68.1519 32.5,72.5C 30.9999,79.3296 33.6666,82.3296 40.5,81.5C 44.2735,84.8919 48.6069,87.5586 53.5,89.5C 56.0115,91.1582 58.1781,90.8249 60,88.5C 60.4643,89.0944 60.631,89.7611 60.5,90.5C 60.0114,96.2773 62.3447,98.2773 67.5,96.5C 66.4855,97.7647 64.9855,98.4313 63,98.5C 53.7807,98.0002 45.6141,95.0002 38.5,89.5C 34.5,86.1667 30.8333,82.5 27.5,78.5C 24.5865,73.9291 22.7532,68.9291 22,63.5C 21.79,65.0581 21.29,66.3915 20.5,67.5C 20.5,64.5 20.5,61.5 20.5,58.5C 19.0222,58.762 17.6888,58.4287 16.5,57.5C 18.1667,55.5 19.8333,53.5 21.5,51.5C 21.2898,47.335 19.6231,44.0017 16.5,41.5C 17.525,41.1034 17.6917,40.4368 17,39.5C 15.2927,37.9625 13.7927,36.2959 12.5,34.5C 13.1079,33.2003 13.7745,31.8669 14.5,30.5C 13.2664,26.9665 11.9331,23.4665 10.5,20C 10.7432,19.0979 11.0766,18.2646 11.5,17.5 Z"/></g>
<g><path style="opacity:1" fill="#01b501" d="M 53.5,30.5 C 52.8826,30.3893 52.3826,30.056 52,29.5C 50.4385,31.9732 48.4385,33.9732 46,35.5C 44.2522,38.6894 43.4189,41.8561 43.5,45C 42.4293,45.8518 41.4293,46.6851 40.5,47.5C 34.9866,49.7156 33.3199,53.7156 35.5,59.5C 37.5486,63.5727 40.8819,65.2394 45.5,64.5C 48.3055,66.475 50.6388,68.975 52.5,72C 56.0047,73.2032 59.3381,74.7032 62.5,76.5C 63.8425,75.0977 64.6758,75.4311 65,77.5C 65.49,76.2068 65.6567,74.8734 65.5,73.5C 66.2685,75.6674 67.2685,77.834 68.5,80C 72.4755,81.3794 75.3088,80.2127 77,76.5C 77.4966,74.1902 77.6633,71.8568 77.5,69.5C 78.3091,71.2922 78.8091,73.2922 79,75.5C 79.3333,74.1667 79.6667,72.8333 80,71.5C 80.3333,71.8333 80.6667,72.1667 81,72.5C 82.0674,71.8095 83.2341,71.3095 84.5,71C 89.6166,65.0643 92.6166,58.231 93.5,50.5C 93.1663,45.1345 91.833,40.1345 89.5,35.5C 92.0593,35.8016 94.3926,35.4682 96.5,34.5C 99.156,32.8345 101.823,31.1678 104.5,29.5C 106.197,36.881 108.197,44.5476 110.5,52.5C 110.376,53.1067 110.043,53.44 109.5,53.5C 106.039,47.7837 101.873,47.117 97,51.5C 96.1872,55.6645 96.6872,59.6645 98.5,63.5C 100.173,65.0863 102.173,65.7529 104.5,65.5C 105.385,67.673 104.718,69.5063 102.5,71C 102.833,71.3333 103.167,71.6667 103.5,72C 102.046,73.7959 100.379,75.9625 98.5,78.5C 98.4431,77.391 98.1098,76.391 97.5,75.5C 95.3926,74.5318 93.0593,74.1984 90.5,74.5C 90.665,77.8499 90.4983,81.1832 90,84.5C 85.5854,88.2381 80.0854,90.5714 73.5,91.5C 72.3527,91.1822 71.5194,90.5156 71,89.5C 70.8019,91.3817 70.3019,93.0484 69.5,94.5C 68.786,87.4168 65.786,86.0835 60.5,90.5C 60.631,89.7611 60.4643,89.0944 60,88.5C 58.1781,90.8249 56.0115,91.1582 53.5,89.5C 48.6069,87.5586 44.2735,84.8919 40.5,81.5C 45.2267,75.7367 44.06,71.7367 37,69.5C 34.7911,69.5572 33.2911,70.5572 32.5,72.5C 30.6581,68.1519 28.8248,63.8186 27,59.5C 26.3333,53.5 26.3333,47.5 27,41.5C 27.121,39.2729 27.9544,37.4396 29.5,36C 28.2625,35.7679 27.2625,35.2679 26.5,34.5C 30.8139,33.0651 35.1472,31.5651 39.5,30C 42.7754,27.73 44.1087,24.5634 43.5,20.5C 45.9032,20.393 47.7365,21.393 49,23.5C 50.5212,25.8899 52.0212,28.2232 53.5,30.5 Z"/></g>
<g><path style="opacity:1" fill="#00a600" d="M 53.5,30.5 C 54.8923,32.2726 56.059,34.2726 57,36.5C 60.2934,37.5314 63.4601,37.0314 66.5,35C 73.5939,27.9826 76.9273,29.6493 76.5,40C 78.5686,42.5471 81.0686,43.0471 84,41.5C 85.3767,39.2462 86.8767,37.0795 88.5,35C 91.146,34.5026 93.8127,34.3359 96.5,34.5C 94.3926,35.4682 92.0593,35.8016 89.5,35.5C 91.833,40.1345 93.1663,45.1345 93.5,50.5C 92.6166,58.231 89.6166,65.0643 84.5,71C 83.2341,71.3095 82.0674,71.8095 81,72.5C 80.6667,72.1667 80.3333,71.8333 80,71.5C 79.6667,72.8333 79.3333,74.1667 79,75.5C 78.8091,73.2922 78.3091,71.2922 77.5,69.5C 73.7634,62.9058 69.5968,62.9058 65,69.5C 64.4209,70.9285 64.5876,72.2618 65.5,73.5C 65.6567,74.8734 65.49,76.2068 65,77.5C 64.6758,75.4311 63.8425,75.0977 62.5,76.5C 59.3381,74.7032 56.0047,73.2032 52.5,72C 50.6388,68.975 48.3055,66.475 45.5,64.5C 47.5002,62.329 49.3335,59.9957 51,57.5C 51.3312,50.3335 47.8312,47.0001 40.5,47.5C 41.4293,46.6851 42.4293,45.8518 43.5,45C 43.4189,41.8561 44.2522,38.6894 46,35.5C 48.4385,33.9732 50.4385,31.9732 52,29.5C 52.3826,30.056 52.8826,30.3893 53.5,30.5 Z"/></g>
<g><path style="opacity:0.004" fill="#006600" d="M 1.5,36.5 C 2.83333,37.1667 2.83333,37.1667 1.5,36.5 Z"/></g>
<g><path style="opacity:1" fill="#0e6c00" d="M 16.5,41.5 C 19.6231,44.0017 21.2898,47.335 21.5,51.5C 19.8333,53.5 18.1667,55.5 16.5,57.5C 17.6888,58.4287 19.0222,58.762 20.5,58.5C 20.5,61.5 20.5,64.5 20.5,67.5C 15.6759,65.2775 12.6759,66.7775 11.5,72C 13.233,75.8658 14.5664,79.8658 15.5,84C 15.2945,85.8652 14.6278,87.5319 13.5,89C 15.6469,91.2205 18.3136,92.3871 21.5,92.5C 21.5,94.8333 21.5,97.1667 21.5,99.5C 17.1346,100.449 14.3013,103.116 13,107.5C 12.9379,111.148 13.1046,114.815 13.5,118.5C 23.3701,116.588 31.5368,119.254 38,126.5C 41.577,118.961 47.4104,116.128 55.5,118C 57.684,120.016 59.684,122.183 61.5,124.5C 66.4662,116.385 72.6329,115.385 80,121.5C 83.0261,120.128 86.1927,119.462 89.5,119.5C 92.8582,121.6 96.3582,123.6 100,125.5C 103.156,123.014 106.322,120.514 109.5,118C 112.928,118.599 116.428,119.432 120,120.5C 123.444,120.185 126.61,119.185 129.5,117.5C 130.66,118.265 131.66,119.265 132.5,120.5C 129.423,129.077 123.423,134.244 114.5,136C 108.833,136.333 103.167,136.667 97.5,137C 94.4373,140.897 90.4373,142.397 85.5,141.5C 81.8479,138.348 78.3479,135.015 75,131.5C 71.9605,133.125 68.7938,134.458 65.5,135.5C 54.1618,135.333 42.8284,135.5 31.5,136C 28.5376,140.052 24.5376,141.552 19.5,140.5C 19.1109,137.054 18.2775,133.721 17,130.5C 13.741,128.861 10.241,127.694 6.5,127C 2.63264,123.34 1.46597,118.84 3,113.5C 5.58424,111.326 7.41757,108.659 8.5,105.5C 9.33903,104.359 10.0057,103.026 10.5,101.5C 10.2343,98.6549 9.2343,96.3216 7.5,94.5C 4.81256,89.7852 2.6459,84.7852 1,79.5C 0.333333,77.1667 0.333333,74.8333 1,72.5C 2.6619,66.8543 5.82857,62.3543 10.5,59C 9.68314,57.51 8.84981,56.01 8,54.5C 5.35635,46.4355 8.18969,42.1022 16.5,41.5 Z"/></g>
<g><path style="opacity:1" fill="#25b221" d="M 141.5,39.5 C 142.652,44.9846 142.818,50.6513 142,56.5C 140.698,57.0848 139.531,57.7515 138.5,58.5C 137.957,58.44 137.624,58.1067 137.5,57.5C 138.325,56.6143 139.325,56.281 140.5,56.5C 140.447,50.8044 140.78,45.1377 141.5,39.5 Z"/></g>
<g><path style="opacity:1" fill="#0e7100" d="M 40.5,47.5 C 47.8312,47.0001 51.3312,50.3335 51,57.5C 49.3335,59.9957 47.5002,62.329 45.5,64.5C 40.8819,65.2394 37.5486,63.5727 35.5,59.5C 33.3199,53.7156 34.9866,49.7156 40.5,47.5 Z"/></g>
<g><path style="opacity:1" fill="#37e631" d="M 109.5,53.5 C 110.773,55.6173 110.773,57.784 109.5,60C 107.271,61.4197 105.604,63.2531 104.5,65.5C 102.173,65.7529 100.173,65.0863 98.5,63.5C 96.6872,59.6645 96.1872,55.6645 97,51.5C 101.873,47.117 106.039,47.7837 109.5,53.5 Z"/></g>
<g><path style="opacity:1" fill="#30dc2b" d="M 141.5,38.5 C 141.5,38.8333 141.5,39.1667 141.5,39.5C 140.78,45.1377 140.447,50.8044 140.5,56.5C 139.325,56.281 138.325,56.6143 137.5,57.5C 137.624,58.1067 137.957,58.44 138.5,58.5C 140.451,60.48 141.951,62.8133 143,65.5C 143.831,73.1883 143.665,80.855 142.5,88.5C 139.023,90.7087 138.856,93.3754 142,96.5C 142.667,100.833 142.667,105.167 142,109.5C 139.513,114.827 135.347,117.16 129.5,116.5C 129.923,115.735 130.257,114.902 130.5,114C 129.5,111.5 128.5,109 127.5,106.5C 127.307,104.312 128.141,102.645 130,101.5C 130.988,98.5755 131.654,95.5755 132,92.5C 136.704,89.077 136.204,86.4103 130.5,84.5C 130.335,81.4816 130.502,78.4816 131,75.5C 132.242,74.1279 133.742,73.1279 135.5,72.5C 136.793,70.3635 136.793,68.3635 135.5,66.5C 133.782,65.776 131.948,65.1094 130,64.5C 127.577,58.4035 129.743,55.4035 136.5,55.5C 136.5,54.1667 136.5,52.8333 136.5,51.5C 130.357,54.0801 126.357,52.2468 124.5,46C 127.658,42.4199 131.658,40.5866 136.5,40.5C 137.535,37.7344 139.201,37.0677 141.5,38.5 Z"/></g>
<g><path style="opacity:0.239" fill="#005b1a" d="M 2.5,61.5 C 1.73623,64.0177 0.73623,66.351 -0.5,68.5C -0.5,66.8333 -0.5,65.1667 -0.5,63.5C 0.5,62.8333 1.5,62.1667 2.5,61.5 Z"/></g>
<g><path style="opacity:1" fill="#37e731" d="M 77.5,69.5 C 77.6633,71.8568 77.4966,74.1902 77,76.5C 75.3088,80.2127 72.4755,81.3794 68.5,80C 67.2685,77.834 66.2685,75.6674 65.5,73.5C 64.5876,72.2618 64.4209,70.9285 65,69.5C 69.5968,62.9058 73.7634,62.9058 77.5,69.5 Z"/></g>
<g><path style="opacity:1" fill="#00d100" d="M 135.5,66.5 C 136.793,68.3635 136.793,70.3635 135.5,72.5C 133.742,73.1279 132.242,74.1279 131,75.5C 130.502,78.4816 130.335,81.4816 130.5,84.5C 129.761,84.369 129.094,84.5357 128.5,85C 129.424,85.85 129.424,86.85 128.5,88C 126.17,91.328 123.504,94.328 120.5,97C 121.833,98.8402 121.666,99.3402 120,98.5C 116.965,101.833 113.798,105 110.5,108C 107.245,109.209 104.411,111.042 102,113.5C 97.2283,114.541 93.0617,116.541 89.5,119.5C 86.1927,119.462 83.0261,120.128 80,121.5C 72.6329,115.385 66.4662,116.385 61.5,124.5C 59.684,122.183 57.684,120.016 55.5,118C 47.4104,116.128 41.577,118.961 38,126.5C 31.5368,119.254 23.3701,116.588 13.5,118.5C 13.1046,114.815 12.9379,111.148 13,107.5C 14.3013,103.116 17.1346,100.449 21.5,99.5C 22.3138,97.369 22.8138,95.0356 23,92.5C 24.2186,97.2508 27.0519,100.917 31.5,103.5C 32.1698,101.709 32.8365,100.042 33.5,98.5C 33.8098,105.512 37.1432,108.178 43.5,106.5C 44.2389,106.369 44.9056,106.536 45.5,107C 44.0506,108.117 42.3839,108.784 40.5,109C 43.3712,109.131 45.7046,110.297 47.5,112.5C 48.2935,112.069 49.1268,111.735 50,111.5C 51.3651,112.456 52.8651,113.122 54.5,113.5C 63.0505,115.025 71.3839,114.692 79.5,112.5C 79.8417,111.662 80.5084,111.328 81.5,111.5C 86.2558,111.645 90.9225,110.478 95.5,108C 94.6721,107.085 93.6721,106.419 92.5,106C 96.0252,105.821 99.3586,105.321 102.5,104.5C 104.918,103.086 106.585,101.086 107.5,98.5C 108.268,97.7375 108.768,96.7375 109,95.5C 109.333,96.5 109.667,97.5 110,98.5C 114.256,94.5838 118.089,90.4171 121.5,86C 124.342,80.425 127.009,74.2584 129.5,67.5C 131.396,66.5344 133.396,66.2011 135.5,66.5 Z"/></g>
<g><path style="opacity:1" fill="#0e7400" d="M 40.5,81.5 C 33.6666,82.3296 30.9999,79.3296 32.5,72.5C 33.2911,70.5572 34.7911,69.5572 37,69.5C 44.06,71.7367 45.2267,75.7367 40.5,81.5 Z"/></g>
<g><path style="opacity:0.085" fill="#005801" d="M 148.5,51.5 C 148.5,53.8333 148.5,56.1667 148.5,58.5C 147.167,60.1667 147.167,61.8333 148.5,63.5C 148.5,69.5 148.5,75.5 148.5,81.5C 147.883,81.6107 147.383,81.944 147,82.5C 145.957,85.7568 145.457,89.0901 145.5,92.5C 144.844,91.3784 144.511,90.0451 144.5,88.5C 145.741,82.7049 146.741,76.8716 147.5,71C 147.333,69.1667 147.167,67.3333 147,65.5C 145.818,63.6564 144.651,61.8231 143.5,60C 145.578,57.334 147.245,54.5007 148.5,51.5 Z"/></g>
<g><path style="opacity:1" fill="#38e832" d="M 118.5,83.5 C 117.564,84.9744 116.23,85.9744 114.5,86.5C 112.983,86.4894 111.816,85.8228 111,84.5C 109.659,81.978 108.826,79.3113 108.5,76.5C 116.097,72.4124 119.43,74.7457 118.5,83.5 Z"/></g>
<g><path style="opacity:1" fill="#37e732" d="M 97.5,75.5 C 98.1098,76.391 98.4431,77.391 98.5,78.5C 98.5,81.1667 98.5,83.8333 98.5,86.5C 96.5,86.5 94.5,86.5 92.5,86.5C 92.4476,82.8019 92.1143,79.1352 91.5,75.5C 93.5,75.5 95.5,75.5 97.5,75.5 Z"/></g>
<g><path style="opacity:1" fill="#00d800" d="M 130.5,84.5 C 136.204,86.4103 136.704,89.077 132,92.5C 131.654,95.5755 130.988,98.5755 130,101.5C 128.141,102.645 127.307,104.312 127.5,106.5C 128.5,109 129.5,111.5 130.5,114C 130.257,114.902 129.923,115.735 129.5,116.5C 129.5,116.833 129.5,117.167 129.5,117.5C 126.61,119.185 123.444,120.185 120,120.5C 116.428,119.432 112.928,118.599 109.5,118C 106.322,120.514 103.156,123.014 100,125.5C 96.3582,123.6 92.8582,121.6 89.5,119.5C 93.0617,116.541 97.2283,114.541 102,113.5C 104.411,111.042 107.245,109.209 110.5,108C 113.798,105 116.965,101.833 120,98.5C 121.666,99.3402 121.833,98.8402 120.5,97C 123.504,94.328 126.17,91.328 128.5,88C 129.424,86.85 129.424,85.85 128.5,85C 129.094,84.5357 129.761,84.369 130.5,84.5 Z"/></g>
<g><path style="opacity:1" fill="#0e7300" d="M 69.5,94.5 C 68.5,94.8333 67.8333,95.5 67.5,96.5C 62.3447,98.2773 60.0114,96.2773 60.5,90.5C 65.786,86.0835 68.786,87.4168 69.5,94.5 Z"/></g>
<g><path style="opacity:1" fill="#0e7400" d="M 43.5,106.5 C 37.1432,108.178 33.8098,105.512 33.5,98.5C 35.1186,96.5981 37.1186,95.2647 39.5,94.5C 48.2899,96.3579 49.6232,100.358 43.5,106.5 Z"/></g>
<g><path style="opacity:1" fill="#0e7000" d="M 107.5,95.5 C 107.5,96.5 107.5,97.5 107.5,98.5C 106.585,101.086 104.918,103.086 102.5,104.5C 99.1667,104.5 95.8333,104.5 92.5,104.5C 91.9586,101.348 92.9586,98.8484 95.5,97C 99.3628,95.6463 103.363,95.1463 107.5,95.5 Z"/></g>
<g><path style="opacity:0.03" fill="#005a00" d="M 146.5,95.5 C 147.167,95.8333 147.833,96.1667 148.5,96.5C 148.5,98.5 148.5,100.5 148.5,102.5C 147.593,100.343 146.927,98.0098 146.5,95.5 Z"/></g>
<g><path style="opacity:0.973" fill="#071104" d="M 137.5,1.5 C 140.046,6.71857 143.713,11.0519 148.5,14.5C 148.5,18.1667 148.5,21.8333 148.5,25.5C 144.577,30.0952 144.577,34.7619 148.5,39.5C 148.5,43.5 148.5,47.5 148.5,51.5C 147.245,54.5007 145.578,57.334 143.5,60C 144.651,61.8231 145.818,63.6564 147,65.5C 147.167,67.3333 147.333,69.1667 147.5,71C 146.741,76.8716 145.741,82.7049 144.5,88.5C 144.511,90.0451 144.844,91.3784 145.5,92.5C 146.11,93.391 146.443,94.391 146.5,95.5C 146.927,98.0098 147.593,100.343 148.5,102.5C 148.5,103.833 148.5,105.167 148.5,106.5C 147.076,108.515 146.41,110.848 146.5,113.5C 144.076,116.008 142.41,119.008 141.5,122.5C 141.167,123.5 140.5,124.167 139.5,124.5C 138.542,124.953 137.708,125.619 137,126.5C 136.667,140.833 136.333,155.167 136,169.5C 135.209,170.745 134.709,172.078 134.5,173.5C 112.191,174.826 89.8575,174.826 67.5,173.5C 63.3467,172.834 59.0134,172.501 54.5,172.5C 49.7784,172.508 45.4451,173.175 41.5,174.5C 36.8333,174.5 32.1667,174.5 27.5,174.5C 23.4048,172.994 19.0714,171.994 14.5,171.5C 13.3135,167.284 11.9802,163.284 10.5,159.5C 10.5,158.833 10.5,158.167 10.5,157.5C 11.2782,148.336 11.2782,139.003 10.5,129.5C 7.79384,129.425 5.12717,129.092 2.5,128.5C 1.83333,128.5 1.16667,128.5 0.5,128.5C 0.67158,127.508 0.338246,126.842 -0.5,126.5C -0.5,122.5 -0.5,118.5 -0.5,114.5C 1.69289,110.125 4.52622,106.125 8,102.5C 8.48278,103.448 8.64945,104.448 8.5,105.5C 7.41757,108.659 5.58424,111.326 3,113.5C 1.46597,118.84 2.63264,123.34 6.5,127C 10.241,127.694 13.741,128.861 17,130.5C 18.2775,133.721 19.1109,137.054 19.5,140.5C 24.5376,141.552 28.5376,140.052 31.5,136C 42.8284,135.5 54.1618,135.333 65.5,135.5C 60.2708,138.199 54.7708,140.533 49,142.5C 46.5515,141.056 44.3848,139.222 42.5,137C 41.5,136.333 40.5,136.333 39.5,137C 32.7575,141.4 25.7575,145.4 18.5,149C 16.5403,151.687 16.207,154.521 17.5,157.5C 17.5,161.167 17.5,164.833 17.5,168.5C 55.1667,168.5 92.8333,168.5 130.5,168.5C 130.806,164.611 130.806,160.945 130.5,157.5C 129.372,153.91 127.705,150.577 125.5,147.5C 127.605,143.826 127.938,139.993 126.5,136C 123.404,135.073 121.07,136.073 119.5,139C 114.461,142.142 109.294,142.309 104,139.5C 97.905,142.37 91.7384,143.037 85.5,141.5C 90.4373,142.397 94.4373,140.897 97.5,137C 103.167,136.667 108.833,136.333 114.5,136C 123.423,134.244 129.423,129.077 132.5,120.5C 131.66,119.265 130.66,118.265 129.5,117.5C 129.5,117.167 129.5,116.833 129.5,116.5C 135.347,117.16 139.513,114.827 142,109.5C 142.667,105.167 142.667,100.833 142,96.5C 138.856,93.3754 139.023,90.7087 142.5,88.5C 143.665,80.855 143.831,73.1883 143,65.5C 141.951,62.8133 140.451,60.48 138.5,58.5C 139.531,57.7515 140.698,57.0848 142,56.5C 142.818,50.6513 142.652,44.9846 141.5,39.5C 141.5,39.1667 141.5,38.8333 141.5,38.5C 140.418,37.4062 139.752,36.0729 139.5,34.5C 140.754,32.6663 141.421,30.6663 141.5,28.5C 142.952,26.1524 143.618,23.4857 143.5,20.5C 143.493,18.6307 143.16,16.964 142.5,15.5C 140.716,9.88636 136.882,6.55302 131,5.5C 126.937,7.11453 123.103,9.11453 119.5,11.5C 104.167,10.8333 88.8333,10.1667 73.5,9.5C 82.2337,10.135 90.5671,9.46837 98.5,7.5C 105.548,3.73869 112.548,3.73869 119.5,7.5C 121.419,6.38752 123.086,5.05419 124.5,3.5C 128.527,1.64157 132.86,0.974901 137.5,1.5 Z"/></g>
<g><path style="opacity:0.465" fill="#025f1a" d="M -0.5,93.5 C 1.22664,95.7572 3.55998,97.0905 6.5,97.5C 8.80344,97.1237 9.13678,96.1237 7.5,94.5C 9.2343,96.3216 10.2343,98.6549 10.5,101.5C 10.0057,103.026 9.33903,104.359 8.5,105.5C 8.64945,104.448 8.48278,103.448 8,102.5C 4.52622,106.125 1.69289,110.125 -0.5,114.5C -0.5,113.167 -0.5,111.833 -0.5,110.5C 2.22024,108.083 4.22024,105.083 5.5,101.5C 3.14552,99.8122 1.14552,97.8122 -0.5,95.5C -0.5,94.8333 -0.5,94.1667 -0.5,93.5 Z"/></g>
<g><path style="opacity:1" fill="#0e6f00" d="M 81.5,111.5 C 80.5084,111.328 79.8417,111.662 79.5,112.5C 73.0028,112.82 70.8361,109.82 73,103.5C 73.3879,102.572 74.0546,101.905 75,101.5C 83.3701,100.711 85.5368,104.045 81.5,111.5 Z"/></g>
<g><path style="opacity:0.161" fill="#005302" d="M 148.5,106.5 C 148.5,108.167 148.5,109.833 148.5,111.5C 147.833,112.167 147.167,112.833 146.5,113.5C 146.41,110.848 147.076,108.515 148.5,106.5 Z"/></g>
<g><path style="opacity:0.076" fill="#005701" d="M 146.5,113.5 C 146.497,117.579 144.83,120.579 141.5,122.5C 142.41,119.008 144.076,116.008 146.5,113.5 Z"/></g>
<g><path style="opacity:0.008" fill="#006a23" d="M -0.5,128.5 C -0.166667,128.5 0.166667,128.5 0.5,128.5C 1.22987,129.712 2.22987,130.712 3.5,131.5C 2.30024,132.292 0.966905,132.292 -0.5,131.5C -0.5,130.5 -0.5,129.5 -0.5,128.5 Z"/></g>
<g><path style="opacity:0.632" fill="#004313" d="M 2.5,128.5 C 5.12717,129.092 7.79384,129.425 10.5,129.5C 11.2782,139.003 11.2782,148.336 10.5,157.5C 10.7138,150.729 10.0471,144.062 8.5,137.5C 8.56927,135.722 8.9026,133.889 9.5,132C 7.02971,130.979 4.69638,129.812 2.5,128.5 Z"/></g>
<g><path style="opacity:1" fill="#421400" d="M 85.5,141.5 C 91.7384,143.037 97.905,142.37 104,139.5C 109.294,142.309 114.461,142.142 119.5,139C 121.07,136.073 123.404,135.073 126.5,136C 127.938,139.993 127.605,143.826 125.5,147.5C 127.705,150.577 129.372,153.91 130.5,157.5C 123.671,159.019 119.337,156.353 117.5,149.5C 107.279,149.528 97.1128,150.194 87,151.5C 76.1792,143.544 65.3458,143.544 54.5,151.5C 49.9159,149.145 45.0825,147.478 40,146.5C 33.201,151.65 25.701,155.316 17.5,157.5C 16.207,154.521 16.5403,151.687 18.5,149C 25.7575,145.4 32.7575,141.4 39.5,137C 40.5,136.333 41.5,136.333 42.5,137C 44.3848,139.222 46.5515,141.056 49,142.5C 54.7708,140.533 60.2708,138.199 65.5,135.5C 68.7938,134.458 71.9605,133.125 75,131.5C 78.3479,135.015 81.8479,138.348 85.5,141.5 Z"/></g>
<g><path style="opacity:1" fill="#5d4700" d="M 130.5,157.5 C 130.806,160.945 130.806,164.611 130.5,168.5C 92.8333,168.5 55.1667,168.5 17.5,168.5C 17.5,164.833 17.5,161.167 17.5,157.5C 25.701,155.316 33.201,151.65 40,146.5C 45.0825,147.478 49.9159,149.145 54.5,151.5C 65.3458,143.544 76.1792,143.544 87,151.5C 97.1128,150.194 107.279,149.528 117.5,149.5C 119.337,156.353 123.671,159.019 130.5,157.5 Z"/></g>
<g><path style="opacity:0.067" fill="#015501" d="M 139.5,124.5 C 138.31,140.459 137.31,156.459 136.5,172.5C 135.817,172.863 135.15,173.196 134.5,173.5C 134.709,172.078 135.209,170.745 136,169.5C 136.333,155.167 136.667,140.833 137,126.5C 137.708,125.619 138.542,124.953 139.5,124.5 Z"/></g>
<g><path style="opacity:0.19" fill="#084c19" d="M 10.5,159.5 C 11.9802,163.284 13.3135,167.284 14.5,171.5C 19.0714,171.994 23.4048,172.994 27.5,174.5C 23.1539,174.666 18.8206,174.499 14.5,174C 13.2986,173.097 12.4652,171.931 12,170.5C 11.4518,166.83 10.9518,163.163 10.5,159.5 Z"/></g>
<g><path style="opacity:0.228" fill="#272d26" d="M 67.5,173.5 C 59.0161,174.493 50.3494,174.826 41.5,174.5C 45.4451,173.175 49.7784,172.508 54.5,172.5C 59.0134,172.501 63.3467,172.834 67.5,173.5 Z"/></g>
</svg>
