<svg xmlns="http://www.w3.org/2000/svg" viewBox="0 0 140 140"><defs><style>.cls-1{fill:#070;opacity:0;}.cls-2{fill:#e70f00;}.cls-3{opacity:0.5;}.cls-4{fill:#fff;}</style></defs><title>Button</title><g id="Слой_2" data-name="Слой 2"><g id="Outlines"><rect class="cls-1" width="140" height="140"/><path class="cls-2" d="M70,128C34.48,128,5.58,102,5.58,70S34.48,12,70,12s64.42,26,64.42,58S105.52,128,70,128Z"/><path d="M70,14c34.47,0,62.42,25.05,62.42,56S104.47,126,70,126,7.58,100.9,7.58,70,35.53,14,70,14m0-4C33.38,10,3.58,36.94,3.58,70S33.38,130,70,130s66.42-26.89,66.42-60S106.62,10,70,10Z"/><g class="cls-3"><path d="M115.36,109.62C96.28,126.75,71.76,127.07,70,127.06c-5.64,0-27.28-.38-44.4-16.94-2.65-2.57-17.92-17.84-18-39,0-1.65.08-3,.16-4C8.57,72.82,12,91,27.65,104.58,42.76,117.69,60,118.56,70,119.06a88.34,88.34,0,0,0,47.6-11.56C117.08,108,116.31,108.77,115.36,109.62Z"/></g><g class="cls-3"><path class="cls-4" d="M132.42,70c0,15-6.56,28.56-17.23,38.6a51.43,51.43,0,0,0,8.94-28.86c0-30.9-27.95-55.95-62.42-55.95-17.78,0-33.82,6.66-45.19,17.35C27.44,24.9,47.3,14,70,14,104.47,14,132.42,39.1,132.42,70Z"/></g><path class="cls-2" d="M70,98.39c-22.87,0-41.48-15.7-41.48-35A31.08,31.08,0,0,1,35.46,44C43.17,34.22,56.08,28.39,70,28.39c22.87,0,41.48,15.7,41.48,35a30.15,30.15,0,0,1-3.6,14.29C101.22,90.26,86.35,98.39,70,98.39Z"/><path d="M70,30.39c21.8,0,39.48,14.78,39.48,33a28.29,28.29,0,0,1-3.37,13.35C100,88.32,86.12,96.39,70,96.39c-21.81,0-39.48-14.77-39.48-33A29.09,29.09,0,0,1,37,45.24c7.06-9,19.19-14.85,33-14.85m0-4c-14.52,0-28,6.12-36.11,16.37a33.06,33.06,0,0,0-7.37,20.63c0,20.4,19.51,37,43.48,37,17.08,0,32.64-8.55,39.65-21.78a32.11,32.11,0,0,0,3.83-15.22c0-20.4-19.51-37-43.48-37Z"/><g class="cls-3"><path d="M111.15,67.75a22.28,22.28,0,0,1-3.51,11.87C101.25,89.91,86.8,97.09,70,97.09,47.27,97.09,28.86,84,28.86,67.75a21,21,0,0,1,.8-5.77C33.42,75.41,50.05,85.53,70,85.53c16.8,0,31.25-7.18,37.63-17.47A23.69,23.69,0,0,0,110.35,62,21.07,21.07,0,0,1,111.15,67.75Z"/></g><g class="cls-3"><path class="cls-4" d="M109.48,63.39v.3c-5.81-11.76-22-21.38-41.8-23.54A67.07,67.07,0,0,0,39,42.95c7.22-7.65,18.42-12.56,31-12.56C91.8,30.39,109.48,45.17,109.48,63.39Z"/></g><g class="cls-3"><path d="M105.62,78.61c-14.87,31.15-33.21,31.86-33.21,31.86-4.54.67-22.57,2.81-38-8.14-3.73-2.65-14.78-10.48-17.28-23.45-.16-.83-.26-1.52-.31-2,.43-.8.9-1.62,1.44-2.44A35.06,35.06,0,0,1,29.16,63.85l.23,0,.69-.12c0,.52-.05,1-.05,1.57,0,18.23,17.67,33,39.48,33C85.63,98.26,99.49,90.19,105.62,78.61Z"/></g></g></g></svg>