<svg xmlns="http://www.w3.org/2000/svg" viewBox="0 0 195.81 195.81"><defs><style>.cls-1,.cls-5{fill:#fff;}.cls-1{opacity:0;}.cls-2,.cls-4{fill:#7c5e2e;}.cls-2,.cls-4,.cls-5,.cls-8{stroke:#2d2d2d;stroke-miterlimit:10;}.cls-2{stroke-width:3px;}.cls-3{fill:#dba658;}.cls-4{stroke-width:2px;}.cls-6{fill:#212121;}.cls-7{fill:#230000;opacity:0.23;}.cls-8{fill:#7e7069;}.cls-9{fill:#2d2d2d;}</style></defs><title>CowBrownLeft</title><g id="Слой_2" data-name="Слой 2"><g id="Outlines"><rect class="cls-1" width="195.81" height="195.81"/><path class="cls-2" d="M176,87.91s18.14,14.32,18.14,15,.86,15.23-2.57,15.41S176,113.7,176,113.7,168.67,103.72,176,87.91Z"/><path class="cls-2" d="M48,87.91v31.44a35.88,35.88,0,0,0,35.78,35.77h65.74A26.6,26.6,0,0,0,176,128.6V87.91a35.2,35.2,0,0,0-1-8.18,35.9,35.9,0,0,0-34.82-27.6H83.77A35.88,35.88,0,0,0,48,87.91Z"/><path class="cls-3" d="M146.76,106.51s-7.87-13.69-21.91-14.38-15.75,11-15.75,11,12.67,19.83,25.33,15.21S150,110.88,146.76,106.51Z"/><path class="cls-3" d="M108.2,120.37s-9,20-17.2,16.43S74.82,118.57,78.16,116s14.12-10.26,19.26-9S108.2,111.39,108.2,120.37Z"/><path class="cls-3" d="M108.39,75.07c5.12,6,13.57,6.18,33.75,6.5,14.55.23,28.72-.79,31.51-1A35.9,35.9,0,0,0,138.83,53c-19.65,1.47-32.76,7.32-33.59,14.48C104.84,70.88,107.35,73.84,108.39,75.07Z"/><path class="cls-3" d="M89.74,98.25s11.56-4,12.14-11.11-9.28-8-9.28-8S75.86,85.58,79.76,92,86,99.88,89.74,98.25Z"/><path class="cls-4" d="M172.76,141.43s.26,30.81-11,33.38H147.6s-.26,5.14-12.84-22.08c0,0-.26-3.59.6-4.62"/><path class="cls-4" d="M92.07,145.34c1.42,3.19.56,9-1.16,20.73-.68,4.6-1.33,7.39-3.66,9.12-1,.71-2.59,1.25-9.56,1.28a55.62,55.62,0,0,1-12.13-1.28,53.51,53.51,0,0,1-7.32-24c-.37-6.79-.82-12.3,2.57-15.53"/><path class="cls-2" d="M1.74,95c.38,6.53,1,17.08,8.5,26.7,11.51,14.76,30.59,15.77,36.62,16.09a60.31,60.31,0,0,0,25-4.06,9.75,9.75,0,0,0,.1,1.58,12.14,12.14,0,0,0,1.62,4.32c1.34,2.52,2,3.78,2.43,3.94,2.81,1.06,7.81-6.15,8.22-6.76a31.8,31.8,0,0,0,4.67-12.57c.2-1.58.21-1.87.21-1.91-.05-1-.33-2,.17-2.35a53.36,53.36,0,0,0,4.79-23.22c0-2.33-.11-4.76-.34-7.25,0-5.58,0-10.5-.14-14.87a95,95,0,0,0-.94-11.56c-1.31-8.24-4.07-12.51-7.47-15.67a21.47,21.47,0,0,0-3-2.32A9.93,9.93,0,0,0,83.5,41c.14-1.89-.27-4.14-2.57-7.7-1.11-1.7-7.37-11.4-11.94-9.88-2.11.7-3,3.52-3.72,5.77-1.82,5.75.43,8.76-1.2,11.09s-5.58,1.37-9.61.86A19.91,19.91,0,0,0,49.54,41c-10.86,1.42-23.82,2.84-33.48,11.6C.1,67,1.4,89.23,1.74,95Z"/><path class="cls-3" d="M29.15,63.63c12.6,2.84,16.55-7.75,16.55-7.75l10-11.11-.87-3.18a16.44,16.44,0,0,0-4.46-.26c-9.9,1.14-21.7,2.23-30.73,10.72C19.69,52.06,16.56,60.78,29.15,63.63Z"/><path class="cls-3" d="M66.76,48s-5.34-18.72,2.64-24c0,0,4.77,1.49,11.42,10.51l3,8.25L68.08,50.62Z"/><path class="cls-3" d="M64.38,74.35c.26,2.17,2.79,3.12,4.34,4.33a5.81,5.81,0,0,1,.59.53c1.45,1.3,2.53,6.87,2.27,21.91a25.11,25.11,0,0,1,1.31,9.5c-.29,4.73-2.08,10-2.46,14.84a28.89,28.89,0,0,0,0,3.91,14.55,14.55,0,0,0,.45,3.32,12.66,12.66,0,0,0,.94,2.37c6.62-2.61,13.11-6.83,17.5-13.66.06-.08.11-.18.18-.27C94,113.89,94,106,94,90.23c0-18.39,0-29.79-4.69-37.73a21.51,21.51,0,0,0-4-5c-4.22-3.93-9.38-5.87-14.89-6.73-2.08-.81-3.26-.49-3.88-.18-4.66,2.32,7.28,20.84.83,28.77C66.18,70.83,64.14,72.27,64.38,74.35Z"/><path class="cls-5" d="M44.82,56.23a22.8,22.8,0,0,0,3,11.56c2.65,4.48,6.79,7.36,11.45,7.36,8,0,14.45-8.47,14.45-18.93S67.26,37.3,59.28,37.3c-5.3,0-9.92,3.72-12.45,9.27A23.41,23.41,0,0,0,44.82,56.23Z"/><path class="cls-5" d="M42.25,91.51A22.66,22.66,0,0,0,44,100.29c2.66,6.32,8.09,10.64,14.36,10.64,8.88,0,16.09-8.7,16.09-19.42S67.23,72.09,58.34,72.09c-5.42,0-10.22,3.24-13.14,8.2A22.13,22.13,0,0,0,42.25,91.51Z"/><path class="cls-6" d="M42.25,91.51A22.66,22.66,0,0,0,44,100.29a4.26,4.26,0,0,0,2.67,1c3.48,0,6.3-4.77,6.3-10.65S50.14,80,46.65,80a3.87,3.87,0,0,0-1.45.29A22.13,22.13,0,0,0,42.25,91.51Z"/><path class="cls-6" d="M44.82,56.23a22.8,22.8,0,0,0,3,11.56c3.4-.14,6.14-4.87,6.14-10.66s-2.82-10.65-6.3-10.65a3.85,3.85,0,0,0-.84.09A23.41,23.41,0,0,0,44.82,56.23Z"/><ellipse class="cls-6" cx="14.26" cy="76.45" rx="6.33" ry="8.64"/><ellipse class="cls-6" cx="14.26" cy="100.16" rx="6.33" ry="8.64"/><path class="cls-3" d="M89.15,123.31s-3.59,19.13-13.09,20.28c0,0-3.59-3.47-5.52-14.51l1-8.73H89.15Z"/><path class="cls-7" d="M89.15,52.33c1.08,3.05,1.9,7.08,0,10.25-.93,1.55-2,2-2.81,2.86-4.4,4.53.72,16.33,2.38,20.94,2.58,7.16,4.2,10.15,2.59,12.5s-4.4,1.35-6.15,3.27-2.12,6.65,4,18.15l.17-.27c4.48-7.14,4.47-14.91,4.45-30.47C93.75,71.4,93.74,60.16,89.15,52.33Z"/><path class="cls-8" d="M93.72,98.26s-16.26,4.45-19.34-10.79c0,0,8.21-4.79,6.84-20.2C81.22,67.28,98,73.62,93.72,98.26Z"/><path class="cls-9" d="M71.36,134.52c0-1.86-.61-3.61-.82-5.44a20.24,20.24,0,0,1,.36-6.54c.1-.46-2-.14-2.14.39a21,21,0,0,0-.47,5.9c.15,2.12.91,4.14.9,6.27,0,.33,2.17,0,2.17-.58Z"/><path class="cls-8" d="M84,45.65s12.15,9.63,8.55,20.29c0,0-6.17,6.05-16.46,0,0,0-3.86-2.41-1.71-7.34a8.38,8.38,0,0,1,2.89-2.45c1.72-.86,2.58-.48,4-1.38a7,7,0,0,0,2.66-3.62A8.53,8.53,0,0,0,84,45.65Z"/></g></g></svg>