<svg xmlns="http://www.w3.org/2000/svg" viewBox="0 0 195.81 195.81"><defs><style>.cls-1,.cls-4{fill:#fff;}.cls-1{opacity:0;}.cls-2{fill:#7c5e2e;stroke-width:3px;}.cls-2,.cls-4,.cls-7{stroke:#2d2d2d;stroke-miterlimit:10;}.cls-3{fill:#dba658;}.cls-5{fill:#212121;}.cls-6{fill:#230000;opacity:0.23;}.cls-7{fill:#7e7069;}</style></defs><title>CowBrownUp</title><g id="Слой_2" data-name="Слой 2"><g id="Outlines"><rect class="cls-1" width="195.81" height="195.81"/><path class="cls-2" d="M60.79,137.6h9.06a12,12,0,0,1,12,12v35.25A7.17,7.17,0,0,1,74.68,192H60.79a12,12,0,0,1-12-12V149.6A12,12,0,0,1,60.79,137.6Z"/><path class="cls-3" d="M61.75,187.41c4.41-10.36,7-12.32,8.53-12.1.88.13,1.89,1,4.34,1.32.57.07,1.33.1,2.85.17,1.17.05,2.14.08,2.81.1C81.67,182,81,187,78,189.33c-1.21,1-4.34,1.05-10.6,1.25-3,.09-5.1,0-5.72-1.19A2.45,2.45,0,0,1,61.75,187.41Z"/><path class="cls-2" d="M121.82,137.6h13.89a7.17,7.17,0,0,1,7.17,7.17V180a12,12,0,0,1-12,12h-9.06a12,12,0,0,1-12-12V149.6a12,12,0,0,1,12-12Z" transform="translate(252.69 329.61) rotate(-180)"/><path class="cls-3" d="M130.14,187.41c-4.41-10.36-7-12.32-8.53-12.1-.88.13-1.89,1-4.34,1.32-.57.07-1.33.1-2.85.17-1.17.05-2.14.08-2.81.1-1.38,5.07-.67,10.1,2.3,12.44,1.21,1,4.34,1.05,10.6,1.25,3,.09,5.1,0,5.72-1.19A2.45,2.45,0,0,0,130.14,187.41Z"/><path class="cls-2" d="M110.75,65.73H81.7A32,32,0,0,0,49.84,97.59v46A32,32,0,0,0,81.7,175.4h6.95v11.06A7.58,7.58,0,0,0,96.23,194h0a7.58,7.58,0,0,0,7.58-7.58V175.4h6.95a32,32,0,0,0,31.86-31.86v-46A32,32,0,0,0,110.75,65.73Z"/><path class="cls-3" d="M88.69,97.33c5.17,3.47,3.61,9.89,4.78,36.73C94.37,154.6,96,167,88.85,172.22a10.85,10.85,0,0,1-2,1.15A26.59,26.59,0,0,1,72,172.31c-9-3.41-13.41-10.89-14.92-13.53-7.62-13.39-3.5-28.23-1.76-34.53C57.19,117.37,61.07,103.37,73,98,75.14,97.09,83.06,93.55,88.69,97.33Z"/><path class="cls-3" d="M110.27,114.51S106,98.06,115.73,86.83s19.39-3.63,19.39-3.63,5.2,24.79-7.34,30.92S111.09,120.31,110.27,114.51Z"/><path class="cls-3" d="M120.06,160.74s-2.12-8.27,2.75-13.91,9.75-1.82,9.75-1.82,2.61,12.46-3.69,15.54S120.48,163.65,120.06,160.74Z"/><path class="cls-2" d="M95.74,1.63c10.44.16,21.06.32,31.6,7.64C130,11.13,143,20.17,145,36.8a37.87,37.87,0,0,1-4.16,21.69,10.31,10.31,0,0,1,5.86-4.84c1.1-.29,2-.28,6.32.39,5.38.84,8.07,1.27,8.29,1.84.52,1.3-2,4.52-17.31,13.33a36.22,36.22,0,0,1-12.89,4c-1.62.17-1.92.18-2,.18-1,0-2-.28-2.41.15a63.38,63.38,0,0,1-23.81,4.15c-2.39,0-4.88-.1-7.44-.29-5.72,0-10.76,0-15.25-.12a114.93,114.93,0,0,1-11.86-.82C59.93,75.36,55.55,73,52.31,70a19.35,19.35,0,0,1-2.38-2.6,11.54,11.54,0,0,1-4.26,1.11c-1.94.12-4.24-.23-7.9-2.22C36,65.35,26.08,59.93,27.64,56c.72-1.82,3.61-2.6,5.92-3.22,5.9-1.58,9,.37,11.38-1s1.4-4.83.88-8.33c-.24-1.64,0-2.48-.14-4.26-.32-4.36,2.38-18.18,11.88-27.47C68.23,1.21,82.43,1.43,95.74,1.63Z"/><path class="cls-3" d="M74.72,18.69c.12,4.71-2,7-2.82,9.9C70.62,33,71.44,40,81.52,51.4L44,54.69a19.86,19.86,0,0,0,3.39-14.56c0-.56.08-1.37.17-2.35A55.06,55.06,0,0,1,50,26.35c1.78-5,6.64-12.53,14.94-19.51C65,6.84,74.39,5.46,74.72,18.69Z"/><path class="cls-3" d="M80.94,46.15a54.25,54.25,0,0,0,5.41-2.48A30.69,30.69,0,0,0,90,40.87c3.76-2.72,8.82-2,12.46-1.4A27.42,27.42,0,0,1,113.91,44c2.33,1.57,4.34,2.73,5.79,3.51,6.07,3.29,9.11,4.94,12.93,4.73,2-.11,2.73-.62,4,0,2.8,1.37,2.15,5.62,4.25,6.23,1.7.5,2.56-2.18,6.32-3,1.24-.27,2.62-.14,5.33.14a68.08,68.08,0,0,1,6.82,1.05,97.45,97.45,0,0,1-11.43,8.43c-4.73,3-7.9,4.94-12.64,6.06a30.83,30.83,0,0,1-8.34.79,66.11,66.11,0,0,1-15.1,3.95c-2.63.36-5.07.54-15.1.44-11-.11-16.69-.17-23-.83C63.55,74.42,59.52,73,56,70.49a25.69,25.69,0,0,1-5.44-5.19,11.56,11.56,0,0,1-3.77,1.5c-6.26,1.26-11.42-3.33-12.24-4.08-3.44-1.8-5.44-4.15-5-5.79s2.76-2.1,4.87-2.63c3.6-.91,5.86-.46,9.48-.53,2.8,0,3.1-.35,8.56-1.05,16.37-2.12,19.31-.16,23.5-3.55A24.87,24.87,0,0,1,80.94,46.15Z"/><path class="cls-4" d="M114.7,23.15a26.2,26.2,0,0,1,8.57,1.4c6.17,2.15,10.39,6.53,10.39,11.58,0,7.17-8.49,13-19,13s-19-5.82-19-13c0-4.38,3.16-8.24,8-10.6A25.19,25.19,0,0,1,114.7,23.15Z"/><path class="cls-5" d="M114.7,23.15a26.2,26.2,0,0,1,8.57,1.4,3.11,3.11,0,0,1,1,2.15c0,2.81-4.65,5.08-10.4,5.08s-10.4-2.27-10.4-5.08a2.66,2.66,0,0,1,.28-1.17A25.19,25.19,0,0,1,114.7,23.15Z"/><path class="cls-4" d="M76.65,23.15a26.56,26.56,0,0,1,11.66,2.54c4.52,2.24,7.43,5.73,7.43,9.66,0,6.73-8.55,12.19-19.09,12.19S57.56,42.08,57.56,35.35c0-4.47,3.75-8.37,9.35-10.5A27.6,27.6,0,0,1,76.65,23.15Z"/><path class="cls-5" d="M75.74,23.15A26.56,26.56,0,0,1,87.4,25.69c-.15,2.87-4.91,5.18-10.75,5.18s-10.74-2.38-10.74-5.31a2.74,2.74,0,0,1,.09-.71A27.6,27.6,0,0,1,75.74,23.15Z"/><path class="cls-6" d="M57,71.61c3.13,1.11,7.26,2,10.51,0,1.59-1,2-2,2.93-2.88,4.64-4.51,16.75.74,21.47,2.44,7.34,2.64,10.41,4.31,12.82,2.65s1.38-4.51,3.35-6.3,6.82-2.17,18.61,4.09l-.27.18c-7.32,4.59-15.29,4.58-31.25,4.56C76.53,76.33,65,76.32,57,71.61Z"/><path class="cls-7" d="M82,50s7.72,13.34,0,23.52c0,0-16.22-.23-20.24-14.07A20.39,20.39,0,0,1,65,42.09c1.77-2.51,3.8-5.14,5.13-6.14C70.11,36,73.27,60.53,82,50Z"/><path class="cls-7" d="M114,49.39s-7.72,13.34,0,23.52c0,0,16.22-.23,20.24-14.07a20.39,20.39,0,0,0-3.17-17.36c-1.77-2.51-3.8-5.14-5.13-6.14C125.93,35.34,122.77,59.92,114,49.39Z"/></g></g></svg>