<svg xmlns="http://www.w3.org/2000/svg" viewBox="0 0 195.81 195.81"><defs><style>.cls-1,.cls-5{fill:#fff;}.cls-1{opacity:0;}.cls-2,.cls-4{fill:#7c5e2e;}.cls-2,.cls-4,.cls-5,.cls-8{stroke:#2d2d2d;stroke-miterlimit:10;}.cls-2{stroke-width:3px;}.cls-3{fill:#dba658;}.cls-4{stroke-width:2px;}.cls-6{fill:#212121;}.cls-7{fill:#230000;opacity:0.23;}.cls-8{fill:#7e7069;}.cls-9{fill:#2d2d2d;}</style></defs><title>CowBrownRight</title><g id="Слой_2" data-name="Слой 2"><g id="Outlines"><rect class="cls-1" width="195.81" height="195.81"/><path class="cls-2" d="M19.5,91.63S1.92,105.5,1.92,106.16s-.83,14.76,2.49,14.93,15.09-4.48,15.09-4.48S26.63,106.95,19.5,91.63Z"/><path class="cls-2" d="M143.55,91.63v30.46a34.76,34.76,0,0,1-34.67,34.66H45.19A25.77,25.77,0,0,1,19.5,131.05V91.63a34.1,34.1,0,0,1,.93-7.92A34.78,34.78,0,0,1,54.16,57h54.73A34.76,34.76,0,0,1,143.55,91.63Z"/><path class="cls-3" d="M47.86,109.65s7.63-13.27,21.23-13.93,15.26,10.65,15.26,10.65S72.07,125.57,59.8,121.09,44.73,113.88,47.86,109.65Z"/><path class="cls-3" d="M85.22,123.08s8.71,19.4,16.67,15.92,15.67-17.66,12.44-20.15-13.68-9.94-18.66-8.7S85.22,114.37,85.22,123.08Z"/><path class="cls-3" d="M85,79.19c-5,5.86-13.15,6-32.7,6.3-14.09.22-27.83-.76-30.53-1A34.78,34.78,0,0,1,55.54,57.77c19,1.43,31.74,7.09,32.55,14C88.48,75.13,86,78,85,79.19Z"/><path class="cls-3" d="M103.11,101.64s-11.2-3.87-11.76-10.76,9-7.73,9-7.73,16.22,6.22,12.43,12.44S106.68,103.23,103.11,101.64Z"/><path class="cls-4" d="M22.67,143.48s-.25,29.85,10.7,32.34H47s.25,5,12.44-21.39c0,0,.25-3.48-.58-4.48"/><path class="cls-4" d="M100.84,147.27c-1.38,3.09-.55,8.76,1.12,20.09.66,4.46,1.29,7.16,3.54,8.83.94.69,2.51,1.21,9.27,1.24a53.88,53.88,0,0,0,11.75-1.24,51.84,51.84,0,0,0,7.09-23.26c.36-6.58.79-11.92-2.49-15.05"/><path class="cls-2" d="M194.11,96.51c-.37,6.33-1,16.55-8.24,25.87-11.15,14.3-29.63,15.27-35.48,15.59A58.43,58.43,0,0,1,126.14,134a9.45,9.45,0,0,1-.1,1.53,11.77,11.77,0,0,1-1.57,4.19c-1.29,2.44-1.94,3.66-2.36,3.82-2.73,1-7.56-6-8-6.55a30.81,30.81,0,0,1-4.53-12.18c-.19-1.53-.2-1.81-.2-1.85,0-.93.32-1.9-.17-2.28a51.7,51.7,0,0,1-4.64-22.5c0-2.26.11-4.61.33-7,0-5.4,0-10.17.14-14.41a92,92,0,0,1,.92-11.2c1.27-8,3.94-12.12,7.23-15.18a20.8,20.8,0,0,1,2.91-2.25,9.62,9.62,0,0,1-1.24-4c-.14-1.83.26-4,2.49-7.46,1.07-1.65,7.14-11,11.57-9.57,2,.68,2.91,3.41,3.6,5.59,1.76,5.57-.42,8.49,1.16,10.75s5.4,1.32,9.31.84a19.29,19.29,0,0,1,4.77-.13c10.52,1.37,23.08,2.76,32.44,11.23C195.7,69.38,194.44,90.9,194.11,96.51Z"/><path class="cls-3" d="M167.55,66.1c-12.21,2.75-16-7.51-16-7.51l-9.73-10.76.84-3.08A15.93,15.93,0,0,1,147,44.5c9.59,1.1,21,2.16,29.77,10.39C176.72,54.89,179.75,63.34,167.55,66.1Z"/><path class="cls-3" d="M131.11,50.94s5.17-18.13-2.56-23.25c0,0-4.62,1.45-11.07,10.18l-2.93,8,15.28,7.64Z"/><path class="cls-3" d="M133.22,76c-.25,2.07-2.67,3-4.15,4.14a5.55,5.55,0,0,0-.56.51c-1.39,1.24-2.42,6.57-2.17,20.93a24,24,0,0,0-1.25,9.08c.28,4.51,2,9.54,2.35,14.18a27.6,27.6,0,0,1,0,3.73,13.9,13.9,0,0,1-.43,3.17,12.09,12.09,0,0,1-.9,2.27c-6.33-2.5-12.53-6.53-16.72-13.05-.06-.08-.11-.17-.17-.26-4.34-6.92-4.33-14.45-4.31-29.52,0-17.57,0-28.46,4.48-36.05a20.55,20.55,0,0,1,3.81-4.75A26.13,26.13,0,0,1,127.46,44c2-.78,3.11-.47,3.71-.17,4.45,2.22-7,19.91-.8,27.48C131.5,72.66,133.45,74,133.22,76Z"/><path class="cls-5" d="M152.38,58.94a22.09,22.09,0,0,1-2.92,11.2c-2.57,4.34-6.58,7.13-11.09,7.13-7.73,0-14-8.21-14-18.34s6.27-18.34,14-18.34c5.13,0,9.61,3.6,12.06,9A22.68,22.68,0,0,1,152.38,58.94Z"/><path class="cls-5" d="M154.86,93.11a22,22,0,0,1-1.68,8.51c-2.58,6.12-7.84,10.31-13.91,10.31-8.61,0-15.59-8.43-15.59-18.82s7-18.82,15.59-18.82c5.25,0,9.9,3.13,12.73,7.94A21.44,21.44,0,0,1,154.86,93.11Z"/><path class="cls-6" d="M154.86,93.11a22,22,0,0,1-1.68,8.51,4.13,4.13,0,0,1-2.59,1c-3.37,0-6.1-4.62-6.1-10.32S147.22,82,150.6,82a3.75,3.75,0,0,1,1.4.28A21.44,21.44,0,0,1,154.86,93.11Z"/><path class="cls-6" d="M152.38,58.94a22.09,22.09,0,0,1-2.92,11.2c-3.29-.14-6-4.72-6-10.33s2.74-10.32,6.1-10.32a3.73,3.73,0,0,1,.82.09A22.68,22.68,0,0,1,152.38,58.94Z"/><ellipse class="cls-6" cx="181.98" cy="78.52" rx="6.14" ry="8.37"/><ellipse class="cls-6" cx="181.98" cy="101.49" rx="6.14" ry="8.37"/><path class="cls-3" d="M109.42,123.93s3.48,18.53,12.69,19.65c0,0,3.48-3.36,5.35-14.05l-1-8.46H109.42Z"/><path class="cls-7" d="M109.42,55.15c-1.05,3-1.84,6.86,0,9.93.9,1.5,1.9,1.92,2.72,2.77,4.26,4.39-.7,15.83-2.31,20.29-2.5,6.94-4.07,9.83-2.5,12.11s4.26,1.31,6,3.17,2.05,6.45-3.87,17.58l-.17-.26c-4.34-6.92-4.33-14.45-4.31-29.52C105,73.63,105,62.74,109.42,55.15Z"/><path class="cls-8" d="M105.62,67.32s15.75,4.31,18.74-10.45c0,0-8-4.64-6.63-19.57C117.73,37.3,101.47,43.44,105.62,67.32Z"/><path class="cls-9" d="M128.81,135c0-2.06.72-4,.87-6.08a20.72,20.72,0,0,0-.45-5.83c-.2-1-2.38-.41-2.17.58a19,19,0,0,1,.35,6.23,42.66,42.66,0,0,0-.79,5.27c0,1.1,2.2.75,2.2-.18Z"/><path class="cls-8" d="M113.73,81.15s-11.77,9.33-8.28,19.66c0,0,6,5.86,15.94,0,0,0,3.74-2.33,1.66-7.11a8.12,8.12,0,0,0-2.8-2.38c-1.67-.84-2.5-.47-3.87-1.33a6.74,6.74,0,0,1-2.58-3.5A8.26,8.26,0,0,1,113.73,81.15Z"/></g></g></svg>