<svg xmlns="http://www.w3.org/2000/svg" viewBox="0 0 195.81 195.81"><defs><style>.cls-1,.cls-4{fill:#fff;}.cls-1{opacity:0;}.cls-2{fill:#7c5e2e;stroke-width:3px;}.cls-2,.cls-4,.cls-7{stroke:#2d2d2d;stroke-miterlimit:10;}.cls-3{fill:#dba658;}.cls-5{fill:#212121;}.cls-6{fill:#230000;opacity:0.23;}.cls-7{fill:#7e7069;}</style></defs><title>CowBrownDown</title><g id="Слой_2" data-name="Слой 2"><g id="Outlines"><rect class="cls-1" width="195.81" height="195.81"/><path class="cls-2" d="M81.72,129.18h28.79A31.67,31.67,0,0,0,142.09,97.6V52.06a31.67,31.67,0,0,0-31.58-31.58h-6.89v-11A7.51,7.51,0,0,0,96.12,2h0a7.51,7.51,0,0,0-7.51,7.51v11H81.72A31.67,31.67,0,0,0,50.15,52.06V97.6A31.67,31.67,0,0,0,81.72,129.18Z"/><path class="cls-3" d="M103.59,97.86c-5.13-3.44-3.58-9.8-4.74-36.4C98,41.1,96.36,28.83,103.43,23.63a10.75,10.75,0,0,1,1.95-1.14,26.35,26.35,0,0,1,14.79,1C129.12,26.93,133.47,34.33,135,37c7.55,13.27,3.47,28,1.74,34.22-1.89,6.83-5.74,20.7-17.57,26C117,98.1,109.17,101.6,103.59,97.86Z"/><path class="cls-3" d="M82.2,80.83s4.18,16.3-5.41,27.43-19.22,3.6-19.22,3.6S52.43,87.3,64.85,81.22,81.38,75.09,82.2,80.83Z"/><path class="cls-3" d="M72.5,35s2.1,8.19-2.72,13.79-9.66,1.81-9.66,1.81-2.59-12.35,3.66-15.4S72.09,32.13,72.5,35Z"/><path class="cls-2" d="M109.43,192.8a69.59,69.59,0,0,1-31.92-1.39c-6.53-1.91-11.82-3.45-17-8-12.91-11.23-12.76-29.62-12.67-32.92.33-12.05,4.54-25.12,4.12-24.34-.86,1.61-2.71,4.51-5.81,5.44-1.09.33-2,.31-6.26-.44-5.33-.94-8-1.43-8.22-2.07-.51-1.46,2-5.07,17.15-15a33.16,33.16,0,0,1,12.78-4.54c1.61-.19,1.9-.2,1.94-.2,1,0,2,.32,2.39-.17,6.7-3.06,14.54-4.65,23.6-4.65,2.37,0,4.83.11,7.37.33,5.67,0,10.67,0,15.11.14a100.81,100.81,0,0,1,11.75.92c8.37,1.28,12.71,4,15.93,7.26a21,21,0,0,1,2.36,2.92,10.41,10.41,0,0,1,4.22-1.25c1.92-.14,4.21.26,7.83,2.5,1.73,1.08,11.59,7.17,10,11.62-.71,2-3.58,2.92-5.87,3.62-5.85,1.77-8.9-.42-11.27,1.17s-1.39,5.42-.88,9.35c.26,2,0,3.07.14,4.78.16,2.46.8,21.36-9.21,33.08C130.18,189,120.79,190.69,109.43,192.8Z"/><path class="cls-3" d="M117.43,163.06c-.12-4.67,1.94-6.91,2.79-9.81,1.27-4.32.46-11.28-9.54-22.61l37.19-3.26a19.68,19.68,0,0,0-3.36,14.43c0,.55-.08,1.36-.17,2.33a54.57,54.57,0,0,1-2.47,11.33c-1.77,4.95-6.58,12.41-14.81,19.33C127.08,174.8,117.76,176.17,117.43,163.06Z"/><path class="cls-3" d="M111.27,140.55c-2.25,1.24-3.35,1.45-5.36,2.84a31.4,31.4,0,0,0-3.65,3.22c-3.72,3.12-8.74,2.24-12.35,1.61A25.3,25.3,0,0,1,78.59,143a68.66,68.66,0,0,0-5.74-4c-6-3.77-9-5.66-12.81-5.43-2,.12-2.71.71-3.92,0-2.77-1.58-2.13-6.45-4.21-7.15-1.69-.57-2.53,2.5-6.26,3.45-1.23.32-2.6.16-5.29-.16a59,59,0,0,1-6.76-1.21,98.73,98.73,0,0,1,11.33-9.66c4.69-3.41,7.83-5.66,12.53-6.95a26.54,26.54,0,0,1,8.26-.91,58.6,58.6,0,0,1,15-4.53c2.61-.42,5-.61,15-.5,10.94.12,16.54.2,22.75,1,10.12,1.24,14.11,2.89,17.61,5.74a27.61,27.61,0,0,1,5.4,5.95,10.62,10.62,0,0,1,3.74-1.72c6.2-1.44,11.32,3.82,12.13,4.68,3.41,2.06,5.39,4.76,5,6.64-.4,1.72-2.74,2.41-4.83,3-3.57,1-5.81.53-9.39.6-2.78.06-3.07.4-8.48,1.21-16.22,2.43-19.14.18-23.29,4.07A24.33,24.33,0,0,1,111.27,140.55Z"/><path class="cls-4" d="M77.81,153.11a26,26,0,0,1-8.5-1.39C63.2,149.6,59,145.26,59,140.25c0-7.1,8.42-12.87,18.79-12.87s18.79,5.76,18.79,12.87c0,4.34-3.13,8.17-7.93,10.5A25,25,0,0,1,77.81,153.11Z"/><path class="cls-5" d="M77.81,153.11a26,26,0,0,1-8.5-1.39,3.08,3.08,0,0,1-1-2.14c0-2.78,4.61-5,10.3-5s10.3,2.25,10.3,5a2.64,2.64,0,0,1-.28,1.16A25,25,0,0,1,77.81,153.11Z"/><path class="cls-4" d="M115.52,153.11A26.32,26.32,0,0,1,104,150.6c-4.48-2.22-7.36-5.68-7.36-9.57,0-6.67,8.47-12.08,18.92-12.08s18.92,5.41,18.92,12.08c0,4.43-3.72,8.29-9.27,10.41A27.35,27.35,0,0,1,115.52,153.11Z"/><path class="cls-5" d="M116.43,153.11a26.32,26.32,0,0,1-11.56-2.52c.14-2.84,4.87-5.13,10.66-5.13s10.65,2.36,10.65,5.26a2.71,2.71,0,0,1-.09.7A27.35,27.35,0,0,1,116.43,153.11Z"/><path class="cls-6" d="M135,110.61c-3.1-1.1-7.19-1.93-10.41,0-1.57.95-2,2-2.9,2.86-4.6,4.47-16.6-.74-21.28-2.42-7.28-2.62-10.31-4.27-12.7-2.63s-1.37,4.47-3.32,6.25-6.76,2.15-18.44-4.06l.27-.18c7.25-4.55,15.16-4.54,31-4.52C115.64,105.93,127.06,105.94,135,110.61Z"/><ellipse class="cls-5" cx="84.94" cy="178.25" rx="6.52" ry="5.11"/><ellipse class="cls-5" cx="108.8" cy="178.25" rx="6.52" ry="5.11"/><path class="cls-7" d="M119.24,102.67s12.35,9.79,8.69,20.63c0,0-6.27,6.15-16.73,0,0,0-3.92-2.45-1.74-7.46a8.52,8.52,0,0,1,2.94-2.49c1.75-.88,2.62-.49,4.06-1.4a7.07,7.07,0,0,0,2.7-3.68A8.66,8.66,0,0,0,119.24,102.67Z"/><path class="cls-7" d="M74.5,102.67s-12.35,9.79-8.69,20.63c0,0,6.27,6.15,16.73,0,0,0,3.92-2.45,1.74-7.46a8.52,8.52,0,0,0-2.94-2.49c-1.75-.88-2.62-.49-4.06-1.4a7.07,7.07,0,0,1-2.7-3.68A8.66,8.66,0,0,1,74.5,102.67Z"/></g></g></svg>