<svg xmlns="http://www.w3.org/2000/svg" viewBox="0 0 130.12 185.73"><defs><style>.cls-1{fill:#515151;stroke-width:3px;}.cls-1,.cls-3,.cls-6{stroke:#2d2d2d;stroke-miterlimit:10;}.cls-2{fill:#989a9a;}.cls-3{fill:#fff;}.cls-4{fill:#212121;}.cls-5{fill:#230000;opacity:0.23;}.cls-6{fill:#7e7069;}</style></defs><title>CowUp</title><g id="Слой_2" data-name="Слой 2"><g id="Outlines"><path class="cls-1" d="M33.74,130.64h7.38a12,12,0,0,1,12,12v32.5A7.17,7.17,0,0,1,46,182.31H33.74a12,12,0,0,1-12-12V142.64A12,12,0,0,1,33.74,130.64Z"/><path class="cls-2" d="M34,177.93c4.19-9.83,6.63-11.7,8.1-11.49.84.12,1.79,1,4.13,1.25.54.06,1.26.1,2.7.16,1.11,0,2,.08,2.67.09,1.31,4.82.64,9.59-2.19,11.81-1.15.91-4.12,1-10.06,1.19-2.86.09-4.84,0-5.43-1.13A2.33,2.33,0,0,1,34,177.93Z"/><path class="cls-1" d="M91.68,130.64H103.9a7.17,7.17,0,0,1,7.17,7.17v32.5a12,12,0,0,1-12,12H91.68a12,12,0,0,1-12-12V142.64a12,12,0,0,1,12-12Z" transform="translate(190.74 312.95) rotate(-180)"/><path class="cls-2" d="M99,177.93c-4.19-9.83-6.63-11.7-8.1-11.49-.84.12-1.79,1-4.12,1.25-.54.06-1.26.1-2.7.16-1.11,0-2,.08-2.67.09-1.31,4.82-.64,9.59,2.19,11.81,1.15.91,4.12,1,10.06,1.19,2.86.09,4.84,0,5.43-1.13A2.33,2.33,0,0,0,99,177.93Z"/><path class="cls-1" d="M80.57,62.4H53A30.34,30.34,0,0,0,22.74,92.65v43.63A30.34,30.34,0,0,0,53,166.54h6.6V177a7.19,7.19,0,0,0,7.19,7.19h0A7.19,7.19,0,0,0,74,177v-10.5h6.6a30.34,30.34,0,0,0,30.25-30.25V92.65A30.34,30.34,0,0,0,80.57,62.4Z"/><path class="cls-2" d="M59.62,92.41c4.91,3.29,3.43,9.39,4.54,34.87.85,19.5,2.38,31.26-4.39,36.24a10.3,10.3,0,0,1-1.87,1.09,25.24,25.24,0,0,1-14.17-1c-8.56-3.24-12.73-10.33-14.16-12.85C22.34,138,26.24,124,27.9,118c1.81-6.54,5.5-19.83,16.83-24.89C46.75,92.18,54.28,88.82,59.62,92.41Z"/><path class="cls-2" d="M80.11,108.72s-4-15.62,5.19-26.28S103.7,79,103.7,79s4.93,23.53-7,29.36S80.89,114.22,80.11,108.72Z"/><path class="cls-2" d="M89.41,152.62s-2-7.85,2.61-13.21,9.25-1.73,9.25-1.73,2.48,11.83-3.51,14.76S89.8,155.38,89.41,152.62Z"/><path class="cls-1" d="M66.32,1.55c9.92.15,20,.31,30,7.25,2.54,1.76,14.91,10.35,16.76,26.13a36,36,0,0,1-4,20.59,9.79,9.79,0,0,1,5.57-4.6c1-.28,1.92-.26,6,.38,5.1.8,7.66,1.21,7.88,1.75.49,1.24-1.92,4.29-16.43,12.66A34.38,34.38,0,0,1,99.9,69.55c-1.54.16-1.82.17-1.86.17-.93,0-1.91-.27-2.29.14A60.17,60.17,0,0,1,73.14,73.8c-2.27,0-4.63-.09-7.06-.28-5.43,0-10.22,0-14.48-.12a109.12,109.12,0,0,1-11.26-.78c-8-1.08-12.18-3.35-15.26-6.14A18.37,18.37,0,0,1,22.82,64a11,11,0,0,1-4,1.06c-1.84.12-4-.22-7.5-2.11C9.62,62.05.18,56.9,1.66,53.14c.68-1.73,3.43-2.47,5.62-3.06,5.6-1.5,8.53.35,10.8-1s1.33-4.59.84-7.91c-.23-1.55,0-2.36-.13-4C18.48,33,21,19.87,30.07,11.05,40.19,1.15,53.68,1.36,66.32,1.55Z"/><path class="cls-2" d="M46.36,17.75c.11,4.47-1.86,6.62-2.68,9.4C42.47,31.29,43.25,38,52.82,48.8L17.19,51.93a18.9,18.9,0,0,0,2.88-6.25,18.92,18.92,0,0,0,.34-7.58c0-.53.07-1.3.16-2.23A52.28,52.28,0,0,1,22.93,25c1.69-4.74,6.31-11.89,14.18-18.52C37.12,6.5,46,5.18,46.36,17.75Z"/><path class="cls-2" d="M52.26,43.82a51.51,51.51,0,0,0,5.14-2.35,29.14,29.14,0,0,0,3.5-2.67c3.57-2.59,8.38-1.86,11.83-1.33A26,26,0,0,1,83.57,41.8c2.21,1.49,4.12,2.59,5.5,3.33,5.77,3.12,8.65,4.69,12.27,4.49,1.9-.1,2.59-.59,3.75,0,2.66,1.3,2,5.34,4,5.92,1.62.47,2.43-2.07,6-2.85a16.82,16.82,0,0,1,5.06.13,64.64,64.64,0,0,1,6.48,1,92.52,92.52,0,0,1-10.85,8c-4.49,2.83-7.5,4.69-12,5.75a29.27,29.27,0,0,1-7.92.75,62.77,62.77,0,0,1-14.33,3.75c-2.5.34-4.81.51-14.33.42-10.48-.1-15.84-.16-21.79-.79-9.69-1-13.52-2.39-16.87-4.75A24.4,24.4,0,0,1,23.4,62a11,11,0,0,1-3.58,1.42C13.87,64.62,9,60.27,8.19,59.55,4.92,57.85,3,55.61,3.44,54.05s2.62-2,4.63-2.5c3.42-.87,5.56-.44,9-.5,2.66,0,2.94-.33,8.13-1,15.54-2,18.34-.15,22.31-3.37A23.61,23.61,0,0,1,52.26,43.82Z"/><path class="cls-3" d="M84.32,22a24.87,24.87,0,0,1,8.14,1.33c5.85,2,9.86,6.2,9.86,11,0,6.81-8.06,12.33-18,12.33s-18-5.52-18-12.33c0-4.15,3-7.83,7.6-10.06A23.91,23.91,0,0,1,84.32,22Z"/><path class="cls-4" d="M84.32,22a24.87,24.87,0,0,1,8.14,1.33,3,3,0,0,1,.93,2c0,2.67-4.42,4.82-9.87,4.82S73.65,28,73.65,25.36a2.53,2.53,0,0,1,.27-1.11A23.91,23.91,0,0,1,84.32,22Z"/><path class="cls-3" d="M48.19,22a25.22,25.22,0,0,1,11.07,2.41c4.29,2.12,7.05,5.44,7.05,9.17,0,6.39-8.11,11.57-18.13,11.57S30.07,40,30.07,33.56c0-4.24,3.56-7.95,8.88-10A26.2,26.2,0,0,1,48.19,22Z"/><path class="cls-4" d="M47.32,22A25.22,25.22,0,0,1,58.4,24.39c-.14,2.72-4.66,4.92-10.21,4.92S38,27,38,24.27a2.6,2.6,0,0,1,.09-.67A26.2,26.2,0,0,1,47.32,22Z"/><path class="cls-5" d="M29.5,68c3,1.06,6.89,1.85,10,0,1.51-.91,1.93-1.91,2.78-2.74,4.41-4.29,15.9.71,20.39,2.32,7,2.51,9.88,4.09,12.17,2.52s1.31-4.28,3.18-6S84.47,62,95.66,68l-.26.17c-6.95,4.36-14.52,4.35-29.67,4.33C48.07,72.47,37.13,72.46,29.5,68Z"/><path class="cls-6" d="M53.31,47.47s7.33,12.67,0,22.33c0,0-15.4-.22-19.21-13.35a19.36,19.36,0,0,1,3-16.49A31.84,31.84,0,0,1,42,34.14S45,57.47,53.31,47.47Z"/><path class="cls-6" d="M83.65,46.89s-7.33,12.67,0,22.33c0,0,15.4-.22,19.21-13.35a19.36,19.36,0,0,0-3-16.49A31.84,31.84,0,0,0,95,33.56S92,56.89,83.65,46.89Z"/></g></g></svg>