<?xml version="1.0" encoding="utf-8"?>
<!-- Generator: Adobe Illustrator 24.3.0, SVG Export Plug-In . SVG Version: 6.00 Build 0)  -->
<svg version="1.1" id="Layer_1" xmlns="http://www.w3.org/2000/svg" xmlns:xlink="http://www.w3.org/1999/xlink" x="0px" y="0px"
	 viewBox="0 0 185.7 185.7" style="enable-background:new 0 0 185.7 185.7;" xml:space="preserve">
<style type="text/css">
	.st0{fill:#515151;stroke:#2D2D2D;stroke-width:3;stroke-miterlimit:10;}
	.st1{fill:#989A9A;}
	.st2{fill:#FFFFFF;stroke:#2D2D2D;stroke-miterlimit:10;}
	.st3{fill:#212121;}
	.st4{opacity:0.23;fill:#230000;enable-background:new    ;}
	.st5{fill:#7E7069;stroke:#2D2D2D;stroke-miterlimit:10;}
</style>
<g id="Слой_2">
	<g id="Outlines">
		<path class="st0" d="M61.5,130.6h7.4c6.6,0,12,5.4,12,12v32.5c0,3.9-3.2,7.1-7.1,7.2H61.5c-6.6,0-12-5.4-12-12v-27.7
			C49.5,136,54.9,130.6,61.5,130.6z"/>
		<path class="st1" d="M61.8,177.9c4.2-9.8,6.6-11.7,8.1-11.5c0.8,0.1,1.8,1,4.1,1.2c0.5,0.1,1.3,0.1,2.7,0.2c1.1,0,2,0.1,2.7,0.1
			c1.3,4.8,0.6,9.6-2.2,11.8c-1.2,0.9-4.1,1-10.1,1.2c-2.9,0.1-4.8,0-5.4-1.1C61.5,179.2,61.5,178.5,61.8,177.9z"/>
		<path class="st0" d="M126.9,182.3h-12.2c-4,0-7.2-3.2-7.2-7.2v-32.5c0-6.6,5.4-12,12-12h7.4c6.6,0,12,5.4,12,12v27.7
			C138.9,176.9,133.5,182.3,126.9,182.3z"/>
		<path class="st1" d="M126.8,177.9c-4.2-9.8-6.6-11.7-8.1-11.5c-0.8,0.1-1.8,1-4.1,1.2c-0.5,0.1-1.3,0.1-2.7,0.2
			c-1.1,0-2,0.1-2.7,0.1c-1.3,4.8-0.6,9.6,2.2,11.8c1.2,0.9,4.1,1,10.1,1.2c2.9,0.1,4.8,0,5.4-1.1
			C127.1,179.2,127.1,178.5,126.8,177.9z"/>
		<path class="st0" d="M108.4,62.4H80.8c-16.7,0-30.2,13.6-30.3,30.2v43.6c0,16.7,13.6,30.2,30.3,30.3h6.6V177c0,4,3.2,7.2,7.2,7.2
			c0,0,0,0,0,0l0,0c4,0,7.2-3.2,7.2-7.2c0,0,0,0,0,0v-10.5h6.6c16.7,0,30.2-13.6,30.2-30.2V92.7C138.6,76,125.1,62.4,108.4,62.4z"/>
		<path class="st1" d="M87.4,92.4c4.9,3.3,3.4,9.4,4.5,34.9c0.8,19.5,2.4,31.3-4.4,36.2c-0.6,0.4-1.2,0.8-1.9,1.1
			c-4.7,1-9.6,0.7-14.2-1c-8.6-3.2-12.7-10.3-14.2-12.9C50.1,138,54,124,55.7,118c1.8-6.5,5.5-19.8,16.8-24.9
			C74.6,92.2,82.1,88.8,87.4,92.4z"/>
		<path class="st1" d="M107.9,108.7c0,0-4-15.6,5.2-26.3s18.4-3.4,18.4-3.4s4.9,23.5-7,29.4S108.7,114.2,107.9,108.7z"/>
		<path class="st1" d="M117.2,152.6c0,0-2-7.9,2.6-13.2s9.3-1.7,9.3-1.7s2.5,11.8-3.5,14.8S117.6,155.4,117.2,152.6z"/>
		<path class="st0" d="M94.1,1.5c9.9,0.1,20,0.3,30,7.2c2.5,1.8,14.9,10.4,16.8,26.1c0.7,7.1-0.7,14.3-4,20.6
			c1.2-2.2,3.2-3.8,5.6-4.6c1-0.3,1.9-0.3,6,0.4c5.1,0.8,7.7,1.2,7.9,1.8c0.5,1.2-1.9,4.3-16.4,12.7c-3.8,2-7.9,3.3-12.2,3.8
			c-1.5,0.2-1.8,0.2-1.9,0.2c-0.9,0-1.9-0.3-2.3,0.1c-7.2,2.8-14.9,4.1-22.6,3.9c-2.3,0-4.6-0.1-7.1-0.3c-5.4,0-10.2,0-14.5-0.1
			c-3.8-0.1-7.5-0.3-11.3-0.8c-8-1.1-12.2-3.3-15.3-6.1c-0.8-0.8-1.6-1.6-2.3-2.5c-1.3,0.6-2.6,1-4,1.1c-1.8,0.1-4-0.2-7.5-2.1
			c-1.7-0.9-11.1-6-9.7-9.8c0.7-1.7,3.4-2.5,5.6-3.1c5.6-1.5,8.5,0.3,10.8-1s1.3-4.6,0.8-7.9c-0.2-1.5,0-2.4-0.1-4
			c-0.3-4.2,2.2-17.3,11.3-26.1C68,1.1,81.5,1.4,94.1,1.5z"/>
		<path class="st1" d="M74.2,17.8c0.1,4.5-1.9,6.6-2.7,9.4c-1.2,4.1-0.4,10.9,9.1,21.6L45,51.9c1.3-1.9,2.3-4,2.9-6.2
			c0.6-2.5,0.7-5.1,0.3-7.6c0-0.5,0.1-1.3,0.2-2.2c0.4-3.7,1.2-7.3,2.4-10.9c1.7-4.7,6.3-11.9,14.2-18.5
			C64.9,6.5,73.8,5.2,74.2,17.8z"/>
		<path class="st1" d="M80.1,43.8c1.8-0.7,3.5-1.5,5.1-2.3c1.2-0.8,2.4-1.7,3.5-2.7c3.6-2.6,8.4-1.9,11.8-1.3
			c3.9,0.6,7.6,2.1,10.8,4.3c2.2,1.5,4.1,2.6,5.5,3.3c5.8,3.1,8.7,4.7,12.3,4.5c1.9-0.1,2.6-0.6,3.8,0c2.7,1.3,2,5.3,4,5.9
			c1.6,0.5,2.4-2.1,6-2.8c1.7-0.2,3.4-0.2,5.1,0.1c2.2,0.2,4.3,0.6,6.5,1c-3.4,2.9-7,5.6-10.8,8c-4.5,2.8-7.5,4.7-12,5.7
			c-2.6,0.6-5.3,0.9-7.9,0.8c-4.6,1.8-9.4,3.1-14.3,3.8c-2.5,0.3-4.8,0.5-14.3,0.4c-10.5-0.1-15.8-0.2-21.8-0.8
			c-9.7-1-13.5-2.4-16.9-4.8c-1.9-1.4-3.7-3.1-5.1-4.9c-1.1,0.7-2.3,1.2-3.6,1.4c-6,1.2-10.8-3.1-11.6-3.9c-3.3-1.7-5.2-3.9-4.8-5.5
			s2.6-2,4.6-2.5c3.4-0.9,5.6-0.4,9-0.5c2.7,0,2.9-0.3,8.1-1c15.5-2,18.3-0.2,22.3-3.4C76.8,45.5,78.4,44.6,80.1,43.8z"/>
		<path class="st2" d="M112.1,22c2.8,0,5.5,0.4,8.1,1.3c5.8,2,9.9,6.2,9.9,11c0,6.8-8.1,12.3-18,12.3s-18-5.5-18-12.3
			c0-4.1,3-7.8,7.6-10.1C105,22.7,108.5,22,112.1,22z"/>
		<path class="st3" d="M112.1,22c2.8,0,5.5,0.4,8.1,1.3c0.6,0.5,0.9,1.2,0.9,2c0,2.7-4.4,4.8-9.9,4.8s-9.9-2.1-9.9-4.8
			c0-0.4,0.1-0.8,0.3-1.1C105,22.7,108.5,22,112.1,22z"/>
		<path class="st2" d="M76,22c3.8,0,7.6,0.8,11.1,2.4c4.3,2.1,7,5.4,7,9.2C94.1,40,86,45.2,76,45.2S57.9,40,57.9,33.6
			c0-4.2,3.6-8,8.9-10C69.7,22.5,72.8,22,76,22z"/>
		<path class="st3" d="M75.1,22c3.8-0.1,7.6,0.8,11.1,2.4c-0.1,2.7-4.7,4.9-10.2,4.9c-5.5,0-10.2-2.3-10.2-5c0-0.2,0-0.5,0.1-0.7
			C68.9,22.5,72,22,75.1,22z"/>
		<path class="st4" d="M57.3,68c3,1.1,6.9,1.8,10,0c1.5-0.9,1.9-1.9,2.8-2.7C74.5,61,86,66,90.5,67.6c7,2.5,9.9,4.1,12.2,2.5
			s1.3-4.3,3.2-6s6.5-2.1,17.6,3.9l-0.3,0.2c-6.9,4.4-14.5,4.3-29.7,4.3C75.9,72.5,64.9,72.5,57.3,68z"/>
		<path class="st5" d="M81.1,47.5c0,0,7.3,12.7,0,22.3c0,0-15.4-0.2-19.2-13.3c-1.6-5.7-0.5-11.7,3-16.5c1.4-2.1,3-4.1,4.9-5.8
			C69.8,34.1,72.8,57.5,81.1,47.5z"/>
		<path class="st5" d="M111.5,46.9c0,0-7.3,12.7,0,22.3c0,0,15.4-0.2,19.2-13.3c1.6-5.7,0.5-11.7-3-16.5c-1.4-2.1-3-4.1-4.9-5.8
			C122.8,33.6,119.8,56.9,111.5,46.9z"/>
	</g>
</g>
</svg>
