<?xml version="1.0" encoding="utf-8"?>
<!-- Generator: Adobe Illustrator 24.3.0, SVG Export Plug-In . SVG Version: 6.00 Build 0)  -->
<svg version="1.1" id="Layer_1" xmlns="http://www.w3.org/2000/svg" xmlns:xlink="http://www.w3.org/1999/xlink" x="0px" y="0px"
	 viewBox="0 0 190.6 190.6" style="enable-background:new 0 0 190.6 190.6;" xml:space="preserve">
<style type="text/css">
	.st0{fill:#515151;stroke:#2D2D2D;stroke-width:3;stroke-miterlimit:10;}
	.st1{fill:#989A9A;}
	.st2{fill:#515151;stroke:#2D2D2D;stroke-width:2;stroke-miterlimit:10;}
	.st3{fill:#FFFFFF;stroke:#2D2D2D;stroke-miterlimit:10;}
	.st4{fill:#212121;}
	.st5{opacity:0.23;fill:#230000;enable-background:new    ;}
	.st6{fill:#7E7069;stroke:#2D2D2D;stroke-miterlimit:10;}
	.st7{fill:#2D2D2D;}
</style>
<g id="Слой_2">
	<g id="Outlines">
		<path class="st0" d="M171.4,83.9c0,0,17.6,13.9,17.6,14.6s0.8,14.8-2.5,15s-15.2-4.5-15.2-4.5S164.2,99.3,171.4,83.9z"/>
		<path class="st0" d="M46.7,83.9v30.6c0.1,19.2,15.6,34.8,34.8,34.8h64c14.2,0,25.8-11.6,25.8-25.8V83.9c0-2.7-0.3-5.4-0.9-8
			c-3.8-15.7-17.8-26.8-33.9-26.9h-55C62.3,49.1,46.7,64.7,46.7,83.9z"/>
		<path class="st1" d="M142.9,102.1c0,0-7.7-13.3-21.3-14s-15.3,10.7-15.3,10.7s12.3,19.3,24.7,14.8S146,106.3,142.9,102.1z"/>
		<path class="st1" d="M105.3,115.6c0,0-8.8,19.5-16.8,16s-15.8-17.7-12.5-20.2s13.8-10,18.8-8.8S105.3,106.8,105.3,115.6z"/>
		<path class="st1" d="M105.5,71.5c5,5.9,13.2,6,32.9,6.3c14.2,0.2,28-0.8,30.7-1c-3.8-15.7-17.8-26.8-33.9-26.9
			c-19.1,1.4-31.9,7.1-32.7,14.1C102,67.4,104.5,70.2,105.5,71.5z"/>
		<path class="st1" d="M87.3,94c0,0,11.2-3.9,11.8-10.8c0.6-6.9-9-7.8-9-7.8s-16.3,6.2-12.5,12.5S83.8,95.6,87.3,94z"/>
		<path class="st2" d="M168.2,136.1c0,0,0.2,30-10.8,32.5h-13.8c0,0-0.2,5-12.5-21.5c0,0-0.2-3.5,0.6-4.5"/>
		<path class="st2" d="M89.6,139.9c1.4,3.1,0.6,8.8-1.1,20.2c-0.7,4.5-1.3,7.2-3.6,8.9c-0.9,0.7-2.5,1.2-9.3,1.2
			c-4,0-7.9-0.4-11.8-1.2c-4.2-7.1-6.6-15.1-7.1-23.4c-0.4-6.6-0.8-12,2.5-15.1"/>
		<path class="st0" d="M1.7,90.9c0.4,6.4,1,16.6,8.3,26c11.2,14.4,29.8,15.3,35.7,15.7c8.3,0.4,16.6-1,24.4-4c0,0.5,0,1,0.1,1.5
			c0.3,1.5,0.8,2.9,1.6,4.2c1.3,2.4,2,3.7,2.4,3.8c2.7,1,7.6-6,8-6.6c2.4-3.7,3.9-7.9,4.5-12.2c0.2-1.5,0.2-1.8,0.2-1.9
			c0-0.9-0.3-1.9,0.2-2.3c3.2-7.1,4.8-14.8,4.7-22.6c0-2.3-0.1-4.6-0.3-7.1c0-5.4,0-10.2-0.1-14.5c-0.1-3.8-0.4-7.5-0.9-11.3
			c-1.3-8-4-12.2-7.3-15.3c-0.9-0.8-1.9-1.6-3-2.3c0.7-1.2,1.1-2.6,1.2-4c0.1-1.8-0.3-4-2.5-7.5c-1.1-1.7-7.2-11.1-11.6-9.7
			c-2,0.7-2.9,3.4-3.6,5.6c-1.8,5.6,0.4,8.5-1.2,10.8s-5.4,1.3-9.4,0.8c-1.6-0.2-3.2-0.3-4.8-0.1C37.6,39.6,25,41,15.6,49.5
			C0.1,63.6,1.3,85.2,1.7,90.9z"/>
		<path class="st1" d="M28.4,60.3c12.3,2.8,16.1-7.5,16.1-7.5l9.8-10.8l-0.8-3.1c-1.4-0.3-2.9-0.4-4.3-0.2
			c-9.6,1.1-21.1,2.2-29.9,10.4C19.1,49,16.1,57.5,28.4,60.3z"/>
		<path class="st1" d="M65,45.1c0,0-5.2-18.2,2.6-23.4c0,0,4.6,1.4,11.1,10.2l2.9,8l-15.3,7.7L65,45.1z"/>
		<path class="st1" d="M62.9,70.3c0.2,2.1,2.7,3,4.2,4.2c0.2,0.2,0.4,0.3,0.6,0.5c1.4,1.2,2.4,6.6,2.2,21c1,2.9,1.4,6.1,1.2,9.2
			c-0.3,4.5-2,9.6-2.4,14.2c-0.1,1.2-0.1,2.5,0,3.8c0,1.1,0.2,2.1,0.4,3.2c0.2,0.8,0.5,1.6,0.9,2.3c6.4-2.5,12.6-6.6,16.8-13.1
			c0.1-0.1,0.1-0.2,0.2-0.3c4.4-6.9,4.3-14.5,4.3-29.7c0-17.7,0-28.6-4.5-36.2c-1-1.8-2.3-3.4-3.8-4.8c-4-3.6-9-5.8-14.3-6.5
			c-2-0.8-3.1-0.5-3.7-0.2c-4.5,2.2,7,20,0.8,27.6C64.6,66.9,62.6,68.3,62.9,70.3z"/>
		<path class="st3" d="M43.6,53.1c0,3.9,1,7.8,2.9,11.3c2.6,4.4,6.6,7.2,11.2,7.2c7.8,0,14.1-8.3,14.1-18.4s-6.3-18.4-14.1-18.4
			c-5.2,0-9.7,3.6-12.1,9C44.3,46.6,43.6,49.9,43.6,53.1z"/>
		<path class="st3" d="M41.1,87.5c0,2.9,0.6,5.8,1.7,8.6c2.6,6.2,7.9,10.4,14,10.4c8.6,0,15.7-8.5,15.7-18.9s-7-18.9-15.7-18.9
			c-5.3,0-10,3.2-12.8,8C42.1,79.9,41.1,83.6,41.1,87.5z"/>
		<path class="st4" d="M41.1,87.5c0,2.9,0.6,5.8,1.7,8.6c0.7,0.6,1.6,1,2.6,1c3.4,0,6.1-4.6,6.1-10.4s-2.7-10.4-6.1-10.4
			c-0.5,0-1,0.1-1.4,0.3C42.1,79.8,41.1,83.6,41.1,87.5z"/>
		<path class="st4" d="M43.6,53.1c0,3.9,1,7.8,2.9,11.3c3.3-0.1,6-4.7,6-10.4s-2.8-10.4-6.1-10.4c-0.3,0-0.6,0-0.8,0.1
			C44.3,46.7,43.6,49.9,43.6,53.1z"/>
		<ellipse class="st4" cx="13.9" cy="72.8" rx="6.2" ry="8.4"/>
		<ellipse class="st4" cx="13.9" cy="95.9" rx="6.2" ry="8.4"/>
		<path class="st1" d="M86.8,118.5c0,0-3.5,18.6-12.8,19.7c0,0-3.5-3.4-5.4-14.1l1-8.5h17.2V118.5z"/>
		<path class="st5" d="M86.8,49.3c1.1,3,1.8,6.9,0,10c-0.9,1.5-1.9,1.9-2.7,2.8c-4.3,4.4,0.7,15.9,2.3,20.4c2.5,7,4.1,9.9,2.5,12.2
			s-4.3,1.3-6,3.2s-2,6.5,3.9,17.7l0.2-0.3c4.4-6.9,4.3-14.5,4.3-29.7C91.3,67.9,91.2,56.9,86.8,49.3z"/>
		<path class="st6" d="M91.2,94c0,0-15.8,4.3-18.8-10.5c0,0,8-4.7,6.7-19.7C79.1,63.9,95.4,70,91.2,94z"/>
		<path class="st7" d="M69.5,129.3c-0.2-1.8-0.4-3.6-0.8-5.3c-0.2-2.1-0.1-4.3,0.3-6.3c0.1-0.6-2-0.2-2.2,0.3
			c-0.4,1.9-0.6,3.8-0.4,5.8c0.2,2.1,0.9,4,0.9,6.1C67.3,130.4,69.4,130,69.5,129.3L69.5,129.3z"/>
		<path class="st6" d="M81.8,42.8c0,0,11.8,9.4,8.3,19.8c0,0-6,5.9-16,0c0,0-3.8-2.3-1.7-7.1c0.7-1,1.7-1.8,2.8-2.4
			c1.7-0.8,2.5-0.5,3.9-1.3c1.2-0.9,2.1-2.1,2.6-3.5C82.3,46.4,82.3,44.6,81.8,42.8z"/>
	</g>
</g>
</svg>
