<?xml version="1.0" encoding="utf-8"?>
<!-- Generator: Adobe Illustrator 24.3.0, SVG Export Plug-In . SVG Version: 6.00 Build 0)  -->
<svg version="1.1" id="Layer_1" xmlns="http://www.w3.org/2000/svg" xmlns:xlink="http://www.w3.org/1999/xlink" x="0px" y="0px"
	 viewBox="0 0 110.9 110.9" style="enable-background:new 0 0 110.9 110.9;" xml:space="preserve">
<style type="text/css">
	.st0{fill:#907F3E;stroke:#2D2D2D;stroke-width:2;stroke-miterlimit:10;}
	.st1{fill:#B4A86B;}
	.st2{fill:#2D2D2D;}
	.st3{opacity:0.2;enable-background:new    ;}
</style>
<g id="Слой_2">
	<g id="Outlines">
		<path class="st0" d="M65.5,49.4c-2.4,3.4-6.2,5.4-10.3,5.5c-4.1-0.1-8-2.1-10.3-5.5c0-14.4,0-28.7,0-43.1L66,6.2L65.5,49.4z"/>
		<path class="st1" d="M55.5,12.5c-6.2,0-11.1-2.6-11.1-6s4.9-6,11.1-6s11.1,2.6,11.1,6S61.7,12.5,55.5,12.5z"/>
		<path class="st2" d="M55.5,1C61.3,1,66,3.5,66,6.5S61.3,12,55.5,12S44.9,9.5,44.9,6.5S49.6,1,55.5,1 M55.5,0
			C49,0,43.9,2.9,43.9,6.5S49,13,55.5,13S67,10.1,67,6.5S62,0,55.5,0z"/>
		<path class="st0" d="M65.5,61.2c-2.4,3.4-6.2,5.4-10.3,5.5c-4.1-0.1-8-2.1-10.3-5.5c0-14.4,0-28.7,0-43.1L66,18L65.5,61.2z"/>
		<path class="st1" d="M55.5,24.3c-6.2,0-11.1-2.6-11.1-6s4.9-6,11.1-6s11.1,2.6,11.1,6S61.7,24.3,55.5,24.3z"/>
		<path class="st2" d="M55.5,12.8c5.8,0,10.6,2.5,10.6,5.5s-4.7,5.5-10.6,5.5s-10.6-2.5-10.6-5.5S49.6,12.8,55.5,12.8 M55.5,11.8
			c-6.5,0-11.6,2.9-11.6,6.5s5.1,6.5,11.6,6.5S67,22,67,18.3S62,11.8,55.5,11.8L55.5,11.8z"/>
		<path class="st0" d="M66,29.6L66,29.6c0,0.2,0,0.4,0,0.6L65.9,41c0,0.2,0,0.5,0,0.8v0.6c0,0.4,0,0.8,0,1.3c0,3.7-0.1,7.3-0.1,11
			c0,0.4,0,0.7,0,1.1s0,1,0,1.5c0,0.1,0,0.3,0,0.4c-0.1,5-0.1,10.1-0.2,15.1c-2.4,3.4-6.2,5.4-10.3,5.5c-4.1-0.1-8-2.1-10.4-5.4l0,0
			V56c0-2.2,0-4.4,0-6.6v-6.9l0,0v-0.1c0-4.1,0-8.1,0-12.2v-0.5l0,0l20.9-0.1L66,29.6z"/>
		<path class="st1" d="M55.5,35.9c-6.2,0-11.1-2.6-11.1-6s4.9-6,11.1-6s11.1,2.6,11.1,6S61.7,35.9,55.5,35.9z"/>
		<path class="st2" d="M55.5,24.4c5.8,0,10.6,2.5,10.6,5.5s-4.7,5.5-10.6,5.5S44.9,33,44.9,29.9S49.6,24.4,55.5,24.4 M55.5,23.4
			c-6.5,0-11.6,2.9-11.6,6.5s5.1,6.5,11.6,6.5S67,33.6,67,29.9S61.9,23.4,55.5,23.4z"/>
		<path class="st0" d="M66,42.4L66,42.4c0,0.2,0,0.4,0,0.6c0,4-0.1,8-0.1,12.1c0,0.2,0,0.5,0,0.7c0,0.5,0,1,0,1.5l0,0
			c-0.1,9.4-0.2,18.9-0.3,28.3c-2.4,3.4-6.2,5.4-10.3,5.5c-4.1-0.1-8-2.1-10.4-5.5l0,0V72.8c0-3.9,0-7.7,0-11.6v-5.4
			c0-2.2,0-4.3,0-6.5v-6.9l0,0h14.5h6.2L66,42.4z"/>
		<path class="st1" d="M55.5,48.7c-0.4,0-0.9,0-1.3,0c-5.4-0.4-9.5-2.7-9.8-5.7l0,0c0,0,0-0.1,0-0.1v-0.3v-0.1
			c0.3-3.3,5.1-5.7,11.1-5.7c4.8,0,9,1.6,10.5,4.1l0.1,0.1c0.1,0.1,0.1,0.2,0.2,0.3c0.1,0.1,0.1,0.3,0.2,0.4
			c0.1,0.2,0.1,0.5,0.1,0.7c0,0.1,0,0.2,0,0.4c0,0.1,0,0.2,0,0.4c0,0.3-0.1,0.5-0.2,0.8c0,0.1-0.1,0.3-0.2,0.4
			c0,0.1-0.1,0.2-0.1,0.3C64.6,47,60.3,48.7,55.5,48.7z"/>
		<path class="st2" d="M55.5,37.2c4.7,0,8.7,1.6,10.1,3.8l0.1,0.1l0.1,0.3c0.1,0.1,0.1,0.2,0.1,0.3c0.1,0.2,0.1,0.4,0.1,0.6l0,0
			c0,0.1,0,0.2,0,0.3c0,0.1,0,0.2,0,0.3c0,0.2-0.1,0.4-0.2,0.7c0,0.1-0.1,0.2-0.1,0.3c0,0.1-0.1,0.2-0.1,0.3
			c-1.3,2.3-5.3,3.9-10.1,3.9c-0.4,0-0.8,0-1.2,0c-5.1-0.3-9.1-2.5-9.4-5.2v-0.1c0,0,0,0,0-0.1v-0.2c0,0,0-0.1,0-0.1l0,0v-0.1
			C45.2,39.5,49.8,37.2,55.5,37.2 M55.4,36.2c-6.2,0-11.2,2.6-11.6,6.1v0.1l0,0c0,0,0,0.1,0,0.2v0.2c0,0.1,0,0.1,0,0.2v0.1
			c0.3,3.2,4.6,5.7,10.3,6.1c0.4,0,0.8,0,1.3,0c5,0,9.5-1.8,11-4.4c0.1-0.1,0.1-0.2,0.2-0.3c0.1-0.1,0.1-0.3,0.2-0.4
			c0.1-0.3,0.2-0.6,0.2-0.9c0-0.1,0-0.3,0-0.4s0-0.2,0-0.3v-0.1c0-0.2-0.1-0.5-0.1-0.7c0-0.2-0.1-0.3-0.2-0.5c0-0.1-0.1-0.2-0.2-0.3
			v0v-0.1l0,0C64.9,38,60.5,36.3,55.4,36.2L55.4,36.2z"/>
		<path class="st0" d="M66,55.8L66,55.8c0,0.2,0,0.5,0,0.7l0,0c0,0.2,0,0.5,0,0.8c-0.2,15.5-0.3,31-0.5,46.5c-0.6,1-1.3,1.8-2.1,2.6
			c-2.2,2.2-5.1,3.5-8.2,3.5c-6.5,0-10-5.6-10.3-6.1c0-6.1,0-12.1,0-18.2c0-4.2,0-8.5,0-12.8V55.9l14.4-0.1h6.3L66,55.8z"/>
		<path class="st1" d="M55.5,62.8c-5.9,0-10.8-2.8-11.1-6.3v-0.7c0.3-1.7,1.3-3.3,2.8-4.1c2.1-1.3,4.5-2,7-2.1c0.4,0,0.8,0,1.3,0
			c2.8-0.1,5.5,0.6,7.9,2c1.1,0.6,2,1.6,2.7,2.7l0.1,0.1l0.1,0.2c0.1,0.2,0.1,0.3,0.2,0.4c0.1,0.3,0.1,0.5,0.2,0.8
			c0,0.1,0,0.3,0,0.4s0,0.3,0,0.4c0,0.3-0.1,0.5-0.2,0.8l0,0l-0.2,0.5l-0.1,0.3C64.6,60.9,60.3,62.8,55.5,62.8z"/>
		<path class="st2" d="M55.5,50c2.7-0.1,5.3,0.6,7.7,1.9c1,0.6,1.9,1.4,2.5,2.5c0,0.1,0.1,0.2,0.1,0.3s0.1,0.3,0.1,0.4
			c0.1,0.2,0.1,0.5,0.1,0.7l0,0c0,0.1,0,0.2,0,0.3s0,0.2,0,0.4l0,0c0,0.3-0.1,0.5-0.2,0.7l0,0l-0.2,0.4L65.6,58
			c-1.3,2.5-5.4,4.3-10.1,4.3c-5.7,0-10.3-2.6-10.6-5.9v-0.1c0,0,0-0.1,0-0.1V56c0,0,0-0.1,0-0.1v-0.1c0.3-1.6,1.2-2.9,2.6-3.7
			c2-1.2,4.3-1.9,6.7-2C54.6,50.1,55,50.1,55.5,50 M55.4,49.1c-0.4,0-0.8,0-1.3,0c-2.5,0.1-5,0.9-7.2,2.2c-1.6,0.9-2.8,2.6-3.1,4.4
			v0.1l0,0c0,0.1,0,0.1,0,0.2v0.2c0,0.1,0,0.1,0,0.2l0,0v0.1c0.3,3.8,5.3,6.7,11.6,6.7c5,0,9.5-1.9,11-4.8l0,0l0,0l0.1-0.1l0.1-0.2
			l0,0l0.1-0.2l0.1-0.2l0.1-0.2l0,0c0.1-0.3,0.1-0.5,0.1-0.8v-0.1c0-0.1,0-0.3,0-0.4s0-0.2,0-0.3v-0.1c0-0.3-0.1-0.6-0.2-0.9
			c0-0.2-0.1-0.3-0.2-0.5s-0.1-0.2-0.1-0.2v-0.1c-0.7-1.2-1.7-2.3-2.9-2.9C61.1,49.8,58.3,49,55.4,49.1L55.4,49.1z"/>
		<path class="st3" d="M63.4,106.4c-2.2,2.2-5.1,3.5-8.2,3.5c-6.5,0-10-5.6-10.3-6.1c0-11.7,0-23.5,0-35.2c2.3,1.7,4.9,4.2,5.3,7
			c0.8,5.1-1.5,12.6,1.4,19s4.9,7,8.2,8.5C61.3,103.9,62.5,105,63.4,106.4z"/>
		<path class="st3" d="M66,55.8c0,0.1,0,0.2,0,0.3s0,0.2,0,0.4l0,0c0,0.2,0,0.5,0,0.8h-0.4c-1.1-0.1-0.5-3.2-2.1-5.1
			c-1.9-2.3-6.7-2.4-7.2-2.4c-0.6-0.1-1.2-0.2-1.7-0.3c-0.2,0-0.3-0.1-0.4-0.2c-0.1-0.2-0.1-0.4,0-0.5c0.2-0.1,0.5,0.1,0.6,0.2
			c0.8,0.5,3.4,0.2,7.4-1.7c3-1.4,3.6-2.2,3.7-2.8c0-0.2,0.2-1.3,0.2-1.3l0,0c0,4-0.1,8-0.1,12.1C65.9,55.3,66,55.6,66,55.8z"/>
	</g>
</g>
</svg>
