<svg xmlns="http://www.w3.org/2000/svg" viewBox="0 0 128.95 141.67"><defs><style>.cls-1{fill:#ba6323;}.cls-1,.cls-2,.cls-4,.cls-5,.cls-6{stroke:#2d2d2d;}.cls-1,.cls-2,.cls-4,.cls-5,.cls-6,.cls-7{stroke-miterlimit:10;}.cls-2{fill:#deb100;}.cls-3{fill:#030000;opacity:0.21;}.cls-4{fill:#904918;}.cls-5{fill:#ffd968;stroke-width:0.75px;}.cls-6{fill:#b78d09;}.cls-7{fill:#fff;stroke:#000;}.cls-8{fill:#fff9f5;opacity:0.26;}</style></defs><title>Goblet_1</title><g id="Слой_2" data-name="Слой 2"><g id="Outlines"><rect class="cls-1" x="34.11" y="81.94" width="56.5" height="40.69"/><path class="cls-2" d="M43.34,86.32c-3-.31-7.71-.82-14.8-1.65C16.4,83.27,9.16,66.82,5,51.72A175.33,175.33,0,0,1,.51,28.79.85.85,0,0,1,1.91,28c4.73,4.06,16,8.91,16,8.91v7.94L8.58,39.72A69.3,69.3,0,0,0,9,49.11c3.09,25.1,19.82,31.73,19.82,31.73L44.19,83.1l4.24.63a24.66,24.66,0,0,0,.54,3S50.11,87,43.34,86.32Z"/><path class="cls-2" d="M44.19,85.84c-5.58,6.88-4.5,12.88-4.5,12.88,0,.22,0,.45,0,.67l-.06,0c0,10.68,10.15,19.33,22.67,19.33,12.25,0,22.23-8.29,22.65-18.66q0-.44,0-.88c.13-1.09.46-6.52-4.53-12.66"/><path class="cls-3" d="M44.31,85.84c-4.95,6-4,11.26-4,11.26,0,.2,0,.39,0,.59l-.06,0c0,9.34,9,16.91,20.08,16.91,10.86,0,19.69-7.25,20.06-16.32q0-.38,0-.77c.11-1,.41-5.7-4-11.08Z"/><path class="cls-2" d="M80.52,79.94v4.24c0,8.56-8.13,15.5-18.17,15.5s-18.17-6.94-18.17-15.5v-5.4"/><path class="cls-3" d="M76.38,77.37v2.94C76.38,86.24,69.25,91,60.46,91S44.55,86.24,44.55,80.31V76.57Z"/><path class="cls-2" d="M111,30.71v21.8c0,6.84-3.75,13.14-10,18.12l-.11.08c-8.52,6.71-21.64,11-36.35,11C42.42,81.71,23.91,72,19.19,59A19.06,19.06,0,0,1,18,52.52V30.71Z"/><rect class="cls-4" x="34.09" y="122.86" width="56.5" height="18.31"/><path class="cls-5" d="M111,30.71a20.15,20.15,0,0,1-.46,4.26A25.25,25.25,0,0,1,103,47.74a40.1,40.1,0,0,1-8,5.88C86.82,58.24,76.18,61,64.53,61,38.85,61,18,47.46,18,30.71S38.85.38,64.53.38,111,14,111,30.71Z"/><path class="cls-2" d="M104.89,30.71c0,10.58-9.57,19.71-23.38,23.88a58.26,58.26,0,0,1-17,2.45,57.85,57.85,0,0,1-18.15-2.82C33.19,49.9,24.16,41,24.16,30.71c0-14.55,18.07-26.34,40.36-26.34S104.89,16.16,104.89,30.71Z"/><path class="cls-6" d="M81.51,54.59a58.26,58.26,0,0,1-17,2.45,57.85,57.85,0,0,1-18.15-2.82C48.77,49.42,55.7,46,63.86,46,72.23,46,79.29,49.6,81.51,54.59Z"/><path class="cls-2" d="M128.45,28.88a176.27,176.27,0,0,1-5.66,27.31c-4.26,14.19-11.26,28.33-22.37,29.65l-2.83.33C77.79,88.49,80,87.94,80,87.94a25.19,25.19,0,0,0,.55-3.07l17.06-2.56,2.5-.37s18.64-7.53,20.19-36.78c.09-1.64.13-3.34.1-5.12l-1,.59L111,45.3V37.21s3.22-1.41,6.95-3.36A50.84,50.84,0,0,0,127,28.13.85.85,0,0,1,128.45,28.88Z"/><path class="cls-3" d="M100.88,70.71c-8.52,6.71-21.64,11-36.35,11C42.42,81.71,23.91,72,19.19,59A19.06,19.06,0,0,1,18,52.52v-5s8.93,22.62,38.18,29C84,82.65,99.41,71.81,100.88,70.71Z"/><path class="cls-7" d="M101,70.63h0l-.11.08Z"/><path class="cls-3" d="M44.19,83.1v2.73l-.85.49c-3-.31-7.71-.82-14.8-1.65C16.4,83.27,9.16,66.82,5,51.72a19.65,19.65,0,0,1,4-2.61c3.09,25.1,19.82,31.73,19.82,31.73Z"/><path class="cls-8" d="M128.45,28.88a176.27,176.27,0,0,1-5.66,27.31c-4.26,14.19-11.26,28.33-22.37,29.65l-2.83.33V82.32l2.5-.37s18.64-7.53,20.19-36.78c.09-1.64.13-3.34.1-5.12l-1,.59L111,45.3V37.21s3.22-1.41,6.95-3.36A50.84,50.84,0,0,0,127,28.13.85.85,0,0,1,128.45,28.88Z"/><path class="cls-8" d="M111,34.23V52.52c0,6.84-3.75,13.14-10,18.12,0,0-1.53-1.83-1.2-2.49s2.34-3.5-2.66-2.42S95,62.14,95,62.14l8-14.4A25.25,25.25,0,0,0,110.57,35Z"/></g></g></svg>