<svg xmlns="http://www.w3.org/2000/svg" viewBox="0 0 140 140"><defs><style>.cls-1{fill:#40351e;}.cls-2{fill:#8e6730;}.cls-3{fill:#63492b;}.cls-4{fill:#9f7c42;}.cls-5{fill:#f8dc57;}.cls-6{fill:#faff65;}.cls-7{fill:#0c0c0c;opacity:0.43;}.cls-8{fill:none;stroke:#7c4518;stroke-miterlimit:10;stroke-width:3px;}.cls-9{opacity:0.28;}.cls-10{fill:#ffa34e;}.cls-11{opacity:0.5;}</style></defs><title>HayBaleInPit</title><g id="Слой_2" data-name="Слой 2"><g id="Outlines"><rect class="cls-1" width="140" height="140"/><path class="cls-2" d="M130.08,129.88a80,80,0,0,0-13.38-3.25,84.5,84.5,0,0,0-23.87-.12c-8.17.92-16.15,1.52-23.67,1.89-17.4.87-32.39.55-41.83.35-6.89-.14-12.4-.44-15.46-.63a385.85,385.85,0,0,0,.45-47.19c-.08-1.38-.16-2.7-.24-4-.5-7.65-1-11.24-1.38-18.95a297.74,297.74,0,0,1,1.17-46.14,150.07,150.07,0,0,0,24.72,3.76c17.05,1.15,28.41-1,42-2.5,7.58-.81,17.37-1.57,29.11-1.69,6.27-.07,13.09,0,20.43.43a35.53,35.53,0,0,0-2,7.94,31.16,31.16,0,0,0-.06,7.44c.9,7.84,4.38,11,5.67,19,1,6.38-.37,9.34-1.29,16.83A60.12,60.12,0,0,0,130,73.88c.38,7.87,2.36,13.57,2.75,25.75A130.49,130.49,0,0,1,130.08,129.88Z"/><path class="cls-3" d="M15.88,35.75s9.86.92,13.56,5.85,16.33,2.77,16.95,1.54,8.32,7.09,8.32,10.79c0,0,3.7-3.39-3.7-13.25,0,0,6.78-4,18.8,2.16,0,0,5.24.92,6.16,0s-8-3.08-11.4-4.31-9.86-1.23-15.1-.62S39.3,43.76,36.83,42.53,24.51,34.83,15.88,35.75Z"/><path class="cls-3" d="M87.55,85.67s-18.47-12.58-32.44-4.8c0,0,10.36,4,9.4,11.4S53.6,111,49.59,111.49c0,0,4.63,1.51,12.84-7.77s5.94-16.82,5-17.5S68.81,83.56,87.55,85.67Z"/><ellipse class="cls-4" cx="75.89" cy="90.18" rx="3.93" ry="2.81"/><ellipse class="cls-4" cx="112.33" cy="31.46" rx="7.24" ry="1.87"/><ellipse class="cls-4" cx="81.36" cy="56.47" rx="4.01" ry="2.54"/><path class="cls-3" d="M99.94,89.2s9.86-25.27,21.26-7.09c0,0,6.32-7.24,1.54-9.86s-19.57-2.93-22.8,6.16-6.16,16.18-9.4,12.17c0,0,7.4,8.94,11.4,3.39S99.94,89.2,99.94,89.2Z"/><circle class="cls-4" cx="30.21" cy="115.43" r="3.08"/><ellipse class="cls-3" cx="78.69" cy="21.73" rx="4.52" ry="5.85"/><ellipse class="cls-3" cx="22.43" cy="17.88" rx="3.47" ry="2"/><ellipse class="cls-3" cx="110.02" cy="58.71" rx="5.85" ry="4.01"/><ellipse class="cls-3" cx="39.14" cy="80.93" rx="8.47" ry="9.24"/><path class="cls-3" d="M69.24,128.39h-.08c-17.4.87-32.39.55-41.83.35-6.89-.14-12.4-.44-15.46-.63a385.85,385.85,0,0,0,.45-47.19s8.12,2.2,10.11,16-3.18,17.94,1.65,21.55,9.67,8,21.17,4.73S69.24,128.39,69.24,128.39Z"/><path class="cls-3" d="M130.46,63.13A60.12,60.12,0,0,0,130,73.88h0a47.86,47.86,0,0,1-5.46-11.16c-2.55-7.17,4.05-10.59,0-20.59s-14.2-.25-20.37-5.25-3.33-10.25-7.08-15.15-18.5-8.6-18.5-8.6a310.16,310.16,0,0,1,49.54-1.26,33.4,33.4,0,0,0-2,15.38c.9,7.84,4.38,11,5.67,19C132.76,52.68,131.38,55.64,130.46,63.13Z"/><path class="cls-3" d="M130.08,129.88a79.06,79.06,0,0,0-8.6-2.37c-1.48-.32-3.08-.62-4.78-.88a84.5,84.5,0,0,0-23.87-.12c-8.17.92-16.15,1.52-23.67,1.89-12.89.64-24.46.64-33.43.51h-1l-6.87-.14h-.57l-1.56,0c-2.18-.05-4.21-.12-6-.19-3.34-.13-6-.29-7.86-.4a385.85,385.85,0,0,0,.45-47.19c-.08-1.38-.16-2.7-.24-4-.5-7.65-1-11.24-1.38-18.95a297.8,297.8,0,0,1,1.17-46.14,150.06,150.06,0,0,0,24.72,3.76c17.05,1.15,28.41-1,42-2.5,7.58-.81,17.37-1.57,29.11-1.69l-2.6,2.69L89.5,16.82s-17.14,3.63-26.36,6.89a23.74,23.74,0,0,0-4.81,2.14c-3,2-11.44.42-19.11-1-5.8-1.06-11.15-2-13.33-1.26-5.06,1.79-10-4.71-10,10.79s-2.95,24,0,30.5a75,75,0,0,1,3.51,11.83,148.21,148.21,0,0,1,3,17.24c.06.58.11,1.15.15,1.7a25.6,25.6,0,0,1-.09,6.23,41.91,41.91,0,0,0-.57,6.87c-.17,7.65.57,17.13.57,17.13s32,.58,36.34-2.21,28.4-3,30.73-1.54,21.08.39,22.83-2c1.06-1.48,6.06,0,9.84,1.38,2.47.91,4.41,1.78,4.41,1.78s2.75-9.17,0-15.14-2.65-48.54-2.65-48.54l2.65-8s-.44-12.87-6.67-18.08a9.26,9.26,0,0,0-7.58-2c-6.82,1-7.71-3-6.91-7.2a32.81,32.81,0,0,1,3.16-8.38l17.56,3.93a31.16,31.16,0,0,0-.06,7.44c.9,7.84,4.38,11,5.67,19,1,6.38-.37,9.34-1.29,16.83A60.1,60.1,0,0,0,130,73.88c.38,7.87,2.36,13.57,2.75,25.75A130.51,130.51,0,0,1,130.08,129.88Z"/><path class="cls-5" d="M24.8,126a2,2,0,0,1-1.26-.45,2,2,0,0,1-1.34-2.85l.36-.72-2.88-.07a2,2,0,0,1-1.91-1.64c-.68-3.78-1.21-7.82.41-11.85.22-.56.45-1,.67-1.45a4.3,4.3,0,0,0,.55-1.48,4,4,0,0,0,0-.41,4.93,4.93,0,0,0-.68-2.12c-.18-.37-.35-.74-.52-1.13a16,16,0,0,1-1-8.09,2,2,0,0,1,2-1.76H121.44a2,2,0,0,1,1.8,1.13,2,2,0,0,1,.14.36,12.34,12.34,0,0,1-.28,8c-.15.37-.32.73-.48,1.08a5,5,0,0,0-.7,2.43s0,.1,0,.13a4.13,4.13,0,0,0,.59,1.77c.12.23.23.47.35.72a16,16,0,0,1,1.32,7.11,23.28,23.28,0,0,1-.75,5,2,2,0,0,1-1.94,1.51l-.32,0c-1.43-.23-3-.45-4.7-.65a103.18,103.18,0,0,0-11.79-.68c-4.84,0-8.76.34-11.36.56l-.31,0c-7.6.64-15.6,1.12-23.77,1.43-7.85.29-15.81.43-24.35.43-2.75,0-5.34,0-7.76,0l-.48,1.29a2,2,0,0,1-2.56,1.18l-4.38-1.6-3.77,2.56A2,2,0,0,1,24.8,126Z"/><path d="M121.44,93.95s0,0,0,0a10.22,10.22,0,0,1-.21,6.71c-.55,1.36-1.39,2.51-1.33,4.32v.06a7.83,7.83,0,0,0,1.12,3.32,14,14,0,0,1,1.14,6.22,21.38,21.38,0,0,1-.69,4.54c-1.48-.24-3.08-.46-4.78-.66a104.79,104.79,0,0,0-12-.69c-5.12,0-9.17.37-11.85.6-8.17.69-16.15,1.14-23.67,1.42-8.85.33-17.08.43-24.27.43-3.28,0-6.35,0-9.16-.05l-1,2.61-5.34-2L24.8,124l.73-1.45L24,123.59,25.77,120c-2.18,0-4.21-.09-6-.14-.65-3.61-1.12-7.22.3-10.75.58-1.45,1.21-2.19,1.35-3.46q0-.3,0-.63c0-1.67-.8-2.68-1.34-4a13.87,13.87,0,0,1-.85-7.1H121.44m0-4H19.22a4,4,0,0,0-4,3.52,18,18,0,0,0,1.12,9.1c.19.46.39.87.56,1.24a3.49,3.49,0,0,1,.48,1.3c0,.07,0,.13,0,.19a5.34,5.34,0,0,1-.35.77c-.21.42-.47.95-.73,1.6-1.82,4.52-1.26,8.87-.52,12.94a4,4,0,0,0,3.83,3.29H20a4,4,0,0,0,2.65,3.45,4,4,0,0,0,4.4-.06l2.92-2,3.41,1.25a4,4,0,0,0,5.11-2.34l6.39,0c8.56,0,16.55-.14,24.42-.44,8.2-.31,16.23-.79,23.86-1.43l.32,0c2.56-.22,6.43-.56,11.19-.56a101.29,101.29,0,0,1,11.57.66c1.65.19,3.2.41,4.6.63a4,4,0,0,0,4.52-3,25.14,25.14,0,0,0,.81-5.39,18,18,0,0,0-1.49-8c-.13-.29-.26-.54-.38-.79a2.67,2.67,0,0,1-.39-1s0-.07,0-.1a3.35,3.35,0,0,1,.51-1.51c.17-.35.35-.74.53-1.18a14.29,14.29,0,0,0,.36-9.26,4,4,0,0,0-3.87-3Z"/><path class="cls-6" d="M116.52,104.37c-2.37,0-5-1-8.44-2.27-1-.36-2-.75-3.09-1.14-7.83-2.78-14.59-5.18-21.2-5.18q-.76,0-1.52,0a17.37,17.37,0,0,0-8,2.21c-.45.25-.88.49-1.3.73a16.79,16.79,0,0,1-6.47,2.52,15.3,15.3,0,0,1-2.05.13c-.63,0-1.31,0-2-.11a26.16,26.16,0,0,1-9-2.82c-2.36-1.11-4.39-2.07-7.19-2.07a14,14,0,0,0-1.86.13,13.19,13.19,0,0,0-4.22,1.31,17.65,17.65,0,0,1-5.53,1.69,21.45,21.45,0,0,1-2.84.19,27,27,0,0,1-13.63-4.08,2,2,0,0,1-1-1.38,50.54,50.54,0,0,1-.58-12.88,35.27,35.27,0,0,1,.6-4.25c.15-.78.29-1.51.41-2.55a21.11,21.11,0,0,0-.13-6c-.18-1.12-.44-2.22-.77-3.53-.18-.73-.36-1.47-.54-2.25l0-.18a2,2,0,0,1-.06-.21c-.16-.73-.33-1.5-.49-2.34,0,0,0-.09,0-.14s0-.08,0-.12c-.11-.62-.23-1.27-.33-2,0-.13-.06-.33-.09-.53a74.88,74.88,0,0,1-.27-17.23v-.15a104.71,104.71,0,0,1,2.36-16.14,2,2,0,0,1,2.36-1.51,56.65,56.65,0,0,0,7.19,1c1.4.11,2.79.17,4.14.17A63,63,0,0,0,42.47,22.3l2.63-.44a50.12,50.12,0,0,1,8-.7c1.88,0,3.59.13,5.4.26s3.55.27,5.88.33c.88,0,1.84,0,2.88,0,2.22,0,4.54-.06,7.09-.2h.21c1.66-.08,3.37-.2,5.08-.33L81.94,21c3.69-.34,7.52-.82,11.41-1.44l.31,0,.26,0a65.81,65.81,0,0,1,6.62,1.21c2.86.67,4.94,1.37,6.62,1.93a19,19,0,0,0,6,1.35h.31a17.15,17.15,0,0,0,7.1-1.65,2,2,0,0,1,2.83,1.92,42.41,42.41,0,0,1-1.35,8.74,29.84,29.84,0,0,1-1.41,4.15,12.21,12.21,0,0,0-.81,2.49c-.54,2.58-.12,4.31.51,6.92.33,1.37.7,2.91,1,4.86,0,.06.08.49.08.49.21,1.49.34,2.85.41,4.24,0,.31,0,.65,0,1a48.92,48.92,0,0,1-.21,6.18,34.91,34.91,0,0,1,4.2,17.48,14.72,14.72,0,0,1-.55,3.64c-.35,1.43-.94,3.83-1.93,9.73L123.14,96c-.67,4.14-1,5.85-2.8,7.21A6.36,6.36,0,0,1,116.52,104.37Z"/><path d="M93.66,21.58a63.24,63.24,0,0,1,6.42,1.17c6.67,1.57,8.85,3.23,13.08,3.33h.36a18.91,18.91,0,0,0,7.93-1.83,40.35,40.35,0,0,1-1.29,8.33c-1,3.79-1.73,4.24-2.25,6.75-.93,4.48.6,6.79,1.5,12.5,0,.16.05.33.08.51.16,1.14.31,2.48.39,4,0,.31,0,.63,0,1a47.22,47.22,0,0,1-.26,6.52,32.88,32.88,0,0,1,4.25,17c-.12,3.13-.6,2-2.46,13.12-.86,5.14-.94,6.64-2.29,7.63a4.34,4.34,0,0,1-2.64.79c-2.62,0-6.11-1.61-10.86-3.29-8.12-2.88-14.92-5.3-21.87-5.3q-.82,0-1.63,0a19.37,19.37,0,0,0-8.84,2.45c-2.34,1.27-4.15,2.63-7.08,3a13.23,13.23,0,0,1-1.79.12,17.76,17.76,0,0,1-1.79-.1c-7.24-.76-10.07-4.9-16.38-4.9a15.91,15.91,0,0,0-2.12.15c-4.44.6-5.16,2.38-9.75,3a19.23,19.23,0,0,1-2.57.17,25.32,25.32,0,0,1-12.62-3.8,48.31,48.31,0,0,1-.56-12.37c.28-3.35.71-4.15,1-6.75a23,23,0,0,0-.14-6.56c-.2-1.22-.48-2.41-.8-3.69-.17-.7-.35-1.44-.53-2.22L18.1,62h0c-.16-.71-.32-1.46-.48-2.28a2,2,0,0,0-.05-.24c-.11-.6-.22-1.23-.32-1.9,0-.16-.06-.32-.08-.48-1-6.45-.62-11.41-.25-17a102.41,102.41,0,0,1,2.31-15.83,58.59,58.59,0,0,0,7.44,1.08c1.52.12,3,.18,4.3.18,5.92,0,10.3-1,14.45-1.68a48.21,48.21,0,0,1,7.72-.68c3.48,0,6.29.46,11.22.6.9,0,1.87,0,2.93,0,2,0,4.39-.05,7.2-.2h.18c1.58-.08,3.31-.19,5.17-.34L82.14,23c3.47-.32,7.33-.79,11.52-1.45m0-4a4,4,0,0,0-.62,0c-3.86.61-7.65,1.08-11.26,1.42l-2.26.21c-1.68.14-3.36.25-5,.33h-.23c-2.52.13-4.81.19-7,.19-1,0-1.88,0-2.82,0-2.28-.07-4.06-.2-5.78-.33s-3.6-.27-5.55-.27a52.78,52.78,0,0,0-8.34.73l-2.66.45A61.4,61.4,0,0,1,31,21.51c-1.3,0-2.64-.05-4-.16a54.13,54.13,0,0,1-6.94-1,4,4,0,0,0-4.72,3,106.77,106.77,0,0,0-2.4,16.45V40a76.72,76.72,0,0,0,.29,17.68c0,.2.06.39.1.59.12.78.25,1.49.33,2l0,.21v.07c.15.79.32,1.57.5,2.39q0,.16.08.32l0,.09c.18.77.35,1.5.52,2.19l0,.07c.32,1.29.57,2.35.74,3.39a19.19,19.19,0,0,1,.11,5.47c-.11,1-.24,1.63-.38,2.4a37.44,37.44,0,0,0-.63,4.46,52.5,52.5,0,0,0,.6,13.39A4,4,0,0,0,17.2,97.4a29,29,0,0,0,14.64,4.35,23.33,23.33,0,0,0,3.1-.21A19.62,19.62,0,0,0,41,99.7a11.26,11.26,0,0,1,3.66-1.15,11.83,11.83,0,0,1,1.59-.11c2.35,0,4,.79,6.33,1.88a28.21,28.21,0,0,0,9.62,3,22,22,0,0,0,2.21.12,17.31,17.31,0,0,0,2.32-.15A18.67,18.67,0,0,0,74,100.5l1.25-.71a15.39,15.39,0,0,1,7.15-2c.47,0,.94,0,1.41,0,6.26,0,12.56,2.24,20.53,5.06,1.08.39,2.1.77,3.06,1.12,3.58,1.34,6.4,2.4,9.14,2.4a8.31,8.31,0,0,0,5-1.55c2.52-1.85,2.91-4.21,3.61-8.51.08-.52.18-1.08.28-1.7,1-5.83,1.55-8.18,1.9-9.58a16.56,16.56,0,0,0,.61-4A36.65,36.65,0,0,0,123.75,63a50.76,50.76,0,0,0,.16-5.85c0-.37,0-.74,0-1.09-.07-1.39-.21-2.82-.42-4.31v-.1l0-.15c0-.13,0-.26-.06-.38-.32-2-.7-3.58-1-5-.61-2.52-.94-3.91-.5-6a10.36,10.36,0,0,1,.7-2.13,31.54,31.54,0,0,0,1.5-4.4,44.56,44.56,0,0,0,1.42-9.16,4,4,0,0,0-5.65-3.84,15.18,15.18,0,0,1-6.27,1.47h-.27a17.3,17.3,0,0,1-5.45-1.24c-1.72-.57-3.86-1.29-6.8-2a67.38,67.38,0,0,0-6.83-1.24,4,4,0,0,0-.51,0Z"/><path class="cls-7" d="M120.65,57.45c0,1-.11,2.13-.22,3.27-1.94-.47-11.53,5.5-14.72,5.87S92.93,66.22,91.41,64s-13.79-.38-14.84-1.67-5.34,2.6-5.62,3.91S69,77,68.7,79.23,73.42,89,73.58,92.69c.06,1.23.08,2.8.08,4.33-2.36,1.42-4.19,2.94-7.15,3.39,0-2.33-.42-4.69-.33-5.66.17-1.87-3.86-8.58-4.87-11s-1.52-10.63-1-12.67-2-8-3.91-8.94-6.72-.33-9.72.18-3.53,2.23-5.57,2.6-8-.56-8-.56-6.6,0-7.45.93c-.32.36-3,.45-6.15.4h-.13c-.11-.74-.25-1.47-.4-2.22s-.37-1.73-.58-2.66a2.06,2.06,0,0,0,0-.24c-.13-.61-.27-1.24-.4-1.91H18c1.06.1,10.75,1,15.08,0,4.59-1.05,6.18-3.44,8-4.74s5.23.18,6.45,1.91,13.41.7,14.59,0,2.86-6.38,3.71-7.88a22.82,22.82,0,0,0,2-9.13c-.24-2.62.73-6.71,0-10.26-.65-3.11-2.32-2.91-2.68-3.7,2.63.07,5.86.06,10.13-.16A120.48,120.48,0,0,1,73.58,44c-1.51,8.21,1,11.18,2,10.8s9,.38,11,1,11.77,2.75,15.14,2.83,9.41-2.13,11.1-3.82c.87-.88,4.33-1.24,7.48-1.39l.43,0C120.72,54.67,120.72,56,120.65,57.45Z"/><path class="cls-5" d="M119.88,56.35c0,1-.11,2.13-.22,3.27-1.94-.47-11.53,5.5-14.72,5.87s-12.78-.37-14.3-2.61S76.85,62.5,75.8,61.21s-5.34,2.6-5.62,3.91-1.91,10.81-2.25,13,4.72,9.74,4.88,13.46c.06,1.23.08,2.8.08,4.33-2.36,1.42-4.19,2.94-7.15,3.39,0-2.33-.42-4.69-.33-5.66.17-1.87-3.86-8.58-4.87-11S59,72,59.53,70s-2-8-3.91-8.94-6.72-.33-9.72.18-3.53,2.23-5.57,2.6-8-.56-8-.56-6.6,0-7.45.93c-.32.36-3,.45-6.15.4h-.13c-.11-.74-.25-1.47-.4-2.22s-.37-1.73-.58-2.66a2.06,2.06,0,0,0,0-.24c-.13-.61-.27-1.24-.4-1.91h.08c1.06.1,10.75,1,15.08,0,4.59-1.05,6.18-3.44,8-4.74s5.23.18,6.45,1.91,13.41.7,14.59,0,2.86-6.38,3.71-7.88a22.82,22.82,0,0,0,2-9.13c-.24-2.62.73-6.71,0-10.26-.65-3.11-2.32-2.91-2.68-3.7,2.63.07,5.86.06,10.13-.16a120.48,120.48,0,0,1-1.67,19.34c-1.51,8.21,1,11.18,2,10.8s9,.38,11,1,11.77,2.75,15.14,2.83,9.41-2.13,11.1-3.82c.87-.88,4.33-1.24,7.48-1.39l.43,0C119.95,53.57,119.95,54.91,119.88,56.35Z"/><line class="cls-8" x1="21.41" y1="108.75" x2="119.91" y2="108.75"/><polygon class="cls-9" points="104.88 114.19 109.45 117.97 111.59 114.15 116.3 116.03 118.88 114.4 109.78 112.9 102.37 112.82 99.4 117.17 104.88 114.19"/><polygon class="cls-10" points="104.2 113.49 108.78 117.27 110.92 113.44 115.63 115.33 118.21 113.7 109.11 112.19 101.69 112.12 98.73 116.47 104.2 113.49"/><polygon class="cls-9" points="44.05 103.48 47.94 107.96 50.68 104.54 55.02 107.17 57.83 105.99 49.1 103.01 41.8 101.71 38.16 105.51 44.05 103.48"/><polygon class="cls-10" points="43.5 102.67 47.39 107.16 50.13 103.74 54.46 106.37 57.28 105.19 48.55 102.2 41.25 100.91 37.61 104.7 43.5 102.67"/><g class="cls-11"><path d="M122.17,114.6a21.38,21.38,0,0,1-.69,4.54c-1.48-.24-3.08-.46-4.78-.66a112.42,112.42,0,0,0-23.87-.09c-8.17.69-16.15,1.14-23.67,1.42-12.89.48-24.46.48-33.43.38l-1,2.61-5.34-2L24.8,124l.73-1.45L24,123.59,25.77,120c-2.18,0-4.21-.09-6-.14-.65-3.61-1.12-7.22.3-10.75.58-1.45,1.21-2.19,1.35-3.46,17.95-1.68,39.73-3.36,54.51-3.32a412.67,412.67,0,0,1,44,2.63v.06a7.83,7.83,0,0,0,1.12,3.32A14,14,0,0,1,122.17,114.6Z"/></g></g></g></svg>