<svg xmlns="http://www.w3.org/2000/svg" viewBox="0 0 140 140"><defs><style>.cls-1{fill:#070;opacity:0;}.cls-2{fill:#f8dc57;}.cls-3{fill:#faff65;}.cls-4{fill:#0c0c0c;opacity:0.43;}.cls-5{fill:none;stroke:#7c4518;stroke-miterlimit:10;stroke-width:3px;}.cls-6{opacity:0.28;}.cls-7{fill:#ffa34e;}</style></defs><title>HayBale</title><g id="Слой_2" data-name="Слой 2"><g id="Outlines"><rect class="cls-1" width="140" height="140"/><path class="cls-2" d="M19,133.79a2,2,0,0,1-2-1.89,30.49,30.49,0,0,1,.12-4.91c.14-1.31.34-2.32.51-3.21a16.3,16.3,0,0,0,.42-3.69,16.18,16.18,0,0,0-.23-2.48l-.07-.51c-.77-5.5-1.57-11.19.14-16.85.21-.72.43-1.31.64-1.86a7.33,7.33,0,0,0,.65-3A9.22,9.22,0,0,0,18.42,92c-.17-.46-.34-.93-.49-1.42A26.63,26.63,0,0,1,17,80.4a2,2,0,0,1,2-1.82H121.21a2,2,0,0,1,2,1.6,20.1,20.1,0,0,1-.25,9.94c-.14.48-.31.94-.47,1.39a9.67,9.67,0,0,0-.78,3.8,8.19,8.19,0,0,0,.68,2.91c.11.3.23.61.34.94,2.34,6.9.79,14.09.21,16.8-.13.59-.25,1.1-.37,1.56a12.12,12.12,0,0,0-.49,3.2,16.78,16.78,0,0,0,.32,3.2c.12.73.25,1.57.39,2.65.22,1.71.37,3.43.45,5.12a2,2,0,0,1-2,2.1Z"/><path d="M121.21,80.58a17.85,17.85,0,0,1-.2,9c-.56,1.84-1.41,3.38-1.33,5.84a13.16,13.16,0,0,0,1.13,4.44c2.16,6.37.69,13.24.15,15.74a21.93,21.93,0,0,0-.9,5.16,43.58,43.58,0,0,0,.73,6.13c.27,2.11.38,3.84.44,5H19a28.32,28.32,0,0,1,.11-4.59c.33-3,1-4.3.95-7.13a21.68,21.68,0,0,0-.32-3.25c-.75-5.37-1.51-10.76.07-16,.67-2.24,1.4-3.21,1.38-5.45S20.39,91.8,19.84,90A24.31,24.31,0,0,1,19,80.58H121.21m0-4H19a4,4,0,0,0-4,3.64,28.6,28.6,0,0,0,1,11c.17.56.36,1.07.52,1.52a7.48,7.48,0,0,1,.64,2.68,5.44,5.44,0,0,1-.53,2.29c-.2.53-.44,1.18-.68,2-1.83,6.08-1,12-.2,17.7l.08.53a14.44,14.44,0,0,1,.21,2.2,14.5,14.5,0,0,1-.38,3.28c-.18.93-.39,2-.54,3.38A32.48,32.48,0,0,0,15,132a4,4,0,0,0,4,3.78H121.21a4,4,0,0,0,4-4.19c-.08-1.74-.24-3.52-.46-5.28-.14-1.12-.29-2-.4-2.72a15.23,15.23,0,0,1-.29-2.85,10.28,10.28,0,0,1,.43-2.73c.12-.49.25-1,.38-1.63.61-2.86,2.24-10.44-.27-17.86-.12-.35-.24-.67-.36-1a6.38,6.38,0,0,1-.56-2.28,7.78,7.78,0,0,1,.67-3.07c.17-.47.34-.95.5-1.48a22.07,22.07,0,0,0,.29-10.92,4,4,0,0,0-3.92-3.19Z"/><path class="cls-3" d="M116.28,91c-2.37,0-5-1-8.43-2.27-1-.36-2-.75-3.09-1.14-7.83-2.78-14.59-5.18-21.19-5.18q-.76,0-1.53,0a17.38,17.38,0,0,0-8,2.21c-.45.24-.87.49-1.29.73a16.78,16.78,0,0,1-6.47,2.52,15.39,15.39,0,0,1-2.06.13c-.63,0-1.3,0-2-.1a26.18,26.18,0,0,1-9-2.82c-2.36-1.11-4.39-2.07-7.18-2.07a13.89,13.89,0,0,0-1.86.13A13.18,13.18,0,0,0,40,84.5a17.64,17.64,0,0,1-5.53,1.69,21.42,21.42,0,0,1-2.83.19A27,27,0,0,1,18,82.3a2,2,0,0,1-1-1.38A50.54,50.54,0,0,1,16.43,68a35.29,35.29,0,0,1,.6-4.25c.15-.78.29-1.51.41-2.55a21.11,21.11,0,0,0-.13-6c-.19-1.13-.44-2.23-.77-3.53-.18-.73-.36-1.47-.54-2.25l0-.18a2.14,2.14,0,0,1-.06-.21c-.16-.73-.33-1.5-.49-2.34,0,0,0-.09,0-.14s0-.07,0-.12c-.11-.62-.23-1.27-.33-2,0-.16-.06-.35-.09-.53a74.88,74.88,0,0,1-.27-17.23v-.15A104.78,104.78,0,0,1,17,10.43,2,2,0,0,1,19.4,8.92a56.17,56.17,0,0,0,7.19,1c1.4.11,2.79.17,4.14.17A63,63,0,0,0,42.24,8.92c.89-.16,1.77-.31,2.63-.44a50.05,50.05,0,0,1,8-.7c1.88,0,3.59.13,5.4.27,1.66.13,3.55.27,5.88.33.88,0,1.83,0,2.87,0,2.22,0,4.54-.06,7.1-.2h.21a180.92,180.92,0,0,0,18.76-2l.31,0,.25,0a64.89,64.89,0,0,1,6.62,1.21c2.86.67,4.95,1.37,6.63,1.93a19,19,0,0,0,6,1.35h.3a17.18,17.18,0,0,0,7.11-1.65A2,2,0,0,1,123.21,11a42.57,42.57,0,0,1-1.35,8.74,30,30,0,0,1-1.41,4.15,12.22,12.22,0,0,0-.81,2.49c-.54,2.58-.12,4.31.51,6.92.33,1.37.7,2.91,1,4.86,0,.07.08.5.08.5.21,1.48.34,2.85.41,4.23,0,.31,0,.65,0,1a49.22,49.22,0,0,1-.21,6.18,34.91,34.91,0,0,1,4.2,17.48,14.72,14.72,0,0,1-.55,3.64c-.35,1.43-.94,3.82-1.93,9.73l-.28,1.71c-.67,4.14-1,5.85-2.8,7.21A6.37,6.37,0,0,1,116.28,91Z"/><path d="M93.43,8.2a63.25,63.25,0,0,1,6.42,1.17c6.67,1.57,8.85,3.23,13.08,3.33h.36a18.91,18.91,0,0,0,7.93-1.83,40.37,40.37,0,0,1-1.29,8.33c-1,3.79-1.73,4.24-2.25,6.75-.93,4.48.6,6.79,1.5,12.5,0,.16.05.33.08.51.16,1.14.31,2.48.39,4,0,.31,0,.63,0,1a47.22,47.22,0,0,1-.26,6.52,32.87,32.87,0,0,1,4.25,17c-.12,3.13-.6,2-2.46,13.12-.86,5.14-.94,6.64-2.29,7.63a4.34,4.34,0,0,1-2.64.79c-2.62,0-6.11-1.61-10.86-3.29-8.12-2.88-14.92-5.3-21.87-5.3q-.82,0-1.63,0a19.37,19.37,0,0,0-8.84,2.45c-2.34,1.27-4.15,2.63-7.08,3a13.23,13.23,0,0,1-1.79.12,17.76,17.76,0,0,1-1.79-.1c-7.24-.76-10.07-4.9-16.38-4.9a15.89,15.89,0,0,0-2.12.15c-4.44.6-5.16,2.38-9.75,3a19.22,19.22,0,0,1-2.57.17A25.32,25.32,0,0,1,19,80.57a48.32,48.32,0,0,1-.56-12.37c.28-3.35.71-4.15,1-6.75a23,23,0,0,0-.14-6.56c-.2-1.22-.48-2.41-.8-3.69-.17-.7-.35-1.44-.53-2.22l-.09-.38h0c-.16-.71-.32-1.46-.48-2.28a2.1,2.1,0,0,0,0-.24c-.11-.6-.22-1.23-.32-1.9,0-.16-.06-.32-.08-.48-1-6.45-.62-11.41-.25-17A102.41,102.41,0,0,1,19,10.87,58.53,58.53,0,0,0,26.43,12c1.52.12,3,.18,4.3.18,5.92,0,10.3-1,14.45-1.68a48.21,48.21,0,0,1,7.72-.68c3.48,0,6.29.46,11.22.6.9,0,1.87,0,2.93,0,2,0,4.39-.05,7.2-.2h.18a181.72,181.72,0,0,0,19-2m0-4a4,4,0,0,0-.63,0,178.45,178.45,0,0,1-18.53,2H74c-2.52.13-4.81.19-7,.19-1,0-1.89,0-2.82,0-2.28-.07-4.06-.2-5.78-.33s-3.6-.27-5.55-.27a52.79,52.79,0,0,0-8.34.73l-2.66.45A61.4,61.4,0,0,1,30.72,8.13c-1.3,0-2.64-.05-4-.16a54.83,54.83,0,0,1-6.94-1,4,4,0,0,0-4.73,3,106.74,106.74,0,0,0-2.4,16.45v.14A76.72,76.72,0,0,0,13,44.26c0,.2.06.39.1.59.09.6.19,1.2.33,2l0,.21v.07c.15.79.32,1.57.5,2.39q0,.16.08.31l0,.09c.17.75.35,1.47.51,2.15l0,.11c.32,1.29.57,2.35.74,3.39A19.19,19.19,0,0,1,15.45,61c-.11,1-.24,1.63-.38,2.4a37.5,37.5,0,0,0-.63,4.46A52.51,52.51,0,0,0,15,81.26,4,4,0,0,0,17,84a29,29,0,0,0,14.64,4.35,23.33,23.33,0,0,0,3.1-.21,19.62,19.62,0,0,0,6.09-1.85,11.26,11.26,0,0,1,3.66-1.15,12,12,0,0,1,1.59-.11c2.35,0,4,.79,6.33,1.88a28.21,28.21,0,0,0,9.62,3,22,22,0,0,0,2.21.12,17.32,17.32,0,0,0,2.32-.15,18.67,18.67,0,0,0,7.2-2.77L75,86.42a15.39,15.39,0,0,1,7.15-2c.47,0,.94,0,1.41,0,6.26,0,12.56,2.24,20.53,5.06,1.08.39,2.1.77,3.06,1.12,3.58,1.34,6.4,2.4,9.14,2.4a8.31,8.31,0,0,0,5-1.55c2.52-1.85,2.91-4.21,3.61-8.51.08-.52.18-1.08.28-1.7,1-5.83,1.55-8.18,1.9-9.58a16.56,16.56,0,0,0,.61-4,36.65,36.65,0,0,0-4.15-17.94,50.77,50.77,0,0,0,.16-5.85c0-.37,0-.74,0-1.09-.07-1.39-.21-2.81-.42-4.31l0-.1,0-.15c0-.13,0-.25-.06-.37-.32-2-.7-3.58-1-5-.61-2.52-.94-3.91-.5-6a10.36,10.36,0,0,1,.7-2.13,31.56,31.56,0,0,0,1.5-4.4,44.6,44.6,0,0,0,1.42-9.16,4,4,0,0,0-5.65-3.84,15.18,15.18,0,0,1-6.27,1.47H113a17.29,17.29,0,0,1-5.45-1.24c-1.72-.57-3.86-1.29-6.8-2a67.4,67.4,0,0,0-6.83-1.24,4,4,0,0,0-.51,0Z"/><path class="cls-4" d="M120.42,44.08c0,1-.11,2.13-.22,3.27-1.94-.47-11.53,5.5-14.72,5.87s-12.78-.37-14.3-2.61-13.79-.38-14.84-1.67-5.34,2.6-5.62,3.91-1.91,10.81-2.25,13,4.72,9.74,4.88,13.46c.06,1.23.08,2.8.08,4.33-2.36,1.42-4.19,2.94-7.15,3.39,0-2.33-.42-4.69-.33-5.66.17-1.87-3.86-8.58-4.87-11s-1.52-10.63-1-12.67-2-8-3.91-8.94-6.72-.33-9.72.18-3.53,2.23-5.57,2.6-8-.56-8-.56-6.6,0-7.45.93c-.32.36-3,.45-6.15.4h-.13c-.11-.74-.25-1.47-.4-2.22s-.37-1.73-.58-2.66a2.06,2.06,0,0,0,0-.24c-.13-.61-.27-1.24-.4-1.91h.08c1.06.1,10.75,1,15.08,0,4.59-1.05,6.18-3.44,8-4.74s5.23.18,6.45,1.91,13.41.7,14.59,0,2.86-6.38,3.71-7.88a22.82,22.82,0,0,0,2-9.13c-.24-2.62.73-6.71,0-10.26-.65-3.11-2.32-2.91-2.68-3.7,2.63.07,5.86.06,10.13-.16a120.48,120.48,0,0,1-1.67,19.34c-1.51,8.21,1,11.18,2,10.8s9,.38,11,1,11.77,2.75,15.14,2.83,9.41-2.13,11.1-3.82c.87-.88,4.33-1.24,7.48-1.39l.43,0C120.49,41.3,120.49,42.64,120.42,44.08Z"/><path class="cls-2" d="M119.65,43c0,1-.11,2.13-.22,3.27-1.94-.47-11.53,5.5-14.72,5.87s-12.78-.37-14.3-2.61-13.79-.38-14.84-1.67-5.34,2.6-5.62,3.91S68,62.55,67.7,64.75s4.72,9.74,4.88,13.46c.06,1.23.08,2.8.08,4.33-2.36,1.42-4.19,2.94-7.15,3.39,0-2.33-.42-4.69-.33-5.66.17-1.87-3.86-8.58-4.87-11s-1.52-10.63-1-12.67-2-8-3.91-8.94-6.72-.33-9.72.18-3.53,2.23-5.57,2.6-8-.56-8-.56-6.6,0-7.45.93c-.32.36-3,.45-6.15.4h-.13c-.11-.74-.25-1.47-.4-2.22s-.37-1.73-.58-2.66a2.06,2.06,0,0,0,0-.24c-.13-.61-.27-1.24-.4-1.91H17c1.06.1,10.75,1,15.08,0,4.59-1.05,6.18-3.44,8-4.74s5.23.18,6.45,1.91,13.41.7,14.59,0S64,35,64.85,33.46a22.82,22.82,0,0,0,2-9.13c-.24-2.62.73-6.71,0-10.26-.65-3.11-2.32-2.91-2.68-3.7,2.63.07,5.86.06,10.13-.16a120.48,120.48,0,0,1-1.67,19.34c-1.51,8.21,1,11.18,2,10.8s9,.38,11,1,11.77,2.75,15.14,2.83,9.41-2.13,11.1-3.82c.87-.88,4.33-1.24,7.48-1.39l.43,0C119.72,40.19,119.72,41.53,119.65,43Z"/><line class="cls-5" x1="21.18" y1="95.38" x2="119.68" y2="95.38"/><line class="cls-5" x1="20.05" y1="120.7" x2="120.05" y2="120.7"/><polygon class="cls-6" points="104.65 100.82 109.22 104.6 111.36 100.77 116.07 102.66 118.66 101.03 109.55 99.52 102.14 99.45 99.17 103.79 104.65 100.82"/><polygon class="cls-7" points="103.97 100.12 108.55 103.9 110.69 100.07 115.4 101.95 117.98 100.32 108.88 98.82 101.46 98.75 98.5 103.09 103.97 100.12"/><polygon class="cls-6" points="29.19 116.42 34.53 119.02 35.71 114.8 40.73 115.52 42.86 113.33 33.66 114 26.43 115.67 24.57 120.59 29.19 116.42"/><polygon class="cls-7" points="28.37 115.89 33.71 118.49 34.89 114.27 39.91 114.99 42.03 112.8 32.83 113.48 25.61 115.15 23.75 120.07 28.37 115.89"/><polygon class="cls-6" points="43.82 90.11 47.71 94.59 50.45 91.17 54.79 93.8 57.6 92.62 48.87 89.64 41.57 88.34 37.93 92.14 43.82 90.11"/><polygon class="cls-7" points="43.27 89.3 47.16 93.78 49.9 90.36 54.23 92.99 57.05 91.81 48.32 88.83 41.02 87.53 37.38 91.33 43.27 89.3"/></g></g></svg>