<svg xmlns="http://www.w3.org/2000/svg" viewBox="0 0 140 140"><defs><style>.cls-1{fill:#070;opacity:0;}.cls-2{fill:#eae155;}.cls-2,.cls-3,.cls-4{stroke:#2d2d2d;stroke-width:2px;}.cls-2,.cls-4{stroke-miterlimit:10;}.cls-3,.cls-4{fill:#684217;}.cls-3{stroke-linejoin:round;}.cls-5{fill:#fff;opacity:0.5;}</style></defs><title>Key_1</title><g id="Слой_2" data-name="Слой 2"><g id="Outlines"><rect class="cls-1" width="140" height="140"/><path class="cls-2" d="M52.47,54.4c-.25-.72-.53-1.41-.85-2.1a23.21,23.21,0,0,0-1.48-2.83A26.19,26.19,0,0,0,1.54,63a25.81,25.81,0,0,0,.13,2.6v0c0,.09,0,.2,0,.29.08.72.19,1.45.33,2.16s.24,1.13.39,1.68S2.78,71,3,71.61a26.27,26.27,0,0,0,8,11.58c.6.5,1.23,1,1.88,1.42s1.32.87,2,1.26l1.05.56c.71.36,1.44.69,2.18,1a26.32,26.32,0,0,0,19.24,0,22.3,22.3,0,0,0,2.07-.93l.11-.05,1.05-.56c.69-.39,1.36-.81,2-1.26s1.28-.92,1.88-1.42a25.7,25.7,0,0,0,3.45-3.47,26,26,0,0,0,4.3-7.4q.13-.32.23-.65h0a.16.16,0,0,0,0-.06c.21-.6.4-1.21.56-1.83s.28-1.11.39-1.68.25-1.43.33-2.16c0-.09,0-.2,0-.29v0A26.14,26.14,0,0,0,52.47,54.4ZM27.74,80a17,17,0,0,1-16.8-14.4c0-.3-.08-.6-.11-.91-.05-.55-.09-1.11-.09-1.68a17,17,0,0,1,34,0c0,.57,0,1.13-.09,1.68,0,.31-.07.61-.11.91A17,17,0,0,1,27.74,80Z"/><path class="cls-3" d="M44.74,63c0,.57,0,1.13-.09,1.68,0,.31-.07.61-.11.91a17,17,0,0,0-33.61,0c0-.3-.08-.6-.11-.91-.05-.55-.09-1.11-.09-1.68a17,17,0,1,1,34,0Z"/><path class="cls-4" d="M53.93,68.24a25,25,0,0,1-.23,3.43c0,.21-.06.42-.09.63A26.19,26.19,0,0,1,1.54,68.24a25.72,25.72,0,0,1,.13-2.59c0,.09,0,.2,0,.29.08.73.19,1.45.33,2.16s.24,1.13.39,1.68S2.77,71,3,71.61a26.27,26.27,0,0,0,8,11.58c.6.5,1.23,1,1.88,1.42s1.32.87,2,1.26l1.05.56c.71.35,1.44.68,2.18,1a26.32,26.32,0,0,0,19.24,0c.74-.3,1.47-.63,2.18-1l1.05-.56c.69-.39,1.35-.81,2-1.26s1.28-.92,1.88-1.42a26.21,26.21,0,0,0,7.75-10.87v0l.23-.63a.16.16,0,0,0,0-.06c.22-.6.4-1.21.56-1.83s.28-1.11.39-1.68c0-.18.07-.36.09-.54.09-.53.17-1.07.23-1.61,0-.09,0-.2,0-.29.06.63.1,1.27.11,1.91C53.93,67.78,53.93,68,53.93,68.24Z"/><path class="cls-2" d="M138.35,61.93q0,3.18.14,6.13V80.43a6.59,6.59,0,0,1-.86.93,7.67,7.67,0,0,1-4.84,2.09s.12-13.17-3.84-15.15h0a2.3,2.3,0,0,0-1.08-.24h-.14a13.29,13.29,0,0,0-3.47,1.55,12.15,12.15,0,0,0-1.86,1.47,9.25,9.25,0,0,0-2.76,4.28c-.06.22-.1.42-.15.61a7.9,7.9,0,0,0-.12.93l-6.44-.21h0c0-.34-.1-.79-.16-1.34,0-.28-.06-.57-.09-.88-.09-.94-.09-1.58-.12-1.78a10.93,10.93,0,0,0-2.27-4.64H53.7a11.24,11.24,0,0,0,.23-2.29,3.05,3.05,0,0,0,0-.4A9.73,9.73,0,0,0,53.81,64h0a11.63,11.63,0,0,0,.13-1.73,11.5,11.5,0,0,0-.33-2.73,12.55,12.55,0,0,0-1.14-3h86C138.41,58.29,138.36,60.08,138.35,61.93Z"/><path class="cls-4" d="M119.66,76l-.31,1.78c-.09.56-.18,1.11-.27,1.66l-6.14-.09a14.27,14.27,0,0,0,0-2.63,13.4,13.4,0,0,0-.2-1.33h0c0-.21-.09-.42-.14-.64A14.59,14.59,0,0,0,110,69.28H53.42a14.57,14.57,0,0,0,.23-2.61c0-.43,0-.86-.06-1.29h.76c0,.16,0,.31-.07.46h56.54c4,1,2.27,10.14,2.27,10.14Z"/><path class="cls-3" d="M137.62,81.06v2.39s-2.11,3.3-5.7,3.45c0,0,.14-17.71-4.93-17.61h-.14c-3.44.26-5.81,3.22-7,6.14.27-3.42,3-9.22,7.85-9.59h.14c5.06-.09,4.93,17.61,4.93,17.61A7.27,7.27,0,0,0,137.62,81.06Z"/><line class="cls-4" x1="132.78" y1="83.45" x2="131.92" y2="86.9"/><line class="cls-4" x1="138.48" y1="80" x2="137.62" y2="83.45"/><polygon class="cls-5" points="99.58 57.39 90.49 65.01 79.99 65.01 89.82 57.39 99.58 57.39"/><path class="cls-5" d="M51.29,53.67,47.81,78.52a26.36,26.36,0,0,1-8,6.83l1.68-5.95q1.64-5.86,3.35-11.77,2.47-8.6,5-17c.18.29.35.59.52.92A15.79,15.79,0,0,1,51.29,53.67Z"/></g></g></svg>