<svg xmlns="http://www.w3.org/2000/svg" viewBox="0 0 140 140"><defs><style>.cls-1{fill:#070;opacity:0;}.cls-2{fill:#895f0b;}.cls-3{fill:#2d2d2d;}.cls-4{fill:#f7e900;}.cls-5,.cls-6{fill:#0c0c0c;}.cls-6{opacity:0.43;}.cls-7{fill:#6f4e00;}</style></defs><title>LockDoorH</title><g id="Слой_2" data-name="Слой 2"><g id="Outlines"><rect class="cls-1" width="140" height="140"/><rect class="cls-2" x="0.83" y="22.99" width="138.29" height="39.31"/><path class="cls-3" d="M138.62,23.49V61.8H1.33V23.49H138.62m1-1H.33V62.8H139.62V22.49Z"/><rect class="cls-4" x="121.66" y="23.49" width="16.96" height="38.31"/><rect class="cls-4" x="1.34" y="23.49" width="16.96" height="38.31"/><ellipse class="cls-5" cx="59.24" cy="42.65" rx="15.82" ry="11.23"/><rect class="cls-5" x="46.25" y="37.56" width="46.32" height="10.17" rx="2.21" ry="2.21"/><path class="cls-6" d="M138.67,64.24v4.28H22a50.19,50.19,0,0,1-3.71-4.28Z"/><rect class="cls-7" x="0.83" y="61.3" width="138.29" height="53.26"/><path class="cls-3" d="M138.62,61.8v52.26H1.33V61.8H138.62m1-1H.33v54.26H139.62V60.8Z"/><rect class="cls-4" x="121.66" y="61.8" width="16.96" height="52.26"/><rect class="cls-4" x="1.34" y="61.8" width="16.96" height="52.26"/><path class="cls-6" d="M138.62,111.48v2.58H1.33V61.8h17A50.19,50.19,0,0,0,22,66.08c9.29,9.86,36.63,34,86.95,41.48C121.2,109.39,130.92,110.65,138.62,111.48Z"/></g></g></svg>