<svg xmlns="http://www.w3.org/2000/svg" viewBox="0 0 1923.48 970"><defs><style>.cls-1{fill:#65b4e0;}.cls-14,.cls-2,.cls-26,.cls-33{fill:#fff;}.cls-17,.cls-2{opacity:0.09;}.cls-3{fill:#d7f5ff;}.cls-4{fill:#a2e0fc;}.cls-13,.cls-5,.cls-8{fill:none;}.cls-6{fill:#19a318;}.cls-7{fill:#019a01;}.cls-8{stroke:#2dd527;}.cls-13,.cls-29,.cls-33,.cls-8{stroke-miterlimit:10;}.cls-13,.cls-29,.cls-8{stroke-width:3px;}.cls-19,.cls-9{fill:#0c0c0c;}.cls-9{opacity:0.34;}.cls-10{fill:#faff65;}.cls-11{fill:#ffce55;}.cls-12{fill:#ffa34e;}.cls-13{stroke:#7c4518;}.cls-14{opacity:0.36;}.cls-15{fill:#f8dc57;}.cls-16{opacity:0.19;}.cls-18{fill:#030000;opacity:0.4;}.cls-19{opacity:0.43;}.cls-20{fill:#5b4501;}.cls-21{opacity:0.35;}.cls-22{fill:#0c7e02;}.cls-23{fill:#2dd527;}.cls-24{fill:#106807;}.cls-25{fill:#327c50;}.cls-26{opacity:0.21;}.cls-27{fill:#7e7069;}.cls-28,.cls-32{fill:#f9f9f9;}.cls-28{opacity:0.42;}.cls-29,.cls-31{fill:#515151;}.cls-29,.cls-33{stroke:#2d2d2d;}.cls-30{fill:#2d2d2d;}.cls-32{opacity:0.17;}.cls-34{fill:#989a9a;}.cls-35{fill:#ce5262;}.cls-36{opacity:0.22;}.cls-37{fill:#1c1c1c;}</style></defs><title>MainMenuBackground</title><g id="Слой_2" data-name="Слой 2"><g id="Outlines"><rect class="cls-1" width="1920" height="970"/><path class="cls-2" d="M1923.48,112.41a5.34,5.34,0,0,1-1,3,9.84,9.84,0,0,1-2.5,2.49v3.58q-1.72.77-3.48,1.59c-6.12,2.85-12.39,6.07-18.64,9.54-10.17,5.62-20.27,11.88-29.5,18.14-2.9,2-7.58,5.18-13.75,9.35-3,2-6.34,4.28-10,6.72-23.75,15.86-60.74,39.84-101.47,63-70.85,40.27-153,78-196.46,66.16-34.45-9.41-80.68-3.65-124.79,7.87l-5.1,1.36c-56.67,15.42-108.92,39.82-127,53-4.21,3.09-13.86,6.43-27.67,9.87-2,.51-4.14,1-6.34,1.52-19.68,4.55-46.22,9.24-76.74,13.72-21.31,3.13-44.58,6.15-68.81,8.95-17.57,2-35.66,3.94-53.88,5.69-8.35.8-16.74,1.57-25.11,2.3-23.42,2-46.79,3.77-69.32,5.11-67.23,4-127,4.45-158.56-1.18h0q-11.37-2-22.59-4.43-16-3.42-31.49-7.68c-33.58-9.22-65.21-21.55-93.07-38q-10.73-6.31-20.66-13.49c-24.59-17.75-45.35-39.5-60.73-66.14C530.71,198,493,250.4,346.14,229.42c-56.8-8.12-128.27-27.47-194.57-48.15-21.2-6.61-41.88-13.36-61.37-19.92C55,149.51,23.67,138.28,0,129.57V0H1920V106.93C1922.2,108.5,1923.48,110.38,1923.48,112.41Z"/><path class="cls-3" d="M309.06,167c-12.89,13.66-38.73,23-68.51,23-26.29,0-49.49-7.27-63.45-18.37-9.47,6.57-23.19,10.71-38.47,10.71-28.57,0-51.74-14.48-51.74-32.34,0-6,2.62-11.63,7.19-16.45-16.5-4.85-27.52-13.64-27.52-23.69,0-6.64,4.81-12.73,12.83-17.49a16,16,0,0,0-3.83,10c0,10,11,18.84,27.52,23.69-4.57,4.82-7.19,10.44-7.19,16.45,0,17.86,23.17,32.34,51.74,32.34,15.28,0,29-4.14,38.47-10.71,14,11.1,37.16,18.37,63.45,18.37C273.49,182.45,294.89,176.42,309.06,167Z"/><path class="cls-4" d="M317.79,147.2c0,7.13-3.15,13.85-8.73,19.76-14.17,9.46-35.57,15.49-59.51,15.49-26.29,0-49.49-7.27-63.45-18.37-9.47,6.57-23.19,10.71-38.47,10.71-28.57,0-51.74-14.48-51.74-32.34,0-6,2.62-11.63,7.19-16.45-16.5-4.85-27.52-13.64-27.52-23.69a16,16,0,0,1,3.83-10c10.45-6.22,26.35-10.19,44.16-10.19,23.14,0,43.05,6.7,52,16.32A76.66,76.66,0,0,1,201,94.27c14.87,0,28.27,3.93,37.71,10.21.62,0,1.24,0,1.87,0C283.21,104.45,317.79,123.59,317.79,147.2Z"/><path class="cls-4" d="M326.79,139.7c0,10.36-6.65,19.86-17.73,27.26-14.17,9.46-35.57,15.49-59.51,15.49-26.29,0-49.49-7.27-63.45-18.37-9.47,6.57-23.19,10.71-38.47,10.71-28.57,0-51.74-14.48-51.74-32.34,0-6,2.62-11.63,7.19-16.45-16.5-4.85-27.52-13.64-27.52-23.69a16,16,0,0,1,3.83-10C87.64,82,108.33,74.63,132.55,74.63c23.14,0,43.05,6.7,52,16.32A76.66,76.66,0,0,1,210,86.77c14.87,0,28.27,3.93,37.71,10.21.62,0,1.24,0,1.87,0C292.21,96.95,326.79,116.09,326.79,139.7Z"/><ellipse class="cls-3" cx="235.38" cy="117.38" rx="20.87" ry="9.94"/><ellipse class="cls-3" cx="214.51" cy="128.54" rx="20.87" ry="9.94"/><ellipse class="cls-3" cx="251.38" cy="135.8" rx="20.87" ry="15.69"/><path class="cls-3" d="M1765.3,268.49c0,26.74-24.91,48.41-55.64,48.41a63.31,63.31,0,0,1-11.2-1C1684.79,330.37,1660,340,1631.62,340c-28.06,0-52.64-9.47-66.39-23.67a123.91,123.91,0,0,1-16.8,1.12c-14.09,0-26.77-2.26-35.67-5.87-11.39,8.63-27.09,14-44.44,14-27.49,0-50.87-13.4-59.43-32.07a87.59,87.59,0,0,1-23.6,3.16c-32.69,0-59.2-17.11-59.25-38.23,5.12,17.78,29.24,31.23,58.24,31.23a87.57,87.57,0,0,0,23.59-3.16c8.57,18.67,31.94,32.07,59.44,32.07,17.35,0,33-5.34,44.43-14,8.9,3.61,21.59,5.87,35.68,5.87a123.76,123.76,0,0,0,16.79-1.12c13.75,14.2,38.34,23.67,66.4,23.67,28.35,0,53.16-9.66,66.83-24.11a63.43,63.43,0,0,0,11.21,1c30.72,0,55.63-21.67,55.63-48.41,0-.88,0-1.75-.08-2.62A42.61,42.61,0,0,1,1765.3,268.49Z"/><path class="cls-4" d="M1764.28,261.49c0,26.74-24.91,48.41-55.63,48.41a63.43,63.43,0,0,1-11.21-1C1683.77,323.37,1659,333,1630.61,333c-28.06,0-52.65-9.47-66.4-23.67a123.76,123.76,0,0,1-16.79,1.12c-14.09,0-26.78-2.26-35.68-5.87-11.38,8.63-27.08,14-44.43,14-27.5,0-50.87-13.4-59.44-32.07a87.57,87.57,0,0,1-23.59,3.16c-29,0-53.12-13.45-58.24-31.23v-.06c0-21.15,26.53-38.3,59.25-38.3a90.23,90.23,0,0,1,14,1.08,44.53,44.53,0,0,1-3.15-7.3A42.61,42.61,0,0,1,1394,203.1c0-.84-.08-1.68-.08-2.53,0-26.74,24.91-48.41,55.64-48.41,27,0,49.42,16.66,54.54,38.79a42.75,42.75,0,0,1,1.08,8.27c0,.45,0,.9,0,1.35a41.22,41.22,0,0,1-.48,6.22,112.16,112.16,0,0,1,41.6-7.66c38.62,0,70.69,17.92,76.93,41.47q4.11-.29,8.33-.29a117.16,117.16,0,0,1,30,3.81c9.65-14.37,27.56-24,48.07-24,27,0,49.42,16.67,54.54,38.79C1764.25,259.74,1764.28,260.61,1764.28,261.49Z"/><ellipse class="cls-3" cx="1568.52" cy="273.39" rx="21.83" ry="13.42"/><ellipse class="cls-3" cx="1412.69" cy="260.41" rx="28.33" ry="14.32"/><ellipse class="cls-3" cx="1434.35" cy="238.98" rx="18.67" ry="21"/><ellipse class="cls-3" cx="1459.35" cy="263.98" rx="31.67" ry="16.67"/><ellipse class="cls-3" cx="1474.85" cy="246.09" rx="31.67" ry="16.67"/><ellipse class="cls-3" cx="1582.69" cy="258.64" rx="17" ry="8.67" transform="matrix(0.99, -0.17, 0.17, 0.99, -20.92, 274.58)"/><line class="cls-5" x1="915.84" y1="538.76" x2="899.21" y2="531.62"/><line class="cls-5" x1="1479.35" y1="552.13" x2="1479.34" y2="552.13"/><line class="cls-5" x1="1479.35" y1="552.13" x2="1479.34" y2="552.13"/><polygon class="cls-6" points="0 802.79 117.22 828.09 0 880.8 0 802.79"/><polygon class="cls-6" points="0 646.77 103.23 661.77 0 684.98 0 646.77"/><polygon class="cls-7" points="558.87 523.51 189.09 564.21 0 552.13 0 511.76 558.87 523.51"/><polygon class="cls-6" points="0 552.13 189.09 564.21 0 585.02 0 552.13"/><polygon class="cls-6" points="615.15 736.17 446.34 899.13 117.22 828.09 393.34 703.93 103.23 661.77 460.15 581.53 189.09 564.21 558.87 523.51 0 511.76 0 489.16 871 489.16 558.88 523.51 704.54 526.57 460.16 581.53 640.02 593.02 393.35 703.93 615.15 736.17"/><polygon class="cls-6" points="446.34 899.13 774.66 970 372.94 970 446.34 899.13"/><polygon class="cls-6" points="815.67 765.31 1020.51 795.08 1106 970 774.66 970 815.67 765.31"/><polygon class="cls-7" points="1920 860.42 1920 925.8 1339.66 841.46 1043.44 618.79 1279.96 633.9 1279.97 633.9 1920 860.42"/><polygon class="cls-6" points="930.84 611.6 1043.44 618.79 1339.66 841.46 1020.51 795.08 930.84 611.6"/><polygon class="cls-7" points="862.84 529.9 847.54 606.28 847.53 606.28 755.76 600.41 829.52 529.2 862.84 529.9"/><polygon class="cls-6" points="615.15 736.17 755.76 600.41 847.53 606.28 815.67 765.31 615.15 736.17"/><polygon class="cls-6" points="784.09 528.25 829.52 529.2 755.76 600.41 640.02 593.02 784.07 528.25 704.58 526.57 871 489.16 784.09 528.25"/><polygon class="cls-6" points="871 489.16 862.84 529.9 829.52 529.2 871 489.16"/><polygon class="cls-6" points="862.84 529.9 891.2 530.5 930.84 611.6 847.54 606.28 862.84 529.9"/><polygon class="cls-6" points="871 489.16 926.99 531.25 891.2 530.5 871 489.16"/><polygon class="cls-6" points="871 489.16 1133.38 535.59 993.91 532.66 1279.96 633.9 1043.44 618.79 926.99 531.25 993.9 532.66 871 489.16"/><polygon class="cls-6" points="1920 552.13 1920 674.79 1133.38 535.59 1920 552.13"/><polygon class="cls-6" points="1279.97 633.9 1920 674.79 1920 860.42 1279.97 633.9"/><polygon class="cls-6" points="1920 925.8 1920 970 1510.65 970 1487.66 952.71 1339.66 841.46 1920 925.8"/><polygon class="cls-7" points="871 489.16 829.52 529.2 784.09 528.25 871 489.16"/><line class="cls-8" x1="784.09" y1="528.25" x2="784.07" y2="528.25"/><polygon class="cls-7" points="755.76 600.41 615.15 736.17 393.35 703.93 640.02 593.02 755.76 600.41"/><line class="cls-8" x1="393.35" y1="703.93" x2="393.34" y2="703.93"/><polygon class="cls-7" points="1510.65 970 1106 970 1020.51 795.08 1339.66 841.46 1487.66 952.71 1510.65 970"/><line class="cls-8" x1="460.16" y1="581.53" x2="460.15" y2="581.53"/><line class="cls-8" x1="993.91" y1="532.66" x2="993.9" y2="532.66"/><polygon class="cls-7" points="891.2 530.5 862.84 529.9 871 489.16 891.2 530.5"/><polygon class="cls-7" points="993.9 532.66 926.99 531.25 871 489.16 993.9 532.66"/><polygon class="cls-7" points="1920 489.16 1920 552.13 1133.38 535.59 871 489.16 1920 489.16"/><polygon class="cls-7" points="446.34 899.13 372.94 970 0 970 0 880.8 117.22 828.09 446.34 899.13"/><polygon class="cls-7" points="815.67 765.31 774.66 970 446.34 899.13 615.15 736.17 815.67 765.31"/><path class="cls-9" d="M449.55,678.66l-3.92,1.77,3,1h0q2-1.12,3.93-2.42ZM646,620.37l-8.26,3.75-.48.22-20.75,9.44-2,.92L602,640.37l-2.49,1.13-2.72,1.24-2.44,1.11-4.9,2.23h0L581.59,644l-2.35-.62-5.55-1.46-.87-.23-12.55-3.31h0L547.55,635h0l-.62-.16-43.68-11.52-1.93-.51-11.08-2.92-.53-.14-35.52-9.36-18.23-4.8-.59-.16-13.17,3.27-7.89,2-6.92,1.72-33.75,8.37-59.73,14.82h0l-.61,2.53-9.82,40.7-.51,2.1-2.3,9.52-8.22,34.06-.2.83-.76,3.13-5.75,23.85-2,8.23,68,27.25,4,1.59,50.15,20.1,44.28,17.74.36.14,1.76.71a37.77,37.77,0,0,0,6.78-1.34c13.84-4.11,18.19-14.32,27.25-21.75,12.18-10,19.22-3.76,37.25-11.75,8.88-3.94,21-11.57,32.75-28l2.25-3,47.12-25.08h0l3.5-1.86,3.71-2,.32-.17,1.26-.67h0l.71-.38.4-.21,5.2-2.77.5-2.06,6.87-28.49c.64-2.63,1.27-5.27,1.91-7.9.7-2.93,1.41-5.85,2.11-8.78l6.45-26.74a0,0,0,0,0,0,0q2.64-11,5.3-22c.51-2.14,1-4.27,1.54-6.41.56-2.3,1.11-4.61,1.67-6.91ZM437,677.48h0l-1.69-.58Zm47.68,16.22h0l-36-12.26Zm-5.48,22.71-.91,3.79h0Z"/><polygon class="cls-7" points="393.34 703.93 117.22 828.09 0 802.79 0 684.98 103.23 661.77 393.34 703.93"/><line class="cls-8" x1="393.35" y1="703.93" x2="393.34" y2="703.93"/><polygon class="cls-7" points="1020.51 795.08 815.67 765.31 847.53 606.28 847.54 606.28 930.84 611.6 1020.51 795.08"/><path class="cls-7" d="M460.15,581.53l-255,57.33h0l-15.86,3.57L173.18,646h0l-44.4,10-25.53,5.74L0,646.77V585l29.12-3.2,50.17-5.53,29.42-3.23,1.76-.2,1.38-.15,16.4-1.8,9.65-1.07,6.57-.72,10.4-1.14,7.75-.86,1.5-.16,9.38-1,12.75-1.41,2.84-.31Z"/><line class="cls-8" x1="460.16" y1="581.53" x2="460.15" y2="581.53"/><polygon class="cls-7" points="1920 674.79 1279.97 633.9 1279.96 633.9 993.91 532.66 1133.38 535.59 1920 674.79"/><polygon class="cls-7" points="1043.44 618.79 930.84 611.6 891.2 530.5 926.99 531.25 1043.44 618.79"/><line class="cls-8" x1="993.91" y1="532.66" x2="993.9" y2="532.66"/><line class="cls-8" x1="784.09" y1="528.25" x2="784.07" y2="528.25"/><line class="cls-8" x1="558.88" y1="523.51" x2="558.87" y2="523.51"/><polygon class="cls-7" points="871 489.16 704.58 526.57 704.54 526.57 558.88 523.51 871 489.16"/><polygon class="cls-7" points="784.07 528.25 640.02 593.02 460.16 581.53 704.54 526.57 704.58 526.57 784.07 528.25"/><path class="cls-10" d="M688.25,523.4,675,523.12h0l-13.14-.27h0a127.14,127.14,0,0,0-56.06,1.22h-3.66l-18.55-3.27-4.12-.73-33.6.36L540,523.11l-7,3.25c-15.75,7.33-28.54,13.46-38.87,18.59l-1.78.88c-23.87,11.89-34,18.13-37,21.24a36,36,0,0,1-8.33,6.67,37.78,37.78,0,0,1-12.27,4.48h0c1.18.65,2.37,1.28,3.58,1.91q3,1.59,6.21,3.1l2.58,1.21A209.4,209.4,0,0,0,501.94,601l2,.31c38.73,5.85,77.06,1.4,110.48-6.66,2-.91,4-1.86,6-2.85q7.77-3.81,15.83-8.49A248.3,248.3,0,0,0,688.5,542.4c5.09-5.21,9.7-10.36,13.86-15.34.15-.17.29-.35.43-.53.78-.93,1.54-1.85,2.28-2.77a0,0,0,0,0,0,0Z"/><path class="cls-11" d="M706.15,631.66c-.18,4.85-.56,9.42-1.06,13.67q-7.35,12.21-14.69,24.41l-26.25,18.05a76.93,76.93,0,0,1-9.5,12.62c-5.79,6.23-10.9,9.62-16,13.25a308.81,308.81,0,0,0-24.22,19.2V594.62a73.7,73.7,0,0,1,12-11.54c6.87-5.27,10.91-6.41,17.83-11.67a77,77,0,0,0,12.67-12.17,47.71,47.71,0,0,1,12.17-8c2.38-1.07,3.14-1.17,5-2.16,6.15-3.29,9.31-8.39,10.66-10.34,3-4.3,8.63-9.86,20.36-15,.87,11.7.91,21.14.81,27.33,0,2.06-.09,4-.15,5.81-.15,3.9-.35,7.35-.56,10.63a252,252,0,0,0-.79,26.14c.25,8.86,1,16,1.52,20.34A175.33,175.33,0,0,1,706.15,631.66Z"/><path class="cls-12" d="M614.43,681.16c-.1,4.15-.09,8.06,0,11.71,0,1.94.1,3.81.18,5.6.25,5.6.65,10.39,1,14.19q-.61,10.09-1.22,20.2a85.41,85.41,0,0,1-57.53-6.2l-28.17,3.75-18.33-6-26.25-1.5a96.49,96.49,0,0,0-45.5-10.25l-3.87-5.91c.78-6.53,1.41-13.49,1.83-20.84q.24-4.3.38-8.79c.1-3.17.16-6.41.16-9.71a339.55,339.55,0,0,0-1.76-35.09c-.5-4.93-1.09-9.66-1.74-14.16q1.62-8.88,3.25-17.75-1.06-11.1-2.12-22.19l8.56,3.08a48.91,48.91,0,0,1,16.73-1.22c7.8.8,11.3,3.15,18,4.66,9.61,2.18,13.83-.08,24.9-.65,16.51-.84,19.45,3.55,40.76,5.82a175.3,175.3,0,0,0,33.17.33,100.7,100.7,0,0,0,37.53,4.38c0,1.5,0,3.78,0,6.54.19,21.84,2.28,29.6,2.72,43,0,.65,0,1.27.05,1.87,0,2.17,0,4-.06,5.64-.34,7.9-1.8,11-2.46,22.89,0,.51-.05,1-.07,1.58-.05.86-.08,1.76-.11,2.71,0,.16,0,.32,0,.49v0C614.46,679.94,614.44,680.54,614.43,681.16Z"/><line class="cls-13" x1="434.79" y1="676.85" x2="614.22" y2="698.85"/><path class="cls-14" d="M620.68,530.28c-.48.16-.74.23-.74.23s-14.25,3-14.75,8.75a36.51,36.51,0,0,0,.75,10.75l-4.25-6.36s-9,9.61-13.25,9.61,4.25-3.25,4.25-3.25,3.25-14,8.75-18.25l6.08-1.75h0Z"/><path class="cls-14" d="M594.54,579.26s0-8.17,3-10.83,13.25-2.17,15.25-4,4.17-7.17,4.17-7.17,6.5-1.5,6,1-3.33,1.55-9.5,9.78-8.5.55-11.5,5.22-9.83,10.93-9.83,10.93-7-.26-6.33-.93,4.33-1.17,5.67-1.67A11,11,0,0,0,594.54,579.26Z"/><polyline class="cls-13" points="705.09 612.91 655.82 659.5 639.6 674.84 614.43 698.64 614.21 698.85"/><line class="cls-13" x1="434.55" y1="632.24" x2="614.68" y2="648.52"/><line class="cls-13" x1="708.03" y1="564.98" x2="613.69" y2="649.16"/><path class="cls-15" d="M602.54,521.6c-.11.16-.22.32-.32.49l-.23-.5Z"/><path class="cls-15" d="M594.92,580.85s0-8.17,3-10.83,13.25-2.17,15.25-4,4.17-7.17,4.17-7.17,6.5-1.5,6,1-3.33,1.55-9.5,9.78-8.5.55-11.5,5.22-9.83,10.93-9.83,10.93-7-.26-6.33-.93,4.33-1.17,5.67-1.67A11,11,0,0,0,594.92,580.85Z"/><path class="cls-16" d="M569.94,635.06s4.43,9.33,4.43,12,11.33-6,11.33-6l6,1.67,11.23,4.84,4.1-2.93-8-3.33s-17.33-3.59-20.33-2.25S569.94,635.06,569.94,635.06Z"/><path class="cls-12" d="M569.94,632.9s4.43,9.33,4.43,12,11.33-6,11.33-6l6,1.67,11.23,4.84,4.1-2.93-8-3.33s-17.33-3.59-20.33-2.25S569.94,632.9,569.94,632.9Z"/><path class="cls-15" d="M621.5,531.1c-.48.16-.74.23-.74.23s-14.25,3-14.75,8.75a36.51,36.51,0,0,0,.75,10.75l-4.25-6.36s-9,9.61-13.25,9.61,4.25-3.25,4.25-3.25,3.25-14,8.75-18.25l6.08-1.75h0Z"/><polygon class="cls-16" points="455.4 631.36 467.9 643.27 474.9 632.61 488.18 639.04 496 634.85 469.9 628.61 448.4 626.86 438.9 638.86 455.4 631.36"/><polygon class="cls-12" points="455.4 629.41 467.9 641.32 474.9 630.66 488.18 637.09 496 632.9 469.9 626.66 448.4 624.91 438.9 636.91 455.4 629.41"/><polygon class="cls-16" points="486.15 666.2 496 672.45 499.9 666.2 513.9 676.2 519.4 671.2 524.61 666.2 486.15 666.2"/><polygon class="cls-11" points="486.15 664.66 496 670.91 499.9 664.66 513.9 674.66 519.4 669.66 524.61 664.66 486.15 664.66"/><path class="cls-16" d="M634.9,627s13.67-13.83,14.17-15.67h14L652.57,614l5.33,9.67-8.92-2.5-6.42,15.17-.17-9Z"/><path class="cls-10" d="M634.9,624.24s13.67-13.83,14.17-15.67h14l-10.5,2.67,5.33,9.67-8.92-2.5-6.42,15.17-.17-9Z"/><polygon class="cls-16" points="576.19 686.94 563.69 698.85 556.69 688.19 543.41 694.62 535.59 690.43 561.69 684.19 583.19 682.44 592.69 694.44 576.19 686.94"/><polygon class="cls-12" points="576.19 684.99 563.69 696.9 556.69 686.24 543.41 692.67 535.59 688.48 561.69 682.24 583.19 680.49 592.69 692.49 576.19 684.99"/><path class="cls-14" d="M563.69,530,550,540.27s-11.93,8.6-20.59,14.24c3.76-6.3,2.36-10.83,2.36-10.83L529,549s-5.42,9.18-6.71,8.87c-.59-.14-2,.92-3.3,2.2-6.44,2.95-22.4,12.71-23.4,14l24.94-9.12s2.2,4.82,5.9,3.13,3.26-9.54,3.26-9.54C563.77,538,563.69,530,563.69,530Z"/><path class="cls-15" d="M564.14,530.83l-13.68,10.26s-11.93,8.6-20.59,14.24c3.76-6.3,2.36-10.83,2.36-10.83l-2.83,5.32S524,559,522.7,558.69c-.59-.14-2,.92-3.3,2.2-6.44,2.95-22.4,12.71-23.4,14l24.94-9.12s2.2,4.82,5.9,3.13,3.26-9.54,3.26-9.54C564.21,538.85,564.14,530.83,564.14,530.83Z"/><polygon class="cls-11" points="634.23 624.91 643.65 619.32 646.07 610.82 652.15 607.91 645.15 605.66 633.15 612.32 634.23 624.91"/><path class="cls-16" d="M614.28,676l8.72,4.51-4.36.5L615,687.32l-.59-9.24L608,687.32l1.83-7.33L608,676.65Z"/><polygon class="cls-11" points="614.68 674.56 623.41 679.07 619.05 679.57 615.4 685.91 614.4 678.07 608.4 685.91 610.23 678.57 608.4 675.24 614.68 674.56"/><polygon class="cls-16" points="672.86 641.09 666.02 647.34 666.02 659.51 669.44 653.68 672.86 650.3 671.02 645.35 680.36 643.25 672.86 641.09"/><polygon class="cls-11" points="671.73 639.15 664.9 645.41 664.9 657.57 668.32 651.74 671.73 648.36 669.9 643.41 679.23 641.32 671.73 639.15"/><path class="cls-17" d="M706.15,631.66c-.18,4.85-.56,9.42-1.06,13.67q-7.35,12.21-14.69,24.41l-26.25,18.05a76.93,76.93,0,0,1-9.5,12.62c-5.79,6.23-10.9,9.62-16,13.25a308.81,308.81,0,0,0-24.22,19.2,85.41,85.41,0,0,1-57.53-6.2l-28.17,3.75-18.33-6-26.25-1.5a96.49,96.49,0,0,0-45.5-10.25l-3.87-5.91c.78-6.53,1.41-13.49,1.83-20.84a42,42,0,0,0,16-6.88c12.18-8.15,21.15-20.13,25.08-19.52,3,.47,13.33,2.61,25,5.15l7,1.54c3.62.8,7.27,1.62,10.76,2.41l1.3.29c3.52.81,6.86,1.58,9.86,2.3,18,4.29,64.5-6.54,64.5-6.54s12-9.16,18.28-12.1a8.43,8.43,0,0,1,2.71-.89c4.25-.24,18,6.24,20,5.08s15.25-23.09,19.25-23.85,9.62-1.24,9.62-1.24,1.13-8.5,7.17-9,16.21-15.59,16.21-15.59,6.67-9.33,5.33-16c-.61-3.08,1.54-10.6,4-17.82,2.92-8.43,6.31-16.44,6.31-16.44l.67.07c-.15,3.9-.35,7.35-.56,10.63a252,252,0,0,0-.79,26.14c.25,8.86,1,16,1.52,20.34A175.33,175.33,0,0,1,706.15,631.66Z"/><path class="cls-18" d="M615.17,732.33a62.24,62.24,0,0,0-14,7.92c-19.8,14.88-24.88,37.55-26.3,45.83h0c.88,8.24,4,15.45,9.38,20.88,8.5,8.5,21.35,11.22,35.73,8.82a41,41,0,0,0,6.07,7.73c19,19,52.72,15.9,75.43-6.8a69,69,0,0,0,8.13-9.77,64.88,64.88,0,0,0,7.4-14.19,66,66,0,0,0,30.18-17.48c21.07-21.07,25.2-51.66,10.55-71.1l.33-.26,16.59-12.74,8.42-6.47s.66-25.87-35.32-43.09h0a115,115,0,0,0-13-5.25l-3.33,14.44-16.73,25.84c-4-8.31-8.1-11.31-10.42-12.54-4.53-2.42-6.89-3.33-8.26-4-2.29-1-3.43-1.56-4-1.79a40.23,40.23,0,0,0-12.37-2.5c-6.78-.27-16,4.51-24.14,11.34a53.08,53.08,0,0,0-9.25,10.11,52.43,52.43,0,0,0-4.91,8.68,29.12,29.12,0,0,0-11.14,4.54c-5.28,3.6-7.86,8.08-10.23,12a31.92,31.92,0,0,0-4.22,9.88c-.16.72-.52,2.51-.67,8.6C615,723.82,615,727.69,615.17,732.33Z"/><line class="cls-8" x1="558.88" y1="523.51" x2="558.87" y2="523.51"/><path class="cls-19" d="M450.61,841.94l-14.52,7.54-28.61,14.86-.57.3a64.25,64.25,0,0,1,5.34,14.78c7.09,31.07-8.17,67.67-40.5,90.26l-.47.32H113.52c-5-8.89-6.95-19.24-6.18-30.32h0c1.19-17.35,9-36.54,22.38-54.88a186,186,0,0,1,43.83-42.36,198.52,198.52,0,0,1,17.69-11,110.28,110.28,0,0,1,35-39.44,111.85,111.85,0,0,1,41-18c31.2-6.53,61.71,2.24,78.15,25.42l32.84-32.08,12-11.75A178,178,0,0,1,408.61,767h0C458.58,802.86,450.61,841.94,450.61,841.94Z"/><path class="cls-20" d="M451.08,833.18a177.15,177.15,0,0,1-19.89,8.46h0c-58,20.44-85.45-8.47-85.45-8.47L347.87,817l4.2-32,7.31-55.74,1.54-11.72,14.42-109.81H413.8l16.67,100.84,6.39,38.64,11.48,69.41Z"/><path class="cls-21" d="M443.65,788.22c-5.57,2.85-14.13,7.36-24.39,13.27-20.49,11.82-26.16,16.82-38,21.54a102.61,102.61,0,0,1-35.14,7.1l13.24-100.89,1.54-11.72,69.55-9,6.39,38.64Z"/><path class="cls-22" d="M515.2,677.89a111.85,111.85,0,0,1-8.76,43.9c-12.58,29.47-37.42,49.52-66,49.52a62.23,62.23,0,0,1-30.55-8.13C396.75,776.77,379.66,785,361,785c-1.39,0-2.77,0-4.15-.14h0c-39.37-2.57-70.63-41.65-70.63-89.48A101.64,101.64,0,0,1,300,643.44a100,100,0,0,1-7.39-23.53,106.31,106.31,0,0,1-1.78-19.51c0-49.49,33.48-89.61,74.78-89.61a63.1,63.1,0,0,1,15,1.81c13.07-18.29,30-29.33,48.55-29.33,11.83,0,23,4.51,33,12.53h0c24.77,20,41.8,61.7,41.8,110a199.56,199.56,0,0,1-1.08,20.82A110.25,110.25,0,0,1,515.2,677.89Z"/><path class="cls-23" d="M513.2,678.18a111.85,111.85,0,0,1-8.76,43.9c-7.06,0-24,18.25-26.67,10.26s7.55-32.84,10.21-36.68c1.69-2.41,1.21-9-1.7-14.44a15.91,15.91,0,0,0-7.62-7.47c-9.24-3.91-20.42-38.61-20.42-38.61-9.76,14.65-22.64,5.33-22.64,5.33l24.6-39.78s-16.16-6.82-39.69,9.16c-8.71,5.91-19.6,2.22-27.9-5.52-14.12-13.17-20.72-38.07,3.8-47.29,38.93-14.65,40.52,10.21,49.93,8s8.79-25.74,2.74-46.6S460.2,496.1,460.2,496.1h0c24.77,20,41.8,61.7,41.8,110a199.56,199.56,0,0,1-1.08,20.82A110.25,110.25,0,0,1,513.2,678.18Z"/><path class="cls-24" d="M358.15,783.52h0c-39.37-2.57-70.63-41.65-70.63-89.48a101.64,101.64,0,0,1,13.84-51.94A100,100,0,0,1,294,618.58c.42.46,27.44,30.5,37.57,32.26S344,672.58,344,672.58s-12.43,24-10.65,32S358.15,727,358.15,727,373.69,778.18,358.15,783.52Z"/><path class="cls-20" d="M791.7,683a115,115,0,0,1-12.91,5.49h0c-37.62,13.26-55.44-5.49-55.44-5.49l1.38-10.53,2.72-20.74,4.75-36.17,1-7.6,9.35-71.25h25l10.82,65.43,4.15,25.07,7.45,45Z"/><path class="cls-21" d="M786.55,651.57a54.61,54.61,0,0,1-16.3,14.17c-19.68,11.1-40.09,5.93-45.22,4.47l2.15-16.34,5-38.28,1-7.6,45.13-5.82,4.15,25.07Z"/><path class="cls-22" d="M833.3,582.28a72.58,72.58,0,0,1-5.68,28.49c-8.16,19.12-24.28,32.13-42.84,32.13A40.38,40.38,0,0,1,765,637.63c-8.51,8.82-19.59,14.15-31.73,14.15-.9,0-1.8,0-2.69-.09h0c-25.54-1.67-45.83-27-45.83-58.06a66,66,0,0,1,9-33.7,64.88,64.88,0,0,1-4.8-15.27A69,69,0,0,1,687.72,532c0-32.11,21.73-58.15,48.53-58.15A41,41,0,0,1,746,475c8.48-11.87,19.48-19,31.51-19,7.68,0,14.95,2.93,21.4,8.13h0c16.07,13,27.12,40,27.12,71.35a129.49,129.49,0,0,1-.7,13.51A71.54,71.54,0,0,1,833.3,582.28Z"/><path class="cls-23" d="M832,582.47A72.58,72.58,0,0,1,826.32,611c-4.58,0-15.58,11.84-17.31,6.66s4.9-21.31,6.62-23.8c1.09-1.57.78-5.82-1.11-9.37a12.46,12.46,0,0,0-4.94-4.84c-4.14-2.32-6.16-.5-9.66-2.52-2.7-1.55-3.94-4-5.79-7.71-2.92-5.82-1.83-8-4.37-9.72-2.93-2-8.11-1.65-8.11-1.65h0a23.64,23.64,0,0,1-5.94-7.27c-3.17-6.12-1.27-9.52-3.85-12.6-4.79-5.72-17.08-.87-18.1-3.58-1.26-3.35,17.65-10.24,17-18.1-.54-6.76-15.23-10.69-14.56-12.58s16,4.23,21.08-1.65c2.44-2.83-.2-5.32,2.27-10.83,3.19-7.12,9.11-6.37,10.83-12.57,1.3-4.71-1.58-7.65.83-10.93a9.65,9.65,0,0,1,6.38-3.56h0c16.07,13,27.12,40,27.12,71.35a129.47,129.47,0,0,1-.7,13.51A71.54,71.54,0,0,1,832,582.47Z"/><path class="cls-24" d="M731.4,650.82h0c-25.54-1.67-45.83-27-45.83-58.06a66,66,0,0,1,9-33.7,64.89,64.89,0,0,1-4.8-15.27l0,0c11.34,12.61,19.49,14.5,24.34,20.89,2.66,3.51,5.15,9.46,3.74,20.08a52.19,52.19,0,0,1,23.57,14.57A50.63,50.63,0,0,1,750,612.23c10,4.77,16.33,13.9,15.43,21.86C764.19,645,749.15,655.73,731.4,650.82Z"/><path class="cls-3" d="M1916.52,177.48v7.23c-2.87.18-5.79.27-8.74.27-26.29,0-49.49-7.27-63.45-18.37-9.47,6.57-23.19,10.71-38.47,10.71-28.57,0-51.74-14.48-51.74-32.34,0-6,2.62-11.63,7.19-16.45-16.5-4.85-27.52-13.64-27.52-23.69,0-6.64,4.81-12.73,12.83-17.49a16,16,0,0,0-3.83,10c0,10,11,18.84,27.52,23.69-4.57,4.82-7.19,10.44-7.19,16.45,0,17.86,23.17,32.34,51.74,32.34,15.28,0,29-4.14,38.47-10.71C1867.24,170.17,1890.34,177.43,1916.52,177.48Z"/><path class="cls-4" d="M1923.48,112.41a5.34,5.34,0,0,1-1,3,9.84,9.84,0,0,1-2.5,2.49,18.35,18.35,0,0,1-3.48,1.91v57.66c-25.38,0-47.87-6.87-61.89-17.37l-1.3-1c-9.47,6.57-23.19,10.71-38.47,10.71-28.57,0-51.74-14.48-51.74-32.34,0-6,2.62-11.63,7.19-16.45-16.5-4.85-27.52-13.64-27.52-23.69a16,16,0,0,1,3.83-10c10.45-6.22,26.35-10.19,44.16-10.19,23.14,0,43,6.7,52,16.32a76.65,76.65,0,0,1,25.44-4.18c14.87,0,28.27,3.93,37.71,10.21.62,0,1.24,0,1.87,0,2.95,0,5.87.09,8.74.27V105a18.67,18.67,0,0,1,3.48,1.92C1922.2,108.5,1923.48,110.38,1923.48,112.41Z"/><path class="cls-4" d="M1923.48,112.41a5.34,5.34,0,0,1-1,3,9.84,9.84,0,0,1-2.5,2.49,18.35,18.35,0,0,1-3.48,1.91v57.66c-25.38,0-47.87-6.87-61.89-17.37l-1.3-1c-9.47,6.57-23.19,10.71-38.47,10.71-28.57,0-51.74-14.48-51.74-32.34,0-6,2.62-11.63,7.19-16.45-16.5-4.85-27.52-13.64-27.52-23.69a16,16,0,0,1,3.83-10c8.25-10.35,28.94-17.69,53.16-17.69,23.14,0,43,6.7,52,16.32a76.65,76.65,0,0,1,25.44-4.18c14.87,0,28.27,3.93,37.71,10.21l1.61,0v13a18.67,18.67,0,0,1,3.48,1.92C1922.2,108.5,1923.48,110.38,1923.48,112.41Z"/><path class="cls-3" d="M1923.48,112.41a5.34,5.34,0,0,1-1,3,9.84,9.84,0,0,1-2.5,2.49,18.35,18.35,0,0,1-3.48,1.91,36.15,36.15,0,0,1-13.91,2.53h-.17q-.67,0-1.35,0c-10-.34-18-4-19.18-8.69a4.22,4.22,0,0,1-.17-1.22c0-5.48,9.35-9.93,20.87-9.93a36.15,36.15,0,0,1,13.91,2.53,18.67,18.67,0,0,1,3.48,1.92C1922.2,108.5,1923.48,110.38,1923.48,112.41Z"/><ellipse class="cls-3" cx="1881.75" cy="123.57" rx="20.87" ry="9.94"/><path class="cls-3" d="M1922.5,115.42a9.84,9.84,0,0,1-2.5,2.49,18.35,18.35,0,0,1-3.48,1.91v26.62c-9.76-.73-17.54-6.52-18.64-13.82a11.78,11.78,0,0,1-.14-1.79c0-.3,0-.61,0-.91h0a13,13,0,0,1,3.31-7.59c.3-.35.62-.7,1-1a23.15,23.15,0,0,1,14.47-6.07c.69-.05,1.38-.08,2.09-.08.47,0,.93,0,1.39,0C1920.85,115.22,1921.68,115.3,1922.5,115.42Z"/><path class="cls-21" d="M181,582.57q-6,4.66-11.33,8.69l-2.42,1.82-.61.45-1.83,1.36-.57.42-2,1.48-.26.19-1.82,1.32-.5.37h0a44.31,44.31,0,0,0-4.78-5.59l-1.88,1.71-.17.15-1.64,1.48-.32.28L149.41,598l-.45.4-1.23,1.09-.53.46-1.11,1-.58.5-1.06.92-.55.48-3.16,2.7-.7-.44-.28-.17-.33-.2-.33-.19-.19-.11-.33-.18-.11-.06-.17-.09-.12-.06-.08,0-.12-.06-.32-.16c-48.37,29.05-70.65,38.31-75,40l-.81.31,1-.29A143.31,143.31,0,0,1,77.33,641c27.13-4.09,70.05-6.54,70.05-6.54.15-.23.31-.45.45-.68a27.39,27.39,0,0,0,2.14-4l2,.25,4.58.58c6.33.83,10.61,1.5,10.61,1.5a33.27,33.27,0,0,0,1.21-8.61c2.7.1,5.3.21,7.74.32h.17l2.16.1.43,0,1.8.09.51,0,1.59.08.55,0,1.4.08.59,0,1.22.07.56,0,1.1.07.52,0,1,.06.47,0,.83.05.41,0,.71,0,.32,0,.55,0,.29,0,.5,0h.07l.51,0a32.71,32.71,0,0,0,2.37-12.79c0-.68-.07-1.34-.12-2l12.67-3.33h0L212,606l7.44-2s11.54-8.88-.86-16h0a31.9,31.9,0,0,0-4.91-2.22l-7.33,2.85-15,5.84c-.34-.56-.68-1.1-1-1.62A47,47,0,0,0,181,582.57Z"/><path class="cls-20" d="M233.36,597.29a69.2,69.2,0,0,1-8.55,4.5h0c-24.92,10.86-36.73-4.5-36.73-4.5l.92-8.62.34-3.19,1.47-13.79.15-1.44L193,550.68l.79-7.46.13-1.17.51-4.82.15-1.41.47-4.46,1.3-12.2.11-1.1,2.32-21.85,2-18.75h16.53l1.07,8,2.31,17.26,1.93,14.47,1.85,13.84.78,5.85,2,14.69,2.44,18.26,2.49,18.63Z"/><path class="cls-21" d="M230.54,577c-4.18,3.26-14.86,10.62-29.41,10.38a42.94,42.94,0,0,1-11.8-1.87L191,570.23,193,550.68l.79-7.46.13-1.17.51-4.82.15-1.41,5.6-.89,24.29-3.88.78,5.85,2,14.69,2.44,18.26Z"/><path class="cls-25" d="M247.53,509.82s-.42.21-1.2.58c-1.05.49-2.77,1.25-5,2.13A104.33,104.33,0,0,1,230.7,516c-1.65.44-3.4.86-5.22,1.25l-.32.07a84.43,84.43,0,0,1-31.48.88l-.55-.1a66.35,66.35,0,0,1-13.38-3.9,63.84,63.84,0,0,1-7.43-3.63c-.41-.23-.81-.47-1.21-.71,0,0,25.24-46.76,35.45-77.18a81.58,81.58,0,0,0,4.07-16.43q.06-.63.1-1.22s0,.32.11,1C211.56,421.22,216.51,448.2,247.53,509.82Z"/><path class="cls-25" d="M264.31,563.36a185.24,185.24,0,0,1-30.14,6.49c-1.73.24-3.51.46-5.34.66h0a173.94,173.94,0,0,1-42.54-.27A123.07,123.07,0,0,1,159,563.36s8.9-10.56,19.52-24.47l2.17-2.86,0,0c1.75-2.33,3.54-4.73,5.33-7.18,2.32-3.17,4.64-6.41,6.89-9.66l.69-1c10.34-15,19.16-30,19.94-38.43,0,0,.54,4.61,5.6,15.34,1.07,2.28,2.35,4.83,3.87,7.68,2.06,3.86,4.57,8.26,7.61,13.22,3.45,5.61,7.58,11.95,12.55,19.07h0l1.81,2.58q3.59,5.08,7.74,10.67Q258.06,555.4,264.31,563.36Z"/><path class="cls-25" d="M259.32,531.82s-6.16,1.63-16.08,3.22c-3.79.6-8.14,1.2-12.9,1.7l-1.61.16a218.43,218.43,0,0,1-26,1h0c-4-.09-8-.31-12.08-.68q-4.91-.44-9.88-1.2a131.65,131.65,0,0,1-18.61-4.22s4.59-4.35,11-10.85c1.45-1.47,3-3,4.59-4.71l2-2.1c5.28-5.52,11-11.78,16.25-17.95,5.68-6.73,10.7-13.35,13.69-18.75q.83-1.51,1.44-2.88a16,16,0,0,0,1.39-4.54s.33,2.27,3,7.43c1.11,2.16,2.64,4.82,4.71,8q1.77,2.73,4.1,6c4.09,5.7,9.59,12.66,17,21l2,2.2C247.88,519.9,253.2,525.59,259.32,531.82Z"/><path class="cls-21" d="M228.83,570.51a173.94,173.94,0,0,1-42.54-.27A123.07,123.07,0,0,1,159,563.36s10.14-12,21.69-27.32a131.65,131.65,0,0,1-18.61-4.22s4.59-4.35,11-10.85c0,0,8,5.93,13,7.85a52.86,52.86,0,0,1,5.29,2.54c2.13,1.14,4.4,2.43,6.34,3.57,2.76,1.61,4.85,2.9,5,3-.24.09-7.22,2.8-12.87,5.31-3.61,1.6-6.68,3.14-7.1,3.86-.72,1.23,2.39,1.75,6.12,3.59a19.89,19.89,0,0,1,6,4.37c5.35,5.87,9.75,1.15,9.75,1.15s7.7,1.89,9.44,6.13S228.63,570.45,228.83,570.51Z"/><path class="cls-26" d="M243.24,535q4.34,6.23,9.55,13.25a19.89,19.89,0,0,1-5.26,1.63c-5.25.76-12.41-10.34-17.19-13.18a4.54,4.54,0,0,0-1.51-.62l-.24-.06c-1.62-.43-3-2.27-3.91-4.61-.5-1.25-2.67-6.84,0-12.2.19-.39.37-.7.5-.92a6.86,6.86,0,0,0,0-1.06c-.28-4-7.31-4.2-8.44-10.53-.63-3.54-4.33-6.37-5-7.9s3.77-3.89,5.66-3.3a3.06,3.06,0,0,0,1.88-.48,20.31,20.31,0,0,0,2.36-1.45c.93-.65,1.89-1.39,2.76-2.13,1.8-1.52,3.23-3,3.23-3.53,0-1.11-.49-5.39-8.42-9.06h0a35.76,35.76,0,0,0-3.62-1.44,9.39,9.39,0,0,1-4.39-2.88c-4.58-5.64.54-15.68-.21-17.75-.91-2.52,4.37-7.24,5-10.07s-3.46-3.77-6.6-5c-1.42-.57-2.26-4.71-2.76-9.09a81.58,81.58,0,0,0,4.07-16.43l.21-.24c.72,5.25,5.67,32.23,36.69,93.85,0,0-2.28,1.18-6.24,2.71,5.07,5.75,11,12.17,18,19.29C259.32,531.82,253.16,533.45,243.24,535Z"/><path class="cls-21" d="M243.24,514.73l-2,.78a104.32,104.32,0,0,1-10.6,3.44c-1.65.44-3.4.86-5.22,1.25l-.32.07a25.43,25.43,0,0,0-4.16,1.29c-2.81.1-7,.23-12.38.35a71.26,71.26,0,0,1-14.93-.77l-.55-.1c-9.06-1.65-10.35-2.2-11.23-2.73-.27-.16-1-.63-2.14-1.17-.88-.43-1.61-.72-2-.87l2-2.1a20.83,20.83,0,0,1,4.44,1.26c1.19.49,1.21.62,2.26,1.07,2,.86,3.26.93,6.68,1.57,2.69.5,3,.66,4.33.89a32.76,32.76,0,0,0,11.38-.17c2,.08,3.72,0,5,0a74.08,74.08,0,0,0,11.36-1.5l.32-.07c1.83-.38,3.57-.81,5.22-1.25a104.33,104.33,0,0,0,10.6-3.44Z"/><path class="cls-21" d="M245.06,537.63q-2.07.47-4.32.91c-2.23.44-4.58.86-7,1.25l-.43.07a43.09,43.09,0,0,0-5.61,1.3c-3.8.09-9.5.23-16.71.35a129.29,129.29,0,0,1-20.14-.77l-.74-.1c-5.91-.79-9.36-1.34-11.49-1.74l2.17-2.86,0,0,.28.09c2.69.85,4.4.93,9,1.56,3.63.5,4.08.66,5.85.89a59.46,59.46,0,0,0,15.36-.17c2.74.08,5,.05,6.68,0a132.64,132.64,0,0,0,15.32-1.5l.43-.07c2.46-.38,4.82-.81,7-1.25l2.51-.51Z"/><path class="cls-21" d="M108.71,573.06a8.43,8.43,0,0,1-.95,4.27,13.13,13.13,0,0,1-2.82,3.7l-6.19,1.56-2.29.59-10.54,2.67c.07.63.14,1.27.18,1.92a33.88,33.88,0,0,1-1.47,12.16l-.44,0h-.06l-.42-.06-.24,0-.47-.05-.27,0-.6-.07-.35,0-.7-.09-.4,0-.81-.1-.44,0-.93-.11-.47,0L77,599l-.5-.06-1.18-.13-.46,0-1.34-.14-.43,0-1.52-.16-.36,0-1.82-.18-.15,0-6.53-.62a35.18,35.18,0,0,1-.67,8.21s-3.64-.82-9-1.87c-1.21-.24-2.52-.49-3.89-.74l-1.73-.32a24.55,24.55,0,0,1-1.64,3.71c-.11.21-.23.42-.35.63,0,0-24.2.4-45.42,2.09v-9.73c7.76-4.43,17.4-10.22,29.12-17.73q3.31-2.13,6.85-4.44l.28.17.1.06.08,0,.1.06.14.09.1.06.29.19.16.12.29.2.29.2.25.18.6.45q1.25-1.19,2.55-2.46l.44-.43.86-.85L43,575q.44-.45.9-.9l.42-.42,1-1c.12-.13.25-.25.37-.37l1.14-1.16.25-.26q.66-.66,1.32-1.35a1.8,1.8,0,0,0,.14-.14L50,567.87s.48.51,1.25,1.46,1.84,2.33,3,4.09c.13-.11.27-.23.41-.33l1.48-1.2.21-.17L58,570.39l.46-.38L60,568.78l.49-.4,2-1.65c2.91-2.43,6-5,9.19-7.85a48,48,0,0,1,7.12,8.46c.39.59.79,1.2,1.18,1.84s.62,1,.93,1.6l8.52-3.41,3.92-1.57,6.06-2.43c.84.38,1.61.77,2.32,1.16s1.33.78,1.9,1.17C107.22,568.18,108.54,570.74,108.71,573.06Z"/><path class="cls-20" d="M112.15,574.9a52.3,52.3,0,0,1-6.46,3.4h0c-18.84,8.21-27.76-3.4-27.76-3.4l.69-6.52.26-2.41L80,555.54l.12-1.09,1.57-14.78.6-5.64.1-.89.39-3.64.11-1.07.36-3.37,1-9.22.09-.83L86,498.5l1.51-14.17H100l.81,6.07,1.74,13,1.46,10.94,1.4,10.46.59,4.42,1.49,11.1,1.85,13.8,1.88,14.08Z"/><path class="cls-21" d="M110,559.54c-3.16,2.47-11.23,8-22.23,7.84A32.46,32.46,0,0,1,78.88,566l1.22-11.52,1.57-14.78.6-5.64.1-.89.39-3.64.11-1.07,4.23-.67,18.36-2.93.59,4.42,1.49,11.1,1.85,13.8Z"/><path class="cls-25" d="M122.86,508.79l-.91.44c-.8.37-2.09.94-3.81,1.61a78.85,78.85,0,0,1-8,2.6c-1.25.33-2.57.65-3.95.94l-.24.05a63.81,63.81,0,0,1-23.79.66l-.41-.07a50.15,50.15,0,0,1-10.11-2.95A48.25,48.25,0,0,1,66,509.32l-.92-.53s19.08-35.34,26.8-58.33A61.66,61.66,0,0,0,95,438q0-.48.07-.92s0,.24.09.74C95.67,441.82,99.41,462.21,122.86,508.79Z"/><path class="cls-25" d="M135.54,549.25a140,140,0,0,1-22.78,4.9c-1.31.18-2.66.35-4,.5h0a131.47,131.47,0,0,1-32.16-.21A93,93,0,0,1,56,549.25s6.73-8,14.75-18.49l1.64-2.16,0,0c1.33-1.76,2.68-3.58,4-5.43,1.75-2.39,3.5-4.84,5.21-7.3l.52-.76c7.81-11.32,14.48-22.66,15.07-29,0,0,.41,3.48,4.23,11.6.81,1.72,1.78,3.65,2.92,5.8,1.56,2.92,3.45,6.24,5.76,10,2.61,4.24,5.73,9,9.48,14.42h0l1.37,2q2.71,3.84,5.85,8.06Q130.82,543.24,135.54,549.25Z"/><path class="cls-25" d="M131.77,525.41s-4.66,1.23-12.15,2.44c-2.87.46-6.15.91-9.75,1.29l-1.22.12A165.09,165.09,0,0,1,89,530h0c-3-.07-6-.23-9.13-.51q-3.71-.33-7.47-.91a99.5,99.5,0,0,1-14.07-3.19s3.47-3.29,8.32-8.2c1.09-1.11,2.26-2.3,3.47-3.56l1.53-1.59c4-4.17,8.35-8.9,12.28-13.56a96.52,96.52,0,0,0,10.34-14.17q.63-1.14,1.09-2.18a12.08,12.08,0,0,0,1.05-3.43,21.13,21.13,0,0,0,2.26,5.61c.84,1.63,2,3.64,3.56,6.07q1.34,2.06,3.1,4.54c3.09,4.31,7.25,9.57,12.82,15.9l1.48,1.66C123.12,516.41,127.14,520.71,131.77,525.41Z"/><path class="cls-21" d="M108.72,554.66a131.47,131.47,0,0,1-32.16-.21A93,93,0,0,1,56,549.25s7.67-9.09,16.39-20.65a99.5,99.5,0,0,1-14.07-3.19s3.47-3.29,8.32-8.2c0,0,6,4.48,9.8,5.93a40,40,0,0,1,4,1.92c1.61.86,3.32,1.84,4.79,2.7C87.3,529,88.88,530,89,530c-.18.07-5.46,2.11-9.73,4-2.73,1.21-5,2.37-5.36,2.92-.54.93,1.81,1.32,4.62,2.72A15,15,0,0,1,83,543c4,4.44,7.37.87,7.37.87s5.82,1.43,7.13,4.64S108.57,554.61,108.72,554.66Z"/><path class="cls-26" d="M119.62,527.85q3.28,4.71,7.22,10a15,15,0,0,1-4,1.23c-4,.57-9.38-7.81-13-10a3.43,3.43,0,0,0-1.14-.47l-.18,0c-1.23-.32-2.25-1.72-3-3.49-.38-.95-2-5.17,0-9.22.14-.29.28-.53.38-.69a5.19,5.19,0,0,0,0-.8c-.21-3-5.53-3.17-6.38-8-.48-2.67-3.27-4.81-3.8-6s2.85-2.94,4.28-2.5a2.31,2.31,0,0,0,1.42-.36,15.35,15.35,0,0,0,1.78-1.09c.7-.49,1.43-1.05,2.09-1.61,1.36-1.15,2.44-2.27,2.44-2.67,0-.84-.37-4.08-6.36-6.85h0a27,27,0,0,0-2.74-1.09,7.09,7.09,0,0,1-3.32-2.18c-3.46-4.26.41-11.85-.16-13.42-.69-1.9,3.31-5.47,3.78-7.61s-2.61-2.85-5-3.8c-1.07-.43-1.71-3.56-2.09-6.87A61.66,61.66,0,0,0,95,438l.16-.18c.54,4,4.29,24.36,27.73,70.93,0,0-1.73.89-4.71,2,3.83,4.35,8.34,9.2,13.63,14.58C131.77,525.41,127.11,526.65,119.62,527.85Z"/><path class="cls-21" d="M119.62,512.49l-1.48.59a78.84,78.84,0,0,1-8,2.6c-1.25.33-2.57.65-3.95.94l-.24.05a19.22,19.22,0,0,0-3.14,1c-2.13.07-5.32.17-9.36.27a53.86,53.86,0,0,1-11.29-.58l-.41-.07c-6.84-1.24-7.82-1.66-8.49-2.06-.21-.12-.78-.48-1.62-.89-.66-.32-1.22-.54-1.53-.66l1.53-1.59A15.74,15.74,0,0,1,75,513c.9.37.92.47,1.71.81a21.42,21.42,0,0,0,5,1.18c2,.38,2.29.5,3.28.67a24.76,24.76,0,0,0,8.6-.13c1.53.06,2.81,0,3.74,0a56,56,0,0,0,8.58-1.13l.24-.05c1.38-.29,2.7-.61,3.95-.94a78.85,78.85,0,0,0,8-2.6Z"/><path class="cls-21" d="M121,529.8q-1.56.35-3.26.69c-1.68.33-3.46.65-5.32.94l-.33.05a32.57,32.57,0,0,0-4.24,1c-2.87.07-7.18.17-12.63.27A97.72,97.72,0,0,1,80,532.15l-.56-.07c-4.46-.6-7.08-1-8.69-1.31l1.64-2.16,0,0,.21.07a37.75,37.75,0,0,0,6.81,1.18c2.74.38,3.08.5,4.42.67a44.94,44.94,0,0,0,11.61-.13c2.07.06,3.8,0,5,0a100.25,100.25,0,0,0,11.58-1.13l.33-.05c1.86-.29,3.64-.61,5.32-.94l1.9-.39Z"/><path class="cls-21" d="M130.44,656.68q-4.62,5.86-8.81,10.93l-1.9,2.29-.47.57-1.44,1.71-.45.53-1.58,1.86-.2.24-1.44,1.67-.4.46h0a66.74,66.74,0,0,0-6.09-6.55l-1.39,2.14-.12.19-1.21,1.85-.23.35-1.05,1.58-.34.5-.92,1.37L102,679l-.83,1.22-.43.63-.8,1.16-.41.6q-1.22,1.75-2.38,3.39l-.79-.5-.32-.2-.37-.23-.37-.22-.22-.13-.37-.21-.12-.07-.19-.1-.13-.07-.09,0-.14-.07-.35-.18c-39.66,37-59,49-62.8,51.27l-.71.4.95-.39a102.52,102.52,0,0,1,13.37-3.94c25.37-6,66.55-10.69,66.55-10.69.09-.28.18-.56.26-.84a31.33,31.33,0,0,0,1.07-4.87l2.05.22,4.61.51c6.38.75,10.72,1.39,10.72,1.39a49.2,49.2,0,0,0-1-10.44c2.66,0,5.22,0,7.62.07h.17l2.13,0H139l1.77,0h.51l1.57,0h.54l1.38,0,.59,0,1.21,0,.55,0,1.08,0,.52,0,1,0,.47,0,.82,0,.41,0,.71,0h.32l.55,0h.28l.49,0h.07l.51,0a47.12,47.12,0,0,0-1-15.53c-.19-.82-.41-1.62-.63-2.41l11.49-4.52h0l2.5-1,6.74-2.66s9-11.17-4.93-19.23h0a35.38,35.38,0,0,0-5.35-2.49l-6.41,3.73-13.15,7.65c-.47-.66-.95-1.3-1.42-1.92A69.35,69.35,0,0,0,130.44,656.68Z"/><path class="cls-20" d="M177,674.71a76.79,76.79,0,0,1-9.49,5h0c-27.65,12.06-40.75-5-40.75-5l1-9.57.38-3.54,1.63-15.31.17-1.6,2.3-21.69.88-8.28.14-1.3.57-5.35.17-1.57.52-5L136,588l.13-1.22,2.57-24.24,2.21-20.81h18.34l1.19,8.91L163,569.79l2.15,16.06,2.05,15.36.87,6.49,2.18,16.3,2.71,20.26,2.76,20.67Z"/><path class="cls-21" d="M173.89,652.16c-4.64,3.62-16.49,11.79-32.63,11.52a47.65,47.65,0,0,1-13.09-2.08l1.8-16.91,2.3-21.69.88-8.28.14-1.3.57-5.35.17-1.57,6.22-1,27-4.3.87,6.49,2.18,16.3,2.71,20.26Z"/><path class="cls-25" d="M192.74,577.65s-.46.24-1.33.64c-1.17.54-3.07,1.39-5.59,2.36a115.77,115.77,0,0,1-11.76,3.82c-1.83.49-3.77,1-5.8,1.38l-.36.08a93.69,93.69,0,0,1-34.93,1l-.61-.11a73.63,73.63,0,0,1-14.85-4.33,70.84,70.84,0,0,1-8.25-4c-.45-.25-.9-.52-1.35-.79,0,0,28-51.89,39.34-85.65,2.38-7.09,4-13.39,4.52-18.23q.07-.7.11-1.35s0,.35.13,1.08C152.82,479.32,158.32,509.26,192.74,577.65Z"/><path class="cls-25" d="M211.37,637.06a205.57,205.57,0,0,1-33.44,7.2c-1.92.26-3.9.51-5.93.73h0a193,193,0,0,1-47.21-.3,136.57,136.57,0,0,1-30.23-7.63s9.88-11.72,21.66-27.15l2.41-3.17,0,0c1.95-2.58,3.93-5.25,5.92-8,2.57-3.51,5.15-7.11,7.65-10.72l.76-1.11c11.47-16.63,21.26-33.27,22.13-42.65,0,0,.6,5.11,6.21,17,1.19,2.53,2.61,5.36,4.29,8.52,2.29,4.28,5.07,9.16,8.45,14.67,3.83,6.22,8.41,13.26,13.93,21.17h0l2,2.86q4,5.64,8.59,11.84Q204.43,628.23,211.37,637.06Z"/><path class="cls-25" d="M205.83,602.06S199,603.87,188,605.63c-4.21.67-9,1.33-14.32,1.89l-1.79.18A242.4,242.4,0,0,1,143,608.82h0c-4.39-.1-8.87-.34-13.41-.75q-5.45-.49-11-1.33A146.09,146.09,0,0,1,98,602.06s5.09-4.83,12.21-12c1.61-1.63,3.32-3.38,5.1-5.22l2.25-2.33c5.86-6.13,12.26-13.07,18-19.91,6.31-7.47,11.88-14.82,15.19-20.81q.93-1.67,1.6-3.2a17.74,17.74,0,0,0,1.54-5s.37,2.52,3.32,8.24c1.24,2.39,2.93,5.35,5.23,8.91q2,3,4.55,6.66c4.54,6.32,10.64,14.05,18.82,23.34l2.17,2.44C193.13,588.83,199,595.15,205.83,602.06Z"/><path class="cls-21" d="M172,645a193,193,0,0,1-47.21-.3,136.57,136.57,0,0,1-30.23-7.63s11.26-13.35,24.07-30.32A146.09,146.09,0,0,1,98,602.06s5.09-4.83,12.21-12c0,0,8.86,6.58,14.39,8.71a58.66,58.66,0,0,1,5.87,2.82c2.36,1.26,4.88,2.7,7,4,3.06,1.79,5.38,3.22,5.52,3.31-.27.1-8,3.1-14.28,5.89-4,1.78-7.41,3.48-7.87,4.29-.8,1.37,2.65,1.94,6.79,4a22.07,22.07,0,0,1,6.65,4.85c5.94,6.51,10.82,1.28,10.82,1.28s8.55,2.09,10.47,6.81S171.77,644.92,172,645Z"/><path class="cls-26" d="M188,605.63q4.81,6.91,10.6,14.71a22.07,22.07,0,0,1-5.84,1.81c-5.83.84-13.77-11.47-19.07-14.62a5,5,0,0,0-1.68-.69l-.26-.06c-1.8-.48-3.3-2.52-4.33-5.12-.55-1.39-3-7.59,0-13.53.21-.43.41-.78.55-1a7.62,7.62,0,0,0,0-1.17c-.31-4.4-8.12-4.66-9.37-11.68-.7-3.93-4.8-7.07-5.58-8.77s4.18-4.32,6.28-3.66a3.4,3.4,0,0,0,2.08-.53,22.53,22.53,0,0,0,2.62-1.61c1-.72,2.09-1.54,3.06-2.36,2-1.69,3.58-3.34,3.58-3.92,0-1.23-.54-6-9.34-10.05h0a39.69,39.69,0,0,0-4-1.6,10.42,10.42,0,0,1-4.87-3.2c-5.08-6.26.6-17.4-.23-19.7-1-2.8,4.85-8,5.55-11.17s-3.84-4.19-7.33-5.58c-1.58-.63-2.51-5.22-3.06-10.09,2.38-7.09,4-13.39,4.52-18.23l.24-.27c.8,5.82,6.29,35.76,40.71,104.14,0,0-2.53,1.31-6.92,3,5.63,6.38,12.24,13.5,20,21.41C205.83,602.06,199,603.87,188,605.63Z"/><path class="cls-21" d="M188,583.09l-2.17.86a115.76,115.76,0,0,1-11.76,3.82c-1.83.49-3.77,1-5.8,1.38l-.36.08a28.22,28.22,0,0,0-4.62,1.44c-3.12.11-7.81.25-13.74.39A79.08,79.08,0,0,1,133,590.2l-.61-.11c-10-1.83-11.48-2.44-12.47-3-.3-.18-1.14-.7-2.38-1.3-1-.47-1.78-.79-2.25-1l2.25-2.33a23.11,23.11,0,0,1,4.93,1.4c1.32.54,1.34.69,2.51,1.19,2.21,1,3.62,1,7.41,1.74,3,.55,3.36.73,4.81,1a36.36,36.36,0,0,0,12.63-.19c2.25.09,4.13.06,5.5,0a82.21,82.21,0,0,0,12.6-1.66l.36-.08c2-.42,4-.9,5.8-1.38a115.77,115.77,0,0,0,11.76-3.82Z"/><path class="cls-21" d="M190,608.5q-2.29.52-4.79,1c-2.47.49-5.08,1-7.82,1.38l-.48.08a47.81,47.81,0,0,0-6.23,1.44c-4.21.1-10.54.25-18.54.39a143.48,143.48,0,0,1-22.35-.86l-.82-.11c-6.55-.88-10.39-1.48-12.75-1.93l2.41-3.17,0,0,.31.1c3,.95,4.88,1,10,1.73,4,.55,4.53.73,6.49,1a66,66,0,0,0,17-.19c3,.09,5.58.06,7.41,0a147.19,147.19,0,0,0,17-1.66l.48-.08c2.73-.42,5.35-.9,7.82-1.38l2.79-.57Z"/><path class="cls-18" d="M1445.48,922.14,1414,970H1287.33l113-55.43C1412.73,908.47,1445.48,922.14,1445.48,922.14Z"/><path class="cls-27" d="M1319.33,585c-1,0-33.79,2.43-33.79,2.43s7.85-20.09-19.44-52.38c0,0,9.5-1.1,21.22,5h0c9.82,5.11,21.21,15.28,29.85,35.4a75.52,75.52,0,0,1,2.29,8.31C1319.57,584.53,1319.56,585,1319.33,585Z"/><path class="cls-28" d="M1319.47,583.79l-5-1.71s-8.68-4.64-7.91-8.43.33-2.45,0-6.48a4.73,4.73,0,0,0-.78-2.5,12.1,12.1,0,0,0-4-3.47c-6.33-3.17-8.19-2.32-9.74-4.35-1.33-1.73,0-2.34-1.07-7.29,0,0-.43-1.89-3.62-9.49,9.82,5.11,21.21,15.28,29.85,35.4A75.52,75.52,0,0,1,1319.47,583.79Z"/><path class="cls-27" d="M1274.07,599.22,1271,609.43l-5.62,18.74c-22.52-16.21-23.6-49.81-23.6-49.81a30.11,30.11,0,0,0,5.73,6.41h0C1257.87,593.8,1274.07,599.22,1274.07,599.22Z"/><path class="cls-29" d="M1387.63,746.32a64.31,64.31,0,0,1-3.52,9.55,93,93,0,0,1-7.06,12.71l-27.36,30.33-27.08,30-11.29,12.52c-32.43,2.82-28.71-34-28.71-34l13.55-17.81h0l13.69-18,5-6.52,5.38-7.08,31.61-41.51s10-2.3,29.43,7.69C1389.72,728.56,1390,737.55,1387.63,746.32Z"/><path class="cls-30" d="M1322.61,828.93l-11.29,12.52c-32.44,2.83-28.72-34-28.72-34l13.56-17.81S1296.77,814.6,1322.61,828.93Z"/><path class="cls-29" d="M1464.61,840.92l-1.78,7.55-2.38,10.13-11.68,49.61-3.29,13.94c-19.36,11.79-33-.29-38.84-7.57a35.57,35.57,0,0,1-3.25-4.67l2.52-18.77h0l9.31-69.25,1-7.79s6.26-5.06,24.2-6.76c1.58-.16,3.25-.28,5-.37,13-.68,17.3,11.48,18.65,21.45A66.12,66.12,0,0,1,1464.61,840.92Z"/><path class="cls-30" d="M1448.77,908.2l-3.29,13.94c-19.36,11.79-33-.29-38.84-7.57a35.57,35.57,0,0,1-3.25-4.67l2.52-18.77a38.52,38.52,0,0,0,9,7.93C1421.85,903.71,1433,908.61,1448.77,908.2Z"/><path class="cls-28" d="M1274.07,599.22,1271,609.43l-2.58,2.13s-4,2.9-5.79,2-4.86-1.63-6.52-4.28,1.34-8.72,0-10.06-7.36,0-8.6-2.33-.05-11.71,0-12.12C1257.87,593.8,1274.07,599.22,1274.07,599.22Z"/><path class="cls-31" d="M1545.67,778.74s-10.92,61-74.64,69.25c-.88.11-1.77.2-2.64.28a52.38,52.38,0,0,1-5.57.19c-20.23-.31-35.85-11.81-47.61-26.6-21.7-27.24-30.29-65.6-30.29-65.6l-.82-.4c-1.12-.58-2.48-1.28-4-2.13-40.79,31-65.21,11.43-65.21,11.43s0,0-.07-.07c-11.87-9.85-18.57-19.1-22.11-27.35a0,0,0,0,1,0,0h0a38.67,38.67,0,0,1,1.15-34.28c2.65-5.35-2.61-11.92-12.66-30.13l-.32-.58h0c-3-5.36-6.3-11.72-10-19.33-.74-1.54-1.39-3.06-2-4.56-.11-.32-.23-.63-.33-.94a52.33,52.33,0,0,1-3.17-19.71,57.33,57.33,0,0,1,2.68-15.44h0c.11-.39.23-.78.35-1.18a53.19,53.19,0,0,1,5.54-12.38c.52-.84,1.08-1.7,1.69-2.56a53.06,53.06,0,0,1,4-5,30.25,30.25,0,0,1,2.68-2.46,27.7,27.7,0,0,1,3.42-2.39c7.17-4.33,15.55-5.36,22.93-5.11h0l1.5.07,1.46.09,1.42.13h0l1.35.15c.59.07,1.16.15,1.73.23l1.58.24c.52.08,1,.17,1.51.27,1.67.29,3.16.62,4.4.9a50.39,50.39,0,0,1,5.57,1.69l.11,0c.63.23,1.27.47,1.94.74.84.33,1.73.68,2.62,1.07s1.75.75,2.66,1.18l1.24.56c.76.35,1.54.72,2.33,1.1s1.59.78,2.39,1.18,1.62.8,2.45,1.23l2.37,1.23.15.08,2.11,1.12c1.43.76,2.88,1.55,4.33,2.35l4.68,2.64c1.14.66,2.29,1.31,3.44,2,5.5,3.2,11.08,6.6,16.51,10,.8.5,1.61,1,2.39,1.5l2,1.27c21.39,13.57,39.49,26.36,39.49,26.36l2.34,1.59c31.52,21.46,46.2,38.61,46.2,38.61a169.25,169.25,0,0,1,74.64,97.52Z"/><ellipse class="cls-30" cx="1324.07" cy="725.51" rx="10.91" ry="12.92"/><circle class="cls-30" cx="1352.34" cy="706.14" r="12.49"/><path class="cls-32" d="M1424.83,642.62l-15.35,4.64s-5.15,0-9.19,0-25-22.54-25-22.54-9.78-20.79-22.94-23.64c-13-2.81-42.87-19-43.65-19.44a79.23,79.23,0,0,1,15,2.07c13.2,3.06,37.91,17.39,59.32,31S1422.49,641,1422.49,641Z"/><ellipse class="cls-33" cx="1297.09" cy="661.29" rx="18.22" ry="20.87" transform="translate(-87.69 1110.87) rotate(-45)"/><ellipse class="cls-33" cx="1329.45" cy="639.83" rx="22.89" ry="28.27"/><circle class="cls-30" cx="1329.45" cy="641.55" r="7.26"/><circle class="cls-30" cx="1297.09" cy="661.29" r="7.26"/><path class="cls-30" d="M1339,753.39c15.48-4.23,31.88-8.87,43.4-20.75,12.43-12.82,12.31-30.28,11.31-47,0-.65-3-.13-2.9.78.92,15.26,1.42,31.64-9,44-10.8,12.88-27.53,17.58-43.11,21.84-1.69.46-1.43,1.55.29,1.08Z"/><path class="cls-34" d="M1409.89,753.76s25.46-8.92,33.74,7.53,21.48,14.54,19.85,29.47c-1.1,10.1-16.71,16.87-29.2,16.08A32.56,32.56,0,0,1,1409,791.53a31.57,31.57,0,0,1-3.35-8C1402.14,770.49,1407.34,758.67,1409.89,753.76Z"/><path class="cls-34" d="M1289.83,628.11c-2.76,4.23-10,15.34-16.44,13.54-5.65-1.58-7.08-12.17-7.23-13.37a36.94,36.94,0,0,1,2.15-14.64,45.53,45.53,0,0,1,1.72-4.31c.46-1,.93-1.92,1.4-2.78a57.71,57.71,0,0,1,11.11-16.33c1.48.74,12,6.22,13.9,17.36C1297.87,615.81,1293.74,622.12,1289.83,628.11Z"/><path class="cls-34" d="M1355.45,628.11s13.11,28.88,37,25.92-13.51-40.46-20.46-40.46S1355.45,620.07,1355.45,628.11Z"/><path class="cls-31" d="M1277.86,683.85c-6.74,7.39-22.1,4.63-22.1,4.63-3.12-16.31,1.62-26.93,6.25-33a28,28,0,0,1,6.89-6.64h0l11.95,23.89h0C1281.38,677.86,1280.09,681.42,1277.86,683.85Z"/><path class="cls-35" d="M1271.7,658.16s-9.21,5.5-6.51,19.65c0,0,13.48,2.42,12.43-7.81Z"/><path class="cls-31" d="M1367.4,575.39a41.85,41.85,0,0,1-4.11,8.13,42.66,42.66,0,0,1-11.91,12.05l-3.88-1.78-.15-.08c-10.53-4.83-15.59-7.16-18-8.28l-.11,0-2.14-1c-2.72-1.89-4.11-3.84-4.2-5.86q-.28-6.94,20.26-14.8a272.87,272.87,0,0,1,26.84-8.36A45.7,45.7,0,0,1,1367.4,575.39Z"/><path class="cls-35" d="M1346.8,592.84a22.83,22.83,0,0,0,6.39-6.46,23.86,23.86,0,0,0,3.59-15.08c-1.18.14-24.84,3.11-25.47,10.67-.09,1.13.29,2.76,2.49,4.88Z"/><path class="cls-36" d="M1468.4,848.27a27.41,27.41,0,0,1-7.95,10.31,48.84,48.84,0,0,1-11.68,7.16c-9.65,4.24-27.71,7.81-26.37,13.61.59,2.57-3.16,11.05-7.52,19.71-2.84,5.63-5.93,11.32-8.24,15.51a35.57,35.57,0,0,1-3.25-4.67l2.52-18.77h0l9.31-69.25c-21.7-27.24-30.29-65.6-30.29-65.6l-.82-.4a93,93,0,0,1-7.06,12.71l-27.36,30.33c-9.3-8.21-20-16.11-25.62-14.77-4,1-9.2-4.78-14.21-12.52l5-6.52c-11.87-9.85-18.57-19.1-22.11-27.35a0,0,0,0,1,0,0c.59.48,15.28,12.59,27.51,20.31a67.62,67.62,0,0,0,9.26,5.06c12.44,5.23,36.34-6.56,36.34-6.56l21.83-10.21,2.62-1.23s6.06-5.54,7.4-10.45-4.47,29.22-1.79,32.34,14.94,21.18,20.07,23.64c2.33,1.11,13.19,8.09,24.54,16.71,8.86,6.7,18,14.4,23.67,21.07,3.1,3.65,5.15,7,5.54,9.71A19.13,19.13,0,0,1,1468.4,848.27Z"/><path class="cls-34" d="M1463.48,729.52l12.15-10.9s33.3-7.65,28.32,19.81-10.72,37.34-17.61,33.17S1458.6,738.69,1463.48,729.52Z"/><path class="cls-30" d="M1312.16,764.29c22.34,11.32,52.12,9.79,70.3-8.49,1.2-1.21-1.63-1.22-2.33-.52-17.1,17.2-44.72,18.19-65.67,7.58-.87-.44-3.52.81-2.3,1.43Z"/><path class="cls-30" d="M1383.33,756.66c5-7.1,14.77-9.83,16.67-19.08.28-1.37-2.67-1-2.93.25-1.77,8.61-11.79,11.8-16.5,18.55-.88,1.25,2.07,1.26,2.76.28Z"/><path class="cls-32" d="M1367.4,575.39c-6.85-1.84-9.5-4.7-10.62-7.09-.73-1.56-.66-2.64-1.67-3.76-2.42-2.69-7.68-1.94-12-.79a272.87,272.87,0,0,1,26.84-8.36A45.7,45.7,0,0,1,1367.4,575.39Z"/><path class="cls-36" d="M1280.85,672.72c.52,5.14-.76,8.7-3,11.13-2.56-1.79-5.5-4-7.72-5.87a24.45,24.45,0,0,1-2.27-2.14,16.82,16.82,0,0,1-3-5.7,62.62,62.62,0,0,1-2.85-14.69,28,28,0,0,1,6.89-6.64c-.11-.32-.23-.63-.33-.94l1.93-.62,7.12,9.45,1.08,1.44,1.86,11.29h0l.63,3.84Z"/><path class="cls-18" d="M1676.56,927.08,1627.82,970H1474.66l13-17.29,19.27-25.63Z"/><path class="cls-20" d="M1676.56,929.56a284.47,284.47,0,0,1-31.94,13.58h0c-93.1,32.83-137.21-13.6-137.21-13.6l3.42-26.06,6.74-51.33,11.75-89.51,2.47-18.81,23.15-176.33h61.76l26.77,161.92,10.26,62,18.43,111.45Z"/><path class="cls-21" d="M1664.62,857.36c-8.95,4.58-22.69,11.81-39.17,21.31-32.9,19-42,27-61,34.58-12.4,5-31.11,10.56-56.42,11.4l21.27-162,2.47-18.81,111.68-14.41,10.26,62Z"/><path class="cls-22" d="M1779.52,680.19a179.61,179.61,0,0,1-14.07,70.5c-20.2,47.32-60.09,79.52-106,79.52a99.93,99.93,0,0,1-49.06-13.06c-21.05,21.82-48.49,35-78.51,35-2.24,0-4.45-.07-6.66-.23h0c-63.22-4.13-113.42-66.88-113.42-143.68,0-31.09,8.22-59.88,22.22-83.4a160.56,160.56,0,0,1-11.87-37.79,170.71,170.71,0,0,1-2.87-31.33c0-79.46,53.77-143.89,120.09-143.89a101.33,101.33,0,0,1,24.15,2.91c21-29.36,48.21-47.09,78-47.09,19,0,37,7.24,53,20.13h0c39.77,32.06,67.12,99.08,67.12,176.57a320.45,320.45,0,0,1-1.74,33.44C1772.26,621.47,1779.52,649.77,1779.52,680.19Z"/><path class="cls-23" d="M1776.31,680.67a179.61,179.61,0,0,1-14.07,70.5c-11.33-.07-38.56,29.31-42.83,16.48s12.12-52.74,16.39-58.9c2.71-3.88,1.94-14.4-2.74-23.19-2.71-5.13-6.77-9.68-12.23-12-14.84-6.27-32.78-62-32.78-62-15.68,23.52-36.35,8.55-36.35,8.55l39.5-63.89s-26-10.95-63.73,14.71c-14,9.49-31.47,3.56-44.8-8.87-22.68-21.15-33.27-61.13,6.1-75.94,62.52-23.52,65.07,16.39,80.18,12.83s14.11-41.34,4.4-74.83,17.85-35.85,17.85-35.85h0c39.77,32.06,67.12,99.08,67.12,176.57a320.45,320.45,0,0,1-1.74,33.44C1769.06,621.94,1776.31,650.25,1776.31,680.67Z"/><path class="cls-24" d="M1527.34,849.81h0c-63.22-4.13-113.42-66.88-113.42-143.68,0-31.09,8.22-59.88,22.22-83.4a160.56,160.56,0,0,1-11.87-37.79c.67.74,44.06,49,60.32,51.8s20,34.92,20,34.92-20,38.48-17.1,51.31,39.91,36.09,39.91,36.09S1552.29,841.23,1527.34,849.81Z"/><path class="cls-18" d="M1233.63,947.47,1218.79,970H1127.1l61.35-30.1C1200.88,933.8,1233.63,947.47,1233.63,947.47Z"/><path class="cls-4" d="M1284.14,305.06a85.22,85.22,0,0,1-10.47,40.62c-21.81,40.61-75.37,69.32-138,69.32-47.9,0-90.49-16.81-117.64-42.89C986.36,390.49,941,402,890.6,402c-37,0-71.23-6.2-99.37-16.75a137.85,137.85,0,0,1-43.45,6.89c-60.38,0-109.32-37.54-109.32-83.85a65.66,65.66,0,0,1,3.2-20.23,70.76,70.76,0,0,1,6.07-13.59,78.26,78.26,0,0,1,7.8-11.18C635.42,244.86,623,219.5,623,191.5a93.2,93.2,0,0,1,5.4-31.32c14.53-41,56.83-70.62,106.75-70.62a120.47,120.47,0,0,1,55.33,13.25c22.14-14,58.16-23.19,98.84-23.19,38.45,0,72.73,8.17,95.07,20.93a112.73,112.73,0,0,1,58.35-16c58,0,105,42.39,105,94.69a85.86,85.86,0,0,1-1.52,16.12C1223.29,199.39,1284.14,247,1284.14,305.06Z"/><path class="cls-3" d="M214.4,330.66c12.89,13.66,38.73,23,68.51,23,26.29,0,49.49-7.27,63.45-18.37,9.47,6.57,23.19,10.71,38.47,10.71,28.57,0,51.74-14.48,51.74-32.34,0-6-2.62-11.63-7.19-16.45,16.5-4.85,27.52-13.64,27.52-23.69,0-6.64-4.81-12.73-12.83-17.49a16,16,0,0,1,3.83,10c0,10-11,18.84-27.52,23.69,4.57,4.82,7.19,10.44,7.19,16.45,0,17.86-23.17,32.34-51.74,32.34-15.28,0-29-4.14-38.47-10.71-14,11.1-37.16,18.37-63.45,18.37C250,346.15,228.57,340.12,214.4,330.66Z"/><path class="cls-4" d="M205.67,310.9c0,7.13,3.15,13.85,8.73,19.76,14.17,9.46,35.57,15.49,59.51,15.49,26.29,0,49.49-7.27,63.45-18.37,9.47,6.57,23.19,10.71,38.47,10.71,28.57,0,51.74-14.48,51.74-32.34,0-6-2.62-11.63-7.19-16.45,16.5-4.85,27.52-13.64,27.52-23.69a16,16,0,0,0-3.83-10c-10.45-6.22-26.35-10.19-44.16-10.19-23.14,0-43.05,6.7-52,16.32A76.66,76.66,0,0,0,322.49,258c-14.87,0-28.27,3.93-37.71,10.21-.62,0-1.24,0-1.87,0C240.25,268.15,205.67,287.29,205.67,310.9Z"/><path class="cls-4" d="M196.67,303.4c0,10.36,6.65,19.86,17.73,27.26,14.17,9.46,35.57,15.49,59.51,15.49,26.29,0,49.49-7.27,63.45-18.37,9.47,6.57,23.19,10.71,38.47,10.71,28.57,0,51.74-14.48,51.74-32.34,0-6-2.62-11.63-7.19-16.45,16.5-4.85,27.52-13.64,27.52-23.69a16,16,0,0,0-3.83-10c-8.25-10.35-28.94-17.69-53.16-17.69-23.14,0-43.05,6.7-52,16.32a76.66,76.66,0,0,0-25.44-4.18c-14.87,0-28.27,3.93-37.71,10.21-.62,0-1.24,0-1.87,0C231.25,260.65,196.67,279.79,196.67,303.4Z"/><ellipse class="cls-3" cx="288.08" cy="281.09" rx="20.87" ry="9.94"/><ellipse class="cls-3" cx="308.95" cy="292.24" rx="20.87" ry="9.94"/><ellipse class="cls-3" cx="272.08" cy="299.5" rx="20.87" ry="15.69"/><path class="cls-3" d="M1273.67,345.68c-16.5,47.39-74.62,82.41-143.77,82.41-47.89,0-90.49-16.8-117.63-42.88-31.7,18.38-77.06,29.89-127.45,29.89-37,0-71.23-6.2-99.38-16.75A137.85,137.85,0,0,1,742,405.24c-60.37,0-109.32-37.54-109.32-83.85a67.28,67.28,0,0,1,9-33.33,65.66,65.66,0,0,0-3.2,20.23c0,46.31,48.94,83.85,109.32,83.85a137.85,137.85,0,0,0,43.45-6.89C819.37,395.8,853.63,402,890.6,402c50.39,0,95.76-11.51,127.45-29.89,27.15,26.08,69.74,42.89,117.64,42.89C1198.3,415,1251.86,386.29,1273.67,345.68Z"/><path class="cls-3" d="M655.53,263.29a78.26,78.26,0,0,0-7.8,11.18c-18.92-18.24-30.51-42.82-30.51-69.87a93.91,93.91,0,0,1,11.18-44.42A93.2,93.2,0,0,0,623,191.5C623,219.5,635.42,244.86,655.53,263.29Z"/><path class="cls-3" d="M773.87,184.44a33.91,33.91,0,0,0-8.59-13.11c-.37-.35-.75-.7-1.14-1h0a32.54,32.54,0,0,0-4.3-3.15,33.84,33.84,0,0,0-42.38,5.59l-.28.3a33.8,33.8,0,0,0-7.65,13.63h0a33.86,33.86,0,0,0,27.63,42.72,33.29,33.29,0,0,0,4.92.36,33.8,33.8,0,0,0,31.23-20.84,7.8,7.8,0,0,1-4.87,1.34c-3,0-5.46-1.08-5.46-2.42s2.45-2.41,5.46-2.41c2.8,0,5.1.93,5.42,2.12a34.16,34.16,0,0,0,2-11.61A33.58,33.58,0,0,0,773.87,184.44Zm-24,26.84c-2.49,0-4.5-1.17-4.5-2.62s2-2.63,4.5-2.63,4.5,1.18,4.5,2.63S752.36,211.28,749.87,211.28Zm1.83-24.46a4.22,4.22,0,1,1-3.58,4.17A3.92,3.92,0,0,1,751.7,186.82ZM736,191a3.62,3.62,0,1,1-3.58-4.17A3.91,3.91,0,0,1,736,191Z"/><path class="cls-3" d="M727.94,189.79s-16-23.5-15-29,2.87-11.17,5.1-9.83-1.48,7.33,2.38,12.67c7,9.66,13.75,20,13.19,20.5s-6.21-6-7.9-5C724.43,180,725.94,184.77,727.94,189.79Z"/><path class="cls-3" d="M754.62,184.49a3.07,3.07,0,0,0,2.56.76c1.29-.42,1.71-2.34,1.86-3,1.73-7.13,8.7-10.63,8.52-18.88-.1-4.67-2.47-10-4.44-10a1.28,1.28,0,0,0-.66.2c-2.23,1.33,1.48,7.33-2.38,12.67,0,0-1.87,7.36-9.59,14.94a16.6,16.6,0,0,0-2.51,3.21c-.78,1.18-1.35,2-1.09,2.35S749,186,752.54,185C753.42,184.74,754.15,184.59,754.62,184.49Z"/><path class="cls-3" d="M764.11,170.28a46.33,46.33,0,0,1,20.39,8.46c9.63,7.25-.87,6.25-.87,6.25s-8.62-.72-9.75-.55-11.13-5.7-11.13-5.7Z"/><path class="cls-3" d="M718,172.9a46.33,46.33,0,0,0-20.39,8.46c-9.62,7.25.88,6.25.88,6.25s8.62-.72,9.75-.55,11.13-5.7,11.13-5.7Z"/><path class="cls-3" d="M775.09,203.16c-5.71-4.81-15.58-8-26.79-8-17.67,0-32,7.91-32,17.66,0,7.59,8.66,14.06,20.82,16.56a55.21,55.21,0,0,0,11.17,1.11c17.66,0,32-7.91,32-17.67C780.29,209.26,778.38,205.94,775.09,203.16ZM749.87,206c2.49,0,4.5,1.18,4.5,2.63s-2,2.62-4.5,2.62-4.5-1.17-4.5-2.62S747.38,206,749.87,206Zm18.54,4.21c-3,0-5.46-1.08-5.46-2.42s2.45-2.41,5.46-2.41c2.8,0,5.1.93,5.42,2.12-.18.46-.36.92-.55,1.37A7.8,7.8,0,0,1,768.41,210.24Z"/><path class="cls-3" d="M773.87,207.82a1.41,1.41,0,0,1-.59,1.08c.19-.45.37-.91.55-1.37A1,1,0,0,1,773.87,207.82Z"/><path class="cls-4" d="M736,217.64a37.31,37.31,0,0,0,23.67,5.5s-6.17,4.33-23.67-2.33c0,0-5.91-2.92-7.16-4.71s2.58-1,2.58-1Z"/><ellipse class="cls-3" cx="1055.87" cy="120.24" rx="16.75" ry="9.25"/><circle class="cls-3" cx="1083.69" cy="142.8" r="22.56"/><ellipse class="cls-3" cx="1060.12" cy="134.49" rx="15" ry="11.5"/><ellipse class="cls-3" cx="1136.62" cy="379.99" rx="43.5" ry="15.5"/><ellipse class="cls-3" cx="1173.87" cy="358.26" rx="37.25" ry="18.23"/><ellipse class="cls-3" cx="1137.44" cy="363.47" rx="19.32" ry="10.98"/><circle class="cls-3" cx="736.23" cy="349.28" r="21.29"/><ellipse class="cls-3" cx="767.45" cy="332.24" rx="25.4" ry="17.05"/><ellipse class="cls-3" cx="765.3" cy="353.85" rx="23.26" ry="13.83"/><ellipse class="cls-3" cx="807.5" cy="88.31" rx="75.13" ry="13.68"/><ellipse class="cls-3" cx="756.96" cy="107.82" rx="76.34" ry="29.77"/><path class="cls-37" d="M905.26,195.22a31.7,31.7,0,0,1-13.78,3.13c-9.42.19-21.11-6.15-26.28-14.13-1-1.42-1.91-4.42-2.56-8.86a51.77,51.77,0,0,1-.66-9.62,52.59,52.59,0,0,1,1.32-9.83,28.76,28.76,0,0,1,7-12.6c3.6-3.95,7.29-6.18,11.14-6.68a106.12,106.12,0,0,1,13.26-1h1.81q5.92,4.06,5.91,5.76c0,2-.13,4.48-.39,7.36-.36,3.95-.8,6-1.24,6.19l-1.54.52c-.58.19-2.75,1.07-6.38,2.35a17.67,17.67,0,0,0-6.05,3.4,11.12,11.12,0,0,0-2.34,3.27,9.46,9.46,0,0,0-1.21,3.85c-.15,4.13.58,7.13,2.23,9h.5a53.29,53.29,0,0,0,7.06-.46c.39-.06,1.19-.27,2.37-.57a10,10,0,0,1,2.36-.38q.92,0,3.78,3.71c1.91,2.48,2.94,4.11,3.09,4.89A96.84,96.84,0,0,1,905.26,195.22Zm-7.41-6.2c-.25-2.28-.49-5.65-.73-10.08q-4.51,1.72-14.52,1.69c-1.57,0-3.33-1.27-5.28-3.77a16.38,16.38,0,0,1-3.46-6.61,21.8,21.8,0,0,1-.37-4.95c.22-5.38,2.84-9.48,7.76-12.37A32.45,32.45,0,0,1,894.87,149c.14-2.26.43-5.62.83-10.09h-2.8c-5.6,0-10,.59-13,1.69a18.69,18.69,0,0,0-10.28,8.84c-.51.69-1.2,1.72-2.06,3.1-1.52,3.07-2.38,7.37-2.63,12.94a47.23,47.23,0,0,0,.8,8.86c.67,4.19,1.38,7,2.2,8.27a20.49,20.49,0,0,0,9.13,7.13,28.1,28.1,0,0,0,11.16,2.4,20.2,20.2,0,0,0,4.73-1.25C895.17,190.09,896.81,189.47,897.84,189Zm-9.31-32.4a8.15,8.15,0,0,0-4.36-1.33,6.38,6.38,0,0,0-5.42,3,12.36,12.36,0,0,0-2.27,6.86,12.6,12.6,0,0,0,1.17,6.09A28.71,28.71,0,0,0,881,176.1a18.73,18.73,0,0,1-.72-6.69C880.53,164.07,883.27,159.83,888.53,156.62Zm11.19-13.86a1.85,1.85,0,0,0-.43-1.13q-.43-.57-.82-1.13c-.07,2.26-.27,5.63-.65,10.09a4.7,4.7,0,0,1,1.4,1.42q0-1.6.26-4.67T899.72,142.76Zm2.81,48c-.06-1.63-.15-3.27-.25-4.88-.08-1.28-.86-2.82-2.38-4.56l-.05,1.55C899.7,187.16,900.58,189.81,902.52,190.79Z"/><path class="cls-37" d="M952.6,172.08a41.79,41.79,0,0,1-2.89,15c-2.47,6.62-5.87,11.16-10.15,13.45-1.31.88-2.67,1.79-4,2.63a7.65,7.65,0,0,1-4,1,19.89,19.89,0,0,1-14.05-5.18c-2-1.82-3.87-5.81-5.66-11.74-1.68-5.56-2.53-10-2.45-13.43.08-3.6.12-5.4.18-9,0,.25.46-2.13,1.36-7.11a51.61,51.61,0,0,1,1.91-8.7c.82-2.61,3.12-5.75,6.31-9.06,2.67-2.77,4.53-4.28,5.52-4.53q5.76-1.89,7.82-1.89c4.28,0,8.15,2.78,11.53,8.31a60.52,60.52,0,0,1,6.56,16.92A60.92,60.92,0,0,1,952.6,172.08Zm-27.76,22.79c-3.87-3.14-6.82-7.59-8.9-13.23a43.35,43.35,0,0,1-2.72-15.85,72.24,72.24,0,0,1,.44-7.94c.19-1.37.82-4.08,1.9-8.1a5.91,5.91,0,0,0-1.64,2.63c-.66,2-1.05,4.51-1.53,6.69a40.75,40.75,0,0,0-.92,7.19,47.43,47.43,0,0,0,.79,10.38c.5,2.71,1.1,5.5,1.65,8.27a18.88,18.88,0,0,0,1.18,3.59c.5,1.15,1.07,2.37,1.6,3.61.85,2,1.56,3.2,2.12,3.53a4.21,4.21,0,0,0,2.11.3,10.27,10.27,0,0,0,1.91-.49Q924.42,195,924.85,194.87ZM950,173.71c0-6.39-1.47-13.55-4.24-21.49-3.71-10.65-8.55-16-14.59-16-5.76,0-10,3.92-12.64,11.71-1.75,5.14-2.45,11.29-2.75,17.81-.39,8.62,3.45,20.42,10.27,26.35a15.23,15.23,0,0,0,4.18,2.56A11.91,11.91,0,0,0,934.8,196c4.71,0,8.54-2.69,11.46-7.85A28.46,28.46,0,0,0,950,173.71Zm-7.28-5.54a17.33,17.33,0,0,1-1.66,7.95c-1.4,2.75-3.41,4.14-6,4.14-3.92,0-6.69-3.4-8.13-10a58.83,58.83,0,0,1-1.14-12.84c.05-8.34,1.71-12.48,5-12.48q2.64,0,3.63,1.13,3.13,3.31,5.73,10.26A35.08,35.08,0,0,1,942.75,168.16Zm-5.5-.1a26.3,26.3,0,0,0-1.73-7.9c-1.49-4.35-3.24-6.54-5.28-6.54a2.3,2.3,0,0,0-2.07,1.32c0,3,0,4.49,0,7.49a40.65,40.65,0,0,0,1.44,7.72c1.17,4.71,2.38,7.1,3.55,7.1.89,0,1.78-1.06,2.69-3.07a11.87,11.87,0,0,0,1.26-4.69,4.59,4.59,0,0,1,.08-.67A4.74,4.74,0,0,0,937.25,168.07Zm3.5,4.11c-.56-.13-1.39.48-2.51,1.82a19.78,19.78,0,0,1-2.35,2.59,2.82,2.82,0,0,0,.63.19,7.86,7.86,0,0,0,2,.19,7.53,7.53,0,0,0,1.51-2.31A5.43,5.43,0,0,0,940.75,172.18Z"/><path class="cls-37" d="M1018.83,152.42a66.57,66.57,0,0,1-1.44,12.28q-1.12,6.16-2.19,12.49c-.05.06-.38,3.75-1,11.11-.45,5.42-1,8.92-1.48,10.31q-.64,1.69-11.28,1.77-3.69,0-5.35-2c-.06-.07-1.13-2.1-3.14-6-.84,1.42-1.64,2.86-2.42,4.28-1,1.83-2.13,2.77-3.24,2.78s-2.79,0-5,.12-3.95.12-5.09.12c-1.48,0-3.27-1.28-5.34-3.68a18.44,18.44,0,0,1-3.74-6.08,86,86,0,0,1-2.45-11.15c-1-5.9-1.68-9.65-2-11.3-2-9.2-4-18.42-5.92-27.64q.9-.66,5.6-1.84a33.39,33.39,0,0,1,6.09-1.18l3.21.19.49.09a10.84,10.84,0,0,1,3.34,1.93,11,11,0,0,1,2.86,2.88c.62,1.06,1.34,4.68,2.18,10.75.95,6.9,1.71,11,2.07,12.31.36-1.08.68-2.24,1.09-3.14.25-.54,1.14-.86,2.47-.86a15.94,15.94,0,0,1,6.77,1.69,6.88,6.88,0,0,1,2,1.89,25.36,25.36,0,0,0,1.74,2.28c.58-4.12,1.46-9.69,2.69-16.66,1.5-8.53,2.59-13.5,3.13-14.89h.33q.91,0,6.23,2.82t5.67,3.38a35.19,35.19,0,0,1,1.86,5.4A31.34,31.34,0,0,1,1018.83,152.42Zm-5.74-9.78-8.36-4.7c-1.12,6.15-2.15,12.31-3.16,18.47-1.45,8.93-2.61,14.62-3.57,16.92q-.76,1.92-1.17,1.92c-.67,0-1.64-1.79-2.88-5.35s-2-5.39-2.26-5.52a13,13,0,0,0-4.68-.93c-.17,0-1.06,2-2.66,6.1s-3,6.13-4.08,6.13c-1,0-2.1-3.23-3.25-9.55-.71-3.91-1.35-7.85-2-11.75-1.64-7.25-3.17-12.27-4.66-15.1l-1-.09a11.9,11.9,0,0,0-4.53.9,11.86,11.86,0,0,1-4.53.9l0,.66c1.12,5.41,2.91,13.65,5.53,24.89.86,5.08,2.43,12.63,4.86,22.91q4.68.58,13.88,1.52,1.22-3.33,2.44-6.53c1.27-3.43,2.18-5.13,2.74-5.13s1.64,1.88,3.11,5.69q1.17,3.49,2.46,7a18.48,18.48,0,0,1,2.94,0q1.92.14,2.69.13,5.36,0,6.05-2.47c.92-3.39,1.81-9.32,2.64-17.56.62-6.14,1.08-12.49,1.94-18.39C1011.94,151.36,1012.5,147.6,1013.09,142.64Zm-27.58,53.73a21.88,21.88,0,0,0-1.3-2.46c-.52-.26-4.37-.77-11.53-1.54q1.07,1.67,2.18,3.09a3.77,3.77,0,0,0,3.16,1.43q1.19,0,3.7-.26T985.51,196.37Zm23.77.58a27.28,27.28,0,0,1-1.68-3.44,38.63,38.63,0,0,1-10.82,1.43h-.34c1,1.83,2.21,2.76,3.74,2.75Q1000.35,197.69,1009.28,196.94Z"/><path class="cls-37" d="M708.33,312a36.17,36.17,0,0,1-16.86-.2,41.49,41.49,0,0,1-27.2-21c-.83-1.62-1.07-4.7-.53-9a37.32,37.32,0,0,1,2.19-9.24,46.29,46.29,0,0,1,4.83-9.08c2.81-4.05,7.11-7.73,12.71-11.1s10.65-5.17,15.23-5.28c6.34-.15,11.5-.09,15.5.23l2.06.16c3.61,3.08,5.26,5.24,4.9,6.4-.65,2.06-1.59,4.61-2.85,7.61-1.73,4.12-2.91,6.26-3.48,6.37l-2,.34c-.74.12-3.52.76-8.2,1.58a27.84,27.84,0,0,0-8.17,2.59,15.53,15.53,0,0,0-3.79,2.95,10.7,10.7,0,0,0-2.64,3.69q-2.2,6.23-.08,9.59l.59.11a67,67,0,0,0,8.41,1c.48,0,1.47,0,2.94-.13a13.68,13.68,0,0,1,2.88.05c.72.12,1.83,1.66,3.37,4.7s2.31,5,2.27,5.91C710.28,302.23,709.54,306.13,708.33,312Zm-7.12-8.44c.3-2.48.92-6.12,1.9-10.87-3.85.61-9.69.19-17.5-1.31-1.84-.35-3.56-2-5.11-4.94s-2.24-5.31-2.07-7.26a18.23,18.23,0,0,1,1.12-4.93c2-5.24,6.46-8.82,13.2-11A51.3,51.3,0,0,1,709.91,261c.93-2.33,2.39-5.75,4.32-10.21l-3.21-.27a59,59,0,0,0-15.54.34,31.19,31.19,0,0,0-15.07,7.38c-.84.6-2,1.5-3.51,2.7-2.86,2.73-5.37,6.69-7.46,12a34.85,34.85,0,0,0-1.8,8.63c-.45,4.16-.37,7,.24,8.46,1.55,3.36,4.49,6.46,8.81,9.28a37.43,37.43,0,0,0,12.45,5.28,25.53,25.53,0,0,0,5.85-.14C697.81,304.11,699.89,303.84,701.22,303.59ZM700,268a8.88,8.88,0,0,0-4.63-2A9.81,9.81,0,0,0,688,268.2a14.21,14.21,0,0,0-4.9,6.44,10.57,10.57,0,0,0-.54,6.28,24.94,24.94,0,0,0,2.5,5.58,16.19,16.19,0,0,1,1.17-6.88C688.15,274.31,692.77,270.53,700,268Zm17.61-12.93a1.54,1.54,0,0,0-.13-1.2q-.31-.62-.58-1.23c-.81,2.29-2.16,5.73-4.1,10.34a3.9,3.9,0,0,1,1.15,1.65q.56-1.68,1.86-4.86T717.59,255.08Zm-11.34,51.5c.35-1.77.67-3.57,1-5.32.25-1.4-.25-3.22-1.54-5.4l-.49,1.64C703.85,302,704.22,305.07,706.24,306.58Z"/><path class="cls-37" d="M787.48,282.39c-.39,1.91-3.16,9-8.4,21.75s-8.47,20.46-9.69,22.56c-2,3.58-3.7,5.27-5,5.05a56.7,56.7,0,0,1-7.49-2.32c-4.09-1.47-6.32-2.51-6.69-3.07-.6-6.64-.71-10.45-.44-11.69a36.22,36.22,0,0,1,2.59-6.79,38,38,0,0,0,2.58-6.62q-1.47-1.14-7.45-2.87c-2.81,4.86-7.11,12.2-12.81,22a65.68,65.68,0,0,1-8.75-4.63c-4.76-2.79-7.2-4.49-7.34-5.17a39.63,39.63,0,0,1-.33-5.11,23.37,23.37,0,0,1,.2-5.12A16.89,16.89,0,0,1,720,297c1-1.74,1.57-2.92,1.8-3.48,1.77-4.07,4.27-9.3,7.47-15.67,4-8.06,6.69-13.21,7.72-15.4.8-1.7,1.58-3.56,2.4-5.22a15.88,15.88,0,0,1,3.3-4.62l1-.34q-.72-.15,4.05.19c5.3.38,8.55.9,9.77,1.6.55.31,1.36,1.91,2.42,4.85.36.86.7,1.68,1,2.46a4.85,4.85,0,0,1,0,3,26.69,26.69,0,0,1-2.15,5c-1.44,2.78-2.25,4.46-2.45,5a70.32,70.32,0,0,1,7.3,1.79c.62-.91,1.94-4.09,4-9.44,1.83-4.85,3-7.38,3.48-7.73a5.57,5.57,0,0,1,3.12-.37,39.79,39.79,0,0,1,5.63,1,39.06,39.06,0,0,0,5.59.95,3.72,3.72,0,0,1,2.57.86c.44.5.47,3.81.22,10A102.87,102.87,0,0,1,787.48,282.39Zm-3.21-18.09q-3.81-.92-11.52-2.23c-1.51,3.91-3.8,9.81-6.88,17.82l-.49.41a70.64,70.64,0,0,0-12.68-2.93c-4.43-.45-6.47-1.33-6.12-2.61a60.59,60.59,0,0,1,3.76-8.78c1.48-3,2.91-6,4.21-8.91q-5.88-.95-8.14-1.12a11.22,11.22,0,0,0-2.86.29C741,260.39,737,268,731.61,278.88c-5.61,11.39-9,19-10,22.85,7,3.51,10.32,5.28,9.92,5.22,1.25-2.25,3.19-5.7,5.36-10.16,3.37-6.94,5.39-10.66,6.3-10.55,8.1,1,14.43,2.44,19,4.5-2.19,5.38-5.34,13.59-9.35,24.92a79.47,79.47,0,0,0,8,2.48c2.06.32,3.38,0,3.94-.89a44.48,44.48,0,0,0,2.65-6.75c.84-2.48,1.63-5,2.45-7.43.42-1.2,2-4.81,4.64-10.53A136.81,136.81,0,0,0,784.27,264.3Zm-40.86,26.56a91.22,91.22,0,0,0-5,8.31q-3.76,6.77-4.14,8.34a9.76,9.76,0,0,0,0,3.85c.2,1.2.41,2.46.67,3.77,4.1-7.4,6.17-11.09,10.31-18.43C745.46,296,744.83,294,743.41,290.87Zm14.71-27.17a28.89,28.89,0,0,0-1.31-4.18,56.61,56.61,0,0,0-3.48,6.17c-1.85,3.74-2.88,5.87-3.07,6.36q1,.42,3,1.17C754.59,271,756.2,267.81,758.12,263.7Zm26.51,19.73a58.79,58.79,0,0,0,.62-6.7,38.88,38.88,0,0,0,.11-6q-8.15,20.86-16.13,41.79a9.45,9.45,0,0,1-1.32,3.27,12.73,12.73,0,0,0-1.3,2.66,15.28,15.28,0,0,0-.16,3.47c.09,1.92.16,3.13.15,3.54A126.29,126.29,0,0,0,774,309.14c2.08-5.47,4-11.28,6.26-16.5C781.54,289.6,783.14,286.48,784.63,283.43Z"/><path class="cls-37" d="M851.75,320.51a3.37,3.37,0,0,1-1.89,2.81c-1.56.68-4.91,1.48-8.1,3.15-2,1-5,2.94-8.91,4.95-.43.14-1.56.75-3.37,1.73a8.29,8.29,0,0,1-2.59,1.11c-1.28-.13-2.88-2.18-4.74-6s-2.74-6.29-2.65-7.42a152.26,152.26,0,0,0-.46-19.73,43.72,43.72,0,0,0-6.22,1.74c-.43,10.77-1,18.86-1.66,23.73-.4,2.78-.88,4.47-1.44,5a28.3,28.3,0,0,1-5.45,4.3,5.57,5.57,0,0,1-1.36,1.58c-5.58,2.87-9.14,4.13-10.63,3.91-.75-.11-2.58-1.88-5.32-5.21-2.2-2.68-3.33-4.14-3.44-4.33-1.39-2-1.94-3.84-1.66-5.43a55.63,55.63,0,0,1,4.29-12.65c1.42-3.16,2.9-6.31,4.34-9.44q7.27-18.49,14.53-37a63.19,63.19,0,0,1,5.24-10.49l2.05-1.1a15.91,15.91,0,0,1,5.49-1.72c1.32-.14,2.86-.15,4.23-.37.86-.14,2.58-.54,5-1.12a33.46,33.46,0,0,1,3.43-.75,7.85,7.85,0,0,1,3.19,1.6,10.28,10.28,0,0,1,2.58,2.13c.55,2.83,1.33,6.74,2.58,11.49.84,3.21,2,7.75,3.17,13.51,1.37,6.58,2.51,11.58,3.33,14.67,1.19,4.53,2.52,9.19,3.82,13.94C850.93,315.86,851.82,319.8,851.75,320.51Zm-9.84-10.19c-4.16-18.25-8.24-36.52-12.5-54.75a33.54,33.54,0,0,1-9.08,2.21,31.61,31.61,0,0,0-9.28,2.36c-1.79,3.94-3.21,7.39-4.18,10.23-1.78,5.23-3.34,9.4-4.48,12.35-.78,2-3.86,10-9.58,24.29-4.62,11.53-7.18,18.13-7.36,19.22a2.19,2.19,0,0,0,.17,1.46l1.21.17c1.48.2,4.59-.7,9.11-2.84a61.07,61.07,0,0,0,7.83-4.28c.18-1.19.5-4.36,1-9.38.9-5.58,1.35-8.33,2.26-13.74.19-1.13,2.49-2.59,6.75-4.47,3.87-1.71,6.19-2.6,7-2.55,1.35.09,2.24,3.37,2.46,9.89.18,5.43.23,11.11.32,16.86a86.48,86.48,0,0,1,9.14-3A34.25,34.25,0,0,0,841.9,310.32ZM806,330.23a16,16,0,0,1-1.42-2.18q-.81-1.43-1.21-1.48a47.36,47.36,0,0,0-6.16,2.7,34.62,34.62,0,0,1-8,2.26c2.34,3.43,3.66,5.21,3.93,5.25s2.25-.69,5.51-2.22A30.82,30.82,0,0,0,806,330.23ZM822,278c-.23,1.48-.69,2.36-1.38,2.63-4.89,2.07-7.78,3.06-8.61,3-1.34-.09-1.85-1.12-1.51-3.06a29.46,29.46,0,0,1,4.34-11.35,11,11,0,0,1,6.13-1.51C821.7,268.92,822,272.3,822,278Zm-4.2-.72c-.11-.47-.35-1.21-.69-2.2s-.58-1.72-.69-2.19a45.08,45.08,0,0,0-1.47,5.39C815.52,278.1,816.48,277.77,817.77,277.3Zm28.4,42.11a28.91,28.91,0,0,0-2.18-4.65,20.52,20.52,0,0,0-4,1.69c-2.91,1.38-5,2.36-5.74,2.6-1.47.44-4.06.82-7.05,1.52q-1.07.44-2.14.93a2.92,2.92,0,0,0-1.54,1.65c2.15,3.65,3.61,5.55,4.35,5.62.27,0,2.76-1.12,7.34-3.52C840.89,322.28,844.53,320.27,846.17,319.41Z"/><path class="cls-37" d="M912.54,351.15c-.61,0-3.76-2.06-9.29-6.11-4.94-3.63-8.19-6.14-9.8-7.53a200.6,200.6,0,0,1,8.5-29.29l0-.66a27.72,27.72,0,0,0-3.15,4.39c-1.51,2.37-2.45,3.65-2.84,3.64a23.67,23.67,0,0,1-5.46-1.87q-4.37-1.84-5.19-2.73a5.92,5.92,0,0,1-1-3.53c-.07-1.36-.07-2.78-.11-4.17-1.08,5.39-2.82,13.58-5.3,25.12a17.69,17.69,0,0,1-3.15,6.07c-1.81,2.4-3.44,3.58-4.72,3.5a32.84,32.84,0,0,1-5.56-2.77c-3.61-2-5.81-3.18-6.63-3.47a9.12,9.12,0,0,1-2.8-1.94,8,8,0,0,1-2.32-3.05c-.26-.82,0-3,.63-6.31,1.67-8.73,3.17-17.4,4.74-25.61,1.79-9.3,3.58-17.23,5.23-23.93a30.16,30.16,0,0,1,1.8-6.12c4.45-6.39,9.89-9.4,16.48-9.25,10.92.24,16.69,1.18,17.34,2.94a16.34,16.34,0,0,1,.83,3.56c.29,2.12.41,3.43.46,3.82a15.1,15.1,0,0,1,3.11-5.2,6.56,6.56,0,0,1,4.66-1.37c.61,0,3.12,1.22,7.52,3.41,5.24,2.62,8.22,4,8.58,4.13,1.23.47,2.49.95,3.68,1.45a5.11,5.11,0,0,1,3,2.54,12.08,12.08,0,0,1,.24,3.39c-.27,11.17-2.62,22.63-4.45,33.75-1.9,11.58-3.68,23.82-7.52,35a25,25,0,0,1-3.63,4.84C914.47,350,913.15,351.17,912.54,351.15Zm-39.08-89.38a20.93,20.93,0,0,0-4.94,5.39c-.23.46-.69,2.56-1.51,6.19-2.86,12.7-5.74,25.72-8.44,38.62-.39,2.69-1,6.48-1.81,11.47,1-.38,3.74-.88,4.46-1.71,1.22-1.41,2-8.64,3.37-15.13C867.57,291.92,870.4,276.69,873.45,261.77Zm55.91,11.42c-4.21-1.88-10.46-5-18.62-9.07-5,10.19-8.33,15.8-9.65,15.78-.82,0-1.58-3-2.19-8.64-.68-6.37-1.21-9.82-1.65-10.67a88.29,88.29,0,0,0-11.75-1.94c-1.47,0-7-.5-8.33.6s-2.17,8.38-3.1,13.88c-.81,4.78-1.55,9.77-2.39,14.72-.35,2-1.57,7.41-3.66,16.5-1.58,6.88-3.87,15.71-2.91,17.38.31.54,4.76,2.56,10.53,5.82q3-13.71,5.89-26.55c3.17-14.06,5-21.05,5.74-21.93a1.35,1.35,0,0,1,1-.34c.88,0,1.83,3.73,2.88,11.44q1,7.29,2.11,14.89a51.46,51.46,0,0,0,5.37,1.74q3.67-7,7.12-13.73c3.9-7.43,6-11,6.62-11,1.13,0,1.66,1.34,1.57,4a117.27,117.27,0,0,1-3.28,22.51c-1.75,7.47-3.71,15.24-5.63,23.18q7.19,3.44,12.58,6.39a39,39,0,0,0,1.67-6.59c3.38-18.54,6.78-37.08,9.71-55.7ZM890,305.59c-.47-4-1.17-9.94-2.08-17.53-.07.08-.51,1.53-1.24,4.34a24.9,24.9,0,0,0-.78,4.53,27.38,27.38,0,0,0,.42,5.4c.43,2.89.63,4.83.71,5.62Q888,307.09,890,305.59Zm17.63,0a21.85,21.85,0,0,0-3.12,2.41c-.35.52-1.46,4.34-3.47,11.64-1.79,6.51-3,11.1-3.63,13.5a32.53,32.53,0,0,1,4.55-2.9C904.24,322.19,906.12,314,907.62,305.62Zm.22-42.57L906,263a20.78,20.78,0,0,0-2.45,4.14,13.59,13.59,0,0,0-1.56,4.51,7.38,7.38,0,0,0,.19,1.81C904.42,269.26,906.3,265.79,907.83,263Z"/><path class="cls-37" d="M985.16,286.92a31.59,31.59,0,0,1-3,16.23c-2.33,5-5.61,8.53-9.79,10.41-2.18,1.12-5.4,2.72-9.7,4.78a4,4,0,0,0-.07.95c.07,2.53.25,6.38.55,11.68s.49,9.34.56,12c.09,3.64-.55,5.73-1.78,6.27a9.82,9.82,0,0,1-3.87.59,15.25,15.25,0,0,0-3.68.28c-.4.11-1.72.6-3.87,1.51a11,11,0,0,1-3.78,1.06c-.82,0-2-1.43-3.6-4.23a32.58,32.58,0,0,1-2.76-5.93c-2.19-13.26-2.24-27.06-2.81-40.45s-1.35-27-1.34-40.45a6.92,6.92,0,0,1,.47-3.09c.74-1.14,3.64-2.16,8.6-3a64.5,64.5,0,0,1,9.57-.94c9.06,0,16,2,20.82,6.4C983,267.62,984.32,278.24,985.16,286.92Zm-4.09-9.14a19.48,19.48,0,0,0-5.28-12.71,23.55,23.55,0,0,0-10.19-6.31,27.05,27.05,0,0,0-5.81-1.43c-9.7.07-20.11,1.14-21.24,2.81-6.57,9.77,2,53.07,4.27,79.52a119.59,119.59,0,0,1,13.5-2.68l0-1c0-2.07-.19-5.17-.46-9.22s-.42-7-.46-9a22.48,22.48,0,0,0-.56-3.89,22,22,0,0,1-.55-3.72c0-1.41,1-2.45,3-2.81,1.29-.24,2.72-.39,4.08-.58a36.42,36.42,0,0,0,9.31-3.84c3-1.7,5.54-5.33,7.65-10.69A34.81,34.81,0,0,0,981.07,277.79ZM959.73,346c-1.77-3.57-2.71-5.32-2.85-5.32-.94,0-5.34.9-13.25,2.52l3.39,5.53a24.19,24.19,0,0,0,5.6-1.41A21.43,21.43,0,0,1,959.73,346Zm9.22-67.88a13.35,13.35,0,0,1-5.13,11.11,17.37,17.37,0,0,1-10.22,4.17L952.42,292l-.06-3.91c0-1.84-.26-4.61-.69-8.26s-.65-6.33-.67-8.1c0-1.61,1.08-2.57,3.3-2.9q.65-.12,5-.16C965.51,268.63,968.71,271.69,968.95,278.13Zm-2.33-2.28a6.31,6.31,0,0,0-2.53-3.24,6.38,6.38,0,0,0-3.69-1.29,23,23,0,0,0-5.28,1.13c2.27,2.81,3.38,4.22,3.32,4.22a2.19,2.19,0,0,0,1.22-.62c.38-.08,1.22-.2,2.47-.39a20.48,20.48,0,0,1,2.47-.27A4.44,4.44,0,0,1,966.61,275.84Zm14,24.38-2.23-.2-1.15.29a32.27,32.27,0,0,1-9,7,82.6,82.6,0,0,1-10.06,3.61,24.57,24.57,0,0,1,3.16,5c3.63-1.85,7.33-3.62,10.73-5.43C975.8,308.53,978.68,304.92,980.58,300.22Zm-13.83-20.34-1.65-1.45a47.63,47.63,0,0,1-5.74-.06,10.76,10.76,0,0,0-.22,2.83q0,1.23.27,3.53c.16,1.53.25,2.73.28,3.56C964.52,285.72,966.85,282.91,966.75,279.88Z"/><path class="cls-37" d="M1049.57,326.51c.11.89.16,7.38-2,10.15-1.92,2.42-10.94,5-18.45,7.76-5.45,2-13.22,4.77-23.3,7.88a48.8,48.8,0,0,1-3.37-8.76c-.92-3-1.86-6-2.73-8.91-.1-1.58.74-5.75,2.46-12.26q5.22-2.27,11.22-4.2c-1.54-5.54-3-12.1-4.41-19.51q-1.81-9.71-3.5-18.9c-.75.11-3.17.78-7.16,1.83-3.73,1-5.79,1.41-6,1.41-.44,0-1-2.41-2-6.41-.44-1.7-1.19-4.4-1.9-7.87.53-1.51,1.42-3.64,2.66-6.34q.66-1.16,4-1.8c6.29-1.43,15.08-3.89,26.22-7.36,4-1.24,6.07-1.85,6.31-1.86.79,0,1.94,1.92,3.34,5.82a39.5,39.5,0,0,1,2.08,7.41,26.9,26.9,0,0,1-.34,5c-.32,2.57-.63,4-.91,4.25a19.18,19.18,0,0,1-4.23,1.53,18.74,18.74,0,0,0-4.23,1.55,102.22,102.22,0,0,0,2.82,10.37c1.75,5.53,2.94,9.17,3.28,10.61.68,2.83,1.8,7.55,3.69,13.85.32-.11,1.93-.66,4.68-1.73a18,18,0,0,1,4.71-1.34l1.44.42a48.78,48.78,0,0,1,3.13,8.28A63.52,63.52,0,0,1,1049.57,326.51Zm-56.1-51.93a22,22,0,0,0-1-4.52c-.87-2.91-1.31-4.37-1.32-4.45a13.29,13.29,0,0,0-.7,2.12c0,.32.36,2.18,1,5.64s1,5.31,1.11,5.47Zm53.27,52-.1-.8a30,30,0,0,0-1.72-6.66c-.75-2-1.58-4.14-2.37-6.25-5.55,2-9,3.11-10.22,3.2s-2.48-2.48-3.67-7.45c-.76-3.19-1.28-6.7-2.1-9.59-.55-2-1.89-5.25-3.11-9.31-1.3-4.34-3.36-11.11-6.27-19.69-.12-1.17,1.79-2.4,5.62-3.58,2.33-.71,4.74-1.36,7.15-2-.72-5.17-1.7-8.41-3-9.86-3.54,1.24-9,3-16.35,5.13-.42.09-6,1.39-16.81,3.84.45,2.06,1.16,5.19,2.15,9.45a38.19,38.19,0,0,1,11.79-2.48,2.06,2.06,0,0,1,2,1.12c.73,1.24,1.58,3.92,2.42,8,.61,3,1.22,6.08,1.88,9.09.32,1.47,1.71,5.89,4.17,13.5a69.91,69.91,0,0,1,3.28,13.75,3.89,3.89,0,0,1-2.38,4.3c-1.35.52-3,.83-4.38,1.23-2.65.77-5.95,2-9.71,3.44l.08,1.09c0-.36,1.32,3.95,4.14,13.39C1021.75,335.25,1034.23,330.9,1046.74,326.63Zm-39.16,16.45a34.65,34.65,0,0,0-2-6.82c-1.68-4.46-2.6-6.72-2.61-6.81-.52,3.07-.77,4.77-.75,5.05s1.42,4.08,4.26,11.38A15.14,15.14,0,0,0,1007.58,343.07ZM1018,315.8a128.52,128.52,0,0,0-4.56-19.93,191,191,0,0,1-4.82-18.75l-1.38,2.58a60.07,60.07,0,0,0,1.51,6.54c.93,3.3,1.6,5.56,1.82,6.63.47,2.3,2,10.1,4.89,24.42A8.61,8.61,0,0,0,1018,315.8Z"/><path class="cls-37" d="M1100.23,295.15a51.66,51.66,0,0,1,.06,18.87c-1.43,8.65-4.5,15-9.09,18.65-1.37,1.34-2.78,2.74-4.23,4.05a8.41,8.41,0,0,1-4.57,2,22.32,22.32,0,0,1-17.68-4.68c-2.75-2.13-5.79-7.26-9.14-15-3.14-7.22-5-13-5.64-17.41-.63-4.68-.95-7-1.57-11.54,0,.32.11-2.77.19-9.05a64.13,64.13,0,0,1,.55-10.84c.45-3.21,2.49-7.13,5.5-11.15,2.52-3.36,4.34-5.18,5.4-5.51,4.08-1.62,6.87-2.45,8.4-2.52,4.78-.2,9.64,2.72,14.64,8.81a87.7,87.7,0,0,1,11.51,19.41A80.08,80.08,0,0,1,1100.23,295.15Zm-27.58,32.49c-5.23-3.62-9.66-9.18-13.3-16.34a64.88,64.88,0,0,1-6.44-20.2,97.94,97.94,0,0,1-1.06-10c0-1.72.15-5.14.61-10.09a6.52,6.52,0,0,0-1.37,3.32c-.39,2.49-.34,5.63-.47,8.39a54.8,54.8,0,0,0,.34,9.13,69.68,69.68,0,0,0,3,13.3c1.15,3.49,2.43,7.08,3.66,10.68a29.13,29.13,0,0,0,2.14,4.62c.83,1.48,1.76,3,2.65,4.6,1.43,2.59,2.52,4.07,3.25,4.44a4.58,4.58,0,0,0,2.56.12,10.73,10.73,0,0,0,2.16-.9Q1072.17,327.83,1072.65,327.64Zm25-30.19c-1.56-7.84-5.21-16.41-10.05-25.56-4.24-8-10.89-17.39-20-17.66-6-.17-10.56,4.85-12.06,14.41-1,6.32-.82,13.74.39,22.23,1.8,12.63,7.55,24.81,17.62,33a18.66,18.66,0,0,0,5.48,2.78,13.27,13.27,0,0,0,5.64,1c5.57-.71,9.52-4.82,11.82-11.76A35.63,35.63,0,0,0,1097.6,297.45Zm-9.81-6a21.93,21.93,0,0,1-.12,10c-1,3.59-3.07,5.62-6.17,5.93-4.61.46-8.61-3.6-11.73-11.8a83.52,83.52,0,0,1-4.09-15.9c-1.7-10.25-.66-15.21,3.08-15.42q3-.16,4.36,1.12c2.85,2.48,5.8,6.41,8.87,11.86S1087,287.46,1087.8,291.45Zm-6.43.44a37.18,37.18,0,0,0-3.79-9.56c-2.7-5.2-5.19-7.7-7.53-7.55a2.29,2.29,0,0,0-2.1,1.76c.62,3.65.94,5.49,1.56,9.21a58.63,58.63,0,0,0,3.36,9.51c2.4,5.81,4.34,8.72,5.72,8.59,1-.1,1.85-1.55,2.47-4.17a15.07,15.07,0,0,0,.42-6,6.07,6.07,0,0,1-.05-.84A6.27,6.27,0,0,0,1081.37,291.88Zm5,4.74c-.68-.1-1.52.75-2.52,2.54a22,22,0,0,1-2.17,3.52,3.31,3.31,0,0,0,.78.17,8.76,8.76,0,0,0,2.35,0,8.68,8.68,0,0,0,1.25-3.06A6.83,6.83,0,0,0,1086.39,296.62Z"/><path class="cls-37" d="M1173.09,308.61a10,10,0,0,1,.3,2.29c.07,4.7-.75,8.15-2.32,10.28-1.22,1.65-3.43,2.88-6.65,3.61-.8.18-2.21.44-4.21.76s-3.61.61-4.81.87q-.9.2-2.73.77t-2.63.74c-1.34.28-2.76-.69-4.28-2.78-1.14-1.57-2.34-3.19-3.47-4.86,0,.72,0,1.76,0,3.15-.33,3.94-1.26,6.54-2.57,7.73-.88.8-3.24,1.66-7.08,2.41a32.2,32.2,0,0,0-4.7,1.48,30.78,30.78,0,0,1-4.6,1.45c-1.42.27-3.18-2.25-4.78-7.18-1-3.18-1.95-6.63-3-9.95-1.7-5.61-4.27-14.07-7.76-24.79-4.8-14.76-7.61-23.1-8.17-25.6-.13-.59.41-2.48,1.61-5.63s2-4.69,2.45-4.86a53.37,53.37,0,0,1,15.41-4c.75-.05,2.35,1.33,4.83,4.13,1.54,1.83,3.15,3.73,4.76,5.6a58.57,58.57,0,0,1,.73-6.26,17.33,17.33,0,0,1,1.93-5.42c.58-.93,2.43-1.9,5.49-2.94a27.9,27.9,0,0,1,6.5-1.57,2.24,2.24,0,0,0,1-.47,2.23,2.23,0,0,1,1-.47c1.24-.09,3.62,4,7.83,12.68,2.69,5.55,6,13.06,9.73,22.61,3,7.64,5.89,15.41,8.75,23.23a6.49,6.49,0,0,0,.69,1.37A6.55,6.55,0,0,1,1173.09,308.61Zm-48.91,17.24a25.05,25.05,0,0,0-1.73-4.75,38.13,38.13,0,0,1-1.81-4.58c-1.66-5.06-4.46-12.87-7.28-22.54-2.88-9.88-6-20.34-9.31-30.42a38.9,38.9,0,0,1-1.83,6.25c.77,2.56,2.15,6.54,4.17,12,2.64,7.17,4.15,11.3,4.49,12.2,1.47,4.93,3.44,13,6.85,22.45,1,2.76,2.82,7.26,4.82,13.3C1123.66,327.22,1124.2,325.92,1124.19,325.84Zm45-17.44-.2-.74c-3-9.38-6.83-18.5-10.7-27.55-4.19-10-8.52-20-12.74-30.08a17.14,17.14,0,0,1-5.42,2.11c-2,.5-4.05,1-6.07,1.56,1.13,3.73,4.06,10.8,8.74,21.34,4.28,9.62,7,17,8.18,21.91l.38,1.41a2,2,0,0,1-1.18,1q-1.68.26-6.39-6.41-2.87-4.33-5.76-8.78c-6-9-12-17.88-18.44-26.51a102.69,102.69,0,0,1-13.92,3.29c.06.29.1.44.17.74a27.94,27.94,0,0,0,1.76,4.61c1.17,2.57,1.89,4.11,2.1,4.62s2.59,8.4,7.52,23.69c3,9.31,6.29,18.81,9.38,28.23a2.4,2.4,0,0,0,1.05.07,24.48,24.48,0,0,0,4-1.24,25.24,25.24,0,0,1,4.05-1.26,8.18,8.18,0,0,0,3.16-1.53c-.85-2.26-2.11-5.6-3.81-10-.24-.44-2.09-4.35-5.6-11.61a63.2,63.2,0,0,1-4.53-11.61c-.36-1.47-.06-2.26.91-2.36s4.83,4.74,12.07,14.44q6.46,8.74,12.82,17.42a6.23,6.23,0,0,0,1.45,0,37.37,37.37,0,0,0,8.59-3.26A55.57,55.57,0,0,1,1169.16,308.4Zm-20.45,9.37c-.16-.68-5.39-7.57-15.61-20.88l.22.89c.89,3.65,3.09,8.26,6.63,13.61,2.81,4.25,5.69,8.47,8.5,12.63C1148.57,321.5,1148.62,320.25,1148.71,317.77ZM1145.16,289c-4.6-9.87-8.89-20-12.73-30.19-1,2.15-1.35,4.13-.9,5.5C1134.34,272.85,1140.06,281.18,1145.16,289Z"/><path class="cls-37" d="M1220.65,287.68a11.82,11.82,0,0,1,.6,4.22c0,1.35,0,2.76-.09,4.21-.06,10.76-11.62,16.43-20.5,18.59a80.47,80.47,0,0,1-8.58,1.44c-4.72.58-7.59.61-8.06.1s-1.42-2-2.54-3.52c-3-3.69-4.54-5.77-4.66-6.19-.72-2.57-.15-8.19,1.48-16.39.79-.13,3.58.77,8.4,2.58s8.95,2.29,12.37,1.59a3.91,3.91,0,0,0,2.36-2.07,3.63,3.63,0,0,0,.64-3,2.75,2.75,0,0,0-2.46-1.65c-1-.12-2-.19-3-.35-4.48-1.08-9.17-2.14-13.34-3.56-3.91-1.33-7.8-4.5-11.36-8.72-3.3-3.92-5.38-7.21-6.24-9.78a17.94,17.94,0,0,1-.74-6.66c.15-2.69,2.37-5.81,6.54-9.3s7.65-5.28,10.53-5.52a31.72,31.72,0,0,1,9.72,1.06c4.25,1,7.44,2.4,9.45,4.25q2.37,2.18,4.84,8.14c.44,1.07.31,2.5-.41,4.33s-1.66,2.83-2.82,3c-.06,0-1.86-.32-5.38-1a27.6,27.6,0,0,0-8.05-.76q-1.54.18-1.12,1.31c.51,1.38,2.66,2.83,6.45,4.28q4.05,1.31,8,2.51a21.06,21.06,0,0,1,7.34,4,66.29,66.29,0,0,1,5.6,5.64A24.51,24.51,0,0,1,1220.65,287.68Zm-6.45-1.36a22.11,22.11,0,0,0-7.83-10.73c-1.8-1.26-4.93-2.49-9.35-3.72a77.8,77.8,0,0,1-10.55-3.49c-3.61-1.79-5.92-4.16-7-7-1.44-4,.82-6.3,6.8-6.9a29,29,0,0,1,10.06,1.06c.25-2.2.38-3.28.64-5.44-.31-.78-2.57-1.53-6.63-2.37a33.57,33.57,0,0,0-7.42-1c-2.45.21-6,2.24-10.75,6.24-4,3.37-5.22,7.44-3.7,12a17.38,17.38,0,0,0,11.1,11.11c4.82,1.62,10.44,2.71,15.36,4.07,5.53,1.52,9.26,4.58,10.71,8.69a5.08,5.08,0,0,1-1.16,5.48,9.73,9.73,0,0,1-5.29,2.86c-4.22.89-10.39-.22-18.48-3.74-.21,2.45-.58,6.28-1.21,11.66l.18.62a37.75,37.75,0,0,0,18.7.3,48.32,48.32,0,0,0,9-2.87,12.57,12.57,0,0,0,6.7-7.14A13.28,13.28,0,0,0,1214.2,286.32Zm-6,21.64a14.19,14.19,0,0,0-4.61-.15c3.22-.8,1.78-.42-4.34,1.07a42.17,42.17,0,0,1-18,.25q2.46,2.82,4.31,5c1.47-.27,3.9-.6,7.23-1a54.87,54.87,0,0,0,7.1-1.11C1205,310.72,1207.8,309.34,1208.22,308Zm-8.7-46.53-.25-.64a7.65,7.65,0,0,0-.44-.86,4.28,4.28,0,0,0-.5-.75,16.52,16.52,0,0,0-4-1,7.12,7.12,0,0,0-4,1.9A25,25,0,0,1,1199.52,261.44Z"/></g></g></svg>