<svg xmlns="http://www.w3.org/2000/svg" viewBox="0 0 95.16 129.6"><defs><style>.cls-1{fill:#735c32;}.cls-2{fill:#2d2d2d;}.cls-3{fill:#b4a86b;}.cls-4{fill:#907f3e;}.cls-5{opacity:0.2;}.cls-6{fill:none;stroke:#735c32;stroke-linecap:round;stroke-miterlimit:10;stroke-width:3px;}</style></defs><title>Pillar</title><g id="Слой_2" data-name="Слой 2"><g id="Outlines"><path class="cls-1" d="M47.55,128.6q-.95,0-1.9,0a51,51,0,0,1-13.44-2.32,51.65,51.65,0,0,1-16.7-8.87A52.46,52.46,0,0,1,1.11,99.65L1,99.44V46.57H94.16V99.44l-.11.21a52.73,52.73,0,0,1-6.63,10.1A52.29,52.29,0,0,1,47.55,128.6Z"/><path class="cls-2" d="M93.16,47.57V99.2a51.62,51.62,0,0,1-6.51,9.91,51.29,51.29,0,0,1-39.1,18.49q-.93,0-1.86,0a50,50,0,0,1-13.17-2.27,50.86,50.86,0,0,1-16.37-8.69A51.82,51.82,0,0,1,2,99.2V47.57H93.16m2-2H0v54.1l.21.42A53.45,53.45,0,0,0,14.9,118.17a52.63,52.63,0,0,0,17,9,52,52,0,0,0,13.7,2.36c.64,0,1.29,0,1.93,0a53.29,53.29,0,0,0,40.64-19.21,53.69,53.69,0,0,0,6.76-10.3l.21-.42V45.57Z"/><path class="cls-3" d="M47.57,94.16A46.6,46.6,0,0,1,3.41,32.76a45.7,45.7,0,0,1,5.5-11.11c.45-.71,1-1.46,1.63-2.3a46.8,46.8,0,0,1,9.12-9.05c.44-.33.89-.66,1.35-1,.13-.1.31-.21.48-.33.42-.29.86-.58,1.31-.86,1-.65,2.16-1.29,3.3-1.89A45.93,45.93,0,0,1,44.93,1.08C45.87,1,46.74,1,47.57,1a47.6,47.6,0,0,1,6.74.48,46.79,46.79,0,0,1,39.84,46.1A46.6,46.6,0,0,1,77.64,83.16c-.63.54-1.23,1-1.82,1.45a46.36,46.36,0,0,1-20.45,8.9H55.2A45.3,45.3,0,0,1,47.57,94.16Z"/><path class="cls-2" d="M47.57,2a46.34,46.34,0,0,1,6.6.47A45.58,45.58,0,0,1,77,82.39c-.58.49-1.17,1-1.77,1.41a45.16,45.16,0,0,1-20,8.71h-.1a45.08,45.08,0,0,1-7.53.63A45.6,45.6,0,0,1,4.36,33.08,44.67,44.67,0,0,1,9.74,22.2c.49-.76,1-1.52,1.6-2.25a45.84,45.84,0,0,1,8.93-8.86c.43-.32.86-.64,1.31-.94.15-.12.32-.22.48-.33q.62-.44,1.28-.84c1.05-.66,2.14-1.28,3.24-1.86A45.14,45.14,0,0,1,45,2.08C45.84,2,46.7,2,47.57,2m0-2c-.85,0-1.74,0-2.7.08A46.91,46.91,0,0,0,25.64,5.35c-1.17.61-2.3,1.26-3.37,1.93-.45.28-.9.58-1.33.88l-.52.36c-.5.34-1,.7-1.35,1a47.79,47.79,0,0,0-9.32,9.25c-.65.85-1.2,1.63-1.69,2.38A46.63,46.63,0,0,0,2.46,32.44,47.57,47.57,0,0,0,55.27,94.53l.24,0,0-.07a47.39,47.39,0,0,0,20.91-9.1c.59-.43,1.2-.92,1.85-1.48A47.58,47.58,0,0,0,54.46.49,48.61,48.61,0,0,0,47.57,0Z"/><path class="cls-4" d="M74.46,31.34C86.74,45.8,90.28,65.08,86.16,71.84a48.57,48.57,0,0,1-3.43,4.75A45.9,45.9,0,0,1,61.48,91a45.09,45.09,0,0,1-6.27,1.52h-.1a45.08,45.08,0,0,1-7.53.63A45.6,45.6,0,0,1,4.36,33.08,44.67,44.67,0,0,1,9.74,22.2c.55-.81,1.15-1.66,1.81-2.52S13,17.84,13.73,17a27.19,27.19,0,0,1,9.35-3.43A106.35,106.35,0,0,1,34.75,13l2.59-.08h0a52.93,52.93,0,0,1,6.6.47C61.31,15.85,74.46,31.34,74.46,31.34Z"/><path class="cls-3" d="M32.54,120.8a17.91,17.91,0,0,1,0,4.5,50.86,50.86,0,0,1-16.37-8.69L15.8,82.77a46.27,46.27,0,0,0,17.58,10,23.77,23.77,0,0,0-5.19,17.07A22.67,22.67,0,0,0,32.54,120.8Z"/><path class="cls-5" d="M79.48,116.18A50.6,50.6,0,0,1,2,99.2V75c5.46,8.92,13,21.33,16.68,28.36,6.29,11.85,17.89,23,30.22,18.13C57.89,117.92,71,115.29,79.48,116.18Z"/><path class="cls-6" d="M61,34.64s-8.46-6-6.53,4.84S69.7,54,71.88,49.87s-2.42-13.3-2.42-13.3"/><path class="cls-1" d="M84,75a45.26,45.26,0,0,1-7,7.44c-3.9-2.19-10.14-5.67-17.85-9.95C39,61.28,37.76,60.82,35.29,58.1,28.67,50.82,26.67,42.23,23,26.66a149.94,149.94,0,0,1-2.78-15.57c.92-.69,1.94-1.4,3.07-2.11s2.13-1.28,3.24-1.86h0S28.36,46,39.72,54.23,68.12,71.5,84,75Z"/><path class="cls-1" d="M49.39,82.39a7.45,7.45,0,0,1,4.49-.45c2.94.51,8.35,2.55,14.95,6a59.83,59.83,0,0,0-6.91-4.1C48.76,77.14,41.14,79.46,35.37,73c-2.66-3-.89-3.32-4.64-9.77-5.4-9.31-9.82-8.41-13.49-15.62C13.85,40.93,11.33,20,11.33,20a45.57,45.57,0,0,0,36.24,73.2,45.08,45.08,0,0,0,7.53-.63h.1S42.86,84.93,49.39,82.39Z"/><path class="cls-3" d="M93,61.25q.07,19,.15,38a51.62,51.62,0,0,1-6.51,9.91H85.57s-.22-1.63-.35-3.93a49.06,49.06,0,0,1,0-6.12c.07-1,.14-1.64.16-1.79.22-2.1,0-7.06-1.79-18.83A45.66,45.66,0,0,0,93,61.25Z"/><path class="cls-1" d="M59.91,18.41C55.14,6.86,46.35,2.68,45,2.08,45.84,2,46.7,2,47.57,2a46.34,46.34,0,0,1,6.6.47h0C57.89,6.92,59.8,17.74,59.91,18.41Z"/></g></g></svg>