<svg xmlns="http://www.w3.org/2000/svg" viewBox="0 0 140 140"><defs><style>.cls-1{fill:#070;opacity:0;}.cls-2{fill:#3a3a3a;}.cls-3,.cls-6{fill:#646666;}.cls-3,.cls-4{stroke:#000;stroke-linejoin:round;stroke-width:4px;}.cls-4{fill:#a5aaaa;}.cls-5{opacity:0.5;}</style></defs><title>PistonUp</title><g id="Слой_2" data-name="Слой 2"><g id="Outlines"><rect class="cls-1" width="140" height="140"/><rect class="cls-2" x="19.18" y="10.93" width="103.28" height="43.58"/><path d="M121,12.43V53H20.68V12.43H121m3-3H17.68V56H124V9.43Z"/><path class="cls-3" d="M84.87,38.78v94.94H56.78V38.78c.38-.62,4.09-6.46,10.72-8a14.57,14.57,0,0,1,3.44-.39C79.58,30.43,84.4,38,84.87,38.78Z"/><path class="cls-4" d="M84.87,124.94v8.79A18.7,18.7,0,0,0,78,128.1a16.49,16.49,0,0,0-7.1-1.65,16.77,16.77,0,0,0-3.44.33,16.39,16.39,0,0,0-3.88,1.31,18.82,18.82,0,0,0-6.84,5.62v-8.79A18.46,18.46,0,0,1,67.49,118a16.77,16.77,0,0,1,3.44-.33C79.58,117.72,84.4,124.28,84.87,124.94Z"/><path class="cls-4" d="M84.87,46.1v8.79c-.47-.65-5.29-7.22-13.94-7.27a16.77,16.77,0,0,0-3.44.33,18.46,18.46,0,0,0-10.72,6.94V46.1a18.46,18.46,0,0,1,10.72-6.94,16.77,16.77,0,0,1,3.44-.33C79.58,38.88,84.4,45.44,84.87,46.1Z"/><path class="cls-4" d="M84.87,62.16v8.79c-.47-.65-5.29-7.22-13.94-7.27a16.77,16.77,0,0,0-3.44.33,18.46,18.46,0,0,0-10.72,6.94V62.16a18.46,18.46,0,0,1,10.72-6.94,16.77,16.77,0,0,1,3.44-.33C79.58,54.94,84.4,61.5,84.87,62.16Z"/><path class="cls-4" d="M84.87,78.21V87c-.47-.65-5.29-7.22-13.94-7.27a16.77,16.77,0,0,0-3.44.33A18.46,18.46,0,0,0,56.78,87V78.21a18.46,18.46,0,0,1,10.72-6.94,16.77,16.77,0,0,1,3.44-.33C79.58,71,84.4,77.56,84.87,78.21Z"/><path class="cls-4" d="M84.87,92.82v8.79c-.47-.65-5.29-7.22-13.94-7.27a16.77,16.77,0,0,0-3.44.33,18.46,18.46,0,0,0-10.72,6.94V92.82a18.46,18.46,0,0,1,10.72-6.94,16.77,16.77,0,0,1,3.44-.33C79.58,85.61,84.4,92.17,84.87,92.82Z"/><path class="cls-4" d="M84.87,108.88v8.79c-.47-.65-5.29-7.22-13.94-7.27a16.77,16.77,0,0,0-3.44.33,18.46,18.46,0,0,0-10.72,6.94v-8.79a18.46,18.46,0,0,1,10.72-6.94,16.77,16.77,0,0,1,3.44-.33C79.58,101.66,84.4,108.23,84.87,108.88Z"/><g class="cls-5"><path d="M67.49,31.94q0,50.62.06,101.25l-3.92.54H56.78V39.41A18.54,18.54,0,0,1,67.49,31.94Z"/></g><rect class="cls-6" x="19.18" y="4.78" width="103.28" height="7.09"/><path d="M121,6.28v4.09H20.68V6.28H121m3-3H17.68V13.37H124V3.28Z"/></g></g></svg>