<svg xmlns="http://www.w3.org/2000/svg" viewBox="0 0 140 140"><defs><style>.cls-1{fill:#070;opacity:0;}.cls-2,.cls-6{fill:#646666;}.cls-2,.cls-3{stroke:#000;stroke-linejoin:round;stroke-width:4px;}.cls-3{fill:#a5aaaa;}.cls-4{opacity:0.5;}.cls-5{fill:#f4ae00;}.cls-7{fill:#e70f00;}</style></defs><title>PistonDown</title><g id="Слой_2" data-name="Слой 2"><g id="Outlines"><rect class="cls-1" width="140" height="140"/><path class="cls-2" d="M84.87,13.55v82H56.78v-82A18.46,18.46,0,0,1,67.5,6.61a16.77,16.77,0,0,1,3.44-.33C79.58,6.33,84.4,12.89,84.87,13.55Z"/><path class="cls-3" d="M84.87,92.39v8.79A18.7,18.7,0,0,0,78,95.55a16.49,16.49,0,0,0-7.1-1.65,16.77,16.77,0,0,0-3.44.33,16.39,16.39,0,0,0-3.88,1.31,18.82,18.82,0,0,0-6.84,5.62V92.39A18.46,18.46,0,0,1,67.5,85.45a16.77,16.77,0,0,1,3.44-.33C79.58,85.17,84.4,91.73,84.87,92.39Z"/><path class="cls-3" d="M84.87,13.55v8.79c-.47-.65-5.29-7.22-13.94-7.27a16.77,16.77,0,0,0-3.44.33,18.46,18.46,0,0,0-10.72,6.94V13.55A18.46,18.46,0,0,1,67.5,6.61a16.77,16.77,0,0,1,3.44-.33C79.58,6.33,84.4,12.89,84.87,13.55Z"/><path class="cls-3" d="M84.87,29.61v8.79c-.47-.65-5.29-7.22-13.94-7.27a16.77,16.77,0,0,0-3.44.33,18.46,18.46,0,0,0-10.72,6.94V29.61A18.46,18.46,0,0,1,67.5,22.67a16.77,16.77,0,0,1,3.44-.33C79.58,22.39,84.4,29,84.87,29.61Z"/><path class="cls-3" d="M84.87,45.66v8.79c-.47-.65-5.29-7.22-13.94-7.27a16.77,16.77,0,0,0-3.44.33,18.46,18.46,0,0,0-10.72,6.94V45.66A18.46,18.46,0,0,1,67.5,38.73a16.77,16.77,0,0,1,3.44-.33C79.58,38.45,84.4,45,84.87,45.66Z"/><path class="cls-3" d="M84.87,60.27v8.79c-.47-.65-5.29-7.22-13.94-7.27a16.77,16.77,0,0,0-3.44.33,18.46,18.46,0,0,0-10.72,6.94V60.27A18.46,18.46,0,0,1,67.5,53.33,16.77,16.77,0,0,1,70.93,53C79.58,53.06,84.4,59.62,84.87,60.27Z"/><path class="cls-3" d="M84.87,76.33v8.79c-.47-.65-5.29-7.22-13.94-7.27a16.77,16.77,0,0,0-3.44.33,18.46,18.46,0,0,0-10.72,6.94V76.33A18.46,18.46,0,0,1,67.5,69.39a16.77,16.77,0,0,1,3.44-.33C79.58,69.11,84.4,75.67,84.87,76.33Z"/><g class="cls-4"><path d="M67.5,6.61V95.55H63.62a18.82,18.82,0,0,0-6.84,5.62V13.55A18.46,18.46,0,0,1,67.5,6.61Z"/></g><rect class="cls-5" x="19.18" y="98.23" width="103.28" height="36.99"/><path d="M121,99.73v34H20.68v-34H121m3-3H17.68v40H124v-40Z"/><rect class="cls-6" x="19.18" y="94.05" width="103.28" height="7.09"/><path d="M121,95.55v4.09H20.68V95.55H121m3-3H17.68v10.09H124V92.55Z"/><rect class="cls-7" x="27.1" y="107.47" width="87.05" height="20.2"/><polygon class="cls-5" points="114.15 107.47 114.15 117.82 104.31 127.66 86.03 127.66 106.22 107.47 114.15 107.47"/><polygon class="cls-5" points="92.79 107.47 72.6 127.66 54.32 127.66 74.51 107.47 92.79 107.47"/><polygon class="cls-5" points="58.45 107.47 38.26 127.66 27.1 127.66 27.1 120.54 40.17 107.47 58.45 107.47"/></g></g></svg>