<svg xmlns="http://www.w3.org/2000/svg" viewBox="0 0 140 140"><defs><style>.cls-1{fill:#40351e;}.cls-2{fill:#8e6730;}.cls-3{fill:#63492b;}.cls-4{fill:#9f7c42;}</style></defs><title>PitActivated</title><g id="Слой_2" data-name="Слой 2"><g id="Outlines"><rect class="cls-1" width="140" height="140"/><path class="cls-2" d="M130.08,129.88a80,80,0,0,0-13.38-3.25,84.5,84.5,0,0,0-23.87-.12c-8.17.92-16.15,1.52-23.67,1.89-17.4.87-32.39.55-41.83.35-6.89-.14-12.4-.44-15.46-.63a385.85,385.85,0,0,0,.45-47.19c-.08-1.38-.16-2.7-.24-4-.5-7.65-1-11.24-1.38-18.95a297.74,297.74,0,0,1,1.17-46.14,150.07,150.07,0,0,0,24.72,3.76c17.05,1.15,28.41-1,42-2.5,7.58-.81,17.37-1.57,29.11-1.69,6.27-.07,13.09,0,20.43.43a35.53,35.53,0,0,0-2,7.94,31.16,31.16,0,0,0-.06,7.44c.9,7.84,4.38,11,5.67,19,1,6.38-.37,9.34-1.29,16.83A60.12,60.12,0,0,0,130,73.88c.38,7.87,2.36,13.57,2.75,25.75A130.49,130.49,0,0,1,130.08,129.88Z"/><path class="cls-3" d="M15.88,35.75s9.86.92,13.56,5.85,16.33,2.77,16.95,1.54,8.32,7.09,8.32,10.79c0,0,3.7-3.39-3.7-13.25,0,0,6.78-4,18.8,2.16,0,0,5.24.92,6.16,0s-8-3.08-11.4-4.31-9.86-1.23-15.1-.62S39.3,43.76,36.83,42.53,24.51,34.83,15.88,35.75Z"/><path class="cls-3" d="M87.55,85.67s-18.47-12.58-32.44-4.8c0,0,10.36,4,9.4,11.4S53.6,111,49.59,111.49c0,0,4.63,1.51,12.84-7.77s5.94-16.82,5-17.5S68.81,83.56,87.55,85.67Z"/><ellipse class="cls-4" cx="75.89" cy="90.18" rx="3.93" ry="2.81"/><ellipse class="cls-4" cx="112.33" cy="31.46" rx="7.24" ry="1.87"/><ellipse class="cls-4" cx="81.36" cy="56.47" rx="4.01" ry="2.54"/><path class="cls-3" d="M99.94,89.2s9.86-25.27,21.26-7.09c0,0,6.32-7.24,1.54-9.86s-19.57-2.93-22.8,6.16-6.16,16.18-9.4,12.17c0,0,7.4,8.94,11.4,3.39S99.94,89.2,99.94,89.2Z"/><circle class="cls-4" cx="30.21" cy="115.43" r="3.08"/><ellipse class="cls-3" cx="78.69" cy="21.73" rx="4.52" ry="5.85"/><ellipse class="cls-3" cx="22.43" cy="17.88" rx="3.47" ry="2"/><ellipse class="cls-3" cx="110.02" cy="58.71" rx="5.85" ry="4.01"/><ellipse class="cls-3" cx="39.14" cy="80.93" rx="8.47" ry="9.24"/><path class="cls-3" d="M69.24,128.39h-.08c-17.4.87-32.39.55-41.83.35-6.89-.14-12.4-.44-15.46-.63a385.85,385.85,0,0,0,.45-47.19s8.12,2.2,10.11,16-3.18,17.94,1.65,21.55,9.67,8,21.17,4.73S69.24,128.39,69.24,128.39Z"/><path class="cls-3" d="M130.46,63.13A60.12,60.12,0,0,0,130,73.88h0a47.86,47.86,0,0,1-5.46-11.16c-2.55-7.17,4.05-10.59,0-20.59s-14.2-.25-20.37-5.25-3.33-10.25-7.08-15.15-18.5-8.6-18.5-8.6a310.16,310.16,0,0,1,49.54-1.26,33.4,33.4,0,0,0-2,15.38c.9,7.84,4.38,11,5.67,19C132.76,52.68,131.38,55.64,130.46,63.13Z"/><path class="cls-3" d="M130.08,129.88a80,80,0,0,0-13.38-3.25,84.5,84.5,0,0,0-23.87-.12c-8.17.92-16.15,1.52-23.67,1.89-17.4.87-32.39.55-41.83.35-6.89-.14-12.4-.44-15.46-.63a385.85,385.85,0,0,0,.45-47.19c-.08-1.38-.16-2.7-.24-4-.5-7.65-1-11.24-1.38-18.95a297.74,297.74,0,0,1,1.17-46.14,150.07,150.07,0,0,0,24.72,3.76c17.05,1.15,28.41-1,42-2.5,7.58-.81,17.37-1.57,29.11-1.69l-2.6,2.69L89.5,16.82s-25.92,5.49-31.17,9S31,21.8,25.89,23.59s-10-4.71-10,10.79-2.95,24,0,30.5,7.89,30.25,6.55,37,0,24,0,24,32,.58,36.34-2.21,28.4-3,30.73-1.54,21.08.39,22.83-2.05,14.25,3.16,14.25,3.16,2.75-9.17,0-15.14-2.65-48.54-2.65-48.54l2.65-8s-.75-22-14.25-20.12-3.75-15.58-3.75-15.58l17.56,3.93a31.16,31.16,0,0,0-.06,7.44c.9,7.84,4.38,11,5.67,19,1,6.38-.37,9.34-1.29,16.83A60.12,60.12,0,0,0,130,73.88c.38,7.87,2.36,13.57,2.75,25.75A130.49,130.49,0,0,1,130.08,129.88Z"/></g></g></svg>