<svg xmlns="http://www.w3.org/2000/svg" viewBox="0 0 140 140"><defs><style>.cls-1{fill:#8e6730;}.cls-2{fill:#9f7c42;}.cls-3{fill:#63492b;}</style></defs><title>PitNonActivated</title><g id="Слой_2" data-name="Слой 2"><g id="Outlines"><rect class="cls-1" width="140" height="140"/><path class="cls-2" d="M17.81,27.46a15.74,15.74,0,0,0,11.5,6.68c7.64.55,18.18-7.05,32.66,0,0,0,4.82,1.54,6.31,0,0,0-9.09-6.06-18.18-8S32.19,32.1,25.7,30,22.08,29.6,17.81,27.46Z"/><path class="cls-3" d="M4.82,28.76s11.88,1.11,16.33,7.05,19.67,3.34,20.41,1.86,10,8.54,10,13c0,0,4.45-4.08-4.45-16,0,0,8.16-4.82,22.64,2.6,0,0,6.31,1.11,7.42,0s-9.65-3.71-13.73-5.2-11.88-1.48-18.18-.74S33,38.41,30.06,36.93,15.22,27.65,4.82,28.76Z"/><path class="cls-3" d="M52,59.56S47,86,62.35,97.69c0,0-.56-13.36,8.07-15.86s25.88,3.06,28.39,7.24c0,0-.56-5.84-14.75-10.44s-21.43,1.53-21.71,2.92S58.73,81.27,52,59.56Z"/><ellipse class="cls-2" cx="77.1" cy="94.31" rx="4.73" ry="3.39"/><ellipse class="cls-2" cx="120.98" cy="23.59" rx="8.72" ry="2.26"/><ellipse class="cls-2" cx="83.68" cy="53.72" rx="4.82" ry="3.06"/><path class="cls-2" d="M100.94,128.59c.56-.56,3.71-6.68,9.28-3s14.66,13.92,19.48,7.79-3.71-15.77,0-28.58c0,0-6.49,2.6-5,25,0,0-3.9,4.33-11.32-9.81S100.94,128.59,100.94,128.59Z"/><path class="cls-3" d="M92.41,130.44S104.28,100,118,121.91c0,0,7.61-8.72,1.86-11.88s-23.57-3.53-27.46,7.42S85,136.94,81.09,132.11c0,0,8.91,10.76,13.73,4.08S92.41,130.44,92.41,130.44Z"/><path class="cls-2" d="M5.57,96.36s16.33,1.24,19.11,10-.37,11.83,2.78,13.76,6.49.59,8,0,19.11,3.68,19.48,7.21-20.67-.56-21.37-.74-20.93-3.3-20.93-3.3Z"/><path class="cls-3" d="M0,96.46s15-1.67,21.15,8.63S14.47,124.46,30.62,122s41.47,5.07,35.63,9.24-16.71,7.63-25.2,2.84-16.74-5.9-23.61-3.68S7.14,134,4.82,124,0,96.46,0,96.46Z"/><circle class="cls-2" cx="14.1" cy="112.68" r="3.71"/><ellipse class="cls-3" cx="80.47" cy="11.88" rx="5.44" ry="7.05"/><ellipse class="cls-3" cx="12.71" cy="7.24" rx="4.17" ry="2.41"/><ellipse class="cls-3" cx="118.2" cy="56.41" rx="7.05" ry="4.82"/><ellipse class="cls-3" cx="22.08" cy="68.84" rx="10.21" ry="11.13"/></g></g></svg>