<svg xmlns="http://www.w3.org/2000/svg" viewBox="0 0 140 140"><defs><style>.cls-1{fill:#070;opacity:0;}.cls-2{fill:#646666;}.cls-3{fill:#fff;opacity:0.24;}.cls-4{fill:#5e4d4d;}</style></defs><title>SlideLeft</title><g id="Слой_2" data-name="Слой 2"><g id="Outlines"><rect class="cls-1" width="140" height="140" transform="translate(140 140) rotate(-180)"/><path class="cls-2" d="M100.64,136.86a2,2,0,0,1-.69-.12L4.79,101.59a2,2,0,0,1-1.31-1.88V5.3A2,2,0,0,1,6.16,3.41l95.16,34.16a2,2,0,0,1,1.32,1.88v95.4a2,2,0,0,1-2,2Z"/><path d="M5.48,5.3l85,30.5,10.19,3.66v95.4L5.48,99.72V5.3m0-4a4,4,0,0,0-4,4V99.72a4,4,0,0,0,2.61,3.75l95.16,35.14a4,4,0,0,0,5.39-3.75V39.46A4,4,0,0,0,102,35.69L91.8,32l-85-30.5A4,4,0,0,0,5.48,1.3Z"/><path class="cls-3" d="M5.48,70.08V99.72l95.16,35.14V39.46L90.45,35.8c0,.59,1.3,25.25-19.45,39.23C50,89.18,33,77.9,28.07,75S5.48,70.08,5.48,70.08Z"/><path class="cls-4" d="M5.48,136.86a2,2,0,0,1-2-2V99.72a2,2,0,0,1,2.69-1.88L101.33,133a2,2,0,0,1-.69,3.88Z"/><path d="M5.48,99.72l95.16,35.14H5.48V99.72m0-4a4,4,0,0,0-4,4v35.14a4,4,0,0,0,4,4h95.16a4,4,0,0,0,1.39-7.75L6.87,96a4,4,0,0,0-1.39-.25Z"/></g></g></svg>