<svg xmlns="http://www.w3.org/2000/svg" viewBox="0 0 140 140"><defs><style>.cls-1{fill:#070;opacity:0;}.cls-2{fill:#646666;}.cls-3{fill:#fff;opacity:0.24;}.cls-4{fill:#5e4d4d;}</style></defs><title>SlideRight</title><g id="Слой_2" data-name="Слой 2"><g id="Outlines"><rect class="cls-1" width="140" height="140"/><path class="cls-2" d="M39.36,136.86a2,2,0,0,1-2-2V39.46a2,2,0,0,1,1.32-1.88L133.84,3.41a2,2,0,0,1,2.68,1.88V99.72a2,2,0,0,1-1.31,1.88L40.05,136.74A2,2,0,0,1,39.36,136.86Z"/><path d="M134.52,5.3V99.72L39.36,134.86V39.46L49.55,35.8l85-30.5m0-4a4,4,0,0,0-1.35.24L48.2,32,38,35.69a4,4,0,0,0-2.65,3.76v95.4a4,4,0,0,0,5.39,3.75l95.16-35.14a4,4,0,0,0,2.61-3.75V5.3a4,4,0,0,0-4-4Z"/><path class="cls-3" d="M134.52,70.08V99.72L39.36,134.86V39.46L49.55,35.8c0,.59-1.3,25.25,19.45,39.23,21,14.15,38,2.86,42.92,0S134.52,70.08,134.52,70.08Z"/><path class="cls-4" d="M39.36,136.86a2,2,0,0,1-.69-3.88l95.16-35.14a2,2,0,0,1,2.69,1.88v35.14a2,2,0,0,1-2,2Z"/><path d="M134.52,99.72v35.14H39.36l95.16-35.14m0-4a4,4,0,0,0-1.39.25L38,131.11a4,4,0,0,0,1.39,7.75h95.16a4,4,0,0,0,4-4V99.72a4,4,0,0,0-4-4Z"/></g></g></svg>