<svg xmlns="http://www.w3.org/2000/svg" viewBox="0 0 140 140"><defs><style>.cls-1{fill:#070;opacity:0;}.cls-2{fill:#5e4d4d;}.cls-3{fill:#646666;}.cls-4{fill:#382e31;}.cls-5{fill:#fff;opacity:0.24;}</style></defs><title>SlideDown</title><g id="Слой_2" data-name="Слой 2"><g id="Outlines"><rect class="cls-1" width="140" height="140" transform="translate(140 140) rotate(-180)"/><rect class="cls-2" x="11.95" y="87.02" width="116.13" height="45.25" rx="2" ry="2"/><path d="M126.08,89v41.25H13.95V89H126.08m0-4H13.95a4,4,0,0,0-4,4v41.25a4,4,0,0,0,4,4H126.08a4,4,0,0,0,4-4V89a4,4,0,0,0-4-4Z"/><rect class="cls-3" x="11.95" y="7.73" width="116.13" height="83.29" rx="2" ry="2"/><path d="M126.08,9.73V89H14V9.73H126.08m0-4H14a4,4,0,0,0-4,4V89a4,4,0,0,0,4,4H126.08a4,4,0,0,0,4-4V9.73a4,4,0,0,0-4-4Z"/><rect class="cls-4" x="13.79" y="92.75" width="112.29" height="9.76"/><path class="cls-5" d="M126.08,9.73V89H14V49.37S58.49,72.13,75.72,63.72s33.64-30.43,30-37.64S98.13,9.73,98.13,9.73Z"/></g></g></svg>