<?xml version="1.0" encoding="utf-8"?>
<!-- Svg Vector Icons : http://www.onlinewebfonts.com/icon -->
<!DOCTYPE svg PUBLIC "-//W3C//DTD SVG 1.1//EN" "http://www.w3.org/Graphics/SVG/1.1/DTD/svg11.dtd">
<svg version="1.1" xmlns="http://www.w3.org/2000/svg" xmlns:xlink="http://www.w3.org/1999/xlink" x="0px" y="0px" viewBox="0 0 1000 1000" enable-background="new 0 0 1000 1000" xml:space="preserve">
<metadata> Svg Vector Icons : http://www.onlinewebfonts.com/icon </metadata>
<g><g transform="translate(0.000000,511.000000) scale(0.100000,-0.100000)"><path d="M4018.1,4264.7l-632.3-339.1l-5.7-613.1l-3.8-615l-574.8-281.6l-574.8-281.7v-609.3V915.7L1742,637.9L1259.1,362l-5.7-611.2l-3.8-613.1l-574.8-287.4L100-1437.1V-2169c0-680.2,1.9-731.9,34.5-741.5c46-13.4,2933.3-831.5,4171-1182.1c559.5-157.1,1025-289.3,1034.6-293.2c11.5-3.8,1040.4,530.7,2289.5,1184.1L9900-2010V553.5v2563.5l-2624.8,745.3c-1442.7,410-2624.8,745.3-2624.8,743.4C4650.3,4605.8,4366.8,4452.5,4018.1,4264.7z M6081.5,3142c1352.6-385.1,2473.5-705.1,2492.6-710.8c30.7-9.6,32.6-55.6,32.6-613.1c0-469.4-5.8-601.6-23-601.6c-13.4,0-1153.4,321.9-2534.8,714.6l-2509.9,716.6l-5.7,580.5c-3.8,593.9-1.9,611.2,67.1,613.1C3611.9,3841.3,4728.9,3527.1,6081.5,3142z M4960.7,1348.7l2496.5-710.8V28.6v-607.4l-664.8,189.7C6424.5-285.6,5284.5,40.1,4257.6,331.3l-1868,532.6l-5.7,572.9c-3.8,523-1.9,576.7,28.7,599.7c17.2,11.5,36.4,23,42.1,23C2460.4,2059.5,3587,1739.5,4960.7,1348.7z M3985.5-435.1l2494.6-712.7v-609.3c0-477.1-5.7-605.4-23-599.7c-13.4,3.8-908.1,258.7-1988.7,567.1c-1080.6,306.6-2209.1,628.4-2509.9,714.6l-546,155.2l-5.7,574.8c-1.9,316.1,0,584.4,5.7,597.8c3.8,13.4,23,24.9,42.2,24.9C1473.7,279.6,2611.8-42.3,3985.5-435.1z M2278.4-2057.9c1072.9-304.6,2203.3-624.6,2511.8-712.7l559.5-159v-638c0-500-5.7-638-24.9-638c-13.4,0-463.7,124.5-1000.1,277.8c-538.4,151.4-1668.8,473.2-2513.7,712.7L272.4-2780.2v626.5c0,484.7,5.7,628.4,24.9,636.1c11.5,5.8,24.9,11.5,26.8,11.5C326.1-1504.2,1205.5-1753.2,2278.4-2057.9z"/></g></g>
</svg>