<?xml version="1.0" encoding="utf-8"?>
<!-- Svg Vector Icons : http://www.onlinewebfonts.com/icon -->
<!DOCTYPE svg PUBLIC "-//W3C//DTD SVG 1.1//EN" "http://www.w3.org/Graphics/SVG/1.1/DTD/svg11.dtd">
<svg version="1.1" xmlns="http://www.w3.org/2000/svg" xmlns:xlink="http://www.w3.org/1999/xlink" x="0px" y="0px" viewBox="0 0 1000 1000" enable-background="new 0 0 1000 1000" xml:space="preserve">
<metadata> Svg Vector Icons : http://www.onlinewebfonts.com/icon </metadata>
<g><g transform="translate(0.000000,467.000000) scale(0.100000,-0.100000)"><path d="M2546.1,2862.7C1200.1,2130.6,100,1528.3,100,1522.5c1.9-13.6,4795.4-2616.6,4867.1-2643.7c38.7-13.6,393.2,172.4,2465.5,1295.7c1330.6,722.4,2430.6,1322.8,2444.2,1336.4c19.4,17.4-513.2,313.8-2426.8,1351.9c-1348,732.1-2451.9,1330.6-2453.9,1328.6C4992.3,4191.4,3890.2,3592.9,2546.1,2862.7z"/><path d="M545.5-77.3C305.3-209,111.6-323.2,111.6-331c3.9-13.6,4865.1-2661.1,4888.4-2661.1c27.1,0,4884.5,2647.6,4884.5,2663.1c0,7.8-197.6,124-439.6,255.7l-437.7,238.2l-62-31c-34.9-17.4-935.5-505.5-2002.6-1086.5L5000-2006.3L3020.6-931.4C1930.2-340.7,1025.8,147.4,1010.3,153.2C994.8,157.1,785.6,54.4,545.5-77.3z"/><path d="M541.6-1932.7C299.5-2062.4,100-2172.8,100-2180.6c0-5.8,1102-608.2,2450-1340.2l2450-1330.5l2450,1330.5c1348,732.1,2450,1336.4,2450,1342.2c-1.9,11.6-877.3,484.2-898.7,484.2c-7.7,0-908.3-486.1-2000.7-1078.8c-1797.3-976.1-1991-1076.8-2037.5-1057.5c-27.1,9.7-927.7,495.8-2000.7,1076.8c-1073,583-1956.1,1059.4-1965.8,1059.4C989-1694.5,783.7-1801,541.6-1932.7z"/></g></g>
</svg>