<svg xmlns="http://www.w3.org/2000/svg" viewBox="0 0 190.63 151.72"><defs><style>.cls-1,.cls-3{fill:#515151;}.cls-1,.cls-3,.cls-4,.cls-7{stroke:#2d2d2d;stroke-miterlimit:10;}.cls-1{stroke-width:3px;}.cls-2{fill:#989a9a;}.cls-3{stroke-width:2px;}.cls-4{fill:#fff;}.cls-5{fill:#212121;}.cls-6{fill:#230000;opacity:0.23;}.cls-7{fill:#7e7069;}.cls-8{fill:#2d2d2d;}</style></defs><title>CowLeft</title><g id="Слой_2" data-name="Слой 2"><g id="Outlines"><path class="cls-1" d="M171.37,64.49S189,78.43,189,79.1s.83,14.83-2.5,15-15.17-4.5-15.17-4.5S164.2,79.89,171.37,64.49Z"/><path class="cls-1" d="M46.7,64.49V95.1a34.94,34.94,0,0,0,34.84,34.83h64a25.9,25.9,0,0,0,25.82-25.82V64.49a34.27,34.27,0,0,0-.93-8,35,35,0,0,0-33.9-26.87h-55A34.94,34.94,0,0,0,46.7,64.49Z"/><path class="cls-2" d="M142.87,82.6s-7.67-13.33-21.33-14S106.2,79.3,106.2,79.3s12.33,19.31,24.67,14.8S146,86.85,142.87,82.6Z"/><path class="cls-2" d="M105.32,96.1s-8.75,19.5-16.75,16S72.82,94.35,76.07,91.85s13.75-10,18.75-8.75S105.32,87.35,105.32,96.1Z"/><path class="cls-2" d="M105.51,52c5,5.88,13.21,6,32.86,6.33,14.16.23,28-.77,30.68-1a35,35,0,0,0-33.9-26.87C116,31.9,103.25,37.6,102.44,44.57,102,47.91,104.49,50.79,105.51,52Z"/><path class="cls-2" d="M87.35,74.56S98.6,70.67,99.16,63.74s-9-7.77-9-7.77-16.3,6.25-12.5,12.5S83.76,76.15,87.35,74.56Z"/><path class="cls-3" d="M168.18,116.6s.25,30-10.75,32.5H143.68s-.25,5-12.5-21.5c0,0-.25-3.5.58-4.5"/><path class="cls-3" d="M89.62,120.41c1.39,3.11.55,8.8-1.12,20.19-.66,4.48-1.29,7.2-3.56,8.88-.94.7-2.52,1.22-9.31,1.25a54.15,54.15,0,0,1-11.81-1.25,52.1,52.1,0,0,1-7.12-23.38c-.36-6.61-.79-12,2.5-15.12"/><path class="cls-1" d="M1.67,71.41c.37,6.36,1,16.63,8.28,26,11.21,14.37,29.78,15.35,35.66,15.67a58.72,58.72,0,0,0,24.37-4,9.49,9.49,0,0,0,.1,1.54,11.82,11.82,0,0,0,1.58,4.21c1.3,2.45,2,3.68,2.37,3.84,2.74,1,7.6-6,8-6.58A31,31,0,0,0,86.58,99.9c.19-1.54.2-1.82.2-1.86,0-.93-.32-1.91.17-2.29a52,52,0,0,0,4.66-22.61c0-2.27-.11-4.63-.33-7.06,0-5.43,0-10.22-.14-14.48a92.5,92.5,0,0,0-.92-11.26c-1.28-8-4-12.18-7.27-15.26A20.9,20.9,0,0,0,80,22.82a9.67,9.67,0,0,0,1.25-4c.14-1.84-.26-4-2.5-7.5C77.7,9.62,71.6.18,67.15,1.66c-2,.68-2.92,3.43-3.62,5.62-1.77,5.6.42,8.53-1.17,10.8s-5.43,1.33-9.36.84a19.39,19.39,0,0,0-4.79-.13C37.64,20.17,25,21.56,15.61,30.08.07,44.15,1.34,65.78,1.67,71.41Z"/><path class="cls-2" d="M28.36,40.85c12.27,2.76,16.12-7.54,16.12-7.54l9.78-10.82-.85-3.1a16,16,0,0,0-4.34-.25c-9.64,1.11-21.13,2.17-29.92,10.44C19.14,29.58,16.1,38.08,28.36,40.85Z"/><path class="cls-2" d="M65,25.62S59.78,7.39,67.55,2.25c0,0,4.64,1.45,11.12,10.23l2.94,8L66.27,28.19Z"/><path class="cls-2" d="M62.86,50.83c.25,2.08,2.68,3,4.17,4.16a5.58,5.58,0,0,1,.56.51c1.4,1.25,2.43,6.6,2.18,21A24.11,24.11,0,0,1,71,85.66c-.28,4.54-2,9.59-2.36,14.25a27.74,27.74,0,0,0,0,3.75,14,14,0,0,0,.43,3.19,12.15,12.15,0,0,0,.9,2.28c6.36-2.51,12.59-6.56,16.8-13.12.06-.08.11-.17.17-.26,4.36-6.95,4.35-14.52,4.33-29.67,0-17.66,0-28.6-4.5-36.23a20.65,20.65,0,0,0-3.83-4.77,26.26,26.26,0,0,0-14.3-6.46c-2-.78-3.13-.47-3.73-.17-4.47,2.23,7,20,.8,27.62C64.59,47.45,62.63,48.84,62.86,50.83Z"/><path class="cls-4" d="M43.61,33.65a22.2,22.2,0,0,0,2.93,11.26c2.58,4.36,6.61,7.17,11.15,7.17,7.77,0,14.07-8.25,14.07-18.43s-6.3-18.43-14.07-18.43c-5.16,0-9.66,3.62-12.12,9A22.79,22.79,0,0,0,43.61,33.65Z"/><path class="cls-4" d="M41.11,68a22.06,22.06,0,0,0,1.69,8.55c2.59,6.15,7.88,10.36,14,10.36,8.65,0,15.67-8.47,15.67-18.91s-7-18.91-15.67-18.91c-5.28,0-10,3.15-12.79,8A21.55,21.55,0,0,0,41.11,68Z"/><path class="cls-5" d="M41.11,68a22.06,22.06,0,0,0,1.69,8.55,4.15,4.15,0,0,0,2.6,1c3.39,0,6.13-4.64,6.13-10.37S48.79,56.79,45.4,56.79a3.77,3.77,0,0,0-1.41.28A21.55,21.55,0,0,0,41.11,68Z"/><path class="cls-5" d="M43.61,33.65a22.2,22.2,0,0,0,2.93,11.26c3.31-.14,6-4.74,6-10.38s-2.75-10.37-6.13-10.37a3.75,3.75,0,0,0-.82.09A22.79,22.79,0,0,0,43.61,33.65Z"/><ellipse class="cls-5" cx="13.86" cy="53.33" rx="6.17" ry="8.42"/><ellipse class="cls-5" cx="13.86" cy="76.42" rx="6.17" ry="8.42"/><path class="cls-2" d="M86.78,99S83.28,117.59,74,118.71c0,0-3.5-3.37-5.37-14.12l1-8.5H86.78Z"/><path class="cls-6" d="M86.78,29.85c1.06,3,1.85,6.89,0,10-.91,1.51-1.91,1.93-2.74,2.78C79.76,47,84.75,58.51,86.36,63c2.51,7,4.09,9.88,2.52,12.17s-4.28,1.31-6,3.18S80.83,84.82,86.78,96l.17-.26c4.36-6.95,4.35-14.52,4.33-29.67C91.26,48.42,91.25,37.48,86.78,29.85Z"/><path class="cls-7" d="M91.23,74.57S75.4,78.9,72.4,64.07c0,0,8-4.67,6.66-19.67C79.06,44.4,95.4,50.58,91.23,74.57Z"/><path class="cls-8" d="M69.49,109.87a44.34,44.34,0,0,0-.8-5.3A19.65,19.65,0,0,1,69,98.22c.13-.6-2-.25-2.15.35a20.49,20.49,0,0,0-.45,5.77c.15,2.06.88,4,.87,6.11,0,.45,2.17.12,2.17-.58Z"/><path class="cls-7" d="M81.76,23.35s11.83,9.37,8.32,19.76c0,0-6,5.89-16,0,0,0-3.76-2.34-1.67-7.14a8.16,8.16,0,0,1,2.82-2.39c1.67-.84,2.51-.47,3.89-1.34a6.78,6.78,0,0,0,2.59-3.52A8.3,8.3,0,0,0,81.76,23.35Z"/></g></g></svg>