<?xml version="1.0" encoding="utf-8"?>
<!-- Generator: Adobe Illustrator 24.3.0, SVG Export Plug-In . SVG Version: 6.00 Build 0)  -->
<svg version="1.1" id="Layer_1" xmlns="http://www.w3.org/2000/svg" xmlns:xlink="http://www.w3.org/1999/xlink" x="0px" y="0px"
	 viewBox="0 0 186.9 186.9" style="enable-background:new 0 0 186.9 186.9;" xml:space="preserve">
<style type="text/css">
	.st0{fill:#515151;stroke:#2D2D2D;stroke-width:3;stroke-miterlimit:10;}
	.st1{fill:#989A9A;}
	.st2{fill:#FFFFFF;stroke:#2D2D2D;stroke-miterlimit:10;}
	.st3{fill:#212121;}
	.st4{opacity:0.23;fill:#230000;enable-background:new    ;}
	.st5{fill:#7E7069;stroke:#2D2D2D;stroke-miterlimit:10;}
</style>
<g id="Слой_2">
	<g id="Outlines">
		<path class="st0" d="M78,123.3h27.6c16.7,0,30.2-13.6,30.2-30.2V49.4c0-16.7-13.6-30.2-30.2-30.2H99V8.7c0-4-3.2-7.2-7.2-7.2
			c0,0,0,0,0,0l0,0c-4,0-7.2,3.2-7.2,7.2v10.5H78c-16.7,0-30.2,13.6-30.2,30.2v43.6C47.8,109.8,61.3,123.3,78,123.3z"/>
		<path class="st1" d="M98.9,93.3c-4.9-3.3-3.4-9.4-4.5-34.9C93.6,39,92,27.2,98.8,22.2c0.6-0.4,1.2-0.8,1.9-1.1
			c4.7-1,9.6-0.7,14.2,1c8.6,3.3,12.7,10.3,14.1,12.9c7.2,12.7,3.3,26.8,1.7,32.8c-1.8,6.5-5.5,19.8-16.8,24.9
			C111.8,93.6,104.3,96.9,98.9,93.3z"/>
		<path class="st1" d="M78.4,77c0,0,4,15.6-5.2,26.3s-18.4,3.4-18.4,3.4s-4.9-23.5,7-29.4S77.6,71.5,78.4,77z"/>
		<path class="st1" d="M69.1,33.1c0,0,2,7.8-2.6,13.2S57.3,48,57.3,48s-2.5-11.8,3.5-14.8S68.7,30.4,69.1,33.1z"/>
		<path class="st0" d="M104.5,184.3c-10.2,1.9-20.6,1.5-30.6-1.3c-6.3-1.8-11.3-3.3-16.3-7.7c-12.4-10.8-12.2-28.4-12.2-31.5
			c0.3-11.6,4.3-24.1,4-23.3c-0.8,1.5-2.6,4.3-5.6,5.2c-1,0.3-1.9,0.3-6-0.4c-5.1-0.9-7.7-1.4-7.9-2c-0.5-1.4,1.9-4.9,16.4-14.3
			c3.7-2.3,7.9-3.8,12.2-4.3c1.5-0.2,1.8-0.2,1.9-0.2c0.9,0,1.9,0.3,2.3-0.2c7.1-3.1,14.8-4.6,22.6-4.5c2.3,0,4.6,0.1,7.1,0.3
			c5.4,0,10.2,0,14.5,0.1c3.8,0.1,7.5,0.4,11.3,0.9c8,1.2,12.2,3.8,15.3,7c0.8,0.9,1.6,1.8,2.3,2.8c1.2-0.7,2.6-1.1,4-1.2
			c1.8-0.1,4,0.2,7.5,2.4c1.7,1,11.1,6.9,9.6,11.1c-0.7,2-3.4,2.8-5.6,3.5c-5.6,1.7-8.5-0.4-10.8,1.1c-2.3,1.5-1.3,5.2-0.8,9
			c0.2,1.9,0,2.9,0.1,4.6c0.1,2.4,0.8,20.5-8.8,31.7C124.4,180.6,115.4,182.2,104.5,184.3z"/>
		<path class="st1" d="M112.2,155.8c-0.1-4.5,1.9-6.6,2.7-9.4c1.2-4.1,0.4-10.8-9.1-21.7l35.6-3.1c-2.8,4-4,9-3.2,13.8
			c0,0.5-0.1,1.3-0.2,2.2c-0.4,3.7-1.2,7.3-2.4,10.9c-1.7,4.7-6.3,11.9-14.2,18.5C121.4,167,112.5,168.3,112.2,155.8z"/>
		<path class="st1" d="M106.3,134.2c-2.2,1.2-3.2,1.4-5.1,2.7c-1.2,0.9-2.4,2-3.5,3.1c-3.6,3-8.4,2.1-11.8,1.5
			c-4-0.7-7.7-2.5-10.8-5c-1.8-1.4-3.6-2.7-5.5-3.9c-5.8-3.6-8.7-5.4-12.3-5.2c-1.9,0.1-2.6,0.7-3.8,0c-2.7-1.5-2-6.2-4-6.8
			c-1.6-0.5-2.4,2.4-6,3.3c-1.2,0.3-2.5,0.2-5.1-0.2c-2.2-0.3-4.3-0.6-6.5-1.2c3.4-3.4,7-6.5,10.9-9.3c4.5-3.3,7.5-5.4,12-6.7
			c2.6-0.7,5.3-1,7.9-0.9c4.6-2.1,9.4-3.5,14.3-4.3c2.5-0.4,4.8-0.6,14.3-0.5c10.5,0.1,15.8,0.2,21.8,0.9c9.7,1.2,13.5,2.8,16.9,5.5
			c2,1.6,3.7,3.6,5.2,5.7c1.1-0.8,2.3-1.3,3.6-1.7c5.9-1.4,10.9,3.7,11.6,4.5c3.3,2,5.2,4.6,4.8,6.4c-0.4,1.7-2.6,2.3-4.6,2.9
			c-3.4,1-5.6,0.5-9,0.6c-2.7,0.1-2.9,0.4-8.1,1.2c-15.5,2.3-18.3,0.2-22.3,3.9C109.6,132.2,108,133.3,106.3,134.2z"/>
		<path class="st2" d="M74.2,146.2c-2.8,0-5.5-0.4-8.1-1.3c-5.8-2-9.9-6.2-9.9-11c0-6.8,8.1-12.3,18-12.3s18,5.5,18,12.3
			c0,4.1-3,7.8-7.6,10.1C81.4,145.5,77.8,146.3,74.2,146.2z"/>
		<path class="st3" d="M74.2,146.2c-2.8,0-5.5-0.4-8.1-1.3c-0.6-0.5-0.9-1.2-0.9-2c0-2.7,4.4-4.8,9.9-4.8s9.9,2.2,9.9,4.8
			c0,0.4-0.1,0.8-0.3,1.1C81.4,145.5,77.8,146.3,74.2,146.2z"/>
		<path class="st2" d="M110.3,146.2c-3.8,0-7.6-0.8-11.1-2.4c-4.3-2.1-7.1-5.4-7.1-9.2c0-6.4,8.1-11.6,18.1-11.6s18.1,5.2,18.1,11.6
			c0,4.2-3.6,7.9-8.9,10C116.6,145.8,113.5,146.3,110.3,146.2z"/>
		<path class="st3" d="M111.2,146.2c-3.8,0-7.6-0.8-11.1-2.4c0.1-2.7,4.7-4.9,10.2-4.9s10.2,2.3,10.2,5c0,0.2,0,0.5-0.1,0.7
			C117.5,145.7,114.4,146.3,111.2,146.2z"/>
		<path class="st4" d="M129,105.5c-3-1.1-6.9-1.8-10,0c-1.5,0.9-1.9,1.9-2.8,2.7c-4.4,4.3-15.9-0.7-20.4-2.3
			c-7-2.5-9.9-4.1-12.2-2.5c-2.3,1.6-1.3,4.3-3.2,6c-1.9,1.7-6.5,2.1-17.7-3.9l0.3-0.2c7-4.4,14.5-4.4,29.7-4.4
			C110.5,101.1,121.4,101.1,129,105.5z"/>
		<ellipse class="st3" cx="81.1" cy="170.3" rx="6.2" ry="4.9"/>
		<ellipse class="st3" cx="103.9" cy="170.3" rx="6.2" ry="4.9"/>
		<path class="st5" d="M113.9,97.9c0,0,11.8,9.4,8.3,19.8c0,0-6,5.9-16,0c0,0-3.8-2.3-1.7-7.1c0.7-1,1.7-1.8,2.8-2.4
			c1.7-0.8,2.5-0.5,3.9-1.3c1.2-0.9,2.1-2.1,2.6-3.5C114.5,101.6,114.5,99.7,113.9,97.9z"/>
		<path class="st5" d="M71.1,97.9c0,0-11.8,9.4-8.3,19.8c0,0,6,5.9,16,0c0,0,3.8-2.3,1.7-7.1c-0.7-1-1.7-1.8-2.8-2.4
			c-1.7-0.8-2.5-0.5-3.9-1.3c-1.2-0.9-2.1-2.1-2.6-3.5C70.5,101.6,70.5,99.7,71.1,97.9z"/>
	</g>
</g>
</svg>
