<?xml version="1.0" encoding="utf-8"?>
<!-- Generator: Adobe Illustrator 24.3.0, SVG Export Plug-In . SVG Version: 6.00 Build 0)  -->
<svg version="1.1" id="Layer_1" xmlns="http://www.w3.org/2000/svg" xmlns:xlink="http://www.w3.org/1999/xlink" x="0px" y="0px"
	 viewBox="0 0 196.4 196.4" style="enable-background:new 0 0 196.4 196.4;" xml:space="preserve">
<style type="text/css">
	.st0{fill:#515151;stroke:#2D2D2D;stroke-width:3;stroke-miterlimit:10;}
	.st1{fill:#989A9A;}
	.st2{fill:#515151;stroke:#2D2D2D;stroke-width:2;stroke-miterlimit:10;}
	.st3{fill:#FFFFFF;stroke:#2D2D2D;stroke-miterlimit:10;}
	.st4{fill:#212121;}
	.st5{opacity:0.23;fill:#230000;enable-background:new    ;}
	.st6{fill:#7E7069;stroke:#2D2D2D;stroke-miterlimit:10;}
	.st7{fill:#2D2D2D;}
</style>
<g id="Слой_2">
	<g id="Outlines">
		<path class="st0" d="M19.3,87.8c0,0-17.7,13.9-17.7,14.6s-0.8,14.8,2.5,15s15.2-4.5,15.2-4.5S26.4,103.2,19.3,87.8z"/>
		<path class="st0" d="M143.9,87.8v30.6c-0.1,19.2-15.6,34.8-34.8,34.8h-64c-14.2,0-25.8-11.6-25.8-25.8V87.8c0-2.7,0.3-5.4,0.9-8
			C24,64.1,38,53,54.1,53h55C128.3,53,143.9,68.6,143.9,87.8z"/>
		<path class="st1" d="M47.8,105.9c0,0,7.7-13.3,21.3-14s15.3,10.7,15.3,10.7S72.1,122,59.8,117.4S44.6,110.2,47.8,105.9z"/>
		<path class="st1" d="M85.3,119.4c0,0,8.8,19.5,16.8,16s15.8-17.7,12.5-20.2s-13.8-10-18.8-8.8S85.3,110.7,85.3,119.4z"/>
		<path class="st1" d="M85.1,75.3c-5,5.9-13.2,6-32.9,6.3c-14.2,0.2-28-0.8-30.7-1C25.3,65,39.3,53.9,55.5,53.8
			c19.1,1.4,31.9,7.1,32.7,14.1C88.6,71.3,86.1,74.1,85.1,75.3z"/>
		<path class="st1" d="M103.3,97.9c0,0-11.3-3.9-11.8-10.8s9-7.8,9-7.8s16.3,6.3,12.5,12.5S106.9,99.5,103.3,97.9z"/>
		<path class="st2" d="M22.4,139.9c0,0-0.2,30,10.8,32.5h13.7c0,0,0.2,5,12.5-21.5c0,0,0.2-3.5-0.6-4.5"/>
		<path class="st2" d="M101,143.8c-1.4,3.1-0.6,8.8,1.1,20.2c0.7,4.5,1.3,7.2,3.6,8.9c0.9,0.7,2.5,1.2,9.3,1.2c4,0,7.9-0.4,11.8-1.2
			c4.2-7.1,6.6-15.1,7.1-23.4c0.4-6.6,0.8-12-2.5-15.1"/>
		<path class="st0" d="M194.7,92.7c-0.4,6.4-1,16.6-8.3,26c-11.2,14.4-29.8,15.3-35.7,15.7c-8.3,0.4-16.6-1-24.4-4
			c0,0.5,0,1-0.1,1.5c-0.3,1.5-0.8,2.9-1.6,4.2c-1.3,2.4-2,3.7-2.4,3.8c-2.7,1-7.6-6-8-6.6c-2.4-3.7-3.9-7.9-4.6-12.2
			c-0.2-1.5-0.2-1.8-0.2-1.9c0-0.9,0.3-1.9-0.2-2.3c-3.2-7.1-4.8-14.8-4.7-22.6c0-2.3,0.1-4.6,0.3-7.1c0-5.4,0-10.2,0.1-14.5
			c0.1-3.8,0.4-7.5,0.9-11.3c1.3-8,4-12.2,7.3-15.3c0.9-0.8,1.9-1.6,2.9-2.3c-0.7-1.2-1.1-2.6-1.2-4c-0.1-1.8,0.3-4,2.5-7.5
			c1.1-1.7,7.2-11.1,11.6-9.6c2,0.7,2.9,3.4,3.6,5.6c1.8,5.6-0.4,8.5,1.2,10.8s5.4,1.3,9.4,0.8c1.6-0.2,3.2-0.3,4.8-0.1
			c10.6,1.4,23.2,2.8,32.6,11.3C196.3,65.5,195.1,87.1,194.7,92.7z"/>
		<path class="st1" d="M168,62.2c-12.3,2.8-16.1-7.5-16.1-7.5l-9.8-10.8l0.9-3.1c1.4-0.3,2.9-0.4,4.3-0.2
			c9.6,1.1,21.1,2.2,29.9,10.4C177.3,50.9,180.3,59.4,168,62.2z"/>
		<path class="st1" d="M131.4,47c0,0,5.2-18.2-2.6-23.4c0,0-4.6,1.5-11.1,10.2l-2.9,8l15.3,7.7L131.4,47z"/>
		<path class="st1" d="M133.6,72.2c-0.2,2.1-2.7,3-4.2,4.2c-0.2,0.2-0.4,0.3-0.6,0.5c-1.4,1.2-2.4,6.6-2.2,21c-1,2.9-1.4,6-1.3,9.1
			c0.3,4.5,2,9.6,2.4,14.2c0.1,1.2,0.1,2.5,0,3.8c0,1.1-0.2,2.1-0.4,3.2c-0.2,0.8-0.5,1.6-0.9,2.3c-6.4-2.5-12.6-6.6-16.8-13.1
			c-0.1-0.1-0.1-0.2-0.2-0.3c-4.4-6.9-4.3-14.5-4.3-29.7c0-17.7,0-28.6,4.5-36.2c1-1.8,2.3-3.4,3.8-4.8c4-3.6,9-5.8,14.3-6.5
			c2-0.8,3.1-0.5,3.7-0.2c4.5,2.2-7,20-0.8,27.6C131.8,68.8,133.8,70.2,133.6,72.2z"/>
		<path class="st3" d="M152.8,55c0,3.9-1,7.8-2.9,11.3c-2.6,4.4-6.6,7.2-11.1,7.2c-7.8,0-14.1-8.2-14.1-18.4s6.3-18.4,14.1-18.4
			c5.2,0,9.7,3.6,12.1,9C152.2,48.5,152.8,51.7,152.8,55z"/>
		<path class="st3" d="M155.3,89.3c0,2.9-0.6,5.8-1.7,8.6c-2.6,6.2-7.9,10.4-14,10.4c-8.6,0-15.6-8.5-15.6-18.9s7-18.9,15.7-18.9
			c5.3,0,10,3.2,12.8,8C154.4,81.7,155.3,85.5,155.3,89.3z"/>
		<path class="st4" d="M155.3,89.3c0,2.9-0.6,5.8-1.7,8.6c-0.7,0.6-1.6,1-2.6,1c-3.4,0-6.1-4.6-6.1-10.4s2.7-10.4,6.1-10.4
			c0.5,0,1,0.1,1.4,0.3C154.3,81.7,155.3,85.5,155.3,89.3z"/>
		<path class="st4" d="M152.8,55c0,3.9-1,7.8-2.9,11.3c-3.3-0.1-6-4.7-6-10.4s2.8-10.4,6.1-10.4c0.3,0,0.6,0,0.8,0.1
			C152.1,48.5,152.8,51.7,152.8,55z"/>
		<ellipse class="st4" cx="182.5" cy="74.7" rx="6.2" ry="8.4"/>
		<ellipse class="st4" cx="182.5" cy="97.8" rx="6.2" ry="8.4"/>
		<path class="st1" d="M109.6,120.3c0,0,3.5,18.6,12.8,19.7c0,0,3.5-3.4,5.4-14.1l-1-8.5h-17.1V120.3z"/>
		<path class="st5" d="M109.6,51.2c-1.1,3-1.8,6.9,0,10c0.9,1.5,1.9,1.9,2.7,2.8c4.3,4.4-0.7,15.9-2.4,20.4c-2.5,7-4.1,9.9-2.5,12.2
			s4.3,1.3,6,3.2s2.1,6.5-3.9,17.7l-0.2-0.3c-4.4-6.9-4.3-14.5-4.3-29.7C105.2,69.8,105.2,58.8,109.6,51.2z"/>
		<path class="st6" d="M105.8,63.4c0,0,15.8,4.3,18.8-10.5c0,0-8-4.7-6.7-19.7C118,33.2,101.6,39.4,105.8,63.4z"/>
		<path class="st7" d="M129.1,131.2c0-2.1,0.7-4,0.9-6.1c0.1-1.9,0-3.8-0.4-5.7c-0.1-0.6-2.3,0-2.2,0.6c0.5,2.2,0.6,4.5,0.3,6.8
			c-0.4,1.6-0.6,3.3-0.8,5C126.9,132.2,129.1,131.9,129.1,131.2L129.1,131.2z"/>
		<path class="st6" d="M114,77.3c0,0-11.8,9.4-8.3,19.8c0,0,6,5.9,16,0c0,0,3.8-2.3,1.7-7.1c-0.7-1-1.7-1.8-2.8-2.4
			c-1.7-0.8-2.5-0.5-3.9-1.3c-1.3-0.9-2.2-2.1-2.6-3.6C113.4,80.9,113.4,79.1,114,77.3z"/>
	</g>
</g>
</svg>
