<?xml version="1.0" encoding="utf-8"?>
<!-- Generator: Adobe Illustrator 24.3.0, SVG Export Plug-In . SVG Version: 6.00 Build 0)  -->
<svg version="1.1" id="Layer_1" xmlns="http://www.w3.org/2000/svg" xmlns:xlink="http://www.w3.org/1999/xlink" x="0px" y="0px"
	 viewBox="0 0 108.4 108.4" style="enable-background:new 0 0 108.4 108.4;" xml:space="preserve">
<style type="text/css">
	.st0{fill:#735C32;}
	.st1{fill:#2D2D2D;}
	.st2{fill:#907F3E;}
	.st3{fill:#B4A86B;}
	.st4{opacity:0.2;enable-background:new    ;}
</style>
<g id="Слой_2">
	<g id="Outlines">
		<path class="st0" d="M98.1,81.7c-1.4,0-2.7-0.2-4.1-0.5c-1-0.3-2-0.7-2.9-1.2l-0.5-0.3V31.1h12.3l0.1,0.9
			c0.6,7.9,2.3,29.3,3.6,32.7c1.8,4.5,0.1,14.1,0.1,14.5l-0.1,0.5L106,80C103.5,81.1,100.8,81.7,98.1,81.7z"/>
		<path class="st1" d="M101.9,32.1c0,0,2,28.7,3.7,33s0,14,0,14c-2.4,1-5,1.6-7.6,1.6c-1.3,0-2.5-0.2-3.8-0.5
			c-0.9-0.3-1.8-0.6-2.7-1.1v-47H101.9 M101.9,30.1H89.6v50.2l1,0.6c1,0.6,2,1,3.1,1.3c1.4,0.4,2.9,0.6,4.3,0.6
			c2.9,0,5.8-0.7,8.4-1.8l0.9-0.4l0.2-1c0.2-1,1.7-10.3-0.1-15.1c-1.1-3-2.8-21.5-3.5-32.4l-0.1-1.9L101.9,30.1z"/>
		<path class="st2" d="M99,54c-0.9,2.5-4.3,5.6-7.4,8.2V32.1h6.5c0.8,3,1.2,5.4,1.2,5.4S100.7,49.2,99,54z"/>
		<path class="st3" d="M96.7,34.3c-0.9,0-1.7-0.1-2.6-0.3c-1.1-0.2-2.1-0.7-2.9-1.4c-0.6-0.5-0.9-1.2-0.9-1.9c0-2,2.8-3.6,6.4-3.6
			s6.4,1.5,6.4,3.6S100.4,34.3,96.7,34.3z"/>
		<path class="st1" d="M96.7,27.9c3.1,0,5.7,1.3,5.7,2.8c0,1.6-2.5,2.8-5.7,2.8c-0.8,0-1.6-0.1-2.4-0.3c-0.9-0.2-1.8-0.6-2.6-1.2
			c-0.4-0.3-0.7-0.8-0.7-1.3C91,29.2,93.5,27.9,96.7,27.9 M96.7,26.4c-4.1,0-7.2,1.9-7.2,4.3c0,0.9,0.4,1.8,1.2,2.4
			c0.9,0.8,2,1.3,3.2,1.6c0.9,0.2,1.8,0.3,2.8,0.3c4.1,0,7.2-1.9,7.2-4.3S100.8,26.4,96.7,26.4L96.7,26.4z"/>
		<path class="st0" d="M44.6,82.7c-2.9,0.1-5.9-0.6-8.5-1.8c-1.4-0.7-2.7-1.5-3.8-2.5l-0.3-0.3V65.5l0.1-34l1.6,1.4
			c0.3,0.2,0.5,0.4,0.8,0.6c2.6,1.7,5.6,2.8,8.8,3.1c0.4,0,0.8,0,1.2,0c4.4-0.1,8.6-1.8,11.9-4.7l1.6-1.3l0.6,49L58,79.8
			C53.8,81.6,49.2,82.6,44.6,82.7z"/>
		<path class="st1" d="M57,32.6l0.6,46.3c-4.1,1.8-8.5,2.7-13,2.8c-2.8,0.1-5.6-0.5-8.1-1.7c-1.3-0.6-2.5-1.4-3.5-2.4V65.5L33,33.6
			c0.3,0.2,0.6,0.5,0.9,0.7c2.8,1.8,5.9,2.9,9.2,3.2c0.4,0,0.9,0,1.3,0C48.2,37.6,52.5,36.4,57,32.6 M59,28.4l-3.3,2.7
			c-3.1,2.8-7.1,4.4-11.3,4.5c-0.4,0-0.8,0-1.2,0c-3-0.3-5.8-1.3-8.3-3c-0.3-0.2-0.5-0.3-0.8-0.5L31,29.4v4.2v31.9v12.1v0.9l0.7,0.6
			c1.2,1.1,2.6,2,4.1,2.7c2.8,1.3,5.9,1.9,9,1.9c4.8-0.1,9.4-1.1,13.8-3l1.2-0.5v-1.3L59,32.6V28.4z"/>
		<path class="st3" d="M45.5,35h-1c-7.1-0.3-9.5-1.5-11.1-2.7c-0.8-0.5-1.4-1.4-1.5-2.4c0-1.1,0.9-2,2.6-2.9c1.9-0.9,4-1.3,6-1.3
			c0.9,0,1.9,0,3,0.1l2.7,0.1h1.1c3,0,5.2,0.1,8.1,1.4c1.7,0.8,2.8,1.4,2.8,2.5c0,1.5-1.9,2.3-4.2,3.3c-2.7,1.2-5.6,1.8-8.6,1.8
			L45.5,35z"/>
		<path class="st1" d="M40.7,26.5c1.6,0,3.4,0.1,5.7,0.2c3.6,0.1,5.8,0,8.9,1.4c1.6,0.8,2.4,1.2,2.4,1.9c0,1-1.8,1.8-3.7,2.6
			c-2.6,1.1-5.4,1.7-8.3,1.8h-0.2h-1c-7-0.3-9.2-1.4-10.6-2.6c-0.9-0.7-1.2-1.3-1.2-1.8c0-0.3,0.2-1.2,2.2-2.2
			C36.7,26.8,38.7,26.4,40.7,26.5 M40.7,25c-2.2-0.1-4.4,0.3-6.4,1.3c-2,1-3,2.2-3.1,3.5c0.1,1.2,0.7,2.3,1.8,3
			c1.9,1.5,4.6,2.6,11.5,2.9h1.1h0.2c3.1,0,6.1-0.6,8.9-1.9c2.4-1,4.7-2,4.6-4c0-1.7-1.8-2.5-3.3-3.2c-3-1.4-5.4-1.5-8.4-1.5l-1.1,0
			l-2.7-0.1C42.5,25.1,41.6,25,40.7,25L40.7,25z"/>
		<path class="st2" d="M45.3,54.1c-0.5,6.9-4.5,9.3-4.5,9.3l-5.2,1.4L33,65.5V33.6c0.3,0.2,0.6,0.5,0.9,0.7c2.8,1.8,5.9,2.9,9.2,3.2
			l0.4,0.5C43.6,38.1,45.9,47.2,45.3,54.1z"/>
		<path class="st0" d="M73.6,82.4c-6.1,0-11.1-1.4-15-4.2l-0.4-0.3V31.5l1.6,1c1,0.6,2,1.1,3,1.5c2.9,1.2,6,2,9.1,2.2
			c0.5,0,1,0,1.5,0c5.4,0,10.6-1.7,15-4.8l1.5-1l0.9,48.8L90,79.4c0,0-1,0.4-2.7,0.8C82.9,81.6,78.2,82.3,73.6,82.4z"/>
		<path class="st1" d="M88.9,32.3l0.8,46.2c0,0-1,0.4-2.6,0.8c-4.4,1.3-9,1.9-13.6,2c-4.9,0-10.2-1-14.4-4v-44c1,0.6,2,1.2,3.1,1.6
			c3,1.3,6.2,2.1,9.4,2.3c0.5,0,1,0,1.6,0C78.9,37.2,84.3,35.4,88.9,32.3 M90.8,28.5l-3.1,2.1c-4.2,3-9.2,4.6-14.4,4.7
			c-0.5,0-1,0-1.4,0c-3-0.2-6-0.9-8.7-2.1c-1-0.4-1.9-1-2.8-1.6l-3.1-2v48.7l0.8,0.6c4,2.9,9.3,4.4,15.5,4.4
			c4.8-0.1,9.5-0.8,14.1-2.1c1.7-0.5,2.7-0.8,2.7-0.9l1.3-0.5v-1.4l-0.9-46.2L90.8,28.5z"/>
		<path class="st3" d="M74.2,34.6h-0.9c-5.5-0.2-9.2-0.7-11.6-1.6c-0.7-0.3-1.4-0.6-2-1C59,31.4,58,30.6,58,29.5c0-1.1,1-2,2.9-2.8
			l0.3-0.1c2.4-0.9,4.9-1.3,7.5-1.2c1.1,0,2.3,0,3.7,0.1l3.3,0.1h1.4c3.7,0.1,6.4,0.1,9.9,1.4c2.1,0.8,3.4,1.4,3.5,2.5
			c0.1,1.6-2.3,2.4-5.1,3.4c-3.4,1.2-7,1.8-10.6,1.8H74.2z"/>
		<path class="st1" d="M68.7,26.1c1.9,0,4.2,0.1,7,0.2c4.4,0.1,7.2-0.1,11,1.4c2,0.8,3,1.2,3,1.9c0,1-2.3,1.8-4.6,2.6
			c-3.3,1.2-6.8,1.8-10.3,1.8h-0.2h-1.3c-6.2-0.2-9.4-0.9-11.3-1.6c-0.6-0.3-1.3-0.6-1.8-1c-1.1-0.7-1.5-1.2-1.5-1.8
			c0-0.3,0.2-1.1,2.5-2.1l0.3-0.1C63.8,26.4,66.2,26,68.7,26.1 M68.7,24.6c-2.7-0.1-5.3,0.3-7.8,1.3L60.6,26
			c-0.8,0.4-3.3,1.4-3.4,3.4c0,1.5,1.2,2.4,2.2,3.1c0.7,0.4,1.4,0.8,2.1,1.1c2.5,1,6.2,1.5,11.8,1.7h1.3h0.2c3.7,0,7.3-0.6,10.8-1.8
			c3-1.1,5.7-2,5.6-4.1c-0.1-1.7-2-2.5-4-3.2c-3.6-1.3-6.3-1.4-10.1-1.4l-1.4,0l-3.3-0.1C71,24.6,69.8,24.6,68.7,24.6z"/>
		<path class="st2" d="M74.4,53.7c-0.7,6.9-5.6,9.3-5.6,9.3l-4.7,1l-5,1.1V33.3c1,0.6,2,1.2,3.1,1.6c3,1.3,6.2,2.1,9.4,2.3l0.5,0.5
			C72.3,37.7,75.1,46.8,74.4,53.7z"/>
		<path class="st0" d="M15.4,82.7L15.4,82.7c-5.6-0.1-10.4-1.6-14-4.3L1,78.2l0.1-46.9l1.6,1.6c3.6,2.2,7.6,3.4,11.8,3.7
			c0.5,0,1,0,1.5,0c5.3,0,10.4-1.7,14.7-4.7l1.5-1.1L33,79.6l-0.7,0.2c-5.2,1.8-10.6,2.8-16.1,2.9L15.4,82.7z"/>
		<path class="st1" d="M31.2,32.6L32,78.9c-5.1,1.8-10.4,2.7-15.8,2.8h-0.4C11,81.6,6,80.6,2,77.6l0.1-44h0.1
			c3.7,2.3,7.9,3.6,12.3,3.9c0.5,0,1,0,1.6,0C21.5,37.5,26.8,35.8,31.2,32.6 M0.1,28.8v4.8L0,77.6v1l0.8,0.6
			c3.7,2.8,8.4,4.3,14.1,4.4l0,0h1.2c5.6-0.1,11.2-1.1,16.5-3l1.3-0.5v-1.4l-0.7-46.1l-0.1-3.7L30.1,31c-4.1,3-9,4.6-14.1,4.6
			c-0.5,0-1,0-1.5,0c-4-0.3-7.8-1.5-11.2-3.5L0.1,28.8z"/>
		<path class="st3" d="M17.3,35H16c-8.6-0.3-11.5-1.5-13.3-2.7c-0.9-0.6-1.8-1.4-1.8-2.4s1.1-2.1,3.2-2.9c2.3-0.9,4.8-1.3,7.2-1.2
			c1.1,0,2.3,0,3.6,0.1c1,0,2.1,0.1,3.4,0.1h1.4c2,0,4.1,0.1,6.1,0.4c1.2,0.2,2.4,0.5,3.6,1c2.1,0.8,3.4,1.4,3.4,2.6
			c0,1.6-2.3,2.4-5,3.4c-3.3,1.2-6.7,1.8-10.2,1.8H17.3z"/>
		<path class="st1" d="M11.3,26.5c1.9,0,4.2,0.1,7,0.2c2.5,0,4.9,0.1,7.4,0.4c1.2,0.2,2.3,0.6,3.5,1c2,0.8,2.9,1.2,2.9,1.9
			c0,1-2.2,1.8-4.5,2.6c-3.2,1.1-6.6,1.7-10,1.7h-0.3l-1.3,0C7.6,34,4.9,32.8,3.1,31.6c-1.1-0.7-1.5-1.2-1.5-1.8
			c0-0.3,0.2-1.2,2.7-2.2C6.6,26.8,9,26.4,11.3,26.5 M11.4,25c-2.6-0.1-5.2,0.3-7.6,1.2c-0.9,0.4-3.6,1.5-3.6,3.6
			c0,1.5,1.1,2.4,2.1,3.1c2.2,1.5,5.4,2.5,13.7,2.8h1.3h0.3c3.6,0,7.1-0.6,10.5-1.8c3-1.1,5.6-2,5.5-4.1c0-1.7-1.9-2.5-3.9-3.2
			c-1.2-0.5-2.5-0.8-3.8-1c-2-0.3-4.1-0.5-6.2-0.5h-1.4c-1.2,0-2.3-0.1-3.3-0.1C13.6,25.1,12.5,25,11.4,25L11.4,25z"/>
		<path class="st2" d="M17,54.1c-2.4,5.1-8.4,6.5-8.6,11.7C8.2,68.7,10,70,9.2,72.4c-0.9,2.9-4.3,4.4-7.2,5.2l0.1-44
			c3.7,2.3,8,3.6,12.3,3.9l0.5,0.5C19.1,46.4,18.4,51.2,17,54.1z"/>
		<path class="st4" d="M35.6,64.8c-0.1,1.7-0.1,3.5,0,5.2c0.5,3.3,0.8,6.7,0.9,10c-1.3-0.6-2.5-1.4-3.6-2.4V65.5L33,33.6
			c0.3,0.2,0.6,0.5,0.9,0.7c0.4,2.4,2.7,14.9,2.6,16.5C36.4,52,35.8,59.5,35.6,64.8z"/>
		<path class="st4" d="M87.1,79.3c-5.6,1.6-19.1,4.5-27.9-2v-44c1,0.6,2,1.2,3.1,1.6c-0.1,4.3-0.4,20.7,1.4,24
			c0.6,1.6,0.8,3.4,0.4,5.1c-0.5,4-2,8.4-1.2,8.7c1.2,0.5,7.6,4.3,15.7,4.8C81.6,77.7,84.4,78.3,87.1,79.3z"/>
		<path class="st4" d="M15.7,81.7C11,81.6,6,80.6,2,77.6l0.1-44h0.1c0.5,0.5,4.1,3.7,3.2,7.7c-1,4.4-2.7,17.2-2.4,18.8
			S2.2,76.5,6.9,78.7C9.7,80.1,12.7,81.1,15.7,81.7z"/>
		<path class="st4" d="M94.3,34.8v45.4c-0.9-0.3-1.8-0.6-2.7-1.1V33.6h0.1C92.5,34.2,93.3,34.6,94.3,34.8z"/>
	</g>
</g>
</svg>
