<?xml version="1.0" encoding="utf-8"?>
<!-- Generator: Adobe Illustrator 24.3.0, SVG Export Plug-In . SVG Version: 6.00 Build 0)  -->
<svg version="1.1" id="Layer_1" xmlns="http://www.w3.org/2000/svg" xmlns:xlink="http://www.w3.org/1999/xlink" x="0px" y="0px"
	 viewBox="0 0 2000 1400" style="enable-background:new 0 0 2000 1400;" xml:space="preserve">
<style type="text/css">
	.st0{fill:#006400;}
	.st1{fill:#19A319;}
	.st2{fill:#007700;}
</style>
<g id="Layer_1">
	<g>
		<g>
			<rect class="st0" width="2000" height="1400"/>
			<path class="st0" d="M1999,1v1398H1V1H1999 M2000,0H0v1400h2000V0L2000,0z"/>
		</g>
		<g>
			<g>
				<g>
					<rect x="1700" y="1100" class="st0" width="100" height="100"/>
					<rect x="1400" y="700" class="st0" width="100" height="100"/>
					<rect x="1400" y="500" class="st0" width="100" height="100"/>
					<rect x="1200" y="500" class="st0" width="100" height="100"/>
					<rect x="1300" y="600" class="st0" width="100" height="100"/>
					<rect x="1200" y="700" class="st0" width="100" height="100"/>
					<rect x="800" y="700" class="st0" width="100" height="100"/>
					<rect x="1100" y="600" class="st0" width="100" height="100"/>
					<rect x="1000" y="700" class="st0" width="100" height="100"/>
					<rect x="1000" y="500" class="st0" width="100" height="100"/>
					<rect x="900" y="600" class="st0" width="100" height="100"/>
					<rect x="500" y="600" class="st0" width="100" height="100"/>
					<rect x="800" y="500" class="st0" width="100" height="100"/>
					<rect x="700" y="600" class="st0" width="100" height="100"/>
					<rect x="600" y="500" class="st0" width="100" height="100"/>
					<rect x="400" y="500" class="st0" width="100" height="100"/>
					<rect x="400" y="900" class="st0" width="100" height="100"/>
					<rect x="400" y="700" class="st0" width="100" height="100"/>
					<rect x="600" y="700" class="st0" width="100" height="100"/>
					<rect x="500" y="800" class="st0" width="100" height="100"/>
					<rect x="600" y="900" class="st0" width="100" height="100"/>
					<rect x="700" y="800" class="st0" width="100" height="100"/>
					<rect x="800" y="900" class="st0" width="100" height="100"/>
					<rect x="900" y="800" class="st0" width="100" height="100"/>
					<rect x="1000" y="900" class="st0" width="100" height="100"/>
					<rect x="1100" y="800" class="st0" width="100" height="100"/>
					<rect x="1200" y="900" class="st0" width="100" height="100"/>
					<rect x="1300" y="800" class="st0" width="100" height="100"/>
					<rect x="1400" y="900" class="st0" width="100" height="100"/>
					<rect x="1500" y="800" class="st0" width="100" height="100"/>
					<rect x="1500" y="600" class="st0" width="100" height="100"/>
					<rect x="1500" y="400" class="st0" width="100" height="100"/>
					<rect x="1400" y="300" class="st0" width="100" height="100"/>
					<rect x="1300" y="400" class="st0" width="100" height="100"/>
					<rect x="1200" y="300" class="st0" width="100" height="100"/>
					<rect x="1100" y="400" class="st0" width="100" height="100"/>
					<rect x="1000" y="300" class="st0" width="100" height="100"/>
					<rect x="900" y="400" class="st0" width="100" height="100"/>
					<rect x="800" y="300" class="st0" width="100" height="100"/>
					<rect x="700" y="400" class="st0" width="100" height="100"/>
					<rect x="600" y="300" class="st0" width="100" height="100"/>
					<rect x="500" y="400" class="st0" width="100" height="100"/>
					<rect x="400" y="300" class="st0" width="100" height="100"/>
					<rect x="200" y="300" class="st0" width="100" height="100"/>
					<rect x="300" y="400" class="st0" width="100" height="100"/>
					<rect x="200" y="500" class="st0" width="100" height="100"/>
					<rect x="300" y="600" class="st0" width="100" height="100"/>
					<rect x="200" y="700" class="st0" width="100" height="100"/>
					<rect x="300" y="800" class="st0" width="100" height="100"/>
					<rect x="200" y="900" class="st0" width="100" height="100"/>
					<rect x="200" y="1100" class="st0" width="100" height="100"/>
					<rect x="300" y="1000" class="st0" width="100" height="100"/>
					<rect x="400" y="1100" class="st0" width="100" height="100"/>
					<rect x="500" y="1000" class="st0" width="100" height="100"/>
					<rect x="600" y="1100" class="st0" width="100" height="100"/>
					<rect x="700" y="1000" class="st0" width="100" height="100"/>
					<rect x="800" y="1100" class="st0" width="100" height="100"/>
					<rect x="900" y="1000" class="st0" width="100" height="100"/>
					<rect x="1000" y="1100" class="st0" width="100" height="100"/>
					<rect x="1100" y="1000" class="st0" width="100" height="100"/>
					<rect x="1200" y="1100" class="st0" width="100" height="100"/>
					<rect x="1300" y="1000" class="st0" width="100" height="100"/>
					<rect x="1400" y="1100" class="st0" width="100" height="100"/>
					<rect x="1500" y="1000" class="st0" width="100" height="100"/>
					<rect x="1600" y="1100" class="st0" width="100" height="100"/>
					<rect x="1700" y="1000" class="st0" width="100" height="100"/>
					<rect x="1600" y="900" class="st0" width="100" height="100"/>
					<rect x="1700" y="800" class="st0" width="100" height="100"/>
					<rect x="1600" y="700" class="st0" width="100" height="100"/>
					<rect x="1700" y="600" class="st0" width="100" height="100"/>
					<rect x="1600" y="500" class="st0" width="100" height="100"/>
					<rect x="1700" y="400" class="st0" width="100" height="100"/>
					<rect x="1600" y="300" class="st0" width="100" height="100"/>
					<rect x="1700" y="200" class="st0" width="100" height="100"/>
					<rect x="1600" y="100" class="st0" width="100" height="100"/>
					<rect x="1500" y="200" class="st0" width="100" height="100"/>
					<rect x="1400" y="100" class="st0" width="100" height="100"/>
					<rect x="1300" y="200" class="st0" width="100" height="100"/>
					<rect x="1200" y="100" class="st0" width="100" height="100"/>
					<rect x="1100" y="200" class="st0" width="100" height="100"/>
					<rect x="1000" y="100" class="st0" width="100" height="100"/>
					<rect x="900" y="200" class="st0" width="100" height="100"/>
					<rect x="800" y="100" class="st0" width="100" height="100"/>
					<rect x="700" y="200" class="st0" width="100" height="100"/>
					<rect x="600" y="100" class="st0" width="100" height="100"/>
					<rect x="500" y="200" class="st0" width="100" height="100"/>
					<rect x="400" y="100" class="st0" width="100" height="100"/>
					<rect x="300" y="200" class="st0" width="100" height="100"/>
					<rect x="200" y="100" class="st0" width="100" height="100"/>
					<rect y="100" class="st0" width="100" height="100"/>
					<rect x="100" y="200" class="st0" width="100" height="100"/>
					<rect y="300" class="st0" width="100" height="100"/>
					<rect x="100" y="400" class="st0" width="100" height="100"/>
					<rect y="500" class="st0" width="100" height="100"/>
					<rect x="100" y="600" class="st0" width="100" height="100"/>
					<rect y="700" class="st0" width="100" height="100"/>
					<rect x="100" y="800" class="st0" width="100" height="100"/>
					<rect y="900" class="st0" width="100" height="100"/>
					<rect x="100" y="1000" class="st0" width="100" height="100"/>
					<rect y="1100" class="st0" width="100" height="100"/>
					<rect y="1300" class="st0" width="100" height="100"/>
					<rect x="100" y="1200" class="st0" width="100" height="100"/>
					<rect x="200" y="1300" class="st0" width="100" height="100"/>
					<rect x="300" y="1200" class="st0" width="100" height="100"/>
					<rect x="400" y="1300" class="st0" width="100" height="100"/>
					<rect x="500" y="1200" class="st0" width="100" height="100"/>
					<rect x="600" y="1300" class="st0" width="100" height="100"/>
					<rect x="700" y="1200" class="st0" width="100" height="100"/>
					<rect x="800" y="1300" class="st0" width="100" height="100"/>
					<rect x="900" y="1200" class="st0" width="100" height="100"/>
					<rect x="1000" y="1300" class="st0" width="100" height="100"/>
					<rect x="1100" y="1200" class="st0" width="100" height="100"/>
					<rect x="1200" y="1300" class="st0" width="100" height="100"/>
					<rect x="1300" y="1200" class="st0" width="100" height="100"/>
					<rect x="1400" y="1300" class="st0" width="100" height="100"/>
					<rect x="1500" y="1200" class="st0" width="100" height="100"/>
					<rect x="1600" y="1300" class="st0" width="100" height="100"/>
					<rect x="1700" y="1200" class="st0" width="100" height="100"/>
					<rect x="1800" y="1300" class="st0" width="100" height="100"/>
					<rect x="1900" y="1200" class="st0" width="100" height="100"/>
					<rect x="1800" y="1100" class="st0" width="100" height="100"/>
					<rect x="1900" y="1000" class="st0" width="100" height="100"/>
					<rect x="1800" y="900" class="st0" width="100" height="100"/>
					<rect x="1900" y="800" class="st0" width="100" height="100"/>
					<rect x="1800" y="700" class="st0" width="100" height="100"/>
					<rect x="1900" y="600" class="st0" width="100" height="100"/>
					<rect x="1800" y="500" class="st0" width="100" height="100"/>
					<rect x="1900" y="400" class="st0" width="100" height="100"/>
					<rect x="1800" y="300" class="st0" width="100" height="100"/>
					<rect x="1900" y="200" class="st0" width="100" height="100"/>
					<rect x="1800" y="100" class="st0" width="100" height="100"/>
					<rect x="1900" class="st0" width="100" height="100"/>
					<rect x="1700" class="st0" width="100" height="100"/>
					<rect x="1500" class="st0" width="100" height="100"/>
					<rect x="1300" class="st0" width="100" height="100"/>
					<rect x="1100" class="st0" width="100" height="100"/>
					<rect x="900" class="st0" width="100" height="100"/>
					<rect x="700" class="st0" width="100" height="100"/>
					<rect x="500" class="st0" width="100" height="100"/>
					<rect x="1900" y="1300" class="st0" width="100" height="100"/>
					<rect x="1900" y="1100" class="st0" width="100" height="100"/>
					<rect x="1900" y="900" class="st0" width="100" height="100"/>
					<rect x="1900" y="700" class="st0" width="100" height="100"/>
					<rect x="1900" y="500" class="st0" width="100" height="100"/>
					<rect x="1900" y="300" class="st0" width="100" height="100"/>
					<rect x="1900" y="100" class="st0" width="100" height="100"/>
					<rect x="1800" y="1200" class="st0" width="100" height="100"/>
					<rect x="1800" y="1000" class="st0" width="100" height="100"/>
					<rect x="1800" y="800" class="st0" width="100" height="100"/>
					<rect x="1800" y="600" class="st0" width="100" height="100"/>
					<rect x="1800" y="400" class="st0" width="100" height="100"/>
					<rect x="1800" y="200" class="st0" width="100" height="100"/>
					<rect x="1800" class="st0" width="100" height="100"/>
					<rect x="1700" y="1300" class="st0" width="100" height="100"/>
					<rect x="1700" y="900" class="st0" width="100" height="100"/>
					<rect x="1700" y="700" class="st0" width="100" height="100"/>
					<rect x="1700" y="500" class="st0" width="100" height="100"/>
					<rect x="1700" y="300" class="st0" width="100" height="100"/>
					<rect x="1700" y="100" class="st0" width="100" height="100"/>
					<rect x="1600" y="1200" class="st0" width="100" height="100"/>
					<rect x="1600" y="1000" class="st0" width="100" height="100"/>
					<rect x="1600" y="800" class="st0" width="100" height="100"/>
					<rect x="1600" y="600" class="st0" width="100" height="100"/>
					<rect x="1600" y="400" class="st0" width="100" height="100"/>
					<rect x="1600" y="200" class="st0" width="100" height="100"/>
					<rect x="1600" class="st0" width="100" height="100"/>
					<rect x="1500" y="1300" class="st0" width="100" height="100"/>
					<rect x="1500" y="1100" class="st0" width="100" height="100"/>
					<rect x="1500" y="900" class="st0" width="100" height="100"/>
					<rect x="1500" y="700" class="st0" width="100" height="100"/>
					<rect x="1500" y="500" class="st0" width="100" height="100"/>
					<rect x="1500" y="300" class="st0" width="100" height="100"/>
					<rect x="1500" y="100" class="st0" width="100" height="100"/>
					<rect x="1400" y="1200" class="st0" width="100" height="100"/>
					<rect x="1400" y="1000" class="st0" width="100" height="100"/>
					<rect x="1400" y="800" class="st0" width="100" height="100"/>
					<rect x="1400" y="600" class="st0" width="100" height="100"/>
					<rect x="1400" y="400" class="st0" width="100" height="100"/>
					<rect x="1400" y="200" class="st0" width="100" height="100"/>
					<rect x="1400" class="st0" width="100" height="100"/>
					<rect x="1300" y="1300" class="st0" width="100" height="100"/>
					<rect x="1300" y="1100" class="st0" width="100" height="100"/>
					<rect x="1300" y="900" class="st0" width="100" height="100"/>
					<rect x="1300" y="700" class="st0" width="100" height="100"/>
					<rect x="1300" y="500" class="st0" width="100" height="100"/>
					<rect x="1300" y="300" class="st0" width="100" height="100"/>
					<rect x="1300" y="100" class="st0" width="100" height="100"/>
					<rect x="1200" y="1200" class="st0" width="100" height="100"/>
					<rect x="1200" y="1000" class="st0" width="100" height="100"/>
					<rect x="1200" y="800" class="st0" width="100" height="100"/>
					<rect x="1200" y="600" class="st0" width="100" height="100"/>
					<rect x="1200" y="400" class="st0" width="100" height="100"/>
					<rect x="1200" y="200" class="st0" width="100" height="100"/>
					<rect x="1200" class="st0" width="100" height="100"/>
					<rect x="1100" y="1300" class="st0" width="100" height="100"/>
					<rect x="1100" y="1100" class="st0" width="100" height="100"/>
					<rect x="1100" y="900" class="st0" width="100" height="100"/>
					<rect x="1100" y="700" class="st0" width="100" height="100"/>
					<rect x="1100" y="500" class="st0" width="100" height="100"/>
					<rect x="1100" y="300" class="st0" width="100" height="100"/>
					<rect x="1100" y="100" class="st0" width="100" height="100"/>
					<rect x="1000" y="1200" class="st0" width="100" height="100"/>
					<rect x="1000" y="1000" class="st0" width="100" height="100"/>
					<rect x="1000" y="800" class="st0" width="100" height="100"/>
					<rect x="1000" y="600" class="st0" width="100" height="100"/>
					<rect x="1000" y="400" class="st0" width="100" height="100"/>
					<rect x="1000" y="200" class="st0" width="100" height="100"/>
					<rect x="1000" class="st0" width="100" height="100"/>
					<rect x="900" y="1300" class="st0" width="100" height="100"/>
					<rect x="900" y="1100" class="st0" width="100" height="100"/>
					<rect x="900" y="900" class="st0" width="100" height="100"/>
					<rect x="900" y="700" class="st0" width="100" height="100"/>
					<rect x="900" y="500" class="st0" width="100" height="100"/>
					<rect x="900" y="300" class="st0" width="100" height="100"/>
					<rect x="900" y="100" class="st0" width="100" height="100"/>
					<rect x="800" y="1200" class="st0" width="100" height="100"/>
					<rect x="800" y="1000" class="st0" width="100" height="100"/>
					<rect x="800" y="800" class="st0" width="100" height="100"/>
					<rect x="800" y="600" class="st0" width="100" height="100"/>
					<rect x="800" y="400" class="st0" width="100" height="100"/>
					<rect x="800" y="200" class="st0" width="100" height="100"/>
					<rect x="800" class="st0" width="100" height="100"/>
					<rect x="700" y="1300" class="st0" width="100" height="100"/>
					<rect x="700" y="1100" class="st0" width="100" height="100"/>
					<rect x="700" y="900" class="st0" width="100" height="100"/>
					<rect x="700" y="700" class="st0" width="100" height="100"/>
					<rect x="700" y="500" class="st0" width="100" height="100"/>
					<rect x="700" y="300" class="st0" width="100" height="100"/>
					<rect x="700" y="100" class="st0" width="100" height="100"/>
					<rect x="600" y="1200" class="st0" width="100" height="100"/>
					<rect x="600" y="1000" class="st0" width="100" height="100"/>
					<rect x="600" y="800" class="st0" width="100" height="100"/>
					<rect x="600" y="600" class="st0" width="100" height="100"/>
					<rect x="600" y="400" class="st0" width="100" height="100"/>
					<rect x="600" y="200" class="st0" width="100" height="100"/>
					<rect x="600" class="st0" width="100" height="100"/>
					<rect x="500" y="1300" class="st0" width="100" height="100"/>
					<rect x="500" y="1100" class="st0" width="100" height="100"/>
					<rect x="500" y="900" class="st0" width="100" height="100"/>
					<rect x="500" y="700" class="st0" width="100" height="100"/>
					<rect x="500" y="500" class="st0" width="100" height="100"/>
					<rect x="500" y="300" class="st0" width="100" height="100"/>
					<rect x="500" y="100" class="st0" width="100" height="100"/>
					<rect x="400" y="1200" class="st0" width="100" height="100"/>
					<rect x="400" y="1000" class="st0" width="100" height="100"/>
					<rect x="400" y="800" class="st0" width="100" height="100"/>
					<rect x="400" y="600" class="st0" width="100" height="100"/>
					<rect x="400" y="400" class="st0" width="100" height="100"/>
					<rect x="400" y="200" class="st0" width="100" height="100"/>
					<rect x="400" class="st0" width="100" height="100"/>
					<rect x="300" y="1300" class="st0" width="100" height="100"/>
					<rect x="300" y="1100" class="st0" width="100" height="100"/>
					<rect x="300" y="900" class="st0" width="100" height="100"/>
					<rect x="300" y="700" class="st0" width="100" height="100"/>
					<rect x="300" y="500" class="st0" width="100" height="100"/>
					<rect x="300" y="300" class="st0" width="100" height="100"/>
					<rect x="300" y="100" class="st0" width="100" height="100"/>
					<rect x="300" class="st0" width="100" height="100"/>
					<rect x="200" y="1200" class="st0" width="100" height="100"/>
					<rect x="200" y="1000" class="st0" width="100" height="100"/>
					<rect x="200" y="800" class="st0" width="100" height="100"/>
					<rect x="200" y="600" class="st0" width="100" height="100"/>
					<rect x="200" y="400" class="st0" width="100" height="100"/>
					<rect x="200" y="200" class="st0" width="100" height="100"/>
					<rect x="200" class="st0" width="100" height="100"/>
					<rect x="100" y="1300" class="st0" width="100" height="100"/>
					<rect x="100" y="1100" class="st0" width="100" height="100"/>
					<rect x="100" y="900" class="st0" width="100" height="100"/>
					<rect x="100" y="700" class="st0" width="100" height="100"/>
					<rect x="100" y="500" class="st0" width="100" height="100"/>
					<rect x="100" y="300" class="st0" width="100" height="100"/>
					<rect x="100" y="100" class="st0" width="100" height="100"/>
					<rect x="100" class="st0" width="100" height="100"/>
					<rect y="1200" class="st0" width="100" height="100"/>
					<rect y="1000" class="st0" width="100" height="100"/>
					<rect y="800" class="st0" width="100" height="100"/>
					<rect y="600" class="st0" width="100" height="100"/>
					<rect y="400" class="st0" width="100" height="100"/>
					<rect y="200" class="st0" width="100" height="100"/>
					<rect class="st0" width="100" height="100"/>
				</g>
			</g>
		</g>
	</g>
	<g>
		<g>
			<rect class="st0" width="2000" height="1400"/>
		</g>
		<g>
			<g>
				<g>
					<rect x="1700" y="1100" class="st1" width="100" height="100"/>
					<rect x="1400" y="700" class="st2" width="100" height="100"/>
					<rect x="1400" y="500" class="st2" width="100" height="100"/>
					<rect x="1200" y="500" class="st2" width="100" height="100"/>
					<rect x="1300" y="600" class="st2" width="100" height="100"/>
					<rect x="1200" y="700" class="st2" width="100" height="100"/>
					<rect x="800" y="700" class="st2" width="100" height="100"/>
					<rect x="1100" y="600" class="st2" width="100" height="100"/>
					<rect x="1000" y="700" class="st2" width="100" height="100"/>
					<rect x="1000" y="500" class="st2" width="100" height="100"/>
					<rect x="900" y="600" class="st2" width="100" height="100"/>
					<rect x="500" y="600" class="st2" width="100" height="100"/>
					<rect x="800" y="500" class="st2" width="100" height="100"/>
					<rect x="700" y="600" class="st2" width="100" height="100"/>
					<rect x="600" y="500" class="st2" width="100" height="100"/>
					<rect x="400" y="500" class="st2" width="100" height="100"/>
					<rect x="400" y="900" class="st2" width="100" height="100"/>
					<rect x="400" y="700" class="st2" width="100" height="100"/>
					<rect x="600" y="700" class="st2" width="100" height="100"/>
					<rect x="500" y="800" class="st2" width="100" height="100"/>
					<rect x="600" y="900" class="st2" width="100" height="100"/>
					<rect x="700" y="800" class="st2" width="100" height="100"/>
					<rect x="800" y="900" class="st2" width="100" height="100"/>
					<rect x="900" y="800" class="st2" width="100" height="100"/>
					<rect x="1000" y="900" class="st2" width="100" height="100"/>
					<rect x="1100" y="800" class="st2" width="100" height="100"/>
					<rect x="1200" y="900" class="st2" width="100" height="100"/>
					<rect x="1300" y="800" class="st2" width="100" height="100"/>
					<rect x="1400" y="900" class="st2" width="100" height="100"/>
					<rect x="1500" y="800" class="st2" width="100" height="100"/>
					<rect x="1500" y="600" class="st2" width="100" height="100"/>
					<rect x="1500" y="400" class="st2" width="100" height="100"/>
					<rect x="1400" y="300" class="st2" width="100" height="100"/>
					<rect x="1300" y="400" class="st2" width="100" height="100"/>
					<rect x="1200" y="300" class="st2" width="100" height="100"/>
					<rect x="1100" y="400" class="st2" width="100" height="100"/>
					<rect x="1000" y="300" class="st2" width="100" height="100"/>
					<rect x="900" y="400" class="st2" width="100" height="100"/>
					<rect x="800" y="300" class="st2" width="100" height="100"/>
					<rect x="700" y="400" class="st2" width="100" height="100"/>
					<rect x="600" y="300" class="st2" width="100" height="100"/>
					<rect x="500" y="400" class="st2" width="100" height="100"/>
					<rect x="400" y="300" class="st2" width="100" height="100"/>
					<rect x="200" y="300" class="st2" width="100" height="100"/>
					<rect x="300" y="400" class="st2" width="100" height="100"/>
					<rect x="200" y="500" class="st2" width="100" height="100"/>
					<rect x="300" y="600" class="st2" width="100" height="100"/>
					<rect x="200" y="700" class="st2" width="100" height="100"/>
					<rect x="300" y="800" class="st2" width="100" height="100"/>
					<rect x="200" y="900" class="st2" width="100" height="100"/>
					<rect x="200" y="1100" class="st2" width="100" height="100"/>
					<rect x="300" y="1000" class="st2" width="100" height="100"/>
					<rect x="400" y="1100" class="st2" width="100" height="100"/>
					<rect x="500" y="1000" class="st2" width="100" height="100"/>
					<rect x="600" y="1100" class="st2" width="100" height="100"/>
					<rect x="700" y="1000" class="st2" width="100" height="100"/>
					<rect x="800" y="1100" class="st2" width="100" height="100"/>
					<rect x="900" y="1000" class="st2" width="100" height="100"/>
					<rect x="1000" y="1100" class="st2" width="100" height="100"/>
					<rect x="1100" y="1000" class="st2" width="100" height="100"/>
					<rect x="1200" y="1100" class="st2" width="100" height="100"/>
					<rect x="1300" y="1000" class="st2" width="100" height="100"/>
					<rect x="1400" y="1100" class="st2" width="100" height="100"/>
					<rect x="1500" y="1000" class="st2" width="100" height="100"/>
					<rect x="1600" y="1100" class="st2" width="100" height="100"/>
					<rect x="1700" y="1000" class="st2" width="100" height="100"/>
					<rect x="1600" y="900" class="st2" width="100" height="100"/>
					<rect x="1700" y="800" class="st2" width="100" height="100"/>
					<rect x="1600" y="700" class="st2" width="100" height="100"/>
					<rect x="1700" y="600" class="st2" width="100" height="100"/>
					<rect x="1600" y="500" class="st2" width="100" height="100"/>
					<rect x="1700" y="400" class="st2" width="100" height="100"/>
					<rect x="1600" y="300" class="st2" width="100" height="100"/>
					<rect x="1700" y="200" class="st2" width="100" height="100"/>
					<rect x="1600" y="100" class="st2" width="100" height="100"/>
					<rect x="1500" y="200" class="st2" width="100" height="100"/>
					<rect x="1400" y="100" class="st2" width="100" height="100"/>
					<rect x="1300" y="200" class="st2" width="100" height="100"/>
					<rect x="1200" y="100" class="st2" width="100" height="100"/>
					<rect x="1100" y="200" class="st2" width="100" height="100"/>
					<rect x="1000" y="100" class="st2" width="100" height="100"/>
					<rect x="900" y="200" class="st2" width="100" height="100"/>
					<rect x="800" y="100" class="st2" width="100" height="100"/>
					<rect x="700" y="200" class="st2" width="100" height="100"/>
					<rect x="600" y="100" class="st2" width="100" height="100"/>
					<rect x="500" y="200" class="st2" width="100" height="100"/>
					<rect x="400" y="100" class="st2" width="100" height="100"/>
					<rect x="300" y="200" class="st2" width="100" height="100"/>
					<rect x="200" y="100" class="st2" width="100" height="100"/>
					<rect y="100" class="st2" width="100" height="100"/>
					<rect x="100" y="200" class="st2" width="100" height="100"/>
					<rect y="300" class="st2" width="100" height="100"/>
					<rect x="100" y="400" class="st2" width="100" height="100"/>
					<rect y="500" class="st2" width="100" height="100"/>
					<rect x="100" y="600" class="st2" width="100" height="100"/>
					<rect y="700" class="st2" width="100" height="100"/>
					<rect x="100" y="800" class="st2" width="100" height="100"/>
					<rect y="900" class="st2" width="100" height="100"/>
					<rect x="100" y="1000" class="st2" width="100" height="100"/>
					<rect y="1100" class="st2" width="100" height="100"/>
					<rect y="1300" class="st2" width="100" height="100"/>
					<rect x="100" y="1200" class="st2" width="100" height="100"/>
					<rect x="200" y="1300" class="st2" width="100" height="100"/>
					<rect x="300" y="1200" class="st2" width="100" height="100"/>
					<rect x="400" y="1300" class="st2" width="100" height="100"/>
					<rect x="500" y="1200" class="st2" width="100" height="100"/>
					<rect x="600" y="1300" class="st2" width="100" height="100"/>
					<rect x="700" y="1200" class="st2" width="100" height="100"/>
					<rect x="800" y="1300" class="st2" width="100" height="100"/>
					<rect x="900" y="1200" class="st2" width="100" height="100"/>
					<rect x="1000" y="1300" class="st2" width="100" height="100"/>
					<rect x="1100" y="1200" class="st2" width="100" height="100"/>
					<rect x="1200" y="1300" class="st2" width="100" height="100"/>
					<rect x="1300" y="1200" class="st2" width="100" height="100"/>
					<rect x="1400" y="1300" class="st2" width="100" height="100"/>
					<rect x="1500" y="1200" class="st2" width="100" height="100"/>
					<rect x="1600" y="1300" class="st2" width="100" height="100"/>
					<rect x="1700" y="1200" class="st2" width="100" height="100"/>
					<rect x="1800" y="1300" class="st2" width="100" height="100"/>
					<rect x="1900" y="1200" class="st2" width="100" height="100"/>
					<rect x="1800" y="1100" class="st2" width="100" height="100"/>
					<rect x="1900" y="1000" class="st2" width="100" height="100"/>
					<rect x="1800" y="900" class="st2" width="100" height="100"/>
					<rect x="1900" y="800" class="st2" width="100" height="100"/>
					<rect x="1800" y="700" class="st2" width="100" height="100"/>
					<rect x="1900" y="600" class="st2" width="100" height="100"/>
					<rect x="1800" y="500" class="st2" width="100" height="100"/>
					<rect x="1900" y="400" class="st2" width="100" height="100"/>
					<rect x="1800" y="300" class="st2" width="100" height="100"/>
					<rect x="1900" y="200" class="st2" width="100" height="100"/>
					<rect x="1800" y="100" class="st2" width="100" height="100"/>
					<rect x="1900" class="st2" width="100" height="100"/>
					<rect x="1700" class="st2" width="100" height="100"/>
					<rect x="1500" class="st2" width="100" height="100"/>
					<rect x="1300" class="st2" width="100" height="100"/>
					<rect x="1100" class="st2" width="100" height="100"/>
					<rect x="900" class="st2" width="100" height="100"/>
					<rect x="700" class="st2" width="100" height="100"/>
					<rect x="500" class="st2" width="100" height="100"/>
					<rect x="1900" y="1300" class="st1" width="100" height="100"/>
					<rect x="1900" y="1100" class="st1" width="100" height="100"/>
					<rect x="1900" y="900" class="st1" width="100" height="100"/>
					<rect x="1900" y="700" class="st1" width="100" height="100"/>
					<rect x="1900" y="500" class="st1" width="100" height="100"/>
					<rect x="1900" y="300" class="st1" width="100" height="100"/>
					<rect x="1900" y="100" class="st1" width="100" height="100"/>
					<rect x="1800" y="1200" class="st1" width="100" height="100"/>
					<rect x="1800" y="1000" class="st1" width="100" height="100"/>
					<rect x="1800" y="800" class="st1" width="100" height="100"/>
					<rect x="1800" y="600" class="st1" width="100" height="100"/>
					<rect x="1800" y="400" class="st1" width="100" height="100"/>
					<rect x="1800" y="200" class="st1" width="100" height="100"/>
					<rect x="1800" class="st1" width="100" height="100"/>
					<rect x="1700" y="1300" class="st1" width="100" height="100"/>
					<rect x="1700" y="900" class="st1" width="100" height="100"/>
					<rect x="1700" y="700" class="st1" width="100" height="100"/>
					<rect x="1700" y="500" class="st1" width="100" height="100"/>
					<rect x="1700" y="300" class="st1" width="100" height="100"/>
					<rect x="1700" y="100" class="st1" width="100" height="100"/>
					<rect x="1600" y="1200" class="st1" width="100" height="100"/>
					<rect x="1600" y="1000" class="st1" width="100" height="100"/>
					<rect x="1600" y="800" class="st1" width="100" height="100"/>
					<rect x="1600" y="600" class="st1" width="100" height="100"/>
					<rect x="1600" y="400" class="st1" width="100" height="100"/>
					<rect x="1600" y="200" class="st1" width="100" height="100"/>
					<rect x="1600" class="st1" width="100" height="100"/>
					<rect x="1500" y="1300" class="st1" width="100" height="100"/>
					<rect x="1500" y="1100" class="st1" width="100" height="100"/>
					<rect x="1500" y="900" class="st1" width="100" height="100"/>
					<rect x="1500" y="700" class="st1" width="100" height="100"/>
					<rect x="1500" y="500" class="st1" width="100" height="100"/>
					<rect x="1500" y="300" class="st1" width="100" height="100"/>
					<rect x="1500" y="100" class="st1" width="100" height="100"/>
					<rect x="1400" y="1200" class="st1" width="100" height="100"/>
					<rect x="1400" y="1000" class="st1" width="100" height="100"/>
					<rect x="1400" y="800" class="st1" width="100" height="100"/>
					<rect x="1400" y="600" class="st1" width="100" height="100"/>
					<rect x="1400" y="400" class="st1" width="100" height="100"/>
					<rect x="1400" y="200" class="st1" width="100" height="100"/>
					<rect x="1400" class="st1" width="100" height="100"/>
					<rect x="1300" y="1300" class="st1" width="100" height="100"/>
					<rect x="1300" y="1100" class="st1" width="100" height="100"/>
					<rect x="1300" y="900" class="st1" width="100" height="100"/>
					<rect x="1300" y="700" class="st1" width="100" height="100"/>
					<rect x="1300" y="500" class="st1" width="100" height="100"/>
					<rect x="1300" y="300" class="st1" width="100" height="100"/>
					<rect x="1300" y="100" class="st1" width="100" height="100"/>
					<rect x="1200" y="1200" class="st1" width="100" height="100"/>
					<rect x="1200" y="1000" class="st1" width="100" height="100"/>
					<rect x="1200" y="800" class="st1" width="100" height="100"/>
					<rect x="1200" y="600" class="st1" width="100" height="100"/>
					<rect x="1200" y="400" class="st1" width="100" height="100"/>
					<rect x="1200" y="200" class="st1" width="100" height="100"/>
					<rect x="1200" class="st1" width="100" height="100"/>
					<rect x="1100" y="1300" class="st1" width="100" height="100"/>
					<rect x="1100" y="1100" class="st1" width="100" height="100"/>
					<rect x="1100" y="900" class="st1" width="100" height="100"/>
					<rect x="1100" y="700" class="st1" width="100" height="100"/>
					<rect x="1100" y="500" class="st1" width="100" height="100"/>
					<rect x="1100" y="300" class="st1" width="100" height="100"/>
					<rect x="1100" y="100" class="st1" width="100" height="100"/>
					<rect x="1000" y="1200" class="st1" width="100" height="100"/>
					<rect x="1000" y="1000" class="st1" width="100" height="100"/>
					<rect x="1000" y="800" class="st1" width="100" height="100"/>
					<rect x="1000" y="600" class="st1" width="100" height="100"/>
					<rect x="1000" y="400" class="st1" width="100" height="100"/>
					<rect x="1000" y="200" class="st1" width="100" height="100"/>
					<rect x="1000" class="st1" width="100" height="100"/>
					<rect x="900" y="1300" class="st1" width="100" height="100"/>
					<rect x="900" y="1100" class="st1" width="100" height="100"/>
					<rect x="900" y="900" class="st1" width="100" height="100"/>
					<rect x="900" y="700" class="st1" width="100" height="100"/>
					<rect x="900" y="500" class="st1" width="100" height="100"/>
					<rect x="900" y="300" class="st1" width="100" height="100"/>
					<rect x="900" y="100" class="st1" width="100" height="100"/>
					<rect x="800" y="1200" class="st1" width="100" height="100"/>
					<rect x="800" y="1000" class="st1" width="100" height="100"/>
					<rect x="800" y="800" class="st1" width="100" height="100"/>
					<rect x="800" y="600" class="st1" width="100" height="100"/>
					<rect x="800" y="400" class="st1" width="100" height="100"/>
					<rect x="800" y="200" class="st1" width="100" height="100"/>
					<rect x="800" class="st1" width="100" height="100"/>
					<rect x="700" y="1300" class="st1" width="100" height="100"/>
					<rect x="700" y="1100" class="st1" width="100" height="100"/>
					<rect x="700" y="900" class="st1" width="100" height="100"/>
					<rect x="700" y="700" class="st1" width="100" height="100"/>
					<rect x="700" y="500" class="st1" width="100" height="100"/>
					<rect x="700" y="300" class="st1" width="100" height="100"/>
					<rect x="700" y="100" class="st1" width="100" height="100"/>
					<rect x="600" y="1200" class="st1" width="100" height="100"/>
					<rect x="600" y="1000" class="st1" width="100" height="100"/>
					<rect x="600" y="800" class="st1" width="100" height="100"/>
					<rect x="600" y="600" class="st1" width="100" height="100"/>
					<rect x="600" y="400" class="st1" width="100" height="100"/>
					<rect x="600" y="200" class="st1" width="100" height="100"/>
					<rect x="600" class="st1" width="100" height="100"/>
					<rect x="500" y="1300" class="st1" width="100" height="100"/>
					<rect x="500" y="1100" class="st1" width="100" height="100"/>
					<rect x="500" y="900" class="st1" width="100" height="100"/>
					<rect x="500" y="700" class="st1" width="100" height="100"/>
					<rect x="500" y="500" class="st1" width="100" height="100"/>
					<rect x="500" y="300" class="st1" width="100" height="100"/>
					<rect x="500" y="100" class="st1" width="100" height="100"/>
					<rect x="400" y="1200" class="st1" width="100" height="100"/>
					<rect x="400" y="1000" class="st1" width="100" height="100"/>
					<rect x="400" y="800" class="st1" width="100" height="100"/>
					<rect x="400" y="600" class="st1" width="100" height="100"/>
					<rect x="400" y="400" class="st1" width="100" height="100"/>
					<rect x="400" y="200" class="st1" width="100" height="100"/>
					<rect x="400" class="st1" width="100" height="100"/>
					<rect x="300" y="1300" class="st1" width="100" height="100"/>
					<rect x="300" y="1100" class="st1" width="100" height="100"/>
					<rect x="300" y="900" class="st1" width="100" height="100"/>
					<rect x="300" y="700" class="st1" width="100" height="100"/>
					<rect x="300" y="500" class="st1" width="100" height="100"/>
					<rect x="300" y="300" class="st1" width="100" height="100"/>
					<rect x="300" y="100" class="st1" width="100" height="100"/>
					<rect x="300" class="st2" width="100" height="100"/>
					<rect x="200" y="1200" class="st1" width="100" height="100"/>
					<rect x="200" y="1000" class="st1" width="100" height="100"/>
					<rect x="200" y="800" class="st1" width="100" height="100"/>
					<rect x="200" y="600" class="st1" width="100" height="100"/>
					<rect x="200" y="400" class="st1" width="100" height="100"/>
					<rect x="200" y="200" class="st1" width="100" height="100"/>
					<rect x="200" class="st1" width="100" height="100"/>
					<rect x="100" y="1300" class="st1" width="100" height="100"/>
					<rect x="100" y="1100" class="st1" width="100" height="100"/>
					<rect x="100" y="900" class="st1" width="100" height="100"/>
					<rect x="100" y="700" class="st1" width="100" height="100"/>
					<rect x="100" y="500" class="st1" width="100" height="100"/>
					<rect x="100" y="300" class="st1" width="100" height="100"/>
					<rect x="100" y="100" class="st1" width="100" height="100"/>
					<rect x="100" class="st2" width="100" height="100"/>
					<rect y="1200" class="st1" width="100" height="100"/>
					<rect y="1000" class="st1" width="100" height="100"/>
					<rect y="800" class="st1" width="100" height="100"/>
					<rect y="600" class="st1" width="100" height="100"/>
					<rect y="400" class="st1" width="100" height="100"/>
					<rect y="200" class="st1" width="100" height="100"/>
					<rect class="st1" width="100" height="100"/>
				</g>
			</g>
		</g>
	</g>
</g>
</svg>
