<?xml version="1.0" encoding="utf-8"?>
<!-- Generator: Adobe Illustrator 24.3.0, SVG Export Plug-In . SVG Version: 6.00 Build 0)  -->
<svg version="1.1" id="Layer_1" xmlns="http://www.w3.org/2000/svg" xmlns:xlink="http://www.w3.org/1999/xlink" x="0px" y="0px"
	 viewBox="0 0 1000 1000" style="enable-background:new 0 0 1000 1000;" xml:space="preserve">
<g>
	<g transform="translate(0.000000,511.000000) scale(0.100000,-0.100000)">
		<path d="M5981.9,4264.7l632.3-339.1l5.7-613.1l3.8-615l574.8-281.6l574.8-281.7v-609.3V915.7L8258,637.9L8740.9,362l5.7-611.2
			l3.8-613.1l574.8-287.4l574.8-287.4V-2169c0-680.2-1.9-731.9-34.5-741.5c-46-13.4-2933.3-831.5-4171-1182.1
			c-559.5-157.1-1025-289.3-1034.6-293.2c-11.5-3.8-1040.4,530.7-2289.5,1184.1L100-2010V553.5V3117l2624.8,745.3
			c1442.7,410,2624.8,745.3,2624.8,743.4C5349.7,4605.8,5633.2,4452.5,5981.9,4264.7z M3918.5,3142
			c-1352.6-385.1-2473.5-705.1-2492.6-710.8c-30.7-9.6-32.6-55.6-32.6-613.1c0-469.4,5.8-601.6,23-601.6
			c13.4,0,1153.4,321.9,2534.8,714.6L6461,2647.7l5.7,580.5c3.8,593.9,1.9,611.2-67.1,613.1
			C6388.1,3841.3,5271.1,3527.1,3918.5,3142z M5039.3,1348.7L2542.8,637.9V28.6v-607.4l664.8,189.7
			c367.9,103.5,1507.9,429.2,2534.8,720.4l1868,532.6l5.7,572.9c3.8,523,1.9,576.7-28.7,599.7c-17.2,11.5-36.4,23-42.1,23
			C7539.6,2059.5,6413,1739.5,5039.3,1348.7z M6014.5-435.1l-2494.6-712.7v-609.3c0-477.1,5.7-605.4,23-599.7
			c13.4,3.8,908.1,258.7,1988.7,567.1c1080.6,306.6,2209.1,628.4,2509.9,714.6l546,155.2l5.7,574.8c1.9,316.1,0,584.4-5.7,597.8
			c-3.8,13.4-23,24.9-42.2,24.9C8526.3,279.6,7388.2-42.3,6014.5-435.1z M7721.6-2057.9c-1072.9-304.6-2203.3-624.6-2511.8-712.7
			l-559.5-159v-638c0-500,5.7-638,24.9-638c13.4,0,463.7,124.5,1000.1,277.8c538.4,151.4,1668.8,473.2,2513.7,712.7l1538.6,434.9
			v626.5c0,484.7-5.7,628.4-24.9,636.1c-11.5,5.8-24.9,11.5-26.8,11.5C9673.9-1504.2,8794.5-1753.2,7721.6-2057.9z"/>
	</g>
</g>
</svg>
