<svg width="77" height="174" viewBox="-6 -134 77 174"><g><defs></defs></g><rect x="-6" y="-134" width="77" height="174" fill="#006600"></rect><g id="0"><defs></defs><g><g type="shape" id="0:1:223"><defs></defs><g transform="matrix(1,0,0,1,0,0)"><path d="M34.4,-98.35L34.4 -89.35L33.4 -89.35L33.4 -98.35L34.4 -98.35" fill="rgb(179,140,2)" fill-opacity="1"></path><path d="M34.4,-98.35L33.4 -98.35L51.4 -99.35L51.4 -98.35L34.4 -98.35" fill="rgb(50,39,1)" fill-opacity="1"></path><path d="M33.4,-27.35L33.4 -89.35L34.4 -89.35L34.4 -87.35L34.4 -27.35L33.4 -27.35" fill="rgb(164,115,0)" fill-opacity="1"></path><path d="M51.4,-98.35L63.4 -98.35L35.4 -97.35L35.4 -87.35L34.4 -87.35L34.4 -89.35L34.4 -98.35L51.4 -98.35" fill="rgb(244,190,3)" fill-opacity="1"></path><path d="M59.4,-21.35L61.4 -20.35L62.4 -20.35L59.4 -19.35L60.4 -6.35L34.4 -6.35L34.4 -27.35L34.4 -87.35L35.4 -87.35L45.4 -74.35L44.4 -74.35L40.4 -77.35L40.25 -77.65Q34.55 -82.55 36.4 -72.35Q36.3 -67.25 40.4 -66.45L41.4 -66.35L53.4 -57.35L53.4 -56.35L60.4 -33.35L58.4 -33.35L41.4 -48.35L37.3 -51.3L37.45 -49.55L38.4 -37.35L59.4 -21.35M48.4,-7.35L50.4 -7.35Q50.25 -10.5 47.85 -13.5Q45.4 -16.65 40.6 -19.6L39.4 -20.35Q34.5 -20.6 36.15 -11.75L37.4 -7.35L48.4 -7.35" fill="rgb(231,158,0)" fill-opacity="1"></path><path d="M37.4,-72.35L41.4 -66.35L40.4 -66.45Q36.3 -67.25 36.4 -72.35L37.4 -72.35" fill="rgb(226,80,0)" fill-opacity="1"></path><path d="M36.4,-72.35Q34.55 -82.55 40.25 -77.65L40.4 -77.35L37.4 -78.35L37.4 -72.35L36.4 -72.35" fill="rgb(226,47,0)" fill-opacity="1"></path><path d="M37.4,-72.35L37.4 -78.35L40.4 -77.35L44.4 -74.35L50.4 -69.35L60.4 -61.35L60.6 -60.45Q63.5 -55.2 59.4 -52.35L53.4 -57.35L41.4 -66.35L37.4 -72.35" fill="rgb(241,7,0)" fill-opacity="1"></path><path d="M65.4,-5.35L61.4 -5.35L61.15 -6.1L60.4 -6.35L59.4 -19.35L62.4 -20.35L61.4 -32.35L61.15 -33.1L60.45 -33.35L60.4 -33.35L53.4 -56.35L59.4 -52.35Q64.8 -52.45 61 -61.15L60.4 -61.35L50.4 -69.35L45.4 -74.35L35.4 -87.35L35.4 -97.35L63.4 -98.35L65.4 -98.35L65.4 -5.35M42.4,-93.35Q38.25 -90.9 42.5 -88.65L43.4 -88.35L52.4 -81.35Q54.4 -77.85 59.4 -77.85L59.4 -78.35L60.15 -78.6L60.4 -79.35L62.4 -93.35L54.4 -94.35L42.4 -93.35" fill="rgb(254,197,0)" fill-opacity="1"></path><path d="M69.4,-7.35L69.4 -0.85L69.4 -0.35L68.9 -0.35L69.4 -0.85L51.95 -0.85Q55.65 -1.2 59.05 -2.65L38.65 -2.65Q41.3 -1.6 44.2 -1.15L46.5 -0.85L31.4 -0.85L29.5 -100.35L30 -101.35L41.4 -101.35L55.4 -101.35L69.4 -101.35L70.4 -98.35L69.4 -76.35L69.4 -17.35L69.4 -7.35M61.4,-5.35L65.4 -5.35L65.4 -98.35L51.4 -99.35L33.4 -98.35L33.4 -89.35L33.4 -27.35L34.4 -5.35L61.4 -5.35" fill="rgb(2,3,0)" fill-opacity="1"></path><path d="M70.4,-98.35L70.4 -97.35L70.4 -84.35L70.4 -76.35L69.4 -76.35L70.4 -98.35" fill="rgb(36,30,9)" fill-opacity="1"></path><path d="M51.4,-98.35L51.4 -99.35L65.4 -98.35L63.4 -98.35L51.4 -98.35" fill="rgb(64,51,2)" fill-opacity="1"></path><path d="M60.4,-79.35L60.95 -87.15L61.4 -93.35L62.4 -93.35L60.4 -79.35" fill="rgb(246,129,2)" fill-opacity="1"></path><path d="M54.4,-93.35L54.4 -94.35L62.4 -93.35L61.4 -93.35L54.4 -93.35" fill="rgb(252,150,2)" fill-opacity="1"></path><path d="M42.4,-93.35L54.4 -94.35L54.4 -93.35L42.4 -93.35" fill="rgb(254,110,0)" fill-opacity="1"></path><path d="M60.95,-87.15L60.4 -79.35L60.15 -78.6L59.4 -78.35L52.4 -81.35L43.4 -88.35L43.15 -89.05Q41.7 -90.15 42.4 -93.35L54.4 -93.35Q60.3 -92.95 60.95 -87.15" fill="rgb(254,6,0)" fill-opacity="1"></path><path d="M55.4,-101.35L41.4 -101.35L55.4 -102.35L55.4 -101.35" fill="rgb(37,95,0)" fill-opacity="1"></path><path d="M55.4,-102.35L69.4 -101.35L55.4 -101.35L55.4 -102.35" fill="rgb(23,82,0)" fill-opacity="1"></path><path d="M42.5,-88.65Q38.25 -90.9 42.4 -93.35Q41.7 -90.15 43.15 -89.05L43.4 -88.35L42.5 -88.65" fill="rgb(255,113,0)" fill-opacity="1"></path><path d="M44.4,-74.35L45.4 -74.35L50.4 -69.35L44.4 -74.35" fill="rgb(240,107,1)" fill-opacity="1"></path><path d="M59.4,-77.85Q54.4 -77.85 52.4 -81.35L59.4 -78.35L59.4 -77.85" fill="rgb(255,99,0)" fill-opacity="1"></path><path d="M70.4,-74.35L71.4 -74.35L70.4 -29.35L70.4 -74.35" fill="rgb(20,138,3)" fill-opacity="1"></path><path d="M71.4,-84.35L71.4 -74.35L70.4 -74.35L70.4 -76.35L70.4 -84.35L71.4 -84.35" fill="rgb(25,118,4)" fill-opacity="1"></path><path d="M70.4,-84.35L70.4 -97.35L71.4 -84.35L70.4 -84.35" fill="rgb(44,106,9)" fill-opacity="1"></path><path d="M70.4,-29.35L70.4 -17.35L69.85 -17.35L69.4 -17.35L69.4 -76.35L70.4 -76.35L70.4 -74.35L70.4 -29.35" fill="rgb(52,49,11)" fill-opacity="1"></path><path d="M54.4,-93.35L61.4 -93.35L60.95 -87.15Q60.3 -92.95 54.4 -93.35" fill="rgb(250,34,1)" fill-opacity="1"></path><path d="M60.4,-61.35L61 -61.15Q64.8 -52.45 59.4 -52.35Q63.5 -55.2 60.6 -60.45L60.4 -61.35" fill="rgb(251,97,2)" fill-opacity="1"></path><path d="M59.4,-52.35L53.4 -56.35L53.4 -57.35L59.4 -52.35" fill="rgb(250,102,3)" fill-opacity="1"></path><path d="M61.4,-20.35L59.4 -21.35L58.4 -33.35L60.4 -33.35L60.45 -33.35L61.15 -33.1L61.4 -32.35L61.4 -20.35" fill="rgb(252,10,0)" fill-opacity="1"></path><path d="M41.4,-48.35L58.4 -33.35L59.4 -21.35L38.4 -37.35L37.45 -49.55L41.4 -48.35" fill="rgb(231,8,0)" fill-opacity="1"></path><path d="M61.4,-32.35L62.4 -20.35L61.4 -20.35L61.4 -32.35" fill="rgb(251,84,2)" fill-opacity="1"></path><path d="M34.4,-5.35L33.4 -27.35L34.4 -27.35L34.4 -6.35L34.4 -5.35" fill="rgb(157,114,0)" fill-opacity="1"></path><path d="M37.45,-49.55L37.3 -51.3L41.4 -48.35L37.45 -49.55" fill="rgb(227,78,0)" fill-opacity="1"></path><path d="M51.95,-0.85Q49.3 -0.6 46.5 -0.85L44.2 -1.15Q41.3 -1.6 38.65 -2.65L59.05 -2.65Q55.65 -1.2 51.95 -0.85" fill="rgb(54,31,0)" fill-opacity="1"></path><path d="M37.4,-8.35L37.4 -7.35L36.15 -11.75L37.4 -8.35" fill="rgb(228,72,0)" fill-opacity="1"></path><path d="M37.4,-8.35L36.15 -11.75Q34.5 -20.6 39.4 -20.35L40.6 -19.6Q45.4 -16.65 47.85 -13.5Q50.25 -10.5 50.4 -7.35L48.4 -7.35L37.4 -8.35" fill="rgb(230,10,0)" fill-opacity="1"></path><path d="M48.4,-7.35L37.4 -7.35L37.4 -8.35L48.4 -7.35" fill="rgb(229,44,0)" fill-opacity="1"></path><path d="M34.4,-5.35L34.4 -6.35L60.4 -6.35L61.15 -6.1L61.4 -5.35L34.4 -5.35" fill="rgb(207,148,0)" fill-opacity="1"></path><path d="M69.4,-0.85L69.4 -7.35L69.6 -7.35L70.4 -7.35L70.3 -2.65L69.45 -2.65L69.4 -0.35L69.4 -0.85" fill="rgb(4,74,0)" fill-opacity="1"></path><path d="M69.4,-17.35L69.85 -17.35L70.4 -17.35L70.4 -7.35L69.6 -7.35L69.4 -7.35L69.4 -17.35" fill="rgb(47,65,8)" fill-opacity="1"></path><path d="M31.4,-0.85L46.5 -0.85Q49.3 -0.6 51.95 -0.85L69.4 -0.85L68.9 -0.35L65.7 2.75L27.5 2.3L27.5 -23.5L27.5 -53.5L27.5 -83.5Q27.5 -91 27.95 -98.5L28 -99.05L28.4 -99.35L29.5 -100.35L31.4 -0.85M-6.6,-69.5L-6.6 -69.85L-6.55 -69.85L-6.6 -69.5" fill="rgb(0,107,36)" fill-opacity="1"></path></g></g></g></g></svg>