<svg width="70" height="78" viewBox="0 -78 70 78"><g><defs></defs></g><rect x="0" y="-78" width="70" height="78" fill="#006600"></rect><g id="0"><defs></defs><g><g type="shape" id="0:1:147"><defs></defs><g transform="matrix(1,0,0,1,0,0)"><path d="M70.1,-41.5L69.9 -42.4Q67.9 -46.8 60.1 -45.5Q59.6 -45.5 59.55 -45.65Q57.7 -51.25 57.1 -57.9Q56.75 -61.2 56.7 -64.75Q56.65 -69.4 57.1 -74.5L56.85 -75.25Q53.55 -78.45 46.1 -77.5Q39.7 -71.9 42.7 -57.6Q45.25 -45.35 36.1 -45.5L36.1 -46.5L36.1 -71.5L36.1 -72.5L36.1 -73.5Q39.1 -76 42.9 -77.9L43.1 -78.5L57.05 -78L57.1 -77.5Q60.5 -66.4 59.25 -50.5Q59 -47.4 63.1 -48.5Q72.45 -49.85 70.6 -40.6L70.1 -40.5L70.1 -41.5" fill="rgb(18,5,1)" fill-opacity="1"></path><path d="M69.45,-41.25Q60.3 -28.8 49.1 -18.5L48.85 -19.25Q38.7 -30.1 31.1 -43.5Q32.6 -44.5 34.2 -45.3L35.1 -45.5L36.1 -45.5Q45.25 -45.35 42.7 -57.6Q39.7 -71.9 46.1 -77.5Q53.55 -78.45 56.85 -75.25L57.1 -74.5Q56.65 -69.4 56.7 -64.75Q55.35 -73.45 49.1 -73.5L49.1 -71.5L49.1 -70.5L48.1 -70.5Q48.1 -65 48.6 -59.55L49.1 -59.5L49 -58.5Q47.2 -48.1 52.1 -44.5Q56.7 -47.9 57.05 -57.45L57.1 -57.9Q57.7 -51.25 59.55 -45.65Q59.6 -45.5 60.1 -45.5Q67.9 -46.8 69.9 -42.4L70.1 -41.5L69.45 -41.25M62.25,-42.3Q53.45 -37.15 48.1 -28.5Q48.6 -22.25 53.7 -26.05Q62.45 -32.65 63.1 -42.5L62.25 -42.3" fill="rgb(245,3,0)" fill-opacity="1"></path><path d="M49.1,-59.5L48.6 -59.55Q48.1 -65 48.1 -70.5L49.1 -70.5L49.1 -60.5L49.1 -59.5" fill="rgb(254,60,4)" fill-opacity="1"></path><path d="M57.05,-57.45Q56.7 -47.9 52.1 -44.5Q47.2 -48.1 49 -58.5L49.1 -59.5L49.1 -60.5L49.1 -70.5L49.1 -71.5L49.1 -73.5Q55.35 -73.45 56.7 -64.75Q56.75 -61.2 57.1 -57.9L57.05 -57.45" fill="rgb(253,141,9)" fill-opacity="1"></path><path d="M70.1,-41.5L70.1 -40.5L69.85 -39.7Q61.3 -28.3 52.1 -17.5L51.1 -17.5L43.1 -17.5Q42.6 -17.5 42.35 -17.75Q31.8 -28.2 25.1 -42.5L30.1 -43.45L31.1 -43.5Q38.7 -30.1 48.85 -19.25L49.1 -18.5Q60.3 -28.8 69.45 -41.25L70.1 -41.5" fill="rgb(22,5,2)" fill-opacity="1"></path><path d="M63.1,-42.5Q62.45 -32.65 53.7 -26.05Q48.6 -22.25 48.1 -28.5Q53.45 -37.15 62.25 -42.3L63.1 -42.5" fill="rgb(253,140,9)" fill-opacity="1"></path></g></g></g></g></svg>