<svg width="104" height="108" viewBox="-53 -54 104 108"><g><defs></defs></g><rect x="-53" y="-54" width="104" height="108" fill="#006600"></rect><g id="0"><defs></defs><g><g type="shape" id="0:1:398"><defs></defs><g transform="matrix(1,0,0,1,0,0)"><path d="M-45.5,-52.95L-45.5 -53.95L-32.5 -53.95L-31.5 -53.95L18.5 -53.95L19.5 -53.95L32.5 -53.95L33.5 -53.95L33.5 -53.45Q-6 -52.95 -45.5 -52.95" fill="rgb(62,68,59)" fill-opacity="1"></path><path d="M4.5,54.05L3.5 54.05L-16.5 54.05Q-18.45 54 -18.55 52.95Q-19.95 36 -22.5 21.05L-22.5 20.55Q-35 20.05 -47.5 20.05Q-49.95 18.5 -50.2 15.9Q-53.25 -15.2 -52.5 -48.95L-52.5 -49.95Q-50.55 -52.5 -46.5 -52.9L-45.5 -52.95Q-6 -52.95 33.5 -53.45L33.5 -53.95Q43.9 -55.35 48.25 -50.7L48.5 -49.95Q48.5 -32.45 49 -14.95L49.5 -14.95Q49.5 7.55 51.45 28.95Q52.85 44.4 46.5 51.05L46.5 52.05L45.5 52.1Q26.25 53.8 4.5 53.05L4.5 54.05M43.5,-13.95Q44.25 -31.7 42.5 -46.95L42.5 -47.45Q-0.8 -48.2 -45.5 -46.95L-45.55 -45.95L-47.5 -20.95Q-47.7 -3.25 -46 13L-45.5 13.05L-17.55 15.55L-17.5 16.05Q-12.9 28.95 -13.5 47.05L-13.5 48.05L42.5 46.1L43.5 46.05Q44.15 18.85 43.5 -11.95L43.5 -12.95L43.5 -13.95" fill="rgb(32,33,23)" fill-opacity="1"></path><path d="M34.45,-41.45Q-1.45 -44.9 -40.5 -41.95L-40.5 -40.95Q-40.7 -17.8 -39.5 7.05L-38.5 7.05L-10.5 8.05L-10.45 9.05Q-9.05 25.6 -6.5 41.05L-5.5 41.15Q15.45 45.85 36.5 41.05Q38.25 21.3 38.55 -0.95Q38.9 -23.85 34.5 -40.95L34.45 -41.45M43,-12.95L43.5 -12.95L43.5 -11.95Q44.15 18.85 43.5 46.05L42.5 46.1L-13.5 48.05L-13.5 47.05Q-12.9 28.95 -17.5 16.05L-17.55 15.55L-45.5 13.05L-46 13Q-47.7 -3.25 -47.5 -20.95L-45.55 -45.95L-45.5 -46.95Q-0.8 -48.2 42.5 -47.45L42.5 -46.95Q42.5 -29.95 43 -12.95" fill="rgb(243,1,1)" fill-opacity="1"></path><path d="M34.5,-40.95Q38.9 -23.85 38.55 -0.95Q38.25 21.3 36.5 41.05Q15.45 45.85 -5.5 41.15L-6.5 41.05Q-9.05 25.6 -10.45 9.05L-10.5 8.05L-38.5 7.05L-39.5 7.05Q-40.7 -17.8 -40.5 -40.95L-40.5 -41.95Q-1.45 -44.9 34.45 -41.45L34.5 -40.95M26.35,-22.95Q26.7 -37.15 16.5 -34.95Q14.75 -33.2 15.45 -28.95Q16.25 -24.2 14.05 -23.6Q1.15 -20.1 -5.5 -24.95Q-5.3 -27.65 -6.1 -29.15L-6.5 -29.95Q-17.9 -25.85 -32.5 -18.95Q-21.65 -12.8 -13.95 -3.6Q-8 3.5 -6.5 -2.95Q-6.85 -6.3 -5.2 -6.7Q8.7 -9.9 24.5 -8.95Q26.2 -14.75 26.35 -22.95M-32.65,-30.5Q-25.65 -26.65 -17.3 -33.75L-16.5 -34.45Q-20.8 -36.65 -33.5 -35.95L-33.5 -32.95Q-33.5 -30.95 -32.65 -30.5M8.1,-28.35Q11.5 -40.45 -2.5 -36.95Q-1.6 -28.85 6.5 -28.1Q8 -27.95 8.1 -28.35M1.85,-2.5Q0.05 3.1 -3.5 6.05Q-2.65 18.2 -2.5 31.05L-2.5 32.05Q-0.7 39.75 11.65 38.65Q21.75 37.8 29.5 36.05L30 36Q32.9 15.6 30.5 -4.95Q20.05 1.8 3.4 -2.55L1.85 -2.5M-22,0.05Q-22.85 -6.6 -33.5 -9.95Q-36.35 2.9 -23.45 0.35L-22 0.05" fill="rgb(34,36,25)" fill-opacity="1"></path><path d="M42.5,-46.95Q44.25 -31.7 43.5 -13.95L43.5 -12.95L43 -12.95Q42.5 -29.95 42.5 -46.95" fill="rgb(133,16,10)" fill-opacity="1"></path><path d="M24.5,-8.95Q8.7 -9.9 -5.2 -6.7Q-6.85 -6.3 -6.5 -2.95Q-8 3.5 -13.95 -3.6Q-21.65 -12.8 -32.5 -18.95Q-17.9 -25.85 -6.5 -29.95L-6.1 -29.15Q-5.3 -27.65 -5.5 -24.95Q1.15 -20.1 14.05 -23.6Q16.25 -24.2 15.45 -28.95Q14.75 -33.2 16.5 -34.95Q26.7 -37.15 26.35 -22.95Q26.2 -14.75 24.5 -8.95" fill="rgb(249,249,248)" fill-opacity="1"></path><path d="M49,-14.95Q48.5 -32.45 48.5 -49.95Q50.25 -34.2 49.5 -15.95L49.5 -14.95L49 -14.95" fill="rgb(91,96,88)" fill-opacity="1"></path><path d="M-47.5,20.05L-48.5 19.95Q-54.8 18.9 -53.5 10.05L-53.5 9.05L-53.5 -48.95L-52.5 -48.95Q-53.25 -15.2 -50.2 15.9Q-49.95 18.5 -47.5 20.05" fill="rgb(95,100,92)" fill-opacity="1"></path><path d="M4.5,53.05Q26.25 53.8 45.5 52.1L46.5 52.05L46.4 52.55Q32.75 54.8 16.5 54.05L15.5 54.05L4.5 54.05L4.5 53.05" fill="rgb(108,112,105)" fill-opacity="1"></path></g></g></g></g></svg>