<svg width="97" height="96" viewBox="0 -96 97 96"><g><defs></defs></g><rect x="0" y="-96" width="97" height="96" fill="#006600"></rect><g id="0"><defs></defs><g><g type="shape" id="0:2:92"><defs></defs><g transform="matrix(1,0,0,1,0,0)"><path d="M48.55,-55.9Q42.5 -54.5 43.5 -60Q44.25 -56.25 49.5 -56.5L49.5 -56L48.55 -55.9" fill="rgb(74,0,0)" fill-opacity="1"></path><path d="M22.65,-54.75Q20 -53 17.5 -51L17.5 -50L16.5 -50Q27.35 -36.35 41.9 -32.5Q43.4 -32.1 43.45 -35L43.5 -40Q57.5 -40 71.5 -40.5L71.5 -41L72.4 -41.2Q76.85 -43.65 75.5 -52L75.3 -52.6Q65.95 -57.95 49.5 -56L49.5 -56.5Q44.25 -56.25 43.5 -60Q44.2 -64.25 42.95 -66.3L42.5 -67Q32.7 -64.75 23.5 -56L23.5 -55L22.65 -54.75M43.5,-71Q45.3 -65.25 47.9 -60.2L48.5 -60L73.5 -58.05L74.5 -58Q77.9 -54.4 77.5 -47L77.5 -46Q75.35 -41.15 72.7 -36.85L72.5 -36L46.5 -35L45.5 -35Q44.55 -26.95 38.7 -23.6Q38.5 -23.5 38.5 -23Q22.35 -30.35 12.75 -44.15Q12.5 -44.5 12.5 -45Q24.35 -61.15 41.4 -70.35L43.5 -71" fill="rgb(8,10,3)" fill-opacity="1"></path><path d="M43.5,-41L70.5 -41L71.5 -41L71.5 -40.5Q57.5 -40 43.5 -40L43.5 -41" fill="rgb(75,0,0)" fill-opacity="1"></path><path d="M17.5,-50L17.5 -51Q20 -53 22.65 -54.75L23.5 -55L23.25 -54.2Q21.1 -51.4 17.5 -50" fill="rgb(150,0,0)" fill-opacity="1"></path><path d="M43.5,-40L43.45 -35Q43.4 -32.1 41.9 -32.5Q27.35 -36.35 16.5 -50L17.5 -50Q21.1 -51.4 23.25 -54.2L23.5 -55L23.5 -56Q32.7 -64.75 42.5 -67L42.95 -66.3Q44.2 -64.25 43.5 -60Q42.5 -54.5 48.55 -55.9L49.5 -56Q65.95 -57.95 75.3 -52.6L75.5 -52Q76.85 -43.65 72.4 -41.2L71.5 -41L70.5 -41L43.5 -41L43.5 -40M71.35,-51.55Q56.1 -55.8 42.5 -52Q43.85 -46.35 52.5 -46.2Q65.55 -45.95 71.5 -51L71.35 -51.55M39.5,-62.5Q29.55 -58.95 22.5 -52Q22.2 -44.95 27.5 -48Q37.35 -53.65 39.5 -62L39.5 -62.5" fill="rgb(0,0,255)" fill-opacity="1"></path><path d="M71.5,-51Q65.55 -45.95 52.5 -46.2Q43.85 -46.35 42.5 -52Q56.1 -55.8 71.35 -51.55L71.5 -51M39.5,-62Q37.35 -53.65 27.5 -48Q22.2 -44.95 22.5 -52Q29.55 -58.95 39.5 -62.5L39.5 -62" fill="rgb(51,204,255)" fill-opacity="1"></path><path d="M3.05,-93.9L1.6 -93.9L1.6 -79.6M3.05,-93.9L15.45 -93.9M15.45,-0.9L1.6 -0.9L1.6 -15.45M82.5,-93.9L94.6 -93.9L94.6 -79.6M94.6,-15.45L94.6 -2.35L94.6 -0.9L82.5 -0.9" stroke="rgb(0,0,0)" stroke-linecap="round" stroke-linejoin="round" stroke-miterlimit="3" stroke-width="3" fill="none"></path><path d="M3.05,-80.05L3.05 -93.9L3.05 -95.35L15.9 -95.35M15.9,-2.35L3.05 -2.35L3.05 -15.9M82.95,-95.35L96.05 -95.35L96.05 -80.05M94.6,-2.35L82.95 -2.35M94.6,-2.35L96.05 -2.35L96.05 -15.9" stroke="rgb(255,255,255)" stroke-linecap="round" stroke-linejoin="round" stroke-miterlimit="3" stroke-width="3" fill="none"></path></g></g></g></g></svg>