<svg width="97" height="96" viewBox="0 -96 97 96"><g><defs></defs></g><rect x="0" y="-96" width="97" height="96" fill="#006600"></rect><g id="0"><defs></defs><g><g type="shape" id="0:2:86"><defs></defs><g transform="matrix(1,0,0,1,0,0)"><path d="M35,-64.95L35 -65.45Q38.9 -69.55 42.3 -74.2L43 -74.45L43.25 -74.55Q45.7 -75.95 46.8 -78.55L47 -79.1L47 -79.2L47 -79.45Q48 -81.65 49.45 -82.1L50.7 -82.2L34.95 -64L35 -64.45L35 -64.55L35 -64.95" fill="rgb(240,3,0)" fill-opacity="1"></path><path d="M60.3,-71.7Q56.4 -76.35 53 -81.45Q58.15 -77.6 61.75 -72.3L62 -71.45L61 -71.45Q60.5 -71.45 60.3 -71.7" fill="rgb(31,19,6)" fill-opacity="1"></path><path d="M70,-60.45Q69.5 -60.45 69.35 -60.7Q65.35 -66.35 61 -71.45L62 -71.45Q67.35 -67.3 70.8 -61.35L71 -60.45L70 -60.45" fill="rgb(24,17,6)" fill-opacity="1"></path><path d="M34.9,-64.45L35 -64.45L34.95 -64L34.8 -63.55Q33.75 -61.2 32 -59.45L32 -58.45L32 -57.45Q38.05 -56 41.75 -52.2Q43 -50.95 42.7 -48.5Q40.45 -31.4 47 -23.45Q54.45 -22.5 57.75 -25.7L58 -26.45Q56.55 -43.4 60.45 -55.3L61 -55.45Q71.2 -54.25 70.1 -59.45L70 -60.45L71 -60.45L71.15 -60.45L71 -58.65L71.1 -58.15Q69.15 -50.9 60 -50.45L60 -42.45L60 -41.45L60.05 -40.45Q60.75 -34.2 59 -30.45Q59.9 -22.05 54.4 -19.55Q43.9 -14.75 38 -22.45L37.95 -22.45L37.85 -22.9L37.45 -23.7Q37 -37.1 37 -50.45L36 -50.4Q33.05 -49.95 31.1 -50.45L30.45 -51L29.45 -51.65Q28.95 -51.85 28.6 -52.25L27.35 -53.85L26.85 -54.5L26.9 -54.7L27 -55.45Q30.6 -59.25 33.8 -63.5L34.3 -64.2L34.5 -64.3L34.9 -64.45" fill="rgb(19,4,1)" fill-opacity="1"></path><path d="M61,-71.45Q65.35 -66.35 69.35 -60.7Q69.5 -60.45 70 -60.45L70.1 -59.45Q71.2 -54.25 61 -55.45L60.45 -55.3Q56.55 -43.4 58 -26.45L57.75 -25.7Q54.45 -22.5 47 -23.45Q40.45 -31.4 42.7 -48.5Q43 -50.95 41.75 -52.2Q38.05 -56 32 -57.45L32 -58.45L32 -59.45Q33.75 -61.2 34.8 -63.55L34.95 -64L50.7 -82.2L52.15 -81.65L53 -81.45Q56.4 -76.35 60.3 -71.7Q60.5 -71.45 61 -71.45M49.15,-74.5Q53.05 -63.05 64 -58.45L63.95 -59.45Q62.75 -73.65 49 -75.45Q49 -74.95 49.15 -74.5M49,-41.45Q49 -35.95 49.5 -30.5L50 -30.45Q56.6 -22.7 57.75 -40.35Q58.75 -56.15 50 -55.45L50 -42.45L50 -41.45L49 -41.45" fill="rgb(0,0,204)" fill-opacity="1"></path><path d="M49,-75.45Q62.75 -73.65 63.95 -59.45L64 -58.45Q53.05 -63.05 49.15 -74.5Q49 -74.95 49 -75.45M50,-41.45L50 -42.45L50 -55.45Q58.75 -56.15 57.75 -40.35Q56.6 -22.7 50 -30.45L49.5 -30.5Q49 -35.95 49 -41.45L50 -41.45" fill="rgb(51,204,255)" fill-opacity="1"></path><path d="M43.25,-74.55L47 -79.1M43.25,-74.55L35 -64.55M34.95,-64L50.7 -82.2M49.45,-82.1L47 -79.1M34.95,-64L26.9 -54.7M34.9,-64.45L26.9 -54.7M34.9,-64.45L35 -64.55" stroke="rgb(0,0,0)" stroke-linecap="round" stroke-linejoin="round" stroke-miterlimit="3" stroke-width="1" fill="none"></path><path d="M27,-55.45Q30.6 -59.25 33.8 -63.5M34.5,-64.3L35 -64.95L43 -74.45L47 -79.2L49.45 -82.1M34.5,-64.3L33.8 -63.5" stroke="rgb(0,0,0)" stroke-linecap="round" stroke-linejoin="round" stroke-miterlimit="3" stroke-width="1" fill="none"></path><path d="M3.05,-93.9L1.6 -93.9L1.6 -79.6M3.05,-93.9L15.45 -93.9M15.45,-0.9L1.6 -0.9L1.6 -15.45M82.5,-93.9L94.6 -93.9L94.6 -79.6M94.6,-15.45L94.6 -2.35L94.6 -0.9L82.5 -0.9" stroke="rgb(0,0,0)" stroke-linecap="round" stroke-linejoin="round" stroke-miterlimit="3" stroke-width="3" fill="none"></path><path d="M3.05,-80.05L3.05 -93.9L3.05 -95.35L15.9 -95.35M15.9,-2.35L3.05 -2.35L3.05 -15.9M82.95,-95.35L96.05 -95.35L96.05 -80.05M94.6,-2.35L82.95 -2.35M94.6,-2.35L96.05 -2.35L96.05 -15.9" stroke="rgb(255,255,255)" stroke-linecap="round" stroke-linejoin="round" stroke-miterlimit="3" stroke-width="3" fill="none"></path></g></g></g></g></svg>