<svg width="24" height="58" viewBox="-12 -29 24 58"><g><defs></defs></g><rect x="-12" y="-29" width="24" height="58" fill="#006600"></rect><g id="0"><defs></defs><g><g type="shape" id="0:1:349"><defs></defs><g transform="matrix(1,0,0,1,0,0)"><path d="M12.5,-17.75L12.25 -17.05Q6.75 -12.5 4.5 -4.75L4.5 6.25L4.5 7.25Q7.3 13.5 12.25 17.55L12.5 18.25L12.5 25.25L12.5 26.25L12.25 27L9.5 29.25L8.5 29.25L0.5 29.25L-0.4 29.05Q-10.9 23.65 -12.5 9.25L-12.5 8.25L-12.5 -7.75L-12.5 -8.75L-12.5 -11.75Q-9.05 -25.3 3.8 -28.7Q10.8 -30.55 12.5 -25.75L12.5 -18.75L12.5 -17.75M-8.5,-4.75Q-8.5 0.75 -8 6.2L-7.5 6.25Q-7.1 21.35 5.5 24.15L6.5 24.25Q4.6 17.15 -0.3 8.15L-0.5 7.25L-0.5 6.25L-0.5 -5.75Q-0.05 -9.3 1.75 -11.55Q6.8 -17.9 6.5 -24.75L5.55 -24.55Q-4.6 -20.35 -7.5 -8.75L-7.5 -5.75L-7.5 -4.75L-8.5 -4.75" fill="rgb(9,9,9)" fill-opacity="1"></path><path d="M-0.5,7.25L-0.3 8.15Q4.6 17.15 6.5 24.25L5.5 24.15Q-7.1 21.35 -7.5 6.25L-7.5 5.25L-7.5 -4.75L-7.5 -5.75L-7.5 -8.75Q-4.6 -20.35 5.55 -24.55L6.5 -24.75Q6.8 -17.9 1.75 -11.55Q-0.05 -9.3 -0.5 -5.75L-1.5 -5.75Q-1.5 0.75 -1 7.2L-0.5 7.25" fill="rgb(249,249,249)" fill-opacity="1"></path><path d="M-1,7.2Q-1.5 0.75 -1.5 -5.75L-0.5 -5.75L-0.5 6.25L-0.5 7.25L-1 7.2" fill="rgb(111,111,111)" fill-opacity="1"></path><path d="M-7.5,6.25L-8 6.2Q-8.5 0.75 -8.5 -4.75L-7.5 -4.75L-7.5 5.25L-7.5 6.25" fill="rgb(164,164,164)" fill-opacity="1"></path></g></g></g></g></svg>