<svg width="131" height="190" viewBox="-57 -95 131 190"><g><defs></defs></g><rect x="-57" y="-95" width="131" height="190" fill="#006600"></rect><g id="0"><defs></defs><g><g type="shape" id="0:1:110"><defs></defs><g transform="matrix(1,0,0,1,0,0)"><path d="M31.85,-56.6L31.85 -58.6Q34.55 -61.4 40.85 -60.65L41.85 -60.6L41.85 -59.6L41.85 -58.6L40.9 -58.75Q34.55 -61.25 31.85 -55.6L31.85 -56.6" fill="rgb(121,118,105)" fill-opacity="1"></path><path d="M45.8,-41.6L45.85 -40.6L45.85 -37.6L45.85 -36.6L45.6 -35.75L43.85 -33.6L43.85 -31.6L43.85 -30.6L43.6 -29.8Q37.1 -22.1 30.85 -29.6L30.6 -30.35L27.85 -32.6L27.85 -33.6L27.85 -34.6L27.85 -46.6L27.85 -47.6L27.85 -48.6Q30.35 -51.1 31.7 -54.65L31.85 -55.6Q34.55 -61.25 40.9 -58.75L41.85 -58.6Q44.6 -50.85 45.8 -41.6M-1.15,-12.6L-2.05 -12.8Q-15.65 -19.6 -24.15 -31.6L-24.15 -32.6L-24.15 -33.6Q-21.85 -38.3 -21.2 -44.6L-21.15 -45.6Q-19.45 -45.9 -20.05 -48.6L-20.15 -49.6L-20.15 -50.6L-20.15 -53.6Q-18.45 -53.9 -19.05 -56.6L-19.15 -57.6L-19.15 -58.6L-19.15 -61.6Q-13.55 -76 2.85 -79.5L3.85 -79.6L4.85 -79.6Q7.75 -79.5 9.15 -77.85L9.85 -77.6Q11.65 -76.4 12.65 -74.5L12.85 -73.6L15.3 -63.7L15.85 -63.6Q17.3 -61.55 16.9 -57.6L16.85 -56.6Q16.85 -54.6 17.3 -52.7L17.85 -52.6L17.85 -46.6L17.85 -45.6L17.85 -34.6L17.85 -33.6L17.35 -33.6Q17.25 -16.2 3.85 -12.6L2.85 -12.6L-1.15 -12.6" fill="rgb(165,154,154)" fill-opacity="1"></path><path d="M57.85,-2.6L57.85 -1.6L56.85 -1.6L54.85 -1.6L54.8 -2.1L46.85 -2.6L46.85 -3.6L48.85 -3.6L49.85 -3.6L53.75 -4.05L53.85 -4.6L53.8 -5.6Q51.6 -20.85 46.85 -33.6L46.85 -34.6L46.85 -36.6L46.95 -37.6Q47.55 -40.3 45.85 -40.6L45.8 -41.6Q44.6 -50.85 41.85 -58.6L41.85 -59.6L41.85 -60.6L41.7 -61.55Q39.6 -66.85 36.85 -71.6L35.9 -71.75Q25.25 -75.5 18.85 -83.6Q20.5 -83.45 19.95 -85.65L19.85 -86.6L20.85 -86.6Q20.85 -86.1 21.1 -85.85Q21.35 -85.6 21.85 -85.6Q34.95 -77.7 43.25 -65.2Q46.3 -60.55 47.85 -54.6Q47.85 -52.6 48.3 -50.7L48.85 -50.6L48.85 -49.6L48.85 -48.6Q48.85 -46.6 49.3 -44.7L49.85 -44.6L49.85 -42.6L49.85 -41.6Q49.85 -39.6 50.3 -37.7L50.85 -37.6L50.85 -36.6L50.85 -35.6Q51.35 -31.6 52.3 -27.7L52.85 -27.6L52.85 -26.6Q53.05 -23.8 53.7 -21.55L53.85 -20.6Q53.85 -20.1 54.1 -19.85Q54.35 -19.6 54.85 -19.6Q54.65 -16.9 55.6 -15.45L55.85 -14.6L57.35 -7.7L57.85 -7.6L57.85 -6.6L57.85 -2.6" fill="rgb(11,14,9)" fill-opacity="1"></path><path d="M27,-31.85Q27.35 -31.6 27.85 -31.6Q28.15 -29.9 29.85 -29.65L30.85 -29.6Q37.1 -22.1 43.6 -29.8L43.85 -30.6Q46.05 -30.9 46.35 -33.55L46.85 -33.6Q51.6 -20.85 53.8 -5.6L53.85 -4.6L52.85 -4.6L49.85 -4.6L48.85 -4.55Q46.15 -4.4 45.85 -6.6L45.95 -7.6Q46.55 -10.3 44.85 -10.6L44.6 -11.35L42.85 -12.6L42.75 -13.1L36.85 -13.6L36.85 -12.6L35.85 -12.6L32.85 -12.6L31.85 -12.6L27.85 -12.6L27.85 -11.6L26.85 -11.6L25.85 -11.6L24.85 -11.6L21.85 -11.6L21.85 -10.6L20.85 -10.55L12.85 -9.6L11.85 -9.6L0.85 -9.6L0.85 -8.6L-0.05 -8.8Q-5.55 -11.7 -13.15 -12.6L-13.25 -13.15L-17.15 -13.6L-18.15 -13.6L-18.25 -14.15L-22.15 -14.6L-22.15 -13.6L-22.9 -13.35Q-24.15 -12.1 -26.15 -11.6Q-26.15 -10.6 -25.75 -9.8L-25.15 -9.6Q-25.15 -9.1 -25.35 -9Q-26.15 -8.6 -27.15 -8.6L-27.15 -7.6L-28.15 -7.6L-28.15 -6.6L-28.75 -6.8Q-29.15 -7.6 -29.15 -8.6L-29.15 -9.6L-29.15 -11.6Q-26.05 -20.5 -24.65 -31.55L-24.15 -31.6Q-15.65 -19.6 -2.05 -12.8L-1.15 -12.6Q0.15 -10.9 3.7 -12.05L3.85 -12.6Q17.25 -16.2 17.35 -33.6L17.85 -33.6L18.35 -33.7Q19.6 -40.85 17.85 -45.6L17.85 -46.6L17.85 -52.6L17.95 -53.6Q18.55 -56.3 16.85 -56.6L16.9 -57.6Q17.3 -61.55 15.85 -63.6L15.85 -64.6Q15.85 -70.6 12.85 -73.6L12.65 -74.5Q11.65 -76.4 9.85 -77.6L9.65 -78.5Q8.55 -80.85 4.85 -80.6L4.85 -79.6L3.85 -79.6L3.85 -80.6L3.85 -81.6L3.85 -82.6L3.85 -86.6Q5.55 -86.9 6.25 -88.4Q6.35 -88.6 6.85 -88.6L15.85 -88.6L16.85 -88.6Q18.55 -88.3 19.25 -86.8L19.85 -86.6L19.95 -85.65Q20.5 -83.45 18.85 -83.6Q25.25 -75.5 35.9 -71.75L36.85 -71.6Q39.6 -66.85 41.7 -61.55L41.85 -60.6L40.85 -60.65Q34.55 -61.4 31.85 -58.6L31.85 -56.6L31.85 -55.6L31.7 -54.65Q30.35 -51.1 27.85 -48.6L27.85 -47.6L27.85 -46.6L26.85 -46.6L26.85 -45.6L26.85 -44.6L25.85 -44.6L25.85 -35.6L25.85 -34.6Q25.9 -32.65 27 -31.85" fill="rgb(119,110,60)" fill-opacity="1"></path><path d="M47.85,-54.6Q49.55 -54.3 48.95 -51.6L48.85 -50.6L48.3 -50.7Q47.85 -52.6 47.85 -54.6" fill="rgb(51,105,51)" fill-opacity="1"></path><path d="M19.85,-86.6L19.25 -86.8Q18.55 -88.3 16.85 -88.6L16.6 -89.35L15.85 -89.6L15.8 -90.1L7.85 -90.6L7.85 -89.6L6.85 -89.6L6.85 -88.6Q6.35 -88.6 6.25 -88.4Q5.55 -86.9 3.85 -86.6L3.35 -86.6Q3.5 -84.45 1.85 -84.6L1.85 -85.6L1.85 -91.6Q5.3 -92.65 8 -94.35L8.85 -94.6L12.85 -94.6L13.85 -94.6Q17.65 -92.9 20.6 -90.3L20.85 -89.6L20.85 -87.6L20.85 -86.6L19.85 -86.6" fill="rgb(6,14,5)" fill-opacity="1"></path><path d="M21.1,-85.85Q20.85 -86.1 20.85 -86.6L20.85 -87.6L20.85 -89.6Q22.55 -89.3 21.95 -86.6L21.85 -85.6Q21.35 -85.6 21.1 -85.85" fill="rgb(56,134,56)" fill-opacity="1"></path><path d="M7.85,-90.6L15.8 -90.1L15.85 -89.6L14.85 -89.6L7.85 -89.6L7.85 -90.6" fill="rgb(26,28,26)" fill-opacity="1"></path><path d="M6.85,-89.6L7.85 -89.6L14.85 -89.6L15.85 -89.6L16.6 -89.35L16.85 -88.6L15.85 -88.6L6.85 -88.6L6.85 -89.6" fill="rgb(90,85,49)" fill-opacity="1"></path><path d="M12.85,-94.6L8.85 -94.6L8.85 -95.6L13.75 -95.1L13.85 -94.6L12.85 -94.6" fill="rgb(32,161,32)" fill-opacity="1"></path><path d="M2.95,-81.8L1.85 -82.6L1.85 -83.6L1.85 -84.6Q3.5 -84.45 3.35 -86.6L3.85 -86.6L3.85 -82.6L3.85 -81.6L2.95 -81.8" fill="rgb(53,58,33)" fill-opacity="1"></path><path d="M-30.15,-5.6Q-30.15 -5.1 -30.4 -4.8Q-31.65 -3.15 -33.15 -4.6L-33.15 -5.6L-33.15 -11.6Q-31.45 -11.9 -32.05 -14.6L-32.15 -15.6L-32.15 -16.6L-32.15 -19.6L-25.3 -41.65Q-25.15 -42.1 -25.15 -42.6Q-23.45 -44.4 -24.1 -48.6L-24.15 -49.6L-24.15 -50.6L-24.15 -56.6Q-21.55 -65 -17.35 -71.75L-17.15 -72.6Q-16.65 -72.6 -16.4 -72.85Q-16.15 -73.1 -16.15 -73.6Q-8.45 -78.9 1.7 -82.05L1.85 -82.6L2.95 -81.8L3.85 -81.6L3.85 -80.6L3.85 -79.6L2.85 -79.5Q-13.55 -76 -19.15 -61.6L-19.15 -58.6L-19.15 -57.6L-20.15 -57.6L-20.15 -54.6L-20.15 -53.6L-20.15 -50.6L-20.15 -49.6L-21.15 -49.6L-21.15 -46.6L-21.15 -45.6L-21.2 -44.6Q-21.85 -38.3 -24.15 -33.6L-24.15 -32.6L-24.15 -31.6L-24.65 -31.55Q-26.05 -20.5 -29.15 -11.6L-29.15 -9.6L-29.15 -8.6L-30.15 -8.6L-30.15 -6.6L-30.15 -5.6" fill="rgb(14,18,13)" fill-opacity="1"></path><path d="M9.15,-77.85Q7.75 -79.5 4.85 -79.6L4.85 -80.6Q8.55 -80.85 9.65 -78.5L9.85 -77.6L9.15 -77.85" fill="rgb(113,112,105)" fill-opacity="1"></path><path d="M15.3,-63.7L12.85 -73.6Q15.85 -70.6 15.85 -64.6L15.85 -63.6L15.3 -63.7" fill="rgb(127,127,125)" fill-opacity="1"></path><path d="M17.3,-52.7Q16.85 -54.6 16.85 -56.6Q18.55 -56.3 17.95 -53.6L17.85 -52.6L17.3 -52.7" fill="rgb(149,139,122)" fill-opacity="1"></path><path d="M25.85,-34.6L25.85 -35.6L25.85 -44.6L26.85 -44.6L26.85 -35.6L26.85 -34.6L25.85 -34.6" fill="rgb(129,129,125)" fill-opacity="1"></path><path d="M27.1,-33.85Q26.85 -34.1 26.85 -34.6L26.85 -35.6L26.85 -44.6L26.85 -45.6L26.85 -46.6L27.85 -46.6L27.85 -34.6L27.85 -33.6Q27.35 -33.6 27.1 -33.85" fill="rgb(155,147,145)" fill-opacity="1"></path><path d="M25.85,-34.6L26.85 -34.6Q26.85 -34.1 27.1 -33.85Q27.35 -33.6 27.85 -33.6L27.85 -32.6L27.85 -31.6Q27.35 -31.6 27 -31.85Q25.9 -32.65 25.85 -34.6" fill="rgb(114,112,97)" fill-opacity="1"></path><path d="M29.85,-29.65Q28.15 -29.9 27.85 -31.6L27.85 -32.6L30.6 -30.35L30.85 -29.6L29.85 -29.65" fill="rgb(123,121,120)" fill-opacity="1"></path><path d="M17.85,-34.6L17.85 -45.6Q19.6 -40.85 18.35 -33.7L17.85 -33.6L17.85 -34.6" fill="rgb(127,127,121)" fill-opacity="1"></path><path d="M2.85,-12.6L3.85 -12.6L3.7 -12.05Q0.15 -10.9 -1.15 -12.6L2.85 -12.6" fill="rgb(141,131,103)" fill-opacity="1"></path><path d="M0.85,-8.6L0.85 -9.6L11.85 -9.6L12.85 -9.6Q12.85 -9.1 12.65 -9Q11.85 -8.6 10.85 -8.6L9.85 -8.6L3.85 -8.6L2.85 -8.6L0.85 -8.6" fill="rgb(100,100,94)" fill-opacity="1"></path><path d="M-21.15,14.4L-20.9 13.75Q-15.75 10.2 -23.15 6.4L-22.15 6.4Q-19.15 7.9 -16.05 9.2L-15.15 9.4Q-14.35 11.1 -11.3 9.95Q-11.15 9.9 -11.15 9.4Q-6.4 7.65 -5.25 2.4L-5.15 1.4L-4.6 1.25Q-3.45 -2.3 -5.15 -3.6L-5.35 -4.45Q-11 -13.65 -25.15 -9.6L-25.75 -9.8Q-26.15 -10.6 -26.15 -11.6Q-24.15 -12.1 -22.9 -13.35L-22.15 -13.6L-19.15 -13.6L-18.15 -13.6L-17.15 -13.6Q-16.85 -11.9 -14.15 -12.5L-13.15 -12.6Q-5.55 -11.7 -0.05 -8.8L0.85 -8.6L2.85 -8.6L3.85 -8.6Q6.1 -6.85 10.75 -8.05L10.85 -8.6Q11.85 -8.6 12.65 -9Q12.85 -9.1 12.85 -9.6L20.85 -10.55L21.85 -10.6L25.75 -11.05L25.85 -11.6L26.85 -11.6L27.85 -11.6L31.75 -11.15L31.85 -10.6L30.9 -10.45Q27.05 -8.9 22.85 -7.6L22.85 -6.6L22.85 -5.6L21.85 -5.6L21.85 0.4L21.85 1.4L20.85 1.4L20.85 0.4L20.95 -0.6Q21.9 -6.1 18.85 -7.6L18.85 -6.6L17.85 -6.6L10.85 -6.6L9.85 -6.6L1.85 -6.6L0.85 -6.6L-2.15 -6.6L-3.15 -6.6Q-3.15 -4.1 -2.65 -1.7L-2.15 -1.6L-2.1 -0.6Q-1.7 3.85 -4.15 5.4Q-3.25 8.5 -0.95 10.15L-0.15 10.4L-0.2 10.9L-10.15 11.4L-10.15 12.4L-11.15 12.5Q-16.6 13.45 -21.15 15.4L-21.15 14.4" fill="rgb(25,24,21)" fill-opacity="1"></path><path d="M-2.15,-6.6L0.85 -6.6L1.85 -6.6Q5.1 -4.85 10.75 -6.1L10.85 -6.6L17.85 -6.6L18.85 -6.6Q20.4 -4.15 20.35 0.4L20.85 0.4L20.85 1.4L20.85 2.4L19.85 2.4L19.2 2.2Q15.55 -3.8 5.85 -3.6L5.8 -4.1L-2.15 -4.6L-2.15 -5.6L-2.15 -6.6" fill="rgb(120,111,61)" fill-opacity="1"></path><path d="M-2.15,-4.6L5.8 -4.1L5.85 -3.6L4.85 -3.6L-2.15 -3.6L-2.15 -4.6M-17.15,73.4L-16.15 73.4Q-16.15 73.9 -16.3 73.95Q-20.4 75.1 -22.15 73.4L-17.15 73.4" fill="rgb(133,121,87)" fill-opacity="1"></path><path d="M19.2,2.2L19.85 2.4Q20.8 3.45 21.3 5.25L21.85 5.4L21.85 6.4L21.85 9.4L21.85 10.4L20.95 10.6Q17.2 12.75 12.85 14.4L12.85 15.4L11.9 15.25Q8.4 13.85 3.85 13.4L3.6 12.65L1.85 11.4L0.95 11.2L-0.15 10.4L-0.95 10.15Q-3.25 8.5 -4.15 5.4Q-1.7 3.85 -2.1 -0.6L-2.15 -1.6L-2.15 -2.6L-2.15 -3.6L4.85 -3.6L5.85 -3.6Q15.55 -3.8 19.2 2.2" fill="rgb(148,134,121)" fill-opacity="1"></path><path d="M3.85,-8.6L9.85 -8.6L10.85 -8.6L10.75 -8.05Q6.1 -6.85 3.85 -8.6" fill="rgb(38,39,39)" fill-opacity="1"></path><path d="M1.85,-6.6L9.85 -6.6L10.85 -6.6L10.75 -6.1Q5.1 -4.85 1.85 -6.6" fill="rgb(70,68,60)" fill-opacity="1"></path><path d="M18.85,-6.6L18.85 -7.6Q21.9 -6.1 20.95 -0.6L20.85 0.4L20.35 0.4Q20.4 -4.15 18.85 -6.6" fill="rgb(64,63,56)" fill-opacity="1"></path><path d="M33.95,-11.8L32.85 -12.6L35.85 -12.6L36.85 -12.6L36.85 -11.6L35.85 -11.6L34.85 -11.6L33.95 -11.8" fill="rgb(24,23,20)" fill-opacity="1"></path><path d="M41.85,-12.6L40.85 -12.6L39.85 -12.6L36.85 -12.6L36.85 -13.6L42.75 -13.1L42.85 -12.6L41.85 -12.6" fill="rgb(87,81,46)" fill-opacity="1"></path><path d="M40.85,-11.6L39.85 -11.6L36.85 -11.6L36.85 -12.6L39.85 -12.6L40.85 -12.6L40.85 -11.6" fill="rgb(52,47,44)" fill-opacity="1"></path><path d="M34.85,-11.6L34.7 -11.05L31.85 -10.6L31.75 -11.15L27.85 -11.6L27.85 -12.6L31.85 -12.6L32.85 -12.6L33.95 -11.8L34.85 -11.6" fill="rgb(72,66,48)" fill-opacity="1"></path><path d="M25.75,-11.05L21.85 -10.6L21.85 -11.6L24.85 -11.6L25.85 -11.6L25.75 -11.05" fill="rgb(64,59,36)" fill-opacity="1"></path><path d="M-12.15,9.4L-15.15 9.4L-16.05 9.2Q-19.15 7.9 -22.15 6.4L-22.15 5.4Q-22.25 0.5 -24.15 -2.6L-23.15 -2.6Q-19.2 -2.15 -17.4 -3.85Q-17.15 -4.1 -17.15 -4.6L-16.65 -4.6Q-17.95 -6.35 -22.15 -5.6L-23.1 -5.75L-27.15 -7.6L-27.15 -8.6Q-26.15 -8.6 -25.35 -9Q-25.15 -9.1 -25.15 -9.6Q-11 -13.65 -5.35 -4.45L-5.15 -3.6L-5.15 0.4L-5.15 1.4L-5.25 2.4Q-6.4 7.65 -11.15 9.4L-12.15 9.4M22.85,0.4L22.85 -5.6L22.85 -6.6L22.85 -7.6Q27.05 -8.9 30.9 -10.45L31.85 -10.6L34.7 -11.05L34.85 -11.6L35.85 -11.6L36.85 -11.6L39.85 -11.6L40.85 -11.6Q42.4 -10.15 42.8 -7.6L42.85 -6.6L41.85 -6.6L38.85 -6.6Q38.35 -6.6 38 -6.85Q36.8 -7.55 34.85 -7.6Q34.8 0.5 41.8 -0.65L41.3 0.6Q39.85 3.9 38.85 7.4L37.85 7.4Q35.9 7.45 34.85 8.4L33.85 8.4L27.85 8.4L26.95 8.2Q23.45 6.3 22.85 1.4L22.85 0.4" fill="rgb(125,111,104)" fill-opacity="1"></path><path d="M22.85,1.4L21.85 1.4L21.85 0.4L21.85 -5.6L22.85 -5.6L22.85 0.4L22.85 1.4" fill="rgb(56,50,47)" fill-opacity="1"></path><path d="M39.85,8.4L39.6 7.65L38.85 7.4Q39.85 3.9 41.3 0.6L41.8 -0.65Q34.8 0.5 34.85 -7.6Q36.8 -7.55 38 -6.85Q38.35 -6.6 38.85 -6.6Q39.65 -4.9 42.7 -6.05L42.85 -6.6L42.8 -7.6Q42.4 -10.15 40.85 -11.6L40.85 -12.6L41.85 -12.6L42.85 -12.6L44.6 -11.35L44.85 -10.6Q44.85 -8.6 45.3 -6.7L45.85 -6.6Q46.15 -4.4 48.85 -4.55L49.85 -4.6L49.85 -3.6L48.85 -3.6L46.85 -3.6L46.85 -2.6L45.85 -2.6L43.85 -2.6L42.85 -2.6L42.85 1.4L42.85 2.4L42.7 3.35Q41.8 6.35 39.85 8.4" fill="rgb(29,26,25)" fill-opacity="1"></path><path d="M50.3,-37.7Q49.85 -39.6 49.85 -41.6Q51.55 -41.3 50.95 -38.6L50.85 -37.6L50.3 -37.7" fill="rgb(53,98,53)" fill-opacity="1"></path><path d="M49.3,-44.7Q48.85 -46.6 48.85 -48.6Q50.55 -48.3 49.95 -45.6L49.85 -44.6L49.3 -44.7" fill="rgb(52,118,52)" fill-opacity="1"></path><path d="M45.85,-36.6L45.85 -37.6L45.85 -40.6Q47.55 -40.3 46.95 -37.6L46.85 -36.6L45.85 -36.6" fill="rgb(96,92,91)" fill-opacity="1"></path><path d="M46.85,-36.6L46.85 -34.6L46.85 -33.6L46.35 -33.55Q46.05 -30.9 43.85 -30.6L43.85 -31.6L43.85 -33.6L45.6 -35.75L45.85 -36.6L46.85 -36.6" fill="rgb(143,144,140)" fill-opacity="1"></path><path d="M52.85,-28.6L52.85 -27.6L52.3 -27.7Q51.35 -31.6 50.85 -35.6Q52.2 -33.95 52.75 -31.55L52.85 -30.6L52.85 -28.6" fill="rgb(63,130,63)" fill-opacity="1"></path><path d="M52.85,-30.6Q54.55 -30.3 53.95 -27.6L53.85 -26.6L52.85 -26.6L52.85 -27.6L52.85 -28.6L52.85 -30.6M35.85,93.4L39.85 93.4L40.85 93.4L40.75 93.9L35.85 94.4L35.85 93.4" fill="rgb(29,159,29)" fill-opacity="1"></path><path d="M54.95,-22.65Q55.5 -20.45 53.85 -20.6L53.7 -21.55Q53.05 -23.8 52.85 -26.6L53.85 -26.6Q55.5 -26.7 54.95 -24.55L54.85 -23.6L54.95 -22.65" fill="rgb(103,145,103)" fill-opacity="1"></path><path d="M54.85,-19.6Q54.35 -19.6 54.1 -19.85Q53.85 -20.1 53.85 -20.6Q55.5 -20.45 54.95 -22.65L54.85 -23.6Q56.55 -23.3 55.95 -20.6L55.85 -19.6L54.85 -19.6" fill="rgb(37,141,37)" fill-opacity="1"></path><path d="M54.85,-19.6L55.85 -19.6Q57.55 -18.8 56.95 -15.6L56.85 -14.6L55.85 -14.6L55.6 -15.45Q54.65 -16.9 54.85 -19.6" fill="rgb(73,153,73)" fill-opacity="1"></path><path d="M57.35,-7.7L55.85 -14.6L56.85 -14.6Q57.85 -12.15 57.85 -8.6L57.85 -7.6L57.35 -7.7" fill="rgb(58,137,58)" fill-opacity="1"></path><path d="M44.85,-10.6Q46.55 -10.3 45.95 -7.6L45.85 -6.6L45.3 -6.7Q44.85 -8.6 44.85 -10.6" fill="rgb(86,79,46)" fill-opacity="1"></path><path d="M42.7,-6.05Q39.65 -4.9 38.85 -6.6L41.85 -6.6L42.85 -6.6L42.7 -6.05" fill="rgb(66,59,56)" fill-opacity="1"></path><path d="M43.85,-1.6L43.95 -0.6Q44.55 2.1 42.85 2.4L42.85 1.4L42.85 -2.6L43.85 -2.6L43.85 -1.6" fill="rgb(70,64,59)" fill-opacity="1"></path><path d="M52.2,19.2Q49.1 14.15 42.85 12.4L41.95 12.2L40.85 11.4L40 11.15Q38.9 10.35 38.85 8.4L39.85 8.4Q41.8 6.35 42.7 3.35L42.85 2.4Q44.55 2.1 43.95 -0.6L43.85 -1.6L53.85 -1.6L54.85 -1.6L56.85 -1.6L57.85 -1.6Q59.85 -0.1 62 1.2L62.85 1.4Q69.35 6.9 69.85 18.4L69.85 19.4L68.85 19.4L60.85 19.4L60.8 18.9L52.85 18.4L52.85 19.4L52.2 19.2" fill="rgb(147,134,121)" fill-opacity="1"></path><path d="M54.8,-2.1L54.85 -1.6L53.85 -1.6L43.85 -1.6L43.85 -2.6L45.85 -2.6L46.85 -2.6L54.8 -2.1" fill="rgb(103,94,85)" fill-opacity="1"></path><path d="M53.75,-4.05L49.85 -3.6L49.85 -4.6L52.85 -4.6L53.85 -4.6L53.75 -4.05" fill="rgb(59,54,35)" fill-opacity="1"></path><path d="M58.85,-1.6L57.85 -1.6L57.85 -2.6L57.85 -6.6L59.7 -2.55L59.85 -1.6L58.85 -1.6" fill="rgb(55,142,55)" fill-opacity="1"></path><path d="M63.6,1.15L62.85 1.4L62 1.2Q59.85 -0.1 57.85 -1.6L58.85 -1.6L59.85 -1.6Q61.85 -1.1 63.1 0.15L63.85 0.4L63.6 1.15M-50.15,21.4L-51.15 21.4L-54.15 21.4L-54.95 21.15Q-57.8 19.05 -57.15 13.4Q-54.35 5.2 -47.05 1.6L-46.15 1.4L-45.15 1.4L-45.4 2.15L-46.15 2.4L-46.15 3.4L-47.15 3.4L-47.15 6.4L-47.15 7.4L-47.35 8.3L-51.15 14.4Q-51.85 18.1 -50.4 19.65Q-50.15 19.9 -50.15 20.4L-50.15 21.4" fill="rgb(11,14,10)" fill-opacity="1"></path><path d="M-16.4,-72.85Q-16.65 -72.6 -17.15 -72.6L-17.45 -72.6L-17.45 -72.75L-17.3 -73.6L-17.15 -73.6L-16.15 -73.6Q-16.15 -73.1 -16.4 -72.85" fill="rgb(35,159,35)" fill-opacity="1"></path><path d="M-24.1,-48.6Q-23.45 -44.4 -25.15 -42.6L-25.15 -43.6L-25.15 -49.6L-24.15 -49.6L-24.1 -48.6" fill="rgb(120,122,120)" fill-opacity="1"></path><path d="M-20.15,-54.6L-20.15 -57.6L-19.15 -57.6L-19.05 -56.6Q-18.45 -53.9 -20.15 -53.6L-20.15 -54.6" fill="rgb(85,81,79)" fill-opacity="1"></path><path d="M-21.15,-46.6L-21.15 -49.6L-20.15 -49.6L-20.05 -48.6Q-19.45 -45.9 -21.15 -45.6L-21.15 -46.6" fill="rgb(100,95,93)" fill-opacity="1"></path><path d="M-45.15,74.4L-45.35 74.4L-45.55 73.35L-45.15 73.4L-45.15 74.4" fill="rgb(30,159,30)" fill-opacity="1"></path><path d="M-19.15,-13.6L-22.15 -13.6L-22.15 -14.6L-18.25 -14.15L-18.15 -13.6L-19.15 -13.6" fill="rgb(78,72,42)" fill-opacity="1"></path><path d="M-32.05,-14.6Q-31.45 -11.9 -33.15 -11.6L-33.15 -12.6L-33.15 -15.6L-32.15 -15.6L-32.05 -14.6" fill="rgb(124,126,124)" fill-opacity="1"></path><path d="M-46.15,1.4L-46.15 0.4L-39.15 -0.55L-38.15 -0.6L-38.15 0.4L-39.1 0.55Q-40.15 0.9 -41.15 1.4L-42.15 1.4L-45.15 1.4L-46.15 1.4" fill="rgb(17,21,17)" fill-opacity="1"></path><path d="M-37.15,-1.6L-37.15 -2.6L-34.15 -2.6L-33.15 -2.6Q-33.15 -2.1 -33.4 -1.85Q-33.65 -1.6 -34.15 -1.6L-35.15 -1.6L-37.15 -1.6" fill="rgb(47,50,47)" fill-opacity="1"></path><path d="M-38.15,-0.6L-38.15 -1.6L-37.15 -1.6L-35.15 -1.6L-34.15 -1.6L-34.15 -0.6L-35 -0.35Q-36.2 0.35 -38.15 0.4L-38.15 -0.6" fill="rgb(24,26,21)" fill-opacity="1"></path><path d="M-28.15,-6.6L-28.15 -7.6L-27.15 -7.6L-23.1 -5.75L-22.15 -5.6Q-21.35 -3.9 -18.15 -4.5L-17.15 -4.6Q-17.15 -4.1 -17.4 -3.85Q-19.2 -2.15 -23.15 -2.6L-23.15 -3.1L-28.15 -2.6L-28.15 -1.6L-29.15 -1.6L-32.15 -1.6L-32.15 -0.6L-33.15 -0.6L-34.15 -0.6L-34.15 -1.6Q-33.65 -1.6 -33.4 -1.85Q-33.15 -2.1 -33.15 -2.6L-33.15 -3.6L-33.15 -4.6Q-31.65 -3.15 -30.4 -4.8Q-30.15 -5.1 -30.15 -5.6L-28.35 -6Q-28.15 -6.1 -28.15 -6.6" fill="rgb(22,22,20)" fill-opacity="1"></path><path d="M-38.15,52.4L-38.15 51.4L-38.15 47.4Q-36.45 46.1 -37.05 42.4L-37.15 41.4L-37.15 40.4Q-35.4 37.15 -36.1 31.4L-36.15 30.4L-35.9 29.6Q-30.8 23.6 -36.15 20.4Q-36.15 19.9 -36.25 19.9L-42.15 19.4L-42.15 20.4L-43.15 20.4L-50.15 20.4Q-50.15 19.9 -50.4 19.65Q-51.85 18.1 -51.15 14.4L-47.35 8.3L-47.15 7.4Q-45.5 7.55 -46.05 5.35L-46.15 4.4Q-44.1 2.95 -41.3 1.95Q-41.15 1.9 -41.15 1.4Q-40.15 0.9 -39.1 0.55L-38.15 0.4Q-36.2 0.35 -35 -0.35L-34.15 -0.6L-33.15 -0.6L-32.15 -0.6L-29.15 -0.6L-28.15 -0.6Q-24.6 1.35 -23.3 5.45L-23.15 6.4Q-15.75 10.2 -20.9 13.75L-21.15 14.4L-22.1 14.55Q-27.55 16.5 -30.15 21.4L-30.15 22.4L-30.15 23.4L-30.15 24.4L-31.15 24.4L-31.15 29.4L-31.15 30.4Q-31.05 33.3 -29.4 34.7Q-29.15 34.9 -29.15 35.4Q-28.2 36.45 -27.7 38.25L-27.15 38.4L-24.9 41.15L-24.15 41.4Q-21.6 44.35 -17.15 45.3L-16.15 45.4Q-15.85 47.1 -13.15 46.5L-12.15 46.4Q-9.9 48.15 -5.25 46.95L-5.15 46.4L-3.15 46.4L-2.15 46.4L1.75 45.95L1.85 45.4L2.95 44.6L3.85 44.4L11.9 41.55L12.85 41.4L12.85 42.4L12.65 43.25Q1.8 61.85 -16.15 73.4L-17.15 73.4L-22.15 73.4L-23.15 73.3Q-34.05 70.85 -37.15 60.4Q-37.15 59.9 -37.3 59.45Q-38.3 56.55 -38.15 52.4" fill="rgb(148,135,122)" fill-opacity="1"></path><path d="M-29.15,-0.6L-32.15 -0.6L-32.15 -1.6L-29.15 -1.6L-28.15 -1.6L-28.15 -0.6L-29.15 -0.6" fill="rgb(77,71,64)" fill-opacity="1"></path><path d="M-28.35,-6L-30.15 -5.6L-30.15 -6.6L-30.15 -8.6L-29.15 -8.6Q-29.15 -7.6 -28.75 -6.8L-28.15 -6.6Q-28.15 -6.1 -28.35 -6" fill="rgb(63,60,33)" fill-opacity="1"></path><path d="M-24.15,-2.6Q-22.25 0.5 -22.15 5.4L-22.15 6.4L-23.15 6.4L-23.3 5.45Q-24.6 1.35 -28.15 -0.6L-28.15 -1.6L-28.15 -2.6L-23.15 -3.1L-23.15 -2.6L-24.15 -2.6" fill="rgb(30,28,27)" fill-opacity="1"></path><path d="M-14.15,-12.5Q-16.85 -11.9 -17.15 -13.6L-13.25 -13.15L-13.15 -12.6L-14.15 -12.5" fill="rgb(59,55,34)" fill-opacity="1"></path><path d="M-17.15,-4.6L-18.15 -4.5Q-21.35 -3.9 -22.15 -5.6Q-17.95 -6.35 -16.65 -4.6L-17.15 -4.6M-11.15,9.4Q-11.15 9.9 -11.3 9.95Q-14.35 11.1 -15.15 9.4L-12.15 9.4L-11.15 9.4" fill="rgb(73,66,62)" fill-opacity="1"></path><path d="M-2.15,-5.6L-2.15 -4.6L-2.15 -3.6L-2.15 -2.6L-2.15 -1.6L-2.65 -1.7Q-3.15 -4.1 -3.15 -6.6L-2.15 -6.6L-2.15 -5.6" fill="rgb(45,42,33)" fill-opacity="1"></path><path d="M-5.15,0.4L-5.15 -3.6Q-3.45 -2.3 -4.6 1.25L-5.15 1.4L-5.15 0.4" fill="rgb(58,53,50)" fill-opacity="1"></path><path d="M-10.15,11.4L-0.2 10.9L-0.15 10.4L0.95 11.2L1.85 11.4L1.6 12.15L0.85 12.4L-0.15 12.4L-10.15 12.4L-10.15 11.4" fill="rgb(43,41,38)" fill-opacity="1"></path><path d="M-0.25,22.85L-4.15 22.4L-5.15 22.4L-23.15 22.4L-24.1 22.5Q-26.25 23.05 -26.15 21.4L-26.15 20.4L-21.4 16.15L-21.15 15.4Q-16.6 13.45 -11.15 12.5L-10.15 12.4L-0.15 12.4L0.85 12.4Q0.75 14.05 2.9 13.5L3.85 13.4Q6.3 14.95 8.15 17.15L8.85 17.4Q10.45 20.35 9.35 25.3L8.85 25.4L8 25.2Q4.9 23.35 -0.15 23.4L-0.25 22.85" fill="rgb(127,113,106)" fill-opacity="1"></path><path d="M-0.15,23.4L-1.15 23.5Q-3.85 24.1 -4.15 22.4L-0.25 22.85L-0.15 23.4" fill="rgb(85,76,72)" fill-opacity="1"></path><path d="M33.85,24.4L32.85 24.4L27.85 24.4L26.85 24.4L23.85 24.4L23.85 25.4L22.9 25.55L12.85 29.4L11.85 29.4L11.85 30.4L10.85 30.4L9.85 30.4L9.6 29.65L8.85 29.4L8.6 28.6Q7.6 27.2 4.85 27.4L4.75 26.85L0.85 26.4L-0.15 26.4L-2.15 26.4L-2.25 25.85L-6.15 25.4L-7.15 25.35Q-18.3 24.75 -27.15 26.4L-28.15 26.4L-29.15 26.4L-29.35 25.5L-30.15 24.4L-30.15 23.4L-28.15 23.4L-27.15 23.4L-23.25 22.95L-23.15 22.4L-5.15 22.4L-4.15 22.4Q-3.85 24.1 -1.15 23.5L-0.15 23.4Q4.9 23.35 8 25.2L8.85 25.4L9.95 26.2L10.85 26.4Q11.35 26.9 11.85 26.9L11.85 26.4L13.65 26L13.85 25.4Q20.05 23.15 27.85 22.45L28.85 22.4L33.75 21.9L33.85 21.4L44.85 21.4L45.85 21.4Q46.15 23.1 48.85 22.5L49.85 22.4Q50.85 21.4 52 20.65Q52.35 20.4 52.85 20.4L54.65 20.8Q54.85 20.9 54.85 21.4L53.85 21.4L52.85 21.4Q53.85 23.85 53.85 27.4L53.85 28.4L52.85 28.4L52.85 31.4L52.85 32.4L52.7 33.35Q50.95 38 46.85 40.4L45.85 40.4L45.85 39.4L45.85 38.4Q48.95 36 50.65 32.3L50.85 31.4L51.4 31.25Q52.55 27.15 50.85 25.4L50.75 24.9L45.85 24.4L44.85 24.4L42.85 24.4L42.8 23.9L34.85 23.4L34.85 24.4L33.85 24.4" fill="rgb(29,30,29)" fill-opacity="1"></path><path d="M-42.15,19.4L-36.25 19.9Q-36.15 19.9 -36.15 20.4L-37.15 20.4L-42.15 20.4L-42.15 19.4" fill="rgb(86,81,72)" fill-opacity="1"></path><path d="M-38.15,32.4Q-38.15 31.9 -38.4 31.65Q-38.65 31.4 -39.15 31.4L-39.15 30.4L-39.15 29.4Q-38.65 29.4 -38.6 29.25Q-37.45 25.7 -39.15 24.4L-39.15 23.9Q-41.85 24.1 -42.15 22.4L-42.15 21.4L-42.15 20.4L-37.15 20.4L-36.15 20.4Q-30.8 23.6 -35.9 29.6L-36.15 30.4L-37.15 30.4L-37.15 31.4L-37.15 32.4L-38.15 32.4" fill="rgb(10,13,10)" fill-opacity="1"></path><path d="M-27.15,21.4L-27.15 22.4L-27.15 23.4L-28.15 23.4L-30.15 23.4L-30.15 22.4L-30.15 21.4Q-27.55 16.5 -22.1 14.55L-21.15 14.4L-21.15 15.4L-21.4 16.15L-26.15 20.4L-26.15 21.4L-27.15 21.4" fill="rgb(51,50,49)" fill-opacity="1"></path><path d="M-26.15,21.4Q-26.25 23.05 -24.1 22.5L-23.15 22.4L-23.25 22.95L-27.15 23.4L-27.15 22.4L-27.15 21.4L-26.15 21.4" fill="rgb(99,89,84)" fill-opacity="1"></path><path d="M-30.15,30.4L-31.15 30.4L-31.15 29.4L-31.15 24.4L-30.15 24.4L-29.35 25.5L-29.15 26.4L-29.15 29.4L-29.15 30.4L-30.15 30.4" fill="rgb(16,16,15)" fill-opacity="1"></path><path d="M-28.9,31.15L-29.15 30.4L-29.15 29.4L-29.15 26.4L-28.15 26.4L-27.15 26.4L-27.4 27.15L-28.15 27.4L-28.15 30.4L-28.15 31.4L-28.9 31.15" fill="rgb(154,154,154)" fill-opacity="1"></path><path d="M33.75,24.9L33.85 24.4L34.85 24.4L41.85 24.4L42.85 24.4L44.85 24.4L45.85 24.4Q46.65 26.1 49.85 25.5L50.85 25.4L50.85 30.4L50.85 31.4L50.65 32.3Q48.95 36 45.85 38.4L45.85 39.4L45.85 40.4L44.85 40.35Q42.15 40.2 40.85 41.4L40.85 42.4Q40.35 42.4 40.15 42.65Q39.05 44.1 35.85 43.4L35.35 43.4Q38.6 39.95 34.85 37.4L34.8 36.9L25.85 36.4L25.85 37.4L25.65 38.3Q21.95 45 14.85 40.4L14.6 39.65L12.85 38.4L12.85 37.4L12.85 36.4L12.85 29.4L22.9 25.55L23.85 25.4L26.85 25.4L27.85 25.4L33.75 24.9M-3.15,26.5L-2.15 26.4L-0.15 26.4L0.85 26.4Q1.15 28.1 3.85 27.5L4.85 27.4Q7.6 27.2 8.6 28.6L8.85 29.4L8.85 37.4L8.85 38.4L8.6 39.1Q5.9 41.45 1.85 42.4L1.65 41.5Q0.15 38.6 -3.15 37.4Q-3.15 36.9 -3.25 36.9L-9.15 36.4L-9.15 37.4L-10.05 37.6Q-13.2 39.35 -15.15 42.4L-16.15 42.4L-19.15 42.4L-19.85 42.15Q-21.25 40.5 -24.15 40.4L-24.2 39.4Q-24.45 37.7 -26.15 37.4L-26.35 36.5L-27.15 35.4L-27.35 34.8Q-28.85 34.1 -28.15 31.4L-28.15 30.4L-28.15 27.4L-27.4 27.15L-27.15 26.4Q-18.3 24.75 -7.15 25.35L-6.15 25.4Q-5.85 27.1 -3.15 26.5" fill="rgb(247,247,247)" fill-opacity="1"></path><path d="M-31.15,30.4L-30.15 30.4L-29.15 30.4L-28.9 31.15L-28.15 31.4Q-28.85 34.1 -27.35 34.8L-27.15 35.4L-28.15 35.4L-29.15 35.4Q-29.15 34.9 -29.4 34.7Q-31.05 33.3 -31.15 30.4" fill="rgb(31,31,30)" fill-opacity="1"></path><path d="M-29.15,35.4L-28.15 35.4L-27.15 35.4L-26.35 36.5L-26.15 37.4Q-26.15 37.9 -26.4 38.15L-27.15 38.4L-27.7 38.25Q-28.2 36.45 -29.15 35.4" fill="rgb(54,53,51)" fill-opacity="1"></path><path d="M-36.1,31.4Q-35.4 37.15 -37.15 40.4L-37.15 39.4L-37.15 32.4L-37.15 31.4L-37.15 30.4L-36.15 30.4L-36.1 31.4" fill="rgb(95,90,85)" fill-opacity="1"></path><path d="M-38.6,29.25Q-38.65 29.4 -39.15 29.4L-39.15 28.4L-39.15 24.4Q-37.45 25.7 -38.6 29.25" fill="rgb(111,112,111)" fill-opacity="1"></path><path d="M-9.15,94.4L-10.15 94.4L-12.15 94.4Q-12.15 93.9 -12.25 93.9L-18.15 93.4L-19.15 93.4L-23.15 93.4L-24.15 93.3Q-38.5 90.25 -44.15 78.4L-44.15 77.4L-44.15 74.4L-44.15 73.4L-44.15 70.4L-44.15 69.4L-44.15 65.4Q-42.45 65.1 -43.05 62.4L-43.15 61.4L-43.15 60.4L-43.15 57.4L-43.15 56.4L-43.15 51.4Q-41.15 49.4 -41.15 45.4L-41.15 44.4Q-39.45 44.1 -40.05 41.4L-40.15 40.4L-40.15 39.4L-40.15 35.4Q-38.45 35.1 -39.05 32.4L-39.15 31.4Q-38.65 31.4 -38.4 31.65Q-38.15 31.9 -38.15 32.4L-38.15 40.4L-38.15 41.4L-38.15 46.4L-38.15 47.4L-39.15 47.4L-39.15 51.4L-39.15 52.4L-40.15 52.4L-40.15 56.4L-40.15 57.4Q-40.15 61.9 -39.65 66.35L-39.15 66.4L-39.15 68.4L-39.15 69.4L-39.15 70.4L-40.15 70.4Q-40.15 72.4 -39.7 74.3L-39.15 74.4Q-35.6 85.85 -23.15 88.3L-22.15 88.4Q-20.4 90.1 -16.3 88.95Q-16.15 88.9 -16.15 88.4L-15.15 88.4Q-13.45 88.1 -14.05 85.4L-14.15 84.4L-14.15 83.4Q-11.7 78.85 -6.1 77.5L-5.15 77.4L2.85 77.4L3.85 77.4Q4.4 79.4 5.6 80.65L5.85 81.4L5.85 84.4L5.85 85.4L5.65 86.3Q4.65 88.2 2.85 89.4Q2.85 90.4 3.25 91.2Q3.35 91.4 3.85 91.4Q4.15 93.1 6.85 92.5L7.85 92.4Q22.45 93.55 15.45 79.6Q15.35 79.4 17 78.7Q18.85 77.9 20.85 77.4L25.85 77.4L26.85 77.4Q33 78.75 34.7 84.45L34.85 85.4Q34.85 87.4 35.3 89.3L35.85 89.4L40.85 89.4L41.85 89.4L45.75 88.95L45.85 88.4Q57.6 87.15 60.7 77.35L60.85 76.4L61.35 76.3Q62.6 69.15 60.85 64.4L60.85 63.4L60.85 62.4L60.95 61.4Q61.55 58.2 59.85 57.4L59.95 56.4Q60.55 53.2 58.85 52.4L58.85 51.4L58.95 50.4Q59.55 47.7 57.85 47.4L57.75 46.4Q57.1 43.15 56.85 39.4L56.95 38.4Q57.55 35.2 55.85 34.4L56 33.45Q58.15 25.6 54.85 21.4Q54.85 20.9 54.65 20.8L52.85 20.4L52.85 19.4L59.85 19.4L60.85 19.4Q60.85 19.9 61.1 20.15L61.85 20.4L61.85 22.4L61.85 23.4L61.65 24.3L60.85 25.4L60.85 26.4L59.85 26.4Q59.85 28.9 60.35 31.3L60.85 31.4L60.85 32.4L60.85 33.4Q60.85 35.4 61.3 37.3L61.85 37.4L61.85 38.4L61.85 39.4Q61.85 41.4 62.3 43.3L62.85 43.4L62.85 44.4Q62.85 46.4 63.3 48.3L63.85 48.4L63.85 49.4L63.85 50.4Q63.85 52.4 64.3 54.3L64.85 54.4L64.85 55.4L64.85 59.4L64.85 60.4Q64.85 63.4 65.35 66.3L65.85 66.4L65.85 67.4Q66.15 85.2 54.85 91.4L53.9 91.55Q48.45 93.45 40.85 93.4L39.85 93.4L35.85 93.4L34.85 93.4L29.85 93.4L29.85 94.4L28.85 94.4L27.85 94.4L26.85 94.4L18.85 94.4L18.85 95.4L17.85 95.4L-2.15 95.4L-2.2 94.9L-9.15 94.4" fill="rgb(4,7,4)" fill-opacity="1"></path><path d="M-38.15,41.4L-38.15 40.4L-38.15 32.4L-37.15 32.4L-37.15 39.4L-37.15 40.4L-37.15 41.4L-38.15 41.4" fill="rgb(34,36,35)" fill-opacity="1"></path><path d="M-40.05,41.4Q-39.45 44.1 -41.15 44.4L-41.15 43.4L-41.15 40.4L-40.15 40.4L-40.05 41.4" fill="rgb(75,77,75)" fill-opacity="1"></path><path d="M-37.05,42.4Q-36.45 46.1 -38.15 47.4L-38.15 46.4L-38.15 41.4L-37.15 41.4L-37.05 42.4" fill="rgb(77,72,65)" fill-opacity="1"></path><path d="M-38.15,51.4L-38.15 52.4L-39.15 52.4L-39.15 51.4L-39.15 47.4L-38.15 47.4L-38.15 51.4" fill="rgb(96,97,97)" fill-opacity="1"></path><path d="M-24.15,41.4L-24.9 41.15L-27.15 38.4L-26.4 38.15Q-26.15 37.9 -26.15 37.4Q-24.45 37.7 -24.2 39.4L-24.15 40.4L-24.15 41.4" fill="rgb(60,60,58)" fill-opacity="1"></path><path d="M-3.15,45.4L-16.15 45.4L-17.15 45.3Q-21.6 44.35 -24.15 41.4L-24.15 40.4Q-21.25 40.5 -19.85 42.15L-19.15 42.4Q-18.35 44.1 -15.3 42.95Q-15.15 42.9 -15.15 42.4Q-13.2 39.35 -10.05 37.6L-9.15 37.4L-4.15 37.4L-3.15 37.4Q0.15 38.6 1.65 41.5L1.85 42.4Q1.75 44.05 3.85 43.9L3.85 44.4L2.95 44.6L1.85 45.4L0.85 45.4L-2.15 45.4L-3.15 45.4" fill="rgb(27,27,27)" fill-opacity="1"></path><path d="M-6.15,25.4L-2.25 25.85L-2.15 26.4L-3.15 26.5Q-5.85 27.1 -6.15 25.4" fill="rgb(160,161,161)" fill-opacity="1"></path><path d="M-9.15,37.4L-9.15 36.4L-3.25 36.9Q-3.15 36.9 -3.15 37.4L-4.15 37.4L-9.15 37.4" fill="rgb(97,98,98)" fill-opacity="1"></path><path d="M-3.15,46.4L-5.15 46.4L-6.15 46.4L-12.15 46.4L-13.15 46.5Q-15.85 47.1 -16.15 45.4L-3.15 45.4L-2.15 45.4L-2.15 46.4L-3.15 46.4" fill="rgb(41,41,40)" fill-opacity="1"></path><path d="M-15.3,42.95Q-18.35 44.1 -19.15 42.4L-16.15 42.4L-15.15 42.4Q-15.15 42.9 -15.3 42.95" fill="rgb(118,118,118)" fill-opacity="1"></path><path d="M-5.15,46.4L-5.25 46.95Q-9.9 48.15 -12.15 46.4L-6.15 46.4L-5.15 46.4" fill="rgb(88,88,86)" fill-opacity="1"></path><path d="M1.75,45.95L-2.15 46.4L-2.15 45.4L0.85 45.4L1.85 45.4L1.75 45.95" fill="rgb(62,58,54)" fill-opacity="1"></path><path d="M-46.15,3.4L-46.15 2.4L-45.4 2.15L-45.15 1.4L-42.15 1.4L-41.15 1.4Q-41.15 1.9 -41.3 1.95Q-44.1 2.95 -46.15 4.4L-46.15 3.4" fill="rgb(53,53,52)" fill-opacity="1"></path><path d="M-47.15,6.4L-47.15 3.4L-46.15 3.4L-46.15 4.4L-46.05 5.35Q-45.5 7.55 -47.15 7.4L-47.15 6.4" fill="rgb(46,45,40)" fill-opacity="1"></path><path d="M-50.15,22.4L-51.15 22.5Q-53.85 23.1 -54.15 21.4L-51.15 21.4L-50.15 21.4L-50.15 22.4" fill="rgb(101,103,101)" fill-opacity="1"></path><path d="M-43.15,21.4L-42.15 21.4L-42.15 22.4L-43.15 22.4L-50.15 22.4L-50.15 21.4L-43.15 21.4" fill="rgb(117,126,117)" fill-opacity="1"></path><path d="M-50.15,21.4L-50.15 20.4L-43.15 20.4L-42.15 20.4L-42.15 21.4L-43.15 21.4L-50.15 21.4" fill="rgb(80,87,72)" fill-opacity="1"></path><path d="M-45.15,73.4L-45.15 72.4L-45.15 70.4L-44.15 70.4L-44.15 73.4L-44.15 74.4L-45.15 74.4L-45.15 73.4M-44.15,61.4L-44.15 60.4L-44.15 57.4L-43.15 57.4L-43.15 60.4L-43.15 61.4L-44.15 61.4" fill="rgb(95,97,96)" fill-opacity="1"></path><path d="M-44.15,65.4L-44.15 64.4L-44.15 61.4L-43.15 61.4L-43.05 62.4Q-42.45 65.1 -44.15 65.4" fill="rgb(57,59,58)" fill-opacity="1"></path><path d="M-44.15,74.4L-44.15 77.4L-44.15 78.4L-44.7 78.3L-44.9 77.25L-45 76.4L-45.15 74.4L-44.15 74.4" fill="rgb(63,135,63)" fill-opacity="1"></path><path d="M-17.15,88.4L-22.15 88.4L-23.15 88.3Q-35.6 85.85 -39.15 74.4L-39.15 73.4L-39.15 70.4L-39.15 69.4Q-37.4 66.65 -38.1 61.4L-38.15 60.4L-37.15 60.4Q-34.05 70.85 -23.15 73.3L-22.15 73.4Q-20.4 75.1 -16.3 73.95Q-16.15 73.9 -16.15 73.4Q1.8 61.85 12.65 43.25L12.85 42.4Q18.15 44.6 24.85 45.35L25.85 45.4Q31.6 47.15 39.8 45.9L39.85 45.4L40.6 45.15L40.85 44.4Q41.35 43.9 41.95 43.6L42.85 43.4L46.6 41.1L46.85 40.4Q50.95 38 52.7 33.35L52.85 32.4Q54.55 32.1 53.95 29.4L53.85 28.4L53.85 27.4Q53.85 23.85 52.85 21.4L53.85 21.4L54.85 21.4Q58.15 25.6 56 33.45L55.85 34.4Q55.85 36.9 56.35 39.3L56.85 39.4Q57.1 43.15 57.75 46.4L57.85 47.4Q57.85 49.4 58.3 51.3L58.85 51.4L58.85 52.4Q58.85 54.9 59.35 57.3L59.85 57.4Q59.85 59.9 60.35 62.3L60.85 62.4L60.85 63.4L60.85 64.4L60.85 75.4L60.85 76.4L60.7 77.35Q57.6 87.15 45.85 88.4L44.85 88.4L41.85 88.4L41.85 89.4L40.85 89.4L35.85 89.4L35.95 88.4Q36.55 85.7 34.85 85.4L34.7 84.45Q33 78.75 26.85 77.4L26.75 76.9L20.85 76.4L20.85 77.4Q18.85 77.9 17 78.7Q15.35 79.4 15.45 79.6Q22.45 93.55 7.85 92.4L7.75 91.85L3.85 91.4Q3.35 91.4 3.25 91.2Q2.85 90.4 2.85 89.4Q4.65 88.2 5.65 86.3L5.85 85.4L6.4 85.25Q7.55 82.2 5.85 81.4L5.6 80.65Q4.4 79.4 3.85 77.4L3.8 76.9L-5.15 76.4L-5.15 77.4L-6.1 77.5Q-11.7 78.85 -14.15 83.4L-14.15 84.4L-15.15 84.4L-15.15 87.4L-15.15 88.4L-16.15 88.4L-17.15 88.4" fill="rgb(119,110,59)" fill-opacity="1"></path><path d="M-40.15,57.4L-40.15 56.4L-40.15 52.4L-39.15 52.4L-39.15 56.4L-39.15 57.4L-40.15 57.4" fill="rgb(47,48,48)" fill-opacity="1"></path><path d="M-37.3,59.45Q-37.15 59.9 -37.15 60.4L-38.15 60.4L-38.35 59.5L-39.15 58.4L-39.15 57.4L-39.15 56.4L-39.15 52.4L-38.15 52.4Q-38.3 56.55 -37.3 59.45" fill="rgb(118,115,105)" fill-opacity="1"></path><path d="M-39.15,66.4L-39.65 66.35Q-40.15 61.9 -40.15 57.4L-39.15 57.4L-39.15 58.4L-39.15 65.4L-39.15 66.4" fill="rgb(35,37,36)" fill-opacity="1"></path><path d="M-39.15,65.4L-39.15 58.4L-38.35 59.5L-38.15 60.4L-38.1 61.4Q-37.4 66.65 -39.15 69.4L-39.15 68.4L-39.15 66.4L-39.15 65.4" fill="rgb(107,100,61)" fill-opacity="1"></path><path d="M-39.15,74.4L-39.7 74.3Q-40.15 72.4 -40.15 70.4L-39.15 70.4L-39.15 73.4L-39.15 74.4" fill="rgb(48,46,25)" fill-opacity="1"></path><path d="M3.85,77.4L2.85 77.4L-5.15 77.4L-5.15 76.4L3.8 76.9L3.85 77.4" fill="rgb(90,84,46)" fill-opacity="1"></path><path d="M-14.15,84.4L-14.05 85.4Q-13.45 88.1 -15.15 88.4L-15.15 87.4L-15.15 84.4L-14.15 84.4" fill="rgb(75,71,39)" fill-opacity="1"></path><path d="M-16.15,88.4Q-16.15 88.9 -16.3 88.95Q-20.4 90.1 -22.15 88.4L-17.15 88.4L-16.15 88.4" fill="rgb(56,53,29)" fill-opacity="1"></path><path d="M-19.15,93.4L-18.15 93.4L-18.15 94.4L-19.15 94.5Q-22.35 95.1 -23.15 93.4L-19.15 93.4" fill="rgb(26,159,26)" fill-opacity="1"></path><path d="M-12.25,93.9Q-12.15 93.9 -12.15 94.4L-13.15 94.4L-18.15 94.4L-18.15 93.4L-12.25 93.9" fill="rgb(56,112,56)" fill-opacity="1"></path><path d="M-2.2,94.9L-2.15 95.4L-3.15 95.45Q-7.4 96.1 -9.15 94.4L-2.2 94.9" fill="rgb(58,114,59)" fill-opacity="1"></path><path d="M69.85,20.4L69.85 19.4L69.85 18.4Q69.35 6.9 62.85 1.4L63.6 1.15L63.85 0.4Q74.8 5.95 74.15 17.35Q74 19.55 71.85 20.4L70.85 20.4L69.85 20.4" fill="rgb(9,13,8)" fill-opacity="1"></path><path d="M69.85,20.4L68.85 20.4L61.85 20.4L61.1 20.15Q60.85 19.9 60.85 19.4L68.85 19.4L69.85 19.4L69.85 20.4" fill="rgb(42,69,39)" fill-opacity="1"></path><path d="M59.85,19.4L52.85 19.4L52.85 18.4L60.8 18.9L60.85 19.4L59.85 19.4" fill="rgb(53,55,51)" fill-opacity="1"></path><path d="M70.85,20.4L71.85 20.4L71.85 20.9Q64.75 20.3 61.85 23.4L61.85 22.4L61.85 20.4L68.85 20.4L69.85 20.4L70.85 20.4" fill="rgb(57,149,57)" fill-opacity="1"></path><path d="M40.95,13.2L39.85 12.4L40.6 12.15L40.85 11.4L41.95 12.2L42.85 12.4L42.6 13.15L41.85 13.4L40.95 13.2" fill="rgb(41,39,36)" fill-opacity="1"></path><path d="M12.85,15.4L12.85 14.4Q17.2 12.75 20.95 10.6L21.85 10.4L22.4 10.25Q23.55 7.2 21.85 6.4L21.85 5.4L21.95 4.45Q22.5 2.3 20.85 2.4L20.85 1.4L21.85 1.4L22.85 1.4Q23.45 6.3 26.95 8.2L27.85 8.4Q30.1 10.15 34.75 8.95L34.85 8.4Q35.9 7.45 37.85 7.4L38.85 7.4L39.6 7.65L39.85 8.4L38.85 8.4Q38.9 10.35 40 11.15L40.85 11.4L40.6 12.15L39.85 12.4L38.85 12.4L38.75 11.85L34.85 11.4L34.8 10.9L25.85 10.4L25.85 11.4L25.75 11.9Q18.7 13.25 13.85 16.4L13.6 15.65L12.85 15.4" fill="rgb(26,25,24)" fill-opacity="1"></path><path d="M52.85,20.4Q52.35 20.4 52 20.65Q50.85 21.4 49.85 22.4L49.65 21.5L48.85 20.4L48.6 19.6Q45.75 16 41.85 13.4L42.6 13.15L42.85 12.4Q49.1 14.15 52.2 19.2L52.85 19.4L52.85 20.4" fill="rgb(47,45,44)" fill-opacity="1"></path><path d="M13.85,16.4Q18.7 13.25 25.75 11.9L25.85 11.4L33.85 11.4L34.85 11.4Q35.15 13.1 37.85 12.5L38.85 12.4L39.85 12.4L40.95 13.2L41.85 13.4Q45.75 16 48.6 19.6L48.85 20.4L48.7 20.95L45.85 21.4L44.85 21.4L33.85 21.4L32.85 21.4L28.85 21.4L28.85 22.4L27.85 22.45Q20.05 23.15 13.85 25.4L13.35 25.35Q12.85 21.4 12.85 17.4L13.6 17.15L13.85 16.4" fill="rgb(126,112,105)" fill-opacity="1"></path><path d="M41.85,24.4L34.85 24.4L34.85 23.4L42.8 23.9L42.85 24.4L41.85 24.4" fill="rgb(77,77,77)" fill-opacity="1"></path><path d="M48.7,20.95L48.85 20.4L49.65 21.5L49.85 22.4L48.85 22.5Q46.15 23.1 45.85 21.4L48.7 20.95" fill="rgb(92,83,79)" fill-opacity="1"></path><path d="M49.85,25.5Q46.65 26.1 45.85 24.4L50.75 24.9L50.85 25.4L49.85 25.5" fill="rgb(164,164,164)" fill-opacity="1"></path><path d="M53.95,29.4Q54.55 32.1 52.85 32.4L52.85 31.4L52.85 28.4L53.85 28.4L53.95 29.4" fill="rgb(58,54,40)" fill-opacity="1"></path><path d="M50.85,30.4L50.85 25.4Q52.55 27.15 51.4 31.25L50.85 31.4L50.85 30.4" fill="rgb(158,158,158)" fill-opacity="1"></path><path d="M60.35,31.3Q59.85 28.9 59.85 26.4L60.85 26.4L60.85 30.4L60.85 31.4L60.35 31.3" fill="rgb(51,114,51)" fill-opacity="1"></path><path d="M42.65,42.8L40.85 42.4L40.85 41.4Q42.15 40.2 44.85 40.35L45.85 40.4L46.85 40.4L46.6 41.1L42.85 43.4Q42.85 42.9 42.65 42.8" fill="rgb(53,53,50)" fill-opacity="1"></path><path d="M35.85,43.4Q39.05 44.1 40.15 42.65Q40.35 42.4 40.85 42.4L42.65 42.8Q42.85 42.9 42.85 43.4L41.95 43.6Q41.35 43.9 40.85 44.4L39.85 44.5Q36.65 45.1 35.85 43.4" fill="rgb(59,59,59)" fill-opacity="1"></path><path d="M25.85,45.4L24.85 45.35Q18.15 44.6 12.85 42.4L12.85 41.4L14.65 41L14.85 40.4Q21.95 45 25.65 38.3L25.85 37.4L33.85 37.4L34.85 37.4Q38.6 39.95 35.35 43.4L35.85 43.4Q36.65 45.1 39.85 44.5L40.85 44.4L40.6 45.15L39.85 45.4L38.85 45.4L25.85 45.4" fill="rgb(23,22,21)" fill-opacity="1"></path><path d="M55.85,34.4Q57.55 35.2 56.95 38.4L56.85 39.4L56.35 39.3Q55.85 36.9 55.85 34.4" fill="rgb(72,68,37)" fill-opacity="1"></path><path d="M61.3,37.3Q60.85 35.4 60.85 33.4Q62.55 33.7 61.95 36.4L61.85 37.4L61.3 37.3" fill="rgb(52,126,53)" fill-opacity="1"></path><path d="M62.3,43.3Q61.85 41.4 61.85 39.4Q63.55 39.7 62.95 42.4L62.85 43.4L62.3 43.3" fill="rgb(49,117,49)" fill-opacity="1"></path><path d="M63.3,48.3Q62.85 46.4 62.85 44.4Q64.55 44.7 63.95 47.4L63.85 48.4L63.3 48.3" fill="rgb(52,132,52)" fill-opacity="1"></path><path d="M33.85,11.4L25.85 11.4L25.85 10.4L34.8 10.9L34.85 11.4L33.85 11.4" fill="rgb(40,40,39)" fill-opacity="1"></path><path d="M34.85,8.4L34.75 8.95Q30.1 10.15 27.85 8.4L33.85 8.4L34.85 8.4" fill="rgb(66,59,55)" fill-opacity="1"></path><path d="M37.85,12.5Q35.15 13.1 34.85 11.4L38.75 11.85L38.85 12.4L37.85 12.5" fill="rgb(45,42,39)" fill-opacity="1"></path><path d="M20.85,2.4Q22.5 2.3 21.95 4.45L21.85 5.4L21.3 5.25Q20.8 3.45 19.85 2.4L20.85 2.4" fill="rgb(98,90,57)" fill-opacity="1"></path><path d="M21.85,10.4L21.85 9.4L21.85 6.4Q23.55 7.2 22.4 10.25L21.85 10.4" fill="rgb(50,47,43)" fill-opacity="1"></path><path d="M28.85,21.4L32.85 21.4L33.85 21.4L33.75 21.9L28.85 22.4L28.85 21.4" fill="rgb(72,65,62)" fill-opacity="1"></path><path d="M27.85,25.4L26.85 25.4L23.85 25.4L23.85 24.4L26.85 24.4L27.85 24.4L27.85 25.4" fill="rgb(75,75,75)" fill-opacity="1"></path><path d="M27.85,24.4L32.85 24.4L33.85 24.4L33.75 24.9L27.85 25.4L27.85 24.4" fill="rgb(162,162,162)" fill-opacity="1"></path><path d="M0.85,12.4L1.6 12.15L1.85 11.4L3.6 12.65L3.85 13.4L2.9 13.5Q0.75 14.05 0.85 12.4" fill="rgb(61,56,51)" fill-opacity="1"></path><path d="M13.6,15.65L13.85 16.4L12.85 16.4L11.85 16.4L10.85 16.4L10.85 17.4L9.85 17.4L8.85 17.4L8.15 17.15Q6.3 14.95 3.85 13.4Q8.4 13.85 11.9 15.25L12.85 15.4L13.6 15.65" fill="rgb(36,34,31)" fill-opacity="1"></path><path d="M8.85,17.4L9.85 17.4L10.85 17.4L10.85 25.4L10.85 26.4L9.95 26.2L8.85 25.4L9.35 25.3Q10.45 20.35 8.85 17.4" fill="rgb(94,93,92)" fill-opacity="1"></path><path d="M10.85,25.4L10.85 17.4L10.85 16.4L11.85 16.4L11.85 25.4L11.85 26.4L11.85 26.9Q11.35 26.9 10.85 26.4L10.85 25.4" fill="rgb(1,1,1)" fill-opacity="1"></path><path d="M11.85,25.4L11.85 16.4L12.85 16.4L13.85 16.4L13.6 17.15L12.85 17.4Q12.85 21.4 13.35 25.35L13.85 25.4L13.65 26L11.85 26.4L11.85 25.4" fill="rgb(91,90,90)" fill-opacity="1"></path><path d="M12.35,37.35L12.85 37.4L12.85 38.4Q12.85 38.9 12.65 39Q10.75 40.05 10.85 38.4L10.85 37.4L10.85 30.4L11.85 30.4Q11.85 33.9 12.35 37.35" fill="rgb(0,0,0)" fill-opacity="1"></path><path d="M11.85,30.4L11.85 29.4L12.85 29.4L12.85 36.4L12.85 37.4L12.35 37.35Q11.85 33.9 11.85 30.4" fill="rgb(55,55,55)" fill-opacity="1"></path><path d="M8.85,29.4L9.6 29.65L9.85 30.4L9.85 37.4L9.85 38.4L8.85 38.4L8.85 37.4L8.85 29.4" fill="rgb(225,225,225)" fill-opacity="1"></path><path d="M0.85,26.4L4.75 26.85L4.85 27.4L3.85 27.5Q1.15 28.1 0.85 26.4" fill="rgb(139,139,139)" fill-opacity="1"></path><path d="M10.85,37.4L10.85 38.4L9.85 38.4L9.85 37.4L9.85 30.4L10.85 30.4L10.85 37.4" fill="rgb(117,117,117)" fill-opacity="1"></path><path d="M12.65,39Q12.85 38.9 12.85 38.4L14.6 39.65L14.85 40.4L14.65 41L12.85 41.4L11.9 41.55L3.85 44.4L3.85 43.9Q1.75 44.05 1.85 42.4Q5.9 41.45 8.6 39.1L8.85 38.4L9.85 38.4L10.85 38.4Q10.75 40.05 12.65 39" fill="rgb(46,45,44)" fill-opacity="1"></path><path d="M38.85,45.4L39.85 45.4L39.8 45.9Q31.6 47.15 25.85 45.4L38.85 45.4" fill="rgb(50,47,31)" fill-opacity="1"></path><path d="M34.85,37.4L33.85 37.4L25.85 37.4L25.85 36.4L34.8 36.9L34.85 37.4" fill="rgb(98,98,98)" fill-opacity="1"></path><path d="M5.85,85.4L5.85 84.4L5.85 81.4Q7.55 82.2 6.4 85.25L5.85 85.4" fill="rgb(83,77,42)" fill-opacity="1"></path><path d="M7.85,92.4L6.85 92.5Q4.15 93.1 3.85 91.4L7.75 91.85L7.85 92.4" fill="rgb(55,53,29)" fill-opacity="1"></path><path d="M18.85,94.4L26.85 94.4L27.85 94.4L27.8 94.9L18.85 95.4L18.85 94.4" fill="rgb(54,126,54)" fill-opacity="1"></path><path d="M26.85,77.4L25.85 77.4L20.85 77.4L20.85 76.4L26.75 76.9L26.85 77.4" fill="rgb(86,81,44)" fill-opacity="1"></path><path d="M35.85,94.4L34.85 94.4L29.85 94.4L29.85 93.4L34.85 93.4L35.85 93.4L35.85 94.4" fill="rgb(59,123,60)" fill-opacity="1"></path><path d="M35.85,89.4L35.3 89.3Q34.85 87.4 34.85 85.4Q36.55 85.7 35.95 88.4L35.85 89.4" fill="rgb(64,61,33)" fill-opacity="1"></path><path d="M64.3,54.3Q63.85 52.4 63.85 50.4Q65.55 50.7 64.95 53.4L64.85 54.4L64.3 54.3" fill="rgb(55,114,56)" fill-opacity="1"></path><path d="M64.85,60.4L64.85 59.4L64.85 55.4Q66.55 56.2 65.95 59.4L65.85 60.4L64.85 60.4" fill="rgb(52,149,52)" fill-opacity="1"></path><path d="M65.35,66.3Q64.85 63.4 64.85 60.4L65.85 60.4L65.85 65.4L65.85 66.4L65.35 66.3" fill="rgb(31,86,31)" fill-opacity="1"></path><path d="M59.85,57.4Q61.55 58.2 60.95 61.4L60.85 62.4L60.35 62.3Q59.85 59.9 59.85 57.4" fill="rgb(45,44,28)" fill-opacity="1"></path><path d="M57.85,47.4Q59.55 47.7 58.95 50.4L58.85 51.4L58.3 51.3Q57.85 49.4 57.85 47.4" fill="rgb(57,54,30)" fill-opacity="1"></path><path d="M58.85,52.4Q60.55 53.2 59.95 56.4L59.85 57.4L59.35 57.3Q58.85 54.9 58.85 52.4" fill="rgb(49,48,33)" fill-opacity="1"></path><path d="M45.85,88.4L45.75 88.95L41.85 89.4L41.85 88.4L44.85 88.4L45.85 88.4" fill="rgb(68,64,35)" fill-opacity="1"></path><path d="M60.85,64.4Q62.6 69.15 61.35 76.3L60.85 76.4L60.85 75.4L60.85 64.4" fill="rgb(51,49,27)" fill-opacity="1"></path></g></g></g></g></svg>