<svg width="196" height="150" viewBox="-98 -94 196 150"><g><defs></defs></g><rect x="-98" y="-94" width="196" height="150" fill="#006600"></rect><g id="0"><defs></defs><g><g type="shape" id="0:1:165"><defs></defs><g transform="matrix(1,0,0,1,0,0)"><path d="M-27.65,55.9L-28.45 55.65Q-42.45 43.7 -46.65 21.9Q-46.65 21.4 -46.9 21.25Q-52.2 17.45 -62.55 18.9Q-64.8 17.25 -67.6 17.45Q-93.4 9.45 -97.65 -20.1L-97.65 -21.1L-97.65 -41.1L-97.65 -42.1L-97.65 -45.1Q-96.1 -47.55 -95.7 -51.1L-95.65 -52.1Q-89.15 -62.1 -78.55 -67.9L-77.65 -68.1L-76.9 -67.85L-76.65 -67.1Q-76.65 -66.6 -76.9 -66.35Q-77.15 -66.1 -77.65 -66.1L-78.5 -65.85Q-90.25 -57.7 -95.65 -43.1L-95.65 -38.1L-95.65 -37.1L-96.65 -37.1Q-96.65 -35.1 -96.2 -33.2L-95.65 -33.1L-95.65 -30.1L-95.65 -29.1Q-95.65 -25.6 -95.15 -22.15L-94.65 -22.1L-94.65 -21.1L-94.65 -20.1Q-94.65 -18.1 -94.2 -16.2L-93.65 -16.1Q-93.1 -9.15 -90.85 -4L-90.65 -3.1Q-79 8.75 -61.6 14.75L-60.65 14.9Q-57.9 16.65 -52.65 15.95L-51.65 15.9Q-34.9 18.1 -32.75 5.9L-32.65 4.9Q-30.9 2.65 -31.6 -2.1L-31.65 -3.1L-31.65 -4.1L-31.65 -5.1L-28.65 -5.1L-27.65 -5.1Q-25.15 -1.6 -24.7 3.9L-24.65 4.9L-24.2 8.8L-23.65 8.9Q-12.6 4.95 -10.7 -8.1L-10.65 -9.1Q-8.95 -9.9 -9.55 -13.1L-9.65 -14.1L-9.65 -15.1L-9.65 -18.1Q-9.65 -18.6 -9.85 -18.7Q-10.65 -19.1 -11.65 -19.1L-11.65 -20.1L-9.65 -20.1L-8.65 -20.1Q-5.25 -21 -5.15 -18.1L-4.65 -18.1L-4.65 -17.1L-4.65 -16.1L-4.65 -15.1L-4.65 -8.1L-4.65 -7.1L-4.6 -6.1Q-4.45 -3.4 -6.65 -3.1L-6.65 -2.1L-6.65 -1.1L-6.8 -0.15Q-8.55 4.5 -12.65 6.9L-12.65 7.9Q-13.15 7.9 -13.35 8.15Q-16.7 12.35 -22.65 13.9L-23.65 13.9L-27.65 13.9Q-28.15 13.9 -28.4 14.15Q-33.05 19 -42.65 18.9Q-38.3 34.55 -32.8 48.95Q-32.65 49.4 -32.65 49.9Q-23.35 51.6 -11.7 50.4L-11.65 49.9Q-6.25 41.3 -1.25 31.65Q-0.55 30.3 -0.65 31.9Q5.1 33.65 13.3 32.4L13.35 31.9L18.35 31.9L19.35 31.9L27.35 31.9L28.35 31.9L34.35 31.9L35.35 31.9Q38.65 25.25 41.05 35.2Q43.9 46.85 53.55 50.3L57.35 50.9L61.25 50.45L61.35 49.9Q67.35 49.4 69.2 44.85L69.35 43.9Q71.05 43.6 70.45 40.9L70.35 39.9L70.35 38.9L70.35 36.9Q72 37.05 71.45 34.85L71.35 33.9Q73.05 32.6 72.45 28.9L72.35 27.9L72.35 26.9L72.35 25.9Q74.6 19.65 74.35 10.9L74.35 9.9Q76.1 7.15 75.4 1.9L75.35 0.9L75.35 -0.1L75.35 -2.1Q76.3 -4.65 78.1 -6.35L78.35 -7.1L81.35 -7.1L82.35 -7.1Q84.9 -6.65 86.55 -5.35Q86.85 -5.1 87.35 -5.1Q88.15 -3.4 91.2 -4.55L91.35 -5.1L92.1 -5.35L92.35 -6.1L93.15 -7.2L93.35 -8.1L93.9 -8.2Q95.1 -13.35 93.35 -16.1L93.15 -17L92.35 -18.1L92.15 -18.95L89.35 -23.1L89.35 -24.1L90.35 -24.1Q97.65 -20.9 98.3 -11.1L98.35 -10.1L97.35 -10.1L97.35 -7.1L97.35 -6.1L97.3 -5.1Q97.05 -3.4 95.35 -3.1L95.35 -2.1L94.35 -2.1L84.35 -2.1L83.35 -2.1Q80.95 -2 79.35 3.9L79.35 6.9L79.35 7.9L78.35 7.9L78.35 11.9L78.35 12.9L78.25 13.5Q76.45 14.85 75.65 16.9L75.35 16.9L75.4 17.6Q74.9 19 74.9 20.7L74.5 37.9L74.35 37.9L74.35 40.9L74.35 41.9L74.25 42.9Q72.6 50.65 65.35 52.9L64.35 52.9L61.35 52.9L61.35 53.9Q60.85 53.9 60.65 54.15Q59.55 55.6 56.35 54.9L55.35 54.9L50.35 54.9L49.6 54.65Q42.15 47.1 37.35 36.9L37.25 36.4L31.35 35.9L30.35 35.9L21.35 35.9L20.35 35.9L10.35 35.9L9.35 35.9L4.35 35.9L4.35 36.9L3.35 36.9L0.35 36.9L0.35 37.9L-0.15 38Q-2.4 49.15 -8.65 55.9L-9.65 55.9L-27.65 55.9" fill="rgb(6,9,6)" fill-opacity="1"></path><path d="M-97.65,-21.1L-97.65 -20.1L-98.15 -20.1Q-98.65 -30.6 -98.65 -41.1L-97.65 -41.1L-97.65 -21.1" fill="rgb(62,142,62)" fill-opacity="1"></path><path d="M-39.65,-6.1Q-33.35 -6.35 -30.35 -9.85L-29.65 -10.1Q-29.65 -8.1 -29.2 -6.2L-28.65 -6.1L-27.9 -5.85Q-27.65 -5.6 -27.65 -5.1L-28.65 -5.1L-31.65 -5.1L-31.65 -4.1L-31.65 -3.1L-32.65 -3.1L-32.65 3.9L-32.65 4.9L-32.75 5.9Q-34.9 18.1 -51.65 15.9L-51.7 15.4L-60.65 14.9L-61.6 14.75Q-79 8.75 -90.65 -3.1L-90.85 -4Q-93.1 -9.15 -93.65 -16.1L-93.55 -17.1Q-92.95 -19.8 -94.65 -20.1L-94.65 -21.1L-94.65 -22.1L-94.55 -23.1Q-93.9 -27.35 -95.65 -29.1L-95.65 -30.1L-95.65 -33.1L-95.65 -34.1L-95.65 -37.1L-95.65 -38.1L-95.65 -43.1Q-90.25 -57.7 -78.5 -65.85L-77.65 -66.1Q-76.3 -54.95 -67.55 -51.3L-66.65 -51.1Q-63.4 -49.35 -57.75 -50.6Q-57.65 -50.6 -57.65 -51.1Q-56.05 -50.95 -56.15 -53.1L-55.65 -53.1Q-54.2 -47.55 -51.3 -43.35L-50.65 -43.1Q-54.15 -38.1 -55.55 -31.1L-55.65 -30.1L-56.65 -30.1Q-56.65 -25.1 -56.15 -20.15L-55.65 -20.1Q-53.95 -9.8 -45.55 -6.3L-44.65 -6.1Q-43.35 -4.4 -39.8 -5.55Q-39.65 -5.6 -39.65 -6.1M-78.1,-37.25Q-76.95 -40.3 -78.65 -41.1L-78.9 -41.95Q-87.7 -54.55 -93.65 -40.1Q-94.45 -33.8 -91.45 -31.35Q-91.15 -31.1 -90.65 -31.1Q-88.85 -29.4 -84.8 -30.55Q-84.65 -30.6 -84.65 -31.1Q-80.5 -32.45 -78.85 -36.2L-78.65 -37.1L-78.1 -37.25M-92.65,-21.1Q-92.65 -18.1 -92.15 -15.2L-91.65 -15.1Q-85.45 -6.2 -76.9 -13.4Q-76.65 -13.6 -76.65 -14.1Q-76.15 -14.1 -76.1 -14.25Q-74.9 -18.35 -76.65 -20.1L-76.7 -21.1Q-77.35 -25.9 -81.65 -27.1L-81.75 -27.6L-86.65 -28.1L-86.65 -27.1L-87.4 -26.85L-91.65 -23.1L-91.65 -22.1L-91.65 -21.1L-92.65 -21.1" fill="rgb(81,81,81)" fill-opacity="1"></path><path d="M-96.2,-33.2Q-96.65 -35.1 -96.65 -37.1L-95.65 -37.1L-95.65 -34.1L-95.65 -33.1L-96.2 -33.2" fill="rgb(18,20,18)" fill-opacity="1"></path><path d="M-84.8,-30.55Q-88.85 -29.4 -90.65 -31.1L-85.65 -31.1L-84.65 -31.1Q-84.65 -30.6 -84.8 -30.55" fill="rgb(33,37,33)" fill-opacity="1"></path><path d="M-91.45,-31.35Q-94.45 -33.8 -93.65 -40.1Q-87.7 -54.55 -78.9 -41.95L-78.65 -41.1L-78.65 -38.1L-78.65 -37.1L-78.85 -36.2Q-80.5 -32.45 -84.65 -31.1L-85.65 -31.1L-90.65 -31.1Q-91.15 -31.1 -91.45 -31.35M-76.65,-14.1Q-76.65 -13.6 -76.9 -13.4Q-85.45 -6.2 -91.65 -15.1L-91.65 -16.1L-91.65 -21.1L-91.65 -22.1L-91.65 -23.1L-87.4 -26.85L-86.65 -27.1L-82.65 -27.1L-81.65 -27.1Q-77.35 -25.9 -76.7 -21.1L-76.65 -20.1L-76.65 -15.1L-76.65 -14.1" fill="rgb(7,13,7)" fill-opacity="1"></path><path d="M-39.8,-5.55Q-43.35 -4.4 -44.65 -6.1L-40.65 -6.1L-39.65 -6.1Q-39.65 -5.6 -39.8 -5.55M-82.65,-27.1L-86.65 -27.1L-86.65 -28.1L-81.75 -27.6L-81.65 -27.1L-82.65 -27.1" fill="rgb(63,64,63)" fill-opacity="1"></path><path d="M-95.15,-22.15Q-95.65 -25.6 -95.65 -29.1Q-93.9 -27.35 -94.55 -23.1L-94.65 -22.1L-95.15 -22.15" fill="rgb(23,25,23)" fill-opacity="1"></path><path d="M-91.65,-15.1L-92.15 -15.2Q-92.65 -18.1 -92.65 -21.1L-91.65 -21.1L-91.65 -16.1L-91.65 -15.1" fill="rgb(46,49,46)" fill-opacity="1"></path><path d="M-94.2,-16.2Q-94.65 -18.1 -94.65 -20.1Q-92.95 -19.8 -93.55 -17.1L-93.65 -16.1L-94.2 -16.2M-31.6,-2.1Q-30.9 2.65 -32.65 4.9L-32.65 3.9L-32.65 -3.1L-31.65 -3.1L-31.6 -2.1" fill="rgb(48,49,48)" fill-opacity="1"></path><path d="M-19.65,-78.1L-19.65 -77.1Q-19.65 -76.6 -19.9 -76.25Q-20.65 -75.1 -21.65 -74.1L-21.65 -73.1L-22.5 -72.9Q-29.35 -68.9 -30.65 -79.1L-30.6 -80.1Q-29.9 -85.85 -31.65 -89.1L-31.65 -90.1L-31.65 -91.1L-30.65 -91.1L-26.65 -91.1L-25.65 -91.1Q-21.35 -90.4 -18.9 -87.85Q-18.65 -87.6 -18.65 -87.1L-19.65 -87.1L-19.65 -80.1L-19.65 -79.1L-19.65 -78.1" fill="rgb(147,149,149)" fill-opacity="1"></path><path d="M-18.65,-80.1L-18.65 -79.1L-19.65 -79.1L-19.65 -80.1L-19.65 -87.1L-18.65 -87.1L-18.65 -80.1" fill="rgb(103,107,104)" fill-opacity="1"></path><path d="M77.15,-39.2L76.35 -38.1L76.15 -39Q66.9 -60.15 40.35 -64.1L40.25 -64.65L36.35 -65.1L35.35 -65.1L35.3 -65.6L20.35 -66.1L19.35 -66.1L10.35 -66.1L9.35 -66.1L3.35 -66.1L3.35 -65.1L2.35 -65.1L-2.65 -65.1L-2.65 -64.1L-2.65 -62.1L-2.65 -61.1L-2.65 -54.1L-2.65 -53.1L-2.85 -52.2L-3.65 -51.1L-3.65 -50.1L-3.65 -49.1L-4.65 -49.1L-4.65 -42.1L-4.65 -41.1Q-3.2 -35.05 -2.7 -28.1L-2.65 -27.1L-2.65 -26.1L-2.65 -25.1L-3.15 -25.1Q-2.95 -28.3 -4.65 -29.1L-4.7 -30.1Q-5.1 -32.65 -6.65 -34.1L-6.65 -35.1L-6.65 -37.1L-6.65 -38.1L-6.65 -39.1L-6.65 -45.1L-6.65 -46.1L-6.65 -50.1Q-4.95 -50.9 -5.55 -54.1L-5.65 -55.1L-5.75 -55.6L-10.65 -56.1L-11.65 -56.1L-12.65 -56.1L-13.65 -56.1L-13.75 -56.65L-17.65 -57.1Q-18.15 -57.1 -18.35 -57.35Q-20.2 -59.55 -24.65 -59.1L-24.65 -58.1L-25.65 -58.1L-25.65 -53.1L-25.65 -52.1L-25.65 -51.1L-26.55 -50.9L-27.65 -50.1L-27.65 -49.1L-27.65 -48.1L-27.65 -47.1L-28.65 -47.1L-29.65 -47.1Q-29.6 -45.15 -28.5 -44.35L-27.65 -44.1Q-25.55 -42.2 -24.75 -39.05L-24.65 -38.1L-24.4 -37.35L-23.65 -37.1Q-23.65 -36.6 -23.9 -36.35Q-24.15 -36.1 -24.65 -36.1Q-23.4 -31.35 -23.65 -25.1L-23.65 -24.1L-23.65 -23.1L-24.15 -23.1Q-24.35 -16.8 -27.65 -14.1L-27.65 -13.1L-27.65 -12.1L-28.65 -12.1L-28.65 -11.1L-29.65 -11.1L-29.65 -10.1L-30.35 -9.85Q-33.35 -6.35 -39.65 -6.1L-40.65 -6.1L-44.65 -6.1L-45.55 -6.3Q-53.95 -9.8 -55.65 -20.1L-55.65 -21.1L-55.65 -30.1L-55.55 -31.1Q-54.15 -38.1 -50.65 -43.1L-51.3 -43.35Q-54.2 -47.55 -55.65 -53.1L-55.65 -54.1L-55.65 -61.1Q-52.5 -65.95 -51.7 -73.1L-51.65 -74.1L-51.75 -74.65L-55.65 -75.1L-55.65 -74.1L-56.65 -74.05Q-63.7 -73.65 -68.65 -71.1Q-68.65 -71.6 -68.9 -71.85L-69.65 -72.1L-69.65 -73.1Q-62.15 -76.1 -52.65 -77.05L-51.65 -77.1Q-48.75 -81.7 -41.65 -82.05L-40.65 -82.1Q-38.85 -80.4 -34.8 -81.55Q-34.65 -81.6 -34.65 -82.1Q-34.15 -82.1 -33.9 -82.35Q-33.65 -82.6 -33.65 -83.1Q-33.15 -83.1 -33.1 -83.25Q-31.95 -86.3 -33.65 -87.1L-33.65 -88.1L-33.65 -89.1L-33.65 -90.1L-33.65 -93.1L-23.65 -93.1L-22.65 -93.1Q-8.95 -87.8 -3.8 -74.05L-3.65 -73.1Q-3.65 -71.1 -3.2 -69.2L-2.65 -69.1L-0.65 -69.1L0.35 -69.1L11.3 -69.6L11.35 -70.1L12.35 -70.1Q13.15 -68.4 16.2 -69.55L16.35 -70.1L19.2 -70.55L19.35 -71.1L24.35 -71.1L25.35 -71.1Q28.6 -69.35 34.35 -70.05L35.35 -70.1Q52.55 -68.35 63.3 -60.2L63.3 -59.1L64.75 -59.1Q73.05 -52.15 77.2 -41.05L77.35 -40.1L77.15 -39.2M-31.15,-79.15L-30.65 -79.1Q-29.35 -68.9 -22.5 -72.9L-21.65 -73.1L-20.9 -72.85Q-20.65 -72.6 -20.65 -72.1Q-20.65 -71.6 -20.9 -71.35L-23.65 -69.1Q-23.4 -58.85 -12.65 -59.1L-11.65 -59.1Q-7.6 -56.05 -5.85 -60.2L-5.65 -61.1L-5.55 -62.1Q-4.9 -66.35 -6.65 -68.1L-8.4 -75.15Q-10.75 -86.75 -17.65 -84.1L-17.65 -79.1L-17.65 -78.1L-18.4 -78.35L-18.65 -79.1L-18.65 -80.1L-18.65 -87.1Q-18.65 -87.6 -18.9 -87.85Q-21.35 -90.4 -25.65 -91.1L-25.75 -91.6L-30.65 -92.1L-30.65 -91.1L-31.65 -91.1L-31.65 -90.1L-31.65 -89.1Q-31.65 -84.1 -31.15 -79.15M-31.7,-47.6L-31.65 -48.1Q-31.15 -48.1 -31.1 -48.25Q-29.85 -51.8 -27.65 -54.1L-27.65 -55.1L-27.65 -67.1L-28.2 -67.2Q-29.85 -73.9 -35.65 -76.1L-35.7 -76.6L-42.65 -77.1L-42.65 -76.1L-43.5 -75.85Q-47.1 -73.55 -49.65 -70.1L-49.65 -66.1L-49.65 -65.1L-49.65 -59.1L-49.65 -58.1Q-49.65 -57.6 -49.8 -57.15Q-50.5 -54.95 -52.65 -54.1Q-52.15 -42.6 -42.55 -46.9L-41.65 -47.1L-31.7 -47.6M-48.65,-27.1L-48.65 -24.1L-48.65 -23.1L-48.6 -22.1Q-48.1 -18.55 -50.65 -18.1Q-50.55 -11.2 -45.6 -9.25L-44.65 -9.1Q-43.35 -7.4 -39.8 -8.55Q-39.65 -8.6 -39.65 -9.1Q-27.55 -11 -26.7 -24.1L-26.65 -25.1L-26.1 -25.2Q-24.9 -29.85 -26.65 -32.1L-26.65 -33.1Q-26.55 -43.2 -34.65 -45.1L-34.7 -45.6L-41.65 -46.1L-41.65 -45.1L-42.55 -44.9Q-45.5 -43.45 -48.65 -42.1Q-47.65 -35.6 -47.65 -28.1L-47.65 -27.1L-48.65 -27.1" fill="rgb(11,16,11)" fill-opacity="1"></path><path d="M-11.65,-59.1L-12.65 -59.1Q-23.4 -58.85 -23.65 -69.1L-20.9 -71.35Q-20.65 -71.6 -20.65 -72.1Q-19.15 -73.1 -18.75 -75.1L-18.65 -76.1L-17.85 -77.2L-17.65 -78.1L-17.65 -79.1L-17.65 -84.1Q-10.75 -86.75 -8.4 -75.15L-6.65 -68.1L-6.65 -62.1L-6.65 -61.1L-6.85 -60.25Q-7.95 -58.4 -11.65 -59.1" fill="rgb(126,112,105)" fill-opacity="1"></path><path d="M-19.65,-77.1L-19.65 -78.1L-19.65 -79.1L-18.65 -79.1L-18.4 -78.35L-17.65 -78.1L-17.85 -77.2L-18.65 -76.1Q-18.65 -76.6 -18.9 -76.85L-19.65 -77.1" fill="rgb(46,46,41)" fill-opacity="1"></path><path d="M-18.9,-76.85Q-18.65 -76.6 -18.65 -76.1L-18.75 -75.1Q-19.15 -73.1 -20.65 -72.1Q-20.65 -72.6 -20.9 -72.85L-21.65 -73.1L-21.65 -74.1Q-20.65 -75.1 -19.9 -76.25Q-19.65 -76.6 -19.65 -77.1L-18.9 -76.85" fill="rgb(24,27,22)" fill-opacity="1"></path><path d="M-25.65,-91.1L-26.65 -91.1L-30.65 -91.1L-30.65 -92.1L-25.75 -91.6L-25.65 -91.1" fill="rgb(40,45,40)" fill-opacity="1"></path><path d="M-22.65,-93.1L-23.65 -93.1L-33.65 -93.1L-33.65 -94.1L-22.7 -93.6L-22.65 -93.1" fill="rgb(55,96,55)" fill-opacity="1"></path><path d="M-34.2,-89.2Q-34.65 -91.1 -34.65 -93.1L-33.65 -93.1L-33.65 -90.1L-33.65 -89.1L-34.2 -89.2" fill="rgb(26,159,26)" fill-opacity="1"></path><path d="M-33.65,-84.1L-33.65 -87.1Q-31.95 -86.3 -33.1 -83.25Q-33.15 -83.1 -33.65 -83.1L-33.65 -84.1" fill="rgb(56,107,56)" fill-opacity="1"></path><path d="M-35.65,-82.1L-34.65 -82.1Q-34.65 -81.6 -34.8 -81.55Q-38.85 -80.4 -40.65 -82.1L-35.65 -82.1" fill="rgb(45,149,45)" fill-opacity="1"></path><path d="M-42.65,-77.1L-35.7 -76.6L-35.65 -76.1L-36.65 -76.1L-42.65 -76.1L-42.65 -77.1" fill="rgb(117,120,117)" fill-opacity="1"></path><path d="M-28.2,-67.2L-27.65 -67.1L-27.65 -55.1L-27.65 -54.1Q-29.85 -51.8 -31.1 -48.25Q-31.15 -48.1 -31.65 -48.1L-32.65 -48.1L-33.65 -48.1L-33.75 -48.65L-37.65 -49.1L-38.65 -49.1L-41.65 -49.1L-41.65 -48.1L-41.65 -47.1L-42.55 -46.9Q-52.15 -42.6 -52.65 -54.1Q-50.5 -54.95 -49.8 -57.15Q-49.65 -57.6 -49.65 -58.1L-49.1 -58.2Q-47.9 -62.85 -49.65 -65.1L-49.65 -66.1L-49.65 -70.1Q-47.1 -73.55 -43.5 -75.85L-42.65 -76.1L-36.65 -76.1L-35.65 -76.1Q-29.85 -73.9 -28.2 -67.2" fill="rgb(246,246,246)" fill-opacity="1"></path><path d="M-31.65,-89.1Q-29.9 -85.85 -30.6 -80.1L-30.65 -79.1L-31.15 -79.15Q-31.65 -84.1 -31.65 -89.1" fill="rgb(91,94,92)" fill-opacity="1"></path><path d="M-24.55,-57.1Q-23.95 -53.4 -25.65 -52.1L-25.65 -53.1L-25.65 -58.1L-24.65 -58.1L-24.55 -57.1" fill="rgb(61,64,61)" fill-opacity="1"></path><path d="M-24.65,-38.1L-24.75 -39.05Q-25.55 -42.2 -27.65 -44.1L-27.65 -45.1L-27.65 -47.1L-27.65 -48.1Q-25.95 -48.4 -25.7 -50.1L-25.65 -51.1L-25.65 -52.1Q-23.95 -53.4 -24.55 -57.1L-24.65 -58.1L-24.65 -59.1Q-20.2 -59.55 -18.35 -57.35Q-18.15 -57.1 -17.65 -57.1Q-17.35 -55.4 -14.65 -56L-13.65 -56.1L-12.65 -56.1Q-11.05 -52.7 -11.15 -47.1L-10.65 -47.1L-10.55 -46.1Q-9.95 -42.4 -11.65 -41.1L-12.65 -41.1L-16.65 -41.1L-16.65 -40.1L-17.2 -39.95Q-17.95 -37.9 -20.65 -38.1L-21.65 -38.1L-24.65 -38.1" fill="rgb(149,150,150)" fill-opacity="1"></path><path d="M-25.7,-50.1Q-25.95 -48.4 -27.65 -48.1L-27.65 -49.1L-27.65 -50.1L-26.55 -50.9L-25.65 -51.1L-25.7 -50.1" fill="rgb(38,38,38)" fill-opacity="1"></path><path d="M-2.55,-70.1L-2.65 -69.1L-3.2 -69.2Q-3.65 -71.1 -3.65 -73.1Q-1.95 -72.8 -2.55 -70.1" fill="rgb(52,135,52)" fill-opacity="1"></path><path d="M-6.65,-2.1L-6.65 -3.1Q-4.45 -3.4 -4.6 -6.1L-4.65 -7.1L-4.1 -7.2Q-2.9 -12.35 -4.65 -15.1L-4.65 -16.1L-4.65 -17.1Q-1.9 -14.95 -1.7 -19.1L-1.65 -20.1Q-1.15 -20.1 -1.1 -20.25Q0.05 -23.8 -1.65 -25.1L-1.85 -26L-2.65 -27.1L-2.7 -28.1Q-3.2 -35.05 -4.65 -41.1Q-2.9 -43.35 -3.6 -48.1L-3.65 -49.1L-3.65 -50.1L-3.65 -51.1L-2.85 -52.2L-2.65 -53.1L-2.1 -53.2Q-0.9 -58.35 -2.65 -61.1L-2.65 -62.1L-2.65 -64.1L3.25 -64.6L3.35 -65.1L4.35 -65.1Q5.15 -63.4 8.2 -64.55L8.35 -65.1L10.15 -65.5L10.35 -66.1L19.35 -66.1L20.35 -66.1L20.35 -65.1L19.45 -64.9Q7.25 -59.7 1.35 -48.1Q8.2 -33.45 27.35 -31.15L28.35 -31.1Q31.1 -29.35 36.35 -30.05L37.35 -30.1L39.35 -30.1L40.35 -30.1Q55.6 -28.35 73.3 -29.6L73.35 -30.1Q75.3 -30.15 76.1 -31.25L76.35 -32.1L77.35 -32.1Q81.4 -26.15 88.4 -23.25L89.35 -23.1L92.15 -18.95L92.35 -18.1L92.35 -7.1L92.35 -6.1L92.1 -5.35L91.35 -5.1L90.35 -5.1L87.35 -5.1Q86.85 -5.1 86.55 -5.35Q84.9 -6.65 82.35 -7.1L82.25 -7.65L78.35 -8.1L78.35 -7.1L78.1 -6.35Q76.3 -4.65 75.35 -2.1L75.35 -0.1L75.35 0.9L74.35 0.9L74.35 8.9L74.35 9.9L74.35 10.9Q74.6 19.65 72.35 25.9L72.35 26.9L72.35 27.9L71.35 27.9L71.35 32.9L71.35 33.9L71.45 34.85Q72 37.05 70.35 36.9L70.35 38.9L70.35 39.9L69.35 39.9L69.35 42.9L69.35 43.9L69.2 44.85Q67.35 49.4 61.35 49.9L60.35 49.9L57.35 49.9L57.35 50.9L53.55 50.3Q43.9 46.85 41.05 35.2Q38.65 25.25 35.35 31.9L35.3 31.4L28.35 30.9L27.35 30.9L19.35 30.9L19.35 31.9L18.35 31.9L13.35 31.9L12.35 31.9L-0.65 31.9Q-0.55 30.3 -1.25 31.65Q-6.25 41.3 -11.65 49.9L-11.7 50.4Q-23.35 51.6 -32.65 49.9Q-32.65 49.4 -32.8 48.95Q-38.3 34.55 -42.65 18.9Q-33.05 19 -28.4 14.15Q-28.15 13.9 -27.65 13.9Q-26.35 15.6 -22.8 14.45Q-22.65 14.4 -22.65 13.9Q-16.7 12.35 -13.35 8.15Q-13.15 7.9 -12.65 7.9L-12.65 8.9L-12.65 9.9L-13.65 9.9L-13.65 14.9L-13.65 15.9Q-13.6 25.85 -4.65 26.85L-3.65 26.9Q-2.85 28.6 0.35 28L1.35 27.9L5.25 27.45L5.35 26.9L6.3 26.8Q13.15 25.2 16.35 19.9L16.85 19.85Q17.3 13.95 16.35 8.9Q15.85 8.9 15.75 8.7Q12.3 1.45 4.35 -1.1L4.3 -1.6L-5.65 -2.1L-5.65 -1.1L-6.65 -1.1L-6.65 -2.1M17.35,-15.1Q17.35 -12.6 17.85 -10.2L18.35 -10.1Q26.95 12.2 53.15 5.95Q57.4 4.95 58.35 -0.1L58.9 -0.2Q60.1 -4.85 58.35 -7.1L58.15 -8Q51.1 -20.35 35.35 -24.1L35.3 -24.6L28.35 -25.1L28.35 -24.1L27.4 -23.95Q21.25 -22.2 18.35 -17.1L18.35 -16.1L18.35 -15.1L17.35 -15.1" fill="rgb(82,82,82)" fill-opacity="1"></path><path d="M-2.65,-64.1L-2.65 -65.1L2.35 -65.1L3.35 -65.1L3.25 -64.6L-2.65 -64.1M-78.65,-37.1L-78.65 -38.1L-78.65 -41.1Q-76.95 -40.3 -78.1 -37.25L-78.65 -37.1" fill="rgb(64,65,64)" fill-opacity="1"></path><path d="M-6.65,-61.1L-6.65 -62.1L-6.65 -68.1Q-4.9 -66.35 -5.55 -62.1L-5.65 -61.1L-6.65 -61.1" fill="rgb(35,36,30)" fill-opacity="1"></path><path d="M-11.15,-47.1Q-11.05 -52.7 -12.65 -56.1L-11.65 -56.1L-10.65 -56.1L-10.65 -55.1L-10.65 -48.1L-10.65 -47.1L-11.15 -47.1" fill="rgb(135,136,136)" fill-opacity="1"></path><path d="M-14.65,-56Q-17.35 -55.4 -17.65 -57.1L-13.75 -56.65L-13.65 -56.1L-14.65 -56" fill="rgb(91,95,92)" fill-opacity="1"></path><path d="M-6.65,-55.1L-10.65 -55.1L-10.65 -56.1L-5.75 -55.6L-5.65 -55.1L-6.65 -55.1" fill="rgb(62,64,63)" fill-opacity="1"></path><path d="M-6.85,-60.25L-6.65 -61.1L-5.65 -61.1L-5.85 -60.2Q-7.6 -56.05 -11.65 -59.1Q-7.95 -58.4 -6.85 -60.25" fill="rgb(62,58,52)" fill-opacity="1"></path><path d="M-7.65,-37.1Q-9.6 -37.15 -10.65 -38.1L-10.65 -38.6Q-13.35 -38.4 -13.65 -40.1Q-12.65 -40.1 -11.85 -40.5Q-11.65 -40.6 -11.65 -41.1Q-9.95 -42.4 -10.55 -46.1L-10.65 -47.1L-10.65 -48.1L-10.65 -55.1L-6.65 -55.1L-5.65 -55.1L-5.55 -54.1Q-4.95 -50.9 -6.65 -50.1L-6.65 -46.1L-6.65 -45.1L-7.65 -45.1Q-7.65 -41.6 -7.15 -38.15L-6.65 -38.1L-6.65 -37.1L-7.65 -37.1" fill="rgb(81,82,82)" fill-opacity="1"></path><path d="M-7.15,-38.15Q-7.65 -41.6 -7.65 -45.1L-6.65 -45.1L-6.65 -39.1L-6.65 -38.1L-7.15 -38.15M-2.65,-53.1L-2.65 -54.1L-2.65 -61.1Q-0.9 -58.35 -2.1 -53.2L-2.65 -53.1" fill="rgb(63,65,63)" fill-opacity="1"></path><path d="M-52.65,-74.1L-55.65 -74.1L-55.65 -75.1L-51.75 -74.65L-51.65 -74.1L-52.65 -74.1" fill="rgb(88,89,88)" fill-opacity="1"></path><path d="M-73.65,-70.1L-73.65 -71.1Q-71.7 -71.15 -70.5 -71.85L-69.65 -72.1L-68.9 -71.85Q-68.65 -71.6 -68.65 -71.1L-69.4 -70.85Q-70.65 -69.6 -72.65 -69.1Q-72.65 -69.6 -72.9 -69.85L-73.65 -70.1" fill="rgb(15,18,15)" fill-opacity="1"></path><path d="M-56.15,-53.1Q-56.05 -50.95 -57.65 -51.1L-58.65 -51.1L-66.65 -51.1L-67.55 -51.3Q-76.3 -54.95 -77.65 -66.1Q-77.15 -66.1 -76.9 -66.35Q-76.65 -66.6 -76.65 -67.1Q-74.65 -67.6 -73.4 -68.85L-72.65 -69.1Q-70.65 -69.6 -69.4 -70.85L-68.65 -71.1Q-63.7 -73.65 -56.65 -74.05L-55.65 -74.1L-52.65 -74.1L-51.65 -74.1L-51.7 -73.1Q-52.5 -65.95 -55.65 -61.1L-55.65 -54.1L-55.65 -53.1L-56.15 -53.1" fill="rgb(148,149,149)" fill-opacity="1"></path><path d="M-77.65,-68.1L-77.65 -69.1Q-75.7 -69.15 -74.5 -69.85L-73.65 -70.1L-72.9 -69.85Q-72.65 -69.6 -72.65 -69.1L-73.4 -68.85Q-74.65 -67.6 -76.65 -67.1L-76.9 -67.85L-77.65 -68.1" fill="rgb(11,13,11)" fill-opacity="1"></path><path d="M40.35,-30.1L72.35 -30.1L73.35 -30.1L73.3 -29.6Q55.6 -28.35 40.35 -30.1M-57.75,-50.6Q-63.4 -49.35 -66.65 -51.1L-58.65 -51.1L-57.65 -51.1Q-57.65 -50.6 -57.75 -50.6" fill="rgb(116,117,117)" fill-opacity="1"></path><path d="M-49.65,-65.1Q-47.9 -62.85 -49.1 -58.2L-49.65 -58.1L-49.65 -59.1L-49.65 -65.1" fill="rgb(103,105,103)" fill-opacity="1"></path><path d="M-37.65,-48.1L-38.65 -48.1L-41.65 -48.1L-41.65 -49.1L-38.65 -49.1L-37.65 -49.1L-37.65 -48.1" fill="rgb(228,228,228)" fill-opacity="1"></path><path d="M-41.65,-45.1L-41.65 -46.1L-34.7 -45.6L-34.65 -45.1L-35.65 -45.1L-41.65 -45.1" fill="rgb(63,67,63)" fill-opacity="1"></path><path d="M-26.65,-25.1L-26.7 -24.1Q-27.55 -11 -39.65 -9.1L-40.65 -9.1L-44.65 -9.1L-45.6 -9.25Q-50.55 -11.2 -50.65 -18.1Q-48.1 -18.55 -48.6 -22.1L-48.65 -23.1Q-46.95 -23.4 -47.55 -26.1L-47.65 -27.1L-47.65 -28.1Q-47.65 -35.6 -48.65 -42.1Q-45.5 -43.45 -42.55 -44.9L-41.65 -45.1L-35.65 -45.1L-34.65 -45.1Q-26.55 -43.2 -26.65 -33.1L-26.65 -32.1L-26.65 -26.1L-26.65 -25.1" fill="rgb(247,247,247)" fill-opacity="1"></path><path d="M-38.65,-48.1L-37.65 -48.1L-34.65 -48.1L-33.65 -48.1L-32.65 -48.1L-31.65 -48.1L-31.7 -47.6L-41.65 -47.1L-41.65 -48.1L-38.65 -48.1" fill="rgb(48,53,48)" fill-opacity="1"></path><path d="M-56.15,-20.15Q-56.65 -25.1 -56.65 -30.1L-55.65 -30.1L-55.65 -21.1L-55.65 -20.1L-56.15 -20.15M61.25,50.45L57.35 50.9L57.35 49.9L60.35 49.9L61.35 49.9L61.25 50.45" fill="rgb(50,52,50)" fill-opacity="1"></path><path d="M-48.65,-23.1L-48.65 -24.1L-48.65 -27.1L-47.65 -27.1L-47.55 -26.1Q-46.95 -23.4 -48.65 -23.1" fill="rgb(150,153,150)" fill-opacity="1"></path><path d="M-76.65,-15.1L-76.65 -20.1Q-74.9 -18.35 -76.1 -14.25Q-76.15 -14.1 -76.65 -14.1L-76.65 -15.1" fill="rgb(52,54,52)" fill-opacity="1"></path><path d="M-40.65,-9.1L-39.65 -9.1Q-39.65 -8.6 -39.8 -8.55Q-43.35 -7.4 -44.65 -9.1L-40.65 -9.1" fill="rgb(170,172,170)" fill-opacity="1"></path><path d="M-4.65,-41.1L-4.65 -42.1L-4.65 -49.1L-3.65 -49.1L-3.6 -48.1Q-2.9 -43.35 -4.65 -41.1" fill="rgb(47,49,47)" fill-opacity="1"></path><path d="M-23.65,-24.1L-23.65 -25.1Q-23.4 -31.35 -24.65 -36.1Q-24.15 -36.1 -23.9 -36.35Q-23.65 -36.6 -23.65 -37.1Q-22.15 -37.1 -20.8 -37.55Q-20.65 -37.6 -20.65 -38.1Q-17.95 -37.9 -17.2 -39.95L-16.65 -40.1L-14.65 -40.1L-13.65 -40.1Q-13.35 -38.4 -10.65 -38.6L-10.65 -38.1Q-10.65 -37.6 -10.75 -37.55L-14.65 -37.1L-14.65 -36.1L-15.15 -36.1Q-14.95 -33.4 -16.65 -33.1L-17.55 -33.3Q-20.75 -35.2 -22.65 -31.1Q-23.1 -27.15 -21.85 -25L-21.65 -24.1L-22.65 -24.1L-23.65 -24.1" fill="rgb(22,21,21)" fill-opacity="1"></path><path d="M-14.65,-40.1L-16.65 -40.1L-16.65 -41.1L-12.65 -41.1L-11.65 -41.1Q-11.65 -40.6 -11.85 -40.5Q-12.65 -40.1 -13.65 -40.1L-14.65 -40.1" fill="rgb(107,108,108)" fill-opacity="1"></path><path d="M-7.35,-34.35Q-9.5 -36.75 -14.65 -36.1L-14.65 -37.1L-10.75 -37.55Q-10.65 -37.6 -10.65 -38.1Q-9.6 -37.15 -7.65 -37.1L-6.65 -37.1L-6.65 -35.1L-6.65 -34.1L-7.35 -34.35" fill="rgb(37,34,33)" fill-opacity="1"></path><path d="M-12.9,-29.8Q-12.65 -29.6 -12.65 -29.1Q-12.65 -28.6 -12.85 -28.5L-14.65 -28.1Q-14.65 -28.6 -14.9 -28.8Q-16.55 -30.2 -16.65 -33.1Q-14.95 -33.4 -15.15 -36.1L-14.65 -36.1Q-15.1 -31.65 -12.9 -29.8" fill="rgb(37,34,32)" fill-opacity="1"></path><path d="M-21.65,-24.1L-21.85 -25Q-23.1 -27.15 -22.65 -31.1Q-20.75 -35.2 -17.55 -33.3L-16.65 -33.1Q-16.55 -30.2 -14.9 -28.8Q-14.65 -28.6 -14.65 -28.1Q-10.75 -24.2 -12.1 -28.95L-12.65 -29.1Q-12.65 -29.6 -12.9 -29.8Q-15.1 -31.65 -14.65 -36.1Q-9.5 -36.75 -7.35 -34.35L-6.65 -34.1Q-5.1 -32.65 -4.7 -30.1L-4.65 -29.1L-4.55 -28.1Q-3.65 -23.1 -7.65 -23.1L-7.65 -22.1L-8.65 -22.1L-18.65 -22.1Q-19.15 -22.1 -19.25 -22.3Q-19.95 -23.8 -21.65 -24.1" fill="rgb(125,111,104)" fill-opacity="1"></path><path d="M-14.65,-28.1L-12.85 -28.5Q-12.65 -28.6 -12.65 -29.1L-12.1 -28.95Q-10.75 -24.2 -14.65 -28.1" fill="rgb(83,72,68)" fill-opacity="1"></path><path d="M-2.85,-24.2L-4.65 -21.1L-4.65 -19.1L-4.65 -18.1L-5.15 -18.1Q-5.25 -21 -8.65 -20.1L-8.65 -21.1Q-8.15 -21.1 -7.9 -21.35Q-7.65 -21.6 -7.65 -22.1L-7.65 -23.1Q-3.65 -23.1 -4.55 -28.1L-4.65 -29.1Q-2.95 -28.3 -3.15 -25.1L-2.65 -25.1L-2.85 -24.2" fill="rgb(27,25,24)" fill-opacity="1"></path><path d="M-4.65,-18.1L-4.65 -19.1L-4.65 -21.1L-2.85 -24.2L-2.65 -25.1L-2.65 -26.1L-2.65 -27.1L-1.85 -26L-1.65 -25.1L-1.65 -21.1L-1.65 -20.1L-1.7 -19.1Q-1.9 -14.95 -4.65 -17.1L-4.65 -18.1" fill="rgb(142,144,144)" fill-opacity="1"></path><path d="M-27.65,-45.1L-27.65 -44.1L-28.5 -44.35Q-29.6 -45.15 -29.65 -47.1L-28.65 -47.1L-27.65 -47.1L-27.65 -45.1" fill="rgb(43,44,44)" fill-opacity="1"></path><path d="M-21.65,-38.1L-20.65 -38.1Q-20.65 -37.6 -20.8 -37.55Q-22.15 -37.1 -23.65 -37.1L-24.4 -37.35L-24.65 -38.1L-21.65 -38.1" fill="rgb(45,45,44)" fill-opacity="1"></path><path d="M-37.65,-49.1L-33.75 -48.65L-33.65 -48.1L-34.65 -48.1L-37.65 -48.1L-37.65 -49.1" fill="rgb(204,204,204)" fill-opacity="1"></path><path d="M-26.65,-26.1L-26.65 -32.1Q-24.9 -29.85 -26.1 -25.2L-26.65 -25.1L-26.65 -26.1" fill="rgb(67,71,67)" fill-opacity="1"></path><path d="M-16.6,-19.25Q-20.75 -20.5 -23.65 -23.1L-23.65 -24.1L-22.65 -24.1L-21.65 -24.1Q-19.95 -23.8 -19.25 -22.3Q-19.15 -22.1 -18.65 -22.1L-18.65 -21.1Q-16.85 -19.4 -12.65 -20.05L-11.65 -20.1L-11.65 -19.1L-12.65 -19.1L-15.65 -19.1L-16.6 -19.25" fill="rgb(33,31,31)" fill-opacity="1"></path><path d="M-24.65,4.9L-24.7 3.9Q-25.15 -1.6 -27.65 -5.1Q-27.65 -5.6 -27.9 -5.85L-28.65 -6.1L-28.65 -7.1L-28.65 -8.1Q-26.95 -8.4 -27.55 -11.1L-27.65 -12.1L-27.65 -13.1L-27.65 -14.1Q-24.35 -16.8 -24.15 -23.1L-23.65 -23.1Q-20.75 -20.5 -16.6 -19.25L-15.65 -19.1Q-14.35 -17.4 -10.65 -18L-9.65 -18.1L-9.65 -15.1L-9.65 -14.1L-10.65 -14.1L-10.65 -10.1L-10.65 -9.1L-10.7 -8.1Q-12.6 4.95 -23.65 8.9L-23.55 7.9Q-22.95 5.2 -24.65 4.9" fill="rgb(148,150,150)" fill-opacity="1"></path><path d="M-28.65,-9.1L-28.65 -11.1L-28.65 -12.1L-27.65 -12.1L-27.55 -11.1Q-26.95 -8.4 -28.65 -8.1L-28.65 -9.1" fill="rgb(121,122,122)" fill-opacity="1"></path><path d="M-28.65,-8.1L-28.65 -7.1L-28.65 -6.1L-29.2 -6.2Q-29.65 -8.1 -29.65 -10.1L-29.65 -11.1L-28.65 -11.1L-28.65 -9.1L-28.65 -8.1" fill="rgb(90,91,91)" fill-opacity="1"></path><path d="M-1.65,-21.1L-1.65 -25.1Q0.05 -23.8 -1.1 -20.25Q-1.15 -20.1 -1.65 -20.1L-1.65 -21.1" fill="rgb(99,100,100)" fill-opacity="1"></path><path d="M-12.65,-20.05Q-16.85 -19.4 -18.65 -21.1L-9.65 -21.1L-8.65 -21.1L-8.65 -20.1L-9.65 -20.1L-11.65 -20.1L-12.65 -20.05" fill="rgb(34,31,29)" fill-opacity="1"></path><path d="M-18.65,-22.1L-8.65 -22.1L-7.65 -22.1Q-7.65 -21.6 -7.9 -21.35Q-8.15 -21.1 -8.65 -21.1L-9.65 -21.1L-18.65 -21.1L-18.65 -22.1" fill="rgb(108,94,89)" fill-opacity="1"></path><path d="M-10.65,-10.1L-10.65 -14.1L-9.65 -14.1L-9.55 -13.1Q-8.95 -9.9 -10.65 -9.1L-10.65 -10.1" fill="rgb(89,90,90)" fill-opacity="1"></path><path d="M-10.65,-18Q-14.35 -17.4 -15.65 -19.1L-12.65 -19.1L-11.65 -19.1Q-10.65 -19.1 -9.85 -18.7Q-9.65 -18.6 -9.65 -18.1L-10.65 -18" fill="rgb(118,120,120)" fill-opacity="1"></path><path d="M-4.65,-8.1L-4.65 -15.1Q-2.9 -12.35 -4.1 -7.2L-4.65 -7.1L-4.65 -8.1" fill="rgb(47,48,47)" fill-opacity="1"></path><path d="M-12.65,9.9L-12.65 8.9L-12.65 7.9L-12.65 6.9Q-8.55 4.5 -6.8 -0.15L-6.65 -1.1L-5.65 -1.1L3.35 -1.1L4.35 -1.1Q12.3 1.45 15.75 8.7Q15.85 8.9 16.35 8.9Q17.3 13.95 16.85 19.85L16.35 19.9Q13.15 25.2 6.3 26.8L5.35 26.9L4.35 26.9L1.35 26.9L0.35 26.9L-3.65 26.9L-4.65 26.85Q-13.6 25.85 -13.65 15.9Q-11.95 14.6 -12.55 10.9L-12.65 9.9" fill="rgb(151,153,153)" fill-opacity="1"></path><path d="M34.35,-24.1L28.35 -24.1L28.35 -25.1L35.3 -24.6L35.35 -24.1L34.35 -24.1M-5.65,-1.1L-5.65 -2.1L4.3 -1.6L4.35 -1.1L3.35 -1.1L-5.65 -1.1" fill="rgb(131,133,133)" fill-opacity="1"></path><path d="M18.35,-71.1L19.35 -71.1L19.2 -70.55L16.35 -70.1L15.35 -70.1L15.35 -71.1L18.35 -71.1" fill="rgb(50,122,50)" fill-opacity="1"></path><path d="M14.35,-70.1L15.35 -70.1L16.35 -70.1L16.2 -69.55Q13.15 -68.4 12.35 -70.1L14.35 -70.1" fill="rgb(3,33,3)" fill-opacity="1"></path><path d="M11.35,-71.1L14.35 -71.1L15.35 -71.1L15.35 -70.1L14.35 -70.1L12.35 -70.1L11.35 -70.1L11.35 -71.1" fill="rgb(63,167,63)" fill-opacity="1"></path><path d="M0.35,-70.1L10.35 -70.1L11.35 -70.1L11.3 -69.6L0.35 -69.1L0.35 -70.1" fill="rgb(55,102,55)" fill-opacity="1"></path><path d="M7.35,-65.1L4.35 -65.1L3.35 -65.1L3.35 -66.1L9.35 -66.1L10.35 -66.1L10.15 -65.5L8.35 -65.1L7.35 -65.1" fill="rgb(20,22,20)" fill-opacity="1"></path><path d="M4.35,-65.1L7.35 -65.1L8.35 -65.1L8.2 -64.55Q5.15 -63.4 4.35 -65.1M93.35,-8.1L93.15 -7.2L92.35 -6.1L92.35 -7.1L92.35 -18.1L93.15 -17L93.35 -16.1L93.35 -9.1L93.35 -8.1" fill="rgb(69,69,69)" fill-opacity="1"></path><path d="M35.3,-70.6L35.35 -70.1L34.35 -70.05Q28.6 -69.35 25.35 -71.1L35.3 -70.6" fill="rgb(56,102,56)" fill-opacity="1"></path><path d="M20.35,-66.1L35.3 -65.6L35.35 -65.1L34.35 -65.1L20.35 -65.1L20.35 -66.1" fill="rgb(127,129,129)" fill-opacity="1"></path><path d="M76.35,-37.1L76.35 -36.1L76.35 -33.1L76.35 -32.1L76.1 -31.25Q75.3 -30.15 73.35 -30.1L72.35 -30.1L40.35 -30.1L39.35 -30.1L37.35 -30.1L37.3 -30.6L28.35 -31.1L27.35 -31.15Q8.2 -33.45 1.35 -48.1Q7.25 -59.7 19.45 -64.9L20.35 -65.1L34.35 -65.1L35.35 -65.1L36.35 -65.1Q36.65 -63.4 39.35 -64L40.35 -64.1Q66.9 -60.15 76.15 -39L76.35 -38.1L76.35 -37.1" fill="rgb(152,155,154)" fill-opacity="1"></path><path d="M39.35,-64Q36.65 -63.4 36.35 -65.1L40.25 -64.65L40.35 -64.1L39.35 -64" fill="rgb(99,102,101)" fill-opacity="1"></path><path d="M28.35,-31.1L37.3 -30.6L37.35 -30.1L36.35 -30.05Q31.1 -29.35 28.35 -31.1" fill="rgb(130,132,132)" fill-opacity="1"></path><path d="M58.35,-0.1Q57.4 4.95 53.15 5.95Q26.95 12.2 18.35 -10.1L18.35 -11.1L18.35 -15.1L18.35 -16.1L18.35 -17.1Q21.25 -22.2 27.4 -23.95L28.35 -24.1L34.35 -24.1L35.35 -24.1Q51.1 -20.35 58.15 -8L58.35 -7.1L58.35 -1.1L58.35 -0.1" fill="rgb(152,154,154)" fill-opacity="1"></path><path d="M18.35,-10.1L17.85 -10.2Q17.35 -12.6 17.35 -15.1L18.35 -15.1L18.35 -11.1L18.35 -10.1" fill="rgb(123,125,125)" fill-opacity="1"></path><path d="M76.35,-36.1L76.35 -37.1L76.35 -38.1L77.15 -39.2L77.35 -40.1Q79 -40.2 78.45 -38.05L78.35 -37.1L77.35 -37.1L77.35 -36.1L76.35 -36.1" fill="rgb(54,90,54)" fill-opacity="1"></path><path d="M89.35,-24.1L89.35 -23.1L88.4 -23.25Q81.4 -26.15 77.35 -32.1L77.35 -33.1L77.35 -36.1L77.35 -37.1L78.35 -37.1Q81.7 -28.45 90.15 -24.7L90.35 -24.1L89.35 -24.1" fill="rgb(12,20,12)" fill-opacity="1"></path><path d="M77.35,-32.1L76.35 -32.1L76.35 -33.1L76.35 -36.1L77.35 -36.1L77.35 -33.1L77.35 -32.1" fill="rgb(117,120,118)" fill-opacity="1"></path><path d="M58.35,-1.1L58.35 -7.1Q60.1 -4.85 58.9 -0.2L58.35 -0.1L58.35 -1.1" fill="rgb(113,114,114)" fill-opacity="1"></path><path d="M78.35,-7.1L78.35 -8.1L82.25 -7.65L82.35 -7.1L81.35 -7.1L78.35 -7.1" fill="rgb(52,53,52)" fill-opacity="1"></path><path d="M87.35,-5.1L90.35 -5.1L91.35 -5.1L91.2 -4.55Q88.15 -3.4 87.35 -5.1" fill="rgb(21,23,21)" fill-opacity="1"></path><path d="M97.35,-7.1L97.35 -10.1L98.35 -10.1L98.45 -9.1Q99.05 -6.4 97.35 -6.1L97.35 -7.1" fill="rgb(55,112,55)" fill-opacity="1"></path><path d="M93.35,-9.1L93.35 -16.1Q95.1 -13.35 93.9 -8.2L93.35 -8.1L93.35 -9.1" fill="rgb(26,26,26)" fill-opacity="1"></path><path d="M94.35,-2.1L95.35 -2.1L95.25 -1.6Q88.6 -0.35 84.35 -2.1L94.35 -2.1" fill="rgb(55,100,55)" fill-opacity="1"></path><path d="M74.35,9.9L74.35 8.9L74.35 0.9L75.35 0.9L75.4 1.9Q76.1 7.15 74.35 9.9" fill="rgb(26,28,26)" fill-opacity="1"></path><path d="M78.35,11.9L78.35 7.9L79.35 7.9L79.45 8.9Q80.05 12.1 78.35 12.9L78.35 11.9" fill="rgb(51,131,51)" fill-opacity="1"></path><path d="M75.35,16.9L75.65 16.9L75.4 17.6L75.35 16.9" fill="rgb(55,108,55)" fill-opacity="1"></path><path d="M72.45,28.9Q73.05 32.6 71.35 33.9L71.35 32.9L71.35 27.9L72.35 27.9L72.45 28.9" fill="rgb(38,40,38)" fill-opacity="1"></path><path d="M70.45,40.9Q71.05 43.6 69.35 43.9L69.35 42.9L69.35 39.9L70.35 39.9L70.45 40.9" fill="rgb(58,59,58)" fill-opacity="1"></path><path d="M74.35,40.9L74.35 37.9L74.5 37.9L74.45 39.45L74.55 41.85L74.35 41.9L74.35 40.9" fill="rgb(71,73,71)" fill-opacity="1"></path><path d="M13.3,32.4Q5.1 33.65 -0.65 31.9L12.35 31.9L13.35 31.9L13.3 32.4" fill="rgb(41,43,41)" fill-opacity="1"></path><path d="M20.35,35.9L21.35 35.9L21.35 36.9L20.35 36.9L10.35 36.9L10.35 35.9L20.35 35.9" fill="rgb(138,141,138)" fill-opacity="1"></path><path d="M4.35,35.9L9.35 35.9L10.35 35.9L10.35 36.9L9.35 36.9L4.35 36.9L4.35 35.9" fill="rgb(83,84,83)" fill-opacity="1"></path><path d="M28.35,31.9L27.35 31.9L19.35 31.9L19.35 30.9L27.35 30.9L28.35 30.9L28.35 31.9" fill="rgb(62,63,63)" fill-opacity="1"></path><path d="M4.35,26.9L5.35 26.9L5.25 27.45L1.35 27.9L1.35 26.9L4.35 26.9" fill="rgb(100,101,101)" fill-opacity="1"></path><path d="M0.35,26.9L1.35 26.9L1.35 27.9L0.35 28Q-2.85 28.6 -3.65 26.9L0.35 26.9" fill="rgb(94,94,94)" fill-opacity="1"></path><path d="M0.35,36.9L3.35 36.9L4.35 36.9L4.25 37.45L0.35 37.9L0.35 36.9" fill="rgb(95,97,95)" fill-opacity="1"></path><path d="M28.35,30.9L35.3 31.4L35.35 31.9L34.35 31.9L28.35 31.9L28.35 30.9" fill="rgb(37,39,37)" fill-opacity="1"></path><path d="M21.35,35.9L30.35 35.9L31.35 35.9L31.35 36.9L30.35 36.9L21.35 36.9L21.35 35.9" fill="rgb(49,104,49)" fill-opacity="1"></path><path d="M37.25,36.4L37.35 36.9L36.35 36.9L31.35 36.9L31.35 35.9L37.25 36.4" fill="rgb(49,53,49)" fill-opacity="1"></path><path d="M61.35,52.9L64.35 52.9L65.35 52.9L65.25 53.45L61.35 53.9L61.35 52.9" fill="rgb(68,70,68)" fill-opacity="1"></path><path d="M55.35,54.9L56.35 54.9L56.2 55.45Q52.1 56.6 50.35 54.9L55.35 54.9" fill="rgb(98,99,98)" fill-opacity="1"></path><path d="M-12.55,10.9Q-11.95 14.6 -13.65 15.9L-13.65 14.9L-13.65 9.9L-12.65 9.9L-12.55 10.9" fill="rgb(127,128,128)" fill-opacity="1"></path><path d="M-23.55,7.9L-23.65 8.9L-24.2 8.8L-24.65 4.9Q-22.95 5.2 -23.55 7.9" fill="rgb(93,95,94)" fill-opacity="1"></path><path d="M-23.65,13.9L-22.65 13.9Q-22.65 14.4 -22.8 14.45Q-26.35 15.6 -27.65 13.9L-23.65 13.9" fill="rgb(44,44,44)" fill-opacity="1"></path><path d="M-52.65,15.95Q-57.9 16.65 -60.65 14.9L-51.7 15.4L-51.65 15.9L-52.65 15.95" fill="rgb(56,58,56)" fill-opacity="1"></path><path d="M-46.9,21.25Q-46.65 21.4 -46.65 21.9L-47.6 21.75Q-53.9 19.2 -62.55 18.9Q-52.2 17.45 -46.9 21.25" fill="rgb(60,64,60)" fill-opacity="1"></path><path d="M-9.65,55.9L-8.65 55.9L-8.7 56.4Q-19.4 57.65 -27.65 55.9L-9.65 55.9" fill="rgb(96,97,96)" fill-opacity="1"></path></g></g></g></g></svg>