<svg width="220" height="160" viewBox="-110 -99 220 160"><g><defs></defs></g><rect x="-110" y="-99" width="220" height="160" fill="#006600"></rect><g id="0"><defs></defs><g><g type="shape" id="0:1:112"><defs></defs><g transform="matrix(1,0,0,1,0,0)"><path d="M-11.4,54Q-7.8 48.1 -5.55 40.95L-5.4 40Q-3.7 39.7 -4.3 37L-4.4 36L-4.4 35L-3.4 35L-1.6 35.4Q-1.4 35.5 -1.4 36L-1.3 37Q-0.7 40.2 -2.4 41L-2.4 42L-2.4 43Q-2.65 53.25 -7.4 59L-8.35 59.1Q-20.3 61.9 -30.4 58Q-36.15 48.75 -38.7 36.85Q-41.5 24.1 -52.4 20L-53.4 20L-56.4 20L-56.4 21L-57.4 21L-59.4 21L-60.4 21L-65.4 21L-66.4 21L-78.4 21L-79.4 20.9Q-100.95 16.55 -106.4 -4L-106.3 -5Q-105.7 -7.7 -107.4 -8L-107.6 -8.9Q-109.3 -12.55 -109.4 -18L-109.4 -19L-109.4 -25L-109.4 -26L-109.4 -36L-109.4 -37L-109.4 -42L-109.4 -43L-109.4 -47Q-103.65 -66.75 -82.4 -70.9L-81.4 -71L-76.5 -71.5Q-76.4 -71.5 -76.4 -72L-72.4 -72L-71.4 -72L-60.45 -72.5L-60.4 -73Q-49.55 -76.65 -41.25 -82.75L-40.4 -83L-33.45 -83.5L-33.4 -84Q-26.95 -83.05 -28.3 -90L-28.4 -91L-28.4 -92L-28.4 -98L-17.4 -98L-16.4 -98Q-6.9 -93.95 -0.15 -87.25Q0.1 -87 0.6 -87Q2.7 -81.1 5.4 -75.9L5.6 -75Q5.6 -73 6.05 -71.1L6.6 -71Q4.8 -63.7 9.6 -63.05L10.6 -63Q11.4 -61.3 14.6 -61.9L15.6 -62L18.6 -62L19.6 -62Q21.35 -60.3 25.6 -60.95L26.6 -61L27.6 -61L28.6 -61Q28.9 -59.3 31.6 -59.9L32.6 -60L33.6 -60L34.6 -60Q34.9 -58.3 37.6 -58.9L38.6 -59Q78.9 -52.3 93.4 -19.9L93.6 -19Q98.1 -17 102.4 -14.6L102.6 -14L102.6 -13L101.6 -13L101.5 -13.55L97.6 -14L96.65 -14.15Q89.75 -16.15 85.6 -21Q87.3 -21.3 86.65 -22.5Q72.7 -49.6 37.6 -56L37.5 -56.55L33.6 -57L32.6 -57L31.6 -57L31.5 -57.55L27.6 -58L26.6 -58L22.6 -58L22.5 -58.55L18.6 -59L17.6 -59L14.6 -59L14.5 -59.5L8.6 -60L7.6 -60L6.6 -60L6.6 -52L6.6 -51L6.6 -50L5.6 -50L5.6 -47L5.6 -46L5.6 -45L4.6 -45Q4.6 -39 5.1 -33.05L5.6 -33L5.6 -31L5.6 -30Q7.2 -26.6 6.65 -21L6.6 -20L5.6 -20L5.7 -21Q6.3 -23.7 4.6 -24L4.45 -24.95L2.6 -30L2.6 -31L2.6 -32L2.6 -33L2.6 -43L2.6 -44L2.6 -47Q4.3 -48.8 3.65 -53L3.6 -54L3.5 -54.5L-2.4 -55L-3.4 -55L-4.4 -55L-5.4 -55L-5.5 -55.55L-9.4 -56L-10.25 -56.2Q-13.6 -58.3 -18.4 -59L-18.4 -58L-19.4 -58L-19.4 -51L-19.4 -50Q-19.9 -50 -20 -49.8Q-20.9 -48 -22.4 -47L-22.4 -46L-22.4 -45L-23.3 -44.8L-24.4 -44Q-25 -41.85 -23.4 -41.95L-22.4 -42L-22.15 -41.25L-21.4 -41Q-19.1 -38.3 -17.95 -34.15L-17.4 -34L-17.3 -33.05Q-16.75 -30.85 -18.4 -31Q-16.25 -23.75 -18.25 -16.95L-18.4 -16L-18.45 -15Q-19.15 -7.75 -23.4 -4L-23.4 -3L-24.1 -2.75Q-26.9 1 -32.4 2L-33.4 2L-36.4 2L-36.4 3L-37.4 2.95Q-53 1.6 -54.4 -14L-54.4 -15L-54.4 -25L-54.3 -25.95Q-52.35 -33.95 -48.4 -40Q-48.9 -40 -49.05 -40.25Q-52.6 -45.3 -54.4 -52L-54.4 -53L-54.4 -61Q-53.9 -61 -53.8 -61.2Q-47.65 -72.25 -55.4 -69L-56.4 -69L-60.4 -69L-60.4 -68L-61.4 -68.05Q-71.6 -68.7 -79.4 -67L-80.4 -66.9Q-98.85 -63.45 -104.4 -47L-104.4 -45L-104.4 -44L-105.4 -44L-105.4 -31L-105.4 -30Q-105.4 -25.5 -104.9 -21.05L-104.4 -21Q-102.5 6.6 -82.3 15.8L-81.4 16Q-80.6 17.7 -77.4 17.1L-76.4 17L-72.4 17L-71.4 17L-66.4 17L-65.4 17L-58.4 17L-57.4 17L-53.5 16.55L-53.4 16L-52.4 16L-51.4 16L-47.5 15.55L-47.4 15Q-37.15 13.25 -28.35 10.15L-27.4 10Q-25.7 9.7 -26.3 7L-26.4 6L-26.4 5L-26.4 4L-25.4 4L-22.4 4L-21.4 4Q-19.55 9.15 -18.5 15L-18.4 16Q-18.4 18 -17.95 19.9L-17.4 20Q-11.45 17.45 -7.15 13.25L-6.4 13Q-3.6 7.8 -2.5 1L-2.4 0Q-0.7 -0.3 -1.3 -3L-1.4 -4L-1.4 -5L-1.4 -6Q-0.9 -6 -0.85 -6.15Q0.3 -10.25 -1.4 -12L-2.4 -12L-3.4 -12L-3.4 -13L-3.4 -14L-2.4 -14L-1.4 -14Q1.1 -13 3.65 -12.15L4.6 -12L4.6 -10L4.6 -9L4.6 0L4.6 1L4.5 2Q1.1 18 -12.4 24L-12.4 25L-13.25 25.25Q-14.45 25.95 -16.4 26L-17.4 26L-20.4 26Q-20.4 25.5 -20.65 25.3Q-24.5 22.1 -24.4 15L-24.5 14.45L-28.4 14L-28.4 15L-29.3 15.2Q-34.1 17.3 -40.4 18Q-40.2 20.8 -39.55 23.05Q-39.4 23.5 -39.4 24L-38.95 27.9L-38.4 28Q-34.8 42.4 -27.35 53.3Q-26.9 54 -25.4 54Q-19.65 55.75 -11.45 54.5L-11.4 54M-4.4,-57.9L-3.4 -58Q1.85 -56.75 2.5 -60L2.6 -61Q3.1 -61 3.15 -61.15Q4.3 -65.25 2.6 -67L2.5 -68Q0.4 -80.75 -6.4 -89L-6.65 -89.85Q-7.45 -90.95 -9.4 -91L-9.4 -90L-9.4 -89Q-9.4 -88.5 -9.65 -88.25Q-9.9 -88 -10.4 -88L-10.4 -82L-10.4 -81Q-10.9 -81 -11.15 -81.25L-11.4 -82L-11.4 -83L-11.4 -91Q-11.4 -91.5 -11.65 -91.8Q-13.95 -94.95 -19.4 -95L-19.45 -95.5L-26.4 -96L-26.4 -95L-26.4 -93L-26.4 -92Q-26.4 -86.5 -25.9 -81.05L-25.4 -81Q-23.55 -70.25 -16.3 -73.8L-15.4 -74L-14.6 -72.9L-14.4 -72L-15 -71.8Q-15.9 -70 -17.4 -69Q-16.5 -61.4 -10.35 -59.15L-9.4 -59Q-8.1 -57.3 -4.4 -57.9M-31.5,-67L-31.4 -66Q-31.4 -62 -30.9 -58.05L-30.4 -58L-30.4 -52L-30.4 -51L-31.4 -51L-31.4 -48L-31.4 -47Q-31.1 -43.8 -26.55 -45.45Q-26.4 -45.5 -26.4 -46L-26.4 -47Q-23.85 -48.95 -22.55 -52.05Q-22.4 -52.5 -22.4 -53L-21.9 -53.1Q-20.65 -59.75 -22.4 -64L-22.45 -65Q-23.35 -75.1 -31.4 -78L-31.5 -78.5L-36.4 -79L-36.15 -78.25L-35.4 -78Q-32.55 -73.3 -31.5 -67M-47.4,-58L-47.4 -57Q-47.4 -56.5 -47.55 -56.05Q-48.25 -53.85 -50.4 -53Q-50.35 -38.4 -37 -44Q-33.05 -45.65 -33.4 -51Q-32.9 -51 -32.85 -51.15Q-31.7 -55.25 -33.4 -57L-33.4 -58Q-33 -71.9 -40.4 -78L-41.15 -77.75Q-45.2 -73.8 -48.4 -69Q-48.35 -67.05 -47.65 -65.85L-47.4 -65L-47.4 -58M-45.4,-23L-45.4 -22L-45.4 -21Q-45.2 -14.3 -48.4 -11Q-48.45 -1.9 -41.35 -0.1L-40.4 0Q-39.6 1.7 -36.55 0.55Q-36.4 0.5 -36.4 0Q-32.95 -0.55 -32.45 -4L-32.4 -5Q-30.7 -5.8 -31.3 -9L-31.4 -10L-31.4 -11L-31.4 -12L-30.9 -12.05Q-29.65 -21.75 -31.4 -29L-31.4 -30L-31.4 -34L-31.3 -35Q-30.7 -37.7 -32.4 -38L-32.55 -38.95L-33.4 -41L-33.55 -41.95Q-34.2 -43.7 -37.4 -43L-37.4 -42L-38.35 -41.85Q-43 -40.6 -46.4 -38L-45.45 -30L-45.4 -29L-45.4 -23M-28.4,-21L-28.4 -20L-28.4 -15L-28.4 -14L-28.4 -11L-28.4 -10L-29.4 -10L-29.4 -7L-29.4 -6Q-26.65 -1.65 -22.9 -10.2Q-20.1 -16.7 -20.4 -26L-20.4 -27L-20.4 -30L-20.3 -31Q-19.7 -33.7 -21.4 -34Q-21.4 -34.5 -21.55 -34.95Q-23.65 -40.75 -30.4 -42Q-29 -36.4 -28.45 -30L-28.4 -29L-28.4 -21" fill="rgb(9,12,8)" fill-opacity="1"></path><path d="M14.6,-61.9Q11.4 -61.3 10.6 -63L15.5 -62.5L15.6 -62L14.6 -61.9" fill="rgb(57,123,57)" fill-opacity="1"></path><path d="M6.05,-71.1Q5.6 -73 5.6 -75Q7.3 -74.7 6.7 -72L6.6 -71L6.05 -71.1" fill="rgb(55,117,55)" fill-opacity="1"></path><path d="M2.5,-60Q1.85 -56.75 -3.4 -58L-3.5 -58.5L-9.4 -59L-10.35 -59.15Q-16.5 -61.4 -17.4 -69Q-15.9 -70 -15 -71.8L-14.4 -72Q-11.85 -75.45 -10.55 -80.05Q-10.4 -80.5 -10.4 -81L-10.4 -82L-10.4 -88Q-9.9 -88 -9.65 -88.25Q-9.4 -88.5 -9.4 -89L-7.4 -89L-6.4 -89Q0.4 -80.75 2.5 -68L2.6 -67L2.6 -62L2.6 -61L2.5 -60M-30.4,-51L-30.4 -52L-30.4 -58L-30.35 -59Q-29.65 -63.75 -31.4 -66L-31.5 -67Q-32.55 -73.3 -35.4 -78L-32.4 -78L-31.4 -78Q-23.35 -75.1 -22.45 -65L-22.4 -64L-22.4 -54L-22.4 -53Q-22.4 -52.5 -22.55 -52.05Q-23.85 -48.95 -26.4 -47L-26.4 -46L-27.4 -45.9Q-30.1 -45.3 -30.4 -47L-30.4 -48L-30.4 -51" fill="rgb(127,112,105)" fill-opacity="1"></path><path d="M3.15,-61.15Q3.1 -61 2.6 -61L2.6 -62L2.6 -67Q4.3 -65.25 3.15 -61.15" fill="rgb(32,33,27)" fill-opacity="1"></path><path d="M6.6,-52L6.6 -60L7.6 -60L7.65 -59Q8.35 -53.75 6.6 -51L6.6 -52" fill="rgb(42,43,23)" fill-opacity="1"></path><path d="M8.6,-60Q9.9 -58.3 13.6 -58.9L14.6 -59L17.6 -59L18.6 -59L18.6 -58L17.75 -57.8Q11.5 -54.1 7.6 -48L7.6 -47L7.6 -46L6.6 -46L6.6 -47L6.6 -50L6.6 -51Q8.35 -53.75 7.65 -59L7.6 -60L8.6 -60" fill="rgb(119,110,62)" fill-opacity="1"></path><path d="M2.6,-54L-2.4 -54L-2.4 -55L3.5 -54.5L3.6 -54L2.6 -54" fill="rgb(91,85,46)" fill-opacity="1"></path><path d="M-0.3,-33.2L-7.4 -37L-3.5 -37.45L-3.4 -38Q-2.9 -38 -2.65 -38.25Q-2.4 -38.5 -2.4 -39Q-1.9 -39 -1.85 -39.15Q-0.7 -42.2 -2.4 -43L-2.4 -44L-2.4 -45L-2.4 -54L2.6 -54L3.6 -54L3.65 -53Q4.3 -48.8 2.6 -47L2.6 -44L2.6 -43L2.1 -43Q2.35 -36.75 0.6 -33L-0.3 -33.2" fill="rgb(116,107,58)" fill-opacity="1"></path><path d="M5.6,-46L5.6 -47L5.6 -50L6.6 -50L6.6 -47L6.6 -46L5.6 -46" fill="rgb(59,58,31)" fill-opacity="1"></path><path d="M14.6,-59L13.6 -58.9Q9.9 -58.3 8.6 -60L14.5 -59.5L14.6 -59" fill="rgb(80,75,40)" fill-opacity="1"></path><path d="M84.6,-21L84.5 -21.55L80.6 -22L79.6 -22L74.6 -22L74.5 -22.5L69.6 -23L68.65 -23.15Q65.4 -24.25 60.6 -24L60.5 -24.55L56.6 -25L55.6 -25L54.6 -25L54.5 -25.55L50.6 -26L49.6 -26L47.6 -26L47.5 -26.55L43.6 -27L42.6 -27.1Q20.1 -31.45 7.6 -46L7.6 -47L7.6 -48Q11.5 -54.1 17.75 -57.8L18.6 -58L21.6 -58L22.6 -58L26.6 -58L27.6 -58Q27.9 -56.3 30.6 -56.9L31.6 -57L32.6 -57L33.6 -57Q33.9 -55.3 36.6 -55.9L37.6 -56Q72.7 -49.6 86.65 -22.5Q87.3 -21.3 85.6 -21L84.6 -21M65.35,-3.8L65.6 -3Q65.95 9.35 57.55 12.8L56.6 13L55.6 13L48.6 13L47.6 12.9Q28.35 9.25 21.6 -7L21.6 -8L21.6 -14L21.6 -15L21.6 -16Q25.65 -19.95 31.65 -21.85L32.6 -22L39.6 -22L40.6 -22Q56.2 -16.1 65.35 -3.8" fill="rgb(168,154,153)" fill-opacity="1"></path><path d="M22.6,-58L21.6 -58L18.6 -58L18.6 -59L22.5 -58.55L22.6 -58" fill="rgb(63,61,58)" fill-opacity="1"></path><path d="M25.6,-60.95Q21.35 -60.3 19.6 -62L26.55 -61.5L26.6 -61L25.6 -60.95" fill="rgb(49,126,49)" fill-opacity="1"></path><path d="M37.6,-58.9Q34.9 -58.3 34.6 -60L38.5 -59.55L38.6 -59L37.6 -58.9" fill="rgb(51,129,51)" fill-opacity="1"></path><path d="M36.6,-55.9Q33.9 -55.3 33.6 -57L37.5 -56.55L37.6 -56L36.6 -55.9" fill="rgb(86,81,79)" fill-opacity="1"></path><path d="M31.6,-59.9Q28.9 -59.3 28.6 -61L32.5 -60.55L32.6 -60L31.6 -59.9M-106.3,-5L-106.4 -4L-106.95 -4.1Q-107.4 -6 -107.4 -8Q-105.7 -7.7 -106.3 -5" fill="rgb(48,108,48)" fill-opacity="1"></path><path d="M30.6,-56.9Q27.9 -56.3 27.6 -58L31.5 -57.55L31.6 -57L30.6 -56.9" fill="rgb(66,63,61)" fill-opacity="1"></path><path d="M57.6,55L49.6 55L49.05 54.85Q45.1 42 37.6 33L37.6 34L36.6 34L33.6 34L32.6 34L31.6 34L31.5 33.45L27.6 33L27.5 32.5L22.6 32L21.6 32L18.6 32L17.6 32L14.6 32L13.6 32L12.6 32L12.55 31.5L5.6 31L4.6 31L-0.4 31L-0.4 30L-0.4 29L-0.4 26Q10.25 25.15 15.35 18.8L15.6 18L16.15 17.9Q17.35 13.25 15.6 11L15.45 10.05Q13.1 1.5 5.6 -2L5.65 -3Q6.3 -7.25 4.6 -9L4.6 -10L4.6 -12L4.6 -13L4.6 -15L6.35 -17.15L6.6 -18L7.1 -18.1Q9 -26.4 5.6 -30L5.6 -31L5.6 -33L5.6 -34L5.6 -45L5.6 -46L6.6 -46L7.6 -46Q20.1 -31.45 42.6 -27.1L43.6 -27Q43.9 -25.3 46.6 -25.9L47.6 -26L49.6 -26L50.6 -26Q50.9 -24.3 53.6 -24.9L54.6 -25L55.6 -25L56.6 -25Q56.9 -23.3 59.6 -23.9L60.6 -24Q65.4 -24.25 68.65 -23.15L69.6 -23Q70.4 -21.3 73.6 -21.9L74.6 -22L79.6 -22L80.6 -22Q80.9 -20.3 83.6 -20.9L84.6 -21L85.6 -21Q89.75 -16.15 96.65 -14.15L97.6 -14Q97.9 -12.3 100.6 -12.9L101.6 -13L102.6 -13Q103.3 -9.7 105.35 -7.75L105.6 -7L105.6 -2L105.6 -1L104.6 -1L104.6 2L104.6 3L104.35 3.85Q103.15 5.55 100.6 6L100.5 5.45L96.6 5Q94.7 2.9 91.55 2.35Q89.6 2 89 2.9L75.6 24L75.6 25L75.1 25Q75.25 22.9 73.6 23L73.7 22Q74.3 18.3 72.6 17L72.6 18L71.6 18L71.6 19L71.6 20L70.6 20Q70.6 22 71.05 23.9L71.6 24L71.65 25Q72.3 29.2 70.6 31L70.6 32L70.6 33L69.6 33L69.6 36L69.6 37L69.6 39L69.6 40L68.6 40L68.6 43L68.6 44L68.6 45L68.6 46L67.6 46L67.6 49L67.6 50L67.35 50.8Q64.55 54.45 58.6 55L57.6 55M56.5,13.55L56.6 13L57.55 12.8Q65.95 9.35 65.6 -3L65.35 -3.8Q56.2 -16.1 40.6 -22L40.55 -22.5L32.6 -23L32.6 -22L31.65 -21.85Q25.65 -19.95 21.6 -16L21.6 -15L21.6 -14L20.6 -14Q20.6 -10.5 21.1 -7.05L21.6 -7Q28.35 9.25 47.6 12.9L48.6 13Q51.4 14.75 56.5 13.55" fill="rgb(119,110,60)" fill-opacity="1"></path><path d="M1.7,-32.2Q1.1 -32.5 0.6 -33Q2.35 -36.75 2.1 -43L2.6 -43L2.6 -33L2.6 -32L1.7 -32.2" fill="rgb(64,62,34)" fill-opacity="1"></path><path d="M5.6,-33L5.1 -33.05Q4.6 -39 4.6 -45L5.6 -45L5.6 -34L5.6 -33" fill="rgb(64,63,33)" fill-opacity="1"></path><path d="M-15.4,-17L-16.35 -16.85L-18.4 -16L-18.25 -16.95Q-16.25 -23.75 -18.4 -31Q-16.75 -30.85 -17.3 -33.05L-17.4 -34Q-11.25 -33.35 -9.05 -36.75L-8.4 -37L-7.4 -37L-0.3 -33.2L0.6 -33Q1.1 -32.5 1.7 -32.2L2.6 -32L2.6 -31L2.6 -30L1.7 -30.2Q-0.5 -31.45 -3.4 -32L-3.5 -32.55L-7.4 -33L-7.4 -32Q-7.4 -28 -5.65 -25.8Q-5.4 -25.5 -5.4 -25L-5.6 -24.1L-6.4 -23L-6.95 -23.15Q-9.3 -31.65 -15.4 -27L-15.4 -26L-16.4 -26Q-16.4 -23.5 -15.9 -21.1L-15.4 -21Q-16 -18.85 -14.5 -18.5L-14.4 -18Q-14.4 -17.5 -14.65 -17.25Q-14.9 -17 -15.4 -17" fill="rgb(23,22,21)" fill-opacity="1"></path><path d="M-0.4,-15L-11.4 -15Q-11.4 -15.5 -11.55 -15.55Q-13.6 -16.25 -14.4 -18L-14.5 -18.5Q-16 -18.85 -15.4 -21L-15.4 -22L-15.4 -26L-15.4 -27Q-9.3 -31.65 -6.95 -23.15L-6.4 -23L-6.4 -22Q-2.35 -18.25 -3.85 -22.85L-4.4 -23L-4.6 -23.9L-5.4 -25Q-5.4 -25.5 -5.65 -25.8Q-7.4 -28 -7.4 -32L-4.4 -32L-3.4 -32Q-0.5 -31.45 1.7 -30.2L2.6 -30L4.45 -24.95L4.6 -24L4.6 -21L4.6 -20L4.5 -19.05Q3.8 -16.3 0.6 -16L0.6 -15L-0.4 -15" fill="rgb(126,111,104)" fill-opacity="1"></path><path d="M7.1,-18.1L6.6 -18L6.6 -19L6.6 -20L6.65 -21Q7.2 -26.6 5.6 -30Q9 -26.4 7.1 -18.1M70.6,33L70.7 34Q71.3 36.7 69.6 37L69.6 36L69.6 33L70.6 33" fill="rgb(64,61,33)" fill-opacity="1"></path><path d="M5.6,-20L6.6 -20L6.6 -19L6.6 -18L6.35 -17.15L4.6 -15L4.6 -13L4.6 -12L3.65 -12.15Q1.1 -13 -1.4 -14Q-0.4 -14 0.4 -14.4L0.6 -15L0.6 -16Q3.8 -16.3 4.5 -19.05L4.6 -20L5.6 -20" fill="rgb(21,20,18)" fill-opacity="1"></path><path d="M4.6,-20L4.6 -21L4.6 -24Q6.3 -23.7 5.7 -21L5.6 -20L4.6 -20" fill="rgb(43,40,37)" fill-opacity="1"></path><path d="M-11.4,-15L-0.4 -15L0.6 -15L0.4 -14.4Q-0.4 -14 -1.4 -14L-2.4 -14L-3.4 -14L-4.4 -14L-11.4 -14L-11.4 -15" fill="rgb(79,69,65)" fill-opacity="1"></path><path d="M4.6,0L4.6 -9Q6.3 -7.25 5.65 -3L5.6 -2L5.7 -1.05Q6.25 1.15 4.6 1L4.6 0" fill="rgb(52,49,36)" fill-opacity="1"></path><path d="M15.45,10.05L15.6 11L15.6 17L15.6 18L15.35 18.8Q10.25 25.15 -0.4 26L-1.4 26L-1.4 29L-1.4 30L-2.4 30L-5.4 30L-6.35 29.85Q-10.45 28.55 -12.4 25L-12.4 24Q1.1 18 4.5 2L4.6 1Q6.25 1.15 5.7 -1.05L5.6 -2Q13.1 1.5 15.45 10.05" fill="rgb(166,153,152)" fill-opacity="1"></path><path d="M32.6,-23L40.55 -22.5L40.6 -22L39.6 -22L32.6 -22L32.6 -23" fill="rgb(132,122,83)" fill-opacity="1"></path><path d="M21.6,-14L21.6 -8L21.6 -7L21.1 -7.05Q20.6 -10.5 20.6 -14L21.6 -14" fill="rgb(150,138,119)" fill-opacity="1"></path><path d="M47.5,-26.55L47.6 -26L46.6 -25.9Q43.9 -25.3 43.6 -27L47.5 -26.55M59.6,-23.9Q56.9 -23.3 56.6 -25L60.5 -24.55L60.6 -24L59.6 -23.9" fill="rgb(140,129,99)" fill-opacity="1"></path><path d="M53.6,-24.9Q50.9 -24.3 50.6 -26L54.5 -25.55L54.6 -25L53.6 -24.9" fill="rgb(141,130,102)" fill-opacity="1"></path><path d="M73.6,-21.9Q70.4 -21.3 69.6 -23L74.5 -22.5L74.6 -22L73.6 -21.9" fill="rgb(136,126,92)" fill-opacity="1"></path><path d="M83.6,-20.9Q80.9 -20.3 80.6 -22L84.5 -21.55L84.6 -21L83.6 -20.9" fill="rgb(146,135,111)" fill-opacity="1"></path><path d="M97.6,-14L101.5 -13.55L101.6 -13L100.6 -12.9Q97.9 -12.3 97.6 -14" fill="rgb(62,59,32)" fill-opacity="1"></path><path d="M50.6,60L49.95 59.75Q43 49.1 34.6 40L34.5 39.45L30.6 39L29.65 38.85Q27.1 37.95 23.6 38L23.5 37.45L19.6 37L18.7 36.8Q16.55 35.5 12.6 36L12.5 35.45L8.6 35L7.6 35L4.6 35L3.6 35L-0.4 35L-0.4 34L-0.4 31L4.6 31L5.6 31Q7.35 32.7 11.6 32.05L12.6 32L13.6 32L14.6 32Q14.9 33.7 17.6 33.1L18.6 33L21.6 33L22.6 33L23.6 33Q23.9 34.7 26.6 34.1L27.6 34L30.6 34L31.6 34L32.6 34L33.6 34Q34.4 35.7 37.45 34.55L37.6 34L37.6 33Q45.1 42 49.05 54.85L49.6 55Q52.85 56.75 58.5 55.5L58.6 55Q64.55 54.45 67.35 50.8L67.6 50Q69.3 49.7 68.7 47L68.6 46L68.6 45L68.6 44Q70.3 43.7 69.7 41L69.6 40L69.6 39L69.6 37Q71.3 36.7 70.7 34L70.6 33L70.6 32L70.6 31Q72.3 29.2 71.65 25L71.6 24L71.6 23L71.6 22Q73.3 21.7 72.7 19L72.6 18L72.6 17Q74.3 18.3 73.7 22L73.6 23Q72.7 26.45 75.45 25.55L75.6 25L75.6 24L89 2.9Q89.6 2 91.55 2.35Q94.7 2.9 96.6 5Q96.9 6.7 99.6 6.1L100.6 6Q103.15 5.55 104.35 3.85L104.6 3Q106.25 3.15 105.7 0.95L105.6 0L106.15 -0.1Q107.35 -4.75 105.6 -7L105.35 -7.75Q103.3 -9.7 102.6 -13L102.6 -14Q115.7 -5.85 106.85 8.15Q106.6 8.5 106.6 9L105.6 9L99.6 9L95.4 8.85L92.9 8.25Q86.05 21.95 74.6 31L74.6 32L73.6 32L73.6 38L73.6 39L73.6 40L73.6 41L72.6 41L72.6 44L72.6 45L72.55 46Q71.4 55.3 63.6 58L62.6 58L59.6 58L59.6 59L58.6 59L55.6 59L55.6 60L54.6 60L53.6 60L50.6 60" fill="rgb(7,10,5)" fill-opacity="1"></path><path d="M105.6,-1L105.6 -2L105.6 -7Q107.35 -4.75 106.15 -0.1L105.6 0L105.6 -1" fill="rgb(29,29,25)" fill-opacity="1"></path><path d="M105.6,0L105.7 0.95Q106.25 3.15 104.6 3L104.6 2L104.6 -1L105.6 -1L105.6 0" fill="rgb(46,45,39)" fill-opacity="1"></path><path d="M-81.4,-71L-81.4 -72L-77.4 -72L-76.4 -72Q-76.4 -71.5 -76.5 -71.5L-81.4 -71" fill="rgb(59,116,59)" fill-opacity="1"></path><path d="M-87.4,-45L-93.4 -45L-93.4 -46L-86.45 -45.5L-86.4 -45L-87.4 -45" fill="rgb(41,42,22)" fill-opacity="1"></path><path d="M-94.35,-44.9Q-97.95 -44.05 -99.4 -41L-99.4 -40L-99.4 -39L-100.4 -39Q-100.4 -35 -99.9 -31.05L-99.4 -31Q-98.6 -27.25 -95.35 -26.15L-94.4 -26Q-92.15 -24.25 -87.5 -25.45L-87.4 -26Q-84.1 -28.2 -81.65 -31.2Q-81.4 -31.5 -81.4 -32L-80.85 -32.1Q-79.65 -36.75 -81.4 -39L-81.55 -39.95Q-82.9 -43.5 -86.4 -45L-86.45 -45.5L-93.4 -46L-93.4 -45L-94.35 -44.9M-77.4,16L-81.4 16L-82.3 15.8Q-102.5 6.6 -104.4 -21L-104.4 -22L-104.4 -30L-104.4 -31L-104.4 -44L-104.4 -45L-104.4 -47Q-98.85 -63.45 -80.4 -66.9L-79.4 -67Q-78.15 -53.8 -68.3 -49.2L-67.4 -49Q-63.15 -47.25 -56.5 -48.5Q-56.4 -48.5 -56.4 -49Q-54.7 -49.3 -54.9 -52L-54.4 -52Q-52.6 -45.3 -49.05 -40.25Q-48.9 -40 -48.4 -40Q-52.35 -33.95 -54.3 -25.95L-54.4 -25L-55.4 -25Q-55.4 -19.5 -54.9 -14.05L-54.4 -14Q-53 1.6 -37.4 2.95L-36.4 3L-32.5 2.55L-32.4 2Q-26.9 1 -24.1 -2.75L-23.4 -3L-23.4 2L-23.4 3L-24.4 3L-25.4 3L-25.4 4L-26.4 4L-26.4 5L-26.4 6L-27.4 6L-27.4 9L-27.4 10L-28.35 10.15Q-37.15 13.25 -47.4 15L-48.4 15L-51.4 15L-51.4 16L-52.4 16L-53.4 16L-54.4 16L-57.4 16L-57.4 17L-58.4 17L-65.4 17Q-65.4 16.5 -65.5 16.5L-71.4 16L-72.4 16L-76.4 16L-77.4 16M-94.2,-3.25Q-93.9 -3 -93.4 -3Q-93.1 -1.3 -90.4 -1.9L-89.4 -2L-88.4 -2Q-87.6 -0.3 -84.55 -1.45Q-84.4 -1.5 -84.4 -2Q-79.3 -2.4 -78.5 -7L-78.4 -8Q-77.9 -8 -77.85 -8.15Q-76.7 -11.7 -78.4 -13L-78.6 -13.9Q-86.65 -29.35 -97.4 -15L-97.4 -14L-97.4 -13L-98.4 -13Q-98.4 -11 -97.95 -9.1L-97.4 -9Q-96.6 -5.3 -94.2 -3.25" fill="rgb(118,110,59)" fill-opacity="1"></path><path d="M-88.4,-26L-94.4 -26L-95.35 -26.15Q-98.6 -27.25 -99.4 -31L-99.4 -32L-99.4 -39L-99.4 -40L-99.4 -41Q-97.95 -44.05 -94.35 -44.9L-93.4 -45L-87.4 -45L-86.4 -45Q-82.9 -43.5 -81.55 -39.95L-81.4 -39L-81.4 -33L-81.4 -32Q-81.4 -31.5 -81.65 -31.2Q-84.1 -28.2 -87.4 -26L-88.4 -26M-78.4,-9L-78.4 -8L-78.5 -7Q-79.3 -2.4 -84.4 -2L-85.4 -2L-88.4 -2L-89.4 -2L-89.5 -2.55L-93.4 -3Q-93.9 -3 -94.2 -3.25Q-96.6 -5.3 -97.4 -9L-97.4 -10L-97.4 -13L-97.4 -14L-97.4 -15Q-86.65 -29.35 -78.6 -13.9L-78.4 -13L-78.4 -9" fill="rgb(5,8,4)" fill-opacity="1"></path><path d="M-99.4,-32L-99.4 -31L-99.9 -31.05Q-100.4 -35 -100.4 -39L-99.4 -39L-99.4 -32" fill="rgb(43,41,22)" fill-opacity="1"></path><path d="M-81.4,-39Q-79.65 -36.75 -80.85 -32.1L-81.4 -32L-81.4 -33L-81.4 -39" fill="rgb(51,51,27)" fill-opacity="1"></path><path d="M-87.4,-26L-87.5 -25.45Q-92.15 -24.25 -94.4 -26L-88.4 -26L-87.4 -26" fill="rgb(47,47,25)" fill-opacity="1"></path><path d="M-104.4,-31L-104.4 -30L-105.4 -30L-105.4 -31L-105.4 -44L-104.4 -44L-104.4 -31" fill="rgb(82,77,41)" fill-opacity="1"></path><path d="M-110.4,-36L-110.4 -37L-110.4 -42L-109.4 -42L-109.4 -37L-109.4 -36L-110.4 -36" fill="rgb(31,160,31)" fill-opacity="1"></path><path d="M-110.4,-25L-110.4 -26L-110.4 -36L-109.4 -36L-109.4 -26L-109.4 -25L-110.4 -25" fill="rgb(61,145,61)" fill-opacity="1"></path><path d="M-109.4,-25L-109.4 -19L-109.4 -18L-109.9 -18.05Q-110.4 -21.5 -110.4 -25L-109.4 -25" fill="rgb(30,160,30)" fill-opacity="1"></path><path d="M-104.4,-22L-104.4 -21L-104.9 -21.05Q-105.4 -25.5 -105.4 -30L-104.4 -30L-104.4 -22" fill="rgb(31,32,17)" fill-opacity="1"></path><path d="M-97.4,-10L-97.4 -9L-97.95 -9.1Q-98.4 -11 -98.4 -13L-97.4 -13L-97.4 -10" fill="rgb(93,87,46)" fill-opacity="1"></path><path d="M-84.4,-2Q-84.4 -1.5 -84.55 -1.45Q-87.6 -0.3 -88.4 -2L-85.4 -2L-84.4 -2" fill="rgb(91,86,46)" fill-opacity="1"></path><path d="M-89.4,-2L-90.4 -1.9Q-93.1 -1.3 -93.4 -3L-89.5 -2.55L-89.4 -2" fill="rgb(65,61,33)" fill-opacity="1"></path><path d="M-9.4,-90L-9.4 -91Q-7.45 -90.95 -6.65 -89.85L-6.4 -89L-7.4 -89L-9.4 -89L-9.4 -90" fill="rgb(46,43,39)" fill-opacity="1"></path><path d="M-28.4,-98L-28.4 -99L-16.45 -98.5L-16.4 -98L-17.4 -98L-28.4 -98" fill="rgb(55,100,55)" fill-opacity="1"></path><path d="M-26.4,-95L-26.4 -96L-19.45 -95.5L-19.4 -95L-20.4 -95L-26.4 -95" fill="rgb(123,114,112)" fill-opacity="1"></path><path d="M-23.4,-3L-23.4 -4Q-19.15 -7.75 -18.45 -15L-18.4 -16L-16.35 -16.85L-15.4 -17Q-13.85 -15.55 -12.95 -13.15L-12.4 -13Q-12.1 -11.3 -9.4 -11.9L-8.4 -12L-4.4 -12L-3.4 -12L-2.4 -12L-1.4 -12L-1.4 -7L-1.4 -6L-1.4 -5L-1.4 -4L-2.4 -4L-2.4 -1L-2.4 0L-2.5 1Q-3.6 7.8 -6.4 13L-7.15 13.25Q-11.45 17.45 -17.4 20L-17.3 19Q-16.7 16.3 -18.4 16L-18.5 15Q-19.55 9.15 -21.4 4Q-21.4 3.5 -21.6 3.4L-23.4 3L-23.4 2L-23.4 -3M-20.4,-95L-19.4 -95Q-13.95 -94.95 -11.65 -91.8Q-11.4 -91.5 -11.4 -91L-12.4 -91L-12.4 -83L-12.4 -82L-12.45 -81Q-13 -77.15 -15.4 -75L-15.4 -74L-16.3 -73.8Q-23.55 -70.25 -25.4 -81L-25.35 -82Q-24.65 -88.25 -26.4 -92L-26.4 -93L-26.4 -95L-20.4 -95" fill="rgb(163,149,149)" fill-opacity="1"></path><path d="M-6.4,-54.9Q-9.1 -54.3 -9.4 -56L-5.5 -55.55L-5.4 -55L-6.4 -54.9M-12.4,-82L-12.4 -83L-12.4 -91L-11.4 -91L-11.4 -83L-11.4 -82L-12.4 -82" fill="rgb(93,88,85)" fill-opacity="1"></path><path d="M-14.6,-72.9L-15.4 -74L-15.4 -75Q-13 -77.15 -12.45 -81L-12.4 -82L-11.4 -82L-11.15 -81.25Q-10.9 -81 -10.4 -81Q-10.4 -80.5 -10.55 -80.05Q-11.85 -75.45 -14.4 -72L-14.6 -72.9" fill="rgb(27,29,24)" fill-opacity="1"></path><path d="M-28.4,-91L-28.9 -91.05Q-29.4 -94.5 -29.4 -98L-28.4 -98L-28.4 -92L-28.4 -91" fill="rgb(58,118,58)" fill-opacity="1"></path><path d="M73.6,38L73.6 32L74.6 32L74.6 34.05Q73.65 35.95 74.1 38.4L74.25 39L73.6 39L73.6 38M-33.45,-83.5L-40.4 -83L-40.4 -84L-34.4 -84L-33.4 -84L-33.45 -83.5" fill="rgb(58,116,58)" fill-opacity="1"></path><path d="M-32.4,-78L-35.4 -78L-36.15 -78.25L-36.4 -79L-31.5 -78.5L-31.4 -78L-32.4 -78" fill="rgb(94,85,78)" fill-opacity="1"></path><path d="M-26.4,-92Q-24.65 -88.25 -25.35 -82L-25.4 -81L-25.9 -81.05Q-26.4 -86.5 -26.4 -92" fill="rgb(110,101,100)" fill-opacity="1"></path><path d="M-30.4,-58L-30.9 -58.05Q-31.4 -62 -31.4 -66Q-29.65 -63.75 -30.35 -59L-30.4 -58" fill="rgb(43,37,35)" fill-opacity="1"></path><path d="M-33.4,-51Q-33.05 -45.65 -37 -44Q-50.35 -38.4 -50.4 -53Q-48.25 -53.85 -47.55 -56.05Q-47.4 -56.5 -47.4 -57L-46.85 -57.1Q-45.65 -62.2 -47.4 -65L-47.65 -65.85Q-48.35 -67.05 -48.4 -69Q-45.2 -73.8 -41.15 -77.75L-40.4 -78Q-33 -71.9 -33.4 -58L-33.4 -57L-33.4 -52L-33.4 -51" fill="rgb(246,246,246)" fill-opacity="1"></path><path d="M-30.4,-48L-30.4 -47L-31.4 -47L-31.4 -48L-31.4 -51L-30.4 -51L-30.4 -48" fill="rgb(32,28,26)" fill-opacity="1"></path><path d="M-33.4,-52L-33.4 -57Q-31.7 -55.25 -32.85 -51.15Q-32.9 -51 -33.4 -51L-33.4 -52" fill="rgb(62,62,62)" fill-opacity="1"></path><path d="M-22.4,-54L-22.4 -64Q-20.65 -59.75 -21.9 -53.1L-22.4 -53L-22.4 -54" fill="rgb(64,61,54)" fill-opacity="1"></path><path d="M-18.35,-57Q-17.65 -52.25 -19.4 -50L-19.4 -51L-19.4 -58L-18.4 -58L-18.35 -57" fill="rgb(93,87,85)" fill-opacity="1"></path><path d="M-57.4,-49L-67.4 -49L-68.3 -49.2Q-78.15 -53.8 -79.4 -67Q-71.6 -68.7 -61.4 -68.05L-60.4 -68L-55.5 -68.5Q-55.4 -68.5 -55.4 -69Q-47.65 -72.25 -53.8 -61.2Q-53.9 -61 -54.4 -61L-54.4 -53L-54.4 -52L-54.9 -52Q-54.7 -49.3 -56.4 -49L-57.4 -49M-21.4,-42L-21.4 -45L-21.4 -46Q-19.9 -47 -19.5 -49L-19.4 -50Q-17.65 -52.25 -18.35 -57L-18.4 -58L-18.4 -59Q-13.6 -58.3 -10.25 -56.2L-9.4 -56Q-9.1 -54.3 -6.4 -54.9L-5.4 -55L-4.4 -55Q-2.75 -50.65 -2.9 -44L-2.4 -44L-2.4 -43L-2.4 -40L-2.4 -39Q-2.4 -38.5 -2.65 -38.25Q-2.9 -38 -3.4 -38L-4.4 -38L-8.4 -38L-8.4 -37L-9.05 -36.75Q-11.25 -33.35 -17.4 -34L-17.95 -34.15Q-19.1 -38.3 -21.4 -41L-21.4 -42" fill="rgb(164,150,150)" fill-opacity="1"></path><path d="M-22.4,-45L-22.4 -46L-22.4 -47Q-20.9 -48 -20 -49.8Q-19.9 -50 -19.4 -50L-19.5 -49Q-19.9 -47 -21.4 -46L-21.4 -45L-22.4 -45" fill="rgb(39,37,37)" fill-opacity="1"></path><path d="M-9.4,-59L-3.5 -58.5L-3.4 -58L-4.4 -57.9Q-8.1 -57.3 -9.4 -59" fill="rgb(67,62,56)" fill-opacity="1"></path><path d="M-2.9,-44Q-2.75 -50.65 -4.4 -55L-3.4 -55L-2.4 -55L-2.4 -54L-2.4 -45L-2.4 -44L-2.9 -44" fill="rgb(137,137,137)" fill-opacity="1"></path><path d="M-60.45,-72.5L-71.4 -72L-71.4 -73L-61.4 -73L-60.4 -73L-60.45 -72.5" fill="rgb(59,127,60)" fill-opacity="1"></path><path d="M-55.5,-68.5L-60.4 -68L-60.4 -69L-56.4 -69L-55.4 -69Q-55.4 -68.5 -55.5 -68.5" fill="rgb(61,57,56)" fill-opacity="1"></path><path d="M-47.4,-57L-47.4 -58L-47.4 -65Q-45.65 -62.2 -46.85 -57.1L-47.4 -57" fill="rgb(95,97,95)" fill-opacity="1"></path><path d="M-56.4,-49Q-56.4 -48.5 -56.5 -48.5Q-63.15 -47.25 -67.4 -49L-57.4 -49L-56.4 -49" fill="rgb(130,120,82)" fill-opacity="1"></path><path d="M-40.4,0L-41.35 -0.1Q-48.45 -1.9 -48.4 -11Q-45.2 -14.3 -45.4 -21L-45.4 -22L-44.85 -22.1Q-43.65 -26.75 -45.4 -29L-45.45 -30L-46.4 -38Q-43 -40.6 -38.35 -41.85L-37.4 -42Q-34.7 -42.7 -34 -41.2L-33.4 -41L-32.55 -38.95L-32.4 -38Q-32.4 -36 -31.95 -34.1L-31.4 -34L-31.4 -30L-31.4 -29L-31.4 -13L-31.4 -12L-31.4 -11L-31.4 -10L-32.4 -10L-32.4 -6L-32.4 -5L-32.45 -4Q-32.95 -0.55 -36.4 0L-37.4 0L-40.4 0" fill="rgb(247,247,247)" fill-opacity="1"></path><path d="M-54.4,-25L-54.4 -15L-54.4 -14L-54.9 -14.05Q-55.4 -19.5 -55.4 -25L-54.4 -25" fill="rgb(74,71,38)" fill-opacity="1"></path><path d="M-78.4,-13Q-76.7 -11.7 -77.85 -8.15Q-77.9 -8 -78.4 -8L-78.4 -9L-78.4 -13" fill="rgb(93,88,47)" fill-opacity="1"></path><path d="M-45.4,-22L-45.4 -23L-45.4 -29Q-43.65 -26.75 -44.85 -22.1L-45.4 -22" fill="rgb(138,141,138)" fill-opacity="1"></path><path d="M-2.4,-43Q-0.7 -42.2 -1.85 -39.15Q-1.9 -39 -2.4 -39L-2.4 -40L-2.4 -43" fill="rgb(133,122,87)" fill-opacity="1"></path><path d="M-8.4,-37L-8.4 -38L-4.4 -38L-3.4 -38L-3.5 -37.45L-7.4 -37L-8.4 -37" fill="rgb(149,137,122)" fill-opacity="1"></path><path d="M-15.4,-21L-15.9 -21.1Q-16.4 -23.5 -16.4 -26L-15.4 -26L-15.4 -22L-15.4 -21" fill="rgb(72,64,61)" fill-opacity="1"></path><path d="M-7.4,-32L-7.4 -33L-3.5 -32.55L-3.4 -32L-4.4 -32L-7.4 -32" fill="rgb(65,58,55)" fill-opacity="1"></path><path d="M-22.4,-42L-23.4 -41.95Q-25 -41.85 -24.4 -44L-23.3 -44.8L-22.4 -45L-22.4 -43L-22.4 -42" fill="rgb(29,31,30)" fill-opacity="1"></path><path d="M-22.4,-43L-22.4 -45L-21.4 -45L-21.4 -42L-21.4 -41L-22.15 -41.25L-22.4 -42L-22.4 -43" fill="rgb(129,119,119)" fill-opacity="1"></path><path d="M-30.4,-47Q-30.1 -45.3 -27.4 -45.9L-26.4 -46Q-26.4 -45.5 -26.55 -45.45Q-31.1 -43.8 -31.4 -47L-30.4 -47" fill="rgb(68,63,56)" fill-opacity="1"></path><path d="M-34,-41.2Q-34.7 -42.7 -37.4 -42L-37.4 -43Q-34.2 -43.7 -33.55 -41.95L-33.4 -41L-34 -41.2" fill="rgb(111,113,111)" fill-opacity="1"></path><path d="M-31.95,-34.1Q-32.4 -36 -32.4 -38Q-30.7 -37.7 -31.3 -35L-31.4 -34L-31.95 -34.1" fill="rgb(85,85,85)" fill-opacity="1"></path><path d="M-28.4,-10L-28.4 -11L-28.4 -14Q-26.7 -15.3 -27.3 -19L-27.4 -20L-27.35 -21Q-26.65 -26.2 -28.4 -29L-28.45 -30Q-29 -36.4 -30.4 -42Q-23.65 -40.75 -21.55 -34.95Q-21.4 -34.5 -21.4 -34L-21.4 -31L-21.4 -30Q-21.4 -28 -20.95 -26.1L-20.4 -26Q-20.1 -16.7 -22.9 -10.2Q-26.65 -1.65 -29.4 -6Q-27.7 -6.3 -28.3 -9L-28.4 -10" fill="rgb(124,110,103)" fill-opacity="1"></path><path d="M-21.4,-30L-21.4 -31L-21.4 -34Q-19.7 -33.7 -20.3 -31L-20.4 -30L-21.4 -30" fill="rgb(61,58,51)" fill-opacity="1"></path><path d="M-20.95,-26.1Q-21.4 -28 -21.4 -30L-20.4 -30L-20.4 -27L-20.4 -26L-20.95 -26.1" fill="rgb(94,84,78)" fill-opacity="1"></path><path d="M-28.4,-20L-28.4 -21L-28.4 -29Q-26.65 -26.2 -27.35 -21L-27.4 -20L-28.4 -20" fill="rgb(96,85,80)" fill-opacity="1"></path><path d="M-27.4,-20L-27.3 -19Q-26.7 -15.3 -28.4 -14L-28.4 -15L-28.4 -20L-27.4 -20" fill="rgb(68,60,56)" fill-opacity="1"></path><path d="M-32.4,-6L-32.4 -10L-31.4 -10L-31.3 -9Q-30.7 -5.8 -32.4 -5L-32.4 -6" fill="rgb(102,102,102)" fill-opacity="1"></path><path d="M-31.4,-13L-31.4 -29Q-29.65 -21.75 -30.9 -12.05L-31.4 -12L-31.4 -13" fill="rgb(124,124,124)" fill-opacity="1"></path><path d="M-28.3,-9Q-27.7 -6.3 -29.4 -6L-29.4 -7L-29.4 -10L-28.4 -10L-28.3 -9" fill="rgb(66,58,54)" fill-opacity="1"></path><path d="M-4.6,-23.9L-4.4 -23Q-4.4 -22.5 -4.6 -22.4L-6.4 -22L-6.4 -23L-5.6 -24.1L-5.4 -25L-4.6 -23.9" fill="rgb(59,53,50)" fill-opacity="1"></path><path d="M-4.6,-22.4Q-4.4 -22.5 -4.4 -23L-3.85 -22.85Q-2.35 -18.25 -6.4 -22L-4.6 -22.4" fill="rgb(86,75,71)" fill-opacity="1"></path><path d="M-12.4,-14L-11.4 -14L-4.4 -14L-3.4 -14L-3.4 -13L-4.4 -13L-8.4 -13L-9.4 -13L-12.4 -13L-12.4 -14" fill="rgb(15,14,14)" fill-opacity="1"></path><path d="M-8.4,-12L-9.4 -11.9Q-12.1 -11.3 -12.4 -13L-9.4 -13L-8.4 -13L-8.4 -12" fill="rgb(87,81,81)" fill-opacity="1"></path><path d="M-3.4,-12L-4.4 -12L-8.4 -12L-8.4 -13L-4.4 -13L-3.4 -13L-3.4 -12" fill="rgb(30,30,30)" fill-opacity="1"></path><path d="M-14.65,-17.25Q-14.4 -17.5 -14.4 -18Q-13.6 -16.25 -11.55 -15.55Q-11.4 -15.5 -11.4 -15L-11.4 -14L-12.4 -14L-12.4 -13L-12.95 -13.15Q-13.85 -15.55 -15.4 -17Q-14.9 -17 -14.65 -17.25" fill="rgb(46,43,42)" fill-opacity="1"></path><path d="M-0.85,-6.15Q-0.9 -6 -1.4 -6L-1.4 -7L-1.4 -12Q0.3 -10.25 -0.85 -6.15" fill="rgb(75,74,73)" fill-opacity="1"></path><path d="M-2.4,0L-2.4 -1L-2.4 -4L-1.4 -4L-1.3 -3Q-0.7 -0.3 -2.4 0" fill="rgb(92,85,85)" fill-opacity="1"></path><path d="M-17.4,20L-17.95 19.9Q-18.4 18 -18.4 16Q-16.7 16.3 -17.3 19L-17.4 20" fill="rgb(112,103,102)" fill-opacity="1"></path><path d="M-23.4,3L-21.6 3.4Q-21.4 3.5 -21.4 4L-22.4 4L-25.4 4L-25.4 3L-24.4 3L-23.4 3" fill="rgb(42,40,31)" fill-opacity="1"></path><path d="M-26.4,6L-26.3 7Q-25.7 9.7 -27.4 10L-27.4 9L-27.4 6L-26.4 6" fill="rgb(83,77,41)" fill-opacity="1"></path><path d="M-36.4,3L-36.4 2L-33.4 2L-32.4 2L-32.5 2.55L-36.4 3" fill="rgb(45,45,24)" fill-opacity="1"></path><path d="M-37.4,0L-36.4 0Q-36.4 0.5 -36.55 0.55Q-39.6 1.7 -40.4 0L-37.4 0" fill="rgb(59,63,59)" fill-opacity="1"></path><path d="M-16.55,26.55Q-16.4 26.5 -16.4 26Q-14.45 25.95 -13.25 25.25L-12.4 25Q-10.45 28.55 -6.35 29.85L-5.4 30Q-5.1 31.7 -2.4 31.1L-1.4 31L-1.3 32Q-0.75 34.65 -3.4 34L-3.4 35L-4.4 35L-4.4 36L-5.4 36L-5.4 39L-5.4 40L-5.55 40.95Q-7.8 48.1 -11.4 54L-12.4 54L-25.4 54Q-26.9 54 -27.35 53.3Q-34.8 42.4 -38.4 28L-38.3 27Q-37.7 24.3 -39.4 24Q-39.4 23.5 -39.55 23.05Q-40.2 20.8 -40.4 18Q-34.1 17.3 -29.3 15.2L-28.4 15L-25.4 15L-24.4 15Q-24.5 22.1 -20.65 25.3Q-20.4 25.5 -20.4 26Q-19.6 27.7 -16.55 26.55" fill="rgb(118,109,59)" fill-opacity="1"></path><path d="M-25.4,15L-28.4 15L-28.4 14L-24.5 14.45L-24.4 15L-25.4 15" fill="rgb(46,44,23)" fill-opacity="1"></path><path d="M-38.95,27.9L-39.4 24Q-37.7 24.3 -38.3 27L-38.4 28L-38.95 27.9" fill="rgb(37,38,19)" fill-opacity="1"></path><path d="M-0.4,31L-1.4 31L-2.4 31.1Q-5.1 31.7 -5.4 30L-2.4 30L-1.4 30L-0.4 30L-0.4 31" fill="rgb(137,131,114)" fill-opacity="1"></path><path d="M-0.4,29L-0.4 30L-1.4 30L-1.4 29L-1.4 26L-0.4 26L-0.4 29" fill="rgb(154,144,131)" fill-opacity="1"></path><path d="M-3.4,35L-3.4 34Q-0.75 34.65 -1.3 32L-1.4 31L-0.4 31L-0.4 34L-0.4 35L-0.4 36L-1.4 36Q-1.4 35.5 -1.6 35.4L-3.4 35" fill="rgb(80,76,43)" fill-opacity="1"></path><path d="M-4.3,37Q-3.7 39.7 -5.4 40L-5.4 39L-5.4 36L-4.4 36L-4.3 37" fill="rgb(71,67,36)" fill-opacity="1"></path><path d="M-1.4,36L-0.4 36L-0.3 37Q0.75 41.65 -2.4 42L-2.4 41Q-0.7 40.2 -1.3 37L-1.4 36" fill="rgb(61,63,61)" fill-opacity="1"></path><path d="M53.6,60L54.6 60L54.45 60.55Q51.4 61.7 50.6 60L53.6 60M4.6,36L3.6 36L-0.4 36L-0.4 35L3.6 35L4.6 35L4.6 36" fill="rgb(141,142,141)" fill-opacity="1"></path><path d="M-20.4,26L-17.4 26L-16.4 26Q-16.4 26.5 -16.55 26.55Q-19.6 27.7 -20.4 26" fill="rgb(90,84,45)" fill-opacity="1"></path><path d="M-53.4,16L-53.5 16.55L-57.4 17L-57.4 16L-54.4 16L-53.4 16" fill="rgb(53,51,27)" fill-opacity="1"></path><path d="M-47.4,15L-47.5 15.55L-51.4 16L-51.4 15L-48.4 15L-47.4 15" fill="rgb(55,52,28)" fill-opacity="1"></path><path d="M-65.4,21L-60.4 21L-59.4 21Q-59.4 21.5 -59.55 21.55L-62.4 22L-63.4 22L-65.4 22L-65.4 21" fill="rgb(93,132,93)" fill-opacity="1"></path><path d="M8.6,36L7.6 36L4.6 36L4.6 35L7.6 35L8.6 35L8.6 36M-56.4,20L-53.4 20L-52.4 20L-52.5 20.55L-56.4 21L-56.4 20" fill="rgb(103,104,103)" fill-opacity="1"></path><path d="M-71.4,17L-72.4 17L-76.4 17L-76.4 16L-72.4 16L-71.4 16L-71.4 17" fill="rgb(62,60,32)" fill-opacity="1"></path><path d="M-65.4,17L-66.4 17L-71.4 17L-71.4 16L-65.5 16.5Q-65.4 16.5 -65.4 17" fill="rgb(89,84,45)" fill-opacity="1"></path><path d="M-76.4,16L-76.4 17L-77.4 17.1Q-80.6 17.7 -81.4 16L-77.4 16L-76.4 16" fill="rgb(35,36,19)" fill-opacity="1"></path><path d="M-66.4,21L-65.4 21L-65.4 22L-66.4 22.05Q-73.65 22.75 -78.4 21L-66.4 21" fill="rgb(54,96,54)" fill-opacity="1"></path><path d="M-64.5,24.65L-65.15 24.1L-64.4 24L-64.5 24.65" fill="rgb(34,160,34)" fill-opacity="1"></path><path d="M-11.45,54.5Q-19.65 55.75 -25.4 54L-12.4 54L-11.4 54L-11.45 54.5" fill="rgb(54,51,27)" fill-opacity="1"></path><path d="M106.6,9L106.5 9.55Q101.85 10.75 99.6 9L105.6 9L106.6 9" fill="rgb(54,127,54)" fill-opacity="1"></path><path d="M100.6,6L99.6 6.1Q96.9 6.7 96.6 5L100.5 5.45L100.6 6" fill="rgb(71,66,35)" fill-opacity="1"></path><path d="M71.6,20L71.6 19L71.6 18L72.6 18L72.7 19Q73.3 21.7 71.6 22L71.6 21L71.6 20" fill="rgb(62,63,62)" fill-opacity="1"></path><path d="M71.05,23.9Q70.6 22 70.6 20L71.6 20L71.6 21L71.6 22L71.6 23L71.6 24L71.05 23.9" fill="rgb(110,106,80)" fill-opacity="1"></path><path d="M48.6,13L55.6 13L56.6 13L56.5 13.55Q51.4 14.75 48.6 13" fill="rgb(136,126,94)" fill-opacity="1"></path><path d="M75.6,25L75.45 25.55Q72.7 26.45 73.6 23Q75.25 22.9 75.1 25L75.6 25" fill="rgb(66,63,33)" fill-opacity="1"></path><path d="M69.6,40L69.7 41Q70.3 43.7 68.6 44L68.6 43L68.6 40L69.6 40" fill="rgb(58,56,31)" fill-opacity="1"></path><path d="M68.6,46L68.7 47Q69.3 49.7 67.6 50L67.6 49L67.6 46L68.6 46" fill="rgb(73,69,38)" fill-opacity="1"></path><path d="M72.6,44L72.6 41L73.6 41L73.7 42Q74.3 44.7 72.6 45L72.6 44" fill="rgb(65,67,65)" fill-opacity="1"></path><path d="M15.6,18L15.6 17L15.6 11Q17.35 13.25 16.15 17.9L15.6 18" fill="rgb(140,129,100)" fill-opacity="1"></path><path d="M12.6,32L11.6 32.05Q7.35 32.7 5.6 31L12.55 31.5L12.6 32" fill="rgb(79,73,39)" fill-opacity="1"></path><path d="M8.6,35L12.5 35.45L12.6 36L11.6 36L8.6 36L8.6 35" fill="rgb(54,55,54)" fill-opacity="1"></path><path d="M17.6,32L18.6 32L18.6 33L17.6 33.1Q14.9 33.7 14.6 32L17.6 32" fill="rgb(19,21,19)" fill-opacity="1"></path><path d="M22.6,33L21.6 33L18.6 33L18.6 32L21.6 32L22.6 32L22.6 33" fill="rgb(56,56,45)" fill-opacity="1"></path><path d="M27.6,33L31.5 33.45L31.6 34L30.6 34L27.6 34L27.6 33" fill="rgb(47,45,34)" fill-opacity="1"></path><path d="M37.6,34L37.45 34.55Q34.4 35.7 33.6 34L36.6 34L37.6 34" fill="rgb(41,41,22)" fill-opacity="1"></path><path d="M26.6,33L23.6 33L22.6 33L22.6 32L27.5 32.5L27.6 33L26.6 33" fill="rgb(91,86,55)" fill-opacity="1"></path><path d="M27.6,33L27.6 34L26.6 34.1Q23.9 34.7 23.6 33L26.6 33L27.6 33" fill="rgb(17,18,17)" fill-opacity="1"></path><path d="M23.6,38L22.6 38.1Q19.9 38.7 19.6 37L23.5 37.45L23.6 38" fill="rgb(75,114,75)" fill-opacity="1"></path><path d="M34.6,40L33.6 40.1Q30.9 40.7 30.6 39L34.5 39.45L34.6 40" fill="rgb(135,143,135)" fill-opacity="1"></path><path d="M59.6,58L62.6 58L63.6 58L63.5 58.55L59.6 59L59.6 58" fill="rgb(86,89,86)" fill-opacity="1"></path><path d="M58.6,55L58.5 55.5Q52.85 56.75 49.6 55L57.6 55L58.6 55" fill="rgb(86,80,44)" fill-opacity="1"></path><path d="M55.6,59L58.6 59L59.6 59L59.5 59.55L55.6 60L55.6 59" fill="rgb(50,84,50)" fill-opacity="1"></path></g></g></g></g></svg>