<svg width="218" height="159" viewBox="-97 -95 218 159"><g><defs></defs></g><rect x="-97" y="-95" width="218" height="159" fill="#006600"></rect><g id="0"><defs></defs><g><g type="shape" id="0:1:106"><defs></defs><g transform="matrix(1,0,0,1,0,0)"><path d="M51.35,-80.1L51.4 -79.6L50.4 -79.55Q46.15 -78.9 44.4 -80.6L51.35 -80.1" fill="rgb(49,141,49)" fill-opacity="1"></path><path d="M70.5,-69.8L71.4 -69.6Q75.15 -67.85 81.4 -68.55L82.4 -68.6L84.4 -68.6L85.4 -68.6Q86.2 -66.9 89.4 -67.5L90.4 -67.6Q111.7 -64.45 119.2 -47.5L119.4 -46.6Q119.4 -44.6 119.85 -42.7L120.4 -42.6L120.4 -39.6L120.4 -38.6L120.4 -32.6L120.4 -31.6L120.4 -22.6L120.4 -21.6L120.4 -14.6L120.4 -13.6L120.35 -12.6Q117.35 17.35 91.4 24.4L90.4 24.4L87.4 24.4L87.4 25.4L86.4 25.4L76.4 25.4L76.35 24.9L69.4 24.4L68.4 24.4L67.4 24.4L67.3 23.85L63.4 23.4L62.55 23.65Q58.4 26.4 54.4 29.4L54.3 30.4Q52.05 40.55 47.4 48.4L47.4 50.4L47.4 50.5L46.9 51.4L46.4 51.4L46.4 52.4L46.4 53.4L46.35 54.4Q45.25 62.25 37.4 63.4L36.4 63.4L21.4 63.4L20.6 63.15Q15.65 59.15 15.4 50.4L15.5 49.4Q16.1 46.7 14.4 46.4L14.15 45.65Q13.9 45.4 13.4 45.4L13.4 44.4L13.4 38.4Q19.8 43 21.2 53.3Q21.6 56.2 24.4 57.4Q29.15 59.15 36.4 58.45L37.4 58.4L41.3 57.95L41.4 57.4L41.95 57.25Q47.95 39.95 52.4 21.4L51.5 21.2Q45.3 18.5 36.4 18.4L36.4 19.4L36.4 20.4L35.4 20.4L35.4 24.4L35.4 25.4L35.45 26.4Q35.65 29.65 32.4 29.4L31.4 29.4L28.4 29.4L27.55 29.15Q26.35 28.45 24.4 28.4Q24.4 27.9 24.2 27.8Q9.8 21 7.4 2.4L7.4 1.4L7.4 0.4L7.4 -2.6L7.4 -3.6L7.4 -7.6Q8.4 -10.1 12.4 -9.65L13.4 -9.6L13.4 -8.6L13.4 -7.6L13.4 -5.6L13.4 -4.6L13.4 -1.6L13.4 -0.6Q13.4 2.4 13.9 5.3L14.4 5.4L14.65 6.15L15.4 6.4Q18.1 21.7 30.2 20.4Q30.4 20.4 30.4 18.4Q32.1 18.1 31.5 15.4L31.4 14.4L31.4 13.4L31.4 12.4L33.25 8.35L33.4 7.4Q38.85 5.95 38.45 10.4L38.4 11.4Q37.5 14.85 40.4 14.45L41.4 14.4Q50.2 15.6 57.45 18.25L58.4 18.4Q58.7 20.1 61.4 19.5L62.4 19.4L69.4 20.3L70.4 20.4Q72.15 22.1 76.25 20.95L76.4 20.4L82.4 20.4L83.4 20.4L87.4 20.4L88.4 20.4L93.3 19.9L93.4 19.4Q108.65 12.65 113.3 -4.65L113.4 -5.6Q115.1 -5.9 114.5 -8.6L114.4 -9.6L114.4 -10.6L114.4 -12.6Q116.1 -13.4 115.5 -16.6L115.4 -17.6Q117.15 -20.85 116.45 -26.6L116.4 -27.6L116.4 -28.6L116.4 -34.6L116.45 -35.6Q117.1 -39.85 115.4 -41.6L115.25 -42.55Q110.3 -60 91.4 -63.6L90.4 -63.6L89.4 -63.6L89.35 -64.1L72.4 -64.6L71.4 -64.65Q66.3 -65 62.4 -66.6L65.25 -56.55L65.4 -55.6L65.4 -47.6L65.4 -46.6L65.3 -45.6Q64 -40 60.4 -36.6Q66.7 -27.9 66.4 -12.6L66.4 -11.6L65.4 -11.6L65.4 -8.6L65.4 -7.6L65.3 -6.65Q62.75 3.25 53.4 6.4L52.4 6.4L47.4 6.4L46.4 6.3Q40 5.35 36.4 1.4L36.15 0.65L35.4 0.4L35.15 -0.4Q30.95 -5.15 30.4 -13.6L30.4 -14.6L30.4 -30.6L30.4 -31.6L30.4 -32.6Q32.35 -34.65 33.8 -37.4L34.4 -37.6Q34.9 -37.6 35.15 -37.85Q37.6 -40.4 34.4 -41.6L33.55 -41.85Q32.45 -42.65 32.4 -44.6L32.5 -45.6Q33.1 -48.3 31.4 -48.6L31.4 -49.6L31.4 -54.6L31.4 -55.6Q31.6 -60.3 29.4 -56.6L29.4 -55.6L28.65 -55.35Q26.3 -53.25 22.4 -52.6L21.4 -52.6L18.4 -52.6L18.4 -51.6L17.4 -51.6L16.4 -51.6L14.4 -51.6L13.4 -51.6L9.4 -51.6L8.4 -51.6Q8.4 -48.6 8.9 -45.7L9.4 -45.6L9.4 -44.6L9.4 -43.6Q9.4 -41.6 9.85 -39.7L10.4 -39.6L10.4 -31.6L10.4 -30.6L9.4 -30.6L9.4 -25.6L9.4 -24.6L9.15 -23.85L8.4 -23.6L7.4 -23.6L7.4 -18.6L7.4 -17.6L6.9 -17.6Q7.05 -15.45 5.4 -15.6L5.4 -16.6L5.4 -25.6L6.4 -25.6Q8.1 -25.9 7.5 -28.6L7.4 -29.6L7.4 -30.6L7.4 -32.6Q7.9 -32.6 7.95 -32.75Q9.1 -35.8 7.4 -36.6L7.35 -37.6Q6.9 -44.1 5.4 -49.6L5.4 -50.6L5.4 -55.6L5.3 -56.1L0.4 -56.6L0.4 -55.6L-0.6 -55.6L-2.6 -55.6L-3.6 -55.6L-7.6 -55.6L-7.6 -54.6L-8.6 -54.6L-10.6 -54.6L-11.6 -54.6L-14.6 -54.6L-14.6 -53.6L-15.6 -53.55Q-54.2 -48.2 -73.6 -23.6Q-73.6 -20.6 -73.1 -17.7L-72.6 -17.6Q-72.6 -17.1 -72.85 -16.8Q-76.45 -12.45 -82.6 -10.6L-83.6 -10.6L-87.6 -10.6L-87.6 -9.6L-88.2 -9.4Q-89.65 -6.65 -91.6 -4.6L-91.6 -3.6L-92.6 -3.6Q-92.6 -0.1 -92.1 3.35L-91.6 3.4L-91.15 6.25L-90.6 6.4Q-84.8 13.1 -78.55 6.4Q-77.6 5.4 -75.65 5.1Q-73.45 4.8 -73.6 6.4Q-68.6 15.4 -64.2 25.2Q-61.45 31.35 -60.6 26.4Q-58.9 25.6 -59.5 22.4L-59.6 21.4Q-59.1 21.4 -58.85 21.65Q-58.6 21.9 -58.6 22.4L-58.6 27.4L-58.6 28.4Q-58.6 30.9 -58.1 33.3L-57.6 33.4L-55.65 46.4L-55.6 47.4Q-55.6 49.9 -55.1 52.3L-54.6 52.4Q-51.1 60.9 -37.6 59.45L-36.6 59.4Q-31.85 46.65 -24.6 36.9L-24.6 37.4Q-23.8 39.1 -20.75 37.95Q-20.6 37.9 -20.6 37.4L-19.6 37.4L-18.6 37.4L-15.6 37.4L-14.6 37.4L-10.7 36.95L-10.6 36.4L-7.6 36.4L-6.6 36.4L-1.7 35.9L-1.6 35.4L3.4 35.4L4.4 35.4L9.3 34.9L9.4 34.4L11.4 34.4L12.4 34.4L12.4 37.4L12.4 38.4L11.4 38.4L7.4 38.4L6.4 38.4L3.4 38.4L3.4 39.4L2.4 39.4L-0.6 39.4L-1.6 39.4L-4.6 39.4L-4.6 40.4L-5.6 40.4L-7.6 40.4L-8.6 40.4L-11.6 40.4L-11.6 41.4Q-12.1 41.4 -12.45 41.65Q-13.85 42.65 -16.6 42.4L-17.6 42.4L-21.6 42.4L-21.6 43.4Q-22.1 43.4 -22.3 43.65L-36.6 63.4L-37.6 63.4L-42.6 63.4L-43.6 63.35Q-58.9 62.2 -59.6 46.4L-59.5 45.4Q-58.9 42.7 -60.6 42.4L-60.6 41.4L-60.6 39.4L-60.5 38.4Q-59.9 35.7 -61.6 35.4Q-68.2 31 -71.05 23.2Q-74.5 13.85 -79.6 11.4L-79.6 12.4L-80.6 12.4L-83.6 12.4L-84.6 12.4L-85.6 12.4L-89.6 12.4L-89.6 13.4L-90.55 13.2Q-96.1 10.9 -96.6 3.4L-96.6 2.4L-96.6 -0.6L-96.6 -1.6L-93.8 -6.75L-93.6 -7.6Q-88.4 -12.4 -80.75 -15.05Q-80.6 -15.1 -80.6 -15.6Q-65.8 -48.3 -25.6 -55.5L-24.6 -55.6L-20.7 -56.05L-20.6 -56.6Q-16.2 -56.7 -12.6 -57.5L-11.6 -57.6L-6.7 -58.1L-6.6 -58.6L-3.6 -58.6L-2.6 -58.6L2.3 -59.1L2.4 -59.6L4.4 -59.6L5.4 -59.6Q7.15 -61.85 6.45 -66.6L6.4 -67.6L6.4 -68.6L6.4 -70.6Q12.1 -87.9 28.45 -94.45L29.4 -94.6L39.4 -94.6L40.4 -94.6L40.4 -87.6L40.4 -86.6Q39.2 -80.85 43.4 -80.65L44.4 -80.6Q46.15 -78.9 50.4 -79.55L51.4 -79.6L70.5 -69.8M33.4,-61.6L33.4 -54.6L33.4 -53.6Q33.4 -51.6 33.85 -49.7L34.4 -49.6Q35.7 -45.9 37.75 -42.85Q37.9 -42.6 38.4 -42.6Q40.9 -40.15 43.15 -42.8L43.4 -43.6L43.5 -44.6Q44.1 -47.3 42.4 -47.6L42.4 -48.6L42.4 -54.6Q44.1 -55.4 43.5 -58.6L43.4 -59.6L43.4 -60.6L43.4 -63.6L43.4 -64.6L43.4 -65.6Q44.5 -70 47.15 -72.85L47.4 -73.6L47.9 -73.65Q48.05 -76.8 43.4 -75.6L43.4 -74.6L42.55 -74.35Q37.35 -70.65 34.4 -64.6L34.4 -62.6L34.4 -61.6L33.4 -61.6M44.4,-53.6Q44.4 -50.1 44.9 -46.65L45.4 -46.6Q51.5 -37.75 59.45 -40.45L60.4 -40.6Q64.1 -47.4 59.65 -51.85Q59.4 -52.1 59.4 -52.6L59.5 -53.6Q60.1 -56.3 58.4 -56.6L58.45 -57.6L59.4 -65.6L59.2 -66.45L54.4 -73.6L53.5 -73.4Q46.85 -70.65 45.4 -62.6L45.4 -54.6L45.4 -53.6L44.4 -53.6M30.45,-91.5Q26.5 -90.5 23.4 -88.6Q22.9 -88.6 22.8 -88.4Q22.1 -86.9 19.4 -87.6L19.4 -86.6L19.4 -85.6L18.75 -85.35Q13.65 -77.85 10.4 -68.6L10.4 -67.6L10.4 -66.6L9.4 -66.6L9.4 -55.6L9.4 -54.6Q11.65 -52.85 16.3 -54.05L16.4 -54.6L17.4 -54.6L22.3 -55.1L22.4 -55.6Q32.2 -59.4 27 -68.4L26.4 -68.6L26.4 -69.6L26.4 -70.6L27.4 -70.6Q35 -66.25 37.3 -75.65L37.4 -76.6Q39.15 -80.85 38.45 -87.6L38.4 -88.6L38.4 -89.6L38.4 -91.6L38.35 -92.1L31.4 -92.6L31.4 -91.6L30.45 -91.5M32.4,-27.6Q32.4 -20.1 32.9 -12.65L33.4 -12.6Q36.25 0 41.1 -1Q41.4 -1.1 41.4 -2.6L41.5 -3.6Q42.1 -6.3 40.4 -6.6L40.4 -7.6L40.4 -8.6L40.4 -25.6L40.55 -26.55Q42.85 -35.05 40.4 -38.6L40.2 -38Q35.75 -35.75 33.4 -31.6L33.4 -28.6L33.4 -27.6L32.4 -27.6M45.2,-36.7L44.4 -35.6L44.4 -34.6L44.4 -33.6L43.4 -33.6L43.4 -30.6L43.4 -29.6L43.4 -25.6L43.4 -24.6L42.4 -24.6Q42.4 -16.1 42.9 -7.65L43.4 -7.6L43.4 -6.6L43.4 -5.6Q43.4 -3.6 43.85 -1.7L44.4 -1.6Q43.85 1.95 46.25 2.85L46.4 3.4Q48.65 5.15 53.3 3.95L53.4 3.4Q63.85 -2.75 57.55 -18.65Q57.4 -19.1 57.4 -19.6L57.4 -20.6L57.4 -25.6L57.4 -26.6L57.4 -29.6Q57.9 -29.6 57.95 -29.75Q59.1 -33.3 57.4 -34.6L57.15 -35.3Q54.2 -37.9 49.4 -38.6L49.3 -39.15L45.4 -39.6L45.4 -38.6L45.4 -37.6L45.2 -36.7" fill="rgb(8,11,7)" fill-opacity="1"></path><path d="M38.4,-42.6Q37.9 -42.6 37.75 -42.85Q35.7 -45.9 34.4 -49.6L34.4 -50.6L34.4 -53.6L34.4 -54.6L34.4 -61.6L34.4 -62.6L34.4 -64.6Q37.35 -70.65 42.55 -74.35L43.4 -74.6L47.3 -74.15L47.4 -73.6L47.15 -72.85Q44.5 -70 43.4 -65.6L43.4 -64.6L43.4 -63.6L42.4 -63.6L42.4 -60.6L42.4 -59.6L42.4 -55.6L42.4 -54.6L42.4 -48.6L42.4 -47.6L42.4 -44.6L42.4 -43.6L42.3 -43.05L38.4 -42.6M26.4,-68.6L27 -68.4Q32.2 -59.4 22.4 -55.6L21.4 -55.6L17.4 -55.6L17.4 -54.6L16.4 -54.6L15.4 -54.6L10.4 -54.6L10.4 -55.6L10.4 -66.6L10.4 -67.6L10.4 -68.6Q13.65 -77.85 18.75 -85.35L19.4 -85.6Q21.55 -86.2 21.9 -84.7L22.4 -84.6L22.4 -83.6Q22.4 -79.6 22.9 -75.65L23.4 -75.6L23.4 -74.6Q24.4 -71.6 25.8 -68.8Q25.9 -68.6 26.4 -68.6" fill="rgb(127,112,105)" fill-opacity="1"></path><path d="M43.4,-74.6L43.4 -75.6Q48.05 -76.8 47.9 -73.65L47.4 -73.6L47.3 -74.15L43.4 -74.6" fill="rgb(63,59,53)" fill-opacity="1"></path><path d="M59.4,-52.6Q59.4 -52.1 59.65 -51.85Q64.1 -47.4 60.4 -40.6L59.45 -40.45Q51.5 -37.75 45.4 -46.6L45.4 -47.6L45.4 -53.6L45.4 -54.6L45.4 -62.6Q46.85 -70.65 53.5 -73.4L54.4 -73.6L59.2 -66.45L59.4 -65.6L58.45 -57.6L58.4 -56.6Q58.4 -54.6 58.85 -52.7L59.4 -52.6" fill="rgb(245,245,245)" fill-opacity="1"></path><path d="M42.4,-59.6L42.4 -60.6L42.4 -63.6L43.4 -63.6L43.4 -60.6L43.4 -59.6L42.4 -59.6" fill="rgb(76,67,63)" fill-opacity="1"></path><path d="M42.4,-55.6L42.4 -59.6L43.4 -59.6L43.5 -58.6Q44.1 -55.4 42.4 -54.6L42.4 -55.6" fill="rgb(32,28,26)" fill-opacity="1"></path><path d="M45.4,-46.6L44.9 -46.65Q44.4 -50.1 44.4 -53.6L45.4 -53.6L45.4 -47.6L45.4 -46.6" fill="rgb(57,57,57)" fill-opacity="1"></path><path d="M58.85,-52.7Q58.4 -54.6 58.4 -56.6Q60.1 -56.3 59.5 -53.6L59.4 -52.6L58.85 -52.7" fill="rgb(81,82,81)" fill-opacity="1"></path><path d="M34.4,-38.6L34.4 -37.6L33.8 -37.4Q32.35 -34.65 30.4 -32.6L30.4 -31.6L30.4 -30.6L29.4 -30.6L28.4 -30.6L25.4 -30.6Q24.9 -30.6 24.6 -30.85Q22.65 -32.35 20.4 -33.6L19.4 -33.55Q12.95 -32.65 14.4 -39.6Q14.75 -46.25 17.2 -50.7L17.4 -51.6L18.4 -51.6L22.3 -52.05L22.4 -52.6Q26.3 -53.25 28.65 -55.35L29.4 -55.6L30.15 -55.35L30.4 -54.6Q30.4 -51.6 30.9 -48.7L31.4 -48.6Q31.4 -46.6 31.85 -44.7L32.4 -44.6Q32.45 -42.65 33.55 -41.85L34.4 -41.6L34.4 -38.6M88.4,-63.55L89.4 -63.6L90.4 -63.6L90.4 -58.6L90.4 -57.6L90.2 -56.75Q86.15 -49.85 79.4 -45.6L78.4 -45.6L67.4 -45.6L67.15 -46.35L66.4 -46.6L66.45 -47.6Q67.15 -52.8 65.4 -55.6L65.25 -56.55L62.4 -66.6Q66.3 -65 71.4 -64.65L72.4 -64.6Q79.15 -62.85 88.4 -63.55" fill="rgb(164,150,150)" fill-opacity="1"></path><path d="M40.4,-94.6L39.4 -94.6L29.4 -94.6L29.4 -95.6L40.35 -95.1L40.4 -94.6" fill="rgb(60,146,60)" fill-opacity="1"></path><path d="M37.4,-91.6L31.4 -91.6L31.4 -92.6L38.35 -92.1L38.4 -91.6L37.4 -91.6" fill="rgb(83,79,76)" fill-opacity="1"></path><path d="M15.5,5.4Q16.1 2.7 14.4 2.4L14.4 1.4L14.4 -0.6L14.5 -1.6Q15.1 -4.3 13.4 -4.6L13.4 -5.6L13.4 -7.6L20.35 -8.1L20.4 -8.6L21.4 -8.6L25.3 -9.05L25.4 -9.6L25.4 -10.6L25.4 -11.6L27.15 -12.85L27.4 -13.6L29.4 -13.6L30.4 -13.6Q30.95 -5.15 35.15 -0.4L35.4 0.4L35.4 5.4L35.4 6.4L34.4 6.4L33.4 6.4L33.4 7.4L33.25 8.35L31.4 12.4L31.4 13.4L31.4 14.4L30.4 14.4L30.4 17.4L30.4 18.4Q30.4 20.4 30.2 20.4Q18.1 21.7 15.4 6.4L15.5 5.4M27.2,-71.45L24.4 -75.6L24.4 -76.6L24.4 -78.6L24.4 -79.6L24.45 -80.6Q25.15 -85.35 23.4 -87.6L23.4 -88.6Q26.5 -90.5 30.45 -91.5L31.4 -91.6L37.4 -91.6L38.4 -91.6L38.4 -89.6L38.4 -88.6L37.4 -88.6L37.4 -77.6L37.4 -76.6L37.3 -75.65Q35 -66.25 27.4 -70.6L27.2 -71.45" fill="rgb(163,149,149)" fill-opacity="1"></path><path d="M38.4,-88.6L38.45 -87.6Q39.15 -80.85 37.4 -76.6L37.4 -77.6L37.4 -88.6L38.4 -88.6" fill="rgb(106,98,97)" fill-opacity="1"></path><path d="M40.4,-86.6L40.4 -87.6L40.4 -94.6Q42.15 -91.85 40.95 -86.7L40.4 -86.6" fill="rgb(57,123,57)" fill-opacity="1"></path><path d="M23.4,-83.6L22.4 -83.6L22.4 -84.6L22.35 -85.6Q22.1 -87.3 19.4 -86.6L19.4 -87.6Q22.1 -86.9 22.8 -88.4Q22.9 -88.6 23.4 -88.6L23.4 -87.6L23.4 -84.6L23.4 -83.6" fill="rgb(11,16,11)" fill-opacity="1"></path><path d="M24.4,-79.6L24.4 -78.6L23.4 -78.6L23.4 -76.6L23.4 -75.6L22.9 -75.65Q22.4 -79.6 22.4 -83.6L23.4 -83.6Q23.4 -81.6 23.85 -79.7L24.4 -79.6" fill="rgb(43,42,37)" fill-opacity="1"></path><path d="M23.85,-79.7Q23.4 -81.6 23.4 -83.6L23.4 -84.6L23.4 -87.6Q25.15 -85.35 24.45 -80.6L24.4 -79.6L23.85 -79.7" fill="rgb(56,55,51)" fill-opacity="1"></path><path d="M19.4,-85.6L19.4 -86.6Q22.1 -87.3 22.35 -85.6L22.4 -84.6L21.9 -84.7Q21.55 -86.2 19.4 -85.6" fill="rgb(46,43,39)" fill-opacity="1"></path><path d="M24.15,-74.85L23.4 -74.6L23.4 -75.6L23.4 -76.6L23.4 -78.6L24.4 -78.6L24.4 -76.6L24.4 -75.6L24.15 -74.85" fill="rgb(7,12,6)" fill-opacity="1"></path><path d="M25.8,-68.8Q24.4 -71.6 23.4 -74.6L24.15 -74.85L24.4 -75.6L27.2 -71.45L27.4 -70.6L26.4 -70.6L26.4 -69.6L26.4 -68.6Q25.9 -68.6 25.8 -68.8" fill="rgb(29,30,26)" fill-opacity="1"></path><path d="M6.4,-67.6L6.45 -66.6Q7.15 -61.85 5.4 -59.6L5.4 -60.6L5.4 -67.6L6.4 -67.6" fill="rgb(59,127,59)" fill-opacity="1"></path><path d="M2.4,-59.6L2.3 -59.1L-2.6 -58.6L-2.6 -59.6L1.4 -59.6L2.4 -59.6" fill="rgb(57,111,57)" fill-opacity="1"></path><path d="M4.4,-55.6L3.4 -55.6L0.4 -55.6L0.4 -56.6L5.3 -56.1L5.4 -55.6L4.4 -55.6M98.4,-42.6L104.3 -42.1L104.4 -41.6L103.4 -41.6L102.4 -41.6L98.4 -41.6L98.4 -42.6" fill="rgb(64,62,33)" fill-opacity="1"></path><path d="M-91.6,-3.6L-91.6 -4.6Q-89.65 -6.65 -88.2 -9.4L-87.6 -9.6L-82.7 -10.1L-82.6 -10.6Q-76.45 -12.45 -72.85 -16.8Q-72.6 -17.1 -72.6 -17.6L-71.6 -17.6L-70.6 -17.6L-67.6 -17.6L-66.6 -17.6L-62.7 -18.05L-62.6 -18.6L-61.6 -18.6L-60.6 -18.6L-56.7 -19.05L-56.6 -19.6L-53.6 -19.6L-52.6 -19.6L-48.7 -20.05L-48.6 -20.6L-47.6 -20.6L-46.6 -20.6L-42.7 -21.05L-42.6 -21.6Q-11.25 -23.75 4.15 -41.8L4.4 -42.6Q2.65 -50.85 -4.4 -54Q-4.6 -54.1 -4.6 -54.6L-2.8 -55Q-2.6 -55.1 -2.6 -55.6L-0.6 -55.6L0.4 -55.6L3.4 -55.6L4.4 -55.6Q4.4 -52.6 4.9 -49.7L5.4 -49.6Q6.9 -44.1 7.35 -37.6L7.4 -36.6L7.4 -33.6L7.4 -32.6L7.4 -30.6L7.4 -29.6L6.4 -29.6L6.4 -26.6L6.4 -25.6L5.4 -25.6L5.4 -16.6L5.4 -15.6Q6.8 -12.45 7.35 -8.6L7.4 -7.6L7.4 -3.6L7.4 -2.6L6.4 -2.6Q6.4 -0.6 6.85 1.3L7.4 1.4L7.4 2.4L6.5 2.6Q-1.4 6.1 -3.6 15.4Q-3.3 29.6 11.4 29.4L12.4 29.4L12.4 33.4L12.4 34.4L11.4 34.4L9.4 34.4L8.4 34.4L4.4 34.4L4.4 35.4L3.4 35.4L-1.6 35.4L-2.6 35.4L-6.6 35.4L-7.6 35.4L-10.6 35.4L-10.6 36.4L-11.6 36.4L-14.6 36.4L-15.6 36.4L-18.6 36.4L-18.6 37.4L-19.6 37.4L-20.6 37.4L-21.6 37.4L-24.6 37.4L-24.6 36.9Q-31.85 46.65 -36.6 59.4L-37.6 59.45Q-51.1 60.9 -54.6 52.4L-54.5 51.4Q-53.9 48.2 -55.6 47.4L-55.65 46.4L-57.6 33.4L-57.6 32.4L-57.6 28.4L-57.5 27.4Q-56.9 23.7 -58.6 22.4Q-58.6 21.9 -58.85 21.65Q-59.1 21.4 -59.6 21.4L-60.6 21.4L-60.6 25.4L-60.6 26.4Q-61.45 31.35 -64.2 25.2Q-68.6 15.4 -73.6 6.4Q-73.45 4.8 -75.65 5.1Q-77.6 5.4 -78.55 6.4Q-84.8 13.1 -90.6 6.4L-90.5 5.4Q-89.9 2.7 -91.6 2.4L-91.6 1.4L-91.6 -3.6M-52.6,-0.6Q-52.6 3.9 -52.1 8.35L-51.6 8.4Q-49.35 13.65 -44.5 16.2L-43.6 16.4Q-43.3 18.1 -40.6 17.5L-39.6 17.4L-35.7 16.95L-35.6 16.4Q-15.4 13.1 -8.75 -3.65L-8.6 -4.6L-8.05 -4.75Q-6.9 -8.3 -8.6 -9.6Q-8.6 -10.1 -8.85 -10.45Q-12.1 -15.6 -17.6 -18.6L-18.6 -18.6L-28.6 -18.6Q-28.6 -18.1 -28.8 -18Q-41.4 -11.9 -51.6 -3.6L-51.6 -1.6L-51.6 -0.6L-52.6 -0.6" fill="rgb(119,110,60)" fill-opacity="1"></path><path d="M4.9,-49.7Q4.4 -52.6 4.4 -55.6L5.4 -55.6L5.4 -50.6L5.4 -49.6L4.9 -49.7M83.4,19.4L87.4 19.4L88.4 19.4L88.4 20.4L87.4 20.4L83.4 20.4L83.4 19.4" fill="rgb(91,85,46)" fill-opacity="1"></path><path d="M9.4,-54.6L9.4 -55.6L9.4 -66.6L10.4 -66.6L10.4 -55.6L10.4 -54.6L9.4 -54.6" fill="rgb(88,80,73)" fill-opacity="1"></path><path d="M14.4,-50.6L13.4 -50.6L9.4 -50.6L9.4 -51.6L13.4 -51.6L14.4 -51.6L14.4 -50.6" fill="rgb(62,60,32)" fill-opacity="1"></path><path d="M9.4,-46.6L9.4 -45.6L8.9 -45.7Q8.4 -48.6 8.4 -51.6L9.4 -51.6L9.4 -50.6L9.4 -46.6" fill="rgb(54,53,28)" fill-opacity="1"></path><path d="M20.2,-33Q13.1 -29 10.4 -30.6L10.4 -31.6L10.4 -39.6L10.5 -40.6Q11.1 -43.3 9.4 -43.6L9.4 -44.6L9.4 -45.6L9.4 -46.6L9.4 -50.6L13.4 -50.6L14.4 -50.6L14.4 -40.6L14.4 -39.6Q12.95 -32.65 19.4 -33.55L20.4 -33.6L20.2 -33M24.4,57.4Q21.6 56.2 21.2 53.3Q19.8 43 13.4 38.4L13.4 37.4L13.4 34.4L18.3 33.9L18.4 33.4Q22 32 24.15 29.2L24.4 28.4Q26.35 28.45 27.55 29.15L28.4 29.4Q29.2 31.1 32.25 29.95L32.4 29.4Q35.65 29.65 35.45 26.4L35.4 25.4Q37.1 24.6 36.5 21.4L36.4 20.4L36.4 19.4L36.4 18.4Q45.3 18.5 51.5 21.2L52.4 21.4Q47.95 39.95 41.95 57.25L41.4 57.4L40.4 57.4L37.4 57.4L36.4 57.4L24.4 57.4" fill="rgb(118,109,59)" fill-opacity="1"></path><path d="M14.4,-40.6L14.4 -50.6L14.4 -51.6L16.4 -51.6L17.4 -51.6L17.2 -50.7Q14.75 -46.25 14.4 -39.6L14.4 -40.6" fill="rgb(127,124,113)" fill-opacity="1"></path><path d="M22.4,-55.6L22.3 -55.1L17.4 -54.6L17.4 -55.6L21.4 -55.6L22.4 -55.6" fill="rgb(82,75,68)" fill-opacity="1"></path><path d="M10.4,-54.6L15.4 -54.6L16.4 -54.6L16.3 -54.05Q11.65 -52.85 9.4 -54.6L10.4 -54.6" fill="rgb(32,34,28)" fill-opacity="1"></path><path d="M22.3,-52.05L18.4 -51.6L18.4 -52.6L21.4 -52.6L22.4 -52.6L22.3 -52.05" fill="rgb(71,68,65)" fill-opacity="1"></path><path d="M30.4,-54.6L30.15 -55.35L29.4 -55.6L29.4 -56.6Q31.6 -60.3 31.4 -55.6L31.4 -54.6L30.4 -54.6" fill="rgb(12,13,11)" fill-opacity="1"></path><path d="M33.4,-53.6L33.4 -54.6L33.4 -61.6L34.4 -61.6L34.4 -54.6L34.4 -53.6L33.4 -53.6" fill="rgb(53,51,44)" fill-opacity="1"></path><path d="M34.4,-53.6L34.4 -50.6L34.4 -49.6L33.85 -49.7Q33.4 -51.6 33.4 -53.6L34.4 -53.6" fill="rgb(36,37,31)" fill-opacity="1"></path><path d="M30.4,-54.6L31.4 -54.6L31.4 -49.6L31.4 -48.6L30.9 -48.7Q30.4 -51.6 30.4 -54.6" fill="rgb(94,88,86)" fill-opacity="1"></path><path d="M31.4,-48.6Q33.1 -48.3 32.5 -45.6L32.4 -44.6L31.85 -44.7Q31.4 -46.6 31.4 -48.6" fill="rgb(33,33,31)" fill-opacity="1"></path><path d="M34.4,-41.6Q37.6 -40.4 35.15 -37.85Q34.9 -37.6 34.4 -37.6L34.4 -38.6L34.4 -41.6" fill="rgb(30,31,30)" fill-opacity="1"></path><path d="M41.4,-2.6Q41.4 -1.1 41.1 -1Q36.25 0 33.4 -12.6L33.4 -13.6L33.4 -27.6L33.4 -28.6L33.4 -31.6Q35.75 -35.75 40.2 -38L40.4 -38.6Q42.85 -35.05 40.55 -26.55L40.4 -25.6L39.4 -25.6Q39.4 -16.6 39.9 -7.65L40.4 -7.6L40.4 -6.6Q40.4 -4.6 40.85 -2.7L41.4 -2.6" fill="rgb(125,111,104)" fill-opacity="1"></path><path d="M20.4,-33.6Q22.65 -32.35 24.6 -30.85Q24.9 -30.6 25.4 -30.6Q26.2 -28.9 29.25 -30.05L29.4 -30.6L30.4 -30.6L30.4 -14.6L30.4 -13.6L29.4 -13.6L27.4 -13.6L26.4 -13.6Q28.2 -15.8 27.3 -19.3Q24.45 -30.35 18.4 -19.6L18.4 -18.6Q17.9 -18.6 17.8 -18.8Q17.4 -19.6 17.4 -20.6L17.4 -21.6L17.4 -22.6Q19.6 -23.9 19.45 -27.6L19.4 -28.6L19.3 -29.15L15.4 -29.6L15.4 -28.6L14.5 -28.4Q11.7 -26.8 9.4 -24.6L9.4 -25.6L9.4 -30.6L10.4 -30.6Q13.1 -29 20.2 -33L20.4 -33.6" fill="rgb(22,21,20)" fill-opacity="1"></path><path d="M29.25,-30.05Q26.2 -28.9 25.4 -30.6L28.4 -30.6L29.4 -30.6L29.25 -30.05" fill="rgb(55,51,51)" fill-opacity="1"></path><path d="M33.4,-12.6L32.9 -12.65Q32.4 -20.1 32.4 -27.6L33.4 -27.6L33.4 -13.6L33.4 -12.6" fill="rgb(84,76,69)" fill-opacity="1"></path><path d="M39.9,-7.65Q39.4 -16.6 39.4 -25.6L40.4 -25.6L40.4 -8.6L40.4 -7.6L39.9 -7.65" fill="rgb(96,85,80)" fill-opacity="1"></path><path d="M10.4,-39.6L9.85 -39.7Q9.4 -41.6 9.4 -43.6Q11.1 -43.3 10.5 -40.6L10.4 -39.6" fill="rgb(48,48,28)" fill-opacity="1"></path><path d="M-71.6,-17.6L-72.6 -17.6L-73.1 -17.7Q-73.6 -20.6 -73.6 -23.6Q-54.2 -48.2 -15.6 -53.55L-14.6 -53.6L-10.7 -54.05L-10.6 -54.6L-8.6 -54.6L-7.6 -54.6L-5.6 -54.6L-4.6 -54.6Q-4.6 -54.1 -4.4 -54Q2.65 -50.85 4.4 -42.6L4.15 -41.8Q-11.25 -23.75 -42.6 -21.6L-43.6 -21.6L-46.6 -21.6L-46.6 -20.6L-47.6 -20.6L-48.6 -20.6L-49.6 -20.6L-52.6 -20.6L-52.6 -19.6L-53.6 -19.6L-56.6 -19.6L-57.6 -19.6L-60.6 -19.6L-60.6 -18.6L-61.6 -18.6L-62.6 -18.6L-63.6 -18.6L-66.6 -18.6L-67.6 -18.6L-70.6 -18.6L-70.6 -17.6L-71.6 -17.6" fill="rgb(167,154,153)" fill-opacity="1"></path><path d="M7.4,-33.6L7.4 -36.6Q9.1 -35.8 7.95 -32.75Q7.9 -32.6 7.4 -32.6L7.4 -33.6M100.4,-17.6L95.4 -17.6L95.4 -18.6L101.3 -18.1L101.4 -17.6L100.4 -17.6" fill="rgb(34,36,19)" fill-opacity="1"></path><path d="M6.4,-26.6L6.4 -29.6L7.4 -29.6L7.5 -28.6Q8.1 -25.9 6.4 -25.6L6.4 -26.6" fill="rgb(47,47,25)" fill-opacity="1"></path><path d="M25.8,-13.4Q25.1 -11.9 23.4 -11.6L22.4 -11.6L12.4 -11.6L11.45 -11.75Q8.9 -12.65 8.4 -15.6L8.4 -16.6L8.4 -23.6L9.15 -23.85L9.4 -24.6Q11.7 -26.8 14.5 -28.4L15.4 -28.6L18.4 -28.6L19.4 -28.6L19.45 -27.6Q19.6 -23.9 17.4 -22.6L17.4 -21.6L17.4 -20.6L16.5 -20.4Q15.9 -20.1 15.4 -19.6Q15.4 -14.65 18.15 -17.8L18.4 -18.6L18.4 -19.6Q24.45 -30.35 27.3 -19.3Q28.2 -15.8 26.4 -13.6Q25.9 -13.6 25.8 -13.4" fill="rgb(125,110,104)" fill-opacity="1"></path><path d="M15.4,-28.6L15.4 -29.6L19.3 -29.15L19.4 -28.6L18.4 -28.6L15.4 -28.6" fill="rgb(39,36,34)" fill-opacity="1"></path><path d="M18.15,-17.8Q15.4 -14.65 15.4 -19.6Q15.9 -20.1 16.5 -20.4L17.4 -20.6Q17.4 -19.6 17.8 -18.8Q17.9 -18.6 18.4 -18.6L18.15 -17.8" fill="rgb(84,73,69)" fill-opacity="1"></path><path d="M8.4,-16.6L8.4 -15.6Q7.9 -15.6 7.8 -15.8Q7.4 -16.6 7.4 -17.6L7.4 -18.6L7.4 -23.6L8.4 -23.6L8.4 -16.6" fill="rgb(83,75,69)" fill-opacity="1"></path><path d="M12.65,-10.85Q12.9 -10.6 13.4 -10.6L13.4 -9.6L12.4 -9.65Q8.4 -10.1 7.4 -7.6L7.35 -8.6Q6.8 -12.45 5.4 -15.6Q7.05 -15.45 6.9 -17.6L7.4 -17.6Q7.4 -16.6 7.8 -15.8Q7.9 -15.6 8.4 -15.6Q8.9 -12.65 11.45 -11.75L12.4 -11.6Q12.4 -11.1 12.65 -10.85" fill="rgb(30,28,22)" fill-opacity="1"></path><path d="M7.4,-2.6L7.4 0.4L7.4 1.4L6.85 1.3Q6.4 -0.6 6.4 -2.6L7.4 -2.6" fill="rgb(90,84,45)" fill-opacity="1"></path><path d="M13.4,-10.6L22.4 -10.6L23.4 -10.6L24.15 -10.35L24.4 -9.6L23.4 -9.6L21.4 -9.6L20.4 -9.6L16.4 -9.6L16.4 -8.6L15.4 -8.6L13.4 -8.6L13.4 -9.6L13.4 -10.6" fill="rgb(12,11,11)" fill-opacity="1"></path><path d="M13.4,-7.6L13.4 -8.6L15.4 -8.6L16.4 -8.6L19.4 -8.6L20.4 -8.6L20.35 -8.1L13.4 -7.6" fill="rgb(130,119,119)" fill-opacity="1"></path><path d="M21.4,-8.6L20.4 -8.6L19.4 -8.6L16.4 -8.6L16.4 -9.6L20.4 -9.6L21.4 -9.6L21.4 -8.6" fill="rgb(30,30,30)" fill-opacity="1"></path><path d="M23.4,-10.6L22.4 -10.6L13.4 -10.6Q12.9 -10.6 12.65 -10.85Q12.4 -11.1 12.4 -11.6L22.4 -11.6L23.4 -11.6L23.4 -10.6" fill="rgb(103,90,85)" fill-opacity="1"></path><path d="M14.5,-1.6L14.4 -0.6L13.4 -0.6L13.4 -1.6L13.4 -4.6Q15.1 -4.3 14.5 -1.6" fill="rgb(116,108,108)" fill-opacity="1"></path><path d="M14.4,4.4L14.4 5.4L13.9 5.3Q13.4 2.4 13.4 -0.6L14.4 -0.6L14.4 1.4L14.4 2.4L14.4 4.4" fill="rgb(28,27,27)" fill-opacity="1"></path><path d="M24.4,-9.6L24.15 -10.35L23.4 -10.6L23.4 -11.6Q25.1 -11.9 25.8 -13.4Q25.9 -13.6 26.4 -13.6L27.4 -13.6L27.15 -12.85L25.4 -11.6L25.4 -10.6L25.4 -9.6L24.4 -9.6" fill="rgb(34,31,30)" fill-opacity="1"></path><path d="M25.4,-9.6L25.3 -9.05L21.4 -8.6L21.4 -9.6L23.4 -9.6L24.4 -9.6L25.4 -9.6" fill="rgb(66,62,62)" fill-opacity="1"></path><path d="M67.4,-45.6L78.4 -45.6L79.4 -45.6L79.3 -45.1Q72.15 -43.85 67.4 -45.6" fill="rgb(141,129,103)" fill-opacity="1"></path><path d="M33.4,6.4L34.4 6.4L35.4 6.4Q37.1 5.6 36.5 2.4L36.4 1.4Q40 5.35 46.4 6.3L47.4 6.4Q49.15 8.1 53.25 6.95L53.4 6.4Q62.75 3.25 65.3 -6.65L65.4 -7.6Q67.1 -7.9 66.5 -10.6L66.4 -11.6L66.4 -12.6Q66.7 -27.9 60.4 -36.6Q64 -40 65.3 -45.6L65.4 -46.6L66.4 -46.6L67.15 -46.35L67.4 -45.6Q72.15 -43.85 79.3 -45.1L79.4 -45.6Q86.15 -49.85 90.2 -56.75L90.4 -57.6Q92.1 -58.9 91.5 -62.6L91.4 -63.6Q110.3 -60 115.25 -42.55L115.4 -41.6L115.4 -35.6L115.4 -34.6L115.4 -28.6L115.4 -27.6L115.4 -18.6L115.4 -17.6L115.5 -16.6Q116.1 -13.4 114.4 -12.6L114.4 -10.6L114.4 -9.6L113.4 -9.6L113.4 -6.6L113.4 -5.6L113.3 -4.65Q108.65 12.65 93.4 19.4L92.4 19.4L88.4 19.4L87.4 19.4L83.4 19.4L83.4 20.4L82.4 20.4L76.4 20.4L75.4 20.4L70.4 20.4L69.4 20.3L62.4 19.4L62.3 18.85L58.4 18.4L57.45 18.25Q50.2 15.6 41.4 14.4L41.25 13.85Q39.2 13.15 38.4 11.4L38.45 10.4Q38.85 5.95 33.4 7.4L33.4 6.4M91.4,-34.6Q91.4 -32.1 91.9 -29.7L92.4 -29.6Q94.35 -21.05 105.35 -22.1L105.4 -22.6Q109.15 -23.35 110.25 -26.65L110.4 -27.6L110.95 -27.7Q112.15 -32.8 110.4 -35.6L110.3 -36.6Q109.55 -41.25 104.4 -41.6L104.3 -42.1L98.4 -42.6L98.4 -41.6L97.6 -41.35L92.4 -37.6L92.4 -35.6L92.4 -34.6L91.4 -34.6M100.25,1.95L100.4 1.4Q106.65 1.15 108.25 -3.65L108.4 -4.6Q108.9 -4.6 108.95 -4.75Q110.1 -7.8 108.4 -8.6L108.35 -9.6Q107.65 -16.35 101.4 -17.6L101.3 -18.1L95.4 -18.6L95.4 -17.6L94.55 -17.35Q90.9 -15.1 89.4 -10.6Q87.95 -0.65 94.45 1.25L95.4 1.4Q96.7 3.1 100.25 1.95" fill="rgb(118,110,59)" fill-opacity="1"></path><path d="M66.4,-46.6L65.4 -46.6L65.4 -47.6L65.4 -55.6Q67.15 -52.8 66.45 -47.6L66.4 -46.6" fill="rgb(65,63,51)" fill-opacity="1"></path><path d="M42.4,-43.6L42.4 -44.6L42.4 -47.6Q44.1 -47.3 43.5 -44.6L43.4 -43.6L42.4 -43.6" fill="rgb(34,29,27)" fill-opacity="1"></path><path d="M42.3,-43.05L42.4 -43.6L43.4 -43.6L43.15 -42.8Q40.9 -40.15 38.4 -42.6L42.3 -43.05" fill="rgb(91,81,75)" fill-opacity="1"></path><path d="M14.4,46.4Q16.1 46.7 15.5 49.4L15.4 50.4L14.85 50.3Q14.4 48.4 14.4 46.4M48.4,-38.6Q46.45 -38.55 45.4 -37.6L45.4 -38.6L45.4 -39.6L49.3 -39.15L49.4 -38.6L48.4 -38.6" fill="rgb(65,67,65)" fill-opacity="1"></path><path d="M52.4,3.4L46.4 3.4L46.25 2.85Q43.85 1.95 44.4 -1.6L44.5 -2.6Q45.1 -5.3 43.4 -5.6L43.4 -6.6L43.4 -7.6L43.4 -8.6L43.4 -24.6L43.4 -25.6L43.4 -29.6Q45.1 -29.9 44.5 -32.6L44.4 -33.6L44.4 -34.6L44.4 -35.6L45.2 -36.7L45.4 -37.6Q46.45 -38.55 48.4 -38.6L49.4 -38.6Q54.2 -37.9 57.15 -35.3L57.4 -34.6L57.4 -30.6L57.4 -29.6L57.4 -26.6L57.4 -25.6L56.4 -25.6Q56.4 -22.6 56.9 -19.7L57.4 -19.6Q57.4 -19.1 57.55 -18.65Q63.85 -2.75 53.4 3.4L52.4 3.4" fill="rgb(246,246,246)" fill-opacity="1"></path><path d="M43.4,-29.6L43.4 -30.6L43.4 -33.6L44.4 -33.6L44.5 -32.6Q45.1 -29.9 43.4 -29.6" fill="rgb(152,152,152)" fill-opacity="1"></path><path d="M57.4,-34.6Q59.1 -33.3 57.95 -29.75Q57.9 -29.6 57.4 -29.6L57.4 -30.6L57.4 -34.6" fill="rgb(116,119,116)" fill-opacity="1"></path><path d="M57.4,-25.6L57.4 -20.6L57.4 -19.6L56.9 -19.7Q56.4 -22.6 56.4 -25.6L57.4 -25.6" fill="rgb(110,113,110)" fill-opacity="1"></path><path d="M43.4,-7.6L42.9 -7.65Q42.4 -16.1 42.4 -24.6L43.4 -24.6L43.4 -8.6L43.4 -7.6" fill="rgb(122,122,122)" fill-opacity="1"></path><path d="M44.4,-1.6L43.85 -1.7Q43.4 -3.6 43.4 -5.6Q45.1 -5.3 44.5 -2.6L44.4 -1.6" fill="rgb(120,120,120)" fill-opacity="1"></path><path d="M40.85,-2.7Q40.4 -4.6 40.4 -6.6Q42.1 -6.3 41.5 -3.6L41.4 -2.6L40.85 -2.7" fill="rgb(66,58,54)" fill-opacity="1"></path><path d="M65.4,-7.6L65.4 -8.6L65.4 -11.6L66.4 -11.6L66.5 -10.6Q67.1 -7.9 65.4 -7.6" fill="rgb(46,47,25)" fill-opacity="1"></path><path d="M90.4,-57.6L90.4 -58.6L90.4 -63.6L91.4 -63.6L91.5 -62.6Q92.1 -58.9 90.4 -57.6" fill="rgb(140,129,108)" fill-opacity="1"></path><path d="M82.4,-68.6L81.4 -68.55Q75.15 -67.85 71.4 -69.6L82.35 -69.1L82.4 -68.6" fill="rgb(40,150,40)" fill-opacity="1"></path><path d="M90.4,-67.6L89.4 -67.5Q86.2 -66.9 85.4 -68.6L90.3 -68.1L90.4 -67.6" fill="rgb(58,120,58)" fill-opacity="1"></path><path d="M72.4,-64.6L89.35 -64.1L89.4 -63.6L88.4 -63.55Q79.15 -62.85 72.4 -64.6" fill="rgb(124,114,113)" fill-opacity="1"></path><path d="M120.4,-42.6L119.85 -42.7Q119.4 -44.6 119.4 -46.6Q121.1 -46.3 120.5 -43.6L120.4 -42.6" fill="rgb(48,113,48)" fill-opacity="1"></path><path d="M105.35,-22.1Q94.35 -21.05 92.4 -29.6L92.4 -30.6L92.4 -34.6L92.4 -35.6L92.4 -37.6L97.6 -41.35L98.4 -41.6L102.4 -41.6L103.4 -41.6L103.15 -40.8Q101.75 -39.25 99.4 -38.6Q98.5 -27.2 104.55 -22.85L105.4 -22.6L105.35 -22.1" fill="rgb(7,13,6)" fill-opacity="1"></path><path d="M104.4,-41.6Q109.55 -41.25 110.3 -36.6L110.4 -35.6L110.4 -28.6L110.4 -27.6L110.25 -26.65Q109.15 -23.35 105.4 -22.6L104.55 -22.85Q98.5 -27.2 99.4 -38.6Q101.75 -39.25 103.15 -40.8L103.4 -41.6L104.4 -41.6" fill="rgb(3,5,3)" fill-opacity="1"></path><path d="M-82.7,-10.1L-87.6 -9.6L-87.6 -10.6L-83.6 -10.6L-82.6 -10.6L-82.7 -10.1M110.95,-27.7L110.4 -27.6L110.4 -28.6L110.4 -35.6Q112.15 -32.8 110.95 -27.7" fill="rgb(43,41,22)" fill-opacity="1"></path><path d="M120.4,-31.6L120.4 -32.6L120.4 -38.6Q122.1 -36.85 121.45 -32.6L121.4 -31.6L120.4 -31.6" fill="rgb(33,160,33)" fill-opacity="1"></path><path d="M120.4,-21.6L120.4 -22.6L120.4 -31.6L121.4 -31.6L121.4 -22.6L121.4 -21.6L120.4 -21.6" fill="rgb(63,143,63)" fill-opacity="1"></path><path d="M115.4,-34.6L115.4 -35.6L115.4 -41.6Q117.1 -39.85 116.45 -35.6L116.4 -34.6L115.4 -34.6" fill="rgb(49,47,25)" fill-opacity="1"></path><path d="M115.4,-27.6L115.4 -28.6L115.4 -34.6L116.4 -34.6L116.4 -28.6L116.4 -27.6L115.4 -27.6" fill="rgb(80,75,40)" fill-opacity="1"></path><path d="M115.4,-18.6L115.4 -27.6L116.4 -27.6L116.45 -26.6Q117.15 -20.85 115.4 -17.6L115.4 -18.6" fill="rgb(33,34,17)" fill-opacity="1"></path><path d="M92.4,-34.6L92.4 -30.6L92.4 -29.6L91.9 -29.7Q91.4 -32.1 91.4 -34.6L92.4 -34.6" fill="rgb(72,69,37)" fill-opacity="1"></path><path d="M108.4,-4.6L108.25 -3.65Q106.65 1.15 100.4 1.4L99.4 1.4L95.4 1.4L94.45 1.25Q87.95 -0.65 89.4 -10.6Q90.9 -15.1 94.55 -17.35L95.4 -17.6L100.4 -17.6L101.4 -17.6Q107.65 -16.35 108.35 -9.6L108.4 -8.6L108.4 -5.6L108.4 -4.6" fill="rgb(5,8,4)" fill-opacity="1"></path><path d="M121.4,-21.6L121.45 -20.6Q122.15 -15.85 120.4 -13.6L120.4 -14.6L120.4 -21.6L121.4 -21.6" fill="rgb(32,160,32)" fill-opacity="1"></path><path d="M108.4,-5.6L108.4 -8.6Q110.1 -7.8 108.95 -4.75Q108.9 -4.6 108.4 -4.6L108.4 -5.6" fill="rgb(92,85,46)" fill-opacity="1"></path><path d="M113.4,-6.6L113.4 -9.6L114.4 -9.6L114.5 -8.6Q115.1 -5.9 113.4 -5.6L113.4 -6.6" fill="rgb(79,75,40)" fill-opacity="1"></path><path d="M-91.6,1.4L-91.6 2.4L-91.6 3.4L-92.1 3.35Q-92.6 -0.1 -92.6 -3.6L-91.6 -3.6L-91.6 1.4" fill="rgb(43,42,33)" fill-opacity="1"></path><path d="M-96.6,-0.6L-96.6 2.4L-96.6 3.4L-97.15 3.3Q-97.6 1.4 -97.6 -0.6L-96.6 -0.6" fill="rgb(51,152,51)" fill-opacity="1"></path><path d="M-20.6,-56.6L-20.7 -56.05L-24.6 -55.6L-24.6 -56.6L-21.6 -56.6L-20.6 -56.6" fill="rgb(50,133,50)" fill-opacity="1"></path><path d="M-14.6,-53.6L-14.6 -54.6L-11.6 -54.6L-10.6 -54.6L-10.7 -54.05L-14.6 -53.6" fill="rgb(104,97,96)" fill-opacity="1"></path><path d="M-6.6,-58.6L-6.7 -58.1L-11.6 -57.6L-11.6 -58.6L-7.6 -58.6L-6.6 -58.6" fill="rgb(54,104,54)" fill-opacity="1"></path><path d="M-2.8,-55L-4.6 -54.6L-5.6 -54.6L-7.6 -54.6L-7.6 -55.6L-3.6 -55.6L-2.6 -55.6Q-2.6 -55.1 -2.8 -55" fill="rgb(59,57,39)" fill-opacity="1"></path><path d="M-62.7,-18.05L-66.6 -17.6L-66.6 -18.6L-63.6 -18.6L-62.6 -18.6L-62.7 -18.05" fill="rgb(138,128,96)" fill-opacity="1"></path><path d="M-67.6,-17.6L-70.6 -17.6L-70.6 -18.6L-67.6 -18.6L-66.6 -18.6L-66.6 -17.6L-67.6 -17.6" fill="rgb(154,142,128)" fill-opacity="1"></path><path d="M-46.6,-20.6L-46.6 -21.6L-43.6 -21.6L-42.6 -21.6L-42.7 -21.05L-46.6 -20.6" fill="rgb(146,134,111)" fill-opacity="1"></path><path d="M-48.7,-20.05L-52.6 -19.6L-52.6 -20.6L-49.6 -20.6L-48.6 -20.6L-48.7 -20.05" fill="rgb(142,131,104)" fill-opacity="1"></path><path d="M-56.7,-19.05L-60.6 -18.6L-60.6 -19.6L-57.6 -19.6L-56.6 -19.6L-56.7 -19.05" fill="rgb(148,137,116)" fill-opacity="1"></path><path d="M-51.6,8.4L-52.1 8.35Q-52.6 3.9 -52.6 -0.6L-51.6 -0.6L-51.6 7.4L-51.6 8.4" fill="rgb(149,138,118)" fill-opacity="1"></path><path d="M-43.6,16.4L-44.5 16.2Q-49.35 13.65 -51.6 8.4L-51.6 7.4L-51.6 -0.6L-51.6 -1.6L-51.6 -3.6Q-41.4 -11.9 -28.8 -18Q-28.6 -18.1 -28.6 -18.6L-18.6 -18.6L-17.6 -18.6Q-12.1 -15.6 -8.85 -10.45Q-8.6 -10.1 -8.6 -9.6L-8.6 -5.6L-8.6 -4.6L-8.75 -3.65Q-15.4 13.1 -35.6 16.4L-36.6 16.4L-39.6 16.4L-40.6 16.4L-43.6 16.4" fill="rgb(168,154,153)" fill-opacity="1"></path><path d="M-8.6,-5.6L-8.6 -9.6Q-6.9 -8.3 -8.05 -4.75L-8.6 -4.6L-8.6 -5.6" fill="rgb(130,120,80)" fill-opacity="1"></path><path d="M-36.6,16.4L-35.6 16.4L-35.7 16.95L-39.6 17.4L-39.6 16.4L-36.6 16.4" fill="rgb(151,139,123)" fill-opacity="1"></path><path d="M-40.6,16.4L-39.6 16.4L-39.6 17.4L-40.6 17.5Q-43.3 18.1 -43.6 16.4L-40.6 16.4" fill="rgb(144,134,112)" fill-opacity="1"></path><path d="M-20.6,37.4Q-20.6 37.9 -20.75 37.95Q-23.8 39.1 -24.6 37.4L-21.6 37.4L-20.6 37.4" fill="rgb(70,67,36)" fill-opacity="1"></path><path d="M-21.6,43.4L-21.6 42.4L-17.6 42.4L-16.6 42.4L-16.7 42.9L-21.6 43.4" fill="rgb(101,111,101)" fill-opacity="1"></path><path d="M-2.6,35.4L-1.6 35.4L-1.7 35.9L-6.6 36.4L-6.6 35.4L-2.6 35.4" fill="rgb(48,47,34)" fill-opacity="1"></path><path d="M-6.6,36.4L-7.6 36.4L-10.6 36.4L-10.6 35.4L-7.6 35.4L-6.6 35.4L-6.6 36.4" fill="rgb(87,83,56)" fill-opacity="1"></path><path d="M-14.6,36.4L-11.6 36.4L-10.6 36.4L-10.7 36.95L-14.6 37.4L-14.6 36.4" fill="rgb(27,28,26)" fill-opacity="1"></path><path d="M-14.6,36.4L-14.6 37.4L-15.6 37.4L-18.6 37.4L-18.6 36.4L-15.6 36.4L-14.6 36.4" fill="rgb(69,64,43)" fill-opacity="1"></path><path d="M-11.6,41.4L-11.6 40.4L-8.6 40.4L-7.6 40.4L-7.7 40.95L-11.6 41.4" fill="rgb(19,59,19)" fill-opacity="1"></path><path d="M-4.6,40.4L-4.6 39.4L-1.6 39.4L-0.6 39.4L-0.7 39.95L-4.6 40.4M21.4,63.4L36.4 63.4L37.4 63.4L37.35 63.9L21.4 63.4" fill="rgb(140,141,140)" fill-opacity="1"></path><path d="M-60.6,25.4L-60.6 21.4L-59.6 21.4L-59.5 22.4Q-58.9 25.6 -60.6 26.4L-60.6 25.4" fill="rgb(77,72,38)" fill-opacity="1"></path><path d="M-83.6,12.4L-80.6 12.4L-79.6 12.4Q-79.6 12.9 -79.75 12.95Q-82.8 14.1 -83.6 12.4" fill="rgb(221,222,221)" fill-opacity="1"></path><path d="M-61.6,35.4Q-59.9 35.7 -60.5 38.4L-60.6 39.4L-61.15 39.3L-61.6 35.4" fill="rgb(137,138,137)" fill-opacity="1"></path><path d="M-58.6,28.4L-58.6 27.4L-58.6 22.4Q-56.9 23.7 -57.5 27.4L-57.6 28.4L-58.6 28.4" fill="rgb(91,91,85)" fill-opacity="1"></path><path d="M-57.6,32.4L-57.6 33.4L-58.1 33.3Q-58.6 30.9 -58.6 28.4L-57.6 28.4L-57.6 32.4" fill="rgb(58,55,33)" fill-opacity="1"></path><path d="M-60.6,42.4Q-58.9 42.7 -59.5 45.4L-59.6 46.4L-60.15 46.3L-60.6 42.4" fill="rgb(79,81,79)" fill-opacity="1"></path><path d="M-54.5,51.4L-54.6 52.4L-55.1 52.3Q-55.6 49.9 -55.6 47.4Q-53.9 48.2 -54.5 51.4" fill="rgb(57,55,30)" fill-opacity="1"></path><path d="M-42.6,63.4L-37.6 63.4L-36.6 63.4Q-36.6 63.9 -36.75 63.95Q-40.85 65.1 -42.6 63.4" fill="rgb(105,107,105)" fill-opacity="1"></path><path d="M-91.6,2.4Q-89.9 2.7 -90.5 5.4L-90.6 6.4L-91.15 6.25L-91.6 3.4L-91.6 2.4" fill="rgb(68,65,47)" fill-opacity="1"></path><path d="M-89.6,13.4L-89.6 12.4L-85.6 12.4L-84.6 12.4L-84.6 13.4L-85.6 13.4L-89.6 13.4" fill="rgb(55,119,55)" fill-opacity="1"></path><path d="M100.4,1.4L100.25 1.95Q96.7 3.1 95.4 1.4L99.4 1.4L100.4 1.4" fill="rgb(67,64,34)" fill-opacity="1"></path><path d="M92.4,19.4L93.4 19.4L93.3 19.9L88.4 20.4L88.4 19.4L92.4 19.4" fill="rgb(56,54,29)" fill-opacity="1"></path><path d="M87.4,25.4L87.4 24.4L90.4 24.4L91.4 24.4L91.3 24.95L87.4 25.4" fill="rgb(53,118,53)" fill-opacity="1"></path><path d="M62.4,19.4L61.4 19.5Q58.7 20.1 58.4 18.4L62.3 18.85L62.4 19.4" fill="rgb(68,64,34)" fill-opacity="1"></path><path d="M63.4,23.4L67.3 23.85L67.4 24.4L66.4 24.5Q63.7 25.1 63.4 23.4" fill="rgb(54,109,54)" fill-opacity="1"></path><path d="M76.4,20.4L76.25 20.95Q72.15 22.1 70.4 20.4L75.4 20.4L76.4 20.4" fill="rgb(32,32,17)" fill-opacity="1"></path><path d="M47.4,6.4L52.4 6.4L53.4 6.4L53.25 6.95Q49.15 8.1 47.4 6.4" fill="rgb(91,86,46)" fill-opacity="1"></path><path d="M53.4,3.4L53.3 3.95Q48.65 5.15 46.4 3.4L52.4 3.4L53.4 3.4" fill="rgb(95,98,95)" fill-opacity="1"></path><path d="M41.4,14.4L40.4 14.45Q37.5 14.85 38.4 11.4Q39.2 13.15 41.25 13.85L41.4 14.4" fill="rgb(52,49,26)" fill-opacity="1"></path><path d="M69.4,24.4L76.35 24.9L76.4 25.4L75.4 25.45Q71.15 26.1 69.4 24.4" fill="rgb(52,116,52)" fill-opacity="1"></path><path d="M35.4,0.4L36.15 0.65L36.4 1.4L36.5 2.4Q37.1 5.6 35.4 6.4L35.4 5.4L35.4 0.4" fill="rgb(127,117,81)" fill-opacity="1"></path><path d="M31.4,14.4L31.5 15.4Q32.1 18.1 30.4 18.4L30.4 17.4L30.4 14.4L31.4 14.4" fill="rgb(84,78,77)" fill-opacity="1"></path><path d="M35.4,25.4L35.4 24.4L35.4 20.4L36.4 20.4L36.5 21.4Q37.1 24.6 35.4 25.4" fill="rgb(88,82,44)" fill-opacity="1"></path><path d="M14.4,2.4Q16.1 2.7 15.5 5.4L15.4 6.4L14.65 6.15L14.4 5.4L14.4 4.4L14.4 2.4" fill="rgb(96,89,89)" fill-opacity="1"></path><path d="M24.15,29.2Q22 32 18.4 33.4L17.4 33.4L13.4 33.4L13.5 32.4Q14.1 29.7 12.4 29.4L11.4 29.4Q-3.3 29.6 -3.6 15.4Q-1.4 6.1 6.5 2.6L7.4 2.4Q9.8 21 24.2 27.8Q24.4 27.9 24.4 28.4L24.15 29.2" fill="rgb(166,153,152)" fill-opacity="1"></path><path d="M13.4,34.4L12.4 34.4L12.4 33.4L12.4 29.4Q14.1 29.7 13.5 32.4L13.4 33.4L13.4 34.4" fill="rgb(141,132,106)" fill-opacity="1"></path><path d="M12.4,38.4L12.4 37.4L12.4 34.4L13.4 34.4L13.4 37.4L13.4 38.4L12.4 38.4" fill="rgb(61,57,31)" fill-opacity="1"></path><path d="M13.4,34.4L13.4 33.4L17.4 33.4L18.4 33.4L18.3 33.9L13.4 34.4" fill="rgb(147,142,134)" fill-opacity="1"></path><path d="M9.4,34.4L9.3 34.9L4.4 35.4L4.4 34.4L8.4 34.4L9.4 34.4" fill="rgb(75,70,38)" fill-opacity="1"></path><path d="M3.4,39.4L3.4 38.4L6.4 38.4L7.4 38.4L7.4 39.4L6.4 39.4L3.4 39.4" fill="rgb(50,52,50)" fill-opacity="1"></path><path d="M7.4,39.4L7.4 38.4L11.4 38.4L12.4 38.4L12.4 39.4L11.4 39.4L7.4 39.4" fill="rgb(94,95,94)" fill-opacity="1"></path><path d="M12.9,45.3Q12.4 42.4 12.4 39.4L12.4 38.4L13.4 38.4L13.4 44.4L13.4 45.4L12.9 45.3" fill="rgb(101,101,95)" fill-opacity="1"></path><path d="M28.4,29.4L31.4 29.4L32.4 29.4L32.25 29.95Q29.2 31.1 28.4 29.4" fill="rgb(62,59,32)" fill-opacity="1"></path><path d="M37.4,57.4L40.4 57.4L41.4 57.4L41.3 57.95L37.4 58.4L37.4 57.4" fill="rgb(29,29,15)" fill-opacity="1"></path><path d="M36.4,57.4L37.4 57.4L37.4 58.4L36.4 58.45Q29.15 59.15 24.4 57.4L36.4 57.4" fill="rgb(84,78,42)" fill-opacity="1"></path><path d="M46.4,53.4L46.4 52.4L46.4 51.4L46.9 51.4L46.6 52.6L46.55 53.45L46.4 53.4" fill="rgb(52,144,52)" fill-opacity="1"></path></g></g></g></g></svg>