<svg width="118" height="418" viewBox="-59 -209 118 418"><g><defs></defs></g><rect x="-59" y="-209" width="118" height="418" fill="#006600"></rect><g id="0"><defs></defs><g><g type="shape" id="0:1:64"><defs></defs><g transform="matrix(1,0,0,1,0,0)"><path d="M-28.8,153.8L-28.8 153.6Q-26 152.8 -23.35 153.9L-22.95 154L-19.2 158.4L-19.2 158.15Q-18 156.65 -15.95 155.9L-15.85 155.65L-14.65 155.5L-14.6 155.25Q-13 154.55 -10.85 154.45L-10.45 154.4L-7.1 154.2L-7.1 154L-7.15 153.6L-7.5 153.15L-7.6 152.85Q-8.9 151.85 -10.85 151.5L-11.4 150.45Q-12.75 146.25 -14.2 142.7L-14.2 142.3L-14.2 142L-14.2 141.9L-13.75 141.9Q-8.75 142.3 -6.85 137.65L-3.3 128.95Q0.45 131.85 0.25 138.95L0.45 138.95Q3.55 136.6 5.65 133.05Q7.55 129.75 10.45 127.25Q9.75 113.35 18.8 112.2L18.8 113.05L18.4 113.05L18.6 117.65L18.8 117.65Q19.1 121.55 20.8 124L20.9 124.35Q24.3 125.1 26.8 126.75L27.2 126.85Q30.6 121.95 31.95 114.75L32.2 114.7Q35.15 116.8 35.9 121L35.95 121.4L35.95 129.75L35.95 130.2L35.9 130.6Q35 135.3 32.2 138.1Q33.05 142.35 36.85 139Q37.75 138.25 39.7 138.55Q42.55 139.35 43.7 142L44.1 143.1L44.3 143.15Q44.55 146.95 43.95 149.85L43.9 150.25L41.25 153.5L40.95 153.6Q38.6 151.15 35.1 149.9L34.7 149.8Q31.7 154.05 34.45 160L37.8 167.35L39.65 171.4Q40.45 173.1 40.55 175.7L40.75 179.05L40.95 179.05L40.95 179.9L40.95 180.3L41.15 186.15L41.4 186.15L41.4 187L41.4 187.4L41.4 195.8L41.4 196.2L41.35 196.6Q40.7 202.45 38.9 207.05L39.3 207.05L57.7 207.05L57.7 169.05L57.7 167.35L57.7 142L57.7 93.85L57.7 18.6L57.7 -56.6L57.7 -131.8L57.7 -207L27.6 -207L-47.6 -207L-47.6 -131.8L-47.6 -56.6L-47.6 18.6Q-47.6 56.2 -47.75 93.85Q-47.9 118.2 -47.5 142L-47 167.35L-47 167.6L-46.8 167.35Q-42.7 165.4 -43 159L-43 158.6Q-40.35 152.9 -34.2 150.7L-33.85 150.65Q-31.85 153.8 -28.8 153.8M59.75,-209.1L59.75 -133.9L59.75 -58.7L59.75 16.55L59.75 91.75L59.75 142L59.75 166.95L59.75 167.35L59.75 209.15L-15.45 209.15L-49.3 209.15L-49.3 208.75Q-50 202.15 -49.7 194.55L-50.05 194.45Q-58.7 188.45 -59.75 174.9L-59.75 174.45Q-56.8 169.25 -49.75 168L-49.7 167.8L-49.7 167.35L-49.7 142L-49.7 92.55L-49.7 17.35L-49.7 -57.85L-49.7 -133.05L-49.5 -208.25L-49.3 -209.1L25.9 -209.1L59.75 -209.1M-3.15,132.75Q-4.4 138.2 -7.25 142Q-9.3 144.65 -12.1 146.45L-12 146.85Q-11.1 148.8 -9.6 150.25L-8.95 150.15Q-8.3 145.05 -5.8 142Q-4.3 140.1 -2.05 138.95L-2.1 138.55Q-2.25 135.35 -2.9 132.7L-3.15 132.75M-5.85,147.3L-5.65 151.05L-5.4 151.05L-5.25 152.25L-5 152.3Q-1.7 155.9 4.2 156.75Q5.5 156.95 5.05 155.25Q7.2 154.5 7.9 157.35L7.95 157.75Q10.05 159.85 13.35 160.85L13.4 161.1L17.15 161.1L17.55 161.1Q21.35 158.6 22.95 153.95L23 153.6L23.2 153.55Q23.75 151.4 23 150.25L23 149.8Q22.5 144.5 17.55 143.55L17.55 143.35L13.8 143.15L13.8 143.55L13.4 143.65Q10.15 145.15 8.35 148.15L8.35 148.55L8 148.65Q5.95 149.3 5.85 146.05L5.8 145.65Q4.85 143.05 2.4 142L0.45 141.45L0.05 141.5L-1.35 142Q-3.75 143.05 -5 145.2L-5 146.45L-5 146.9L-5.4 146.9L-5.4 147.3L-5.85 147.3M-39.3,166.3L-39.25 166.55L-34.75 166.35L-34.65 166.1L-33.9 165.95L-33.85 165.7Q-33.05 166.4 -32.45 167.35L-32 168.1L-31.75 168.2Q-31.4 169.35 -30.1 169.65L-30.05 169.85Q-28.8 171.1 -25.95 170.5L-25.9 170.3Q-23.65 169.55 -22.75 167.35L-22.35 165.75L-22.15 165.7L-21.9 165.65Q-21.4 161.85 -22.15 159L-22.4 158.9Q-25.85 153.6 -30.9 158.15Q-30.85 158.85 -31.1 158.3Q-32.25 155.55 -34.25 154L-34.65 154.05Q-40.15 155 -41.35 160.25L-41.75 160.25L-41.55 164.4L-41.35 164.45Q-40.8 165.8 -39.3 166.3M-50.95,171.15Q-55.05 171.65 -56.8 174.45L-56.8 174.9L-57.25 174.9Q-57.35 179 -56.2 181.9L-55.95 182Q-51.7 191.3 -43.4 196.5L-43 196.6Q-41.95 197.65 -39.65 197.45L-39.25 197.45L-38 197.45L-37.6 197.45Q-35.95 198.5 -33 198.3L-32.55 198.3L-24.65 198.5L-24.65 198.3Q-22.3 198.35 -20.85 197.55L-20.45 197.45Q-15.95 191.3 -12.35 184.15L-12.1 184.1Q-12.25 193.1 -17.65 199L-17.95 199.1Q-18.1 201.35 -17.6 202.9L-17.55 203.3Q-18.05 208.8 -11.15 207.7Q-9.3 207.35 -8.9 206.4Q-8.25 204.9 -8.75 203.7L-8.75 203.3Q-8.45 201.1 -9.15 199.95L-9.3 199.65Q-9.9 199 -9.6 197.45L-9.6 197.05Q-9.55 187.9 -6.25 182Q-14.85 176.8 -19.05 167.35L-19.1 167.3Q-19.4 166.55 -19.8 166.7L-20.85 167.35L-22.95 169.45L-22.95 169.85L-23.05 170.25Q-23.7 171.65 -25.45 171.95L-25.85 172L-30.9 172.4L-30.7 173.55L-30.5 173.65Q-30.45 175.7 -29.5 176.85L-29.25 177L-29.25 177.6L-35.1 172.4L-35.5 172.3Q-37.8 171.55 -40.5 171.15L-40.55 170.9L-43 170.7L-43.05 170.5L-48.05 170.3L-48.05 170.7L-48.45 170.7L-50.55 170.7L-50.55 171.15L-50.95 171.15M-47.6,196.6L-47.6 207.05L-47.2 207.05L-22.15 207.05L-21.8 206.95Q-20.3 205.55 -20.85 202.05L-20.9 201.4Q-37.55 202.7 -47.6 196.2L-47.6 196.6M-17.95,161.1L-17.75 164.4L-17.55 164.45L-16.3 167.35Q-9.25 181.85 8.8 185.3L9.2 185.35L9.65 185.35Q10.6 186.05 12.55 185.8L12.95 185.75L13.8 185.75L14.2 185.75L17.55 185.55L17.55 185.35Q24.4 183.4 27 177.1Q27.7 175.45 27.6 177.4L27.55 177.8Q26 181.85 23.4 184.9L23.4 185.35L20.3 186.25Q7.15 189.6 -3.3 183.65L-3.4 184Q-5.5 187.35 -6.65 191.6L-6.65 192.85L-6.65 193.25L-6.75 193.65L-7.1 194.1L-7.1 194.55L-7.5 194.55L-7.3 199.1L-7.1 199.1L-6.3 202.05L-6.25 202.45Q-7.5 208.5 -1.15 207.75L9.65 207.05L20.05 207.05L36.35 207.05L36.8 207.05Q38.45 201.85 38.85 195.35L38.9 194.95L39.1 194.9Q39.6 191.7 38.9 189.5L38.9 189.1L38.9 188.7L38.9 188.25Q39.2 185 38.45 182.85L38.45 182.4Q37.9 176.5 36.35 171.55L36.3 171.15L34.65 167.35Q33 163.35 31.75 159L31.65 158.7Q31.05 158.25 31.35 156.9L31.35 156.5L31.35 153.6L31.35 153.15L31.35 150.65L31.7 150.2L31.75 149.8L32 149.75Q32.95 147.65 35.1 146.9L35.5 146.95Q39.1 148.55 40.95 149.8L41.2 149.75Q43.45 145.05 41.05 142L40.15 141.05L39.7 141.1L36.15 142L31.35 143.55Q31.1 142.55 30.45 142L30.25 141.85Q25.7 138.55 23.85 132.7L23.9 132.3Q25.1 129.9 24.65 127.65Q23.25 126.8 20.95 127.05Q8.45 128.6 3.8 138.1Q5.1 140.25 6.85 142L8.45 143.45L8.8 143.55Q10.2 142.55 11.65 142Q15.3 140.65 19.6 142L21.35 142.65L21.75 142.7Q24.65 145.05 24.9 150.2L25.1 150.25L25.1 150.65L25.1 153.6L25.1 154L25.05 154.4Q24.85 156.05 23.85 156.9L23.85 157.35L23.6 157.4Q21.85 160.8 18.8 162.75L18.4 162.8L14.2 163.2Q10.15 163.05 7.75 161.25Q-1.45 154.25 -15 157.35L-15.15 157.65Q-16.5 158.8 -17.55 160.25L-17.55 160.7L-17.55 161.1L-17.95 161.1M34.1,126.4Q34.6 123.6 33.85 121.8L33.55 120.95L33.45 120.35Q31.3 126.8 26.75 131.45Q26.45 137.15 30.05 136.65L30.1 136.45Q32.9 132.55 33.85 126.85L33.85 126.4L34.1 126.4M15.65,116.05Q13.8 119.9 12.95 124.75Q13.8 126.3 15.85 125.05L16.35 124.65Q16.8 121.1 15.9 115.95L15.65 116.05" fill="rgb(18,23,14)" fill-opacity="1"></path><path d="M33.85,126L33.85 126.4L33.85 126.85Q32.9 132.55 30.1 136.45L30.05 136.65Q26.45 137.15 26.75 131.45Q31.3 126.8 33.45 120.35L33.55 120.95L33.85 121.8L33.85 126" fill="rgb(122,111,100)" fill-opacity="1"></path><path d="M18.8,117.65L18.6 117.65L18.4 113.05L18.8 113.05L18.8 117.25L18.8 117.65" fill="rgb(68,69,72)" fill-opacity="1"></path><path d="M15.9,115.95Q16.8 121.1 16.35 124.65L15.85 125.05Q13.8 126.3 12.95 124.75Q13.8 119.9 15.65 116.05L15.9 115.95" fill="rgb(115,104,94)" fill-opacity="1"></path><path d="M31.65,149.5Q28.75 146.3 25.1 149L25.1 149.8L25.1 150.25L24.9 150.2Q24.65 145.05 21.75 142.7L21.35 142.65L19.6 142Q15.3 140.65 11.65 142Q10.2 142.55 8.8 143.55L8.45 143.45L6.85 142Q5.1 140.25 3.8 138.1Q8.45 128.6 20.95 127.05Q23.25 126.8 24.65 127.65Q25.1 129.9 23.9 132.3L23.85 132.7Q25.7 138.55 30.25 141.85L30.45 142Q31.1 142.55 31.35 143.55L36.15 142L39.7 141.1L40.15 141.05L41.05 142Q43.45 145.05 41.2 149.75L40.95 149.8Q39.1 148.55 35.5 146.95L35.1 146.9Q32.95 147.65 32 149.75L31.75 149.8L31.65 149.5" fill="rgb(79,86,79)" fill-opacity="1"></path><path d="M8.35,148.55L8.35 148.15Q10.15 145.15 13.4 143.65L13.8 143.55L17.15 143.55L17.55 143.55Q22.5 144.5 23 149.8L23 150.25L23 153.15L23 153.6L22.95 153.95Q21.35 158.6 17.55 161.1L17.15 161.1L13.4 161.1L13.35 160.85Q10.05 159.85 7.95 157.75L7.9 157.35Q7.2 154.5 5.05 155.25Q5.5 156.95 4.2 156.75Q-1.7 155.9 -5 152.3L-5 151.9L-5 146.9L-5 146.45L-5 145.2Q-3.75 143.05 -1.35 142L0.05 141.5L0.45 141.45L2.4 142Q4.85 143.05 5.8 145.65L5.85 146.05Q5.2 150.5 8.3 148.8L8.35 148.55M-2.05,151.05Q-1.3 155 2.5 152.75Q2.95 152.1 2.85 151.6Q1.5 145.45 -2.05 150.65L-2.05 151.05M13.75,156.1Q14.15 149.45 9.65 154L9.6 154.4Q9.5 158.35 12.55 156.9Q13.7 157 13.75 156.1" fill="rgb(230,230,229)" fill-opacity="1"></path><path d="M17.15,143.55L13.8 143.55L13.8 143.15L17.55 143.35L17.55 143.55L17.15 143.55" fill="rgb(128,129,125)" fill-opacity="1"></path><path d="M33.85,121.8Q34.6 123.6 34.1 126.4L33.85 126.4L33.85 126L33.85 121.8" fill="rgb(68,64,54)" fill-opacity="1"></path><path d="M35.95,130.2L35.95 129.75L35.95 121.4Q36.7 125.25 36.15 130.15L35.95 130.2" fill="rgb(62,68,84)" fill-opacity="1"></path><path d="M25.3,153.95Q25.8 151.8 25.1 150.65L25.1 150.25L25.1 149.8L25.1 149Q28.75 146.3 31.65 149.5L31.75 149.8L31.7 150.2L31.35 150.65L31.35 153.15L31.35 153.6L30.95 153.6L31.15 156.9L31.35 156.9Q31.05 158.25 31.65 158.7L31.75 159Q31.8 159.65 31.5 159.8Q25.8 162.75 23.85 157.35L23.85 156.9Q24.85 156.05 25.05 154.4L25.1 154L25.3 153.95" fill="rgb(187,180,177)" fill-opacity="1"></path><path d="M31.35,153.6L31.35 156.5L31.35 156.9L31.15 156.9L30.95 153.6L31.35 153.6" fill="rgb(126,123,118)" fill-opacity="1"></path><path d="M12.95,185.55L9.65 185.35L9.2 185.35L9.2 184.9Q17.65 179.55 16 167.35L15.8 166.05Q15.45 164.05 14.2 163.2L18.4 162.8L18.8 162.75Q21.85 160.8 23.6 157.4L23.85 157.35Q25.8 162.75 31.5 159.8Q31.8 159.65 31.75 159Q33 163.35 34.65 167.35L36.3 171.15L36.35 171.55L35.95 171.55Q29.75 172.45 27.6 177.4Q27.7 175.45 27 177.1Q24.4 183.4 17.55 185.35L17.15 185.35L14.2 185.35L14.2 185.75L13.8 185.75L12.95 185.75L12.95 185.55" fill="rgb(81,88,81)" fill-opacity="1"></path><path d="M23,153.15L23 150.25Q23.75 151.4 23.2 153.55L23 153.6L23 153.15" fill="rgb(99,102,107)" fill-opacity="1"></path><path d="M25.1,154L25.1 153.6L25.1 150.65Q25.8 151.8 25.3 153.95L25.1 154" fill="rgb(122,118,113)" fill-opacity="1"></path><path d="M20.05,206.65L20.05 201.65Q20.8 200.7 20.5 198.7L20.5 198.3L20.5 197.85L20.5 195.8L23.35 185.75L23.4 185.35L23.4 184.9Q26 181.85 27.55 177.8L27.6 177.4Q29.75 172.45 35.95 171.55L36.35 171.55Q37.9 176.5 38.45 182.4L38.45 182.85L38.65 188.65L38.9 188.7L38.9 189.1L38.9 189.5L38.9 194.55L38.9 194.95L38.85 195.35Q38.45 201.85 36.8 207.05L36.35 207.05L20.05 207.05L20.05 206.65" fill="rgb(189,182,179)" fill-opacity="1"></path><path d="M12.55,156.9Q9.5 158.35 9.6 154.4L9.65 154Q14.15 149.45 13.75 156.1Q13.7 157 12.55 156.9" fill="rgb(28,30,22)" fill-opacity="1"></path><path d="M-2.05,150.65Q1.5 145.45 2.85 151.6Q2.95 152.1 2.5 152.75Q-1.3 155 -2.05 151.05L-2.05 150.65" fill="rgb(27,29,21)" fill-opacity="1"></path><path d="M8.3,148.8Q5.2 150.5 5.85 146.05Q5.95 149.3 8 148.65L8.35 148.55L8.3 148.8" fill="rgb(97,99,93)" fill-opacity="1"></path><path d="M-4.1,159.75Q-8.7 157.05 -12.1 160.7L-12.1 161.1L-12.1 165.7L-11.85 165.75L-11.3 167.35Q-9.5 172.1 -6.65 175.7L-6.3 175.8L-2.5 176.15L-2.3 175.15Q-1.2 171.1 -1.55 167.35Q-1.9 163.45 -3.75 159.85L-4.1 159.75M15.8,166.05L16 167.35Q17.65 179.55 9.2 184.9L9.2 185.35L8.8 185.3Q-9.25 181.85 -16.3 167.35L-17.55 164.45L-17.55 164L-17.55 161.1L-17.55 160.7L-17.55 160.25Q-16.5 158.8 -15.15 157.65L-15 157.35Q-1.45 154.25 7.75 161.25Q10.15 163.05 14.2 163.2Q15.45 164.05 15.8 166.05M0.85,163.2L1 167.35L1.05 168.2L1.25 168.2Q1.35 175.85 6.35 178.55L6.7 178.65Q8.85 177.25 9.2 174.05L9.2 173.65L9.45 173.6Q9.95 171.25 9.2 169.85L9.2 169.45L8.9 167.35Q8.4 165.3 7.55 163.6L7.25 163.5Q4.85 160.4 1.25 162.35L1.25 162.75L1.25 163.2L0.85 163.2" fill="rgb(159,123,122)" fill-opacity="1"></path><path d="M9.2,173.65L9.2 174.05Q8.85 177.25 6.7 178.65L6.35 178.55Q1.35 175.85 1.25 168.2L1.25 167.8L1.25 167.35L1.25 163.2L1.25 162.75L1.25 162.35Q4.85 160.4 7.25 163.5L7.55 163.6Q8.4 165.3 8.9 167.35L9.2 169.45L9.2 169.85L9.2 173.2L9.2 173.65" fill="rgb(19,20,12)" fill-opacity="1"></path><path d="M1.25,168.2L1.05 168.2L1 167.35L0.85 163.2L1.25 163.2L1.25 167.35L1.25 167.8L1.25 168.2" fill="rgb(59,50,44)" fill-opacity="1"></path><path d="M9.2,173.2L9.2 169.85Q9.95 171.25 9.45 173.6L9.2 173.65L9.2 173.2" fill="rgb(112,88,85)" fill-opacity="1"></path><path d="M14.2,185.35L17.15 185.35L17.55 185.35L17.55 185.55L14.2 185.75L14.2 185.35" fill="rgb(60,66,58)" fill-opacity="1"></path><path d="M20.05,207.05L9.65 207.05L-1.15 207.75Q-7.5 208.5 -6.25 202.45L-5.85 202.5Q-1.95 203.45 2.1 202.45L2.2 202.2Q5.25 200.4 6.7 197.05L6.7 196.6Q6.85 193.55 6.3 191.2L6.05 191.1Q4.8 188.05 1.7 187L1.25 187Q-5.3 187.5 -6.65 193.25L-6.65 192.85L-6.65 191.6Q-5.5 187.35 -3.4 184L-3.3 183.65Q7.15 189.6 20.3 186.25L23.4 185.35L23.35 185.75L20.5 195.8L20.5 197.85L20.5 198.3L20.05 198.3L20.05 201.2L20.05 201.65L20.05 206.65L20.05 207.05M-4.4,205.55Q0.1 204 -5 204.15Q-5.3 205.9 -4.4 205.55" fill="rgb(82,88,81)" fill-opacity="1"></path><path d="M-6.25,202.45L-6.3 202.05L-7.1 199.1L-7.1 198.7L-7.1 194.55L-7.1 194.1L-6.75 193.65L-6.65 193.25Q-5.3 187.5 1.25 187L1.7 187Q4.8 188.05 6.05 191.1L6.3 191.2Q6.85 193.55 6.7 196.6L6.7 197.05Q5.25 200.4 2.2 202.2L2.1 202.45Q-1.95 203.45 -5.85 202.5L-6.25 202.45" fill="rgb(188,181,178)" fill-opacity="1"></path><path d="M12.95,185.75L12.55 185.8Q10.6 186.05 9.65 185.35L12.95 185.55L12.95 185.75" fill="rgb(63,69,62)" fill-opacity="1"></path><path d="M38.65,188.65L38.45 182.85Q39.2 185 38.9 188.25L38.9 188.7L38.65 188.65" fill="rgb(100,99,93)" fill-opacity="1"></path><path d="M38.9,194.55L38.9 189.5Q39.6 191.7 39.1 194.9L38.9 194.95L38.9 194.55" fill="rgb(72,74,65)" fill-opacity="1"></path><path d="M40.95,179.05L40.75 179.05L40.55 175.7Q41.25 176.65 41 178.65L40.95 179.05" fill="rgb(63,70,87)" fill-opacity="1"></path><path d="M41.4,186.15L41.15 186.15L40.95 180.3Q41.7 182.5 41.4 185.75L41.4 186.15" fill="rgb(57,65,78)" fill-opacity="1"></path><path d="M41.4,196.2L41.4 195.8L41.4 187.4Q42.1 191.3 41.6 196.15L41.4 196.2" fill="rgb(76,86,109)" fill-opacity="1"></path><path d="M20.05,201.2L20.05 198.3L20.5 198.3L20.5 198.7Q20.8 200.7 20.05 201.65L20.05 201.2" fill="rgb(133,133,128)" fill-opacity="1"></path><path d="M-24.2,140.2L-23.8 140.2L-23.7 140.6Q-23.3 141.35 -25.05 141.9L-25.05 142L-25.05 142.3L-25.4 142.4L-32.15 148.55L-32.15 149L-32.4 149.05Q-32.75 150.65 -33.4 149.8Q-33.4 148.95 -33.8 148.7Q-37.2 146.25 -38.7 142Q-39.4 140.05 -39.7 137.7Q-31.6 137.15 -27.5 140.5L-27.15 140.6Q-26.45 128.15 -18.3 123.15L-17.95 123.1Q-15.5 125.55 -16.15 132.3Q-16.75 138.8 -13.75 141.9L-14.2 141.9L-14.2 142L-14.2 142.3L-14.55 142.2L-14.9 142L-15 141.9L-15.1 141.65L-20.05 139.8Q-18.7 135.95 -18.4 131L-18.35 130.6L-18.15 130.55Q-17.65 128.2 -18.35 126.85L-18.35 126L-18.35 125.35Q-22 127.4 -23.8 131.85L-23.8 133.1L-23.8 133.5L-24.2 133.5L-24.2 135.2L-24.2 135.6L-24.65 135.6L-24.65 138.55L-24.65 138.95Q-24.9 140.05 -24.2 140.2M-29.4,143.85Q-28.7 142.75 -28.75 142Q-28.85 141.05 -30.05 140.6L-30.15 140.35Q-31.2 139.45 -32.55 138.95L-33 138.95L-33 138.75L-38.4 138.55L-38.4 138.95L-38.25 140.55L-38 140.6Q-38.3 141.65 -37.75 142L-37.65 142.05L-37.6 142.3Q-37.15 143.75 -35.9 144.3L-35.5 144.4L-35.1 144.4L-35.1 144.8L-30.5 145L-30.5 144.8L-30.15 144.7L-30.05 144.4L-29.75 144.3L-29.65 143.95L-29.4 143.85" fill="rgb(25,29,24)" fill-opacity="1"></path><path d="M-24.65,138.95L-24.65 138.55L-24.65 135.6L-24.2 135.6L-24.2 138.55L-24.2 138.95L-24.65 138.95" fill="rgb(74,73,61)" fill-opacity="1"></path><path d="M-24.2,138.55L-24.2 135.6L-24.2 135.2L-24.2 133.5L-23.8 133.5L-23.8 133.95Q-23.5 136.95 -24.2 138.95L-24.2 138.55" fill="rgb(104,96,86)" fill-opacity="1"></path><path d="M-18.35,130.6L-18.4 131Q-18.7 135.95 -20.05 139.8L-20.45 139.8L-20.85 139.85Q-23.5 140.35 -24.2 138.95Q-23.5 136.95 -23.8 133.95L-23.8 133.5L-23.8 133.1L-23.8 131.85Q-22 127.4 -18.35 125.35L-18.35 126L-18.35 126.85L-18.35 130.2L-18.35 130.6" fill="rgb(123,111,102)" fill-opacity="1"></path><path d="M-33,138.95L-33.4 138.95L-38.4 138.95L-38.4 138.55L-33 138.75L-33 138.95" fill="rgb(82,73,79)" fill-opacity="1"></path><path d="M-38.25,140.55L-38.4 138.95L-33.4 138.95L-33 138.95L-32.55 138.95L-32.55 139.35L-33 139.35L-38 139.35L-38 140.2L-38 140.6L-38.25 140.55" fill="rgb(144,134,137)" fill-opacity="1"></path><path d="M-30.45,140.55L-30.05 140.6Q-29.35 141.25 -29.25 142Q-29.15 142.75 -29.55 143.6L-29.65 143.95L-29.75 144.3L-30.05 144.4L-30.5 144.4L-35.1 144.4L-35.5 144.4L-35.6 144.05Q-36.4 143 -37.6 142.3L-37.65 142.05L-37.75 142Q-38.3 141.65 -38 140.6L-38 140.2L-38 139.35L-33 139.35L-32.55 139.35L-30.45 140.55" fill="rgb(188,180,178)" fill-opacity="1"></path><path d="M-30.05,140.6L-30.45 140.55L-32.55 139.35L-32.55 138.95Q-31.2 139.45 -30.15 140.35L-30.05 140.6" fill="rgb(106,97,100)" fill-opacity="1"></path><path d="M-37.6,142.3Q-36.4 143 -35.6 144.05L-35.5 144.4L-35.9 144.3Q-37.15 143.75 -37.6 142.3" fill="rgb(108,102,103)" fill-opacity="1"></path><path d="M-35.1,144.4L-30.5 144.4L-30.05 144.4L-30.15 144.7L-30.5 144.8L-30.9 144.8L-35.1 144.8L-35.1 144.4" fill="rgb(161,155,153)" fill-opacity="1"></path><path d="M-35.1,144.8L-30.9 144.8L-30.5 144.8L-30.5 145L-35.1 144.8" fill="rgb(86,83,81)" fill-opacity="1"></path><path d="M-20.55,140.05L-23.8 140.2L-24.2 140.2Q-24.9 140.05 -24.65 138.95L-24.2 138.95Q-23.5 140.35 -20.85 139.85L-20.45 139.8L-20.55 140.05" fill="rgb(106,99,73)" fill-opacity="1"></path><path d="M-19.3,157.8L-20.45 154.85Q-22.15 153.4 -24.35 153.05L-31.3 151.9Q-31.25 153.7 -29.25 153.6L-28.8 153.6L-28.8 153.8Q-31.85 153.8 -33.85 150.65L-33.85 150.25L-33.85 149.8L-33.4 149.8Q-32.75 150.65 -32.4 149.05L-32.15 149L-32.05 149.25Q-31.35 149.8 -32.55 150.25Q-31.6 151.95 -29.8 148.5L-29 147.55Q-25.65 144.45 -24.25 142.3L-25.05 142.3L-25.05 142L-25.05 141.9Q-23.3 141.35 -23.7 140.6L-23.8 140.2L-20.55 140.05L-20.45 139.8L-20.05 139.8L-15.1 141.65L-15 141.9L-15.4 141.8Q-16.5 141.25 -18.35 141.45Q-17.45 141.65 -16.7 142Q-13.25 143.75 -14 149.8L-13.75 149.8Q-13.45 146.95 -14.15 143.1L-14.2 142.7Q-12.75 146.25 -11.4 150.45L-10.85 151.5L-11.25 151.5L-12.1 151.5L-12.1 151.9L-12.5 151.9Q-13.35 151.9 -13.75 152.3L-13.75 152.75L-14 152.8Q-14.3 153.45 -15 153.6L-15 154L-15.4 154.1L-16.3 154.85L-16.1 155.6L-15.85 155.65L-15.95 155.9Q-18 156.65 -19.2 158.15L-19.3 157.8" fill="rgb(107,102,56)" fill-opacity="1"></path><path d="M-32.15,148.55L-25.4 142.4L-25.05 142.3L-24.25 142.3Q-25.65 144.45 -29 147.55L-29.8 148.5Q-31.6 151.95 -32.55 150.25Q-31.35 149.8 -32.05 149.25L-32.15 149L-32.15 148.55" fill="rgb(109,104,57)" fill-opacity="1"></path><path d="M-29.65,143.95L-29.55 143.6Q-29.15 142.75 -29.25 142Q-29.35 141.25 -30.05 140.6Q-28.85 141.05 -28.75 142Q-28.7 142.75 -29.4 143.85L-29.65 143.95" fill="rgb(139,133,131)" fill-opacity="1"></path><path d="M-2.9,132.7Q-2.25 135.35 -2.1 138.55L-2.05 138.95Q-4.3 140.1 -5.8 142Q-8.3 145.05 -8.95 150.15L-9.6 150.25Q-11.1 148.8 -12 146.85L-12.1 146.45Q-9.3 144.65 -7.25 142Q-4.4 138.2 -3.15 132.75L-2.9 132.7" fill="rgb(121,109,100)" fill-opacity="1"></path><path d="M-18.35,130.2L-18.35 126.85Q-17.65 128.2 -18.15 130.55L-18.35 130.6L-18.35 130.2" fill="rgb(70,64,58)" fill-opacity="1"></path><path d="M-15,141.9L-14.9 142L-14.55 142.2L-14.2 142.3L-14.2 142.7L-14.15 143.1Q-13.45 146.95 -13.75 149.8L-14 149.8Q-13.25 143.75 -16.7 142Q-17.45 141.65 -18.35 141.45Q-16.5 141.25 -15.4 141.8L-15 141.9" fill="rgb(114,109,59)" fill-opacity="1"></path><path d="M-5,152.3L-5.25 152.25L-5.4 151.05L-5.4 150.65L-5.4 147.3L-5.4 146.9L-5 146.9L-5 151.9L-5 152.3" fill="rgb(198,198,196)" fill-opacity="1"></path><path d="M-5.4,151.05L-5.65 151.05L-5.85 147.3L-5.4 147.3L-5.4 150.65L-5.4 151.05" fill="rgb(85,86,80)" fill-opacity="1"></path><path d="M-41.35,164L-41.35 164.45L-41.55 164.4L-41.75 160.25L-41.35 160.25L-41.35 164" fill="rgb(136,137,132)" fill-opacity="1"></path><path d="M-52.25,181.6L-52.2 182Q-51.7 184.6 -50.4 186.5L-50.1 186.6Q-48.6 189.65 -45.5 191.1L-45.1 191.2Q-43.65 192.45 -43.1 190.75L-43 190.35L-42.8 190.3Q-42.3 186.5 -43 183.65L-43 183.25Q-42.7 181.9 -43.45 181.55L-43.45 181.15L-43.45 180.75Q-43.45 178.05 -44.7 176.55L-44.75 176.15Q-45.25 174.2 -47.2 173.65Q-47.2 173.4 -47.3 173.4L-48.05 173.2L-48.1 172.95L-48.85 172.8L-48.9 172.6L-52.2 172.4L-52.2 172.8L-52.65 172.8L-53.05 172.8L-53.45 172.8L-53.25 177.4L-53.05 177.4L-52.25 181.6M-28,187L-28.05 187.4L-28.4 187.85L-28.05 188.7L-28 189.1L-28.25 189.2Q-31.1 195.15 -37.6 197.45L-38 197.45L-39.25 197.45L-39.3 197.25L-43 196.6L-43.4 196.5Q-51.7 191.3 -55.95 182L-56 181.6L-56.8 174.9L-56.8 174.45Q-55.05 171.65 -50.95 171.15L-50.55 171.15L-40.95 171.15L-40.5 171.15Q-37.8 171.55 -35.5 172.3L-35.1 172.4L-29.25 177.6L-29.25 177Q-28.4 179.1 -28 181.6L-28 182L-28 186.6L-28 187M-33.1,191.05L-33 190.75L-32.75 190.7Q-31.4 183.95 -33 178.25L-33.2 178.2Q-33.7 175.2 -35.9 174.05L-35.95 173.85L-39.7 173.65L-39.7 174.05L-40.1 174.05Q-40.9 174.05 -41.35 174.45L-41.15 180.3L-40.95 180.3L-40.95 180.75L-40.95 181.15Q-40.95 183.65 -39.95 185.25L-39.7 185.35Q-38.5 188.75 -35.6 190.5L-35.5 190.75Q-34.55 192.35 -33.1 191.05" fill="rgb(162,125,124)" fill-opacity="1"></path><path d="M-48.85,172.8L-49.3 172.8L-52.2 172.8L-52.2 172.4L-48.9 172.6L-48.85 172.8" fill="rgb(120,92,92)" fill-opacity="1"></path><path d="M-52.65,172.8L-52.2 172.8L-49.3 172.8L-48.85 172.8L-48.1 172.95L-48.05 173.2L-48.45 173.2L-52.2 173.2L-52.65 173.2L-53.05 173.2L-53.05 172.8L-52.65 172.8" fill="rgb(52,41,40)" fill-opacity="1"></path><path d="M-52.2,182L-52.25 181.6L-53.05 177.4L-53.05 177L-53.05 173.2L-52.65 173.2L-52.2 173.2L-52.3 173.55L-52.65 173.65Q-52.6 177.95 -51.85 181.6L-51.8 182L-52.2 182" fill="rgb(37,29,28)" fill-opacity="1"></path><path d="M-53.05,177L-53.05 177.4L-53.25 177.4L-53.45 172.8L-53.05 172.8L-53.05 173.2L-53.05 177" fill="rgb(109,84,83)" fill-opacity="1"></path><path d="M-26.3,170.3L-30.05 169.85L-30.1 169.65Q-31.4 169.35 -31.75 168.2L-31.75 167.8L-31.75 167.35Q-32 165.5 -33.85 165.3L-33.85 165.7L-33.9 165.95L-34.65 166.1L-35.05 166.2L-39.25 166.55L-39.3 166.3Q-40.8 165.8 -41.35 164.45L-41.35 164L-41.35 160.25Q-40.15 155 -34.65 154.05L-34.25 154Q-32.25 155.55 -31.1 158.3Q-30.85 158.85 -30.9 158.15Q-25.85 153.6 -22.4 158.9L-22.15 159L-22.15 165.3L-22.15 165.7L-22.35 165.75L-22.75 167.35Q-23.65 169.55 -25.9 170.3L-26.3 170.3M-34.7,163.2Q-31.1 159.35 -36.75 160.25Q-37 162.65 -35.75 163.25L-34.7 163.2M-29.25,164.45Q-25.65 160.6 -31.3 161.5Q-31.6 163.9 -30.3 164.5L-29.25 164.45" fill="rgb(237,237,237)" fill-opacity="1"></path><path d="M-43,170.7L-40.55 170.9L-40.5 171.15L-40.95 171.15L-50.55 171.15L-50.55 170.7L-48.45 170.7L-48.05 170.7L-43.45 170.7L-43 170.7" fill="rgb(102,83,78)" fill-opacity="1"></path><path d="M-43.45,170.7L-48.05 170.7L-48.05 170.3L-43.05 170.5L-43 170.7L-43.45 170.7" fill="rgb(57,51,42)" fill-opacity="1"></path><path d="M-43.25,188.25Q-42.6 191.35 -45.1 191.2L-45.5 191.1Q-48.6 189.65 -50.1 186.6L-50.2 186.2L-51.8 182L-51.85 181.6Q-52.6 177.95 -52.65 173.65L-52.3 173.55L-52.2 173.2L-48.45 173.2L-48.05 173.2L-47.3 173.4Q-47.2 173.4 -47.2 173.65Q-46 174.9 -44.95 176.45L-44.7 176.55L-43.65 181.1L-43.45 181.15L-43.45 181.55L-43.25 185.75L-43 185.75L-43 187.85L-43 188.25L-43.25 188.25" fill="rgb(7,5,5)" fill-opacity="1"></path><path d="M-44.75,176.15L-44.7 176.55L-44.95 176.45Q-46 174.9 -47.2 173.65Q-45.25 174.2 -44.75 176.15M-50.1,186.6L-50.4 186.5Q-51.7 184.6 -52.2 182L-51.8 182L-50.2 186.2L-50.1 186.6" fill="rgb(81,63,62)" fill-opacity="1"></path><path d="M-41.15,180.3L-41.35 174.45Q-40.9 174.05 -40.1 174.05L-39.7 174.05L-39.75 174.25Q-40.5 174.45 -40.95 174.9L-40.95 179.9L-40.95 180.3L-41.15 180.3" fill="rgb(97,74,75)" fill-opacity="1"></path><path d="M-36.35,174.05L-35.9 174.05Q-33.7 175.2 -33.2 178.2L-33 178.25Q-32.15 184.25 -32.95 190.35L-33 190.75L-33.35 190.85L-35.5 190.75L-35.6 190.5Q-38.5 188.75 -39.7 185.35L-39.7 184.95Q-40.2 182.9 -40.95 181.15L-40.95 180.75L-40.95 180.3L-40.95 179.9L-40.95 174.9Q-40.5 174.45 -39.75 174.25L-39.7 174.05L-36.35 174.05" fill="rgb(9,6,6)" fill-opacity="1"></path><path d="M-43.65,181.1L-44.7 176.55Q-43.45 178.05 -43.45 180.75L-43.45 181.15L-43.65 181.1" fill="rgb(80,61,61)" fill-opacity="1"></path><path d="M-43,189.95L-43 188.25L-43 187.85L-43 185.75L-43 185.35L-43 183.65Q-42.3 186.5 -42.8 190.3L-43 190.35L-43 189.95" fill="rgb(100,77,77)" fill-opacity="1"></path><path d="M-43.25,185.75L-43.45 181.55Q-42.7 181.9 -43 183.25L-43 183.65L-43 185.35L-43 185.75L-43.25 185.75" fill="rgb(54,42,41)" fill-opacity="1"></path><path d="M-55.95,182L-56.2 181.9Q-57.35 179 -57.25 174.9L-56.8 174.9L-56 181.6L-55.95 182" fill="rgb(122,96,94)" fill-opacity="1"></path><path d="M-43,188.25L-43 189.95L-43 190.35L-43.1 190.75Q-43.65 192.45 -45.1 191.2Q-42.6 191.35 -43.25 188.25L-43 188.25" fill="rgb(51,39,39)" fill-opacity="1"></path><path d="M-15,155.25L-15 154.85Q-14.3 154.1 -13.85 153.1L-13.75 152.75L-13.75 152.3Q-13.35 151.9 -12.5 151.9L-12.1 151.9Q-9.45 151.95 -7.85 153.05L-7.5 153.15L-7.15 153.6L-7.1 154L-7.5 154L-10.45 154L-10.45 154.4L-10.85 154.45Q-13 154.55 -14.6 155.25L-15 155.25" fill="rgb(187,179,176)" fill-opacity="1"></path><path d="M-10.45,154L-7.5 154L-7.1 154L-7.1 154.2L-10.45 154.4L-10.45 154" fill="rgb(94,91,85)" fill-opacity="1"></path><path d="M-10.85,151.5Q-8.9 151.85 -7.6 152.85L-7.5 153.15L-7.85 153.05Q-9.45 151.95 -12.1 151.9L-12.1 151.5L-11.25 151.5L-10.85 151.5" fill="rgb(117,112,104)" fill-opacity="1"></path><path d="M-3.75,159.85Q-1.9 163.45 -1.55 167.35Q-1.2 171.1 -2.3 175.15L-2.5 176.15L-6.3 175.8L-6.65 175.7Q-9.5 172.1 -11.3 167.35L-11.85 165.75L-12.1 165.7L-12.1 161.1L-12.1 160.7Q-8.7 157.05 -4.1 159.75L-3.75 159.85" fill="rgb(19,21,13)" fill-opacity="1"></path><path d="M-15,153.6Q-14.3 153.45 -14 152.8L-13.75 152.75L-13.85 153.1Q-14.3 154.1 -15 154.85L-15 155.25L-15.25 155.15L-15.45 154.4L-15.15 154.3L-15 154L-15 153.6" fill="rgb(178,171,161)" fill-opacity="1"></path><path d="M-14.6,155.25L-14.65 155.5L-15.85 155.65L-16.1 155.6L-16.3 154.85L-15.4 154.1L-15 154L-15.15 154.3L-15.45 154.4L-15.25 155.15L-15 155.25L-14.6 155.25" fill="rgb(135,130,107)" fill-opacity="1"></path><path d="M-19.2,158.15L-19.2 158.4L-22.95 154L-23.35 153.9Q-26 152.8 -28.8 153.6L-29.25 153.6Q-31.25 153.7 -31.3 151.9L-24.35 153.05Q-22.15 153.4 -20.45 154.85L-19.3 157.8L-19.2 158.15" fill="rgb(106,101,55)" fill-opacity="1"></path><path d="M-17.55,164.45L-17.75 164.4L-17.95 161.1L-17.55 161.1L-17.55 164L-17.55 164.45" fill="rgb(76,62,57)" fill-opacity="1"></path><path d="M-25.05,198.3L-32.55 198.3L-33 198.3Q-35.95 198.5 -37.6 197.45Q-31.1 195.15 -28.25 189.2L-28 189.1L-27.55 189.1Q-26.75 190.4 -24.25 189.75L-24.2 189.5Q-20.5 187.2 -18.45 183.2L-18.35 182.85L-18.15 182.8Q-17.65 180 -18.35 178.25L-18.35 177.8Q-18.2 175.55 -19.2 174.45L-19.25 174.05Q-20 170.9 -22.95 169.85L-22.95 169.45L-20.85 167.35L-19.8 166.7Q-19.4 166.55 -19.1 167.3L-19.05 167.35Q-14.85 176.8 -6.25 182Q-9.55 187.9 -9.6 197.05L-9.6 197.45Q-10.3 197.5 -10.1 196.6L-10 196Q-15.85 197.25 -17.55 203.3L-17.6 202.9Q-18.1 201.35 -17.95 199.1L-17.65 199Q-12.25 193.1 -12.1 184.1L-12.35 184.15Q-15.95 191.3 -20.45 197.45L-20.85 197.55Q-22.3 198.35 -24.65 198.3L-25.05 198.3" fill="rgb(108,104,57)" fill-opacity="1"></path><path d="M-33.85,165.3Q-32 165.5 -31.75 167.35L-31.75 167.8L-31.75 168.2L-32 168.1L-32.45 167.35Q-33.05 166.4 -33.85 165.7L-33.85 165.3" fill="rgb(122,123,118)" fill-opacity="1"></path><path d="M-34.65,166.1L-34.75 166.35L-39.25 166.55L-35.05 166.2L-34.65 166.1" fill="rgb(133,134,129)" fill-opacity="1"></path><path d="M-19.25,174.05L-19.2 174.45L-18.6 179.9L-18.35 179.9L-18.35 182.4L-18.35 182.85L-18.45 183.2Q-20.5 187.2 -24.2 189.5L-24.65 189.5L-27.55 189.1L-28 189.1L-28.05 188.7L-28.4 187.85L-28.05 187.4L-28 187L-27.75 186.95Q-27.25 183.95 -28 182L-28 181.6Q-28.4 179.1 -29.25 177L-29.25 176.55Q-29.55 174.8 -30.5 173.65L-30.5 173.2L-30.5 172.8Q-27.5 173.05 -25.55 172.2L-25.45 171.95Q-23.7 171.65 -23.05 170.25L-22.95 169.85Q-20 170.9 -19.25 174.05" fill="rgb(190,182,179)" fill-opacity="1"></path><path d="M-30.5,173.65L-30.7 173.55L-30.9 172.4L-25.85 172L-25.45 171.95L-25.55 172.2Q-27.5 173.05 -30.5 172.8L-30.5 173.2L-30.5 173.65" fill="rgb(127,121,118)" fill-opacity="1"></path><path d="M-35.75,163.25Q-37 162.65 -36.75 160.25Q-31.1 159.35 -34.7 163.2L-35.75 163.25" fill="rgb(38,41,30)" fill-opacity="1"></path><path d="M-22.15,165.3L-22.15 159Q-21.4 161.85 -21.9 165.65L-22.15 165.7L-22.15 165.3" fill="rgb(105,105,102)" fill-opacity="1"></path><path d="M-30.3,164.5Q-31.6 163.9 -31.3 161.5Q-25.65 160.6 -29.25 164.45L-30.3 164.5" fill="rgb(42,44,34)" fill-opacity="1"></path><path d="M-25.9,170.3L-25.95 170.5Q-28.8 171.1 -30.05 169.85L-26.3 170.3L-25.9 170.3" fill="rgb(109,109,108)" fill-opacity="1"></path><path d="M-29.25,177L-29.5 176.85Q-30.45 175.7 -30.5 173.65Q-29.55 174.8 -29.25 176.55L-29.25 177" fill="rgb(127,124,118)" fill-opacity="1"></path><path d="M-35.9,174.05L-36.35 174.05L-39.7 174.05L-39.7 173.65L-35.95 173.85L-35.9 174.05" fill="rgb(91,71,70)" fill-opacity="1"></path><path d="M-39.95,185.25Q-40.95 183.65 -40.95 181.15Q-40.2 182.9 -39.7 184.95L-39.7 185.35L-39.95 185.25" fill="rgb(89,68,67)" fill-opacity="1"></path><path d="M-35.5,190.75L-33.35 190.85L-33 190.75L-33.1 191.05Q-34.55 192.35 -35.5 190.75" fill="rgb(84,64,64)" fill-opacity="1"></path><path d="M-33,190.75L-32.95 190.35Q-32.15 184.25 -33 178.25Q-31.4 183.95 -32.75 190.7L-33 190.75" fill="rgb(89,68,68)" fill-opacity="1"></path><path d="M-39.25,197.45L-39.65 197.45Q-41.95 197.65 -43 196.6L-39.3 197.25L-39.25 197.45" fill="rgb(94,78,71)" fill-opacity="1"></path><path d="M-24.25,189.75Q-26.75 190.4 -27.55 189.1L-24.65 189.5L-24.2 189.5L-24.25 189.75" fill="rgb(167,160,145)" fill-opacity="1"></path><path d="M-28,186.6L-28 182Q-27.25 183.95 -27.75 186.95L-28 187L-28 186.6" fill="rgb(185,171,168)" fill-opacity="1"></path><path d="M-18.35,179.9L-18.6 179.9L-19.2 174.45Q-18.2 175.55 -18.35 177.8L-18.35 178.25L-18.35 179.5L-18.35 179.9" fill="rgb(168,160,144)" fill-opacity="1"></path><path d="M-18.35,179.5L-18.35 178.25Q-17.65 180 -18.15 182.8L-18.35 182.85L-18.35 182.4L-18.35 179.9L-18.35 179.5" fill="rgb(151,144,119)" fill-opacity="1"></path><path d="M-7.1,199.1L-7.3 199.1L-7.5 194.55L-7.1 194.55L-7.1 198.7L-7.1 199.1" fill="rgb(75,74,68)" fill-opacity="1"></path><path d="M-8.75,203.7Q-8.25 204.9 -8.9 206.4Q-9.3 207.35 -11.15 207.7Q-18.05 208.8 -17.55 203.3Q-15.85 197.25 -10 196L-10.1 196.6Q-10.3 197.5 -9.6 197.45Q-9.9 199 -9.3 199.65L-9.15 199.95L-8.95 203.7L-8.75 203.7" fill="rgb(187,179,177)" fill-opacity="1"></path><path d="M-8.95,203.7L-9.15 199.95Q-8.45 201.1 -8.75 203.3L-8.75 203.7L-8.95 203.7" fill="rgb(103,100,95)" fill-opacity="1"></path><path d="M-5,204.15Q0.1 204 -4.4 205.55Q-5.3 205.9 -5 204.15" fill="rgb(175,169,167)" fill-opacity="1"></path><path d="M-24.65,198.3L-24.65 198.5L-32.55 198.3L-25.05 198.3L-24.65 198.3" fill="rgb(77,76,40)" fill-opacity="1"></path><path d="M41.6,196.15Q42.1 191.3 41.4 187.4L41.4 187L41.4 186.15L41.4 185.75Q41.7 182.5 40.95 180.3L40.95 179.9L40.95 179.05L41 178.65Q41.25 176.65 40.55 175.7Q40.45 173.1 39.65 171.4L37.8 167.35L34.45 160Q31.7 154.05 34.7 149.8L35.1 149.9Q38.6 151.15 40.95 153.6L41.25 153.5L43.9 150.25L43.95 149.85Q44.55 146.95 44.3 143.15L44.1 143.1L43.7 142Q42.55 139.35 39.7 138.55Q37.75 138.25 36.85 139Q33.05 142.35 32.2 138.1Q35 135.3 35.9 130.6L35.95 130.2L36.15 130.15Q36.7 125.25 35.95 121.4L35.9 121Q35.15 116.8 32.2 114.7L31.95 114.75Q30.6 121.95 27.2 126.85L26.8 126.75Q24.3 125.1 20.9 124.35L20.8 124Q19.1 121.55 18.8 117.65L18.8 117.25L18.8 113.05L18.8 112.2Q9.75 113.35 10.45 127.25Q7.55 129.75 5.65 133.05Q3.55 136.6 0.45 138.95L0.25 138.95Q0.45 131.85 -3.3 128.95L-6.85 137.65Q-8.75 142.3 -13.75 141.9Q-16.75 138.8 -16.15 132.3Q-15.5 125.55 -17.95 123.1L-18.3 123.15Q-26.45 128.15 -27.15 140.6L-27.5 140.5Q-31.6 137.15 -39.7 137.7Q-39.4 140.05 -38.7 142Q-37.2 146.25 -33.8 148.7Q-33.4 148.95 -33.4 149.8L-33.85 149.8L-33.85 150.25L-33.85 150.65L-34.2 150.7Q-40.35 152.9 -43 158.6L-43 159Q-42.7 165.4 -46.8 167.35L-47 167.6L-47 167.35L-47.5 142Q-47.9 118.2 -47.75 93.85Q-47.6 56.2 -47.6 18.6L-47.6 -56.6L-47.6 -131.8L-47.6 -207L27.6 -207L57.7 -207L57.7 -131.8L57.7 -56.6L57.7 18.6L57.7 93.85L57.7 142L57.7 167.35L57.7 169.05L57.7 207.05L39.3 207.05L38.9 207.05Q40.7 202.45 41.35 196.6L41.4 196.2L41.6 196.15M-47.6,196.2Q-37.55 202.7 -20.9 201.4L-20.85 202.05Q-20.3 205.55 -21.8 206.95L-22.15 207.05L-47.2 207.05L-47.6 207.05L-47.6 196.6L-47.6 196.2" fill="rgb(102,113,183)" fill-opacity="1"></path></g></g><g type="sprite" id="0:2:66"><defs></defs><g transform="matrix(1,0,0,1,-11.65,-183.35)"></g></g><g type="sprite" id="0:4:68"><defs></defs><g transform="matrix(1,0,0,1,23.6,-142.4)"></g></g><g type="sprite" id="0:6:45"><defs></defs><g transform="matrix(1,0,0,1,-5.7,-162.5)"></g></g><g type="sprite" id="0:8:45"><defs></defs><g transform="matrix(1,0,0,1,-40.25,-202)"></g></g><g type="sprite" id="0:10:43"><defs></defs><g transform="matrix(1,0,0,1,-11.85,156.6)"></g></g></g></g></svg>