<svg width="136" height="203" viewBox="-59 -114 136 203"><g><defs></defs></g><rect x="-59" y="-114" width="136" height="203" fill="#006600"></rect><g id="0"><defs></defs><g><g type="shape" id="0:1:108"><defs></defs><g transform="matrix(1,0,0,1,0,0)"><path d="M23.8,-114.1L24.8 -114.1Q27.6 -112.35 32.8 -113.05L33.8 -113.1Q52 -112.3 58.6 -100L58.8 -99.1Q58.8 -97.1 59.25 -95.2L59.8 -95.1Q61.75 -85.55 64.65 -77.05L64.8 -76.1L64.8 -73.1L64.8 -72.1L64.8 -62.1L64.8 -61.1L64.8 -58.1L64.8 -57.1Q64.8 -56.6 65.05 -56.35Q65.3 -56.1 65.8 -56.1Q69.05 -54.35 74.8 -55.05L75.8 -55.1L76.35 -54.95Q80.05 -42.6 68.8 -40.1L68.8 -41.1L68.8 -42.1Q70.95 -42.95 71.65 -45.15L71.8 -46.1L72.35 -46.25Q73.5 -49.8 71.8 -51.1L71.55 -51.85L70.8 -52.1L70.8 -53.1L70.75 -53.6L54.8 -54.1Q54.3 -54.1 54.05 -54.35Q53.8 -54.6 53.8 -55.1L53.8 -56.1L57.7 -56.55L57.8 -57.1Q59.5 -57.4 59.75 -59.1L59.8 -60.1Q61.5 -60.4 60.9 -63.1L60.8 -64.1L61.35 -64.25Q62.5 -67.3 60.8 -68.1L60.8 -69.1L60.8 -70.1L60.85 -71.1Q61.55 -76.35 59.8 -79.1L59.75 -80.1Q58.35 -94.65 49.8 -102.1L49.55 -102.9Q45.8 -107.6 38.8 -109.1L38.7 -109.65L34.8 -110.1L33.8 -110.1L22.8 -110.1L21.8 -110.1L15.8 -110.1L15.8 -109.1L14.8 -109.1L12.8 -109.1L11.8 -109.1L-6.2 -109.1L-6.2 -108.1L-7.2 -108.1L-9.2 -108.1L-10.2 -108.1L-13.2 -108.1L-13.2 -107.1L-14.2 -107.1L-15.2 -107.1L-16.2 -107.1L-19.2 -107.1L-19.2 -106.1L-20.15 -105.95Q-30.35 -103.2 -35.2 -95.1L-35.25 -94.1Q-36 -88.85 -38.2 -85.1L-38.2 -82.1L-38.2 -81.1L-39.2 -81.1L-39.2 -78.1L-39.2 -77.1L-39.2 -69.1L-39.2 -68.1L-39.2 -67.1L-39.2 -66.1L-40.2 -66.1Q-40.2 -63.6 -39.7 -61.2L-39.2 -61.1Q-39.8 -58.95 -38.3 -58.65L-38.2 -58.1Q-37.65 -56.1 -36.45 -54.85Q-36.2 -54.6 -36.2 -54.1L-37.2 -54.1L-48.2 -54.1L-48.2 -53.1L-49.2 -53.1L-49.2 -52.1L-50.2 -52.1Q-50.2 -49.1 -49.7 -46.2L-49.2 -46.1Q-48.2 -43.6 -47.7 -41.1L-48.2 -41.1L-49.2 -41.1L-51.2 -41.1L-52.15 -41.25Q-57.2 -43.15 -58.2 -49.1L-58.2 -50.1L-58.2 -54.1L-58.2 -55.1L-57.2 -55.1Q-49.45 -55.35 -45.2 -59.2Q-43.5 -60.8 -45.2 -61.1L-45.2 -62.1L-45.2 -63.1L-45.2 -64.1L-45.2 -76.1L-45.2 -77.1L-45.2 -79.1Q-43.5 -79.4 -44.1 -82.1L-44.2 -83.1L-44.2 -84.1L-44.2 -85.1Q-42.5 -85.4 -43.1 -88.1L-43.2 -89.1L-43.2 -90.1Q-40.65 -98.05 -36.45 -104.25Q-36.2 -104.6 -36.2 -105.1L-21.15 -109L-20.2 -109.1L-16.3 -109.55L-16.2 -110.1L-15.2 -110.1L-11.3 -110.55L-11.2 -111.1L-10.2 -111.1L-9.2 -111.1L-4.3 -111.6Q-4.2 -111.6 -4.2 -112.1L-2.2 -112.1L-1.2 -112.1L6.75 -112.6L6.8 -113.1L9.8 -113.1L10.8 -113.1L14.7 -113.55L14.8 -114.1L23.8 -114.1" fill="rgb(8,11,7)" fill-opacity="1"></path><path d="M-4.2,-112.1Q-4.2 -111.6 -4.3 -111.6L-9.2 -111.1L-9.2 -112.1L-5.2 -112.1L-4.2 -112.1" fill="rgb(57,109,57)" fill-opacity="1"></path><path d="M6.8,-113.1L6.75 -112.6L-1.2 -112.1L-1.2 -113.1L5.8 -113.1L6.8 -113.1" fill="rgb(59,125,59)" fill-opacity="1"></path><path d="M-11.2,-111.1L-11.3 -110.55L-15.2 -110.1L-15.2 -111.1L-12.2 -111.1L-11.2 -111.1" fill="rgb(49,124,49)" fill-opacity="1"></path><path d="M-9.3,-107.55L-13.2 -107.1L-13.2 -108.1L-10.2 -108.1L-9.2 -108.1L-9.3 -107.55" fill="rgb(64,61,33)" fill-opacity="1"></path><path d="M-28.2,-55.1L-29.1 -54.9L-30.2 -54.1Q-30.2 -54.6 -30.4 -54.7Q-34.2 -56.6 -38.2 -58.1L-38.3 -58.65Q-39.8 -58.95 -39.2 -61.1L-39.2 -62.1L-39.2 -66.1L-39.2 -67.1L-39.2 -68.1Q-37.45 -70.85 -38.15 -76.1L-38.2 -77.1L-38.2 -78.1L-38.2 -81.1L-38.2 -82.1L-38.2 -85.1Q-36 -88.85 -35.25 -94.1L-35.2 -95.1Q-30.35 -103.2 -20.15 -105.95L-19.2 -106.1L-15.3 -106.55L-15.2 -107.1L-14.2 -107.1L-13.2 -107.1L-9.3 -107.55L-9.2 -108.1L-7.2 -108.1L-6.2 -108.1Q3.3 -108.1 12.75 -108.6L12.8 -109.1L14.8 -109.1L15.8 -109.1L21.8 -109.1L22.8 -109.1L33.8 -109.1L34.8 -109.1L37.8 -109.1L38.8 -109.1Q45.8 -107.6 49.55 -102.9L49.8 -102.1L48.8 -102.1L47.8 -102.1L47.7 -102.6L42.8 -103.1L41.8 -103.15Q32.55 -103.85 27.8 -100.1L26.85 -99.95L24.8 -99.1L24.8 -98.1L23.9 -97.9Q19.85 -96.05 16.8 -93.1L16.8 -92.1L16.55 -91.35Q16.3 -91.1 15.8 -91.1L15.8 -90.1L14.9 -89.9Q14.3 -89.6 13.8 -89.1L13.8 -88.1L13.8 -87.1L12.8 -87.1L12.8 -86.1L11.9 -85.9Q10.3 -85.1 8.8 -84.1L8.8 -82.1L8.8 -81.1Q8.3 -81.1 8.1 -81.35Q6.55 -83.4 3.8 -84.1Q3.3 -84.1 3.15 -84.35Q1.55 -86.85 -2.2 -87.1L-3.2 -87.1L-12.2 -87.1L-13.2 -87.1L-17.2 -87.1L-17.2 -86.1L-18.2 -86.1L-20.2 -86.1Q-20.2 -85.1 -19.8 -84.3L-19.2 -84.1L-19.2 -83.1Q-19.2 -82.6 -19.35 -82.55Q-21.15 -82.05 -22.2 -81.1L-22.2 -81.6Q-28.4 -81.3 -32.2 -78.1L-32.2 -76.1L-32.2 -75.1L-32.2 -74.1L-33.2 -74.1L-33.2 -66.1L-33.2 -65.1Q-31.35 -60.5 -28.45 -56.9Q-28.2 -56.6 -28.2 -56.1L-28.2 -55.1" fill="rgb(119,110,59)" fill-opacity="1"></path><path d="M-16.2,-110.1L-16.3 -109.55L-20.2 -109.1L-20.2 -110.1L-17.2 -110.1L-16.2 -110.1" fill="rgb(52,97,52)" fill-opacity="1"></path><path d="M-15.3,-106.55L-19.2 -106.1L-19.2 -107.1L-16.2 -107.1L-15.2 -107.1L-15.3 -106.55M22.8,-109.1L21.8 -109.1L15.8 -109.1L15.8 -110.1L21.8 -110.1L22.8 -110.1L22.8 -109.1" fill="rgb(60,58,31)" fill-opacity="1"></path><path d="M12.75,-108.6Q3.3 -108.1 -6.2 -108.1L-6.2 -109.1L11.8 -109.1L12.8 -109.1L12.75 -108.6" fill="rgb(63,60,33)" fill-opacity="1"></path><path d="M-12.2,-87.1L-3.2 -87.1L-2.2 -87.1L-2.25 -86.6L-12.2 -86.1L-12.2 -87.1" fill="rgb(42,40,27)" fill-opacity="1"></path><path d="M-12.2,-86.1L-13.2 -86.1L-17.2 -86.1L-17.2 -87.1L-13.2 -87.1L-12.2 -87.1L-12.2 -86.1" fill="rgb(81,75,43)" fill-opacity="1"></path><path d="M-3.05,-83.35Q-9.15 -87.7 -15.2 -83.1L-15.3 -83.65L-19.2 -84.1L-19.8 -84.3Q-20.2 -85.1 -20.2 -86.1L-18.2 -86.1L-17.2 -86.1L-13.2 -86.1L-12.2 -86.1L-2.25 -86.6L-2.2 -87.1Q1.55 -86.85 3.15 -84.35Q3.3 -84.1 3.8 -84.1L3.55 -83.35L2.8 -83.1L1.8 -83.2L-2.2 -84.1L-2.2 -83.1L-3.05 -83.35" fill="rgb(24,24,22)" fill-opacity="1"></path><path d="M-15.95,-69.35L-16.2 -70.1L-16.3 -70.65L-20.2 -71.1L-20.2 -70.1L-21.2 -70.1L-28.2 -70.1L-29.05 -70.3Q-30.9 -71.4 -30.2 -75.1Q-25.6 -77 -22.85 -80.85L-22.2 -81.1Q-21.15 -82.05 -19.35 -82.55Q-19.2 -82.6 -19.2 -83.1L-16.2 -83.1L-15.2 -83.1Q-14.3 -80 -12 -78.35L-11.2 -78.1Q-8.95 -76.35 -4.3 -77.55L-4.2 -78.1Q-2.3 -79.2 -2.2 -82.1L-2.2 -83.1L-2.2 -84.1L1.8 -83.2L2.8 -83.1Q4.6 -80.9 6.95 -79.35L7.8 -79.1L7.8 -78.1L7.8 -72.1L7.8 -71.1L7.65 -70.55Q5.85 -70.05 4.8 -69.1L3.8 -69.1L-7.2 -69.1L-8.2 -69.1L-15.2 -69.1Q-15.7 -69.1 -15.95 -69.35" fill="rgb(242,242,242)" fill-opacity="1"></path><path d="M-19.2,-84.1L-15.3 -83.65L-15.2 -83.1L-16.2 -83.1L-19.2 -83.1L-19.2 -84.1" fill="rgb(125,119,84)" fill-opacity="1"></path><path d="M26.7,-65.6L21.8 -66.1L20.8 -66.1L16.8 -66.1L16.7 -66.65L12.8 -67.1L11.8 -67.1Q11.8 -67.6 11.6 -67.7L9.8 -68.1Q9.85 -66.6 10.25 -65.25Q10.3 -65.1 10.8 -65.1Q10.85 -63.6 11.25 -62.25L11.8 -62.1L11.65 -61.55Q8.6 -60.4 7.8 -62.1L8 -63Q10.65 -68.2 0.8 -66.1L-0.2 -66.1L-11.2 -66.1L-12.2 -66.1L-14.2 -66.1L-15.2 -66.1L-16.2 -66.1L-16.2 -67.1L-16.2 -68.1Q-15.7 -68.1 -15.45 -68.35Q-15.2 -68.6 -15.2 -69.1L-8.2 -69.1L-7.2 -69.1Q-2.45 -67.35 4.7 -68.6L4.8 -69.1Q5.85 -70.05 7.65 -70.55L7.8 -71.1L8.8 -71.1L9.8 -71.1L10.8 -71.1Q10.7 -69.45 12.85 -70L13.8 -70.1L14.8 -70.1Q15.1 -68.4 17.8 -69L18.8 -69.1L20.8 -69.1L21.8 -69.1Q22.1 -67.4 24.8 -68L25.8 -68.1L34.8 -68.1L35.8 -68.1Q37.95 -68.7 37.85 -67.1L37.8 -66.1L37.55 -65.35Q37.3 -65.1 36.8 -65.1L35.8 -65.1L26.8 -65.1L26.7 -65.6M-5.2,-78.1L-11.2 -78.1L-12 -78.35Q-14.3 -80 -15.2 -83.1Q-9.15 -87.7 -3.05 -83.35L-2.2 -83.1L-2.2 -82.1Q-2.3 -79.2 -4.2 -78.1L-5.2 -78.1" fill="rgb(2,2,2)" fill-opacity="1"></path><path d="M-4.2,-78.1L-4.3 -77.55Q-8.95 -76.35 -11.2 -78.1L-5.2 -78.1L-4.2 -78.1" fill="rgb(102,102,102)" fill-opacity="1"></path><path d="M-39.2,-77.1L-39.2 -78.1L-39.2 -81.1L-38.2 -81.1L-38.2 -78.1L-38.2 -77.1L-39.2 -77.1" fill="rgb(55,53,29)" fill-opacity="1"></path><path d="M-39.2,-68.1L-39.2 -69.1L-39.2 -77.1L-38.2 -77.1L-38.15 -76.1Q-37.45 -70.85 -39.2 -68.1M-28.2,-8.1L-28.2 -9.1L-28.2 -14.1Q-26.5 -12.8 -27.1 -9.1L-27.2 -8.1L-28.2 -8.1" fill="rgb(91,85,46)" fill-opacity="1"></path><path d="M-30.2,-75.6L-32.2 -75.1L-32.2 -76.1L-32.2 -78.1Q-28.4 -81.3 -22.2 -81.6L-22.2 -81.1L-22.85 -80.85Q-25.6 -77 -30.2 -75.1L-30.2 -75.6" fill="rgb(43,42,39)" fill-opacity="1"></path><path d="M18.8,-84.1Q19.3 -84.1 19.55 -84.35L19.8 -85.1L22.65 -85.55L22.8 -86.1L22.8 -87.1L28.8 -87.1L29.8 -87.1L30.8 -87.1L30.6 -86.5Q29.8 -86.1 28.8 -86.1Q28.8 -85.1 29.2 -84.3Q29.3 -84.1 29.8 -84.1L29.6 -83.2Q24.45 -71.5 18.8 -83.1L18.8 -84.1M-32.2,-74.1L-32.2 -75.1L-30.2 -75.6L-30.2 -75.1Q-30.9 -71.4 -29.05 -70.3L-28.2 -70.1Q-25.95 -68.35 -21.2 -69.05L-20.2 -69.1L-19.4 -68L-19.2 -67.1Q-19.2 -66.6 -19.45 -66.35Q-19.7 -66.1 -20.2 -66.1L-21.15 -66.25Q-22.2 -66.6 -23.2 -67.1L-24.2 -67.1L-30.2 -67.1L-31.2 -67.1L-31.7 -67.15Q-32.2 -70.6 -32.2 -74.1" fill="rgb(7,7,7)" fill-opacity="1"></path><path d="M-11.2,-66.1L-0.2 -66.1L0.8 -66.1L0.75 -65.6L-11.2 -65.1L-11.2 -66.1M-24.2,-67.1L-23.2 -67.1L-23.2 -66.1L-24.2 -66.1L-30.2 -66.1L-30.2 -67.1L-24.2 -67.1" fill="rgb(65,57,54)" fill-opacity="1"></path><path d="M-26.15,-61.25L-25.2 -61.1L-24.2 -61.1L-23.2 -61.1L-23.2 -60.1L-24.2 -60.1L-24.2 -57.1L-24.2 -56.1Q-24.2 -55.6 -24.45 -55.35Q-24.7 -55.1 -25.2 -55.1L-25.2 -53.1L-25.2 -52.1L-25.7 -52.1Q-25.5 -49.4 -27.2 -49.1L-27.15 -50.1Q-26.5 -54.35 -28.2 -56.1Q-28.2 -56.6 -28.45 -56.9Q-31.35 -60.5 -33.2 -65.1L-31.45 -66.35Q-31.2 -66.6 -31.2 -67.1L-30.2 -67.1L-30.2 -66.1Q-29.4 -62.35 -26.15 -61.25" fill="rgb(41,39,37)" fill-opacity="1"></path><path d="M-25.2,-62.1L-25.2 -63.1Q-24.2 -64.1 -23.45 -65.25Q-23.2 -65.6 -23.2 -66.1L-23.2 -67.1Q-22.2 -66.6 -21.15 -66.25L-20.2 -66.1Q-20.2 -65.6 -20.45 -65.35Q-22 -63.9 -23.2 -62.1L-23.2 -61.1L-24.2 -61.1L-25.2 -61.1L-25.2 -62.1" fill="rgb(20,18,17)" fill-opacity="1"></path><path d="M-25.2,-61.1L-26.15 -61.25Q-29.4 -62.35 -30.2 -66.1L-24.2 -66.1L-23.2 -66.1Q-23.2 -65.6 -23.45 -65.25Q-24.2 -64.1 -25.2 -63.1L-25.2 -62.1L-25.2 -61.1" fill="rgb(125,110,103)" fill-opacity="1"></path><path d="M-16.7,-68L-16.2 -68.1L-16.2 -67.1L-16.2 -66.1L-16.2 -63.1L-16.2 -62.1Q-16.2 -59.6 -15.7 -57.2L-15.2 -57.1Q-10.6 -54.4 -5.2 -55.05L-4.2 -55.1Q-3.4 -52.9 -3.25 -50.1L-3.2 -49.1Q-3.2 -47.1 -2.75 -45.2L-2.2 -45.1L-2.15 -44.1Q-1.45 -39.35 -3.2 -37.1L-3.2 -36.1L-3.85 -35.85Q-5.85 -32.75 -12.2 -34.1L-13.2 -34.1L-15.2 -34.1Q-15.2 -34.6 -15.45 -34.95Q-16.25 -36.05 -18.2 -36.1L-18.45 -36.8Q-21.2 -39.1 -23.2 -42.1Q-23.2 -42.6 -23.45 -42.95Q-24.4 -44.4 -24.2 -47.1L-24.1 -48.1Q-23.5 -50.8 -25.2 -51.1L-25.2 -52.1L-25.2 -53.1L-25.2 -55.1Q-24.7 -55.1 -24.45 -55.35Q-24.2 -55.6 -24.2 -56.1Q-22.5 -56.4 -23.1 -59.1L-23.2 -60.1L-23.2 -61.1L-23.2 -62.1Q-22 -63.9 -20.45 -65.35Q-20.2 -65.6 -20.2 -66.1Q-19.7 -66.1 -19.45 -66.35Q-19.2 -66.6 -19.2 -67.1Q-17.05 -66.45 -16.7 -68" fill="rgb(129,113,106)" fill-opacity="1"></path><path d="M-20.2,-69.1L-21.2 -69.05Q-25.95 -68.35 -28.2 -70.1L-21.2 -70.1L-20.2 -70.1L-20.2 -69.1" fill="rgb(76,76,76)" fill-opacity="1"></path><path d="M-31.7,-67.15L-31.2 -67.1Q-31.2 -66.6 -31.45 -66.35L-33.2 -65.1L-33.2 -66.1L-33.2 -74.1L-32.2 -74.1Q-32.2 -70.6 -31.7 -67.15" fill="rgb(31,29,18)" fill-opacity="1"></path><path d="M-39.2,-61.1L-39.7 -61.2Q-40.2 -63.6 -40.2 -66.1L-39.2 -66.1L-39.2 -62.1L-39.2 -61.1" fill="rgb(51,49,27)" fill-opacity="1"></path><path d="M-40.2,-53.1L-39.2 -53.1L-39.2 -52.1L-40.2 -52.1L-49.2 -52.1L-49.2 -53.1L-48.2 -53.1L-40.2 -53.1" fill="rgb(130,129,129)" fill-opacity="1"></path><path d="M-20.95,-36.35L-20.2 -36.1Q-20.2 -35.6 -20.45 -35.35L-22.2 -34.1Q-20.9 -28.9 -14.2 -29.1L-13.2 -29.1L-12.2 -29.1L-11.95 -28.25Q-9.1 -23.65 -15.2 -24.1Q-15.7 -24.1 -16.05 -24.35Q-19.8 -27 -24.2 -29.1Q-24.7 -29.1 -25.05 -29.35Q-28.45 -31.85 -32.2 -34.1L-32.2 -35.1L-32.2 -37.1Q-30.7 -37.1 -29.35 -37.55Q-29.2 -37.6 -29.2 -38.1L-29.4 -38.75Q-31.4 -39.9 -34.2 -40.1L-34.25 -40.6L-43.2 -41.1L-43.2 -40.1L-44.2 -40.1L-45.2 -40.1L-48.2 -40.1L-48.2 -41.1L-47.7 -41.1Q-48.2 -43.6 -49.2 -46.1L-49.2 -47.1L-49.2 -52.1L-40.2 -52.1L-39.2 -52.1Q-30.5 -45.3 -29.7 -53.1L-30.2 -53.1L-30.2 -54.1L-29.1 -54.9L-28.2 -55.1Q-28.2 -51.1 -27.7 -47.15L-27.2 -47.1Q-25.85 -44.45 -24.75 -41.25Q-24.7 -41.1 -24.2 -41.1Q-22.95 -38.35 -20.95 -36.35" fill="rgb(166,150,149)" fill-opacity="1"></path><path d="M-30.2,-53.1L-31.2 -53.1L-39.2 -53.1L-40.2 -53.1L-48.2 -53.1L-48.2 -54.1L-37.2 -54.1L-36.2 -54.1L-31.2 -54.1L-30.2 -54.1L-30.2 -53.1" fill="rgb(82,84,83)" fill-opacity="1"></path><path d="M-39.2,-52.1L-39.2 -53.1L-31.2 -53.1L-30.2 -53.1L-29.7 -53.1Q-30.5 -45.3 -39.2 -52.1" fill="rgb(159,161,161)" fill-opacity="1"></path><path d="M-30.4,-54.7Q-30.2 -54.6 -30.2 -54.1L-31.2 -54.1L-36.2 -54.1Q-36.2 -54.6 -36.45 -54.85Q-37.65 -56.1 -38.2 -58.1Q-34.2 -56.6 -30.4 -54.7" fill="rgb(40,39,36)" fill-opacity="1"></path><path d="M-23.1,-59.1Q-22.5 -56.4 -24.2 -56.1L-24.2 -57.1L-24.2 -60.1L-23.2 -60.1L-23.1 -59.1" fill="rgb(98,87,82)" fill-opacity="1"></path><path d="M-23.45,-41.35Q-23.7 -41.1 -24.2 -41.1Q-24.7 -41.1 -24.75 -41.25Q-25.85 -44.45 -27.2 -47.1L-27.2 -48.1L-27.2 -49.1Q-25.5 -49.4 -25.7 -52.1L-25.2 -52.1L-25.2 -51.1Q-25.2 -49.1 -24.75 -47.2L-24.2 -47.1Q-24.4 -44.4 -23.45 -42.95Q-23.2 -42.6 -23.2 -42.1Q-23.2 -41.6 -23.45 -41.35" fill="rgb(33,30,30)" fill-opacity="1"></path><path d="M-28.2,-55.1L-28.2 -56.1Q-26.5 -54.35 -27.15 -50.1L-27.2 -49.1L-27.2 -48.1L-27.2 -47.1L-27.7 -47.15Q-28.2 -51.1 -28.2 -55.1" fill="rgb(103,94,91)" fill-opacity="1"></path><path d="M-17.2,-70.1L-20.2 -70.1L-20.2 -71.1L-16.3 -70.65L-16.2 -70.1L-17.2 -70.1" fill="rgb(158,158,158)" fill-opacity="1"></path><path d="M-19.2,-67.1L-19.4 -68L-20.2 -69.1L-20.2 -70.1L-17.2 -70.1L-16.2 -70.1L-15.95 -69.35Q-15.7 -69.1 -15.2 -69.1Q-15.2 -68.6 -15.45 -68.35Q-15.7 -68.1 -16.2 -68.1L-16.7 -68Q-17.05 -66.45 -19.2 -67.1" fill="rgb(18,17,17)" fill-opacity="1"></path><path d="M-16.2,-62.1L-16.2 -63.1L-16.2 -66.1L-15.2 -66.1L-15.2 -63.1L-15.2 -62.1L-16.2 -62.1" fill="rgb(48,43,40)" fill-opacity="1"></path><path d="M-13.75,-62.2L-13.2 -62.1L-13.2 -61.1L-13.2 -60.1L-13.7 -60.1Q-13.5 -57.4 -15.2 -57.1L-15.2 -58.1L-15.2 -62.1L-15.2 -63.1L-15.2 -66.1L-14.2 -66.1Q-14.2 -64.1 -13.75 -62.2M-2.45,-32.85L-3.2 -33.1L-3.2 -34.1L-3.2 -36.1L-3.2 -37.1Q-1.45 -39.35 -2.15 -44.1L-2.2 -45.1L-2.2 -46.1Q-0.55 -46.2 -1.1 -44.05L-1.2 -43.1Q-1.2 -41.1 -0.75 -39.2L-0.2 -39.1L-0.2 -37.1L-0.2 -36.1L-0.3 -35.1Q-0.7 -33.1 -2.2 -32.1Q-2.2 -32.6 -2.45 -32.85" fill="rgb(29,26,24)" fill-opacity="1"></path><path d="M-15.2,-57.1L-15.7 -57.2Q-16.2 -59.6 -16.2 -62.1L-15.2 -62.1L-15.2 -58.1L-15.2 -57.1" fill="rgb(76,66,62)" fill-opacity="1"></path><path d="M-13.2,-62.1L-13.75 -62.2Q-14.2 -64.1 -14.2 -66.1L-12.2 -66.1L-11.2 -66.1L-11.2 -65.1L-12.2 -65.1L-13.2 -65.1L-13.2 -63.1L-13.2 -62.1M-4.2,-33.1L-6.2 -33.1L-7.2 -33Q-10.9 -32.4 -12.2 -34.1Q-5.85 -32.75 -3.85 -35.85L-3.2 -36.1L-3.2 -34.1L-3.2 -33.1L-4.2 -33.1" fill="rgb(93,82,77)" fill-opacity="1"></path><path d="M-13.2,-63.1L-13.2 -65.1L-12.2 -65.1L-11.2 -65.1L0.75 -65.6L0.8 -66.1Q10.65 -68.2 8 -63L7.8 -62.1Q7.3 -62.1 7.1 -61.85Q5.7 -60.2 2.8 -60.1L1.8 -60.1L-13.2 -60.1L-13.2 -61.1L-13.2 -62.1L-13.2 -63.1" fill="rgb(128,113,106)" fill-opacity="1"></path><path d="M2.8,-59.1L1.8 -59.1L-1.2 -59.1L-2.2 -59.1L-10.2 -59.1L-11.15 -59Q-13.3 -58.45 -13.2 -60.1L1.8 -60.1L2.8 -60.1L2.8 -59.1" fill="rgb(82,74,71)" fill-opacity="1"></path><path d="M-4.2,-55.1L-5.2 -55.05Q-10.6 -54.4 -15.2 -57.1Q-13.5 -57.4 -13.7 -60.1L-13.2 -60.1Q-13.3 -58.45 -11.15 -59L-10.2 -59.1Q-7.9 -56.85 -3.25 -56.6L-3.2 -56.1L-4.2 -56.1L-4.2 -55.1" fill="rgb(17,16,16)" fill-opacity="1"></path><path d="M-3.2,-56.1L-3.25 -56.6Q-7.9 -56.85 -10.2 -59.1L-2.2 -59.1L-1.2 -59.1Q-0.9 -57.4 1.8 -58L2.8 -58.1L2.7 -57.6L-2.2 -57.1L-2.2 -56.1L-3.2 -56.1" fill="rgb(43,42,42)" fill-opacity="1"></path><path d="M-3.2,-49.1L-3.25 -50.1Q-3.4 -52.9 -4.2 -55.1L-4.2 -56.1L-3.2 -56.1L-2.2 -56.1Q-2 -53.3 -0.85 -51.3L-0.2 -51.1L-0.2 -50.1L-0.2 -44.1L-0.2 -43.1L-1.2 -43.1L-1.1 -44.05Q-0.55 -46.2 -2.2 -46.1L-2.1 -47.05Q-1.55 -49.2 -3.2 -49.1" fill="rgb(16,15,14)" fill-opacity="1"></path><path d="M71.8,-46.1L71.65 -45.15Q70.95 -42.95 68.8 -42.1L68.8 -41.1L67.95 -40.85Q66.55 -39.9 63.8 -40.1L62.8 -40.1L50.8 -40.1Q50.8 -39.1 51.2 -38.3L51.8 -38.1L52.9 -37.3L53.8 -37.1Q56.45 -37.75 55.9 -35.1L55.8 -34.1L54.85 -33.95L47.8 -31.1L47.3 -31.1Q47.45 -33.2 45.8 -33.1L45.7 -33.65Q44.2 -33.95 44.8 -36.1L44.8 -37.1L44.8 -38.1L47.55 -40.35L47.8 -41.1Q50.55 -42.35 50.75 -46.1L50.8 -47.1L50.8 -48.1L50.8 -51.1L50.8 -52.1L50.8 -55.1L50.9 -56.1Q51.5 -58.8 49.8 -59.1L49.8 -60.1L49.8 -62.1L51.55 -63.35L51.8 -64.1L52.35 -64.25Q53.5 -68.35 51.8 -70.1L51.75 -71.1Q51.5 -74.3 49.8 -76.1L49.6 -77L48.8 -78.1L48.6 -79Q45.55 -84.85 36.8 -85.1L36.8 -86.1L36.7 -86.65L32.8 -87.1L31.8 -87.1L30.8 -87.1L29.8 -87.1L29.75 -87.6L22.8 -88.1L22.8 -87.1L22.8 -86.1L21.8 -86.1L18.8 -86.1L18.8 -85.1L17.8 -85.1L15.8 -85.1L14.8 -85.05Q13.2 -84.95 13.8 -87.1Q15.5 -87.4 15.75 -89.1L15.8 -90.1L15.8 -91.1Q16.3 -91.1 16.55 -91.35L16.8 -92.1Q21.2 -94.2 24.55 -97.35L24.8 -98.1Q26.75 -98.15 27.55 -99.25L27.8 -100.1Q32.55 -103.85 41.8 -103.15L42.8 -103.1Q43.6 -101.4 46.8 -102L47.8 -102.1L48.8 -102.1L49.8 -102.1Q58.35 -94.65 59.75 -80.1L59.8 -79.1L59.8 -71.1L59.8 -70.1L59.8 -61.1L59.8 -60.1L59.75 -59.1Q59.5 -57.4 57.8 -57.1L56.8 -57.1L52.8 -57.1Q52.8 -56.1 53.2 -55.3Q53.3 -55.1 53.8 -55.1Q53.8 -54.6 54.05 -54.35Q54.3 -54.1 54.8 -54.1Q54.7 -52.45 56.85 -53L57.8 -53.1Q62.55 -51.35 69.8 -52.05L70.8 -52.1L71.55 -51.85L71.8 -51.1L71.8 -47.1L71.8 -46.1M18.9,-56.3L19.8 -56.1L23.55 -52.85L23.8 -52.1L23.8 -48.1L23.8 -47.1L22.8 -47.1L22.8 -41.1L22.8 -40.1L21.8 -40.1L10.8 -40.1L9.8 -40.2L5.8 -41.1Q5.3 -41.1 5.05 -41.35L3.8 -43.1L3.85 -44.1Q4.85 -50.6 -0.2 -51.1L-0.85 -51.3Q-2 -53.3 -2.2 -56.1L-2.2 -57.1L2.7 -57.6L2.8 -58.1L13.8 -58.1L14.8 -58.1Q16.95 -58.7 17.3 -57.2L17.8 -57.1Q18.3 -56.6 18.9 -56.3" fill="rgb(167,150,150)" fill-opacity="1"></path><path d="M-0.2,-51.1Q4.85 -50.6 3.85 -44.1L3.8 -43.1L3.3 -43.1Q3.25 -47.55 0.8 -49.1L0.55 -49.85L-0.2 -50.1L-0.2 -51.1" fill="rgb(124,122,118)" fill-opacity="1"></path><path d="M-43.2,-89.1L-43.1 -88.1Q-42.5 -85.4 -44.2 -85.1L-44.2 -86.1L-44.2 -89.1L-43.2 -89.1" fill="rgb(46,133,46)" fill-opacity="1"></path><path d="M-44.2,-83.1L-44.1 -82.1Q-43.5 -79.4 -45.2 -79.1L-45.2 -80.1L-45.2 -83.1L-44.2 -83.1" fill="rgb(52,127,52)" fill-opacity="1"></path><path d="M-45.2,-76.1L-45.2 -64.1L-45.2 -63.1L-45.7 -63.15Q-46.2 -69.6 -46.2 -76.1L-45.2 -76.1" fill="rgb(57,147,57)" fill-opacity="1"></path><path d="M-45.2,-61.1Q-43.5 -60.8 -45.2 -59.2Q-49.45 -55.35 -57.2 -55.1L-57.2 -56.1L-57.2 -57.1Q-47.7 -55.1 -45.4 -60.2L-45.2 -61.1" fill="rgb(57,139,57)" fill-opacity="1"></path><path d="M-58.2,-54.1L-58.2 -50.1L-58.2 -49.1L-58.7 -49.2Q-59.2 -51.6 -59.2 -54.1L-58.2 -54.1M56.8,-18.1L56.8 -22.1Q58.5 -20.8 57.35 -17.25L56.8 -17.1L56.8 -18.1" fill="rgb(27,159,27)" fill-opacity="1"></path><path d="M-49.2,-46.1L-49.7 -46.2Q-50.2 -49.1 -50.2 -52.1L-49.2 -52.1L-49.2 -47.1L-49.2 -46.1" fill="rgb(84,78,77)" fill-opacity="1"></path><path d="M-48.2,-40.1L-48.2 -39.65L-50.3 -39.9L-51 -40.45Q-51.2 -40.6 -51.2 -41.1L-49.2 -41.1L-48.2 -41.1L-48.2 -40.1" fill="rgb(33,160,33)" fill-opacity="1"></path><path d="M-43.2,-40.1L-43.2 -41.1L-34.25 -40.6L-34.2 -40.1L-35.2 -40.1L-43.2 -40.1" fill="rgb(144,131,106)" fill-opacity="1"></path><path d="M-40.2,-38.1L-41.2 -38Q-43.9 -37.4 -44.2 -39.1L-41.2 -39.1L-40.2 -39.1L-40.2 -38.1" fill="rgb(138,133,100)" fill-opacity="1"></path><path d="M-35.2,-40.1L-34.2 -40.1Q-31.4 -39.9 -29.4 -38.75L-29.2 -38.1L-30.2 -38.1L-33.2 -38.1L-33.25 -38.6L-40.2 -39.1L-41.2 -39.1L-44.2 -39.1L-44.2 -40.1L-43.2 -40.1L-35.2 -40.1" fill="rgb(121,112,63)" fill-opacity="1"></path><path d="M-2.1,-47.05L-2.2 -46.1L-2.2 -45.1L-2.75 -45.2Q-3.2 -47.1 -3.2 -49.1Q-1.55 -49.2 -2.1 -47.05" fill="rgb(102,90,84)" fill-opacity="1"></path><path d="M-1.2,-43.1L-0.2 -43.1L-0.2 -40.1L-0.2 -39.1L-0.75 -39.2Q-1.2 -41.1 -1.2 -43.1" fill="rgb(22,20,19)" fill-opacity="1"></path><path d="M-0.2,-37.1L-0.2 -39.1L-0.2 -40.1L-0.2 -43.1L-0.2 -44.1L-0.2 -50.1L0.55 -49.85L0.8 -49.1L0.85 -48.1Q1.55 -40.85 -0.2 -36.1L-0.2 -37.1" fill="rgb(93,87,49)" fill-opacity="1"></path><path d="M-15.2,-34.1L-13.2 -34.1L-12.2 -34.1Q-10.9 -32.4 -7.2 -33L-6.2 -33.1L-6.2 -32.1L-7.2 -32.1L-8.2 -32.1L-11.2 -32.1L-11.2 -31.1L-11.2 -30.1L-11.7 -30.2Q-12.05 -31.7 -14.2 -31.1L-14.95 -31.35L-16.2 -33.1Q-15.7 -33.1 -15.45 -33.35Q-15.2 -33.6 -15.2 -34.1" fill="rgb(45,41,39)" fill-opacity="1"></path><path d="M-7.2,-31.1L-8.2 -31.1L-11.2 -31.1L-11.2 -32.1L-8.2 -32.1L-7.2 -32.1L-7.2 -31.1" fill="rgb(10,9,8)" fill-opacity="1"></path><path d="M-13.4,-30L-13.2 -29.1L-14.2 -29.1Q-20.9 -28.9 -22.2 -34.1L-20.45 -35.35Q-20.2 -35.6 -20.2 -36.1L-19.2 -36.1L-16.95 -33.35L-16.2 -33.1L-14.95 -31.35L-14.2 -31.1L-13.4 -30" fill="rgb(119,110,63)" fill-opacity="1"></path><path d="M-15.45,-33.35Q-15.7 -33.1 -16.2 -33.1L-16.95 -33.35L-19.2 -36.1L-18.2 -36.1Q-16.25 -36.05 -15.45 -34.95Q-15.2 -34.6 -15.2 -34.1Q-15.2 -33.6 -15.45 -33.35" fill="rgb(38,35,29)" fill-opacity="1"></path><path d="M-24.2,-41.1Q-23.7 -41.1 -23.45 -41.35Q-23.2 -41.6 -23.2 -42.1Q-21.2 -39.1 -18.45 -36.8L-18.2 -36.1L-19.2 -36.1L-20.2 -36.1L-20.95 -36.35Q-22.95 -38.35 -24.2 -41.1" fill="rgb(31,29,29)" fill-opacity="1"></path><path d="M44.8,-36.1Q44.2 -33.95 45.7 -33.65L45.8 -33.1L45.7 -32.1Q45.3 -30.1 43.8 -29.1Q43.8 -28.6 44.05 -28.35Q44.3 -28.1 44.8 -28.1L44.65 -27.55Q42.25 -26.65 40.8 -25.1Q44.5 -22.1 49.75 -27.05L50.15 -25.9Q52.65 -17.45 52.8 -7.1L51.8 -7.1L51.8 -4.1L51.8 -3.1L51.9 -2.1Q52.5 1.1 50.8 1.9L50.8 4.9L50.8 5.9L49.8 5.9L49.65 4.95Q44.9 -9.2 34.8 -18.1L34.7 -18.65L30.8 -19.1L30.8 -18.1L29.8 -18.1L27.8 -18.1L26.8 -18.1L23.8 -18.1L23.8 -17.1L22.8 -17.1L16.8 -17.1L15.8 -17.1L8.8 -17.1L8.8 -16.1L8.6 -15.25Q6.9 -12.5 5.8 -9.1L4.8 -9.1Q4.8 -1.6 5.3 5.85L5.8 5.9L5.8 9.9L5.8 10.9Q5.8 12.9 6.25 14.8L6.8 14.9L6.8 15.9L6.8 16.9Q6.8 19.4 7.3 21.8L7.8 21.9Q10.35 40.35 19.15 52.65L19.8 52.9Q21 56.15 23.15 53.15Q23.3 52.9 23.8 52.9Q39.7 52.8 45.2 42.1L45.8 41.9Q48 42.2 47.85 44.9L47.8 45.9Q47.3 45.9 47.15 46.15Q38.2 58.8 28.8 70.9L28.8 71.9L28.8 72.9L28.3 73Q27.95 74.55 25.8 73.9L24.8 73.9L21.8 73.9L21.8 72.9L21.8 68.9L21.9 67.9Q22.95 63.2 19.8 62.9L18.8 62.9Q18.8 65.4 19.3 67.8L19.8 67.9L19.8 68.9L19.8 69.9L19.8 76.9L19.8 77.9L19.8 78.9L19.55 79.65L14.8 83.9L13.8 83.9L9.8 83.9L8.9 83.7Q6.35 82.35 4.8 79.9L4.8 78.9L4.8 69.9L4.85 68.9Q5.75 62.35 1.8 64.9L1.6 64L0.8 62.9L0.8 61.9L0.8 60.9L0.8 59.9L0.85 58.9Q2.45 37.05 -9.2 48.9L-9.2 57.9L-9.2 58.9L-10.1 58.7Q-19.4 54.65 -22.2 43.9L-22.2 42.9L-22.2 39.9L-22.1 38.9Q-21.5 36.2 -23.2 35.9L-23.2 34.9L-23.2 26.9L-23.2 25.9L-23.2 22.9L-22.1 23.75Q-20.2 24.9 -18.85 24.35Q-3 17.6 -1.2 -4.1L-1.35 -5.05Q-3.25 -11.05 -9.2 -13.1L-10.05 -12.9Q-19.35 -7.3 -23.2 3.9L-23.2 5.9L-23.2 6.9L-24.2 6.9L-24.2 7.9L-24.2 8.9L-25.2 8.9L-25.25 7.9Q-26 1.7 -27.2 -4.1L-27.2 -5.1L-27.2 -8.1L-27.1 -9.1Q-26.5 -12.8 -28.2 -14.1L-28.2 -15.1L-28.2 -20.1Q-27 -22.9 -26.3 -26.1L-26.2 -27.1L-25.2 -27.1Q-19 -19.35 -12.7 -23.1L-14.1 -23.45Q-14.7 -23.6 -15.2 -24.1Q-9.1 -23.65 -11.95 -28.25L-12.2 -29.1L-2.25 -29.6L-2.2 -30.1L-2.2 -31.1L-2.2 -32.1Q-0.7 -33.1 -0.3 -35.1L-0.2 -36.1Q1.55 -40.85 0.85 -48.1L0.8 -49.1Q3.25 -47.55 3.3 -43.1L3.8 -43.1L5.05 -41.35Q5.3 -41.1 5.8 -41.1Q10.65 -36.5 21.8 -38.05L22.8 -38.1Q22.8 -37.1 23.2 -36.3Q23.3 -36.1 23.8 -36.1Q23.8 -35.1 24.2 -34.3L24.8 -34.1Q24.85 -32.6 25.25 -31.25Q25.3 -31.1 25.8 -31.1Q30.55 -29.35 37.7 -30.6L37.8 -31.1Q39.25 -32.65 41.65 -33.55L41.8 -34.1L43.55 -35.35L43.8 -36.1L44.8 -36.1" fill="rgb(119,110,60)" fill-opacity="1"></path><path d="M-2.2,-30.1L-2.25 -29.6L-12.2 -29.1L-13.2 -29.1L-13.4 -30L-14.2 -31.1Q-12.05 -31.7 -11.7 -30.2L-11.2 -30.1L-3.2 -30.1L-2.2 -30.1" fill="rgb(75,72,52)" fill-opacity="1"></path><path d="M-3.2,-30.1L-11.2 -30.1L-11.2 -31.1L-8.2 -31.1L-7.2 -31.1Q-1.3 -31.1 -5.25 -32L-6.2 -32.1L-6.2 -33.1L-4.2 -33.1L-3.2 -33.1L-2.45 -32.85Q-2.2 -32.6 -2.2 -32.1L-2.2 -31.1L-2.2 -30.1L-3.2 -30.1" fill="rgb(25,24,22)" fill-opacity="1"></path><path d="M-5.25,-32Q-1.3 -31.1 -7.2 -31.1L-7.2 -32.1L-6.2 -32.1L-5.25 -32" fill="rgb(0,0,0)" fill-opacity="1"></path><path d="M47.8,-56.1L48.6 -55L48.8 -54.1L48.85 -53.1Q49.5 -48.9 47.8 -47.1L47.8 -48.1L47.8 -56.1M-24.75,-47.2Q-25.2 -49.1 -25.2 -51.1Q-23.5 -50.8 -24.1 -48.1L-24.2 -47.1L-24.75 -47.2" fill="rgb(94,83,79)" fill-opacity="1"></path><path d="M-33.2,-34.1L-33.2 -35.1L-33.2 -38.1L-30.2 -38.1L-29.2 -38.1Q-29.2 -37.6 -29.35 -37.55Q-30.7 -37.1 -32.2 -37.1L-32.2 -35.1L-32.2 -34.1L-33.2 -34.1" fill="rgb(96,90,87)" fill-opacity="1"></path><path d="M-40.2,-39.1L-33.25 -38.6L-33.2 -38.1L-34.2 -38.1L-40.2 -38.1L-40.2 -39.1" fill="rgb(77,73,39)" fill-opacity="1"></path><path d="M-33.4,-33.5L-35.2 -33.1L-36.2 -33.15Q-40.1 -33.65 -40.2 -38.1L-34.2 -38.1L-33.2 -38.1L-33.2 -35.1L-33.2 -34.1Q-33.2 -33.6 -33.4 -33.5" fill="rgb(14,19,14)" fill-opacity="1"></path><path d="M-26.45,-27.8Q-29.3 -30.05 -31.2 -29.1L-31.45 -29.85L-35.2 -33.1L-33.4 -33.5Q-33.2 -33.6 -33.2 -34.1L-32.2 -34.1Q-28.45 -31.85 -25.05 -29.35Q-24.7 -29.1 -24.2 -29.1Q-24.2 -28.6 -24.45 -28.35Q-24.7 -28.1 -25.2 -28.1L-25.2 -27.1L-26.2 -27.1Q-26.2 -27.6 -26.45 -27.8" fill="rgb(30,40,29)" fill-opacity="1"></path><path d="M-7.2,64.9L-8.2 64.85Q-24.35 62.55 -28.2 47.9L-28.2 46.9L-28.2 43.9L-28.1 42.9Q-27.5 39.7 -29.2 38.9L-29.2 37.9L-29.2 35.9L-29.2 34.9L-29.2 31.9L-28.65 31.8Q-27.45 27.15 -29.2 24.9L-29.2 23.9L-29.2 15.9L-29.2 14.9L-29.2 10.9L-29.1 9.9Q-28.5 7.2 -30.2 6.9Q-30.2 6.4 -30.45 6.15Q-32.95 3.7 -32.2 -2.1L-32.1 -3.1Q-31.5 -6.8 -33.2 -8.1L-33.2 -9.1L-33.2 -16.1Q-31.5 -17.4 -32.1 -21.1L-32.2 -22.1L-32.2 -23.1L-32.2 -26.1Q-30.55 -25.95 -31.1 -28.15L-31.2 -29.1Q-29.3 -30.05 -26.45 -27.8Q-26.2 -27.6 -26.2 -27.1L-26.3 -26.1Q-27 -22.9 -28.2 -20.1L-28.2 -15.1L-28.2 -14.1L-28.2 -9.1L-28.2 -8.1Q-28.2 -6.1 -27.75 -4.2L-27.2 -4.1Q-26 1.7 -25.25 7.9L-25.2 8.9Q-25.2 11.4 -24.7 13.8L-24.2 13.9L-24.2 17.9L-24.2 18.9Q-24.2 22.9 -23.7 26.85L-23.2 26.9L-23.2 34.9L-23.2 35.9L-23.2 38.9L-23.2 39.9Q-23.2 41.9 -22.75 43.8L-22.2 43.9Q-19.4 54.65 -10.1 58.7L-9.2 58.9L-4.15 59.75L-3.2 59.9Q-2.9 61.6 -0.2 61L0.8 60.9L0.8 61.9L0.8 62.9L0.9 63.85Q1.45 66.05 -0.2 65.9L-0.25 65.4L-7.2 64.9" fill="rgb(7,11,6)" fill-opacity="1"></path><path d="M-24.2,-29.1Q-19.8 -27 -16.05 -24.35Q-15.7 -24.1 -15.2 -24.1Q-14.7 -23.6 -14.1 -23.45L-12.7 -23.1Q-19 -19.35 -25.2 -27.1L-25.2 -28.1Q-24.7 -28.1 -24.45 -28.35Q-24.2 -28.6 -24.2 -29.1" fill="rgb(18,22,14)" fill-opacity="1"></path><path d="M-32.1,-21.1Q-31.5 -17.4 -33.2 -16.1L-33.2 -17.1L-33.2 -22.1L-32.2 -22.1L-32.1 -21.1" fill="rgb(96,98,96)" fill-opacity="1"></path><path d="M-32.2,-2.1L-32.7 -2.2Q-33.2 -5.1 -33.2 -8.1Q-31.5 -6.8 -32.1 -3.1L-32.2 -2.1" fill="rgb(65,68,65)" fill-opacity="1"></path><path d="M-27.75,-4.2Q-28.2 -6.1 -28.2 -8.1L-27.2 -8.1L-27.2 -5.1L-27.2 -4.1L-27.75 -4.2" fill="rgb(56,55,29)" fill-opacity="1"></path><path d="M-23.2,21.9L-23.2 18.9L-23.2 17.9L-23.2 6.9L-23.2 5.9L-23.2 3.9Q-19.35 -7.3 -10.05 -12.9L-9.2 -13.1Q-3.25 -11.05 -1.35 -5.05L-1.2 -4.1Q-3 17.6 -18.85 24.35Q-20.2 24.9 -22.1 23.75L-23.2 22.9L-23.2 21.9" fill="rgb(171,155,154)" fill-opacity="1"></path><path d="M10.8,-114.1L13.8 -114.1L14.8 -114.1L14.7 -113.55L10.8 -113.1L10.8 -114.1" fill="rgb(58,115,58)" fill-opacity="1"></path><path d="M33.8,-113.1L32.8 -113.05Q27.6 -112.35 24.8 -114.1L33.75 -113.6L33.8 -113.1" fill="rgb(55,100,55)" fill-opacity="1"></path><path d="M24.8,-99.1L26.85 -99.95L27.8 -100.1L27.55 -99.25Q26.75 -98.15 24.8 -98.1L24.8 -99.1" fill="rgb(122,121,117)" fill-opacity="1"></path><path d="M34.8,-109.1L33.8 -109.1L22.8 -109.1L22.8 -110.1L33.8 -110.1L34.8 -110.1L34.8 -109.1" fill="rgb(89,83,45)" fill-opacity="1"></path><path d="M34.8,-110.1L38.7 -109.65L38.8 -109.1L37.8 -109.1L34.8 -109.1L34.8 -110.1" fill="rgb(37,37,20)" fill-opacity="1"></path><path d="M46.8,-102Q43.6 -101.4 42.8 -103.1L47.7 -102.6L47.8 -102.1L46.8 -102" fill="rgb(154,140,126)" fill-opacity="1"></path><path d="M59.8,-95.1L59.25 -95.2Q58.8 -97.1 58.8 -99.1Q60.5 -98.8 59.9 -96.1L59.8 -95.1" fill="rgb(48,106,48)" fill-opacity="1"></path><path d="M31.8,-85.1L35.8 -85.1L36.8 -85.1Q45.55 -84.85 48.6 -79L48.8 -78.1L48.55 -77.35L47.8 -77.1Q47.3 -77.1 47.05 -77.35Q41.85 -83.15 31.8 -84.1L31.8 -85.1" fill="rgb(41,40,40)" fill-opacity="1"></path><path d="M49.55,-75.35Q49.3 -75.1 48.8 -75.1L48.6 -76L47.8 -77.1L48.55 -77.35L48.8 -78.1L49.6 -77L49.8 -76.1L49.55 -75.35" fill="rgb(35,35,35)" fill-opacity="1"></path><path d="M51.8,-69.1L50.8 -69.1L50.85 -70.1Q50.95 -71.7 48.8 -71.1Q48.8 -71.6 49.05 -71.75Q50 -72.4 48.8 -75.1Q49.3 -75.1 49.55 -75.35L49.8 -76.1Q51.5 -74.3 51.75 -71.1L51.8 -70.1L51.8 -69.1" fill="rgb(60,59,59)" fill-opacity="1"></path><path d="M49.05,-71.75Q48.8 -71.6 48.8 -71.1L47.95 -70.85Q46.15 -69.75 43.8 -69.1L43.6 -69.7Q42.1 -70.4 41.8 -72.1L41.7 -72.65L37.8 -73.1L37.8 -72.1L37.3 -72.1Q37.5 -69.4 35.8 -69.1L34.8 -69.1L25.8 -69.1L24.8 -69.1L21.8 -69.1L20.8 -69.1L18.8 -69.1L18.7 -69.65L14.8 -70.1L13.8 -70.1L13.55 -70.8Q10.45 -73.25 11.8 -80.1L12.55 -80.35L12.8 -81.1Q15.7 -81.65 17.9 -82.9L18.8 -83.1Q24.45 -71.5 29.6 -83.2L29.8 -84.1L30.8 -84.1L31.8 -84.1Q41.85 -83.15 47.05 -77.35Q47.3 -77.1 47.8 -77.1L48.6 -76L48.8 -75.1Q50 -72.4 49.05 -71.75" fill="rgb(245,245,245)" fill-opacity="1"></path><path d="M59.8,-70.1L59.8 -71.1L59.8 -79.1Q61.55 -76.35 60.85 -71.1L60.8 -70.1L59.8 -70.1" fill="rgb(78,72,71)" fill-opacity="1"></path><path d="M51.8,-65.1L51.8 -69.1L51.8 -70.1Q53.5 -68.35 52.35 -64.25L51.8 -64.1L51.8 -65.1" fill="rgb(139,126,126)" fill-opacity="1"></path><path d="M49.05,-62.35Q47.8 -63.6 46.8 -65.1Q49.5 -64.9 49.75 -67.1L49.8 -68.1L50.55 -68.35L50.8 -69.1L51.8 -69.1L51.8 -65.1L51.8 -64.1L51.55 -63.35L49.8 -62.1Q49.3 -62.1 49.05 -62.35" fill="rgb(80,79,79)" fill-opacity="1"></path><path d="M49.3,-68Q48.95 -66.45 46.8 -67.1L45.8 -67Q43.15 -66.45 43.8 -69.1Q46.15 -69.75 47.95 -70.85L48.8 -71.1Q50.95 -71.7 50.85 -70.1L50.8 -69.1L50.55 -68.35L49.8 -68.1L49.3 -68" fill="rgb(7,7,6)" fill-opacity="1"></path><path d="M37.8,-66.1L37.85 -67.1Q37.95 -68.7 35.8 -68.1L35.8 -69.1Q37.5 -69.4 37.3 -72.1L37.8 -72.1L40.8 -72.1L41.8 -72.1Q42.1 -70.4 43.6 -69.7L43.8 -69.1Q43.15 -66.45 45.8 -67L46.8 -67.1L46.8 -66.1L46.8 -65.1Q47.8 -63.6 49.05 -62.35Q49.3 -62.1 49.8 -62.1L49.8 -60.1L49.8 -59.1L49.8 -56.1L49.8 -55.1L49.8 -54.1L48.8 -54.1L48.6 -55L47.8 -56.1L47.65 -57.05Q45.15 -63.45 40.8 -68.1L40.6 -68.7L38.8 -69.1L38.8 -67.1L38.8 -66.1L37.8 -66.1" fill="rgb(29,28,27)" fill-opacity="1"></path><path d="M39.8,-68.1L39.8 -66.1L39.8 -65.1Q39.3 -65.1 39.05 -65.35Q38.8 -65.6 38.8 -66.1L38.8 -67.1L38.8 -69.1L40.6 -68.7L40.8 -68.1L39.8 -68.1" fill="rgb(59,52,50)" fill-opacity="1"></path><path d="M40.8,-72.1L37.8 -72.1L37.8 -73.1L41.7 -72.65L41.8 -72.1L40.8 -72.1" fill="rgb(136,136,136)" fill-opacity="1"></path><path d="M46.8,-66.1L46.8 -67.1Q48.95 -66.45 49.3 -68L49.8 -68.1L49.75 -67.1Q49.5 -64.9 46.8 -65.1L46.8 -66.1" fill="rgb(123,108,102)" fill-opacity="1"></path><path d="M26.8,-50.1L26.8 -51.1L26.8 -53.1Q28.3 -54.1 29.2 -55.9Q29.3 -56.1 29.8 -56.1L32.8 -56.1L33.8 -56.1Q35.95 -56.7 36.3 -55.2L36.8 -55.1Q37.8 -52.75 38.65 -55.15L38.8 -56.1Q40.5 -56.4 39.9 -59.1L39.8 -60.1L39.8 -61.1L39.8 -65.1L39.8 -66.1L39.8 -68.1L40.8 -68.1Q45.15 -63.45 47.65 -57.05L47.8 -56.1L47.8 -48.1L47.8 -47.1L47.6 -46.2L45.8 -43.1L45.8 -42.1L45.55 -41.35L42.8 -39.1L42.8 -38.1L42.2 -37.9Q41.5 -36.4 39.8 -36.1L39.8 -35.1L39.8 -34.1L38.85 -33.95Q35.15 -32.75 29.8 -33.1L28.8 -33.15Q26.6 -33.4 26.8 -36.1L26.8 -37.1L26.8 -50.1" fill="rgb(130,114,108)" fill-opacity="1"></path><path d="M49.8,-55.1L49.8 -56.1L49.8 -59.1Q51.5 -58.8 50.9 -56.1L50.8 -55.1L49.8 -55.1" fill="rgb(112,102,101)" fill-opacity="1"></path><path d="M50.8,-55.1L50.8 -52.1L50.8 -51.1L49.8 -51.1L49.8 -52.1L49.8 -54.1L49.8 -55.1L50.8 -55.1" fill="rgb(62,57,56)" fill-opacity="1"></path><path d="M50.8,-47.1L50.75 -46.1Q50.55 -42.35 47.8 -41.1Q47.8 -41.6 47.6 -41.7L45.8 -42.1L45.8 -43.1L47.6 -46.2L47.8 -47.1Q49.5 -48.9 48.85 -53.1L48.8 -54.1L49.8 -54.1L49.8 -52.1L49.8 -51.1Q49.8 -49.1 50.25 -47.2L50.8 -47.1" fill="rgb(56,51,48)" fill-opacity="1"></path><path d="M60.8,-64.1L60.9 -63.1Q61.5 -60.4 59.8 -60.1L59.8 -61.1L59.8 -70.1L60.8 -70.1L60.8 -69.1L60.8 -68.1L60.8 -65.1L60.8 -64.1" fill="rgb(92,92,92)" fill-opacity="1"></path><path d="M57.8,-57.1L57.7 -56.55L53.8 -56.1L53.8 -55.1Q53.3 -55.1 53.2 -55.3Q52.8 -56.1 52.8 -57.1L56.8 -57.1L57.8 -57.1" fill="rgb(122,111,110)" fill-opacity="1"></path><path d="M69.8,-53.1L57.8 -53.1L56.85 -53Q54.7 -52.45 54.8 -54.1L70.75 -53.6L70.8 -53.1L69.8 -53.1" fill="rgb(81,82,81)" fill-opacity="1"></path><path d="M50.25,-47.2Q49.8 -49.1 49.8 -51.1L50.8 -51.1L50.8 -48.1L50.8 -47.1L50.25 -47.2" fill="rgb(37,34,32)" fill-opacity="1"></path><path d="M65.9,-73.1L65.8 -72.1L64.8 -72.1L64.8 -73.1L64.8 -76.1Q66.5 -75.8 65.9 -73.1" fill="rgb(58,122,58)" fill-opacity="1"></path><path d="M65.8,-64.1L65.9 -63.15Q66.45 -60.95 64.8 -61.1L64.8 -62.1L64.8 -72.1L65.8 -72.1L65.8 -71.1L65.8 -65.1L65.8 -64.1" fill="rgb(11,47,12)" fill-opacity="1"></path><path d="M60.8,-65.1L60.8 -68.1Q62.5 -67.3 61.35 -64.25L60.8 -64.1L60.8 -65.1" fill="rgb(26,28,26)" fill-opacity="1"></path><path d="M65.8,-65.1L65.8 -71.1Q67.55 -68.85 66.35 -64.2L65.8 -64.1L65.8 -65.1" fill="rgb(27,160,27)" fill-opacity="1"></path><path d="M69.8,-52.05Q62.55 -51.35 57.8 -53.1L69.8 -53.1L70.8 -53.1L70.8 -52.1L69.8 -52.05" fill="rgb(125,120,120)" fill-opacity="1"></path><path d="M74.8,-56.1L65.8 -56.1Q65.3 -56.1 65.05 -56.35Q64.8 -56.6 64.8 -57.1L75.75 -56.6L75.8 -56.1L74.8 -56.1" fill="rgb(30,161,30)" fill-opacity="1"></path><path d="M75.8,-56.1L75.8 -55.1L74.8 -55.05Q69.05 -54.35 65.8 -56.1L74.8 -56.1L75.8 -56.1" fill="rgb(9,39,9)" fill-opacity="1"></path><path d="M32.8,-86.1L31.8 -86.1L31.8 -85.1L31.8 -84.1L30.8 -84.1L29.8 -84.1Q29.3 -84.1 29.2 -84.3Q28.8 -85.1 28.8 -86.1Q29.8 -86.1 30.6 -86.5L30.8 -87.1L31.8 -87.1L32.8 -87.1L32.8 -86.1" fill="rgb(59,60,60)" fill-opacity="1"></path><path d="M32.8,-87.1L36.7 -86.65L36.8 -86.1L35.8 -86.1L32.8 -86.1L32.8 -87.1" fill="rgb(79,75,75)" fill-opacity="1"></path><path d="M28.8,-87.1L22.8 -87.1L22.8 -88.1L29.75 -87.6L29.8 -87.1L28.8 -87.1" fill="rgb(145,143,143)" fill-opacity="1"></path><path d="M16.8,-93.1Q19.85 -96.05 23.9 -97.9L24.8 -98.1L24.55 -97.35Q21.2 -94.2 16.8 -92.1L16.8 -93.1" fill="rgb(122,121,115)" fill-opacity="1"></path><path d="M18.8,-85.1L18.8 -86.1L21.8 -86.1L22.8 -86.1L22.65 -85.55L19.8 -85.1L18.8 -85.1" fill="rgb(84,76,76)" fill-opacity="1"></path><path d="M31.8,-86.1L32.8 -86.1L35.8 -86.1L36.8 -86.1L36.8 -85.1L35.8 -85.1L31.8 -85.1L31.8 -86.1" fill="rgb(38,38,38)" fill-opacity="1"></path><path d="M15.8,-90.1L15.75 -89.1Q15.5 -87.4 13.8 -87.1L13.8 -88.1L13.8 -89.1Q14.3 -89.6 14.9 -89.9L15.8 -90.1" fill="rgb(125,122,114)" fill-opacity="1"></path><path d="M15.65,-84.55L12.8 -84.1L12.8 -85.1L12.8 -86.1L12.8 -87.1L13.8 -87.1Q13.2 -84.95 14.8 -85.05L15.8 -85.1L15.65 -84.55" fill="rgb(123,115,110)" fill-opacity="1"></path><path d="M12.55,-83.35L11.8 -83.1L11.8 -82.1L11.65 -81.55L8.8 -81.1L8.8 -82.1L8.8 -84.1Q10.3 -85.1 11.9 -85.9L12.8 -86.1L12.8 -85.1L12.8 -84.1L12.55 -83.35" fill="rgb(116,116,111)" fill-opacity="1"></path><path d="M12.55,-81.85L12.8 -81.1L12.55 -80.35L11.8 -80.1L10.8 -80.1L10.8 -79.1L10.8 -78.1L9.8 -78.1L9.6 -78.7L7.8 -79.1L6.95 -79.35Q4.6 -80.9 2.8 -83.1L3.55 -83.35L3.8 -84.1Q6.55 -83.4 8.1 -81.35Q8.3 -81.1 8.8 -81.1L11.65 -81.55L11.8 -82.1L12.55 -81.85" fill="rgb(38,38,36)" fill-opacity="1"></path><path d="M9.9,-77.15Q10.45 -74.95 8.8 -75.1L8.9 -76.05Q9.45 -78.2 7.8 -78.1L7.8 -79.1L9.6 -78.7L9.8 -78.1L9.9 -77.15" fill="rgb(45,45,45)" fill-opacity="1"></path><path d="M8.8,-72.1L8.8 -75.1Q10.45 -74.95 9.9 -77.15L9.8 -78.1L10.8 -78.1L10.8 -72.1L10.8 -71.1L9.8 -71.1L8.8 -71.1L8.8 -72.1" fill="rgb(64,64,64)" fill-opacity="1"></path><path d="M7.8,-71.1L7.8 -72.1L7.8 -78.1Q9.45 -78.2 8.9 -76.05L8.8 -75.1L8.8 -72.1L8.8 -71.1L7.8 -71.1" fill="rgb(148,148,148)" fill-opacity="1"></path><path d="M11.8,-82.1L11.8 -83.1L12.55 -83.35L12.8 -84.1L15.65 -84.55L15.8 -85.1L17.8 -85.1L18.8 -85.1L19.8 -85.1L19.55 -84.35Q19.3 -84.1 18.8 -84.1L18.8 -83.1L17.9 -82.9Q15.7 -81.65 12.8 -81.1L12.55 -81.85L11.8 -82.1" fill="rgb(60,60,60)" fill-opacity="1"></path><path d="M10.8,-78.1L10.8 -79.1L10.8 -80.1L11.8 -80.1Q10.45 -73.25 13.55 -70.8L13.8 -70.1L12.85 -70Q10.7 -69.45 10.8 -71.1L10.8 -72.1L10.8 -78.1" fill="rgb(128,128,128)" fill-opacity="1"></path><path d="M17.8,-69Q15.1 -68.4 14.8 -70.1L18.7 -69.65L18.8 -69.1L17.8 -69" fill="rgb(77,77,77)" fill-opacity="1"></path><path d="M10.25,-65.25Q9.85 -66.6 9.8 -68.1L11.6 -67.7Q11.8 -67.6 11.8 -67.1L10.8 -67.1L10.8 -66.1L10.8 -65.1Q10.3 -65.1 10.25 -65.25" fill="rgb(33,32,32)" fill-opacity="1"></path><path d="M12.8,-67.1Q13.1 -65.4 15.8 -66L16.8 -66.1L20.8 -66.1L21.8 -66.1Q22.6 -64.4 25.8 -65L26.8 -65.1L35.8 -65.1L36.8 -65.1L36.8 -64.1L36.8 -63.1L36.9 -62.15Q37.45 -59.95 35.8 -60.1L34.8 -60.1L31.8 -60.1L30.8 -60.1L17.8 -60.1L16.9 -60.3Q14.55 -61.35 11.8 -62.1L11.25 -62.25Q10.85 -63.6 10.8 -65.1L10.8 -66.1L10.8 -67.1L11.8 -67.1L12.8 -67.1" fill="rgb(129,115,108)" fill-opacity="1"></path><path d="M16.8,-66.1L15.8 -66Q13.1 -65.4 12.8 -67.1L16.7 -66.65L16.8 -66.1" fill="rgb(87,76,72)" fill-opacity="1"></path><path d="M3.8,-69.1L4.8 -69.1L4.7 -68.6Q-2.45 -67.35 -7.2 -69.1L3.8 -69.1" fill="rgb(61,61,61)" fill-opacity="1"></path><path d="M31.8,-59.1L35.7 -59.55L35.8 -60.1Q37.45 -59.95 36.9 -62.15L36.8 -63.1Q38.55 -60.35 37.35 -55.2L36.8 -55.1L36.3 -55.2Q35.95 -56.7 33.8 -56.1L33.7 -56.65L29.8 -57.1L29.8 -56.1Q29.3 -56.1 29.2 -55.9Q28.3 -54.1 26.8 -53.1L26.8 -51.1L26.8 -50.1L25.8 -50.1L25.8 -49.1L24.8 -49.1L24.8 -50.1L24.8 -52.1L24.9 -53.1Q25.5 -55.8 23.8 -56.1L23.7 -56.6L17.8 -57.1L17.3 -57.2Q16.95 -58.7 14.8 -58.1L14.75 -58.6L2.8 -59.1L2.8 -58.1L1.8 -58Q-0.9 -57.4 -1.2 -59.1L1.8 -59.1L2.8 -59.1L2.8 -60.1Q5.7 -60.2 7.1 -61.85Q7.3 -62.1 7.8 -62.1Q8.6 -60.4 11.65 -61.55L11.8 -62.1Q14.55 -61.35 16.9 -60.3L17.8 -60.1Q17.7 -58.45 19.85 -59L20.8 -59.1Q25.05 -57.35 31.7 -58.6L31.8 -59.1" fill="rgb(23,23,23)" fill-opacity="1"></path><path d="M13.8,-58.1L2.8 -58.1L2.8 -59.1L14.75 -58.6L14.8 -58.1L13.8 -58.1" fill="rgb(116,105,105)" fill-opacity="1"></path><path d="M31.8,-59.1L30.8 -59.1L20.8 -59.1L19.85 -59Q17.7 -58.45 17.8 -60.1L30.8 -60.1L31.8 -60.1L31.8 -59.1" fill="rgb(98,90,87)" fill-opacity="1"></path><path d="M22.8,-56.1L19.8 -56.1L18.9 -56.3Q18.3 -56.6 17.8 -57.1L23.7 -56.6L23.8 -56.1L22.8 -56.1" fill="rgb(95,95,95)" fill-opacity="1"></path><path d="M25.8,-69.1L34.8 -69.1L35.8 -69.1L35.8 -68.1L34.8 -68.1L25.8 -68.1L25.8 -69.1" fill="rgb(121,121,121)" fill-opacity="1"></path><path d="M39.8,-61.1L39.8 -60.1L38.8 -60.1L38.8 -57.1L38.8 -56.1L38.65 -55.15Q37.8 -52.75 36.8 -55.1L37.35 -55.2Q38.55 -60.35 36.8 -63.1L36.8 -64.1L36.8 -65.1Q37.3 -65.1 37.55 -65.35L37.8 -66.1L38.8 -66.1Q38.8 -65.6 39.05 -65.35Q39.3 -65.1 39.8 -65.1L39.8 -61.1" fill="rgb(47,43,41)" fill-opacity="1"></path><path d="M25.8,-68.1L24.8 -68Q22.1 -67.4 21.8 -69.1L24.8 -69.1L25.8 -69.1L25.8 -68.1" fill="rgb(62,62,62)" fill-opacity="1"></path><path d="M26.8,-65.1L25.8 -65Q22.6 -64.4 21.8 -66.1L26.7 -65.6L26.8 -65.1" fill="rgb(58,51,48)" fill-opacity="1"></path><path d="M32.8,-56.1L29.8 -56.1L29.8 -57.1L33.7 -56.65L33.8 -56.1L32.8 -56.1" fill="rgb(67,60,58)" fill-opacity="1"></path><path d="M23.8,-52.1L23.55 -52.85L19.8 -56.1L22.8 -56.1L23.8 -56.1Q25.5 -55.8 24.9 -53.1L24.8 -52.1L23.8 -52.1" fill="rgb(122,121,121)" fill-opacity="1"></path><path d="M24.6,-48.2L23.8 -47.1L23.8 -48.1L23.8 -52.1L24.8 -52.1L24.8 -50.1L24.8 -49.1L24.6 -48.2" fill="rgb(86,78,78)" fill-opacity="1"></path><path d="M26.8,-37.1L26.8 -36.1L25.8 -36.1L25.8 -37.1L25.8 -49.1L25.8 -50.1L26.8 -50.1L26.8 -37.1" fill="rgb(82,73,68)" fill-opacity="1"></path><path d="M35.7,-59.55L31.8 -59.1L31.8 -60.1L34.8 -60.1L35.8 -60.1L35.7 -59.55" fill="rgb(76,69,65)" fill-opacity="1"></path><path d="M38.8,-57.1L38.8 -60.1L39.8 -60.1L39.9 -59.1Q40.5 -56.4 38.8 -56.1L38.8 -57.1" fill="rgb(84,74,70)" fill-opacity="1"></path><path d="M31.7,-58.6Q25.05 -57.35 20.8 -59.1L30.8 -59.1L31.8 -59.1L31.7 -58.6" fill="rgb(63,63,63)" fill-opacity="1"></path><path d="M24.2,-34.3Q23.8 -35.1 23.8 -36.1L23.8 -37.1L23.8 -47.1L24.6 -48.2L24.8 -49.1L25.8 -49.1L25.8 -37.1L25.8 -36.1L24.8 -36.1L24.8 -35.1L24.8 -34.1L24.2 -34.3" fill="rgb(26,24,22)" fill-opacity="1"></path><path d="M22.8,-40.1L22.8 -41.1L22.8 -47.1L23.8 -47.1L23.8 -37.1L23.8 -36.1Q23.3 -36.1 23.2 -36.3Q22.8 -37.1 22.8 -38.1L22.8 -39.1L22.8 -40.1" fill="rgb(78,75,71)" fill-opacity="1"></path><path d="M22.8,-39.1L21.8 -39.05Q15.05 -38.35 10.8 -40.1L21.8 -40.1L22.8 -40.1L22.8 -39.1" fill="rgb(145,139,139)" fill-opacity="1"></path><path d="M21.8,-38.05Q10.65 -36.5 5.8 -41.1L9.8 -40.2L10.8 -40.1Q15.05 -38.35 21.8 -39.05L22.8 -39.1L22.8 -38.1L21.8 -38.05" fill="rgb(129,129,123)" fill-opacity="1"></path><path d="M31.8,-31.6L31.8 -31.1L30.8 -31.1L25.8 -31.1Q25.3 -31.1 25.25 -31.25Q24.85 -32.6 24.8 -34.1L24.8 -35.1L24.8 -36.1L25.8 -36.1L26.8 -36.1Q26.6 -33.4 28.8 -33.15L29.8 -33.1Q29.7 -31.45 31.8 -31.6" fill="rgb(16,15,13)" fill-opacity="1"></path><path d="M43.6,-37L43.8 -36.1L43.55 -35.35L41.8 -34.1L40.8 -34.1L39.8 -34.1L39.8 -35.1L39.8 -36.1Q41.5 -36.4 42.2 -37.9L42.8 -38.1L43.6 -37" fill="rgb(27,25,23)" fill-opacity="1"></path><path d="M37.7,-30.6Q30.55 -29.35 25.8 -31.1L30.8 -31.1L31.8 -31.1L36.8 -31.1L37.8 -31.1L37.7 -30.6" fill="rgb(67,61,36)" fill-opacity="1"></path><path d="M40.8,-34.1L41.8 -34.1L41.65 -33.55Q39.25 -32.65 37.8 -31.1L36.8 -31.1L31.8 -31.1L31.8 -31.6Q29.7 -31.45 29.8 -33.1Q35.15 -32.75 38.85 -33.95L39.8 -34.1L40.8 -34.1" fill="rgb(40,36,34)" fill-opacity="1"></path><path d="M16.75,-16.6L8.8 -16.1L8.8 -17.1L15.8 -17.1L16.8 -17.1L16.75 -16.6" fill="rgb(136,124,90)" fill-opacity="1"></path><path d="M20.9,52.1Q20.3 52.4 19.8 52.9L19.15 52.65Q10.35 40.35 7.8 21.9L7.9 20.9Q8.5 17.7 6.8 16.9L6.8 15.9L6.8 14.9L6.9 13.9Q7.5 11.2 5.8 10.9L5.8 9.9L5.8 5.9L5.8 4.9L5.8 -9.1Q6.9 -12.5 8.6 -15.25L8.8 -16.1L16.75 -16.6L16.8 -17.1L22.8 -17.1L23.8 -17.1L27.7 -17.55L27.8 -18.1L29.8 -18.1L30.8 -18.1L33.8 -18.1L34.8 -18.1Q44.9 -9.2 49.65 4.95L49.8 5.9L49.8 10.9L49.8 11.9L49.8 12.9Q49.55 18.15 46.8 20.9L46.8 25.9L46.8 26.9L45.8 26.9L45.8 34.9L45.8 35.9L44.8 35.9L21.8 35.9L21.8 50.9L21.8 51.9L20.9 52.1" fill="rgb(172,155,155)" fill-opacity="1"></path><path d="M5.8,5.9L5.3 5.85Q4.8 -1.6 4.8 -9.1L5.8 -9.1L5.8 4.9L5.8 5.9" fill="rgb(133,122,84)" fill-opacity="1"></path><path d="M33.8,-18.1L30.8 -18.1L30.8 -19.1L34.7 -18.65L34.8 -18.1L33.8 -18.1" fill="rgb(141,129,100)" fill-opacity="1"></path><path d="M27.7,-17.55L23.8 -17.1L23.8 -18.1L26.8 -18.1L27.8 -18.1L27.7 -17.55" fill="rgb(150,136,115)" fill-opacity="1"></path><path d="M71.8,-47.1L71.8 -51.1Q73.5 -49.8 72.35 -46.25L71.8 -46.1L71.8 -47.1" fill="rgb(50,51,44)" fill-opacity="1"></path><path d="M51.8,-38.1L51.2 -38.3Q50.8 -39.1 50.8 -40.1L62.8 -40.1L63.8 -40.1L63.8 -39.1L62.9 -38.9Q62.3 -38.6 61.8 -38.1L61.75 -38.6L51.8 -39.1L51.8 -38.1" fill="rgb(83,91,84)" fill-opacity="1"></path><path d="M53.8,-37.1L52.9 -37.3L51.8 -38.1L51.8 -39.1L61.75 -38.6L61.8 -38.1L61.55 -37.35Q61.3 -37.1 60.8 -37.1L60.75 -37.6L53.8 -38.1L53.8 -37.1" fill="rgb(35,49,34)" fill-opacity="1"></path><path d="M68.1,-39.85Q67 -38.4 63.8 -39.1L63.8 -40.1Q66.55 -39.9 67.95 -40.85L68.8 -41.1L68.8 -40.1L68.1 -39.85" fill="rgb(60,127,58)" fill-opacity="1"></path><path d="M55.8,-34.1L55.9 -35.1Q56.45 -37.75 53.8 -37.1L53.8 -38.1L60.75 -37.6L60.8 -37.1Q60.3 -37.1 60.15 -36.9Q58.95 -34.95 56.8 -34.1L55.8 -34.1" fill="rgb(13,30,13)" fill-opacity="1"></path><path d="M43.8,-36.1L43.6 -37L42.8 -38.1L42.8 -39.1L45.55 -41.35L45.8 -42.1L47.6 -41.7Q47.8 -41.6 47.8 -41.1L47.55 -40.35L44.8 -38.1L44.8 -37.1L44.8 -36.1L43.8 -36.1" fill="rgb(32,29,28)" fill-opacity="1"></path><path d="M47.55,-30.35L44.8 -28.1Q44.3 -28.1 44.05 -28.35Q43.8 -28.6 43.8 -29.1Q45.3 -30.1 45.7 -32.1L45.8 -33.1Q47.45 -33.2 47.3 -31.1L47.8 -31.1L47.55 -30.35" fill="rgb(158,143,134)" fill-opacity="1"></path><path d="M49.8,63.9L49.8 64.9L49.55 65.75Q43.9 74 33.8 77.9L32.8 77.9L21.8 77.9L20.8 77.9L20.8 76.9L20.8 75.9Q22.45 74.55 25.8 74.4L25.8 73.9Q27.95 74.55 28.3 73L28.8 72.9Q42.4 70.5 47.6 59.8L47.8 58.9L48.3 58.8Q49.55 51.15 47.8 45.9L47.85 44.9Q48 42.2 45.8 41.9L45.8 40.9L45.8 38.9Q47.55 34.65 46.85 27.9L46.8 26.9L46.8 25.9L46.8 20.9Q49.55 18.15 49.8 12.9L49.8 11.9Q51.5 10.6 50.9 6.9L50.8 5.9L50.8 4.9L50.8 1.9Q52.5 1.1 51.9 -2.1L51.8 -3.1Q53.5 -3.4 52.9 -6.1L52.8 -7.1Q52.65 -17.45 50.15 -25.9L49.75 -27.05Q44.5 -22.1 40.8 -25.1Q42.25 -26.65 44.65 -27.55L44.8 -28.1L47.55 -30.35L47.8 -31.1L54.85 -33.95L55.8 -34.1L56.8 -34.1L56.55 -33.25Q55.35 -31.55 52.8 -31.1Q54.1 -26.4 56.55 -22.95L56.8 -22.1L56.8 -18.1L56.8 -17.1L56.8 -13.1L56.8 -12.1L55.8 -12.1L55.8 -8.1L55.8 -7.1L55.8 -5.1L55.8 -4.1L54.8 -4.1L54.8 -1.1L54.8 -0.95L54.45 0.75L53.8 0.9L53.8 2.9L53.8 3.9L53.85 4.3L53.4 7.7L52.8 7.9L52.8 14.9L52.8 15.9L51.8 15.9L51.8 21.9L51.8 22.9L51.8 25.9L51.8 26.9L50.8 26.9L50.8 41.9L50.8 42.9Q50.8 44.9 51.25 46.8L51.8 46.9L51.8 48.9L51.8 49.9L51.8 56.9L51.8 57.9L51.8 59.3L51.55 60.4L51.45 60.9L51.3 60.9L51.35 61.55L51.05 63Q50.65 63.75 49.8 63.9" fill="rgb(10,14,9)" fill-opacity="1"></path><path d="M56.8,-12.1L56.9 -11.1Q57.5 -7.9 55.8 -7.1L55.8 -8.1L55.8 -12.1L56.8 -12.1" fill="rgb(57,114,57)" fill-opacity="1"></path><path d="M51.8,-3.1L51.8 -4.1L51.8 -7.1L52.8 -7.1L52.9 -6.1Q53.5 -3.4 51.8 -3.1" fill="rgb(76,72,38)" fill-opacity="1"></path><path d="M55.8,-4.1L55.85 -3.5Q55.15 -2.55 54.9 -1.4L54.8 -0.95L54.8 -1.1L54.8 -4.1L55.8 -4.1" fill="rgb(56,128,56)" fill-opacity="1"></path><path d="M53.8,3.9L53.8 2.9L53.8 0.9L54.45 0.75L53.9 3.9L53.8 3.9" fill="rgb(48,134,48)" fill-opacity="1"></path><path d="M53.9,3.9L53.85 4.3L53.8 3.9L53.9 3.9M52.8,15.9L52.8 14.9L52.8 7.9L53.4 7.7Q52.85 12.7 53 17.8L52.85 16.9L52.8 15.9M51.8,49.9L51.8 48.9L51.8 46.9L51.8 45.9L51.8 42.9L51.8 41.9L51.8 26.9L51.8 25.9L51.8 22.9Q52.95 21.7 53.05 19.45Q53.2 23.6 53.85 27.75L54.05 29.7Q54.95 41.7 53.9 53.55Q53.35 53.95 53.25 54.65Q53.05 56.2 52.45 57.55L52.4 57.75Q53.55 52.65 51.8 49.9M51.8,57.9L52.35 57.85L51.8 59.3L51.8 57.9" fill="rgb(185,185,185)" fill-opacity="1"></path><path d="M49.8,10.9L49.8 5.9L50.8 5.9L50.9 6.9Q51.5 10.6 49.8 11.9L49.8 10.9" fill="rgb(44,43,40)" fill-opacity="1"></path><path d="M51.8,22.9L51.8 21.9L51.8 15.9L52.8 15.9L52.85 16.9L53 17.8L53.05 19.45Q52.95 21.7 51.8 22.9" fill="rgb(123,125,123)" fill-opacity="1"></path><path d="M50.8,42.9L50.8 41.9L50.8 26.9L51.8 26.9L51.8 41.9L51.8 42.9L50.8 42.9" fill="rgb(123,126,123)" fill-opacity="1"></path><path d="M45.8,37.9L45.8 35.9L45.8 34.9L45.8 26.9L46.8 26.9L46.85 27.9Q47.55 34.65 45.8 38.9L45.8 37.9" fill="rgb(55,52,49)" fill-opacity="1"></path><path d="M23.6,52.3L21.8 51.9L21.8 50.9L21.8 35.9L44.8 35.9L45.8 35.9L45.8 37.9L45.8 38.9L45.8 40.9L45.8 41.9L45.2 42.1Q39.7 52.8 23.8 52.9Q23.8 52.4 23.6 52.3" fill="rgb(165,140,144)" fill-opacity="1"></path><path d="M28.8,72.9L28.8 71.9L28.8 70.9Q38.2 58.8 47.15 46.15Q47.3 45.9 47.8 45.9L47.8 57.9L47.8 58.9L47.6 59.8Q42.4 70.5 28.8 72.9" fill="rgb(162,138,142)" fill-opacity="1"></path><path d="M50.8,42.9L51.8 42.9L51.8 45.9L51.8 46.9L51.25 46.8Q50.8 44.9 50.8 42.9" fill="rgb(79,82,79)" fill-opacity="1"></path><path d="M6.8,14.9L6.25 14.8Q5.8 12.9 5.8 10.9Q7.5 11.2 6.9 13.9L6.8 14.9" fill="rgb(139,127,96)" fill-opacity="1"></path><path d="M7.8,21.9L7.3 21.8Q6.8 19.4 6.8 16.9Q8.5 17.7 7.9 20.9L7.8 21.9" fill="rgb(146,133,109)" fill-opacity="1"></path><path d="M23.8,52.9Q23.3 52.9 23.15 53.15Q21 56.15 19.8 52.9Q20.3 52.4 20.9 52.1L21.8 51.9L23.6 52.3Q23.8 52.4 23.8 52.9" fill="rgb(151,136,118)" fill-opacity="1"></path><path d="M20.8,68.9L21.8 68.9L21.8 72.9L21.8 73.9L20.8 73.9L20.9 72.9Q21.5 70.2 19.8 69.9L19.8 68.9L20.8 68.9" fill="rgb(49,48,35)" fill-opacity="1"></path><path d="M20.8,75.9L20.8 76.9L20.8 77.9L19.8 77.9L19.8 76.9L19.8 69.9Q21.5 70.2 20.9 72.9L20.8 73.9L20.8 74.9L20.8 75.9" fill="rgb(63,61,48)" fill-opacity="1"></path><path d="M25.8,74.4Q22.45 74.55 20.8 75.9L20.8 74.9L20.8 73.9L21.8 73.9L24.8 73.9L25.8 73.9L25.8 74.4" fill="rgb(31,33,21)" fill-opacity="1"></path><path d="M19.8,66.9L19.8 62.9Q22.95 63.2 21.9 67.9L21.8 68.9L20.8 68.9L19.8 68.9L19.8 67.9L19.8 66.9" fill="rgb(57,56,52)" fill-opacity="1"></path><path d="M-0.2,59.9L-3.2 59.9L-4.15 59.75L-9.2 58.9L-9.2 57.9L-9.2 48.9Q2.45 37.05 0.85 58.9L0.8 59.9L-0.2 59.9" fill="rgb(152,126,126)" fill-opacity="1"></path><path d="M0.8,59.9L0.8 60.9L-0.2 61Q-2.9 61.6 -3.2 59.9L-0.2 59.9L0.8 59.9" fill="rgb(120,104,100)" fill-opacity="1"></path><path d="M-0.2,65.9Q1.45 66.05 0.9 63.85L0.8 62.9L1.6 64L1.8 64.9L1.6 65.8L0.8 66.9L-0.2 67Q-3.9 67.6 -5.2 65.9L-1.2 65.9L-0.2 65.9" fill="rgb(113,126,113)" fill-opacity="1"></path><path d="M20.9,83.9L20.8 84.9L20.55 85.65Q16.45 90.05 7.8 89.9L7 89.65Q3.1 86.6 0.8 81.9L0.8 80.9L0.8 66.9L1.6 65.8L1.8 64.9Q5.75 62.35 4.85 68.9L4.8 69.9L3.8 69.9Q3.8 74.9 4.3 79.85L4.8 79.9Q6.35 82.35 8.9 83.7L9.8 83.9Q11.1 85.6 14.65 84.45L14.8 83.9L19.55 79.65L19.8 78.9Q21.5 80.2 20.9 83.9" fill="rgb(12,17,11)" fill-opacity="1"></path><path d="M4.8,69.9L4.8 78.9L4.8 79.9L4.3 79.85Q3.8 74.9 3.8 69.9L4.8 69.9" fill="rgb(74,72,59)" fill-opacity="1"></path><path d="M19.8,67.9L19.3 67.8Q18.8 65.4 18.8 62.9L19.8 62.9L19.8 66.9L19.8 67.9" fill="rgb(87,84,61)" fill-opacity="1"></path><path d="M14.65,84.45Q11.1 85.6 9.8 83.9L13.8 83.9L14.8 83.9L14.65 84.45" fill="rgb(55,54,29)" fill-opacity="1"></path><path d="M19.8,78.9L19.8 77.9L20.8 77.9L21.8 77.9L21.85 78.9Q22.5 83.1 20.8 84.9L20.9 83.9Q21.5 80.2 19.8 78.9" fill="rgb(47,51,45)" fill-opacity="1"></path><path d="M51.8,49.9Q53.55 52.65 52.4 57.75L52.35 57.85L51.8 57.9L51.8 56.9L51.8 49.9" fill="rgb(31,92,31)" fill-opacity="1"></path><path d="M51.45,60.9L51.35 61.55L51.3 60.9L51.45 60.9M51.05,63L50.65 64.9L49.8 64.9L49.8 63.9Q50.65 63.75 51.05 63" fill="rgb(171,171,171)" fill-opacity="1"></path><path d="M48.3,58.8L47.8 58.9L47.8 57.9L47.8 45.9Q49.55 51.15 48.3 58.8" fill="rgb(46,43,41)" fill-opacity="1"></path><path d="M-30.2,10.9L-30.2 9.9L-30.2 6.9Q-28.5 7.2 -29.1 9.9L-29.2 10.9L-30.2 10.9" fill="rgb(93,95,93)" fill-opacity="1"></path><path d="M-29.2,15.9L-29.7 15.8Q-30.2 13.4 -30.2 10.9L-29.2 10.9L-29.2 14.9L-29.2 15.9" fill="rgb(141,142,141)" fill-opacity="1"></path><path d="M-24.7,13.8Q-25.2 11.4 -25.2 8.9L-24.2 8.9L-24.2 12.9L-24.2 13.9L-24.7 13.8" fill="rgb(55,56,46)" fill-opacity="1"></path><path d="M-23.2,17.9L-23.2 18.9L-24.2 18.9L-24.2 17.9L-24.2 13.9L-24.2 12.9L-24.2 8.9L-24.2 7.9L-24.2 6.9L-23.2 6.9L-23.2 17.9" fill="rgb(146,138,131)" fill-opacity="1"></path><path d="M-23.7,26.85Q-24.2 22.9 -24.2 18.9L-23.2 18.9L-23.2 21.9L-23.2 22.9L-23.2 25.9L-23.2 26.9L-23.7 26.85" fill="rgb(72,71,52)" fill-opacity="1"></path><path d="M-29.2,31.9L-29.2 30.9L-29.2 24.9Q-27.45 27.15 -28.65 31.8L-29.2 31.9" fill="rgb(45,47,45)" fill-opacity="1"></path><path d="M-29.2,35.9L-29.75 35.8L-30.2 31.9L-29.2 31.9L-29.2 34.9L-29.2 35.9" fill="rgb(145,154,145)" fill-opacity="1"></path><path d="M-23.2,38.9L-23.2 35.9Q-21.5 36.2 -22.1 38.9L-22.2 39.9L-23.2 39.9L-23.2 38.9" fill="rgb(43,43,23)" fill-opacity="1"></path><path d="M-22.75,43.8Q-23.2 41.9 -23.2 39.9L-22.2 39.9L-22.2 42.9L-22.2 43.9L-22.75 43.8" fill="rgb(65,62,36)" fill-opacity="1"></path><path d="M-29.2,43.9L-29.2 42.9L-29.2 38.9Q-27.5 39.7 -28.1 42.9L-28.2 43.9L-29.2 43.9" fill="rgb(10,39,10)" fill-opacity="1"></path><path d="M-28.2,43.9L-28.2 46.9L-28.2 47.9L-28.75 47.8Q-29.2 45.9 -29.2 43.9L-28.2 43.9" fill="rgb(57,78,57)" fill-opacity="1"></path><path d="M-0.25,65.4L-0.2 65.9L-1.2 65.9L-5.2 65.9L-6.1 65.7L-7.2 64.9L-0.25 65.4" fill="rgb(11,50,11)" fill-opacity="1"></path></g></g></g></g></svg>