<svg width="28" height="15" viewBox="-14 -8 28 15"><g><defs></defs></g><rect x="-14" y="-8" width="28" height="15" fill="#006600"></rect><g id="0"><defs></defs><g><g type="shape" id="0:1:341"><defs></defs><g transform="matrix(1,0,0,1,0,-18)"><path d="M8.6,20.6L8.55 21.1L-7.4 20.6L7.6 20.6L8.6 20.6" fill="rgb(166,166,166)" fill-opacity="1"></path><path d="M8.55,21.1L8.6 20.6Q9.1 20.1 9.65 20Q11.25 19.75 9.8 18.8Q1.85 13.5 -9.4 16.6Q-9.6 19.35 -8.2 20.35L-7.4 20.6L8.55 21.1M14.6,21.6L14.6 22.6L14.35 23.35L11.6 25.6L10.6 25.6L-10.4 25.6L-11.2 25.35Q-15.45 22.2 -14.4 13.6Q-11.05 9.95 -3.4 10.55L-2.4 10.6L9.6 10.6L10.6 10.6Q12.75 11.45 13.95 13.4Q14.1 13.6 14.6 13.6L14.6 21.6" fill="rgb(4,4,4)" fill-opacity="1"></path><path d="M7.6,20.6L-7.4 20.6L-8.2 20.35Q-9.6 19.35 -9.4 16.6Q1.85 13.5 9.8 18.8Q11.25 19.75 9.65 20Q9.1 20.1 8.6 20.6L7.6 20.6" fill="rgb(248,248,248)" fill-opacity="1"></path></g></g></g></g></svg>