<svg width="97" height="97" viewBox="-5 -94 97 97"><g><defs></defs></g><rect x="-5" y="-94" width="97" height="97" fill="#006600"></rect><g id="0"><defs></defs><g><g type="shape" id="0:1:259"><defs></defs><g transform="matrix(1,0,0,1,0,0)"><path d="M86,-88.65L85.1 -88.6Q80.8 -88 79.65 -90.45Q82.8 -93.2 86.7 -89.35L86.9 -88.65L86 -88.65" fill="rgb(66,57,34)" fill-opacity="1"></path><path d="M55.25,-88.65L55.25 -89.55L73.3 -89.55L55.25 -88.65" fill="rgb(60,52,30)" fill-opacity="1"></path><path d="M55.25,-88.65L44.45 -88.65L55.25 -89.55L55.25 -88.65" fill="rgb(65,58,35)" fill-opacity="1"></path><path d="M0.15,-72.35L-0.75 -72.25Q-3.15 -71.8 -2.55 -74.2L-0.7 -74.95L0.15 -75.1L0.15 -72.35" fill="rgb(65,54,31)" fill-opacity="1"></path><path d="M1.05,-86.85L0.15 -75.1L-0.7 -74.95L-2.55 -74.2Q-3.15 -71.8 -0.75 -72.25L0.15 -72.35Q0.1 -37.15 0.6 -1.9L1.05 -1.9Q20.05 1.2 43.55 1.3L85.1 -0.1Q88.9 -3.65 91.85 -5.5L91.4 -5.5Q86.9 -15.05 88 -30.85Q89.95 -60.25 87.85 -87.7L86.9 -88.65L86.7 -89.35Q82.8 -93.2 79.65 -90.45L73.3 -89.55L55.25 -89.55L44.45 -88.65L1.05 -86.85M92.75,2.7L-4.2 2.7L-4.2 -94.25L92.75 -94.25L92.75 2.7" fill="rgb(81,79,50)" fill-opacity="1"></path><path d="M86.9,-88.65L87.85 -87.7Q89.95 -60.25 88 -30.85Q86.9 -15.05 91.4 -5.5L91.85 -5.5Q88.9 -3.65 85.1 -0.1L43.55 1.3Q20.05 1.2 1.05 -1.9L0.6 -1.9Q0.1 -37.15 0.15 -72.35L0.15 -75.1L1.05 -86.85L1.95 -42.6L3.75 -59.75L84.2 -58.85L85.1 -4.6L86 -88.65L86.9 -88.65M46.2,-49.8L33.15 -48.05L26.4 -51.2Q32.1 -45.05 40.15 -47L38.1 -46.15L49.1 -45.05Q45.5 -48.25 41.1 -47.25Q43.8 -48.1 46.2 -49.8M39.2,-43.75Q45.85 -38.8 39 -44.35Q38.95 -43.95 39.2 -43.75M20.9,-29.9Q20.9 -29.5 21 -29.5Q30.1 -27.85 20.9 -29.9M36.3,-43.5L10.35 -48.1L28.15 -42.6L36.3 -43.5M17.3,-27.2L31.75 -39.9L2.85 -41.65Q2.4 -29.05 2.25 -16.4Q2.2 -9.75 4.65 -3.7Q10.6 -2.4 15.1 -5.6L18.2 -8.25Q26.7 -2.7 36.95 -3.95Q40.5 -4.25 42 -7.2L40.8 -18.1L21.8 -14.55L11 -18.5Q14.1 -19.45 16.15 -21.9Q17.25 -23.25 17.4 -24.9Q17.55 -26.2 17.3 -27.2M72.6,-26.8L81.45 -19.05Q79.2 -30.5 67.9 -31.7L72.6 -26.8M69.7,-48.9L70.35 -43.5L71.5 -48Q71.25 -37.9 72.45 -42.8Q73.8 -48.3 73.3 -50.7Q72.95 -54 69.7 -48.9M65.2,-35.35Q65.15 -34.9 65.4 -34.6Q68.65 -30.45 73.3 -33.55Q74.8 -33.4 73.7 -34.95Q72.55 -36.55 65.2 -35.35M56.15,-37.15L54.45 -40.3L43.55 -31.7L44.65 -27.2L56.15 -37.15M53.45,-11.85L53.45 -11.4Q59.2 -13.55 53.45 -11.85M65.2,-14.55Q64.55 -11.7 65.55 -12.1Q68.6 -13.5 65.2 -14.55M69.7,-3.7L69.75 -3.25Q82.9 -2.3 69.7 -3.7" fill="rgb(60,52,31)" fill-opacity="1"></path><path d="M73.3,-50.7L71.5 -48L70.35 -43.5L69.7 -48.9Q72.95 -54 73.3 -50.7M69.75,-3.25L69.7 -3.7Q82.9 -2.3 69.75 -3.25" fill="rgb(48,39,21)" fill-opacity="1"></path><path d="M41.1,-47.25L40.15 -47Q32.1 -45.05 26.4 -51.2L33.15 -48.05L46.2 -49.8Q43.8 -48.1 41.1 -47.25M73.3,-50.7Q73.8 -48.3 72.45 -42.8Q71.25 -37.9 71.5 -48L73.3 -50.7" fill="rgb(71,69,45)" fill-opacity="1"></path><path d="M73.7,-34.95Q74.8 -33.4 73.3 -33.55Q68.65 -30.45 65.4 -34.6Q65.15 -34.9 65.2 -35.35Q72.55 -36.55 73.7 -34.95" fill="rgb(47,40,23)" fill-opacity="1"></path><path d="M67.9,-31.7Q79.2 -30.5 81.45 -19.05L72.6 -26.8L67.9 -31.7" fill="rgb(47,39,23)" fill-opacity="1"></path><path d="M65.55,-12.1Q64.55 -11.7 65.2 -14.55Q68.6 -13.5 65.55 -12.1" fill="rgb(49,41,25)" fill-opacity="1"></path><path d="M39,-44.35Q45.85 -38.8 39.2 -43.75Q38.95 -43.95 39 -44.35" fill="rgb(46,38,22)" fill-opacity="1"></path><path d="M41.1,-47.25Q45.5 -48.25 49.1 -45.05L38.1 -46.15L40.15 -47L41.1 -47.25" fill="rgb(48,39,22)" fill-opacity="1"></path><path d="M28.15,-42.6L10.35 -48.1L36.3 -43.5L28.15 -42.6" fill="rgb(47,38,21)" fill-opacity="1"></path><path d="M21,-29.5Q20.9 -29.5 20.9 -29.9Q30.1 -27.85 21 -29.5" fill="rgb(71,65,41)" fill-opacity="1"></path><path d="M10.1,-38.05Q11.4 -31.25 16.45 -32.35Q17.75 -32.65 18.05 -33.1Q22.2 -42 10.1 -38.05M17.4,-24.9Q17.25 -23.25 16.15 -21.9Q14.1 -19.45 11 -18.5L21.8 -14.55L40.8 -18.1L42 -7.2Q40.5 -4.25 36.95 -3.95Q26.7 -2.7 18.2 -8.25L15.1 -5.6Q10.6 -2.4 4.65 -3.7Q2.2 -9.75 2.25 -16.4Q2.4 -29.05 2.85 -41.65L31.75 -39.9L17.3 -27.2Q17.55 -26.2 17.4 -24.9" fill="rgb(81,76,50)" fill-opacity="1"></path><path d="M44.65,-27.2L43.55 -31.7L54.45 -40.3L56.15 -37.15L44.65 -27.2" fill="rgb(79,74,48)" fill-opacity="1"></path><path d="M18.05,-33.1Q17.75 -32.65 16.45 -32.35Q11.4 -31.25 10.1 -38.05Q22.2 -42 18.05 -33.1" fill="rgb(85,80,53)" fill-opacity="1"></path><path d="M53.45,-11.4L53.45 -11.85Q59.2 -13.55 53.45 -11.4" fill="rgb(71,65,42)" fill-opacity="1"></path><path d="M85.1,-88.6L86 -88.65L85.1 -4.6L84.2 -58.85L3.75 -59.75L1.95 -42.6L1.05 -86.85L44.45 -88.65L55.25 -88.65L73.3 -89.55L79.65 -90.45Q80.8 -88 85.1 -88.6" fill="rgb(32,24,13)" fill-opacity="1"></path></g></g></g></g></svg>