<svg width="47" height="49" viewBox="-24 -25 47 49"><g><defs></defs></g><rect x="-24" y="-25" width="47" height="49" fill="#006600"></rect><g id="0"><defs></defs><g><g type="shape" id="0:4:386"><defs></defs><g transform="matrix(1,0,0,1,0,0)"><path d="M2.55,-21.8Q6.85 -21.1 10.4 -18.7L11 -18.35L14.7 -16.85L15.05 -16.5Q15.3 -15.95 15 -15.4L16.75 -13.8L17.05 -13.55Q18.55 -13.15 19.1 -11.45L20.15 -6.5Q20.55 -3.15 19.5 0.05L18.6 2.55Q18.1 3.95 17.05 4.55Q17.25 5.85 15.6 6.55Q14.35 8.45 11.9 8.65L9.4 9.1L4.6 9.6Q4.3 9.6 4.1 9.4Q2.5 10.25 0.7 10.35L0.25 10.15Q-0.45 9.2 -0.15 8.05Q-1.05 7.1 -0.25 6.05L0.35 5.45Q0.45 4.1 1.85 3.4L2.75 2.75Q4.55 0.85 6.9 0Q8 0.15 8 1.3L7.95 1.4Q9.2 0.8 10.4 0.75L10.65 -0.8Q9.95 -2.1 9.9 -3.6L10.05 -6.95L8.1 -10.15L7.35 -11L6.15 -12.1Q2.6 -13.35 -1.15 -12.6Q-2.65 -12.25 -3.5 -12.9L-4.95 -12.25L-6.35 -11.5L-9.9 -8.8L-11.2 -6.75L-11.9 -5.5L-11.9 -4.8L-11.9 -3.15L-11.9 -2L-11.95 -1.6L-11.95 -1.35L-12 0.2L-11.9 1.35Q-11.65 3.2 -11.55 5.1Q-10.5 5.35 -10.2 6.85Q-9.95 8.05 -9.3 9.1L-8.85 10.05L-7.55 9.8L-7 9.75Q-5.75 10.05 -5.75 11.45L-5.75 11.5L-1.8 11.4L-1.2 11.45Q0 11.65 0.35 12.8L1.5 13.45L8.75 12.5L9.75 12.3Q11.45 10.4 13.55 12Q14.6 12.85 14.8 14.15Q15.1 16.9 12.7 18.2L11.15 18.65L10.25 18.8L5.4 20.05L3.9 20.4Q1.75 20.75 -0.25 20Q-1.9 20.7 -3.9 20.05L-8.05 18.9Q-9.45 18.65 -10.25 17.45L-13.95 16.3L-14.2 16Q-14.55 14.95 -14.1 14Q-14.9 14.2 -15.4 13.1Q-16.25 11.35 -17.35 9.75Q-18.45 8.2 -18.65 6.35L-18.75 5.5L-18.95 5.1L-19.05 4.8Q-20.3 3.65 -20 1.75L-19.6 -1.55L-18.75 -7.05Q-18.85 -7.65 -18.55 -8.2L-18.25 -9.75L-18 -10.05L-17.85 -10.1L-17.5 -10.15L-17.15 -10.1L-16.2 -11.5Q-15.05 -13.65 -13.15 -15.15Q-11.25 -17.9 -8.05 -18.65L-7.55 -18.5L-6.35 -18.9L-6.4 -19.4Q-6.3 -20.5 -5.2 -20.55L0.7 -21.1Q1.4 -21.9 2.55 -21.8" fill="rgb(255,255,255)" fill-opacity="1"></path><path d="M1.5,-7.85Q4.3 -7.35 4.75 -4.75L4.75 -4.2Q4.1 -1.25 0.85 -0.75Q-0.1 2 -2.95 2.35L-3.65 2.45Q-3.95 3.65 -5.05 4.2L-5.75 4.3L-6.3 4.2Q-7 5.8 -8.3 4.6L-8.6 4.05L-8.5 0.45Q-8.3 -1.05 -8.45 -2.6L-8.4 -3.35Q-8.05 -5.75 -6.4 -7.55Q-6.05 -7.95 -5.5 -8.05L-5 -8.15L-2.75 -8.2L-2.1 -8.6L-0.45 -9.1L0.1 -8.85Q0.95 -8.7 1.5 -7.9L1.5 -7.85M0.85,-4.6L0.85 -4.5Q1.5 -4.5 1.85 -5Q1.7 -5.55 0.85 -5.5L0.8 -5.4L0.7 -5.25L0.85 -4.6M-3.25,-0.2L-3.25 -0.1L-3.25 0L-3.25 0.1L-3.15 0.15Q-2.65 0.1 -2.3 -0.3L-2.25 -0.35L-3.25 -0.2" fill="rgb(106,255,85)" fill-opacity="1"></path><path d="M8,-5.8L7.95 -6.45Q7.45 -8.4 5.2 -8.6L5.15 -8.95Q-4.75 -10 -7.9 -3.95L-8.05 -2.9L-8.1 -2.6L-8.1 -2.3L-8.15 -2.3L-8.2 -0.9L-8.1 0.4L-8.05 2L-7.9 3.8L-7.9 4.15Q-7.35 6.55 -5.2 7.2Q1.8 9.4 7.35 8.35Q10 8.5 12.2 7.6L12.2 9.6L12.2 10.3Q11.85 10.3 11.7 10.5Q9.1 13.55 2.4 12.4L1.7 12.4L-3.9 12.4L-4.55 12.35Q-10.15 10.95 -11.6 5.4L-11.6 4.7L-11.6 -4.4L-11.6 -5.1L-11.6 -5.8Q-8.6 -10.5 -3.15 -12.7L-2.5 -12.8L4.5 -12.8L5.2 -12.8Q13.3 -10 12 0.45L11.75 0.75L11.2 1.45Q9.35 3.5 7.3 1.7Q7.1 -1.95 8 -5.8M21.95,-3.3L21.45 -2.65Q21.7 0.2 20.2 2.45Q20 2.75 19.6 2.7Q18.05 2.4 18.55 0.9Q19.4 -1.85 19.15 -4.9L18.6 -8.9L18.55 -9.1Q19.5 -8.15 20.9 -7.8L21.65 -6L21.95 -4.05L22.05 -3.55L21.95 -3.3" fill="rgb(8,8,8)" fill-opacity="1"></path><path d="M-8.1,0.4L-8.2 -0.9L-8.15 -2.3L-8.1 -2.3L-8.1 0.4" fill="rgb(157,157,157)" fill-opacity="1"></path><path d="M-8.1,-2.3L-8.1 -2.6L-8.05 -2.9L-7.9 -3.95Q-4.75 -10 5.15 -8.95L5.2 -8.6Q7.45 -8.4 7.95 -6.45L8 -5.8Q7.1 -1.95 7.3 1.7L7.1 1.55Q6.35 0.85 5 1.3Q3.5 1.75 3.55 3.5Q3.6 4.3 3.8 4.95L3.75 5.25Q3.4 7.75 5.8 8.15L7.35 8.35Q1.8 9.4 -5.2 7.2Q-7.35 6.55 -7.9 4.15L-7.9 3.8L-8.05 2L-8.1 0.4L-8.1 -2.3M-3.95,-0.9Q-4.75 4.5 -0.4 4.7Q3.85 5.45 3.5 1.15Q2.65 -10.25 -3.9 -1.6L-3.95 -0.9" fill="rgb(249,249,249)" fill-opacity="1"></path><path d="M-3.9,-1.6Q2.65 -10.25 3.5 1.15Q3.85 5.45 -0.4 4.7Q-4.75 4.5 -3.95 -0.9L-3.9 -1.6" fill="rgb(14,14,14)" fill-opacity="1"></path><path d="M12.05,-19.05Q11.85 -19.5 12.1 -20.15Q12.35 -20.75 13 -20.75Q15.65 -20.2 17.55 -18.1L20.4 -14.35L20.95 -13.5L21.5 -12.35L21.5 -12.3L22.25 -10Q23.25 -7.1 23.35 -4.05L23.4 -3.15Q23.6 -1 22.75 0.9L22.25 2.05Q20.4 6.35 16.7 9.3L15.55 10.05L13.9 10.95Q12.1 11.95 10.05 12L9.8 12Q7.95 13 7.15 11.4L7.1 11.2Q5.7 10.15 7 9.1Q7.2 8.9 7.45 8.85L7.75 8.75L7.85 8.65L10.25 8.4L10.4 8.15L11.95 7.7L12.25 7.7L12.35 7.6L12.5 7.45Q13.75 6.9 14.8 6L15.5 5.65Q16.65 4.65 17.1 3.25L18.35 0.95L18.45 -0.05Q18.5 -0.9 19.05 -1.6Q19.25 -5.2 18.2 -8.5Q17.4 -11 15.75 -13L13.8 -15.45Q12.7 -15.85 11.85 -16.95Q10.95 -18.15 12.05 -19.05" fill="rgb(0,0,0)" fill-opacity="1"></path><path d="M12.05,-19.05Q7 -22.15 0.6 -22.15Q-8.5 -22.15 -14.95 -15.75Q-21.4 -9.3 -21.4 -0.15Q-21.4 9 -14.95 15.4Q-8.5 21.85 0.6 21.85Q8.4 21.85 14.2 17.25" stroke="rgb(0,0,0)" stroke-linecap="round" stroke-linejoin="round" stroke-miterlimit="3" stroke-width="6" fill="none"></path><path d="M15.4,-19.95L15.9 -19.2L15.9 -18.7Q15.55 -18.05 15.05 -17.95L14.95 -17.8L15.85 -16.75L16.25 -15.95L16.2 -15.6Q15.5 -14.5 14.45 -15.15L13.35 -15.95Q12.25 -16.25 11.3 -17L10.15 -18.2Q9.8 -18.75 10.15 -19.35L10.5 -19.7Q9.7 -20.2 10.05 -21.2L10.5 -21.7L11.05 -21.8L12.85 -21.25L13 -21.2L13.05 -21.2L14.25 -20.55L15 -20.25L15.4 -19.95M9.3,-10.55L9.45 -10.4L9.55 -10.2L9.7 -9.8L10.15 -8.75L10.25 -8.6Q10.8 -7.5 9.9 -6.75L9.45 -6.75Q8.8 -6.75 8.3 -7.2L7.8 -7.85L7.45 -8.35L6.75 -9.2Q6.4 -9.3 6.05 -9.5Q5.35 -8.85 4.5 -9.65L4.4 -9.7L4.2 -9.8L2.95 -9.75L2.85 -9.75L-0.65 -9.45Q-1.9 -8.5 -3.5 -8.25L-4.4 -8.15L-6.8 -5.7Q-9.25 -3.25 -9.25 0.2L-9.25 1.2L-9.3 4.05Q-8.25 4.4 -8.2 5.65L-8.25 5.75L-8.2 5.85L-7.9 6.3L-7.7 6.65L-7.45 6.9L-5.6 8.35L-5.45 8.15L-5.35 8.05L-5.2 8L-4.85 7.95L-4.5 8.15L-4.4 8.1Q-2.65 7.8 -2.5 9.3L-2.3 9.3Q-0.95 9.35 0.2 9.85L1.05 9.6Q2 9.7 2.15 10.6L2.15 10.75L2.2 10.75Q2.5 10.5 2.85 10.55L3.3 10.65L3.5 10.65L4.7 10.55L5.6 10.5L5.6 10.4Q5.75 8.75 7.6 9.2L7.95 9.2L8.45 9.2Q8.85 8.95 9.6 8.85Q10.4 8.75 11.05 8.2Q11.55 7.8 12.1 7.85Q12.9 8.05 13.1 8.5L13.5 8.65L13.55 8.65L13.65 8.65L14.1 8.35L14.45 8.25Q16.2 8.75 15.05 10.2L15 10.3L14.95 10.4L14.45 10.95L13.05 11.8Q11.35 12.8 9.4 13.2L8.25 13.35L6.95 13.55L6.85 13.55L6.65 13.65L4.5 13.9L1.4 13.85L-1.4 13.6L-2.3 13.3L-2.45 13.3L-3.6 12.95L-4.25 13Q-4.95 12.6 -5.8 12.35L-6.5 11.75L-7.7 10.5L-8.75 9.9L-9.55 9.55Q-9.95 8.55 -10.7 8.05L-11.6 5.95L-11.65 5.85L-11.85 5.35L-12.85 0.8Q-13.4 -2.65 -12.15 -6L-11.4 -7.55L-10.25 -9.3L-7.9 -11.15L-7.65 -11.4L-7.2 -11.65L-5.15 -12.85L-3.95 -13.35L-3.8 -13.4L-2.7 -13.65L-2.1 -13.65L-1.15 -13.85L-0.75 -13.85L-0.35 -13.85L-0.15 -13.85L0 -13.8L0.45 -13.85L3.15 -13.65Q4.3 -13.6 5.25 -13.15L6.15 -12.55Q6.65 -12.25 7.1 -12.15L7.25 -12.1Q7.8 -11.4 8.85 -10.95L9.3 -10.55M19.45,-7.2L19.6 -7.25L19.95 -7.3Q21.45 -6.8 21.25 -5L21.25 -4.5L21.35 -3.8L21.4 -3.6Q21.7 -3.05 21.65 -2.2L21.25 -0.05L21.05 0.85L20.85 1.2L20.55 1.2L20.25 1.25L19.3 1.05Q18.9 0.85 18.85 0.35Q18.7 -1.5 19.1 -3.2L18.85 -5.1Q18.6 -6.4 19.45 -7.2" fill="rgb(0,0,0)" fill-opacity="1"></path></g></g></g></g></svg>