<svg width="18" height="31" viewBox="-9 0 18 31"><g><defs></defs></g><rect x="-9" y="0" width="18" height="31" fill="#006600"></rect><g id="0"><defs></defs><g><g type="shape" id="0:1:353"><defs></defs><g transform="matrix(1,0,0,1,0,0)"><path d="M9,13.25L9 20.25L9 21.25Q8.35 25.1 6.25 27.5Q-1.5 36.15 -9 27.25L-9 26.25L-9 19.25L-9 18.25L-3.65 10.5Q-3.5 10.25 -3 10.25L5 10.25L6 10.25L8.75 12.5L9 13.25M-0.35,25Q2.05 22.35 2 19.25Q1.85 11.2 -4 21.25Q-4 23.75 -2.75 25Q-1.5 26.25 -0.35 25" fill="rgb(10,10,10)" fill-opacity="1"></path><path d="M-2.75,25Q-4 23.75 -4 21.25Q1.85 11.2 2 19.25Q2.05 22.35 -0.35 25Q-1.5 26.25 -2.75 25" fill="rgb(242,242,242)" fill-opacity="1"></path></g></g></g></g></svg>