<svg width="16" height="19" viewBox="-8 0 16 19"><g><defs></defs></g><rect x="-8" y="0" width="16" height="19" fill="#006600"></rect><g id="0"><defs></defs><g><g type="shape" id="0:1:355"><defs></defs><g transform="matrix(1,0,0,1,0,0)"><path d="M8.5,7L8.5 15L8.5 16L8.25 16.85Q7.05 18.55 4.5 19L3.5 19L-4.5 19L-5.25 18.75L-8.5 15L-8.5 14L-8.5 7L-8.5 6L-4.35 3.2L-3.5 3L3.5 3L4.5 3L8.25 6.25L8.5 7M-1.05,12.6Q9.6 8.35 -3.5 9Q-4.5 14 -1.05 12.6" fill="rgb(7,7,7)" fill-opacity="1"></path><path d="M-3.5,9Q9.6 8.35 -1.05 12.6Q-4.5 14 -3.5 9" fill="rgb(234,234,234)" fill-opacity="1"></path></g></g></g></g></svg>