<svg width="30" height="22" viewBox="-15 -11 30 22"><g><defs></defs></g><rect x="-15" y="-11" width="30" height="22" fill="#006600"></rect><g id="0"><defs></defs><g><g type="shape" id="0:1:361"><defs></defs><g transform="matrix(1,0,0,1,0,0)"><path d="M-1,3.6Q2.8 2.55 9.5 5.75L9.5 4.75Q9.3 -3.05 -0.5 -6.25L-1.3 -6L-10.5 1.75Q-11.65 6.9 -6.65 5.3L-1 3.6M14.9,-1.45L15.5 -1.25L15.5 6.75L15.5 7.75L14.7 8Q8.25 13.65 -0.5 8.75L-1.35 8.95Q-10.4 14.45 -15.5 6.75L-15.5 5.75L-15.5 -1.25Q-10.1 -6.85 -3.35 -11.05L-2.5 -11.25Q10.3 -10.5 14.9 -1.45" fill="rgb(8,8,8)" fill-opacity="1"></path><path d="M-6.65,5.3Q-11.65 6.9 -10.5 1.75L-1.3 -6L-0.5 -6.25Q9.3 -3.05 9.5 4.75L9.5 5.75Q2.8 2.55 -1 3.6L-6.65 5.3" fill="rgb(244,244,244)" fill-opacity="1"></path></g></g></g></g></svg>