<svg width="51" height="16" viewBox="-30 -2 51 16"><g><defs></defs></g><rect x="-30" y="-2" width="51" height="16" fill="#006600"></rect><g id="0"><defs></defs><g><g type="shape" id="0:1:37"><defs></defs><g transform="matrix(1,0,0,1,0,0)"><path d="M-15.85,3.85Q-14.65 5.25 -14.5 7Q-14.35 8.6 -15.75 9Q-18.2 9.75 -19.8 7.85Q-21.7 5.55 -19.95 3.5L-19.55 3.1L-16.5 3.45Q-16.15 3.55 -15.85 3.85M-20.95,4.9Q-21 6.7 -22.4 7.35L-24.3 7.65L-25.35 7.3L-25.8 7Q-26.4 7.75 -27.65 7.35Q-29.05 6.9 -28.85 5.45Q-28.7 4.2 -27.65 3.8L-26.7 3.9Q-26.35 2.5 -24.2 2.2L-23.9 2.05Q-20.85 1.95 -20.95 4.9" fill="rgb(255,255,255)" fill-opacity="1"></path></g></g><g type="shape" id="0:2:38"><defs></defs><g transform="matrix(1,0,0,1,0,0)"><path d="M21.1,-2.4L21.15 -2.3L20.7 -2.95L20.85 -2.95L20.85 -2.85L20.9 -2.7L21.1 -2.4M-17.05,8.45Q-17.3 9.2 -18 9.3Q-20.8 9.7 -20.35 7.05Q-20.2 6 -19.35 5.65Q-16.1 5.6 -17.05 8.45M-26.1,7.1Q-26.55 8.65 -28.2 8.1Q-29.6 7.6 -29.4 6.15Q-29.25 4.9 -28.2 4.5Q-25.25 4.45 -26.1 7.1" fill="rgb(0,0,0)" fill-opacity="1"></path></g></g></g></g></svg>