<svg width="139" height="85" viewBox="-42 -85 139 85"><g><defs></defs></g><rect x="-42" y="-85" width="139" height="85" fill="#006600"></rect><g id="0"><defs></defs><g><g type="shape" id="0:1:263"><defs></defs><g transform="matrix(1,0,0,1,0,0)"><path d="M59.4,-81.2L49.85 -80.05L54.65 -74.9Q55.45 -72.95 57.6 -72.35Q68.4 -70.05 78.4 -75.95L78.9 -76.05L78.8 -76.8L78.2 -78.45Q75.55 -84.15 67.45 -81.05L67.45 -80.75L59.4 -81.2M32.6,-36.3L34.8 -34.1Q44.8 -36.15 47.8 -46.5Q51.05 -57.55 45 -67.5L27.05 -69.05L28.5 -40L32.6 -36.3M72.4,-36Q76.1 -38.8 76.75 -43.35Q78.3 -54 73.9 -64.25L74.3 -68.45L70.15 -68.4L54.55 -69.25L50.95 -70.5Q51.45 -64 50.5 -57.2Q48.9 -45.8 53.75 -36.35Q61.1 -30.25 72.4 -36M29.35,-79.6L31.2 -74.05L44.65 -74.95Q39.55 -83 30.55 -80.1L29.35 -79.6M12.75,-80.85Q4.5 -84.95 -2.2 -78.9L-3.5 -79.05Q-5.85 -79.5 -5.1 -77.05L-7.55 -75.45L-8.25 -71.85L-0.7 -71.15L22.3 -75.85L22.45 -75.85Q23.8 -81.7 14.6 -81.05L12.75 -80.85M-4.65,-64.55Q-5.4 -54.8 -7.4 -45.3Q-9.15 -36.85 -2.9 -32.7L13.45 -32.25L22.15 -40.1L21.65 -68.45L10.85 -67.65L-0.9 -65.15L-4.65 -64.55M-11.35,-83.05L-8.6 -85L91.3 -85.05L94.4 -82.45L94.5 -68.05Q94.6 -59.85 96.5 -51.95Q99.15 -40.8 93.4 -31.05L90.1 -31.95Q80.35 -35.35 72 -29.9L51.6 -31.25L50.25 -32.8Q38.15 -32.85 26.4 -31Q17.7 -29.65 9.1 -27.2Q-1.9 -24.15 -11.35 -30.05L-11.35 -83.05M89.25,-73.05L89.3 -73.45L90.65 -76.85L88.3 -79.7L83 -79.05L82 -79.05L82 -78L81.2 -76.25L82.15 -73.75L83 -70.05Q83.8 -65.55 82.6 -53.1Q81.4 -41 87.15 -36.05Q93.8 -40.65 91.25 -54.05Q89.25 -64.75 89.25 -73.05" fill="rgb(11,11,6)" fill-opacity="1"></path><path d="M67.45,-80.75L67.45 -81.05Q75.55 -84.15 78.2 -78.45L67.45 -80.75M78.45,-76.05L78.8 -76.8L78.9 -76.05L78.45 -76.05" fill="rgb(180,168,106)" fill-opacity="1"></path><path d="M58.45,-78.4Q59.4 -79.55 59.4 -81.2L67.45 -80.75L78.2 -78.45L78.8 -76.8L78.45 -76.05L78.4 -75.95Q68.4 -70.05 57.6 -72.35Q55.45 -72.95 54.65 -74.9Q54.65 -75.85 55.1 -76.55Q55.55 -77.25 56.15 -77.25Q57.5 -77.25 58.45 -78.4M-5.1,-77.05Q-5.85 -79.5 -3.5 -79.05L-2.2 -78.9Q4.5 -84.95 12.75 -80.85L14.3 -80.25L22.3 -75.85L-0.7 -71.15L-5.1 -77.05M83,-79.05L88.3 -79.7L90.65 -76.85L89.3 -73.45L88.75 -73.1L83 -73.1L82.15 -73.75L81.2 -76.25L82 -78L83 -79.05" fill="rgb(180,168,107)" fill-opacity="1"></path><path d="M78.45,-76.05L78.9 -76.05L78.4 -75.95L78.45 -76.05M74.3,-68.45L73.9 -64.25Q73.9 -65.35 72.85 -66.1Q71.75 -66.85 70.25 -66.85L70.15 -68.4L74.3 -68.45" fill="rgb(133,114,58)" fill-opacity="1"></path><path d="M30.55,-80.1Q39.55 -83 44.65 -74.95L31.2 -74.05L29.35 -79.6L30.55 -80.1" fill="rgb(174,162,96)" fill-opacity="1"></path><path d="M56.15,-77.25Q53.5 -79.15 49.85 -80.05L59.4 -81.2Q59.4 -79.55 58.45 -78.4Q57.5 -77.25 56.15 -77.25" fill="rgb(182,169,108)" fill-opacity="1"></path><path d="M54.65,-74.9L49.85 -80.05Q53.5 -79.15 56.15 -77.25Q55.55 -77.25 55.1 -76.55Q54.65 -75.85 54.65 -74.9M54.8,-39.15Q53.75 -38 53.75 -36.35Q48.9 -45.8 50.5 -57.2Q51.45 -64 50.95 -70.5L54.55 -69.25L60.4 -65.15L58.55 -47.95L56.8 -46.15L57.25 -40.3Q55.8 -40.3 54.8 -39.15" fill="rgb(138,120,61)" fill-opacity="1"></path><path d="M28.5,-40L27.05 -69.05L45 -67.5L40.6 -66.15L32.6 -36.3L28.5 -40M70.15,-68.4L70.25 -66.85Q69.65 -56.5 64.85 -47.15Q62.4 -42.45 57.25 -40.3L56.8 -46.15L58.55 -47.95L60.4 -65.15L54.55 -69.25L70.15 -68.4M-3.35,-35.45L-0.9 -65.15L10.85 -67.65L10.1 -49.75L13.9 -42.8L-3.35 -35.45" fill="rgb(144,127,62)" fill-opacity="1"></path><path d="M47.8,-46.5Q44.8 -36.15 34.8 -34.1L32.6 -36.3L40.6 -66.15L45 -67.5Q51.05 -57.55 47.8 -46.5M53.75,-36.35Q53.75 -38 54.8 -39.15Q55.8 -40.3 57.25 -40.3Q62.4 -42.45 64.85 -47.15Q69.65 -56.5 70.25 -66.85Q71.75 -66.85 72.85 -66.1Q73.9 -65.35 73.9 -64.25Q78.3 -54 76.75 -43.35Q76.1 -38.8 72.4 -36Q61.1 -30.25 53.75 -36.35M-3.35,-35.45L13.9 -42.8Q17.65 -45.25 18.65 -49.7Q20.8 -59.55 21.65 -68.45L22.15 -40.1L13.45 -32.25L-2.9 -32.7L-3.35 -35.45" fill="rgb(115,92,50)" fill-opacity="1"></path><path d="M14.3,-80.25L14.6 -81.05Q23.8 -81.7 22.45 -75.85L22.3 -75.85L14.3 -80.25" fill="rgb(185,172,110)" fill-opacity="1"></path><path d="M12.75,-80.85L14.6 -81.05L14.3 -80.25L12.75 -80.85" fill="rgb(155,143,70)" fill-opacity="1"></path><path d="M21.65,-68.45Q20.8 -59.55 18.65 -49.7Q17.65 -45.25 13.9 -42.8L10.1 -49.75L10.85 -67.65L21.65 -68.45" fill="rgb(156,143,67)" fill-opacity="1"></path><path d="M60.2,-1.15L28.7 -1.95Q25.1 0.75 20.9 0.75Q1.1 0.85 -18.45 -1.9L-20.65 -2.05L-21.8 -1.25Q-32.55 4.1 -41.3 -3.75L-42.45 -5.05L-11.35 -30.05Q-1.9 -24.15 9.1 -27.2Q17.7 -29.65 26.4 -31Q38.15 -32.85 50.25 -32.8L51.6 -31.25L72 -29.9Q80.35 -35.35 90.1 -31.95L93.4 -31.05L60.2 -1.15" fill="rgb(2,108,39)" fill-opacity="1"></path><path d="M91.25,-54.05Q93.8 -40.65 87.15 -36.05Q81.4 -41 82.6 -53.1Q83.8 -65.55 83 -70.05L83 -73.1L88.75 -73.1L89.25 -73.05Q89.25 -64.75 91.25 -54.05" fill="rgb(136,120,60)" fill-opacity="1"></path><path d="M82.15,-73.75L83 -73.1L83 -70.05L82.15 -73.75M83,-79.05L82 -78L82 -79.05L83 -79.05" fill="rgb(121,112,53)" fill-opacity="1"></path><path d="M89.25,-73.05L88.75 -73.1L89.3 -73.45L89.25 -73.05" fill="rgb(180,168,103)" fill-opacity="1"></path><path d="M-0.7,-71.15L-8.25 -71.85L-7.55 -75.45L-5.1 -77.05L-0.7 -71.15" fill="rgb(163,150,74)" fill-opacity="1"></path><path d="M-2.9,-32.7Q-9.15 -36.85 -7.4 -45.3Q-5.4 -54.8 -4.65 -64.55L-0.9 -65.15L-3.35 -35.45L-2.9 -32.7" fill="rgb(138,121,60)" fill-opacity="1"></path></g></g></g></g></svg>