<svg width="10" height="65" viewBox="-5 -34 10 65"><g><defs></defs></g><rect x="-5" y="-34" width="10" height="65" fill="#006600"></rect><g id="0"><defs></defs><g><g type="shape" id="0:1:394"><defs></defs><g transform="matrix(1,0,0,1,0,0)"><path d="M5,-29.35L5 24.5L4.9 24.8Q4.05 27.35 3.4 30.4Q2.35 30.6 1.5 31.65Q0.7 30.55 -1.9 29.95Q-3.4 28.35 -4.9 27.25Q-4.9 20.9 -5.3 14.6Q-4.7 -5.4 -5.1 -27.75L-5.1 -29.35L-5.1 -31Q-0.05 -38.35 4.85 -30.45L5 -29.35M-2.4,-24.45Q-2.4 -0.55 -2.05 23.3L-1.75 23.3Q-0.85 26.1 1.55 24.2L1.65 23.3L1.95 23.25Q2.8 -2.65 1.65 -24.45L1.55 -25.25Q-0.05 -26.1 -1.75 -26.1L-1.75 -24.45L-2.4 -24.45" fill="rgb(4,4,4)" fill-opacity="1"></path><path d="M1.65,23.3L1.55 24.2Q-0.85 26.1 -1.75 23.3L-1.75 21.65L-1.75 -24.45L-1.75 -26.1Q-0.05 -26.1 1.55 -25.25L1.65 -24.45L1.65 21.65L1.65 23.3" fill="rgb(253,253,253)" fill-opacity="1"></path><path d="M1.65,21.65L1.65 -24.45Q2.8 -2.65 1.95 23.25L1.65 23.3L1.65 21.65M-1.75,23.3L-2.05 23.3Q-2.4 -0.55 -2.4 -24.45L-1.75 -24.45L-1.75 21.65L-1.75 23.3" fill="rgb(187,187,187)" fill-opacity="1"></path></g></g></g></g></svg>