<svg width="133" height="156" viewBox="-32 -121 133 156"><g><defs></defs></g><rect x="-32" y="-121" width="133" height="156" fill="#006600"></rect><g id="0"><defs></defs><g><g type="shape" id="0:1:234"><defs></defs><g transform="matrix(1,0,0,1,0,0)"><path d="M78.55,-116.45L81.25 -117.5L78.55 -115.75L78.55 -116.45" fill="rgb(4,36,0)" fill-opacity="1"></path><path d="M74.85,-115.55L77.4 -115.55L74.85 -115.5L74.85 -115.55" fill="rgb(36,32,0)" fill-opacity="1"></path><path d="M74.6,-115.55L69.2 -118.05L78.55 -116.45L78.55 -115.75L77.4 -115.55L74.85 -115.55L74.6 -115.55" fill="rgb(62,104,0)" fill-opacity="1"></path><path d="M74.85,-115.55L74.85 -115.5L74.6 -115.55L74.85 -115.55" fill="rgb(31,36,0)" fill-opacity="1"></path><path d="M94.45,-113.65L94.2 -113.7L92.6 -119.75L94.45 -113.7L94.45 -113.65M91.15,-117.2Q91.85 -116.45 91.85 -115.35L91.65 -115.55L91.15 -117.2" fill="rgb(26,46,0)" fill-opacity="1"></path><path d="M85.1,-117.35L84.9 -116.6Q83.95 -115.1 81.85 -114.7L85.1 -117.35" fill="rgb(39,89,0)" fill-opacity="1"></path><path d="M91.15,-117.2L91.65 -115.55L91.65 -113.95L91.05 -106.7Q90.5 -106.35 89.8 -106.2L89.8 -105.25Q89 -105.25 88.45 -104.8Q87.85 -104.4 87.85 -103.8L88.35 -99.5Q89.05 -98.3 90.5 -97.9L96.5 -90.65L96.35 -89.35L96.35 -88.85L95.3 -84.85L95.4 -83.75L95.4 -77.2L94.45 -75.45L92.85 -70.15L48.65 -69.75Q46.8 -50.1 49.95 -32.5Q51.85 -33.4 52.2 -35.6Q54.65 -51.9 55.2 -67.9Q64.45 -68.4 71.95 -62.75L76.75 -68.8L83.25 -65.05L93.5 -66L95.15 -62.65L99 -49.55L98.2 -48.25L92.6 -45.45Q91.85 -45.45 91.3 -44.8Q90.75 -44.15 90.75 -43.25L91.8 -38.4L95.4 -35.15L97.95 -31.45Q92.6 -29.2 80.25 -28.45Q72.5 -28.05 65.25 -28.7L62.4 -31.7L45.75 -27.55Q47.05 -31.1 44.9 -35.15L44.9 -38.9L44.9 -70.7L38.2 -70.6L18.85 -69.2Q10.75 -68.5 4.25 -71.95L1.1 -89.8Q5.85 -98.8 0.75 -107.55Q5.3 -106.65 8.35 -109.8Q9.6 -111.15 10.15 -112.9L19.95 -116.9Q33.45 -113.2 47.3 -118.2L44 -114.6L38.4 -109L41.25 -98.85L36.1 -92L40.25 -89.35L38.25 -80.95L28.1 -82.85Q33 -69.55 45.4 -77.05L45.85 -80.95L45.85 -82.85L46.55 -100.4Q46.75 -108.65 50.55 -110.85L50.55 -100.6L50.55 -94.2Q46.5 -83.05 55 -75.7Q60.55 -70.85 68.5 -70.8Q78 -70.7 86.6 -74.7L58 -76.25L53.3 -88.45L59.75 -93.2L56.6 -98.65L56.15 -109.95Q55.35 -112.4 58.05 -111.85L59.9 -112L68.15 -115.6L69.8 -114.6Q75.95 -111.05 81.85 -114.7Q83.95 -115.1 84.9 -116.6L85.1 -117.35L88.5 -118.5L91.15 -117.2M17.8,-80.05L8.35 -71.6L28.1 -74.4L17.8 -80.05M-1.8,-90.2L-1.75 -90.15L-1.8 -90.1L-1.8 -90.2" fill="rgb(156,141,0)" fill-opacity="1"></path><path d="M91.65,-113.95L91.65 -115.55L91.85 -115.35L91.65 -113.95M94.45,-113.65L94.2 -113.45L94.2 -113.7L94.45 -113.65M93.45,-105.8L94.1 -107.2L94.1 -105.75L93.45 -105.8" fill="rgb(19,38,0)" fill-opacity="1"></path><path d="M89.8,-105.25L89.8 -106.2Q90.5 -106.35 91.05 -106.7L89.8 -105.25M94.1,-105.75L93.5 -101.8L92.6 -101.5L92.6 -101L90.65 -101.15L90.15 -102.15Q92.2 -103.65 93.45 -105.8L94.1 -105.75" fill="rgb(96,86,0)" fill-opacity="1"></path><path d="M90.5,-97.9Q89.05 -98.3 88.35 -99.5L90.5 -97.9M87.85,-103.8Q87.85 -104.4 88.45 -104.8Q89 -105.25 89.8 -105.25L87.85 -103.8M90.65,-101.15L89.75 -101.85L90.15 -102.15L90.65 -101.15" fill="rgb(45,40,0)" fill-opacity="1"></path><path d="M92.6,-101.5L93.5 -101.8L92.6 -101L92.6 -101.5M95.4,-100.4L95.4 -98.7L94.9 -98.65L95.4 -100.4" fill="rgb(17,19,0)" fill-opacity="1"></path><path d="M95.4,-100.4L96.15 -103.15L95.4 -98.7L95.4 -100.4" fill="rgb(3,90,0)" fill-opacity="1"></path><path d="M94.9,-98.65L95.4 -98.7L95.4 -98.15L94.9 -98.65M100.05,-92.2L100.05 -91.9L99.9 -92.2L100.05 -92.2M96.5,-89.3L96.35 -89.35L96.5 -90.65L96.5 -89.3" fill="rgb(52,49,0)" fill-opacity="1"></path><path d="M96.1,-97.35L100.05 -92.2L99.9 -92.2L96.1 -97.35" fill="rgb(72,98,0)" fill-opacity="1"></path><path d="M14.1,-116.45L17.8 -118.35L18.1 -118.3L15.35 -116.3L14.1 -116.45" fill="rgb(29,38,0)" fill-opacity="1"></path><path d="M18.1,-118.3L17.8 -118.35L17.8 -119.3L19.35 -119.3L18.1 -118.3M24.8,-118.8L23.25 -119.3L24.35 -119.3L24.8 -118.8" fill="rgb(12,25,0)" fill-opacity="1"></path><path d="M24.8,-118.8L24.35 -119.3L32.9 -117.45L24.8 -118.8" fill="rgb(19,35,0)" fill-opacity="1"></path><path d="M33.7,-117.85L33.7 -118.35L34.75 -118.4L33.7 -117.85M36.5,-119.05L36.5 -119.3L36.7 -119.1L36.5 -119.05" fill="rgb(48,58,0)" fill-opacity="1"></path><path d="M4.75,-112.75Q6.3 -113.05 6.15 -115.55L6.6 -115.55L6.95 -115.5Q6.2 -114.65 6.45 -113.2Q5 -111.2 2.85 -111L4.75 -112.75" fill="rgb(29,33,0)" fill-opacity="1"></path><path d="M6.6,-115.55L14.1 -116.45L15.35 -116.3L6.95 -115.5L6.6 -115.55" fill="rgb(39,51,0)" fill-opacity="1"></path><path d="M2.85,-111L-0.85 -111.8L4.75 -112.75L2.85 -111" fill="rgb(59,104,0)" fill-opacity="1"></path><path d="M-4.6,-109.95L-4.25 -110.2L-4.2 -108.65L-4.6 -109.95" fill="rgb(9,28,0)" fill-opacity="1"></path><path d="M-1.85,-104.65L-1.4 -103.95L-1.8 -104.35L-1.85 -104.65" fill="rgb(21,122,0)" fill-opacity="1"></path><path d="M-0.85,-100.6Q-3.25 -107.35 -2.75 -96.85L-2.75 -95.9L-3.65 -95.9Q-5.5 -102.2 -2.6 -104.1L-1.8 -104.35L-1.4 -103.95L-0.3 -101.3L-0.85 -100.6" fill="rgb(25,41,0)" fill-opacity="1"></path><path d="M-2.75,-95.9L-2.75 -96.85Q-3.25 -107.35 -0.85 -100.6L-0.85 -97.8L-0.85 -95.9L-2.75 -95.9" fill="rgb(95,88,0)" fill-opacity="1"></path><path d="M-0.85,-100.6L-0.3 -101.3L-0.45 -97.75L-0.85 -97.8L-0.85 -100.6" fill="rgb(65,65,0)" fill-opacity="1"></path><path d="M-3.65,-77.25L-5.55 -90.3L-4.6 -109.95L-4.2 -108.65L-1.85 -104.65L-1.8 -104.35L-2.6 -104.1Q-5.5 -102.2 -3.65 -95.9Q-3.8 -89.95 -1.05 -95.05L-0.85 -95.9L-0.85 -97.8L-0.45 -97.75L-1.8 -90.2L-1.8 -90.1L-0.85 -79.7Q-3.05 -79.9 -3.65 -78.15L-3.65 -77.25" fill="rgb(12,29,0)" fill-opacity="1"></path><path d="M-3.65,-95.9L-2.75 -95.9L-0.85 -95.9L-1.05 -95.05Q-3.8 -89.95 -3.65 -95.9" fill="rgb(12,57,0)" fill-opacity="1"></path><path d="M57.35,-116.6L58.95 -117.4L63.4 -115.6L57.35 -116.6M59.15,-112.5Q56 -112.45 55.2 -114.6L55.3 -114.9L59.15 -112.5" fill="rgb(18,30,0)" fill-opacity="1"></path><path d="M63.6,-115.55Q63.6 -116.45 64.15 -117.1Q64.65 -117.75 65.35 -117.75L63.6 -115.55" fill="rgb(12,54,0)" fill-opacity="1"></path><path d="M53.8,-115.5L55.3 -114.9L55.2 -114.6L53.8 -115.5M58.95,-117.4L57.35 -116.6L54.75 -118.2L58.95 -117.4" fill="rgb(9,11,0)" fill-opacity="1"></path><path d="M54.75,-118.2Q51.45 -120.2 47.75 -120.6L47.75 -121.15L58.95 -117.4L54.75 -118.2" fill="rgb(17,57,0)" fill-opacity="1"></path><path d="M47.75,-120.6L36.7 -119.1L36.5 -119.3L47.75 -121.15L47.75 -120.6" fill="rgb(14,52,0)" fill-opacity="1"></path><path d="M45.85,-80.95L45.4 -77.05Q33 -69.55 28.1 -82.85L38.25 -80.95L40.25 -89.35L36.1 -92L41.25 -98.85L38.4 -109Q47.1 -110.9 44.6 -114.35L44 -114.6L47.3 -118.2Q49.9 -117.95 52.2 -116.55L51.7 -116Q49.05 -114.55 50.55 -110.85Q46.75 -108.65 46.55 -100.4L45.85 -82.85L45.65 -86.5L45.85 -80.95" fill="rgb(133,117,0)" fill-opacity="1"></path><path d="M50.55,-110.85Q49.05 -114.55 51.7 -116L52.2 -116.55L53.8 -115.5L55.2 -114.6Q56 -112.45 59.15 -112.5L59.9 -112L58.05 -111.85Q55.35 -112.4 56.15 -109.95Q55.65 -109.95 55.65 -109.8Q54.05 -104.25 50.55 -110.85" fill="rgb(111,97,0)" fill-opacity="1"></path><path d="M38.4,-109L44 -114.6L44.6 -114.35Q47.1 -110.9 38.4 -109" fill="rgb(119,103,0)" fill-opacity="1"></path><path d="M50.75,-94.85L50.55 -94.2L50.55 -100.6Q54.45 -100.2 50.75 -94.85" fill="rgb(123,107,0)" fill-opacity="1"></path><path d="M50.55,-100.6L50.55 -110.85Q54.05 -104.25 55.65 -109.8Q55.65 -109.95 56.15 -109.95L56.6 -98.65L59.75 -93.2L53.3 -88.45L58 -76.25L86.6 -74.7Q78 -70.7 68.5 -70.8Q60.55 -70.85 55 -75.7Q46.5 -83.05 50.55 -94.2L50.75 -94.85Q54.45 -100.2 50.55 -100.6M93.5,-67.2L93.5 -66L83.25 -65.05L76.75 -68.8L71.95 -62.75Q64.45 -68.4 55.2 -67.9Q54.65 -51.9 52.2 -35.6Q51.85 -33.4 49.95 -32.5Q46.8 -50.1 48.65 -69.75L92.85 -70.15Q92.9 -68.65 93.5 -67.2" fill="rgb(134,118,0)" fill-opacity="1"></path><path d="M45.65,-86.5L45.85 -82.85L45.85 -80.95L45.65 -86.5M44.45,-35.15Q44.85 -25.5 36.5 -29.55L36.5 -33.3L44.9 -38.9L44.9 -35.15L44.45 -35.15" fill="rgb(118,102,0)" fill-opacity="1"></path><path d="M36.5,-29.55L36.3 -28.85L35.75 -28.6L27.2 -36.6L16.2 -34.9L12.3 -31.3Q11.8 -31.4 11.55 -31.65Q6.65 -37.4 -1 -36.85L-0.85 -37.95L1.3 -38.1L2 -38.25L2.75 -38.4L2.85 -38.9Q3.35 -38.9 3.5 -39.15Q7.25 -45 1.95 -44.5L-0.45 -46.3L-0.3 -65.8L0.05 -66.95L0.05 -67.8L1.9 -68.75L19.25 -62.3L32.75 -68.35Q36.9 -64.95 37.75 -59.8L37.45 -59.45L37.8 -59.3L35.05 -40.8L29.85 -38.4L36.5 -33.3L36.5 -29.55" fill="rgb(158,142,0)" fill-opacity="1"></path><path d="M4.25,-71.95Q10.75 -68.5 18.85 -69.2L38.2 -70.6L44.9 -70.7L44.9 -38.9L36.5 -33.3L29.85 -38.4L35.05 -40.8L37.8 -59.3Q39.95 -58.5 42.2 -57.85L43.05 -57.6Q42.95 -66.2 37.75 -59.8Q36.9 -64.95 32.75 -68.35L19.25 -62.3L1.9 -68.75Q3.65 -69.95 4.25 -71.95M28.1,-74.4L8.35 -71.6L17.8 -80.05L28.1 -74.4" fill="rgb(133,118,0)" fill-opacity="1"></path><path d="M37.45,-59.45L37.75 -59.8Q42.95 -66.2 43.05 -57.6L42.2 -57.85Q39.95 -58.5 37.8 -59.3L37.45 -59.45" fill="rgb(116,100,0)" fill-opacity="1"></path><path d="M-0.85,-72.55L-0.5 -79.1L0 -78.15L-0.85 -72.55" fill="rgb(93,81,0)" fill-opacity="1"></path><path d="M0,-78.15L-0.85 -71.75L-0.85 -72.55L0 -78.15" fill="rgb(110,95,0)" fill-opacity="1"></path><path d="M-0.3,-66.9Q-0.35 -67.5 0.05 -67.8L0.05 -66.95L-0.3 -66.9M-3.35,-72.55L-3.65 -77.25L-3.65 -78.15Q-3.05 -79.9 -0.85 -79.7L-0.5 -79.1L-0.85 -72.55L-0.85 -71.75Q-2.2 -71.25 -2.9 -70.05L-3.35 -72.55" fill="rgb(19,28,0)" fill-opacity="1"></path><path d="M0.05,-66.95L-0.3 -65.8L-0.3 -66.9L0.05 -66.95" fill="rgb(138,132,0)" fill-opacity="1"></path><path d="M26.25,-32.35L26.25 -33.3L26.85 -33.45L29.25 -30.1L26.25 -32.35M36.5,-24L36.65 -23.9L36.5 -23.95L36.5 -24M41.1,-23.05L42.1 -23.2L42.1 -23L41.1 -23.05M82.7,-26.75L87.9 -27.05L87.9 -26.75L82.7 -26.75" fill="rgb(41,36,0)" fill-opacity="1"></path><path d="M16.9,-29.55L16.9 -29.6L18.3 -31.65Q18.2 -29.8 16.9 -29.55" fill="rgb(44,38,0)" fill-opacity="1"></path><path d="M25.35,-33.3L26.85 -33.45L26.25 -33.3L25.35 -33.3" fill="rgb(16,14,0)" fill-opacity="1"></path><path d="M24.85,-32.35Q25.3 -32.7 25.35 -33.3L26.25 -33.3L26.25 -32.35L24.85 -32.35" fill="rgb(59,51,0)" fill-opacity="1"></path><path d="M32.5,0.4L0.65 -0.85L0.05 -33.3L1.8 -33.7L4.85 -33.15L5.15 -32.5L5.65 -32.35Q5.85 -31.05 7 -30.6Q8 -28.35 10.65 -27.8Q14.85 -26.85 16.85 -29.55L16.9 -29.55Q18.2 -29.8 18.3 -31.65L24.85 -32.35L26.25 -32.35L29.25 -30.1L36.5 -24L36.5 -23.95L33.25 -6.7L36.3 -2.1L41.2 -22.1L41.2 -10.85Q41.8 4.35 42.9 -9Q43.65 -16.95 45.35 -23.8L45.85 -23.8L45 -3.85L48.65 -23.95L48.65 -24.05L60.1 -28.15Q61.15 -26.3 63.25 -25.45L82.7 -26.75L87.9 -26.75L91.65 -26.75L92.7 -26.9Q93.8 -26.9 94.6 -26.3Q95.4 -25.75 95.4 -24.95L95.4 -24.9L92.6 -10.85L94.45 -3.4L94.45 -1L93.05 0.7L84.7 1.2Q82.25 -1.6 78.85 0L75.75 3.15L70.5 3.45Q69.25 2.8 67.95 3L63.9 2.15Q62.45 1.25 59.9 1.3L37.2 0.75Q35.05 -0.7 32.5 0.4M77.65,-25.35Q92.95 -25.35 77.65 -25.8L77.65 -25.35" fill="rgb(113,97,0)" fill-opacity="1"></path><path d="M38.55,-27L35.75 -28.6L36.3 -28.85L36.5 -29.55Q44.85 -25.5 44.45 -35.15L44.9 -35.15Q47.05 -31.1 45.75 -27.55L42.2 -26.8L38.55 -27M42.9,-9Q41.8 4.35 41.2 -10.85L42.1 -22.1L42.1 -23L42.1 -23.2L45.35 -23.8Q43.65 -16.95 42.9 -9" fill="rgb(141,125,0)" fill-opacity="1"></path><path d="M2.85,-41.7L2.2 -41.85L-0.45 -46.3L1.95 -44.5L2.85 -41.7" fill="rgb(65,100,0)" fill-opacity="1"></path><path d="M2.85,-41.7L2.85 -38.9L2.6 -38.9L2.2 -41.85L2.85 -41.7M-3.35,-41.5L-4.35 -38.85Q-4.95 -38.5 -5.65 -38.2L-4.3 -46.05L-3.35 -41.5" fill="rgb(13,18,0)" fill-opacity="1"></path><path d="M1.95,-44.5Q7.25 -45 3.5 -39.15Q3.35 -38.9 2.85 -38.9L2.85 -41.7L1.95 -44.5" fill="rgb(118,132,0)" fill-opacity="1"></path><path d="M2.6,-38.9L2.85 -38.9L2.75 -38.4L2 -38.25Q2.4 -38.45 2.6 -38.9M1.3,-38.1L-0.85 -37.95L-1 -36.85L-1.5 -39.45L1.3 -38.1" fill="rgb(109,98,0)" fill-opacity="1"></path><path d="M0.05,-33.3L-0.25 -34.05L1.8 -33.7L0.05 -33.3" fill="rgb(66,56,0)" fill-opacity="1"></path><path d="M-0.5,4.05Q-1.45 4.05 -2.1 3.5Q-2.75 2.9 -2.75 2.1L-0.5 4.05M-3.55,-29.45L-3.65 -34.25L-3.3 -34.55L-3.55 -29.45" fill="rgb(7,15,0)" fill-opacity="1"></path><path d="M5.65,-32.35L5.15 -32.5L4.85 -33.15L5.55 -32.9L5.8 -32.35L5.65 -32.35" fill="rgb(26,22,0)" fill-opacity="1"></path><path d="M5.65,-32.35L5.8 -32.35L7 -30.6Q5.85 -31.05 5.65 -32.35" fill="rgb(35,30,0)" fill-opacity="1"></path><path d="M16.85,-29.55L16.9 -29.6L16.9 -29.55L16.85 -29.55" fill="rgb(33,28,0)" fill-opacity="1"></path><path d="M77.65,-25.8Q92.95 -25.35 77.65 -25.35L77.65 -25.8" fill="rgb(117,101,0)" fill-opacity="1"></path><path d="M48.1,-23.95L48.65 -24.05L48.65 -23.95L48.1 -23.95" fill="rgb(36,31,0)" fill-opacity="1"></path><path d="M60.1,-28.15L63.25 -25.45Q61.15 -26.3 60.1 -28.15" fill="rgb(40,35,0)" fill-opacity="1"></path><path d="M41.2,-22.1L36.3 -2.1L33.25 -6.7L36.5 -23.95L36.65 -23.9L41.1 -23.05L42.1 -23L42.1 -22.1L41.2 -22.1M48.65,-23.95L45 -3.85L45.85 -23.8L48.1 -23.95L48.65 -23.95" fill="rgb(91,72,0)" fill-opacity="1"></path><path d="M42.2,-26.8L40.6 -26.05L38.55 -27L42.2 -26.8" fill="rgb(118,103,0)" fill-opacity="1"></path><path d="M41.2,-22.1L42.1 -22.1L41.2 -10.85L41.2 -22.1" fill="rgb(120,103,0)" fill-opacity="1"></path><path d="M100.45,-90.55Q101.55 -88.1 100.6 -83.9L100.05 -85.45L100.05 -87.5L100.05 -88.6Q100.5 -89.6 100.45 -90.55" fill="rgb(19,84,0)" fill-opacity="1"></path><path d="M95.4,-83.75L95.3 -84.85L95.85 -83.9L95.4 -83.75M96.5,-89.3L96.35 -88.85L96.35 -89.35L96.5 -89.3M100.05,-88.6L100.05 -87.5L99.35 -87.5L100.05 -88.6" fill="rgb(37,34,0)" fill-opacity="1"></path><path d="M99.5,-85.95Q98.35 -86.65 99.35 -87.5L100.05 -87.5L100.05 -85.45L99.5 -85.95" fill="rgb(97,86,0)" fill-opacity="1"></path><path d="M95.4,-77.2L95.4 -83.75L95.85 -83.9L96.85 -78.95L95.4 -77.2" fill="rgb(48,47,0)" fill-opacity="1"></path><path d="M100.25,-81.05Q100.5 -76.7 99.25 -73.8L100.25 -81.05" fill="rgb(6,71,0)" fill-opacity="1"></path><path d="M96.85,-78.95Q96.85 -77.5 96.15 -76.45Q95.45 -75.45 94.45 -75.45L95.4 -77.2L96.85 -78.95" fill="rgb(10,21,0)" fill-opacity="1"></path><path d="M95.15,-62.65L93.5 -66L93.5 -67.2L95.15 -62.65" fill="rgb(24,37,0)" fill-opacity="1"></path><path d="M92.6,-45.45L98.2 -48.25L98.5 -47.5L93.35 -45.4L92.6 -45.45" fill="rgb(68,62,0)" fill-opacity="1"></path><path d="M98.2,-48.25L99 -49.55L99.35 -48.25L98.5 -47.5L98.2 -48.25" fill="rgb(12,18,0)" fill-opacity="1"></path><path d="M99.1,-44.65L97.95 -40.45L97.25 -37.95L97.05 -37.95L92.6 -41.15L92.6 -41.6L99.1 -44.65" fill="rgb(107,96,0)" fill-opacity="1"></path><path d="M97.95,-31.45L95.4 -35.15L95.4 -36.1L97.95 -31.45M97.25,-37.95L97.95 -40.45L97.25 -37.75L97.25 -37.95" fill="rgb(16,30,0)" fill-opacity="1"></path><path d="M93.35,-45.4Q91.9 -44.55 90.75 -43.25Q90.75 -44.15 91.3 -44.8Q91.85 -45.45 92.6 -45.45L93.35 -45.4M92.4,-41.35L92.6 -41.6L92.6 -41.15L92.4 -41.35" fill="rgb(25,27,0)" fill-opacity="1"></path><path d="M95.4,-36.1L95.4 -35.15L91.8 -38.4L95.4 -36.1M97.05,-37.95L97.25 -37.95L97.25 -37.75L97.05 -37.95" fill="rgb(55,54,0)" fill-opacity="1"></path><path d="M98.55,-28.6Q99.25 -29.35 100.3 -29.35Q100.05 -27.05 97.8 -26.8Q97.8 -27.85 98.55 -28.6M91.65,-26.75L87.9 -26.75L87.9 -27.05L91.65 -26.95L91.65 -26.75" fill="rgb(15,18,0)" fill-opacity="1"></path><path d="M91.65,-26.95L92.7 -26.9L91.65 -26.75L91.65 -26.95M95.4,-24.9L95.4 -24.95L95.85 -24.15L95.4 -24.9" fill="rgb(20,38,0)" fill-opacity="1"></path><path d="M95.85,-24.15L93.1 -9.85L92.6 -10.85L95.4 -24.9L95.85 -24.15" fill="rgb(21,19,0)" fill-opacity="1"></path><path d="M92.6,-10.85L93.1 -9.85L94.55 -3.25L94.45 -3.4L92.6 -10.85" fill="rgb(32,32,0)" fill-opacity="1"></path><path d="M94.45,-3.4L94.55 -3.25L94.45 -1L94.45 -3.4" fill="rgb(57,49,0)" fill-opacity="1"></path><path d="M84.7,1.2L78.85 0Q82.25 -1.6 84.7 1.2" fill="rgb(22,28,0)" fill-opacity="1"></path><path d="M-3.65,-77.25L-3.35 -72.55L-3.9 -62.65L-4.3 -46.05L-5.65 -38.2L-3.65 -34.25L-3.55 -29.45L-2.75 2.1Q-2.75 2.9 -2.1 3.5Q-1.45 4.05 -0.5 4.05Q8.4 3.6 16.9 1.5Q21.7 0.5 27.1 2Q36.95 4.5 47.2 3.95Q56.55 3.15 65.8 4.05Q76.45 5.25 86.65 8.5Q83.7 15.95 74.85 24.3Q68.05 30.65 60.3 35.95L11.3 35.9Q-5.1 28.65 -23.25 35.9L-32.2 32.2L-27.6 -11.15Q-35.7 -20.6 -27.55 -29.45L-32.2 -60.3L-5.55 -90.3L-3.65 -77.25" fill="rgb(0,104,0)" fill-opacity="1"></path><path d="M70.5,3.45L67.95 3Q69.25 2.8 70.5 3.45" fill="rgb(105,91,0)" fill-opacity="1"></path><path d="M63.9,2.15L59.9 1.3Q62.45 1.25 63.9 2.15" fill="rgb(115,99,0)" fill-opacity="1"></path><path d="M37.2,0.75L32.5 0.4Q35.05 -0.7 37.2 0.75" fill="rgb(114,98,0)" fill-opacity="1"></path><path d="M-2.9,-70.05L-3.9 -62.65L-3.35 -72.55L-2.9 -70.05" fill="rgb(1,59,0)" fill-opacity="1"></path><path d="M-3.3,-34.55L-3.65 -34.25L-5.65 -38.2Q-4.95 -38.5 -4.35 -38.85L-3.3 -34.55" fill="rgb(34,31,0)" fill-opacity="1"></path><path d="M-2.75,2.1L-3.55 -29.45L-3.3 -34.55L-4.35 -38.85L-3.35 -41.5L-4.3 -46.05L-3.9 -62.65L-2.9 -70.05Q-2.2 -71.25 -0.85 -71.75L0 -78.15L-0.5 -79.1L-0.85 -79.7L-1.8 -90.1L-1.75 -90.15L-1.8 -90.2L-0.45 -97.75L-0.3 -101.3L-1.4 -103.95L-1.85 -104.65L-4.2 -108.65L-4.25 -110.2L-0.85 -111.8L2.85 -111Q5 -111.2 6.45 -113.2Q6.2 -114.65 6.95 -115.5L15.35 -116.3L18.1 -118.3L19.35 -119.3L23.25 -119.3L24.8 -118.8L32.9 -117.45L33.7 -117.85L34.75 -118.4L36.5 -119.05L36.7 -119.1L47.75 -120.6Q51.45 -120.2 54.75 -118.2L57.35 -116.6L63.4 -115.6L63.6 -115.55L65.35 -117.75L69.2 -118.05L74.6 -115.55L74.85 -115.5L77.4 -115.55L78.55 -115.75L81.25 -117.5Q86.1 -122.35 91.95 -120.2L92.6 -119.75L94.2 -113.7L94.2 -113.45L94.45 -113.65L94.45 -113.7L95.15 -113.15Q98.45 -108.9 96.15 -103.15L95.4 -100.4L94.9 -98.65L95.4 -98.15L96.1 -97.35L99.9 -92.2L100.05 -91.9L100.45 -90.55Q100.5 -89.6 100.05 -88.6L99.35 -87.5Q98.35 -86.65 99.5 -85.95L100.05 -85.45L100.6 -83.9L100.25 -81.05L99.25 -73.8L98 -65.65Q103 -58.25 101.3 -49.7Q99.35 -39.9 100.3 -29.35Q99.25 -29.35 98.55 -28.6Q97.8 -27.85 97.8 -26.8L98.95 -23.2L97 -20.85Q100.75 -3.35 89.6 7.6Q88.4 8.75 86.65 8.5Q76.45 5.25 65.8 4.05Q56.55 3.15 47.2 3.95Q36.95 4.5 27.1 2Q21.7 0.5 16.9 1.5Q8.4 3.6 -0.5 4.05L-2.75 2.1M-1.5,-39.45L-1 -36.85Q6.65 -37.4 11.55 -31.65Q11.8 -31.4 12.3 -31.3L16.2 -34.9L27.2 -36.6L35.75 -28.6L38.55 -27L40.6 -26.05L42.2 -26.8L45.75 -27.55L62.4 -31.7L65.25 -28.7Q72.5 -28.05 80.25 -28.45Q92.6 -29.2 97.95 -31.45L95.4 -36.1L91.8 -38.4L90.75 -43.25Q91.9 -44.55 93.35 -45.4L98.5 -47.5L99.35 -48.25L99 -49.55L95.15 -62.65L93.5 -67.2Q92.9 -68.65 92.85 -70.15L94.45 -75.45Q95.45 -75.45 96.15 -76.45Q96.85 -77.5 96.85 -78.95L95.85 -83.9L95.3 -84.85L96.35 -88.85L96.5 -89.3L96.5 -90.65L90.5 -97.9L88.35 -99.5L87.85 -103.8L89.8 -105.25L91.05 -106.7L91.65 -113.95L91.85 -115.35Q91.85 -116.45 91.15 -117.2L88.5 -118.5L85.1 -117.35L81.85 -114.7Q75.95 -111.05 69.8 -114.6L68.15 -115.6L59.9 -112L59.15 -112.5L55.3 -114.9L53.8 -115.5L52.2 -116.55Q49.9 -117.95 47.3 -118.2Q33.45 -113.2 19.95 -116.9L10.15 -112.9Q9.6 -111.15 8.35 -109.8Q5.3 -106.65 0.75 -107.55Q5.85 -98.8 1.1 -89.8L4.25 -71.95Q3.65 -69.95 1.9 -68.75L0.05 -67.8Q-0.35 -67.5 -0.3 -66.9L-0.3 -65.8L-0.45 -46.3L2.2 -41.85L2.6 -38.9Q2.4 -38.45 2 -38.25L1.3 -38.1L-1.5 -39.45M92.6,-101L93.5 -101.8L94.1 -105.75L94.1 -107.2L93.45 -105.8Q92.2 -103.65 90.15 -102.15L89.75 -101.85L90.65 -101.15L92.6 -101M25.35,-33.3Q25.3 -32.7 24.85 -32.35L18.3 -31.65L16.9 -29.6L16.85 -29.55Q14.85 -26.85 10.65 -27.8Q8 -28.35 7 -30.6L5.8 -32.35L5.55 -32.9L4.85 -33.15L1.8 -33.7L-0.25 -34.05L0.05 -33.3L0.65 -0.85L32.5 0.4L37.2 0.75L59.9 1.3L63.9 2.15L67.95 3L70.5 3.45L75.75 3.15L78.85 0L84.7 1.2L93.05 0.7L94.45 -1L94.55 -3.25L93.1 -9.85L95.85 -24.15L95.4 -24.95Q95.4 -25.75 94.6 -26.3Q93.8 -26.9 92.7 -26.9L91.65 -26.95L87.9 -27.05L82.7 -26.75L63.25 -25.45L60.1 -28.15L48.65 -24.05L48.1 -23.95L45.85 -23.8L45.35 -23.8L42.1 -23.2L41.1 -23.05L36.65 -23.9L36.5 -24L29.25 -30.1L26.85 -33.45L25.35 -33.3M97.25,-37.75L97.95 -40.45L99.1 -44.65L92.6 -41.6L92.4 -41.35L92.6 -41.15L97.05 -37.95L97.25 -37.75" fill="rgb(0,0,0)" fill-opacity="1"></path></g></g></g></g></svg>