<svg width="95" height="83" viewBox="-2 -83 95 83"><g><defs></defs></g><rect x="-2" y="-83" width="95" height="83" fill="#006600"></rect><g id="0"><defs></defs><g><g type="shape" id="0:1:134"><defs></defs><g transform="matrix(1,0,0,1,0,0)"><path d="M81.5,-54.85Q83.75 -52.1 84.3 -48.5L84.5 -46.15L87.75 -47.25L89.3 -63.65L89.3 -64.4L89.25 -65.1L93.8 -44.95L93.5 -41.15Q88 -35.95 80.5 -36.9L79.5 -37.15Q82.7 -43.55 78.45 -48.55Q77.25 -49.9 75.5 -50.15L72.95 -40.95L66.1 -41.2Q56.1 -52.8 41.1 -47.05Q28.05 -25 6.5 -35.15L1.55 -46.1L9.7 -39.5L5.6 -40.7Q11.6 -33 20.7 -34.45Q27.25 -35.3 31.5 -40.15L25 -38.2Q33.15 -41.15 38.5 -48.3L40.2 -50.8L58.95 -51.05L63.6 -48L62.45 -50.55Q52.25 -57 40.8 -52.3L43.3 -60.4L44 -59.25L44.1 -59.2L44.7 -58.6L44.85 -58.3L62.4 -56.85L66.05 -50.65L71.6 -50.55L72.45 -57.4Q72.85 -58.4 73.75 -58.8L74.25 -58.45Q78.5 -58.45 81.5 -54.85M78.3,-54.65Q80.7 -56.6 74.5 -54.15Q74.5 -51.65 78.3 -54.65M26.35,-79.85L25.2 -80L15.5 -79.15Q1.45 -69.75 4.5 -52.35Q1.5 -62.9 7.25 -72.15Q13.4 -82.15 24.95 -80.25L26.85 -79.8L26.35 -79.85M33.25,-76.5L33.2 -76.65L33.45 -76.35L33.35 -76.4L33.25 -76.5M15.35,-40.75L15.65 -40.65L15.25 -40.75L15.35 -40.75M14.2,-41.15L14.5 -40.95L13.5 -41.25L13.85 -41.25L14.2 -41.15M13.25,-41.45L13.4 -41.25L12.85 -41.45L13.25 -41.45M10.65,-43.15L11.7 -42.45L12 -41.8L9.9 -43.75L10.65 -43.15M65.5,-46.15Q65.5 -45.65 65.65 -45.6Q76.8 -41.25 65.5 -46.15M83.2,-40Q96 -44.7 82.5 -42.15Q81.8 -39.45 83.2 -40" fill="rgb(27,24,12)" fill-opacity="1"></path><path d="M43.5,-65.1L47 -65.1L46.3 -64.1L44.5 -64.15L44.5 -61.6L43.8 -60.45Q43.5 -62.75 43.5 -65.1M50.15,-64.2Q50.2 -64.8 49.85 -65.1L52.8 -65.1L50.15 -64.2M44.1,-59.2L44 -59.25L43.9 -59.8L44.5 -59.2L44.5 -59.15L44.1 -59.2" fill="rgb(213,205,78)" fill-opacity="1"></path><path d="M43.8,-60.45L43.9 -59.8L44 -59.25L43.3 -60.4L43.5 -65.1Q43.5 -62.75 43.8 -60.45M63.5,-58.25L59.55 -58.2L59.9 -58.8L63.5 -58.25M44.1,-59.2L44.5 -59.15L44.55 -59.15L44.7 -58.6L44.1 -59.2M47.3,-58.25L47.7 -59.1L48.9 -59.1L48.6 -58.25L47.3 -58.25" fill="rgb(204,196,74)" fill-opacity="1"></path><path d="M59.9,-58.8Q64.65 -64.25 60.6 -64.95L60.5 -65.1L68.1 -65.1L63.5 -58.25L59.9 -58.8M75.2,-65.1L75.4 -65.1L75.35 -65.05L75.2 -65.1M88.7,-65.1L89.25 -65.1L89.3 -64.4L88.7 -65.1M52.8,-65.1L54.65 -65.1L52.15 -58.25L48.6 -58.25L48.9 -59.1L47.7 -59.1L50.15 -64.2L52.8 -65.1M44.5,-61.6L44.5 -64.15L46.3 -64.1L44.5 -61.6M44.5,-59.2L44.55 -59.15L44.5 -59.15L44.5 -59.2M73.25,-59.8Q73.3 -59.25 73.75 -58.8Q72.85 -58.4 72.45 -57.4Q72.55 -58.7 73.25 -59.8M83.9,-54.4L89.3 -63.65L87.75 -47.25L84.5 -46.15L84.3 -48.5L83.9 -54.4" fill="rgb(246,236,89)" fill-opacity="1"></path><path d="M78.2,-59.05L75.1 -58.55L77.85 -65.1L80.6 -65.1L78.2 -59.05M40.2,-50.8L40.8 -52.3Q52.25 -57 62.45 -50.55L63.6 -48L58.95 -51.05L40.2 -50.8M30.25,-70.55L33.25 -76.4L33.35 -76.4L33.45 -76.35L34.55 -74.95L30.25 -70.55M16.95,-47.85L18.55 -47.85L14 -41.3L13.85 -41.25L13.5 -41.25L13.4 -41.25L13.25 -41.45L16.95 -47.85" fill="rgb(104,67,24)" fill-opacity="1"></path><path d="M74.5,-54.15Q80.7 -56.6 78.3 -54.65Q74.5 -51.65 74.5 -54.15" fill="rgb(102,65,23)" fill-opacity="1"></path><path d="M14.2,-66.9Q10.95 -61.05 10.95 -52.75Q9.05 -52.75 7.75 -51Q6.4 -49.25 6.4 -46.8L5.25 -48.15L4.5 -52.35Q1.45 -69.75 15.5 -79.15L25.2 -80Q23.05 -77.95 21.6 -75.35Q20.55 -73.45 22 -72.8Q17.4 -72.8 14.2 -66.9M28.85,-71.75L27.5 -72.6L28.45 -73.2Q28.3 -72.4 28.85 -71.75M30.95,-77.25L30.65 -78.25L31.7 -77.65L30.95 -77.25M26.85,-79.8L27.7 -79.55L26.35 -79.85L26.85 -79.8M16.3,-41.15Q17.85 -41.2 19 -42.95Q20.15 -44.8 20.15 -47.4L24.85 -47.95L21.25 -41.75Q32.4 -49.1 39.05 -63.2L38.65 -67.2L30.8 -55.85Q33.2 -61.95 30.65 -68.9Q32.65 -68.9 34.05 -70.4Q35.45 -71.9 35.45 -74Q42.35 -65.05 37.65 -53.85Q33.5 -43.95 23.5 -41.15L16.3 -41.15M33.25,-76.5L33.35 -76.4L33.25 -76.4L33.25 -76.5M30.1,-70.2L29.85 -70.65L30.2 -70.45L30.1 -70.2M32.75,-56.1L32.7 -56.05Q33 -57.25 32.75 -56.1M14.2,-41.15L13.85 -41.25L14 -41.3L14.2 -41.15M10.65,-43.15L11.65 -43.15L11.7 -42.45L10.65 -43.15" fill="rgb(234,225,85)" fill-opacity="1"></path><path d="M24.85,-47.95L20.15 -47.4Q19.6 -48.1 18.55 -47.85L16.95 -47.85L16 -48.55L10.95 -52.75Q10.95 -61.05 14.2 -66.9Q17.4 -72.8 22 -72.8L27.5 -72.6L28.85 -71.75L29.85 -70.65L30.1 -70.2Q29.9 -69.25 30.65 -68.9Q33.2 -61.95 30.8 -55.85L24.85 -47.95M26.5,-67.65Q24.35 -73.95 15.5 -66.15Q17.1 -65.2 24.75 -67.2L26.5 -67.65M24.5,-65.15Q15.7 -63.8 13.5 -55.15Q24 -46.3 26.65 -60.4Q27.2 -63.2 24.5 -65.15" fill="rgb(21,21,7)" fill-opacity="1"></path><path d="M1.1,-62.1L1.55 -46.1L6.5 -35.15Q28.05 -25 41.1 -47.05Q56.1 -52.8 66.1 -41.2L72.95 -40.95L75.5 -50.15Q77.25 -49.9 78.45 -48.55Q82.7 -43.55 79.5 -37.15L80.5 -36.9Q88 -35.95 93.5 -41.15Q92.05 -29.3 79.25 -30.65Q68.1 -31.8 59.5 -38.25Q58.2 -39.25 57.35 -40.7L47.8 -41.9Q34.95 -27.75 16.25 -28.1Q6.6 -28.3 2.05 -37Q-0.4 -41.6 -1.5 -46.7Q-3.3 -55 1.1 -62.1" fill="rgb(9,110,43)" fill-opacity="1"></path><path d="M26.65,-60.4Q24 -46.3 13.5 -55.15Q15.7 -63.8 24.5 -65.15Q27.2 -63.2 26.65 -60.4" fill="rgb(0,105,36)" fill-opacity="1"></path><path d="M24.75,-67.2Q17.1 -65.2 15.5 -66.15Q24.35 -73.95 26.5 -67.65L24.75 -67.2" fill="rgb(102,66,23)" fill-opacity="1"></path><path d="M9.7,-39.5L25 -38.2L31.5 -40.15Q27.25 -35.3 20.7 -34.45Q11.6 -33 5.6 -40.7L9.7 -39.5" fill="rgb(104,66,23)" fill-opacity="1"></path><path d="M16.3,-41.15L23.5 -41.15L15.65 -40.65L15.35 -40.75L16.3 -41.15" fill="rgb(132,127,48)" fill-opacity="1"></path><path d="M65.65,-45.6Q65.5 -45.65 65.5 -46.15Q76.8 -41.25 65.65 -45.6" fill="rgb(103,66,23)" fill-opacity="1"></path><path d="M82.5,-42.15Q96 -44.7 83.2 -40Q81.8 -39.45 82.5 -42.15" fill="rgb(104,67,23)" fill-opacity="1"></path><path d="M52.8,-65.1L49.85 -65.1L47 -65.1L43.5 -65.1L43.3 -60.4L40.8 -52.3L40.2 -50.8L38.5 -48.3Q33.15 -41.15 25 -38.2L9.7 -39.5L1.55 -46.1L1.1 -62.1Q3.85 -69.05 8.1 -74.85Q11.55 -79.5 16.5 -83L24.3 -82.6Q33.2 -81.9 38.6 -74.95Q41.05 -71.85 43.1 -68.45L91.3 -68.65L93.8 -44.95L89.25 -65.1L88.7 -65.1L83.4 -65.1L80.6 -65.1L77.85 -65.1L75.4 -65.1L75.2 -65.1L68.1 -65.1L60.5 -65.1L54.65 -65.1L52.8 -65.1M63.5,-58.25L64.35 -58Q67.45 -55.85 66.05 -50.65L62.4 -56.85L44.85 -58.3L47.3 -58.25L48.6 -58.25L52.15 -58.25L59.55 -58.2L63.5 -58.25M83.9,-54.4L84.3 -48.5Q83.75 -52.1 81.5 -54.85Q78.5 -58.45 74.25 -58.45L75.1 -58.55L78.2 -59.05L80.2 -58.7L83.9 -54.4M9.9,-43.75L12 -41.8L12.85 -41.45L13.4 -41.25L13.5 -41.25L14.5 -40.95L15.25 -40.75L15.65 -40.65L23.5 -41.15Q33.5 -43.95 37.65 -53.85Q42.35 -65.05 35.45 -74L34.55 -74.95L33.45 -76.35L33.2 -76.65Q32.95 -77.7 31.7 -77.65L30.65 -78.25L27.7 -79.55L26.85 -79.8L24.95 -80.25Q13.4 -82.15 7.25 -72.15Q1.5 -62.9 4.5 -52.35L5.25 -48.15L6.4 -46.8L9.9 -43.75" fill="rgb(0,0,0)" fill-opacity="1"></path><path d="M68.1,-65.1L75.2 -65.1L75.35 -65.05L73.25 -59.8Q72.55 -58.7 72.45 -57.4L71.6 -50.55L66.05 -50.65Q67.45 -55.85 64.35 -58L63.5 -58.25L68.1 -65.1M83.4,-65.1L88.7 -65.1L89.3 -64.4L89.3 -63.65L83.9 -54.4L80.2 -58.7L83.4 -65.1M26.35,-79.85L27.7 -79.55L30.65 -78.25L30.95 -77.25L28.45 -73.2L27.5 -72.6L22 -72.8Q20.55 -73.45 21.6 -75.35Q23.05 -77.95 25.2 -80L26.35 -79.85M9.9,-43.75L6.4 -46.8Q6.4 -49.25 7.75 -51Q9.05 -52.75 10.95 -52.75L16 -48.55L11.65 -43.15L10.65 -43.15L9.9 -43.75" fill="rgb(221,184,0)" fill-opacity="1"></path><path d="M75.1,-58.55L74.25 -58.45L73.75 -58.8Q73.3 -59.25 73.25 -59.8L75.35 -65.05L75.4 -65.1L77.85 -65.1L75.1 -58.55M80.2,-58.7L78.2 -59.05L80.6 -65.1L83.4 -65.1L80.2 -58.7M30.1,-70.2L30.2 -70.45L29.85 -70.65L28.85 -71.75Q28.3 -72.4 28.45 -73.2L30.95 -77.25L31.7 -77.65Q32.95 -77.7 33.2 -76.65L33.25 -76.5L33.25 -76.4L30.25 -70.55L34.55 -74.95L35.45 -74Q35.45 -71.9 34.05 -70.4Q32.65 -68.9 30.65 -68.9Q29.9 -69.25 30.1 -70.2M15.25,-40.75L14.5 -40.95L14.2 -41.15L14 -41.3L18.55 -47.85Q19.6 -48.1 20.15 -47.4Q20.15 -44.8 19 -42.95Q17.85 -41.2 16.3 -41.15L15.35 -40.75L15.25 -40.75M13.25,-41.45L12.85 -41.45L12 -41.8L11.7 -42.45L11.65 -43.15L16 -48.55L16.95 -47.85L13.25 -41.45" fill="rgb(162,125,0)" fill-opacity="1"></path><path d="M50.15,-64.2L47.7 -59.1L47.3 -58.25L44.85 -58.3L44.7 -58.6L44.55 -59.15L44.5 -59.2L43.9 -59.8L43.8 -60.45L44.5 -61.6L46.3 -64.1L47 -65.1L49.85 -65.1Q50.2 -64.8 50.15 -64.2M30.8,-55.85L38.65 -67.2L39.05 -63.2Q32.4 -49.1 21.25 -41.75L24.85 -47.95L30.8 -55.85M32.7,-56.05L32.75 -56.1Q33 -57.25 32.7 -56.05" fill="rgb(246,255,187)" fill-opacity="1"></path><path d="M60.6,-64.95Q64.65 -64.25 59.9 -58.8L59.55 -58.2L52.15 -58.25L54.65 -65.1L60.5 -65.1L60.6 -64.95" fill="rgb(255,255,255)" fill-opacity="1"></path></g></g></g></g></svg>