<svg width="32" height="36" viewBox="-16 -18 32 36"><g><defs></defs></g><rect x="-16" y="-18" width="32" height="36" fill="#006600"></rect><g id="0"><defs></defs><g><g type="shape" id="0:1:422"><defs></defs><g transform="matrix(1,0,0,1,0,0)"><path d="M-12.35,-11.15Q-8.55 2.95 -0.5 12.9Q3.55 11.45 5.75 7.6Q11.95 -3.55 9.5 -14.1L8.75 -13.85Q2.75 -7.85 -0.5 0.9Q-1.7 -0.4 -2.2 -3Q-4.35 -14.95 -12.5 -12.1L-12.35 -11.15M-16.5,-15.1L-16.5 -16.1Q-14.8 -16.4 -14.1 -17.9L-13.5 -18.1L-5.5 -18.1L-4.5 -18.1Q-0.05 -12 2.9 -17.9L3.5 -18.1L12.5 -18.1L13.5 -18.1L16.25 -15.85L16.5 -15.1L16.5 -8.1L16.5 -7.1L16.35 -6.15L7.5 14.9Q7 14.9 6.9 15.1Q4.65 19.05 -2.5 17.9L-3.3 17.65Q-13.05 8.95 -16.5 -6.1L-16.5 -7.1L-16.5 -15.1" fill="rgb(8,8,8)" fill-opacity="1"></path><path d="M-12.5,-12.1Q-4.35 -14.95 -2.2 -3Q-1.7 -0.4 -0.5 0.9Q2.75 -7.85 8.75 -13.85L9.5 -14.1Q11.95 -3.55 5.75 7.6Q3.55 11.45 -0.5 12.9Q-8.55 2.95 -12.35 -11.15L-12.5 -12.1" fill="rgb(243,243,243)" fill-opacity="1"></path></g></g></g></g></svg>