<svg width="36" height="48" viewBox="-18 -24 36 48"><g><defs></defs></g><rect x="-18" y="-24" width="36" height="48" fill="#006600"></rect><g id="0"><defs></defs><g><g type="shape" id="0:1:428"><defs></defs><g transform="matrix(1,0,0,1,0,0)"><path d="M-12.9,-17.75L-3.1 3.35Q-3.1 3.85 -3.35 4.2Q-9.1 12.1 -6.1 19.35Q-5.1 19.35 -4.7 18.85Q2 10.95 7.4 1.15Q13.5 -9.95 11.9 -19.65L11.05 -19.45Q3.6 -14.95 0.9 -5.65L0.4 -5.75Q-2.4 -18.8 -13.1 -18.65L-12.9 -17.75M-18.1,-21.65Q-11.25 -27.6 -3.6 -22L0.9 -18.65L1.3 -19.45Q2.9 -22.65 5.9 -24.65L13.9 -24.65L14.9 -24.65Q19.7 -22.95 17.4 -16.15Q11.15 2.6 3.9 21.35L3.1 21.6Q-4.6 28.05 -12.1 21.35L-12.1 20.35L-12.1 11.35L-11.9 10.45Q-9.3 5.65 -10.1 2.35L-10.3 1.45L-18.1 -12.65L-18.1 -13.65L-18.1 -21.65" fill="rgb(10,10,10)" fill-opacity="1"></path><path d="M-13.1,-18.65Q-2.4 -18.8 0.4 -5.75L0.9 -5.65Q3.6 -14.95 11.05 -19.45L11.9 -19.65Q13.5 -9.95 7.4 1.15Q2 10.95 -4.7 18.85Q-5.1 19.35 -6.1 19.35Q-9.1 12.1 -3.35 4.2Q-3.1 3.85 -3.1 3.35L-12.9 -17.75L-13.1 -18.65" fill="rgb(246,246,246)" fill-opacity="1"></path></g></g></g></g></svg>