<svg width="34" height="50" viewBox="-17 -25 34 50"><g><defs></defs></g><rect x="-17" y="-25" width="34" height="50" fill="#006600"></rect><g id="0"><defs></defs><g><g type="shape" id="0:1:19"><defs></defs><g transform="matrix(1,0,0,1,0,0)"><path d="M-17.7,-1.9Q-13.45 -11.15 -0.7 -11.85L0.3 -11.9Q0.5 -20.7 5.5 -24.65L6.3 -24.9Q14.25 -25.85 17.05 -21.75L17.3 -20.9L17.3 -5.9L17.3 -4.9L17.35 -3.9Q18.75 12.05 15.3 23.1L15.2 23.65Q2.9 26.45 -9.7 24.1Q-9.7 23.6 -9.85 23.55Q-16.55 20.95 -17.7 13.1L-17.7 12.1L-17.7 1.1L-17.7 0.1L-17.7 -1.9M12.3,12.1L12.3 0.1L12.3 -0.9L12.3 -14.9L12.3 -15.9Q12.15 -21.7 8.3 -18.9L7.8 -18.9Q7.65 -10.05 3.3 -5.9L3.3 -6.4Q-8.65 -6.85 -12.7 1.1Q-13.35 8.75 -11.85 14.15Q-11.7 14.6 -11.7 15.1Q-3.6 21.6 9.25 19.85Q13.45 19.25 12.3 13.1L12.3 12.1" fill="rgb(10,10,10)" fill-opacity="1"></path><path d="M11.3,0.1Q11.3 6.6 11.8 13.05L12.3 13.1Q13.45 19.25 9.25 19.85Q-3.6 21.6 -11.7 15.1Q-11.7 14.6 -11.85 14.15Q-13.35 8.75 -12.7 1.1Q-8.65 -6.85 3.3 -6.4L3.3 -5.9Q7.65 -10.05 7.8 -18.9L8.3 -18.9Q12.15 -21.7 12.3 -15.9L12.3 -14.9L12.3 -0.9L12.3 0.1L11.3 0.1M-6.7,4.1Q-7.35 16.25 2.3 13.1Q6.25 12.55 5.2 7.1Q2.7 -6.45 -6.7 3.1L-6.7 4.1" fill="rgb(249,249,249)" fill-opacity="1"></path><path d="M-6.7,3.1Q2.7 -6.45 5.2 7.1Q6.25 12.55 2.3 13.1Q-7.35 16.25 -6.7 4.1L-6.7 3.1" fill="rgb(18,18,18)" fill-opacity="1"></path><path d="M12.3,0.1L12.3 12.1L12.3 13.1L11.8 13.05Q11.3 6.6 11.3 0.1L12.3 0.1" fill="rgb(130,130,130)" fill-opacity="1"></path></g></g></g></g></svg>