<svg width="30" height="38" viewBox="-15 -19 30 38"><g><defs></defs></g><rect x="-15" y="-19" width="30" height="38" fill="#006600"></rect><g id="0"><defs></defs><g><g type="shape" id="0:1:414"><defs></defs><g transform="matrix(1,0,0,1,0,0)"><path d="M12.6,-16.85Q19.25 -6.85 12.25 2.9L11.6 3.15L10.6 3.15L3.6 3.15L2.6 3.15L2.35 2.4L0.6 1.15L0.6 14.15L0.6 15.15L0.35 15.95Q-3.95 21.1 -11.4 18.15Q-13.1 17.85 -13.55 16.2Q-16.85 3.1 -15.4 -14.85Q-13.25 -15.7 -12.05 -17.65L-11.4 -17.85L-4.4 -17.85L-3.4 -17.85Q5.35 -20.85 11.75 -17.05L12.6 -16.85M0.75,-6.35Q2.6 -6.85 3.15 -5.95Q9.1 3.85 10.6 -9.85Q9.6 -11.35 8.45 -11.45Q-1.4 -12.35 -10.4 -11.85Q-12.45 4.7 -5.9 13Q-5.4 13.65 -4.4 12.15Q-2.65 6.9 -3.35 -0.85L-3.4 -1.85Q-2.45 -5.4 0.75 -6.35" fill="rgb(8,8,8)" fill-opacity="1"></path><path d="M-4.4,11.15L-4.4 -1.85L-3.4 -1.85L-3.35 -0.85Q-2.65 6.9 -4.4 12.15L-4.4 11.15" fill="rgb(124,124,124)" fill-opacity="1"></path><path d="M-4.4,12.15Q-5.4 13.65 -5.9 13Q-12.45 4.7 -10.4 -11.85Q-1.4 -12.35 8.45 -11.45Q9.6 -11.35 10.6 -9.85Q9.1 3.85 3.15 -5.95Q2.6 -6.85 0.75 -6.35Q-2.45 -5.4 -3.4 -1.85L-4.4 -1.85L-4.4 11.15L-4.4 12.15" fill="rgb(250,250,250)" fill-opacity="1"></path></g></g></g></g></svg>