<svg width="32" height="48" viewBox="-16 -24 32 48"><g><defs></defs></g><rect x="-16" y="-24" width="32" height="48" fill="#006600"></rect><g id="0"><defs></defs><g><g type="shape" id="0:1:406"><defs></defs><g transform="matrix(1,0,0,1,0,0)"><path d="M-5.5,-4.95Q-6.8 0.85 -3.5 1.55L-3.5 1.05L-3.25 0.3Q1.85 -5.1 9.5 -7.95L10 -7.9Q10.95 -1.4 4.5 3.05L4 3.05Q11.6 11.35 10.5 19.05L10.5 19.55Q3 16.05 -1.5 9.05Q-2.7 7.45 -3.15 10.25Q-5.25 23.05 -11.5 17.05L-11.5 16.05L-11.5 8.05L-11.5 7.05L-11.5 -4.95L-11 -5.05Q-9.75 -10.7 -11.5 -13.95L-11.5 -14.95L-11.5 -18.95Q-1.7 -21.2 -4.4 -5.95L-4.5 -4.95L-5.5 -4.95" fill="rgb(249,249,249)" fill-opacity="1"></path><path d="M-12.5,-24.95L-5.5 -24.95L-4.5 -24.95Q1.85 -21.3 1.8 -12.65L3.5 -12.95L11.5 -12.95L12.5 -12.95L15.25 -10.7L15.5 -9.95L15.5 -1.95L15.5 -0.95L15.25 -0.2L11.5 3.05Q12.95 8.1 16.25 11.3L16.5 12.05L16.5 20.05L16.5 21.05Q15.65 23.2 13.75 24.45Q11.7 25.75 8.2 23.8Q-0.05 19.2 -3.5 24.05L-4.5 24.05L-13.5 24.05L-14.35 23.8Q-16.05 22.6 -16.5 20.05L-16.5 19.05L-16.5 9.05L-16.5 8.05L-16.5 -21.95Q-14.35 -22.8 -13.15 -24.75L-12.5 -24.95M-11.5,-4.95L-11.5 7.05L-11.5 8.05L-12.5 8.05Q-12.5 12.55 -12 17L-11.5 17.05Q-5.25 23.05 -3.15 10.25Q-2.7 7.45 -1.5 9.05Q3 16.05 10.5 19.55L10.5 19.05Q11.6 11.35 4 3.05L4.5 3.05Q10.95 -1.4 10 -7.9L9.5 -7.95Q1.85 -5.1 -3.25 0.3L-3.5 1.05L-4 0.95Q-4.5 -1.95 -4.5 -4.95L-4.4 -5.95Q-1.7 -21.2 -11.5 -18.95L-11.5 -14.95L-11.5 -13.95L-11.5 -5.95L-11.5 -4.95" fill="rgb(7,7,7)" fill-opacity="1"></path><path d="M-11.5,-5.95L-11.5 -13.95Q-9.75 -10.7 -11 -5.05L-11.5 -4.95L-11.5 -5.95M-3.5,1.05L-3.5 1.55Q-6.8 0.85 -5.5 -4.95L-4.5 -4.95Q-4.5 -1.95 -4 0.95L-3.5 1.05" fill="rgb(191,191,191)" fill-opacity="1"></path><path d="M-12,17Q-12.5 12.55 -12.5 8.05L-11.5 8.05L-11.5 16.05L-11.5 17.05L-12 17" fill="rgb(99,99,99)" fill-opacity="1"></path></g></g></g></g></svg>