<svg width="38" height="38" viewBox="-19 -19 38 38"><g><defs></defs></g><rect x="-19" y="-19" width="38" height="38" fill="#006600"></rect><g id="0"><defs></defs><g><g type="shape" id="0:1:426"><defs></defs><g transform="matrix(1,0,0,1,0,0)"><path d="M9,-17.95Q10 -18.95 12 -19Q17.65 -19.1 19 -14.95L19 -7.95L19 -6.95L18.75 -6.3Q12.35 -1.65 15 3.05Q15 3.55 15.25 3.85Q22.1 12.8 13 19.05Q11 19.05 9.3 18.35Q1.8 15.35 -3 14.05Q-3.5 15.05 -4.3 15.45Q-19.35 23.2 -19 5.05Q-9.4 0.2 -15.75 -6.2L-16 -6.95L-16 -7.95L-16 -14.95L-16 -15.95Q-14.3 -16.25 -13.6 -17.75L-13 -17.95L-5 -17.95L-4 -17.95Q1.6 -10.55 9 -17.95M5.2,-0.55Q13.5 -4.95 13 -12.95L13 -13.45Q5.55 -10.9 1 -4.95Q0.5 -4.95 0.4 -5.15Q-2.65 -11.3 -9 -13.95L-9.55 -13.85Q-11.5 -6.4 -5 -1.95L-5.2 -1.05Q-8.25 4.8 -14 8.05Q-14.2 10.75 -12.85 10.95Q-5.75 11.75 0 5.05L0.6 5.25Q4.35 13.6 12 13.05L11.95 12.05Q11.4 5.65 5 0.05Q5 -0.45 5.2 -0.55" fill="rgb(9,9,9)" fill-opacity="1"></path><path d="M5,0.05Q11.4 5.65 11.95 12.05L12 13.05Q4.35 13.6 0.6 5.25L0 5.05Q-5.75 11.75 -12.85 10.95Q-14.2 10.75 -14 8.05Q-8.25 4.8 -5.2 -1.05L-5 -1.95Q-11.5 -6.4 -9.55 -13.85L-9 -13.95Q-2.65 -11.3 0.4 -5.15Q0.5 -4.95 1 -4.95Q5.55 -10.9 13 -13.45L13 -12.95Q13.5 -4.95 5.2 -0.55Q5 -0.45 5 0.05" fill="rgb(246,246,246)" fill-opacity="1"></path></g></g></g></g></svg>