<svg width="34" height="48" viewBox="-17 -24 34 48"><g><defs></defs></g><rect x="-17" y="-24" width="34" height="48" fill="#006600"></rect><g id="0"><defs></defs><g><g type="shape" id="0:1:388"><defs></defs><g transform="matrix(1,0,0,1,0,0)"><path d="M-12.5,16.1Q-5.2 21.85 6.55 17.25L7.5 17.1Q16.25 7.9 9.7 -4L9.5 -4.9Q3.3 -9.45 -5.55 -7.05L-6.5 -6.9L-6.5 -7.9L-6.5 -16.9L-6.7 -17.8Q-8.55 -21.5 -12.5 -18.9L-12.5 -17.9L-12.5 -16.9L-13.5 -16.9Q-13.5 -0.4 -13 16.1L-12.5 16.1M-4.5,-24.9Q0 -21.9 0 -12.9L1.5 -12.9L7.5 -12.9Q14.65 -9.1 17.35 -0.85L17.5 0.1L17.5 9.1L17.5 10.1L17.35 11.05Q14.6 20.2 6.5 24.1L5.5 24.2Q-11.3 26.9 -17.5 19.1L-17.5 18.1L-17.5 -19.9L-17.5 -20.9L-17.5 -21.9Q-15.35 -22.75 -14.15 -24.7L-13.5 -24.9L-5.5 -24.9L-4.5 -24.9" fill="rgb(7,7,7)" fill-opacity="1"></path><path d="M-5.55,-7.05Q3.3 -9.45 9.5 -4.9L9.7 -4Q16.25 7.9 7.5 17.1L6.55 17.25Q-5.2 21.85 -12.5 16.1L-12.5 15.1L-12.5 -16.9L-12.5 -17.9L-12.5 -18.9Q-8.55 -21.5 -6.7 -17.8L-6.5 -16.9L-7.5 -16.9Q-7.5 -11.9 -7 -6.95L-6.5 -6.9L-5.55 -7.05M-6.5,1.1L-7.5 1.1Q-7.5 6.1 -7 11.05L-6.5 11.1L-6.3 11.7Q-0.25 14.45 3.5 11.1L4.05 10.95Q9.5 -4.7 -6.5 0.1L-6.5 1.1" fill="rgb(249,249,249)" fill-opacity="1"></path><path d="M-6.5,-7.9L-6.5 -6.9L-7 -6.95Q-7.5 -11.9 -7.5 -16.9L-6.5 -16.9L-6.5 -7.9M-7,11.05Q-7.5 6.1 -7.5 1.1L-6.5 1.1L-6.5 10.1L-6.5 11.1L-7 11.05" fill="rgb(191,191,191)" fill-opacity="1"></path><path d="M-6.5,0.1Q9.5 -4.7 4.05 10.95L3.5 11.1Q-0.25 14.45 -6.3 11.7L-6.5 11.1L-6.5 10.1L-6.5 1.1L-6.5 0.1M-2.5,4.1L-2.25 4.75Q2.7 7.95 -2.5 4.1" fill="rgb(11,11,11)" fill-opacity="1"></path><path d="M-13,16.1Q-13.5 -0.4 -13.5 -16.9L-12.5 -16.9L-12.5 15.1L-12.5 16.1L-13 16.1" fill="rgb(65,65,65)" fill-opacity="1"></path></g></g></g></g></svg>