<svg width="32" height="36" viewBox="-16 -18 32 36"><g><defs></defs></g><rect x="-16" y="-18" width="32" height="36" fill="#006600"></rect><g id="0"><defs></defs><g><g type="shape" id="0:1:15"><defs></defs><g transform="matrix(1,0,0,1,0,0)"><path d="M-4.6,-2Q-6.4 7.4 1.5 7Q3 6 3.3 4.75Q7 -11.95 -4.5 -3L-4.6 -2M11.5,3L11.5 4L11.3 4.9Q9.05 10.05 4.5 13L3.5 13.05Q-13.3 14.3 -11.5 -3Q-6.4 -16.6 8 -9.95Q10.7 -8.7 11.5 -5L11.5 3" fill="rgb(248,248,248)" fill-opacity="1"></path><path d="M-4.5,-3Q7 -11.95 3.3 4.75Q3 6 1.5 7Q-6.4 7.4 -4.6 -2L-4.5 -3" fill="rgb(10,10,10)" fill-opacity="1"></path><path d="M-4.45,-17.85L-3.5 -18L5.5 -18L6.5 -18Q14.35 -15.85 16.4 -7.95L16.5 -7L16.5 6L16.5 7L16.35 7.95Q13.4 15.4 5.5 18L4.5 18L-5.5 18L-6.4 17.8Q-12.65 14.65 -16.5 9L-16.5 8L-16.5 -6Q-13.2 -14.7 -4.45 -17.85M12,3.9Q13.25 -1.75 11.5 -5Q10.7 -8.7 8 -9.95Q-6.4 -16.6 -11.5 -3Q-13.3 14.3 3.5 13.05L4.5 13Q9.05 10.05 11.3 4.9L11.5 4L12 3.9" fill="rgb(8,8,8)" fill-opacity="1"></path><path d="M11.5,-5Q13.25 -1.75 12 3.9L11.5 4L11.5 3L11.5 -5" fill="rgb(145,145,145)" fill-opacity="1"></path></g></g></g></g></svg>