<svg width="30" height="44" viewBox="-15 -22 30 44"><g><defs></defs></g><rect x="-15" y="-22" width="30" height="44" fill="#006600"></rect><g id="0"><defs></defs><g><g type="shape" id="0:1:418"><defs></defs><g transform="matrix(1,0,0,1,0,0)"><path d="M15.5,-2.5L15.5 -1.5Q14.7 1.2 11.5 1.4L10 1.5Q10.8 16.3 4.5 22.5L3.5 22.5L-4.5 22.5L-5.25 22.25L-7.5 19.5L-7.45 18.5Q-6.75 9.75 -8.5 3.5Q-8.5 3 -8.6 3Q-14.05 2.05 -15.5 -2.5L-15.5 -3.5L-15.5 -10.5L-15.5 -11.5L-15.5 -12.5Q-8.5 -16.5 -2.45 -21.05Q-0.5 -22.5 2.5 -22.5L4.5 -22.5Q7.7 -15.2 15.3 -12.05L15.5 -11.5L15.5 -2.5M-3.5,7.5L-3.5 8.5Q-3.5 12.5 -3 16.45L-2.5 16.5Q4.85 19.85 3.35 9.5Q2.1 0.6 5.5 -3.5L6.45 -3.7Q17.4 -8.15 3.5 -9.5Q3.5 -11.5 3 -13.35Q1.1 -20.1 -2.55 -14.85L-4.5 -12.35Q-7.25 -9.25 -11.5 -7.5Q-9.75 -2.75 -3.9 -1.1Q-3.5 -1 -3.5 0.5L-3.5 7.5" fill="rgb(8,8,8)" fill-opacity="1"></path><path d="M-2.5,15.5L-2.5 8.5L-2.45 7.5Q-1.75 2.75 -3.5 0.5Q-3.5 -1 -3.9 -1.1Q-9.75 -2.75 -11.5 -7.5Q-7.25 -9.25 -4.5 -12.35L-2.55 -14.85Q1.1 -20.1 3 -13.35Q3.5 -11.5 3.5 -9.5Q17.4 -8.15 6.45 -3.7L5.5 -3.5Q2.1 0.6 3.35 9.5Q4.85 19.85 -2.5 16.5L-2.5 15.5" fill="rgb(247,247,247)" fill-opacity="1"></path><path d="M-2.5,8.5L-2.5 15.5L-2.5 16.5L-3 16.45Q-3.5 12.5 -3.5 8.5L-2.5 8.5" fill="rgb(165,165,165)" fill-opacity="1"></path><path d="M-3.5,8.5L-3.5 7.5L-3.5 0.5Q-1.75 2.75 -2.45 7.5L-2.5 8.5L-3.5 8.5" fill="rgb(187,187,187)" fill-opacity="1"></path></g></g></g></g></svg>