<svg width="75" height="169" viewBox="-7 -132 75 169"><g><defs></defs></g><rect x="-7" y="-132" width="75" height="169" fill="#006600"></rect><g id="0"><defs></defs><g><g type="shape" id="0:1:254"><defs></defs><g transform="matrix(1,0,0,1,0,0)"><path d="M28.1,-117.8L29.1 -128.8L29.1 -117.8L28.1 -117.8" fill="rgb(16,56,0)" fill-opacity="1"></path><path d="M57.1,2.2L49.1 1.2L33.1 1.2L32.15 1.1Q29.35 0.4 29.1 -2.8L29.1 -35.8L29.1 -101.8L29.1 -117.8L29.1 -128.8Q28.4 -131.5 31.1 -131.45L64.05 -132.6Q66 -132.45 67.85 -131.5L68.85 -129.85L68.9 -129.8Q69.05 -64.3 68.3 1.2Q68.3 3.05 66.1 2.2L57.1 2.2M63.1,-51.8L66.1 -51.8L67.1 -81.8L66.1 -109.8L63.1 -110.8Q63.1 -111.8 63.5 -112.6L64.1 -112.8L67.1 -113.8L66.1 -127.8L65.1 -127.8L32.1 -127.8L31.1 -115.8L34.1 -114.8L34.1 -113.8L34.1 -110.8L31.1 -108.8L31.1 -52.8L33.1 -51.8L34.1 -47.8L34.1 -46.8L32.1 -46.8L32.1 -35.8L66.1 -36.8L65.1 -46.8L64.9 -47.4L63.1 -47.8L63.1 -51.8M65.2,-31.4L33.1 -31.8L30.9 -30L31.35 -1.25L65.95 -0.8L66.1 -4.8L65.2 -31.4" fill="rgb(4,6,0)" fill-opacity="1"></path><path d="M32.1,-127.8L32.1 -115.8L31.1 -115.8L32.1 -127.8" fill="rgb(224,211,0)" fill-opacity="1"></path><path d="M64.1,-115.8L66.1 -115.8L66.1 -114.8L34.1 -114.8L31.1 -115.8L32.1 -115.8L64.1 -115.8" fill="rgb(119,111,0)" fill-opacity="1"></path><path d="M65.1,-127.8L65.1 -126.8L40.1 -126.8L64.1 -123.8L64.1 -115.8L32.1 -115.8L32.1 -127.8L65.1 -127.8" fill="rgb(246,232,0)" fill-opacity="1"></path><path d="M34.1,-110.8L34.1 -113.8L64.1 -112.8L63.5 -112.6Q63.1 -111.8 63.1 -110.8L34.1 -110.8" fill="rgb(79,44,0)" fill-opacity="1"></path><path d="M66.35,-114.05Q66.6 -113.8 67.1 -113.8L64.1 -112.8L34.1 -113.8L34.1 -114.8L66.1 -114.8Q66.1 -114.3 66.35 -114.05" fill="rgb(40,27,0)" fill-opacity="1"></path><path d="M28.1,-101.8L28.1 -117.8L29.1 -117.8L29.1 -101.8L28.1 -101.8" fill="rgb(0,49,0)" fill-opacity="1"></path><path d="M28.1,-35.8L28.1 -101.8L29.1 -101.8L29.1 -35.8L28.1 -35.8" fill="rgb(1,89,25)" fill-opacity="1"></path><path d="M49.1,2.2L57.1 2.2L66.1 2.2L65.85 2.95Q47.8 19.9 30.1 37.2L29.1 37.25Q10.7 38.6 -2.9 35.2Q-5.2 34 -5.35 31.15Q-7.65 -17.05 -6.9 -67.8Q10.45 -84.45 27.35 -101.55L28.1 -101.8L28.1 -35.8L29.1 -2.8Q29.35 0.4 32.15 1.1L33.1 1.2L49.1 2.2" fill="rgb(0,107,36)" fill-opacity="1"></path><path d="M63.1,-110.8L66.1 -109.8L54.1 -105.8L43.1 -106.8L38.1 -102.8L38.35 -103.65Q42.35 -109.55 31.1 -108.8L34.1 -110.8L63.1 -110.8" fill="rgb(100,67,0)" fill-opacity="1"></path><path d="M37.1,-100.8L37.1 -92.8Q48.25 -82.05 43.25 -67.75L43.1 -66.8Q44.9 -60.25 52.2 -63.6L53.1 -63.8Q53.85 -69.95 55 -75.6Q55.25 -77.05 52.1 -78.8Q52.65 -87.75 58.9 -91.2L59.1 -91.8L59.1 -99.8L54.1 -105.8L66.1 -109.8L66.1 -81.8L66.1 -51.8L63.1 -51.8L33.1 -51.8L31.1 -52.8L31.1 -108.8Q42.35 -109.55 38.35 -103.65L38.1 -102.8L37.1 -100.8" fill="rgb(113,79,0)" fill-opacity="1"></path><path d="M54.1,-105.8L59.1 -99.8L59.1 -91.8L58.9 -91.2Q52.65 -87.75 52.1 -78.8Q55.25 -77.05 55 -75.6Q53.85 -69.95 53.1 -63.8L52.2 -63.6Q44.9 -60.25 43.1 -66.8L43.25 -67.75Q48.25 -82.05 37.1 -92.8L37.1 -100.8L38.1 -102.8L43.1 -106.8L54.1 -105.8" fill="rgb(2,2,0)" fill-opacity="1"></path><path d="M40.1,-126.8L65.1 -126.8L65.2 -125.85Q65.75 -123.65 64.1 -123.8L40.1 -126.8" fill="rgb(217,204,0)" fill-opacity="1"></path><path d="M66.1,-115.8L64.1 -115.8L64.1 -123.8Q65.75 -123.65 65.2 -125.85L65.1 -126.8L65.1 -127.8L66.1 -127.8L66.1 -115.8" fill="rgb(230,218,0)" fill-opacity="1"></path><path d="M66.1,-127.8L67.1 -113.8Q66.6 -113.8 66.35 -114.05Q66.1 -114.3 66.1 -114.8L66.1 -115.8L66.1 -127.8" fill="rgb(102,97,0)" fill-opacity="1"></path><path d="M66.1,-81.8L66.1 -109.8L67.1 -81.8L66.1 -81.8" fill="rgb(80,56,0)" fill-opacity="1"></path><path d="M67.1,-81.8L66.1 -51.8L66.1 -81.8L67.1 -81.8" fill="rgb(64,44,0)" fill-opacity="1"></path><path d="M63.1,-47.8L34.1 -47.8L33.1 -51.8L63.1 -51.8L63.1 -47.8" fill="rgb(83,47,0)" fill-opacity="1"></path><path d="M63.2,-43.75L62.1 -43.8L66.1 -36.8L32.1 -35.8L32.1 -46.8L34.1 -46.8L64.1 -46.8Q66.45 -44.1 63.2 -43.75" fill="rgb(245,231,0)" fill-opacity="1"></path><path d="M63.1,-47.8L64.9 -47.4L65.1 -46.8L64.1 -46.8L34.1 -46.8L34.1 -47.8L63.1 -47.8" fill="rgb(153,128,0)" fill-opacity="1"></path><path d="M29.1,-35.8L29.1 -2.8L28.1 -35.8L29.1 -35.8" fill="rgb(0,88,26)" fill-opacity="1"></path><path d="M45.1,-14.8L66.1 -4.8L65.95 -0.8L31.35 -1.25L30.9 -30L33.1 -31.8L45.1 -14.8" fill="rgb(56,32,0)" fill-opacity="1"></path><path d="M64.1,-46.8L65.1 -46.8L66.1 -36.8L62.1 -43.8L63.2 -43.75Q66.45 -44.1 64.1 -46.8" fill="rgb(226,213,0)" fill-opacity="1"></path><path d="M66.1,-4.8L45.1 -14.8L33.1 -31.8L65.2 -31.4L66.1 -4.8" fill="rgb(80,42,0)" fill-opacity="1"></path><path d="M33.1,1.2L49.1 1.2L49.1 2.2L33.1 1.2" fill="rgb(0,72,24)" fill-opacity="1"></path><path d="M49.1,2.2L49.1 1.2L57.1 2.2L49.1 2.2" fill="rgb(0,38,12)" fill-opacity="1"></path></g></g></g></g></svg>