<svg width="133" height="102" viewBox="-38 -87 133 102"><g><defs></defs></g><rect x="-38" y="-87" width="133" height="102" fill="#006600"></rect><g id="0"><defs></defs><g><g type="shape" id="0:1:252"><defs></defs><g transform="matrix(1,0,0,1,0,0)"><path d="M65.65,-74.05L64.6 -74.8Q56.75 -79.65 48.2 -75.65L35.55 -82.65L23.9 -74.65L24.15 -71.25Q25.15 -64.85 31.75 -62.95Q40.85 -60.25 45.3 -68.65L62.2 -66.9L65.65 -74.05M17.1,-59.65L16.15 -81.65L17 -84.2L75.4 -83.65L75.4 -59.65L17.1 -59.65" fill="rgb(111,78,0)" fill-opacity="1"></path><path d="M62.2,-66.9L45.3 -68.65Q40.85 -60.25 31.75 -62.95Q25.15 -64.85 24.15 -71.25L23.9 -74.65L35.55 -82.65L48.2 -75.65Q56.75 -79.65 64.6 -74.8L65.65 -74.05L62.2 -66.9" fill="rgb(4,3,0)" fill-opacity="1"></path><path d="M80.25,-81.65L75.4 -83.65L17 -84.2L16.15 -81.65L13.25 -81.65L12.25 -83.65L0.6 -82.65L-0.35 -67.65L0.6 -59.65L12.25 -59.65L17.1 -59.65L75.4 -59.65L81.2 -59.65L82.2 -59.65L90.95 -60.65L91.9 -60.65L92.85 -68.65L91.9 -83.65L82.2 -84.65L81.2 -84.65L81.2 -83.65L80.25 -81.65M-2.3,-34.65L-1.35 -34.65Q-0.55 -19.6 12.05 -27.05Q12.25 -27.15 12.25 -27.65L13.25 -38.65L12.25 -53.65L10.3 -55.65L1.55 -55.65L-1.35 -52.65L-1.35 -48.65L-2.3 -48.65L-2.3 -87.65L95.8 -86.65L95.8 -24.65L93.85 -21.65L75.4 -20.65L14.2 -20.65L2.65 -21.4L-0.35 -21.65L-2.3 -23.65L-2.3 -34.65M73.45,-55.55L16.15 -53.65L15.65 -24.65L75.4 -23.65L75 -30.65L73.45 -55.55M79.4,-24.7L92.7 -24.7L92.7 -55.35L79.4 -55.35L79.4 -24.7" fill="rgb(5,7,0)" fill-opacity="1"></path><path d="M75,-30.65L74.4 -30.65Q33.8 -30.35 16.15 -53.65L73.45 -55.55L75 -30.65" fill="rgb(80,42,0)" fill-opacity="1"></path><path d="M74.4,-30.65L75 -30.65L75.4 -23.65L15.65 -24.65L16.15 -53.65Q33.8 -30.35 74.4 -30.65" fill="rgb(55,32,0)" fill-opacity="1"></path><path d="M13.25,-73.65L13.25 -81.65L16.15 -81.65L17.1 -59.65L12.25 -59.65L12.25 -60.65L13.25 -73.65" fill="rgb(83,46,0)" fill-opacity="1"></path><path d="M-2.3,-23.65L-3.4 -40.4L-3.3 -85.65L-3.3 -87.65L-2.3 -87.65L-2.3 -48.65L-2.3 -34.65L-2.3 -23.65" fill="rgb(0,46,0)" fill-opacity="1"></path><path d="M12.25,-60.65L12.25 -59.65L0.6 -59.65L0.6 -67.65L0.6 -82.65L12.25 -83.65L12.25 -73.65L12.25 -60.65" fill="rgb(244,230,0)" fill-opacity="1"></path><path d="M-3.4,-40.4L-4.25 -84.65L-4.25 -85.65L-3.3 -85.65L-3.4 -40.4" fill="rgb(2,69,20)" fill-opacity="1"></path><path d="M-2.3,-23.65L-0.35 -21.65L2.65 -21.4L11.65 -20.6L91.9 -19.65L91.65 -18.9Q76.15 -1.85 59.85 14.35Q35.55 14.35 11.3 15.05Q-13.95 15.8 -34.35 12.35Q-36.5 12.05 -36.8 9.4Q-39.65 -16.7 -38.25 -47.65Q-21.2 -65.55 -4.95 -84.4Q-4.75 -84.65 -4.25 -84.65L-3.4 -40.4L-2.3 -23.65" fill="rgb(0,107,36)" fill-opacity="1"></path><path d="M-0.35,-67.65L0.6 -82.65L0.6 -67.65L-0.35 -67.65" fill="rgb(190,179,0)" fill-opacity="1"></path><path d="M13.25,-73.65L12.25 -73.65L12.25 -83.65L13.25 -81.65L13.25 -73.65" fill="rgb(148,123,0)" fill-opacity="1"></path><path d="M12.25,-73.65L13.25 -73.65L12.25 -60.65L12.25 -73.65" fill="rgb(176,152,0)" fill-opacity="1"></path><path d="M0.6,-67.65L0.6 -59.65L-0.35 -67.65L0.6 -67.65" fill="rgb(182,172,0)" fill-opacity="1"></path><path d="M12.25,-38.65L12.25 -27.65Q12.25 -27.15 12.05 -27.05Q-0.55 -19.6 -1.35 -34.65L-1.35 -48.65L-1.35 -52.65L1.55 -55.65L10.3 -55.65L12.25 -53.65L12.25 -38.65" fill="rgb(199,147,0)" fill-opacity="1"></path><path d="M12.25,-38.65L12.25 -53.65L13.25 -38.65L12.25 -38.65" fill="rgb(51,33,0)" fill-opacity="1"></path><path d="M13.25,-38.65L12.25 -27.65L12.25 -38.65L13.25 -38.65" fill="rgb(49,32,0)" fill-opacity="1"></path><path d="M-2.3,-48.65L-1.35 -48.65L-1.35 -34.65L-2.3 -34.65L-2.3 -48.65" fill="rgb(15,15,0)" fill-opacity="1"></path><path d="M11.65,-20.6L2.65 -21.4L14.2 -20.65L11.65 -20.6" fill="rgb(3,45,8)" fill-opacity="1"></path><path d="M11.65,-20.6L14.2 -20.65L75.4 -20.65L92.85 -20.65L92.65 -19.9L91.9 -19.65L11.65 -20.6" fill="rgb(0,94,32)" fill-opacity="1"></path><path d="M82.2,-59.65L81.2 -59.65L81.2 -60.65L81.2 -83.65L81.2 -84.65L82.2 -84.65L82.2 -80.65L82.2 -59.65" fill="rgb(224,209,0)" fill-opacity="1"></path><path d="M80.25,-81.65L81.2 -60.65L81.2 -59.65L75.4 -59.65L75.4 -83.65L80.25 -81.65" fill="rgb(82,45,0)" fill-opacity="1"></path><path d="M81.2,-83.65L81.2 -60.65L80.25 -81.65L81.2 -83.65" fill="rgb(131,103,0)" fill-opacity="1"></path><path d="M91.9,-68.65L91.9 -60.65L90.95 -60.65Q88.35 -62.35 90.15 -67.6Q95.4 -82.9 82.2 -80.65L82.2 -84.65L91.9 -83.65L91.9 -68.65" fill="rgb(240,227,0)" fill-opacity="1"></path><path d="M91.9,-83.65L92.85 -68.65L91.9 -68.65L91.9 -83.65" fill="rgb(151,143,0)" fill-opacity="1"></path><path d="M92.85,-68.65L91.9 -60.65L91.9 -68.65L92.85 -68.65" fill="rgb(122,115,0)" fill-opacity="1"></path><path d="M82.2,-80.65Q95.4 -82.9 90.15 -67.6Q88.35 -62.35 90.95 -60.65L82.2 -59.65L82.2 -80.65" fill="rgb(247,233,0)" fill-opacity="1"></path><path d="M79.4,-55.35L92.7 -55.35L92.7 -24.7L79.4 -24.7L79.4 -55.35" fill="rgb(202,148,0)" fill-opacity="1"></path><path d="M75.4,-20.65L93.85 -21.65L93.6 -20.9L92.85 -20.65L75.4 -20.65" fill="rgb(2,44,6)" fill-opacity="1"></path></g></g></g></g></svg>