<svg width="36" height="48" viewBox="-18 -24 36 48"><g><defs></defs></g><rect x="-18" y="-24" width="36" height="48" fill="#006600"></rect><g id="0"><defs></defs><g><g type="shape" id="0:1:382"><defs></defs><g transform="matrix(1,0,0,1,0,0)"><path d="M-5,-24L4 -24L5 -24Q12.85 -22.85 15.45 -16.15L16 -16Q16.75 -0.75 17.95 14L18 15Q14.1 21.6 5.95 23.85L5 24L4 24L-6 24L-7 23.9Q-15.4 22.4 -18 15L-18 14L-18 2L-18 1L-18 0Q-16.3 -0.3 -16.9 -3L-17 -4L-17 -5L-17 -13L-17 -14L-17 -15Q-13.2 -21.2 -5.95 -23.85L-5 -24M-10.4,-12.3Q-8.35 -1.15 -13 3L-13.05 4Q-14 13 -10 17L-9.05 17.15Q3.5 22.3 12 14Q12 13.5 12.15 13.05Q15.25 4.15 9 0L9.2 -0.9Q11.45 -5.6 10 -15Q9.5 -15 9.25 -15.25Q2.3 -22.25 -8 -17Q-8.3 -15.3 -9.25 -14.3Q-10.5 -13 -10.4 -12.3" fill="rgb(8,8,8)" fill-opacity="1"></path><path d="M-9.25,-14.3Q-8.3 -15.3 -8 -17Q2.3 -22.25 9.25 -15.25Q9.5 -15 10 -15Q11.45 -5.6 9.2 -0.9L9 0Q15.25 4.15 12.15 13.05Q12 13.5 12 14Q3.5 22.3 -9.05 17.15L-10 17Q-14 13 -13.05 4L-13 3Q-8.35 -1.15 -10.4 -12.3Q-10.5 -13 -9.25 -14.3M-2.8,-5.6Q-1 -5 0 -6Q8.2 -14.3 -5 -12Q-5.85 -6.65 -2.8 -5.6M4.7,11Q4.8 -3.15 -7 6L-7 7Q-6.95 14.45 2 13Q4.7 13.2 4.7 11" fill="rgb(246,246,246)" fill-opacity="1"></path><path d="M-5,-12Q8.2 -14.3 0 -6Q-1 -5 -2.8 -5.6Q-5.85 -6.65 -5 -12" fill="rgb(6,6,6)" fill-opacity="1"></path><path d="M2,13Q-6.95 14.45 -7 7L-7 6Q4.8 -3.15 4.7 11Q4.7 13.2 2 13" fill="rgb(10,10,10)" fill-opacity="1"></path></g></g></g></g></svg>