<svg width="26" height="46" viewBox="-13 -23 26 46"><g><defs></defs></g><rect x="-13" y="-23" width="26" height="46" fill="#006600"></rect><g id="0"><defs></defs><g><g type="shape" id="0:1:368"><defs></defs><g transform="matrix(1,0,0,1,0,0)"><path d="M4.55,11.15Q5.3 -5.1 3.55 -18.85L3.55 -19.35Q-4 -17.9 -8.45 -12.85Q-6.65 -7.4 -3.35 -5.4Q-2.45 -4.85 -2.1 -2.9Q0.25 10.35 -7.45 13.15Q-8.4 20.6 5.6 18.4Q7.5 18.1 8.55 17.15Q9.55 12.15 5.55 12.15L4.55 12.15L4.55 11.15M8.4,-22.4L8.55 -21.85Q8.55 -7.35 9.05 7.15L9.55 7.15L13.3 10.4L13.55 11.15L13.55 18.15L13.55 19.15Q12.3 22.9 7.6 23.5Q-7.25 25.45 -13.45 19.15L-13.45 18.15L-13.45 11.15Q-9.85 8.25 -8.25 3.85Q-7.45 1.65 -8.7 0.45Q-14 -4.8 -13.45 -15.85Q-5.6 -27.35 8.4 -22.4" fill="rgb(4,4,4)" fill-opacity="1"></path><path d="M4.05,12.15L4.55 12.15L5.55 12.15Q9.55 12.15 8.55 17.15Q7.5 18.1 5.6 18.4Q-8.4 20.6 -7.45 13.15Q0.25 10.35 -2.1 -2.9Q-2.45 -4.85 -3.35 -5.4Q-6.65 -7.4 -8.45 -12.85Q-4 -17.9 3.55 -19.35L3.55 -18.85Q3.55 -3.35 4.05 12.15" fill="rgb(252,252,252)" fill-opacity="1"></path><path d="M3.55,-18.85Q5.3 -5.1 4.55 11.15L4.55 12.15L4.05 12.15Q3.55 -3.35 3.55 -18.85" fill="rgb(147,147,147)" fill-opacity="1"></path></g></g></g></g></svg>