<svg width="36" height="48" viewBox="-18 -24 36 48"><g><defs></defs></g><rect x="-18" y="-24" width="36" height="48" fill="#006600"></rect><g id="0"><defs></defs><g><g type="shape" id="0:1:376"><defs></defs><g transform="matrix(1,0,0,1,0,0)"><path d="M14.35,-24L17.1 -21.75L17.35 -21L17.35 -13L17.35 -12L17.1 -11.25L15.35 -10Q17.55 -7.7 18.25 -4L18.35 -3L18.35 10L18.35 11L18.2 11.95Q15.2 21.35 5.35 24L4.35 24L-7.65 24Q-10.6 23.45 -12.2 21.6Q-20.3 12.15 -17.65 -7Q-15.95 -8.3 -16.55 -12L-16.65 -13L-16.65 -14L-16.65 -21L-16.65 -22Q-14.95 -22.3 -14.25 -23.8L-13.65 -24L-4.65 -24L-3.65 -24L4.35 -24L5.35 -24L13.35 -24L14.35 -24M11.35,-19.5Q0.35 -20 -10.65 -20L-10.65 -19L-11.15 -19Q-10.9 -10.25 -12.65 -4Q-10.55 7.55 -1.2 -1.5Q1.85 -4.45 5.35 -2Q10.3 6.35 3.15 11.75L2.35 12Q-4.85 13.2 -12.15 10.2Q-12.6 10.05 -12.65 12Q-12.1 17.45 -6.75 18.5Q-6.65 18.5 -6.65 19L3.35 19L4.35 19Q11.1 16.25 13.2 8.95L13.35 8L13.9 7.9Q15.1 2.75 13.35 0Q13.15 -3.8 11.1 -5.75Q9.1 -7.75 6.5 -7.5Q-3.55 -6.6 -4.65 -13Q10.2 -9.65 11.85 -19L11.35 -19L11.35 -19.5M-2.65,5L-2.65 6.5Q4.7 2.65 -2.65 5" fill="rgb(8,8,8)" fill-opacity="1"></path><path d="M13.9,7.9L13.35 8L13.35 7L13.35 0Q15.1 2.75 13.9 7.9" fill="rgb(161,161,161)" fill-opacity="1"></path><path d="M13.2,8.95Q11.1 16.25 4.35 19L3.35 19L-6.65 19Q-6.65 18.5 -6.75 18.5Q-12.1 17.45 -12.65 12Q-12.6 10.05 -12.15 10.2Q-4.85 13.2 2.35 12L3.15 11.75Q10.3 6.35 5.35 -2Q1.85 -4.45 -1.2 -1.5Q-10.55 7.55 -12.65 -4Q-10.9 -10.25 -11.15 -19L-10.65 -19L10.35 -19L11.35 -19L11.85 -19Q10.2 -9.65 -4.65 -13Q-3.55 -6.6 6.5 -7.5Q9.1 -7.75 11.1 -5.75Q13.15 -3.8 13.35 0L13.35 7L13.35 8L13.2 8.95" fill="rgb(248,248,248)" fill-opacity="1"></path><path d="M11.35,-19L10.35 -19L-10.65 -19L-10.65 -20Q0.35 -20 11.35 -19.5L11.35 -19" fill="rgb(81,81,81)" fill-opacity="1"></path></g></g></g></g></svg>