<svg width="38" height="48" viewBox="-19 -24 38 48"><g><defs></defs></g><rect x="-19" y="-24" width="38" height="48" fill="#006600"></rect><g id="0"><defs></defs><g><g type="shape" id="0:1:374"><defs></defs><g transform="matrix(1,0,0,1,0,0)"><path d="M1.6,-8Q5 -5.4 3.15 1.9L2.6 2L2.65 1Q3.35 -4.25 1.6 -7L1.6 -8" fill="rgb(188,188,188)" fill-opacity="1"></path><path d="M1.6,2.1Q-2.1 2.7 -3.4 1L-3.4 0Q-0.65 -2.75 1.4 -6.15L1.6 -7Q3.35 -4.25 2.65 1L2.6 2L1.6 2.1" fill="rgb(8,8,8)" fill-opacity="1"></path><path d="M-4.4,1Q-3.2 4.3 2.45 2.55L2.6 2L3.15 1.9Q5 -5.4 1.6 -8L1.6 -7L1.4 -6.15Q-0.65 -2.75 -3.4 0L-3.4 1L-4.4 1M3.65,17Q4.35 11.75 2.6 9L1.6 9.1Q-11.65 11.75 -14.4 4Q-6.05 -9.15 5.8 -18.75L6.6 -19Q11.5 -12.9 9.75 0Q9.15 4.45 14.6 3Q14.45 9.35 10.85 12.45Q9.6 13.5 9.1 15.9Q7.65 22.5 3.6 18L3.65 17" fill="rgb(250,250,250)" fill-opacity="1"></path><path d="M-3.4,1Q-2.1 2.7 1.6 2.1L2.6 2L2.45 2.55Q-3.2 4.3 -4.4 1L-3.4 1" fill="rgb(135,135,135)" fill-opacity="1"></path><path d="M14.6,-20Q11.85 -4.75 19.35 0.35L19.6 1L19.6 9L19.6 10L19.35 10.8Q14.5 16.9 10.6 24L9.6 24L1.6 24Q-2.15 22.75 -2.3 18L-2.4 16Q-21.15 17.75 -19.4 1Q-10.5 -13.6 3.6 -22.45Q6.1 -24 9.6 -24Q12.35 -22.75 14.35 -20.75L14.6 -20M3.1,17.95L3.6 18Q7.65 22.5 9.1 15.9Q9.6 13.5 10.85 12.45Q14.45 9.35 14.6 3Q9.15 4.45 9.75 0Q11.5 -12.9 6.6 -19L5.8 -18.75Q-6.05 -9.15 -14.4 4Q-11.65 11.75 1.6 9.1L2.6 9Q2.6 13.5 3.1 17.95" fill="rgb(7,7,7)" fill-opacity="1"></path><path d="M3.6,18L3.1 17.95Q2.6 13.5 2.6 9Q4.35 11.75 3.65 17L3.6 18" fill="rgb(180,180,180)" fill-opacity="1"></path></g></g></g></g></svg>