<svg width="36" height="48" viewBox="-18 -24 36 48"><g><defs></defs></g><rect x="-18" y="-24" width="36" height="48" fill="#006600"></rect><g id="0"><defs></defs><g><g type="shape" id="0:1:384"><defs></defs><g transform="matrix(1,0,0,1,0,0)"><path d="M18.5,-0.5L18.4 0.5Q14.95 20.45 -4.5 24.5L-5.5 24.5L-12.5 24.5Q-19.85 19.05 -15 10.25L-14.2 8.8Q-15.6 6.05 -18.5 -1.5L-18.5 -2.5L-18.5 -11.5L-18.5 -12.5L-18.5 -14.5Q-14.95 -22.45 -5.5 -24.4L-4.5 -24.5L5.5 -24.5L6.5 -24.5Q15.45 -21.45 18.35 -12.45L18.5 -11.5L18.5 -1.5L18.5 -0.5M13.5,-11.5Q13 -11.5 12.9 -11.7Q10.2 -16.7 5.5 -19.5L4.5 -19.55Q-9.75 -20.75 -13.5 -11.5L-13.55 -10.5Q-14.1 -4.35 -12.5 -0.5L-11.8 -0.25Q-6.05 6.9 3.5 5.5Q2.15 8.15 -0.65 9.05Q-8.45 11.55 -11.5 18.5L-10.5 18.5Q8.05 18.55 13.5 0.5L13.5 -0.5L13.5 -11.5" fill="rgb(10,10,10)" fill-opacity="1"></path><path d="M13.5,-0.5L13.5 0.5Q8.05 18.55 -10.5 18.5L-11.5 18.5Q-8.45 11.55 -0.65 9.05Q2.15 8.15 3.5 5.5Q-6.05 6.9 -11.8 -0.25L-12.5 -0.5Q-14.1 -4.35 -13.55 -10.5L-13.5 -11.5Q-9.75 -20.75 4.5 -19.55L5.5 -19.5Q10.2 -16.7 12.9 -11.7Q13 -11.5 13.5 -11.5L13.5 -0.5M-6.6,-10.5Q-8.35 0.85 3.5 -1.5Q3.5 -2 3.7 -2.1Q4.5 -2.5 4.55 -2.65Q7.25 -18.9 -6.5 -11.5L-6.6 -10.5" fill="rgb(245,245,245)" fill-opacity="1"></path><path d="M-6.5,-11.5Q7.25 -18.9 4.55 -2.65Q4.5 -2.5 3.7 -2.1Q3.5 -2 3.5 -1.5Q-8.35 0.85 -6.6 -10.5L-6.5 -11.5" fill="rgb(13,13,13)" fill-opacity="1"></path></g></g></g></g></svg>