<svg width="38" height="48" viewBox="-19 -24 38 48"><g><defs></defs></g><rect x="-19" y="-24" width="38" height="48" fill="#006600"></rect><g id="0"><defs></defs><g><g type="shape" id="0:1:380"><defs></defs><g transform="matrix(1,0,0,1,0,0)"><path d="M-1.4,-11.7Q-6.6 -11 -9.4 -12.75L-0.45 -12.25L-0.4 -11.75L-1.4 -11.7M13.6,-17.75L12.6 -17.7Q3.85 -17 -2.4 -18.75L13.55 -18.25L13.6 -17.75" fill="rgb(127,127,127)" fill-opacity="1"></path><path d="M-0.4,-11.75L1.1 -11.75Q-2.7 0.45 -9.4 16.25Q-2.55 22.5 1.45 11.55Q7.6 -5.25 14 -17.05Q14.1 -17.25 13.6 -17.75L13.55 -18.25L-2.4 -18.75L-3.4 -18.8Q-10.85 -19.7 -14.4 -16.75Q-15.1 -12.05 -10.4 -12.7L-9.4 -12.75Q-6.6 -11 -1.4 -11.7L-0.4 -11.75M-5.9,-6.75Q-9.15 -8.5 -15.4 -7.75Q-15.9 -7.75 -16.2 -8Q-20.45 -11.15 -19.4 -19.75Q-13.75 -25.6 -0.4 -23.8L0.6 -23.75Q6.85 -22 15.6 -22.7L16.6 -22.75L19.35 -20.5L19.6 -19.75L19.6 -12.75L19.6 -11.75L19.35 -10.9Q8.5 6.15 -1.4 24.25L-2.4 24.25L-10.4 24.25L-11.25 24Q-15.35 21.2 -14.4 13.25Q-10.6 3.55 -6.6 -5.85L-6.4 -6.75L-5.9 -6.75" fill="rgb(9,9,9)" fill-opacity="1"></path><path d="M12.6,-17.7L13.6 -17.75Q14.1 -17.25 14 -17.05Q7.6 -5.25 1.45 11.55Q-2.55 22.5 -9.4 16.25Q-2.7 0.45 1.1 -11.75L-0.4 -11.75L-0.45 -12.25L-9.4 -12.75L-10.4 -12.7Q-15.1 -12.05 -14.4 -16.75Q-10.85 -19.7 -3.4 -18.8L-2.4 -18.75Q3.85 -17 12.6 -17.7" fill="rgb(246,246,246)" fill-opacity="1"></path></g></g></g></g></svg>