<svg width="38" height="30" viewBox="-19 -15 38 30"><g><defs></defs></g><rect x="-19" y="-15" width="38" height="30" fill="#006600"></rect><g id="0"><defs></defs><g><g type="shape" id="0:1:46"><defs></defs><g transform="matrix(1,0,0,1,0,0)"><path d="M12,9.85L11.45 9.75Q10.7 6.6 8 5.85L8 5.35Q7 5.35 6 5.85L5 5.85L5 7.85L5 8.85L5 10.85L5 11.85L4 11.85L2 11.85L2 10.85L2 5.85L2 4.85L2 -6.15L2 -7.15L2 -8.15L2 -9.15L2 -12.15L2 -13.15L4 -13.15L5 -13.15L5 -12.15Q5 -11.15 5.4 -10.35Q5.5 -10.15 6 -10.15L6 -5.15L6 -4.15L5 -4.15L5 -1.15L5 -0.15Q4.9 1.5 6.8 0.45Q7 0.35 7 -0.15L7 -1.15Q10.75 -1.9 12.4 -4.95Q12.5 -5.15 13 -5.15L14 -5.15L15 -5.15L15.5 -5.1Q15.75 -0.4 12 0.85L11 0.85Q11 1.85 11.4 2.65Q11.5 2.85 12 2.85L12.25 3.6L13 3.85Q13 4.35 13.25 4.6L14 4.85Q14 5.85 14.4 6.65Q14.5 6.85 15 6.85L15.8 7.95L16 8.85L16 9.85L16 10.85L15.75 11.6L15 11.85L14 11.85L13 11.85L12.8 10.95L12 9.85" fill="rgb(248,248,248)" fill-opacity="1"></path><path d="M0,-14.15Q2.05 -15.6 5.9 -14.7L6 -14.15L6.75 -13.9L7 -13.15Q7 -12.15 7.4 -11.35L8 -11.15Q7.25 -1.25 11.35 -6.9Q11.5 -7.15 12 -7.15L15 -7.15L16 -7.15L15.75 -6.4L15 -6.15L14 -6.15L13 -6.15L13 -5.15Q12.5 -5.15 12.4 -4.95Q10.75 -1.9 7 -1.15L7 -0.15L6 -0.15L6 -1.15L6 -4.15L6 -5.15L6 -10.15L5.8 -11.05L5 -12.15L5 -13.15L4 -13.15L2 -13.15L2 -12.15L1 -12.15L0.75 -12.9L0 -13.15L0 -14.15" fill="rgb(14,14,14)" fill-opacity="1"></path><path d="M2,-9.15L2 -8.15L1 -8.15L1 -9.15L1 -12.15L2 -12.15L2 -9.15" fill="rgb(115,115,115)" fill-opacity="1"></path><path d="M1,-9.15L1 -8.15L1 -7.15L1 -6.15L1 4.85L1 5.85Q1 8.85 1.5 11.75L2 11.85Q2.3 13.55 4.8 12.45L5 11.85Q6.65 12 6.1 9.8L6 8.85L6 7.85L6 5.85Q7 5.35 8 5.35L8 5.85L8 6.85L7 6.85L7 7.85L7 8.85L7 9.85L7 11.85L7 12.85L6 12.85L6 13.85L5 13.85L1 13.85L0.8 12.95L0 11.85L0 10.85Q-0.1 7.6 -2 10.85L-2 11.85L-2.5 11.85Q-2.35 14.5 -5 13.85L-6 13.85L-7 13.85L-7 14.85L-8 14.95Q-12.9 15.75 -14 12.85L-13.25 12.6Q-13 12.35 -13 11.85Q-11.7 13.05 -9 12.9L-8 12.85Q-7 12.85 -6.2 12.45L-6 11.85Q-3.35 10.5 -2.2 7.75L-2 6.85L-1.2 5.75L-1 4.85L-0.9 3.85Q-0.3 1.15 -2 0.85L-2.15 -0.1Q-3.25 -3.4 -7 -4.15Q-7 -4.65 -7.2 -4.75L-9 -5.15L-9 -4.15L-10 -4.15L-11 -4.15L-12 -4.15L-13 -4.15L-14 -4.15L-14 -5.15Q-13 -5.15 -12.2 -5.55L-12 -6.15L-11 -6.15L-10 -6.15L-7 -6.15L-6 -6.15Q-3.3 -6.35 -2.55 -4.3Q-2.5 -4.15 -2 -4.15Q-0.05 -0.2 0 -5.15L0 -6.15L0 -7.15L0 -8.15L0 -9.15L0 -13.15L0.75 -12.9L1 -12.15L1 -9.15" fill="rgb(11,11,11)" fill-opacity="1"></path><path d="M-1,-8.15L-1 -9.15L-1 -13.15L0 -13.15L0 -9.15L0 -8.15L-1 -8.15" fill="rgb(131,131,131)" fill-opacity="1"></path><path d="M5.4,-10.35Q5 -11.15 5 -12.15L5.8 -11.05L6 -10.15Q5.5 -10.15 5.4 -10.35M-12,-6.15L-12.2 -5.55Q-13 -5.15 -14 -5.15L-14 -6.15L-13 -6.15L-12 -6.15M12.8,10.95L13 11.85L12.25 11.6L12 10.85L12 9.85L12.8 10.95" fill="rgb(183,183,183)" fill-opacity="1"></path><path d="M16,-7.15L15 -7.15L12 -7.15L12 -8.15L15.9 -7.7L16 -7.15M8,-11.15L7.4 -11.35Q7 -12.15 7 -13.15L7.8 -12.05L8 -11.15M11,10.85L11 11.85L11 12.85L10.4 12.65Q10 11.85 10 10.85L11 10.85" fill="rgb(72,72,72)" fill-opacity="1"></path><path d="M15,-6.15L15.75 -6.4L16 -7.15L16.6 -6.95Q19.75 -0.75 14 1.85L14 2.85L13 2.85L13 3.85L12.25 3.6L12 2.85L12 1.85L12 0.85Q15.75 -0.4 15.5 -5.1L15 -5.15L15 -6.15M10,10.85L9.25 10.6L9 9.85L8.75 9.1Q8.5 8.85 8 8.85L8 7.85L8 6.85L8 5.85Q10.7 6.6 11.45 9.75L12 9.85L12 10.85L11 10.85L10 10.85" fill="rgb(24,24,24)" fill-opacity="1"></path><path d="M13,-5.15L13 -6.15L14 -6.15L15 -6.15L15 -5.15L14 -5.15L13 -5.15" fill="rgb(175,175,175)" fill-opacity="1"></path><path d="M15.75,6.6L15 6.85Q14.5 6.85 14.4 6.65Q14 5.85 14 4.85L14 3.85L14 2.85Q15.7 3.15 15.95 4.85L16 5.85L15.75 6.6" fill="rgb(36,36,36)" fill-opacity="1"></path><path d="M-13,-3.15L-14 -3.15L-15 -3.15L-15 -4.15L-14 -4.15L-13 -4.15L-13 -3.15M13.25,4.6Q13 4.35 13 3.85L13 2.85L14 2.85L14 3.85L14 4.85L13.25 4.6" fill="rgb(8,8,8)" fill-opacity="1"></path><path d="M18,10.85L18 11.85L17.25 11.6Q17 11.35 17 10.85L16.8 9.95L16 8.85L15.8 7.95L15 6.85L15.75 6.6L16 5.85Q17.7 6.15 17.95 7.85L18 8.85L18 10.85M-16,5.85L-16 6.85L-16 7.85L-16 8.85Q-16 9.35 -16.25 9.6L-17 9.85L-17.2 8.95L-18 7.85L-18 6.85L-18 5.85L-18 1.85L-18 0.85L-18 -0.15Q-16.35 0 -16.5 -2.15L-16 -2.15L-15.25 -1.9L-15 -1.15L-15.2 -0.25L-16 0.85L-16 1.85L-16 2.85L-17 2.85Q-17 4.35 -16.55 5.7L-16 5.85" fill="rgb(12,12,12)" fill-opacity="1"></path><path d="M18,8.85Q19.7 9.15 18.6 11.65L18 11.85L18 10.85L18 8.85" fill="rgb(128,128,128)" fill-opacity="1"></path><path d="M15.75,13.1L15 12.85L15 11.85L15.75 11.6L16 10.85L17 10.85Q17 11.35 17.25 11.6L18 11.85L17.75 12.6L16 13.85L15.75 13.1" fill="rgb(19,19,19)" fill-opacity="1"></path><path d="M5,11.85L4.8 12.45Q2.3 13.55 2 11.85L4 11.85L5 11.85M16,9.85L16 8.85L16.8 9.95L17 10.85L16 10.85L16 9.85" fill="rgb(95,95,95)" fill-opacity="1"></path><path d="M9,9.85L8 9.85L7 9.85L7 8.85L8 8.85Q8.5 8.85 8.75 9.1L9 9.85M14.1,12.65Q13.5 12.35 13 11.85L14 11.85L15 11.85L15 12.85L14.1 12.65" fill="rgb(111,111,111)" fill-opacity="1"></path><path d="M13,11.85Q13.5 12.35 14.1 12.65L15 12.85L15.75 13.1L16 13.85L15 13.85L12 13.85L11.75 13.1Q11.5 12.85 11 12.85L11 11.85L11 10.85L12 10.85L12.25 11.6L13 11.85" fill="rgb(0,0,0)" fill-opacity="1"></path><path d="M15,13.85L16 13.85L15.85 14.4Q12.8 15.55 12 13.85L15 13.85" fill="rgb(135,135,135)" fill-opacity="1"></path><path d="M5,-0.15L5 -1.15L5 -4.15L6 -4.15L6 -1.15L6 -0.15L5 -0.15" fill="rgb(195,195,195)" fill-opacity="1"></path><path d="M6.8,0.45Q4.9 1.5 5 -0.15L6 -0.15L7 -0.15Q7 0.35 6.8 0.45M-6,-6.15L-7 -6.15L-10 -6.15L-10 -7.15L-6.1 -6.7L-6 -6.15M-6,11.85L-6.2 12.45Q-7 12.85 -8 12.85L-8 11.85L-7 11.85L-6 11.85M5,8.85L5 7.85L5 5.85L6 5.85L6 7.85L6 8.85L5 8.85M-11,1.85Q-11 2.35 -11.25 2.6L-12 2.85L-12 1.85L-12 0.85L-11 0.85L-11 1.85" fill="rgb(191,191,191)" fill-opacity="1"></path><path d="M12,0.85L12 1.85L12 2.85Q11.5 2.85 11.4 2.65Q11 1.85 11 0.85L12 0.85" fill="rgb(127,127,127)" fill-opacity="1"></path><path d="M-8,-4.15L-9 -4.15L-9 -5.15L-7.2 -4.75Q-7 -4.65 -7 -4.15L-8 -4.15M-7,14.85L-7 13.85L-6 13.85L-5 13.85Q-5 14.35 -5.2 14.45Q-6 14.85 -7 14.85M1,-6.15L1 -7.15L1 -8.15L2 -8.15L2 -7.15L2 -6.15L1 -6.15M-9,1.85L-9.2 2.75L-10 3.85L-10 2.85L-10 1.85L-9 1.85" fill="rgb(64,64,64)" fill-opacity="1"></path><path d="M-1,-6.15L-1 -7.15L-1 -8.15L0 -8.15L0 -7.15L0 -6.15L-1 -6.15" fill="rgb(159,159,159)" fill-opacity="1"></path><path d="M-1,-6.15L0 -6.15L0 -5.15Q-0.05 -0.2 -2 -4.15L-1.2 -5.25L-1 -6.15" fill="rgb(134,134,134)" fill-opacity="1"></path><path d="M1,5.85L1 4.85L1 -6.15L2 -6.15L2 4.85L2 5.85L1 5.85" fill="rgb(124,124,124)" fill-opacity="1"></path><path d="M-13.2,11.25Q-14.7 10.55 -15 8.85L-15.2 7.95L-16 6.85L-16 5.85L-16 4.85L-16 2.85L-16 1.85L-16 0.85L-15.2 -0.25L-15 -1.15Q-14 -1.65 -13.25 -2.4Q-13 -2.65 -13 -3.15Q-12 -3.15 -11.2 -3.55Q-11 -3.65 -11 -4.15L-10 -4.15L-9 -4.15L-8 -4.15L-7 -4.15Q-3.25 -3.4 -2.15 -0.1L-2 0.85L-2 3.85L-2 4.85L-2 5.85L-2 6.85L-2.2 7.75Q-3.35 10.5 -6 11.85L-7 11.85L-8 11.85L-8 12.85L-9 12.9Q-11.7 13.05 -13 11.85Q-13 11.35 -13.2 11.25M-7.1,0.3Q-9.7 -0.35 -11 0.85L-12 0.85L-12 1.85L-12 2.85L-12 4.85L-12 5.85Q-12 6.85 -11.6 7.65Q-11.5 7.85 -11 7.85Q-7.85 10.5 -6.2 6.75L-6 5.85L-5.45 5.7Q-4.3 2.65 -6 1.85Q-6 1.35 -6.25 1.1Q-6.5 0.85 -7 0.85L-7.1 0.3" fill="rgb(249,249,249)" fill-opacity="1"></path><path d="M-11.2,6.95L-12 5.85L-12 4.85L-12 2.85L-11.25 2.6Q-11 2.35 -11 1.85L-10 1.85L-10 2.85L-10 3.85L-10 4.85L-10 5.85Q-10.1 7.5 -8.2 6.45Q-8 6.35 -8 5.85L-8 4.85L-7.4 4.65Q-6.35 2.75 -8 2.85L-8 1.85L-7.25 1.6Q-7 1.35 -7 0.85Q-6.5 0.85 -6.25 1.1Q-6 1.35 -6 1.85L-6 4.85L-6 5.85L-6.2 6.75Q-7.85 10.5 -11 7.85L-11.2 6.95" fill="rgb(16,16,16)" fill-opacity="1"></path><path d="M2,5.85L2 10.85L2 11.85L1.5 11.75Q1 8.85 1 5.85L2 5.85" fill="rgb(172,172,172)" fill-opacity="1"></path><path d="M-2,5.85L-2 4.85L-1 4.85L-1.2 5.75L-2 6.85L-2 5.85M-8,5.85Q-8 6.35 -8.2 6.45Q-10.1 7.5 -10 5.85L-9 5.85L-8 5.85" fill="rgb(143,143,143)" fill-opacity="1"></path><path d="M-2,4.85L-2 3.85L-2 0.85Q-0.3 1.15 -0.9 3.85L-1 4.85L-2 4.85" fill="rgb(171,171,171)" fill-opacity="1"></path><path d="M-6,4.85L-6 1.85Q-4.3 2.65 -5.45 5.7L-6 5.85L-6 4.85" fill="rgb(139,139,139)" fill-opacity="1"></path><path d="M-2,11.85L-2 10.85Q-0.1 7.6 0 10.85L0 11.85L-1 11.85L-2 11.85" fill="rgb(80,80,80)" fill-opacity="1"></path><path d="M8,7.85L8 8.85L7 8.85L7 7.85L7 6.85L8 6.85L8 7.85" fill="rgb(48,48,48)" fill-opacity="1"></path><path d="M6,8.85L6.1 9.8Q6.65 12 5 11.85L5 10.85L5 8.85L6 8.85" fill="rgb(106,106,106)" fill-opacity="1"></path><path d="M8,9.85L8.1 10.8Q8.65 13 7 12.85L7 11.85L7 9.85L8 9.85" fill="rgb(149,149,149)" fill-opacity="1"></path><path d="M1,13.85L5 13.85L6 13.85L5.85 14.4Q2.3 15.55 1 13.85" fill="rgb(146,146,146)" fill-opacity="1"></path><path d="M-13,-4.15L-12 -4.15L-11 -4.15Q-11 -3.65 -11.2 -3.55Q-12 -3.15 -13 -3.15L-13 -4.15" fill="rgb(71,71,71)" fill-opacity="1"></path><path d="M-9,1.85L-10 1.85L-11 1.85L-11 0.85Q-9.7 -0.35 -7.1 0.3L-7 0.85Q-7 1.35 -7.25 1.6L-8 1.85L-9 1.85M-15.25,-1.9L-16 -2.15L-16 -3.15L-15 -3.15L-14 -3.15L-13 -3.15Q-13 -2.65 -13.25 -2.4Q-14 -1.65 -15 -1.15L-15.25 -1.9" fill="rgb(20,20,20)" fill-opacity="1"></path><path d="M-18,6.85L-18.5 6.75Q-19 4.35 -19 1.85L-18 1.85L-18 5.85L-18 6.85" fill="rgb(194,194,194)" fill-opacity="1"></path><path d="M-18,7.85L-17.2 8.95L-17 9.85Q-17.5 9.85 -17.6 9.65Q-18 8.85 -18 7.85" fill="rgb(56,56,56)" fill-opacity="1"></path><path d="M-8,2.85Q-6.35 2.75 -7.4 4.65L-8 4.85L-8 3.85L-8 2.85" fill="rgb(104,104,104)" fill-opacity="1"></path><path d="M-11,7.85Q-11.5 7.85 -11.6 7.65Q-12 6.85 -12 5.85L-11.2 6.95L-11 7.85" fill="rgb(79,79,79)" fill-opacity="1"></path><path d="M-16.55,5.7Q-17 4.35 -17 2.85L-16 2.85L-16 4.85L-16 5.85L-16.55 5.7" fill="rgb(58,58,58)" fill-opacity="1"></path><path d="M-16,8.85L-16 7.85L-16 6.85L-15.2 7.95L-15 8.85L-16 8.85" fill="rgb(199,199,199)" fill-opacity="1"></path><path d="M-17,9.85L-16.25 9.6Q-16 9.35 -16 8.85L-15 8.85Q-14.7 10.55 -13.2 11.25Q-13 11.35 -13 11.85Q-13 12.35 -13.25 12.6L-14 12.85L-14.75 12.6L-17 9.85" fill="rgb(26,26,26)" fill-opacity="1"></path></g></g></g></g></svg>