<svg width="218" height="163" viewBox="-117 -131 218 163"><g><defs></defs></g><rect x="-117" y="-131" width="218" height="163" fill="#006600"></rect><g id="0"><defs></defs><g><g type="shape" id="0:1:180"><defs></defs><g transform="matrix(1,0,0,1,0,0)"><path d="M90.05,-100.5L90.05 -131.5L98.05 -130.5L91.05 -130.5L91.05 -100.5L90.05 -100.5" fill="rgb(0,86,0)" fill-opacity="1"></path><path d="M-0.95,-82.5L-0.95 -70.5L0.05 -61.5Q7.3 -60.7 5.15 -69.55L5.05 -70.5L5.05 -82.5L7.05 -82.5L7.05 -71.5Q4.45 -61.4 12 -62L12.05 -62.5L13.05 -70.5L13.05 -82.5L14.05 -82.5L15.05 -71.5L15.05 -70.5Q12.6 -61.05 20 -62L20.05 -62.5L20.05 -71.5L21.05 -82.5L22.05 -82.5L22.05 -70.5L23.05 -62.5Q29.9 -59.65 28.15 -70.5L28.05 -71.5L28.05 -82.5L30.05 -82.5L30.05 -71.5L31.05 -61.5Q37.25 -61.8 35.15 -70.55L35.05 -71.5L35.05 -82.5L37.05 -82.5L37.05 -71.5L38.05 -61.5Q44.15 -61.4 42.15 -69.55L42.05 -70.5L43.05 -82.5L44.05 -82.5L45.05 -62.5Q51.9 -59.65 50.15 -70.5L50.05 -71.5L50.05 -82.5L52.05 -82.5L52.05 -71.5L52.05 -62.5Q59.95 -59.1 58.15 -70.5L58.05 -71.5L58.05 -82.5L60.05 -82.5L60.05 -71.5L60.05 -62.5Q66.9 -59.65 65.15 -70.5L65.05 -71.5L65.05 -82.5L67.05 -82.5L67.05 -71.5Q64.45 -61.4 72 -62L72.05 -62.5L73.05 -70.5L73.05 -82.5L74.05 -82.5L75.05 -70.5Q72.8 -61.8 79.05 -61.5L80.05 -61.5L81.05 -71.5L81.05 -82.5L83.05 -82.5L83.05 -71.5L84.05 -62.5L88.05 -62.5L89.05 -71.5L89.05 -82.5L90.05 -82.5L91.05 -100.5L91.05 -130.5L98.05 -130.5L99.5 -27.95L100 -9.55Q100.35 -0.25 96.55 1.4Q97.8 -14.3 96.05 -27.5L93.05 -28.5L92.05 0.5Q91.55 0.5 91.45 0.3Q91.05 -0.5 91.05 -1.5Q91.05 -20.5 92.35 -39.4Q93.1 -50.05 88.05 -53.5L88.05 -52.5L59.05 -52.5L36.05 -52.5L12.25 -51Q-1.75 -49.2 -1.95 -59.5L-0.95 -82.5M94.5,-96.35L94.2 -85.95L94.2 -74.1L94.05 -32.6Q97.75 -33.55 97.55 -43.5Q96.8 -86.75 95.05 -127.5L94.5 -96.35M96.3,1.5Q94.95 1.95 93.05 1.5L96.05 1.5L96.3 1.5" fill="rgb(1,2,1)" fill-opacity="1"></path><path d="M94.2,-74.1L94.2 -85.95L94.3 -80.05L94.2 -74.1" fill="rgb(88,96,91)" fill-opacity="1"></path><path d="M94.5,-96.35L94.3 -80.05L94.2 -85.95L94.5 -96.35" fill="rgb(121,122,122)" fill-opacity="1"></path><path d="M95.05,-127.5Q96.8 -86.75 97.55 -43.5Q97.75 -33.55 94.05 -32.6L94.2 -74.1L94.3 -80.05L94.5 -96.35L95.05 -127.5" fill="rgb(62,62,62)" fill-opacity="1"></path><path d="M90.05,-92.5L89.05 -98.5L89.05 -99.5L90.05 -99.5L90.05 -92.5" fill="rgb(0,104,35)" fill-opacity="1"></path><path d="M90.05,-92.5L90.05 -99.5L90.05 -100.5L91.05 -100.5L90.05 -82.5L90.05 -84.5L90.05 -92.5" fill="rgb(0,87,23)" fill-opacity="1"></path><path d="M90.05,-84.5L90.05 -82.5L89.05 -82.5L88.05 -82.5L84.05 -82.5L83.05 -82.5L81.05 -82.5L80.05 -82.5L76.05 -82.5L75.05 -82.5L74.05 -82.5L73.05 -82.5L72.05 -82.5L71.05 -82.5L68.05 -82.5L67.05 -82.5L65.05 -82.5L64.05 -82.5L61.05 -82.5L60.05 -82.5L58.05 -82.5L57.05 -82.5L56.05 -82.5L53.05 -82.5L52.05 -82.5L75.05 -85.5L90.05 -84.5" fill="rgb(25,122,34)" fill-opacity="1"></path><path d="M67.05,-71.5L67.05 -82.5L68.05 -82.5L68.05 -79.5L68.05 -71.5L67.05 -71.5" fill="rgb(55,54,57)" fill-opacity="1"></path><path d="M68.05,-79.5L68.05 -82.5L71.05 -82.5L71.05 -79.5L68.05 -79.5" fill="rgb(134,134,140)" fill-opacity="1"></path><path d="M64.05,-79.5L64.05 -82.5L65.05 -82.5L65.05 -71.5L64.05 -71.5L64.05 -79.5M31.05,-63.5Q34.2 -63.8 33.55 -68.5L34.05 -68.5L34.15 -67.55Q35.5 -62.05 31.05 -62.5L31.05 -63.5" fill="rgb(52,51,53)" fill-opacity="1"></path><path d="M64.05,-79.5L63.55 -79.5Q64 -76.05 61.05 -76.5L61.05 -82.5L64.05 -82.5L64.05 -79.5" fill="rgb(132,131,137)" fill-opacity="1"></path><path d="M61.05,-82.5L61.05 -76.5L61.05 -71.5L60.05 -71.5L60.05 -82.5L61.05 -82.5" fill="rgb(69,68,71)" fill-opacity="1"></path><path d="M61.05,-76.5Q64 -76.05 63.55 -79.5L64.05 -79.5L64.05 -71.5L61.05 -71.5L61.05 -76.5M19.05,-71.5L19.05 -70.5L16.05 -70.5L16.05 -76.5L19.05 -76.5L19.05 -71.5" fill="rgb(109,107,112)" fill-opacity="1"></path><path d="M68.9,-72.45L69.05 -71.5L68.05 -71.5L68.05 -79.5L71.05 -79.5L71.05 -75.5Q67.75 -76.3 68.9 -72.45" fill="rgb(122,120,126)" fill-opacity="1"></path><path d="M69.05,-71.5L68.9 -72.45Q67.75 -76.3 71.05 -75.5L71.05 -71.5L69.05 -71.5" fill="rgb(107,105,110)" fill-opacity="1"></path><path d="M80.05,-78.5L76.05 -78.5L76.05 -82.5L80.05 -82.5L80.05 -78.5" fill="rgb(129,128,134)" fill-opacity="1"></path><path d="M75.05,-85.5L89.05 -98.5L90.05 -92.5L90.05 -84.5L75.05 -85.5" fill="rgb(0,109,35)" fill-opacity="1"></path><path d="M71.05,-82.5L72.05 -82.5L72.05 -71.5L71.05 -71.5L71.05 -75.5L71.05 -79.5L71.05 -82.5" fill="rgb(96,95,100)" fill-opacity="1"></path><path d="M72.05,-71.5L72.05 -82.5L73.05 -82.5L73.05 -70.5L72.05 -70.5L72.05 -71.5" fill="rgb(20,20,20)" fill-opacity="1"></path><path d="M75.05,-71.5L75.05 -70.5L74.05 -82.5L75.05 -82.5L75.05 -71.5" fill="rgb(11,13,12)" fill-opacity="1"></path><path d="M38.05,-71.5L37.05 -71.5L37.05 -82.5L38.05 -82.5L38.05 -79.5L38.05 -76.5L38.05 -71.5M80.05,-71.5L80.05 -78.5L80.05 -82.5L81.05 -82.5L81.05 -71.5L80.05 -71.5" fill="rgb(34,34,35)" fill-opacity="1"></path><path d="M76.05,-78.5L80.05 -78.5L80.05 -71.5L76.05 -71.5L76.05 -78.5" fill="rgb(107,108,112)" fill-opacity="1"></path><path d="M75.05,-82.5L76.05 -82.5L76.05 -78.5L76.05 -71.5L75.05 -71.5L75.05 -82.5" fill="rgb(73,75,77)" fill-opacity="1"></path><path d="M50.05,-71.5L49.05 -71.5L49.05 -76.5L49.05 -79.5L48.45 -82.5L50.05 -82.5L50.05 -71.5" fill="rgb(55,81,57)" fill-opacity="1"></path><path d="M49.05,-79.5L48.05 -79.45Q45.15 -79.05 46.05 -82.5Q47.7 -82.95 48.45 -82.5L49.05 -79.5" fill="rgb(134,134,139)" fill-opacity="1"></path><path d="M42.05,-70.5L42.05 -71.5L42.05 -82.5L43.05 -82.5L42.05 -70.5M12.05,-62.5L12.05 -70.5L13.05 -70.5L12.05 -62.5" fill="rgb(14,14,14)" fill-opacity="1"></path><path d="M45.05,-62.5L44.05 -82.5L45.05 -82.5L45.05 -76.5L45.05 -70.5L45.05 -62.5" fill="rgb(17,17,17)" fill-opacity="1"></path><path d="M41.05,-82.5L42.05 -82.5L42.05 -71.5L41.05 -71.5L41.05 -75.5L41.05 -79.5L41.05 -82.5" fill="rgb(80,79,83)" fill-opacity="1"></path><path d="M38.05,-82.5L41.05 -82.5L41.05 -79.5L38.05 -79.5L38.05 -82.5" fill="rgb(129,129,134)" fill-opacity="1"></path><path d="M45.05,-76.5L45.05 -82.5L46.05 -82.5Q45.15 -79.05 48.05 -79.45L49.05 -79.5L49.05 -76.5L46.05 -76.5L45.05 -76.5" fill="rgb(119,118,125)" fill-opacity="1"></path><path d="M38.05,-76.5L38.05 -79.5L41.05 -79.5L41.05 -75.5L38.05 -76.5" fill="rgb(120,118,125)" fill-opacity="1"></path><path d="M49.05,-71.5L48.05 -71.55Q44.85 -71.8 46.05 -76.5L49.05 -76.5L49.05 -71.5" fill="rgb(110,109,114)" fill-opacity="1"></path><path d="M49.05,-70.5L45.05 -70.5L45.05 -76.5L46.05 -76.5Q44.85 -71.8 48.05 -71.55L49.05 -71.5L49.05 -70.5" fill="rgb(84,82,85)" fill-opacity="1"></path><path d="M57.05,-71.5L57.05 -82.5L58.05 -82.5L58.05 -71.5L57.05 -71.5" fill="rgb(36,36,38)" fill-opacity="1"></path><path d="M56.05,-76.5L56.05 -82.5L57.05 -82.5L57.05 -71.5L56.05 -71.5L56.05 -76.5" fill="rgb(99,98,103)" fill-opacity="1"></path><path d="M53.05,-82.5L56.05 -82.5L56.05 -76.5L54.05 -76.5L53.05 -76.5L53.05 -82.5M4.05,-76.5L3.05 -76.6Q-0.2 -77.25 1.05 -82.5Q5.5 -82.95 4.15 -77.45L4.05 -76.5" fill="rgb(127,126,132)" fill-opacity="1"></path><path d="M52.05,-71.5L52.05 -82.5L53.05 -82.5L53.05 -76.5L53.05 -71.5L52.05 -71.5" fill="rgb(46,45,48)" fill-opacity="1"></path><path d="M56.05,-71.5L53.05 -70.5L53.05 -71.5L53.05 -76.5L54.05 -76.5L56.05 -71.5" fill="rgb(89,87,90)" fill-opacity="1"></path><path d="M56.05,-71.5L54.05 -76.5L56.05 -76.5L56.05 -71.5" fill="rgb(111,110,115)" fill-opacity="1"></path><path d="M53.05,-62.5Q59.15 -62.4 57.15 -70.55L57.05 -71.5L58.05 -71.5L58.15 -70.5Q59.95 -59.1 52.05 -62.5L53.05 -62.5" fill="rgb(20,21,21)" fill-opacity="1"></path><path d="M53.05,-70.5L56.05 -71.5L57.05 -71.5L57.15 -70.55Q59.15 -62.4 53.05 -62.5L53.05 -70.5" fill="rgb(53,54,55)" fill-opacity="1"></path><path d="M53.05,-62.5L52.05 -62.5L52.05 -71.5L53.05 -71.5L53.05 -70.5L53.05 -62.5" fill="rgb(23,23,24)" fill-opacity="1"></path><path d="M61.05,-71.5L61.05 -63.5L61.05 -62.5L60.05 -62.5L60.05 -71.5L61.05 -71.5" fill="rgb(33,34,34)" fill-opacity="1"></path><path d="M49.15,-69.55L49.05 -70.5L49.05 -71.5L50.05 -71.5L50.15 -70.5Q51.9 -59.65 45.05 -62.5Q51 -62.05 49.15 -69.55" fill="rgb(29,29,29)" fill-opacity="1"></path><path d="M45.05,-70.5L49.05 -70.5L49.15 -69.55Q51 -62.05 45.05 -62.5L45.05 -70.5" fill="rgb(54,54,56)" fill-opacity="1"></path><path d="M80.05,-61.5L79.05 -61.5Q72.8 -61.8 75.05 -70.5L75.05 -71.5L76.05 -71.5Q74.2 -63.65 79.05 -62.6L80.05 -62.5L80.05 -61.5M38.05,-62.5Q42.85 -63.2 41.15 -70.55L41.05 -71.5L42.05 -71.5L42.05 -70.5L42.15 -69.55Q44.15 -61.4 38.05 -61.5L38.05 -62.5" fill="rgb(36,36,37)" fill-opacity="1"></path><path d="M41.05,-71.5L41.15 -70.55Q42.85 -63.2 38.05 -62.5L38.05 -71.5L41.05 -71.5M80.05,-62.5L79.05 -62.6Q74.2 -63.65 76.05 -71.5L80.05 -71.5L80.05 -62.5" fill="rgb(57,57,58)" fill-opacity="1"></path><path d="M38.05,-71.5L38.05 -76.5L41.05 -75.5L41.05 -71.5L38.05 -71.5" fill="rgb(104,103,108)" fill-opacity="1"></path><path d="M84.05,-70.5L87.05 -71.5L88.05 -71.5L88.05 -62.5L84.05 -62.5L84.05 -70.5M68.05,-63.5Q72.75 -63.8 71.15 -70.55L71.05 -71.5L72.05 -71.5L72.05 -70.5L72.05 -62.5L68.05 -63.5" fill="rgb(49,49,50)" fill-opacity="1"></path><path d="M72.05,-70.5L73.05 -70.5L72.05 -62.5L72.05 -70.5" fill="rgb(11,11,11)" fill-opacity="1"></path><path d="M68.05,-71.5L69.05 -71.5L71.05 -71.5L71.15 -70.55Q72.75 -63.8 68.05 -63.5L68.05 -71.5" fill="rgb(59,60,61)" fill-opacity="1"></path><path d="M68.05,-71.5L68.05 -63.5L72.05 -62.5L72 -62Q64.45 -61.4 67.05 -71.5L68.05 -71.5" fill="rgb(27,28,28)" fill-opacity="1"></path><path d="M84.05,-62.5L83.05 -71.5L84.05 -71.5L84.05 -70.5L84.05 -62.5M81.05,-71.5L80.05 -61.5L80.05 -62.5L80.05 -71.5L81.05 -71.5M23.05,-62.5L22.05 -70.5L23.05 -70.5L23.05 -62.5" fill="rgb(14,14,15)" fill-opacity="1"></path><path d="M65.05,-71.5L65.15 -70.5Q66.9 -59.65 60.05 -62.5L61.05 -62.5Q65.75 -62.8 64.15 -69.55L64.05 -70.5L64.05 -71.5L65.05 -71.5" fill="rgb(26,26,26)" fill-opacity="1"></path><path d="M61.05,-71.5L64.05 -71.5L64.05 -70.5L61.05 -63.5L61.05 -71.5" fill="rgb(62,62,64)" fill-opacity="1"></path><path d="M61.05,-63.5L64.05 -70.5L64.15 -69.55Q65.75 -62.8 61.05 -62.5L61.05 -63.5" fill="rgb(52,52,53)" fill-opacity="1"></path><path d="M92.05,1.5L92.05 3.5Q89.4 9.1 83.9 12.6Q79.1 15.55 74.75 19.25Q68.9 24.1 62.8 28.25Q59.6 30.4 56 31.5L54.05 -27.5L-25 -30.5L-25.95 -57.5L-2.95 -82.5L-1.95 -59.5Q-1.75 -49.2 12.25 -51L36.05 -52.5L59.05 -52.5L88.05 -52.5Q91.55 -42.45 90.4 -27.45Q89.3 -13.25 91.05 -1.5Q91.05 -0.5 91.45 0.3Q91.55 0.5 92.05 0.5L92.05 1.5" fill="rgb(0,107,36)" fill-opacity="1"></path><path d="M31.05,-71.5L30.05 -71.5L30.05 -82.5L31.05 -82.5L31.05 -79.5L31.05 -76.5L31.05 -71.5" fill="rgb(46,72,47)" fill-opacity="1"></path><path d="M28.05,-71.5L27.05 -71.5L27.05 -79.5L26.2 -82.5L28.05 -82.5L28.05 -71.5" fill="rgb(51,77,54)" fill-opacity="1"></path><path d="M23.05,-82.5L26.2 -82.5L27.05 -79.5L26.55 -79.5Q27 -76.05 24.05 -76.5L24.15 -77.45Q24.7 -79.6 23.05 -79.5L23.05 -82.5" fill="rgb(126,126,131)" fill-opacity="1"></path><path d="M22.05,-82.5L23.05 -82.5L23.05 -79.5L23.05 -70.5L22.05 -70.5L22.05 -82.5" fill="rgb(29,29,30)" fill-opacity="1"></path><path d="M20.05,-71.5L20.05 -82.5L21.05 -82.5L20.05 -71.5M88.05,-71.5L89.05 -71.5L88.05 -62.5L88.05 -71.5" fill="rgb(12,12,12)" fill-opacity="1"></path><path d="M26.05,-71.55L27.05 -71.5L27.05 -70.5L23.05 -70.5L23.05 -79.5Q24.7 -79.6 24.15 -77.45L24.05 -76.5Q22.85 -71.8 26.05 -71.55M87.05,-71.5L84.05 -70.5L84.05 -71.5L84.05 -78.5L85.05 -76.5L87.05 -71.5" fill="rgb(87,86,90)" fill-opacity="1"></path><path d="M27.05,-71.5L26.05 -71.55Q22.85 -71.8 24.05 -76.5Q27 -76.05 26.55 -79.5L27.05 -79.5L27.05 -71.5" fill="rgb(107,106,111)" fill-opacity="1"></path><path d="M31.05,-82.5L34.05 -82.5L34.05 -79.5L31.05 -79.5L31.05 -82.5" fill="rgb(132,132,137)" fill-opacity="1"></path><path d="M34.05,-76.5L34.05 -79.5L34.05 -82.5L35.05 -82.5L35.05 -71.5L34.05 -71.5L34.05 -76.5" fill="rgb(67,67,70)" fill-opacity="1"></path><path d="M34.05,-76.5L31.05 -76.5L31.05 -79.5L34.05 -79.5L34.05 -76.5" fill="rgb(125,123,130)" fill-opacity="1"></path><path d="M34.05,-71.5L31.05 -71.5L31.05 -76.5L34.05 -76.5L34.05 -71.5" fill="rgb(108,106,111)" fill-opacity="1"></path><path d="M8.05,-71.5L7.05 -71.5L7.05 -82.5L9.05 -82.5L8.05 -77.5L8.05 -71.5" fill="rgb(53,79,54)" fill-opacity="1"></path><path d="M11.05,-77.5L9.05 -82.5L11.05 -82.5L11.05 -77.5" fill="rgb(133,132,138)" fill-opacity="1"></path><path d="M11.05,-77.5L11.05 -76.5L8.05 -77.5L9.05 -82.5L11.05 -77.5" fill="rgb(121,120,126)" fill-opacity="1"></path><path d="M5.05,-70.5L4.05 -70.5L4.05 -71.5L4.05 -76.5L4.15 -77.45Q5.5 -82.95 1.05 -82.5L0.05 -82.5L0.05 -83.5L5.05 -82.5L5.05 -70.5" fill="rgb(48,71,50)" fill-opacity="1"></path><path d="M3.05,-76.6L4.05 -76.5L4.05 -71.5L3.1 -71.65Q0.55 -72.55 0.05 -75.5L0.05 -82.5L1.05 -82.5Q-0.2 -77.25 3.05 -76.6" fill="rgb(108,106,112)" fill-opacity="1"></path><path d="M-0.95,-82.5L-1.95 -59.5L-2.95 -82.5L0.05 -83.5L0.05 -82.5L-0.95 -82.5" fill="rgb(3,89,11)" fill-opacity="1"></path><path d="M28.05,-71.5L28.15 -70.5Q29.9 -59.65 23.05 -62.5Q29 -62.05 27.15 -69.55L27.05 -70.5L27.05 -71.5L28.05 -71.5M0.05,-82.5L0.05 -75.5L0.05 -70.5L-0.95 -70.5L-0.95 -82.5L0.05 -82.5" fill="rgb(27,27,28)" fill-opacity="1"></path><path d="M11.05,-71.5L8.05 -70.5L8.05 -71.5L8.05 -77.5L11.05 -76.5L11.05 -71.5" fill="rgb(103,101,106)" fill-opacity="1"></path><path d="M20.05,-71.5L19.05 -71.5L19.05 -76.5L19.05 -79.5L19.05 -82.5L20.05 -82.5L20.05 -71.5" fill="rgb(77,76,79)" fill-opacity="1"></path><path d="M19.05,-79.5L16.05 -79.5L16.05 -82.5L19.05 -82.5L19.05 -79.5" fill="rgb(136,136,141)" fill-opacity="1"></path><path d="M15.05,-82.5L16.05 -82.5L16.05 -79.5L16.05 -76.5L16.05 -70.5L15.05 -70.5L15.05 -71.5L15.05 -82.5" fill="rgb(67,92,70)" fill-opacity="1"></path><path d="M15.05,-71.5L14.05 -82.5L15.05 -82.5L15.05 -71.5" fill="rgb(11,11,12)" fill-opacity="1"></path><path d="M13.05,-70.5L12.05 -70.5L12.05 -71.5L12.05 -82.5L13.05 -82.5L13.05 -70.5" fill="rgb(28,28,29)" fill-opacity="1"></path><path d="M11.05,-76.5L11.05 -77.5L11.05 -82.5L12.05 -82.5L12.05 -71.5L11.05 -71.5L11.05 -76.5" fill="rgb(94,92,97)" fill-opacity="1"></path><path d="M16.05,-79.5L19.05 -79.5L19.05 -76.5L16.05 -76.5L16.05 -79.5" fill="rgb(130,129,136)" fill-opacity="1"></path><path d="M19.05,-70.5L19.05 -71.5L20.05 -71.5L20.05 -62.5L19.05 -62.5L19.05 -65.5L19.05 -70.5" fill="rgb(38,38,39)" fill-opacity="1"></path><path d="M19.05,-65.5Q18.55 -65.5 18.3 -65.75Q17.4 -66.6 16.05 -63.5L16.05 -70.5L19.05 -70.5L19.05 -65.5" fill="rgb(59,59,61)" fill-opacity="1"></path><path d="M12.05,-70.5L12.05 -62.5L11.05 -62.55Q6.25 -63.2 8.05 -70.5L11.05 -71.5L12.05 -71.5L12.05 -70.5" fill="rgb(53,53,55)" fill-opacity="1"></path><path d="M8.05,-71.5L8.05 -70.5Q6.25 -63.2 11.05 -62.55L12.05 -62.5L12 -62Q4.45 -61.4 7.05 -71.5L8.05 -71.5" fill="rgb(28,28,28)" fill-opacity="1"></path><path d="M19.05,-65.5L19.05 -62.5L16.05 -63.5Q17.4 -66.6 18.3 -65.75Q18.55 -65.5 19.05 -65.5M0.05,-70.5L4.05 -70.5L4.15 -69.55Q6 -62.05 0.05 -62.5L0.05 -70.5" fill="rgb(55,55,56)" fill-opacity="1"></path><path d="M20,-62Q12.6 -61.05 15.05 -70.5L16.05 -70.5L16.05 -63.5L19.05 -62.5L20.05 -62.5L20 -62" fill="rgb(34,34,34)" fill-opacity="1"></path><path d="M0.05,-75.5Q0.55 -72.55 3.1 -71.65L4.05 -71.5L4.05 -70.5L0.05 -70.5L0.05 -75.5" fill="rgb(88,87,91)" fill-opacity="1"></path><path d="M5.15,-69.55Q7.3 -60.7 0.05 -61.5L0.05 -62.5Q6 -62.05 4.15 -69.55L4.05 -70.5L5.05 -70.5L5.15 -69.55" fill="rgb(24,24,25)" fill-opacity="1"></path><path d="M-0.95,-70.5L0.05 -70.5L0.05 -62.5L0.05 -61.5L-0.95 -70.5" fill="rgb(13,13,14)" fill-opacity="1"></path><path d="M38.05,-62.5L38.05 -61.5L37.05 -71.5L38.05 -71.5L38.05 -62.5" fill="rgb(16,16,16)" fill-opacity="1"></path><path d="M33.55,-68.5Q34.2 -63.8 31.05 -63.5L31.05 -71.5L34.05 -71.5L34.05 -68.5L33.55 -68.5" fill="rgb(61,60,62)" fill-opacity="1"></path><path d="M35.05,-71.5L35.15 -70.55Q37.25 -61.8 31.05 -61.5L31.05 -62.5Q35.5 -62.05 34.15 -67.55L34.05 -68.5L34.05 -71.5L35.05 -71.5" fill="rgb(32,32,32)" fill-opacity="1"></path><path d="M31.05,-71.5L31.05 -63.5L31.05 -62.5L31.05 -61.5L30.05 -71.5L31.05 -71.5" fill="rgb(22,22,22)" fill-opacity="1"></path><path d="M23.05,-70.5L27.05 -70.5L27.15 -69.55Q29 -62.05 23.05 -62.5L23.05 -70.5" fill="rgb(53,53,54)" fill-opacity="1"></path><path d="M84.05,-82.5L88.05 -82.5L88.05 -81.5L87.05 -76.5L85.05 -76.5L84.05 -78.5L84.05 -82.5" fill="rgb(125,124,130)" fill-opacity="1"></path><path d="M88.05,-71.5L88.05 -81.5L88.05 -82.5L89.05 -82.5L89.05 -71.5L88.05 -71.5" fill="rgb(22,33,26)" fill-opacity="1"></path><path d="M87.05,-76.5L88.05 -81.5L88.05 -71.5L87.05 -71.5L87.05 -76.5" fill="rgb(90,89,93)" fill-opacity="1"></path><path d="M83.05,-71.5L83.05 -82.5L84.05 -82.5L84.05 -78.5L84.05 -71.5L83.05 -71.5" fill="rgb(30,30,31)" fill-opacity="1"></path><path d="M87.05,-71.5L85.05 -76.5L87.05 -76.5L87.05 -71.5" fill="rgb(109,107,113)" fill-opacity="1"></path><path d="M90.4,-27.45Q91.55 -42.45 88.05 -52.5L88.05 -53.5Q93.1 -50.05 92.35 -39.4Q91.05 -20.5 91.05 -1.5Q89.3 -13.25 90.4 -27.45" fill="rgb(2,87,25)" fill-opacity="1"></path><path d="M92.05,1.5L93.05 1.5Q94.95 1.95 96.3 1.5L96.55 1.45L96.55 1.4Q100.35 -0.25 100 -9.55L99.5 -27.95Q99.9 -19.8 100.9 -11.75Q102.8 3.25 92.05 3.5L92.05 1.5" fill="rgb(0,94,0)" fill-opacity="1"></path><path d="M93.05,-28.5L96.05 -27.5L96.05 1.5L93.05 1.5L93.05 -28.5" fill="rgb(46,47,48)" fill-opacity="1"></path><path d="M93.05,1.5L92.05 1.5L92.05 0.5L93.05 -28.5L93.05 1.5" fill="rgb(31,38,34)" fill-opacity="1"></path><path d="M96.05,1.5L96.05 -27.5Q97.8 -14.3 96.55 1.4L96.55 1.45L96.3 1.5L96.05 1.5" fill="rgb(27,31,29)" fill-opacity="1"></path></g></g></g></g></svg>