<svg width="127" height="180" viewBox="-29 -128 127 180"><g><defs></defs></g><rect x="-29" y="-128" width="127" height="180" fill="#006600"></rect><g id="0"><defs></defs><g><g type="shape" id="0:1:171"><defs></defs><g transform="matrix(1,0,0,1,0,0)"><path d="M0.4,-126.15L0.4 -127.15L30.4 -127.15L64.4 -127.15L96.4 -127.15L96.4 -126.15L0.4 -126.15" fill="rgb(0,1,0)" fill-opacity="1"></path><path d="M0.4,-125.15L0.4 -122.15L-0.6 -125.15L-0.6 -126.15L0.4 -126.15L96.4 -126.15L95.4 -122.15L89.9 -123.8L94.4 -124.15L58.8 -124.25L0.4 -125.15" fill="rgb(38,39,38)" fill-opacity="1"></path><path d="M64.4,-128.15L96.4 -127.15L64.4 -127.15L64.4 -128.15" fill="rgb(0,109,0)" fill-opacity="1"></path><path d="M-2.6,-122.15L-0.6 -125.15L0.4 -122.15L1.4 -122.15L47.4 -122.15L95.4 -122.15L96.4 -126.15L98.4 -122.15L96.4 -83.15L64.4 -83.15L64.4 -86.15L94.4 -86.15L94.4 -118.15L0.4 -117.15L0.4 -86.15L30.4 -83.15L-1.6 -84.15L-1.6 -96.15L-2.6 -122.15" fill="rgb(1,1,0)" fill-opacity="1"></path><path d="M58.8,-124.25L94.4 -124.15L89.9 -123.8L47.4 -122.15L1.4 -122.15L58.8 -124.25" fill="rgb(117,117,117)" fill-opacity="1"></path><path d="M89.9,-123.8L95.4 -122.15L47.4 -122.15L89.9 -123.8M1.4,-122.15L0.4 -122.15L0.4 -125.15L58.8 -124.25L1.4 -122.15" fill="rgb(112,112,112)" fill-opacity="1"></path><path d="M41.35,-103.15Q37.25 -103.1 34.35 -98.45Q31.85 -94.55 31.5 -89.2L31.4 -86.15L31.4 -83.15L30.4 -83.15L0.4 -86.15L0.4 -117.15L94.4 -118.15L94.4 -86.15L64.4 -86.15L64.4 -83.15L63.4 -83.15L62.4 -86.25L62.4 -86.3L62.4 -91.15L63.4 -91.15L63.35 -91.8L62.4 -100.15Q57.3 -116.65 38.4 -111.15L30.45 -100.2L31.45 -97.5L39.4 -107.15L41.35 -103.15" fill="rgb(46,46,47)" fill-opacity="1"></path><path d="M96.4,-83.15L98.4 -122.15L97.4 -82.15L64.4 -82.15L64.4 -79.15L63.4 -79.15L62.4 -82.15L63.15 -82.4L63.4 -83.15L64.4 -83.15L96.4 -83.15" fill="rgb(2,70,3)" fill-opacity="1"></path><path d="M30.4,-127.15L0.4 -127.15L30.4 -128.15L30.4 -127.15" fill="rgb(0,108,0)" fill-opacity="1"></path><path d="M64.4,-127.15L30.4 -127.15L30.4 -128.15L64.4 -128.15L64.4 -127.15" fill="rgb(3,83,3)" fill-opacity="1"></path><path d="M52.4,-108.15L50.45 -108L39.4 -107.15L31.45 -97.5L30.45 -100.2L38.4 -111.15Q57.3 -116.65 62.4 -100.15L52.4 -108.15M39.4,-89.15L31.4 -81.15L31.4 -83.15L31.4 -86.15L40.4 -94.15L50.4 -95.15Q58.55 -93.3 62.2 -87L62.4 -86.3L62.4 -86.25L63.4 -83.15L63.15 -82.4L62.4 -82.15L50.45 -90L39.4 -89.15" fill="rgb(6,6,6)" fill-opacity="1"></path><path d="M50.4,-104.15L41.35 -103.15L39.4 -107.15L50.45 -108L50.4 -104.15M52.4,-41.15L41.4 -41.15L39.4 -45.15L50.65 -46L52.4 -41.15M52.4,2.85L41.4 2.85L39.4 -1.15L50.75 -2L52.4 2.85" fill="rgb(76,75,78)" fill-opacity="1"></path><path d="M52.4,-99.15L50.45 -99L39.4 -98.15L31.5 -89.2Q31.85 -94.55 34.35 -98.45Q37.25 -103.1 41.35 -103.15L50.4 -104.15Q60.25 -101.5 63.25 -92.1L63.35 -91.8L63.4 -91.15L62.4 -91.15L52.4 -99.15" fill="rgb(8,8,8)" fill-opacity="1"></path><path d="M63.25,-92.1Q60.25 -101.5 50.4 -104.15L50.45 -108L52.4 -108.15L62.4 -100.15L63.35 -91.8L63.25 -92.1" fill="rgb(112,112,116)" fill-opacity="1"></path><path d="M39.4,-98.15L50.45 -99L50.4 -95.15L40.4 -94.15L39.4 -98.15M40.4,-59.15L39.4 -63.15L50.45 -64L50.4 -60.15L40.4 -59.15" fill="rgb(77,76,79)" fill-opacity="1"></path><path d="M62.4,-91.15L62.4 -86.3L62.2 -87Q58.55 -93.3 50.4 -95.15L50.45 -99L52.4 -99.15L62.4 -91.15M63.4,-53.15L62.4 -51.15L62.2 -52Q58.55 -58.3 50.4 -60.15L50.45 -64L52.4 -64.15L62.4 -56.15L63.4 -53.15" fill="rgb(117,117,122)" fill-opacity="1"></path><path d="M55.4,3.85L52.4 2.85L50.75 -2L59.4 1.85L57.4 4.85L55.4 3.85M50.4,-86.15L50.45 -90L62.4 -82.15L63.4 -79.15L62.4 -77.15L50.4 -86.15M62.4,-60.15L50.4 -69.15Q49.4 -72.4 51.05 -73.05L62.4 -65.15L63.4 -62.15L62.4 -60.15M62.4,-47.15L62.4 -42.15L52.4 -50.15L50.8 -55L62.4 -47.15M50.65,-46L62.4 -38.15L62.4 -33.15L52.4 -41.15L50.65 -46M62.4,-24.15L50.4 -33.15L52.05 -37.1L62.4 -29.15L62.4 -24.15" fill="rgb(115,115,119)" fill-opacity="1"></path><path d="M62.4,-73.15L52.4 -81.15L39.4 -80.15L31.4 -72.15L31.4 -76.4Q31.5 -80 34.35 -82.5Q37.25 -85.15 41.4 -85.15L50.4 -86.15L62.4 -77.15L63.4 -73.15L62.4 -73.15M32.4,-17.15L41.4 -24.15L50.4 -25.15L62.4 -15.25L62.4 -12.15L50.8 -20L39.4 -19.15L32.4 -13.15L32.4 -17.15" fill="rgb(7,7,8)" fill-opacity="1"></path><path d="M63.4,-73.15L62.4 -77.15L63.4 -79.15L64.4 -79.15L63.4 -73.15M63.4,-62.15L63.4 -56.15L62.4 -60.15L63.4 -62.15" fill="rgb(48,89,64)" fill-opacity="1"></path><path d="M63.4,-53.15L62.4 -56.15L63.4 -56.15L63.4 -62.15L62.4 -65.15L62.4 -68.25L62.4 -73.15L63.4 -73.15L64.4 -79.15L64.4 -82.15L97.4 -82.15L64.4 -48.15L63.4 -53.15" fill="rgb(1,105,36)" fill-opacity="1"></path><path d="M39.4,-89.15L50.45 -90L50.4 -86.15L41.4 -85.15L39.4 -89.15M39.4,-72.15L51.05 -73.05Q49.4 -72.4 50.4 -69.15L41.35 -68.15L39.4 -72.15M39.4,-36.15L52.05 -37.1L50.4 -33.15L41.35 -32.15L39.4 -36.15M41.4,-6.15L39.4 -10.15L50.5 -11L50.4 -7.15L41.4 -6.15" fill="rgb(77,76,78)" fill-opacity="1"></path><path d="M41.4,-85.15Q37.25 -85.15 34.35 -82.5Q31.5 -80 31.4 -76.4L31.4 -80.15L31.4 -81.15L39.4 -89.15L41.4 -85.15M31.4,-72.15L39.4 -80.15Q38.7 -77.45 40.4 -77.2L41.4 -77.15L31.4 -68.15L31.4 -72.15M40.4,-24.2L41.4 -24.15L32.4 -17.15L32.4 -19.15L39.4 -27.15Q38.7 -24.45 40.4 -24.2" fill="rgb(42,42,43)" fill-opacity="1"></path><path d="M62.4,-65.15L51.05 -73.05L39.4 -72.15L31.4 -64.15L31.4 -68.15L41.4 -77.15L51.4 -77.15L62.4 -68.25L62.4 -65.15M41.4,2.85L52.4 2.85L55.4 3.85L50.4 4.85L38.4 4.85L41.4 2.85" fill="rgb(5,5,5)" fill-opacity="1"></path><path d="M39.4,-80.15L52.4 -81.15Q48.5 -80.75 51.25 -77.45L51.4 -77.15L41.4 -77.15L40.4 -77.2Q38.7 -77.45 39.4 -80.15" fill="rgb(74,73,76)" fill-opacity="1"></path><path d="M62.4,-68.25L51.4 -77.15L51.25 -77.45Q48.5 -80.75 52.4 -81.15L62.4 -73.15L62.4 -68.25" fill="rgb(114,114,119)" fill-opacity="1"></path><path d="M63.4,-4.15L62.4 -4.15L52.4 -11.15L50.5 -11L39.4 -10.15L32.4 -4.15L32.4 -8.15L41.4 -15.15L52.4 -15.15L63.4 -6.15L63.4 -4.15M62.4,-60.15L63.4 -56.15L62.4 -56.15L52.4 -64.15L50.45 -64L39.4 -63.15L31.4 -55.15L31.4 -59.45Q31.5 -63 34.35 -65.5Q37.25 -68.15 41.35 -68.15L50.4 -69.15L62.4 -60.15" fill="rgb(7,7,7)" fill-opacity="1"></path><path d="M41.35,-68.15Q37.25 -68.15 34.35 -65.5Q31.5 -63 31.4 -59.45L31.4 -64.15L39.4 -72.15L41.35 -68.15M31.4,-41.45L31.4 -46.15L39.4 -54.15L41.35 -50.15Q37.25 -50.15 34.35 -47.5Q31.5 -45 31.4 -41.45" fill="rgb(43,42,44)" fill-opacity="1"></path><path d="M62.4,-47.15L50.8 -55L39.4 -54.15L31.4 -46.15L31.4 -48.15L31.4 -51.15L40.4 -59.15L50.4 -60.15Q58.55 -58.3 62.2 -52L62.4 -51.15L62.4 -47.15M34.35,-47.5Q37.25 -50.15 41.35 -50.15L52.4 -50.15L62.4 -42.15L62.4 -38.15L50.65 -46L39.4 -45.15L31.4 -37.15L31.4 -41.45Q31.5 -45 34.35 -47.5M52.4,-41.15L62.4 -33.15L62.4 -29.15L52.05 -37.1L39.4 -36.15L31.4 -28.15L31.4 -32.45Q31.5 -36 34.35 -38.5Q37.25 -41.15 41.4 -41.15L52.4 -41.15" fill="rgb(6,6,7)" fill-opacity="1"></path><path d="M41.35,-50.15L39.4 -54.15L50.8 -55L52.4 -50.15L41.35 -50.15M41.4,-15.15L39.4 -19.15L50.8 -20L52.4 -15.15L41.4 -15.15" fill="rgb(76,75,77)" fill-opacity="1"></path><path d="M62.4,-51.15L63.4 -53.15L64.4 -48.15L63.4 -4.15L63.4 -6.15L62.4 -12.15L62.4 -15.25L62.4 -20.15L62.4 -24.15L62.4 -29.15L62.4 -33.15L62.4 -38.15L62.4 -42.15L62.4 -47.15L62.4 -51.15" fill="rgb(39,97,42)" fill-opacity="1"></path><path d="M39.4,-98.15L40.4 -94.15L31.4 -86.15L31.5 -89.2L39.4 -98.15M39.4,-1.15L41.4 2.85L38.4 4.85L37.4 4.85L36.55 4.6Q35.45 3.8 35.4 1.85L39.4 -1.15" fill="rgb(41,44,43)" fill-opacity="1"></path><path d="M-1.6,-84.15L30.4 -83.15L31.4 -83.15L31.4 -81.15L31.4 -80.15L30.4 -80.15L-2.6 -83.15L-2.6 -96.15L-1.6 -96.15L-1.6 -84.15" fill="rgb(1,56,5)" fill-opacity="1"></path><path d="M31.4,-48.15L30.4 -80.15L31.4 -80.15L31.4 -76.4L31.4 -72.15L31.4 -68.15L31.4 -64.15L31.4 -59.45L31.4 -55.15L31.4 -51.15L31.4 -48.15" fill="rgb(14,73,35)" fill-opacity="1"></path><path d="M35.4,1.85Q35.45 3.8 36.55 4.6L37.4 4.85L50.4 5.85L57.4 5.85L18.6 7L15.4 -47.15L5.4 -47.15L-6.5 -46.3Q-25.75 -43.5 -29.6 -55.15Q-16 -68.55 -3.3 -82.9L-2.6 -83.15L30.4 -80.15L31.4 -48.15L31.4 -46.15L31.4 -41.45L31.4 -37.15L31.4 -32.45L31.4 -28.15L31.4 -23.45L31.4 -19.15L32.4 -4.15Q32.45 -2.2 33.55 -1.4L34.4 -1.15L35.4 1.85" fill="rgb(0,107,36)" fill-opacity="1"></path><path d="M40.4,-59.15L31.4 -51.15L31.4 -55.15L39.4 -63.15L40.4 -59.15M41.4,-15.15L32.4 -8.15L32.4 -13.15L39.4 -19.15L41.4 -15.15" fill="rgb(43,43,44)" fill-opacity="1"></path><path d="M41.4,-41.15Q37.25 -41.15 34.35 -38.5Q31.5 -36 31.4 -32.45L31.4 -37.15L39.4 -45.15L41.4 -41.15" fill="rgb(42,43,44)" fill-opacity="1"></path><path d="M34.35,-29.5Q37.25 -32.15 41.35 -32.15L50.4 -33.15L62.4 -24.15L62.4 -20.15L52.4 -28.15L50.55 -28L39.4 -27.15L32.4 -19.15L31.4 -19.15L31.4 -23.45Q31.5 -27 34.35 -29.5" fill="rgb(7,8,8)" fill-opacity="1"></path><path d="M41.35,-32.15Q37.25 -32.15 34.35 -29.5Q31.5 -27 31.4 -23.45L31.4 -28.15L39.4 -36.15L41.35 -32.15" fill="rgb(42,44,44)" fill-opacity="1"></path><path d="M32.4,-4.15L31.4 -19.15L32.4 -19.15L32.4 -17.15L32.4 -13.15L32.4 -8.15L32.4 -4.15" fill="rgb(12,72,33)" fill-opacity="1"></path><path d="M39.4,-10.15L41.4 -6.15L34.4 -1.15L33.55 -1.4Q32.45 -2.2 32.4 -4.15L39.4 -10.15" fill="rgb(43,45,45)" fill-opacity="1"></path><path d="M34.4,-1.15L41.4 -6.15L50.4 -7.15L61.4 -0.15L59.4 1.85L50.75 -2L39.4 -1.15L35.4 1.85L34.4 -1.15" fill="rgb(6,8,7)" fill-opacity="1"></path><path d="M50.4,-25.15L41.4 -24.15L40.4 -24.2Q38.7 -24.45 39.4 -27.15L50.55 -28L50.4 -25.15" fill="rgb(75,75,77)" fill-opacity="1"></path><path d="M62.4,-15.25L50.4 -25.15L50.55 -28L52.4 -28.15L62.4 -20.15L62.4 -15.25" fill="rgb(111,111,115)" fill-opacity="1"></path><path d="M63.4,-6.15L52.4 -15.15L50.8 -20L62.4 -12.15L63.4 -6.15" fill="rgb(114,114,118)" fill-opacity="1"></path><path d="M62.4,-4.15L61.4 -0.15L50.4 -7.15L50.5 -11L52.4 -11.15L62.4 -4.15" fill="rgb(112,115,116)" fill-opacity="1"></path><path d="M55.4,3.85L57.4 4.85L57.9 5.85L57.4 5.85L50.4 5.85L50.4 4.85L55.4 3.85" fill="rgb(5,68,18)" fill-opacity="1"></path><path d="M37.4,4.85L38.4 4.85L50.4 4.85L50.4 5.85L37.4 4.85" fill="rgb(0,77,26)" fill-opacity="1"></path><path d="M-1.6,-96.15L-2.6 -96.15L-2.6 -122.15L-1.6 -96.15" fill="rgb(0,75,1)" fill-opacity="1"></path></g></g></g></g></svg>