<svg width="32" height="28" viewBox="-16 -14 32 28"><g><defs></defs></g><rect x="-16" y="-14" width="32" height="28" fill="#006600"></rect><g id="0"><defs></defs><g><g type="shape" id="0:1:364"><defs></defs><g transform="matrix(1,0,0,1,0,0)"><path d="M3,-14.6L4 -14.6Q8.1 -8.2 15.85 -5.15L16 -4.6L16 3.4L16 4.4Q15.15 6.55 12.95 7.1Q11.5 7.4 11.2 8Q7.3 15.75 -5 14.4Q-5 13.9 -5.25 13.55Q-9.15 7.55 -16 4.4L-16 3.4L-16 -4.6L-16 -5.6Q-8.05 -7.15 -5.55 -14.45L-5 -14.6L3 -14.6M-3.5,7.4L-3 7.4Q0 11.6 2.2 7Q3 5.4 3.4 5.3Q12.1 3.5 10 -2.6Q8 -2.6 6.55 -3.5Q2.8 -5.9 -0.65 -8.85L-1.5 -9.6Q-1.4 -0.5 -11 -2.6Q-11.75 1.65 -8.95 2.3L-8 2.4Q-3.7 2.65 -3.5 7.4" fill="rgb(11,11,11)" fill-opacity="1"></path><path d="M-2.9,6.4Q-2 0.9 -8 2.4L-8.95 2.3Q-11.75 1.65 -11 -2.6Q-1.4 -0.5 -1.5 -9.6L-0.65 -8.85Q2.8 -5.9 6.55 -3.5Q8 -2.6 10 -2.6Q12.1 3.5 3.4 5.3Q3 5.4 2.2 7Q0 11.6 -3 7.4L-2.9 6.4" fill="rgb(248,248,248)" fill-opacity="1"></path><path d="M-3,7.4L-3.5 7.4Q-3.7 2.65 -8 2.4Q-2 0.9 -2.9 6.4L-3 7.4" fill="rgb(102,102,102)" fill-opacity="1"></path></g></g></g></g></svg>