<svg width="32" height="48" viewBox="-16 -24 32 48"><g><defs></defs></g><rect x="-16" y="-24" width="32" height="48" fill="#006600"></rect><g id="0"><defs></defs><g><g type="shape" id="0:1:359"><defs></defs><g transform="matrix(1,0,0,1,0,0)"><path d="M-7.45,-23.9L-6.5 -24L3.5 -24L4.5 -24Q12.9 -21.4 16.3 -13.9L16.5 -13L16.5 -2L16.5 -1L16.3 -0.1Q12.4 7.4 4.5 11L3.5 11L3.5 19L3.5 20L3.35 20.95Q2.65 23.15 0.5 24L-0.5 24L-9.5 24L-10.25 23.75L-12.5 21L-12.5 20L-12.5 11L-12.4 10L-10.5 1Q-8.5 -1.5 -6.1 -3.5L-5.5 -4Q-12.85 -4.15 -16.5 -9L-16.5 -10L-16.5 -18L-16.5 -19Q-13 -22.5 -7.45 -23.9M-11.5,-12.5Q-2.9 -13.6 4.5 -10Q7.1 -6.05 3.45 -4.1Q-5 0.5 -5.5 8L-5.5 8.5Q8.85 6.35 12.5 -7L12.35 -7.95Q6.1 -24.4 -11.5 -16L-11.5 -14L-11.5 -12.5M-2.5,18.8Q-0.25 8.05 -8.5 15Q-8.65 19.15 -5.45 19.75Q-2.75 20.25 -2.5 18.8" fill="rgb(9,9,9)" fill-opacity="1"></path><path d="M-11.5,-14L-11.5 -16Q6.1 -24.4 12.35 -7.95L12.5 -7Q8.85 6.35 -5.5 8.5L-5.5 8Q-5 0.5 3.45 -4.1Q7.1 -6.05 4.5 -10Q-2.9 -13.6 -11.5 -12.5L-11.5 -14" fill="rgb(242,242,242)" fill-opacity="1"></path><path d="M-5.45,19.75Q-8.65 19.15 -8.5 15Q-0.25 8.05 -2.5 18.8Q-2.75 20.25 -5.45 19.75" fill="rgb(229,229,229)" fill-opacity="1"></path></g></g></g></g></svg>