<svg width="26" height="24" viewBox="-13 -12 26 24"><g><defs></defs></g><rect x="-13" y="-12" width="26" height="24" fill="#006600"></rect><g id="0"><defs></defs><g><g type="shape" id="0:1:345"><defs></defs><g transform="matrix(1,0,0,1,0,0)"><path d="M9.2,5.4Q10.45 -1.75 8.7 -6.5L8.45 -7.2Q5.3 -9.55 2.7 -6.5Q-0.05 8.2 8.6 6.05L8.7 5.5L9.2 5.4M10.7,-12.5L13.45 -10.25L13.7 -9.5L13.7 7.5L13.7 8.5L13.45 9.25L9.7 12.5L8.7 12.5L1.7 12.5L1.1 12.3Q0.4 10.85 -1.3 12.5L-2.3 12.5L-9.3 12.5L-9.95 12.25Q-14.95 4.7 -13.3 -9.5Q-11.8 -10.5 -10.55 -11.75Q-10.3 -12 -10.3 -12.5L-1.3 -12.5L-0.3 -12.5L0.7 -12.5L1.7 -12.5L9.7 -12.5L10.7 -12.5M-1.8,5.4Q-0.55 -1.25 -2.3 -5.5L-2.5 -6.4Q-4.35 -10.1 -8.3 -7.5Q-11.2 7.85 -2.4 6L-2.3 5.5L-1.8 5.4" fill="rgb(2,2,2)" fill-opacity="1"></path><path d="M8.7,4.5L8.7 5.5L8.6 6.05Q-0.05 8.2 2.7 -6.5Q5.3 -9.55 8.45 -7.2L8.7 -6.5L8.7 4.5" fill="rgb(246,246,246)" fill-opacity="1"></path><path d="M-2.3,4.5L-2.3 5.5L-2.4 6Q-11.2 7.85 -8.3 -7.5Q-4.35 -10.1 -2.5 -6.4L-2.3 -5.5L-2.3 4.5" fill="rgb(244,244,244)" fill-opacity="1"></path><path d="M-2.3,-5.5Q-0.55 -1.25 -1.8 5.4L-2.3 5.5L-2.3 4.5L-2.3 -5.5" fill="rgb(64,64,64)" fill-opacity="1"></path><path d="M8.7,-6.5Q10.45 -1.75 9.2 5.4L8.7 5.5L8.7 4.5L8.7 -6.5" fill="rgb(85,85,85)" fill-opacity="1"></path></g></g></g></g></svg>