<svg width="42" height="54" viewBox="-23 -25 42 54"><g><defs></defs></g><rect x="-23" y="-25" width="42" height="54" fill="#006600"></rect><g id="0"><defs></defs><g><g type="shape" id="0:1:467"><defs></defs><g transform="matrix(1,0,0,1,0,0)"><path d="M17.9,-25.6Q21.2 1.3 18.15 29.4L17.9 29.45Q7.35 24.6 -2.3 16.4L-2.45 16.05Q-13 16.4 -22.25 15.6L-22.75 15.55Q-23.65 3 -23.25 -10.75L-23.25 -11.25Q-14.2 -12.1 -3.9 -11.75L-3.4 -11.75Q7.1 -19.85 17.45 -25.5L17.9 -25.6M13.55,-20.05Q6.3 -14.2 -1.45 -8.75L-1.95 -8.75L-18.3 -8.75L-18.8 -8.75L-18.8 2.65L-18.8 3.15Q-20.6 16.1 -5.8 12.95L-1.95 12.55Q6.2 18.3 14.05 24.35L14.45 24.5Q15.3 13.95 14.95 2.15L14.95 1.65L14.95 1.15L14.95 -5.8L14.95 -6.25Q15.65 -14.7 13.95 -20.65L13.95 -20.15L13.55 -20.05" fill="rgb(2,5,2)" fill-opacity="1"></path><path d="M-18.3,3.15L-18.8 3.15L-18.8 2.65L-18.8 -8.75L-18.3 -8.75L-18.3 -8.25L-18.3 -1.3L-18.3 -0.8L-18.3 2.65L-18.3 3.15" fill="rgb(117,114,111)" fill-opacity="1"></path><path d="M-1.45,-8.5Q-9.9 -8.3 -18.3 -8.25L-18.3 -8.75L-1.95 -8.75L-1.45 -8.75L-1.45 -8.5" fill="rgb(172,166,159)" fill-opacity="1"></path><path d="M-18.3,-1.3L-18.3 -8.25Q-9.9 -8.3 -1.45 -8.5L-1.45 -8.75Q6.3 -14.2 13.55 -20.05L13.95 -20.15Q14.8 -13.85 14.45 -6.25L14.45 -5.8L14 -5.7Q1.2 0.1 -18.3 -0.8L-18.3 -1.3" fill="rgb(248,239,229)" fill-opacity="1"></path><path d="M14.45,-5.8L14.45 -6.25Q14.8 -13.85 13.95 -20.15L13.95 -20.65Q15.65 -14.7 14.95 -6.25L14.95 -5.8L14.45 -5.8" fill="rgb(153,147,141)" fill-opacity="1"></path><path d="M14.45,1.65L14.45 1.15L14.45 -5.8L14.95 -5.8L14.95 1.15L14.95 1.65L14.45 1.65" fill="rgb(112,112,112)" fill-opacity="1"></path><path d="M-18.3,2.65L-18.3 -0.8Q1.2 0.1 14 -5.7L14.45 -5.8L14.45 1.15L14.45 1.65L13.95 1.7Q-0.5 4.1 -18.3 3.15L-18.3 2.65" fill="rgb(179,179,179)" fill-opacity="1"></path><path d="M-18.3,3.15Q-0.5 4.1 13.95 1.7L14.45 1.65L14.45 4.65Q14.4 6.1 13.95 6.3Q6.75 8.8 -5.75 9.55Q-17 10.3 -18.3 3.15" fill="rgb(111,118,119)" fill-opacity="1"></path><path d="M-18.3,3.15Q-17 10.3 -5.75 9.55Q6.75 8.8 13.95 6.3Q14.4 6.1 14.45 4.65L14.45 1.65L14.95 1.65L14.95 2.15Q15.3 13.95 14.45 24.5L14.05 24.35Q6.2 18.3 -1.95 12.55L-5.8 12.95Q-20.6 16.1 -18.8 3.15L-18.3 3.15" fill="rgb(90,93,88)" fill-opacity="1"></path></g></g></g></g></svg>