<svg width="119" height="156" viewBox="-26 -126 119 156"><g><defs></defs></g><rect x="-26" y="-126" width="119" height="156" fill="#006600"></rect><g id="0"><defs></defs><g><g type="shape" id="0:1:126"><defs></defs><g transform="matrix(1,0,0,1,0,0)"><path d="M-1,-61.95L-1 -62.95L-1 -86.95Q6.9 -127.05 56 -125.95L57 -125.95Q75.6 -120.05 85.35 -105.2Q85.5 -104.95 86 -104.95L89 -98.95Q94.1 -87.55 93.05 -69.95L93 -68.95L93 -39.95L92.95 -38.95Q89.15 -14.3 71 -3.95L64 0.05Q51.55 4.95 36.05 1.8Q-2.05 -5.9 -1 -52.95L-1 -61.95M3,-89.95Q0.5 -83.3 1 -76.3Q1.2 -73.05 2 -69.95L9 -52.95L11 -49.95L15 -45.95L18 -42.95L24 -38.95L32 -34.95L60 -34.95Q61 -34.95 61.8 -35.35L62 -35.95L63 -35.95L67 -37.95L67.75 -38.2L68 -38.95Q69.95 -39 70.75 -40.1L71 -40.95L75 -43.95L80 -48.95L82 -51.95Q87.85 -59.1 89.9 -69.95L90 -70.95L90 -82.95L84 -100.95L80 -105.95L80 -106.95L75 -111.95L67 -117.95L63 -119.95L51 -120.9L51 -120.95L39 -121.9L38 -121.95L35 -121.95L28 -118.95L22 -115.95L21 -115.95L21 -114.95L19 -113.95L11 -104.95L3 -89.95M18,-9.95Q18 -9.45 18.25 -9.2Q18.5 -8.95 19 -8.95L22 -6.95L25 -4.95L53 0.05L56 -0.95L62 -2.95L65 -3.95L68 -5.95L76 -11.95L79 -14.95L82 -18.95L82.75 -19.2L83 -19.95L88 -28.95L88 -29.95L91 -50.95L90.95 -51.95Q90.2 -60.15 86 -52.95L86 -51.95L84 -48.95L82 -45.95L78 -41.95L74 -37.95L72.2 -37.55L72 -36.95L71 -36.95L69 -35.95L64 -32.95L62.2 -32.55Q62 -32.45 62 -31.95L59 -30.95L58 -30.95L57 -30.95L55 -30.95L53 -29.95L45 -29.95L38 -29.95L37.4 -30.15Q36.7 -31.65 34 -30.95L30 -31.95L29.8 -32.55L28 -32.95L20 -36.95L15 -40.95L11 -44.95L8 -47.95L7.5 -48.05Q6.15 -56.5 1 -55.95Q-0.3 -31.1 10.3 -18.2Q10.5 -17.95 11 -17.95L18 -9.95" fill="rgb(6,10,3)" fill-opacity="1"></path><path d="M51.25,-120.25Q61.05 -112.55 64 -97.95Q63.5 -97.95 63.35 -98.2Q54.7 -111.65 35 -113.95L35 -121.95L38 -121.95L39 -121.9L51 -120.95L51 -120.9Q51 -120.45 51.25 -120.25M75,-110.95L80 -105.95L84 -100.95L90 -82.95L90 -70.95L89.9 -69.95Q87.85 -59.1 82 -51.95Q79.7 -53.2 79.45 -56Q78.45 -68.85 75 -78.95L70 -90.95L63 -116.95L67 -117.95L75 -111.95L75 -110.95" fill="rgb(161,147,68)" fill-opacity="1"></path><path d="M86,-104.95Q88.75 -103.7 88.95 -99.95L89 -98.95L86 -104.95" fill="rgb(36,93,19)" fill-opacity="1"></path><path d="M60,-34.95L32 -34.95Q31.9 -40.8 25.95 -47.45Q21.5 -52.5 15.05 -51.2L15 -45.95L11 -49.95L11.1 -50.9Q13 -58.4 9 -52.95L2 -69.95L3 -89.95L11 -104.95Q15.35 -96.75 15.8 -84Q17.05 -48 44 -36.95Q46.35 -36.4 52 -36.9L53 -36.95L60 -34.95" fill="rgb(65,52,30)" fill-opacity="1"></path><path d="M20,-110.95L20 -87.95Q29.4 -58.4 55.8 -45.55L56 -44.95L55.8 -44.35Q55 -43.95 54 -43.95L34 -49.95Q35.7 -45 39.9 -42.1Q46.15 -37.8 53 -36.95L52 -36.9Q46.35 -36.4 44 -36.95Q17.05 -48 15.8 -84Q15.35 -96.75 11 -104.95L19 -113.95L20 -110.95" fill="rgb(95,73,37)" fill-opacity="1"></path><path d="M56,-44.95L55.8 -45.55Q29.4 -58.4 20 -87.95L20 -110.95L19 -113.95L21 -114.95Q22.65 -111.6 28.85 -113.4L29 -113.95L29 -116.95Q30.65 -117.05 30.1 -114.9L30 -113.95L30.05 -112.95Q30.75 -107.2 29 -103.95Q27.6 -63.05 56 -52Q65.8 -48.2 75 -43.95L71 -40.95L64 -40.95L56 -44.95" fill="rgb(129,112,48)" fill-opacity="1"></path><path d="M67.05,-94L71.5 -78.05Q65.55 -75.55 59.2 -78.7Q47.95 -84.45 49.65 -96.55L55 -90.45Q55.7 -92.4 55 -94.35Q52.75 -100.45 46.55 -99.75Q43.8 -93.1 46.5 -86.5Q49.45 -79.45 56.3 -76.45Q65.65 -72.3 75.05 -76.4L75 -78.95Q78.45 -68.85 79.45 -56Q79.7 -53.2 82 -51.95L80 -48.95L77.95 -49.7Q47.1 -57.05 35 -82.95L35 -83.95Q35.05 -90.5 34 -95.95Q35.75 -103.2 35.05 -112.95L35 -113.95Q54.7 -111.65 63.35 -98.2Q63.5 -97.95 64 -97.95Q61.05 -112.55 51.25 -120.25Q51 -120.45 51 -120.9L63 -119.95L63 -116.95L70 -90.95L67.05 -94" fill="rgb(129,112,49)" fill-opacity="1"></path><path d="M29,-116.95L28 -118.95L35 -121.95L35 -113.95L30 -113.95L30.1 -114.9Q30.65 -117.05 29 -116.95" fill="rgb(119,96,52)" fill-opacity="1"></path><path d="M56,-52Q27.6 -63.05 29 -103.95Q30.75 -107.2 30.05 -112.95L30 -113.95L35 -113.95L35.05 -112.95Q35.75 -103.2 34 -95.95Q35.05 -90.5 35 -83.95L35 -82.95Q47.1 -57.05 77.95 -49.7L80 -48.95L75 -43.95Q65.8 -48.2 56 -52" fill="rgb(97,74,37)" fill-opacity="1"></path><path d="M29,-116.95L29 -113.95L28 -113.85Q22.75 -112.7 22 -115.95L28 -118.95L29 -116.95" fill="rgb(156,142,66)" fill-opacity="1"></path><path d="M21,-114.95L21 -115.95L22 -115.95Q22.75 -112.7 28 -113.85L29 -113.95L28.85 -113.4Q22.65 -111.6 21 -114.95" fill="rgb(137,121,55)" fill-opacity="1"></path><path d="M25,-4.95L22 -6.95L25 -23.95L25 -4.95" fill="rgb(74,59,32)" fill-opacity="1"></path><path d="M63,-119.95L67 -117.95L63 -116.95L63 -119.95" fill="rgb(100,84,43)" fill-opacity="1"></path><path d="M80,-106.95L80 -105.95L75 -110.95L80 -106.95" fill="rgb(139,120,60)" fill-opacity="1"></path><path d="M75,-111.95L80 -106.95L75 -110.95L75 -111.95" fill="rgb(60,49,26)" fill-opacity="1"></path><path d="M70,-90.95L75 -78.95L75.05 -76.4Q65.65 -72.3 56.3 -76.45Q49.45 -79.45 46.5 -86.5Q43.8 -93.1 46.55 -99.75Q52.75 -100.45 55 -94.35Q55.7 -92.4 55 -90.45L49.65 -96.55Q47.95 -84.45 59.2 -78.7Q65.55 -75.55 71.5 -78.05L67.05 -94L70 -90.95" fill="rgb(101,80,39)" fill-opacity="1"></path><path d="M2,-69.95Q1.2 -73.05 1 -76.3Q0.5 -83.3 3 -89.95L2 -69.95" fill="rgb(63,56,31)" fill-opacity="1"></path><path d="M11,-49.95L9 -52.95Q13 -58.4 11.1 -50.9L11 -49.95" fill="rgb(29,23,13)" fill-opacity="1"></path><path d="M32,-34.95L24 -38.95L23.9 -39.9Q23.05 -43.45 18 -42.95L15 -45.95L15.05 -51.2Q21.5 -52.5 25.95 -47.45Q31.9 -40.8 32 -34.95" fill="rgb(91,70,35)" fill-opacity="1"></path><path d="M23.9,-39.9L24 -38.95L18 -42.95Q23.05 -43.45 23.9 -39.9M45,-27.95L44 -27.95L44 -26.95L43 -26.95L43 -25.95L42.5 -25.95Q43.2 -21.25 39 -21.95L38 -29.95L45 -29.95L45 -27.95" fill="rgb(38,29,14)" fill-opacity="1"></path><path d="M29.8,-32.55L30 -31.95Q28.35 -31.95 27.2 -30.75Q26 -29.6 26 -27.95L25 -23.95L22 -6.95L19 -8.95L20 -20.95L20 -26.95L21 -33.95Q22.55 -29.45 27.15 -32.7L28 -32.95L29.8 -32.55" fill="rgb(54,44,27)" fill-opacity="1"></path><path d="M20,-36.95L28 -32.95L27.15 -32.7Q22.55 -29.45 21 -33.95L20 -36.95" fill="rgb(21,18,10)" fill-opacity="1"></path><path d="M26,-27.95Q26 -29.6 27.2 -30.75Q28.35 -31.95 30 -31.95L34 -30.95L33 -30.95L26 -27.95" fill="rgb(69,56,30)" fill-opacity="1"></path><path d="M20,-36.95L21 -33.95L20 -26.95L19 -33.95L18 -33.95Q17.65 -35.15 16.2 -34.45L16 -33.95Q13.05 -36.55 14.45 -40.8L15 -40.95L20 -36.95" fill="rgb(70,58,31)" fill-opacity="1"></path><path d="M53,-3.95L53 -0.95L53 0.05L25 -4.95L25 -23.95L26 -27.95L33 -30.95L35.4 -8.65L35.6 -8.9Q40.25 -14.45 39 -21.95Q43.2 -21.25 42.5 -25.95L43 -25.95L43 -16.95L43 -14.95Q40.25 -10.3 43.75 -4.1Q43.8 -4 44 -3.95L53 -3.95" fill="rgb(95,73,36)" fill-opacity="1"></path><path d="M39,-21.95Q40.25 -14.45 35.6 -8.9L35.4 -8.65L33 -30.95L34 -30.95Q36.7 -31.65 37.4 -30.15L38 -29.95L39 -21.95" fill="rgb(123,106,47)" fill-opacity="1"></path><path d="M11,-44.95L10.8 -44.05Q7.05 -35.15 8 -47.95L11 -44.95" fill="rgb(83,75,37)" fill-opacity="1"></path><path d="M16,-24.95L15.5 -24.95Q15.35 -19.05 11 -17.95Q10.5 -17.95 10.3 -18.2Q-0.3 -31.1 1 -55.95Q6.15 -56.5 7.5 -48.05L8 -47.95Q7.05 -35.15 10.8 -44.05L11 -44.95L15 -40.95L14.45 -40.8Q13.05 -36.55 16 -33.95L16 -24.95" fill="rgb(59,48,29)" fill-opacity="1"></path><path d="M16,-24.95L16 -33.95L16.2 -34.45Q17.65 -35.15 18 -33.95L16 -24.95" fill="rgb(104,89,42)" fill-opacity="1"></path><path d="M19,-20.95L19 -18.95L18.2 -18.7Q16.05 -17.1 15 -20.95Q16.7 -21.25 16.1 -23.95L16 -24.95L18 -33.95L19 -33.95L19 -20.95" fill="rgb(128,112,48)" fill-opacity="1"></path><path d="M19,-20.95L19 -33.95L20 -26.95L20 -20.95L19 -20.95" fill="rgb(88,75,37)" fill-opacity="1"></path><path d="M18,-9.95L11 -17.95Q15.35 -19.05 15.5 -24.95L16 -24.95L16.1 -23.95Q16.7 -21.25 15 -20.95Q16.05 -17.1 18.2 -18.7L19 -18.95L18 -9.95" fill="rgb(88,69,34)" fill-opacity="1"></path><path d="M19,-18.95L19 -20.95L20 -20.95L19 -8.95Q18.5 -8.95 18.25 -9.2Q18 -9.45 18 -9.95L19 -18.95" fill="rgb(67,55,31)" fill-opacity="1"></path><path d="M3.9,-6.2L4 -5.95Q-1.25 -11.7 3.85 -9.2L4 -8.95Q1.65 -7.95 3.9 -6.2" fill="rgb(5,106,37)" fill-opacity="1"></path><path d="M-16,10.05L-16.7 9.8Q-26.05 -1.4 -26 -21.95Q-23.1 -36.55 -15.65 -46.7L-15 -46.95Q-10.9 -47.35 -8.5 -53.95L-9 -53.95L-2 -60.95L-1 -52.95Q-2.05 -5.9 36.05 1.8Q51.55 4.95 64 0.05L63 6.05L61 8.05Q53.35 8.45 54.8 14.95L55 15.05L53 17.05Q50.8 14.2 48.9 18.1L48.9 18.5L50 20.05L48 21.05Q44.65 17.35 41.15 22.55L41.15 22.8L44 23.05L28 29.05L27.85 28.8Q20.15 23.5 19 29.05L19 30.05L18 30Q4 28.1 -5 21.05L-3.65 19.15L-16 10.05M4.15,-5.4Q9 -3.75 4 -8.95L3.85 -9.2Q-1.25 -11.7 4 -5.95Q4 -5.45 4.15 -5.4M11.05,26.55Q22.25 27.2 11 26.05L11.05 26.55M29,26.55Q42.55 23.4 29 26.05L29 26.55M-25,-16.95L-25 -15.4Q-21.95 -18.3 -25 -19.95L-25 -16.95" fill="rgb(0,106,36)" fill-opacity="1"></path><path d="M4,-5.95L3.9 -6.2Q1.65 -7.95 4 -8.95Q9 -3.75 4.15 -5.4Q4 -5.45 4 -5.95" fill="rgb(19,105,39)" fill-opacity="1"></path><path d="M73,-23.95L72 -36.95L72.2 -37.55L74 -37.95L74 -27.95L73 -23.95" fill="rgb(142,126,67)" fill-opacity="1"></path><path d="M79,-15.95L74 -27.95L74 -37.95L78 -41.95Q80.65 -42.6 80.1 -39.95L80 -38.95L79 -15.95" fill="rgb(127,111,49)" fill-opacity="1"></path><path d="M82,-18.95L79 -14.95L79 -15.95L80 -38.95L82 -28.95L82 -18.95" fill="rgb(152,137,65)" fill-opacity="1"></path><path d="M83,-41.95L83 -40.95L82.95 -39.95Q82.7 -38.25 80 -38.95L80.1 -39.95Q80.65 -42.6 78 -41.95L82 -45.95L83 -41.95" fill="rgb(40,32,17)" fill-opacity="1"></path><path d="M54,-43.95Q55 -43.95 55.8 -44.35L56 -44.95L64 -40.95L61 -39.95L54 -43.95" fill="rgb(104,84,40)" fill-opacity="1"></path><path d="M71,-40.95L70.75 -40.1Q69.95 -39 68 -38.95L64.7 -38.95L63.5 -38.95L62 -38.95Q61.5 -38.95 61.25 -39.2Q61 -39.45 61 -39.95L64 -40.95L71 -40.95" fill="rgb(82,66,33)" fill-opacity="1"></path><path d="M64.7,-38.95L68 -38.95L67.75 -38.2L67 -37.95L64.7 -38.95M62,-38.95L63.5 -38.95Q62.3 -38.35 63 -35.95L62 -35.95L62 -38.95" fill="rgb(57,46,24)" fill-opacity="1"></path><path d="M61,-39.95Q61 -39.45 61.25 -39.2Q61.5 -38.95 62 -38.95L62 -35.95L61.8 -35.35Q61 -34.95 60 -34.95L53 -36.95Q46.15 -37.8 39.9 -42.1Q35.7 -45 34 -49.95L54 -43.95L61 -39.95M60,-3.95L57 -8.95L57 -19.95L57 -30.95L58 -30.95L59 -20L59 -14.95L59.2 -17.8L59.65 -12.95L61 -29.95Q64.45 -30.95 62.9 -31.75L62 -31.95Q62 -32.45 62.2 -32.55L64 -32.95L67 -28.95L68 -5.95L65 -3.95L60 -3.95" fill="rgb(125,108,48)" fill-opacity="1"></path><path d="M63.5,-38.95L64.7 -38.95L67 -37.95L63 -35.95Q62.3 -38.35 63.5 -38.95" fill="rgb(30,24,12)" fill-opacity="1"></path><path d="M64,-32.95L69 -35.95L68 -28.95L67 -28.95L64 -32.95" fill="rgb(40,33,15)" fill-opacity="1"></path><path d="M69,-35.95L71 -36.95L69 -28.95L68 -28.95L69 -35.95" fill="rgb(62,53,23)" fill-opacity="1"></path><path d="M59,-30.95L62 -31.95L62.9 -31.75Q64.45 -30.95 61 -29.95L60 -29.95L60 -28.95L59 -28.95L59 -30.95" fill="rgb(149,132,74)" fill-opacity="1"></path><path d="M59,-28.95L59 -20L58 -30.95L59 -30.95L59 -28.95M60,-28.95L60 -29.95L61 -29.95L59.65 -12.95L59.2 -17.8L60 -28.95" fill="rgb(142,126,66)" fill-opacity="1"></path><path d="M76,-11.95L68 -5.95L67 -28.95L68 -28.95L69 -28.95L68 -27.95Q65.7 -17.7 74.15 -13.3Q74.5 -13.05 75 -12.95Q75 -12.45 75.25 -12.2Q75.5 -11.95 76 -11.95" fill="rgb(100,79,39)" fill-opacity="1"></path><path d="M71,-36.95L72 -36.95L73 -23.95L75 -12.95Q74.5 -13.05 74.15 -13.3Q65.7 -17.7 68 -27.95L69 -28.95L71 -36.95" fill="rgb(127,110,49)" fill-opacity="1"></path><path d="M74,-27.95L79 -15.95L79 -14.95L76 -11.95Q75.5 -11.95 75.25 -12.2Q75 -12.45 75 -12.95L73 -23.95L74 -27.95" fill="rgb(145,129,71)" fill-opacity="1"></path><path d="M45,-27.95L45 -29.95L53 -29.95L53 -27.95L45 -27.95" fill="rgb(103,83,41)" fill-opacity="1"></path><path d="M44,-26.95L44 -27.95L45 -27.95L53 -27.95L53 -19.95L53 -3.95L44 -3.95L43 -14.95L43 -16.95L44 -26.95" fill="rgb(125,109,48)" fill-opacity="1"></path><path d="M43,-16.95L43 -25.95L43 -26.95L44 -26.95L43 -16.95" fill="rgb(105,85,40)" fill-opacity="1"></path><path d="M55,-30.95L57 -30.95L57 -19.95L56 -19.95L55 -30.95" fill="rgb(79,68,32)" fill-opacity="1"></path><path d="M56,-19.95L57 -7.95L57 -2.95L56 -0.95L53 0.05L53 -0.95Q56.2 -3.75 55.1 -10.95L55 -11.95L54 -19.95L53 -27.95L53 -29.95L55 -30.95L56 -19.95" fill="rgb(29,26,13)" fill-opacity="1"></path><path d="M59.2,-17.8L59 -14.95L59 -20L59 -28.95L60 -28.95L59.2 -17.8" fill="rgb(155,138,81)" fill-opacity="1"></path><path d="M57,-8.95L57 -7.95L56 -19.95L57 -19.95L57 -8.95" fill="rgb(50,44,20)" fill-opacity="1"></path><path d="M53,-19.95L53 -27.95L54 -19.95L53 -19.95" fill="rgb(72,63,31)" fill-opacity="1"></path><path d="M53,-19.95L54 -19.95L54 -11.95L53 -3.95L53 -19.95" fill="rgb(93,83,40)" fill-opacity="1"></path><path d="M54,-11.95L54 -19.95L55 -11.95L54 -11.95" fill="rgb(51,41,22)" fill-opacity="1"></path><path d="M44,-3.95Q43.8 -4 43.75 -4.1Q40.25 -10.3 43 -14.95L44 -3.95" fill="rgb(117,99,44)" fill-opacity="1"></path><path d="M60,-3.95L60 -2.95L57 -2.95L57 -7.95L57 -8.95L60 -3.95" fill="rgb(91,74,36)" fill-opacity="1"></path><path d="M54,-11.95L55 -11.95L55.1 -10.95Q56.2 -3.75 53 -0.95L53 -3.95L54 -11.95" fill="rgb(63,53,27)" fill-opacity="1"></path><path d="M65,-3.95L62 -2.95L60 -2.95L60 -3.95L65 -3.95" fill="rgb(126,122,61)" fill-opacity="1"></path><path d="M60,-2.95L62 -2.95L56 -0.95L57 -2.95L60 -2.95" fill="rgb(23,72,28)" fill-opacity="1"></path><path d="M71,-3.95L63 6.05L64 0.05L71 -3.95" fill="rgb(0,104,28)" fill-opacity="1"></path><path d="M86,-51.95L86 -52.95Q90.2 -60.15 90.95 -51.95L91 -50.95L86 -51.95" fill="rgb(94,73,37)" fill-opacity="1"></path><path d="M85,-33.95L84 -33.95L84 -36.95L84.55 -37.1Q86.35 -43.3 83 -44.95L85.15 -46.6L84 -48.95L86 -51.95L91 -50.95L88 -29.95L85 -33.95" fill="rgb(150,137,66)" fill-opacity="1"></path><path d="M83,-44.95L83 -41.95L82 -45.95L84 -48.95L85.15 -46.6L83 -44.95" fill="rgb(62,54,31)" fill-opacity="1"></path><path d="M84,-36.95L84 -33.95Q83 -28.95 87 -28.95L88 -28.95L83 -19.95L82 -28.95L80 -38.95Q82.7 -38.25 82.95 -39.95L83 -40.95L84 -36.95" fill="rgb(112,90,49)" fill-opacity="1"></path><path d="M83,-40.95L83 -41.95L83 -44.95Q86.35 -43.3 84.55 -37.1L84 -36.95L83 -40.95" fill="rgb(168,155,89)" fill-opacity="1"></path><path d="M85,-33.95L88 -29.95L87 -30.05Q84.45 -30.4 85 -33.95" fill="rgb(181,168,100)" fill-opacity="1"></path><path d="M87,-28.95Q83 -28.95 84 -33.95L85 -33.95Q84.45 -30.4 87 -30.05L88 -29.95L88 -28.95L87 -28.95" fill="rgb(143,124,74)" fill-opacity="1"></path><path d="M82,-28.95L83 -19.95L82.75 -19.2L82 -18.95L82 -28.95" fill="rgb(127,106,55)" fill-opacity="1"></path><path d="M61,8.05L55 15.05L54.8 14.95Q53.35 8.45 61 8.05" fill="rgb(0,102,31)" fill-opacity="1"></path><path d="M41.15,22.8L41.15 22.55Q44.65 17.35 48 21.05L44 23.05L41.15 22.8" fill="rgb(0,106,32)" fill-opacity="1"></path><path d="M53,17.05L50 20.05L48.9 18.5L48.9 18.1Q50.8 14.2 53 17.05" fill="rgb(1,108,29)" fill-opacity="1"></path><path d="M11,26.05Q22.25 27.2 11.05 26.55L11 26.05M29,26.05Q42.55 23.4 29 26.55L29 26.05" fill="rgb(0,108,37)" fill-opacity="1"></path><path d="M28,29.05L19 30.05L19 29.05L28 29.05" fill="rgb(2,127,10)" fill-opacity="1"></path><path d="M19,29.05Q20.15 23.5 27.85 28.8L28 29.05L19 29.05" fill="rgb(0,104,34)" fill-opacity="1"></path><path d="M-1,-52.95L-2 -60.95L-2 -61.95L-1 -61.95L-1 -52.95" fill="rgb(0,85,27)" fill-opacity="1"></path><path d="M-15,-46.95L-9 -53.95L-8.5 -53.95Q-10.9 -47.35 -15 -46.95" fill="rgb(0,98,25)" fill-opacity="1"></path><path d="M-25,-19.95Q-21.95 -18.3 -25 -15.4L-25 -16.95L-25 -19.95" fill="rgb(0,109,37)" fill-opacity="1"></path><path d="M-3.65,19.15L-5 21.05L-16 10.05L-3.65 19.15" fill="rgb(0,104,29)" fill-opacity="1"></path></g></g></g></g></svg>