<svg width="133" height="170" viewBox="-35 -133 133 170"><g><defs></defs></g><rect x="-35" y="-133" width="133" height="170" fill="#006600"></rect><g id="0"><defs></defs><g><g type="shape" id="0:1:138"><defs></defs><g transform="matrix(1,0,0,1,0,0)"><path d="M84.2,-128.9L83.25 -128.9L77.55 -128.9L77.55 -129.9L88.95 -129.4L88.95 -128.9L88 -128.9L84.2 -128.9" fill="rgb(11,11,11)" fill-opacity="1"></path><path d="M75.65,-128.9L76.6 -128.9L77.55 -128.9L83.25 -128.9L84.2 -128.9L84.2 -127.9L83.25 -127.9L81.35 -127.9L80.4 -127.9L75.65 -127.9L75.65 -128.9M32.85,-71.9L33.8 -71.9L33.85 -70.9Q34.45 -65.65 32.85 -62.9L32.85 -63.9L32.85 -71.9" fill="rgb(94,94,94)" fill-opacity="1"></path><path d="M7.15,-37.9L7.15 -38.9L10.75 -42.15L11 -42.9Q14.4 -44.3 16.4 -47.1L16.65 -47.9L17.4 -48.15L17.6 -48.9Q21.05 -50.3 23.1 -53.1L23.35 -53.9Q25.2 -53.95 25.95 -55.05L26.2 -55.9Q28.55 -57.9 30.7 -60.15L30.95 -60.9Q31.4 -60.9 31.7 -61.15L31.85 -61.9Q32.35 -61.9 32.6 -62.15L32.85 -62.9Q34.45 -65.65 33.85 -70.9L33.8 -71.9L33.8 -72.9L33.8 -80.9L33.85 -81.9Q34.45 -90.15 32.85 -95.9L32.8 -96.9Q32.55 -98.6 30.95 -98.9L30.7 -99.65L21.4 -108.9L21.2 -109.65L16.65 -113.9L16.4 -114.65L11.95 -118.9L11.8 -119.45Q5.85 -121.55 4.35 -127.9Q6.65 -129.45 11 -128.95L11.95 -128.9L11.95 -127.9Q12.65 -126.2 15.75 -126.8L16.65 -126.9L16.4 -126.15Q16.2 -125.9 15.75 -125.9Q15 -120.15 21.45 -121.8L22.4 -121.9Q40.7 -120.15 61.35 -121.4L61.4 -121.9L69.9 -121.9L70.85 -121.9L81.3 -122.4L81.35 -122.9Q81.3 -123.4 81.55 -123.65Q83.35 -125.55 81.35 -127.9L83.25 -127.9L84.2 -127.9Q87.7 -128.6 88.8 -126.75L88.95 -125.9L88.95 -124.9L88.2 -124.65Q85.45 -122.55 82.3 -120.9L82.3 -119.9L81.5 -119.65Q72.85 -112.3 63.25 -105.9L62.3 -105.9L62.3 -104.9L61.4 -104.9L61.4 -94.9L61.4 -93.9L61.4 -85.9L61.4 -84.9L61.4 -77.9L61.4 -76.9L61.4 -75.9L60.4 -75.9Q60.4 -69.9 60.9 -63.95L61.4 -63.9L62.4 -63.1L63.25 -62.9Q65.3 -62.05 66.45 -60.1Q66.6 -59.9 67.05 -59.9Q66.55 -56.35 68.85 -55.45L69 -54.9L68.75 -54.15Q68.45 -53.9 68.05 -53.9Q67.55 -53.9 67.4 -54.1Q62.75 -62.4 56.6 -59.9Q63.8 -45.45 76.75 -37.1L77.55 -36.9Q78.8 -44.8 72.05 -49.25L71.85 -49.9L71.85 -50.9L71.85 -51.9Q73.85 -51.05 75 -49.1Q75.15 -48.9 75.65 -48.9Q80.95 -45 85.35 -40.15Q85.6 -39.9 86.1 -39.9Q86.15 -36.45 87.75 -34.65L88 -33.9L87.05 -33.9L82.3 -33.9L82.3 -34.4Q72.3 -34.9 62.3 -34.9L61.4 -34.9L28.05 -34.9L28.05 -33.9L27.15 -33.9L5.25 -33.9L5.25 -34.9L5.25 -36.9L7 -37.3L7.15 -37.9" fill="rgb(116,116,116)" fill-opacity="1"></path><path d="M88.8,-126.75Q87.7 -128.6 84.2 -127.9L84.2 -128.9L88 -128.9L88.95 -128.9Q90.55 -128.6 89.5 -126.1Q89.4 -125.9 88.95 -125.9L88.8 -126.75" fill="rgb(71,71,71)" fill-opacity="1"></path><path d="M81.55,-123.65Q81.3 -123.4 81.35 -122.9L80.4 -122.9L70.85 -122.9L70.85 -121.9L69.9 -121.9L61.4 -121.9L60.4 -121.9L22.4 -121.9L21.45 -121.8Q15 -120.15 15.75 -125.9Q16.2 -125.9 16.4 -126.15L16.65 -126.9L35.65 -126.9L36.65 -126.9L48.95 -127.4L49 -127.9L49.95 -127.9L50.9 -127.9L58.5 -127.9L59.45 -127.9L74.65 -127.9L75.65 -127.9L80.4 -127.9L81.35 -127.9Q83.35 -125.55 81.55 -123.65" fill="rgb(145,145,145)" fill-opacity="1"></path><path d="M74.65,-128.9L59.45 -128.9L58.5 -128.9L50.9 -128.9L49.95 -128.9L37.6 -128.9L36.65 -128.9L22.4 -128.9L21.4 -128.9L11.95 -128.9L11 -128.95Q6.65 -129.45 4.35 -127.9Q5.85 -121.55 11.8 -119.45L11.95 -118.9Q12.6 -115.15 15.8 -114.05L16.65 -113.9Q17.4 -110.15 20.5 -109.05L21.4 -108.9L21.4 -107.9Q21.15 -106.2 18.6 -106.9Q18.1 -106.9 17.8 -107.15L5.25 -118.9L5.15 -119.45Q1.5 -120.35 -0.45 -118.9L-0.45 -117.9L-0.45 -116.9L-0.45 -114.9L-0.45 -113.9L-1.4 -113.9Q-1.4 -106.9 -0.9 -99.95L-0.45 -99.9Q12.2 -84.2 26.35 -70.15Q27.8 -68.7 28.15 -70.9L29.05 -74.9L29.5 -74.95Q30.7 -83.65 29.05 -89.9L29.05 -90.9L29.05 -97.9L29.05 -98.9L30 -98.9L30.95 -98.9Q32.55 -98.6 32.8 -96.9L32.85 -95.9L32.85 -82.9L32.85 -81.9L31.85 -81.9L31.85 -72.9L31.85 -71.9L31.85 -62.9L31.85 -61.9L31.7 -61.15Q31.4 -60.9 30.95 -60.9L30.15 -60.7L26.2 -57.9L26.2 -56.9L26.2 -55.9L25.95 -55.05Q25.2 -53.95 23.35 -53.9L22.55 -53.65L17.6 -49.9L17.6 -48.9L17.4 -48.15L16.65 -47.9L15.9 -47.65L11 -43.9L11 -42.9L10.75 -42.15L7.15 -38.9L7.15 -37.9L6.2 -37.85Q4.1 -37.6 3.35 -35.9Q2.8 -33.75 4.35 -33.85L5.25 -33.9Q15 -32.15 27.15 -32.85L28.05 -32.9L63.25 -32.9L64.25 -32.9Q76.1 -32.9 88 -33.4L88 -33.9L88.5 -33.95Q88.7 -38.1 86.1 -39.9Q85.6 -39.9 85.35 -40.15Q80.95 -45 75.65 -48.9L75.5 -49.85Q74.45 -53.1 70.85 -53.9L70.15 -54.15Q69.9 -54.4 69.9 -54.9L69.85 -55.9Q69.3 -58.7 67.05 -59.9Q66.6 -59.9 66.45 -60.1Q65.3 -62.05 63.25 -62.9L63.1 -63.85Q61.6 -69.15 62.3 -76.9L62.3 -77.9L62.3 -84.9Q64 -93.65 63.3 -104.9L63.25 -105.9Q72.85 -112.3 81.5 -119.65L82.3 -119.9Q83.8 -120 83.35 -117.85L83.25 -116.9L83 -116.25L67.05 -103.9L67.05 -102.9L66.1 -102.9L65.2 -102.9L65.2 -93.9L65.2 -92.9L65.2 -84.9L65.2 -83.9Q62.8 -72.85 69 -71.4L69 -71.9Q79.8 -83.55 91.1 -94.65L91.8 -94.9L92.75 -106.9L92.8 -107.9L93.2 -108Q94.4 -114.65 92.8 -118.9L92.8 -119.9L92.8 -122.9L92.8 -123.4Q89.7 -123.2 88.95 -124.9L88.95 -125.9Q89.4 -125.9 89.5 -126.1Q90.55 -128.6 88.95 -128.9L88.95 -129.4L77.55 -129.9L77.55 -128.9L76.6 -128.9L75.65 -128.9L74.65 -128.9M96.65,-103.9L96.6 -102.9L95.6 -102.9L95.6 -94.9L95.6 -93.9L95.4 -93.15L69 -65.9Q79.25 -51.2 92.4 -39.6Q97.05 -35.45 96.6 -25.9L96.6 -8.9L96.6 -7.9L96.6 -6.9L96.6 -1.9L96.6 -0.9L96.1 -0.9Q96.25 3.8 91.8 3.1L91.8 4.1Q67.55 4.1 43.3 4.8Q18.2 5.5 -2.35 2.1L-2.55 1.2Q-3.85 -1.8 -3.3 -6.9L-3.3 -7.9L-3.3 -28.9L-3.3 -29.9L-3.3 -33.9Q-0.95 -37.45 2.15 -40.2L2.4 -40.9Q4.9 -42.25 6 -45L6.2 -45.9Q16.4 -54.65 23.35 -66.4L22.4 -66.9L22.15 -67.65L17.6 -71.9L17.4 -72.65L12.85 -76.9L12.6 -77.65L8.15 -81.9L7.9 -82.65L-2.35 -92.9L-2.55 -93.8Q-4 -96.65 -3.3 -101.9L-3.3 -102.9L-3.3 -130.9L-3.3 -131.9Q-2.85 -132.4 -2.25 -132.7L-1.4 -132.9L92.8 -132.9L93.7 -132.9Q98.35 -121.8 96.65 -103.9M2.2,-1.8L2.4 -0.9Q9.3 0.85 18.6 0.15L19.55 0.1L29.95 -0.4L30 -0.9L47.1 -0.9L48.05 -0.9L57.6 -0.9L58.5 -0.9L67 -1.4L67.05 -1.9Q78.5 -1.9 89.9 -2.4L89.9 -2.9Q90.85 -3.4 91.55 -4.15L91.8 -4.9L92.3 -4.95Q93.45 -13.65 91.8 -19.9L91.8 -20.9L91.8 -25.9L91.55 -26.7Q88.7 -30.15 81.35 -28.9L80.4 -28.9L9.05 -28.9L9.05 -27.9L8.15 -27.9L3.35 -27.9L3.2 -28.45L0.55 -28.9Q0.55 -15.9 1 -2.9L1.45 -2.9L2.2 -1.8" fill="rgb(1,4,1)" fill-opacity="1"></path><path d="M-1.4,-133.9Q46.15 -133.9 93.7 -133.4L93.7 -132.9L92.8 -132.9L-1.4 -132.9L-1.4 -133.9" fill="rgb(0,91,0)" fill-opacity="1"></path><path d="M91.9,-122.7L83.25 -116.9L83.35 -117.85Q83.8 -120 82.3 -119.9L82.3 -120.9Q85.45 -122.55 88.2 -124.65L88.95 -124.9Q89.7 -123.2 92.8 -123.4L92.8 -122.9L91.9 -122.7" fill="rgb(16,16,16)" fill-opacity="1"></path><path d="M68.25,-72.15Q64.75 -75.5 66.1 -83.9L66.1 -84.9L66.1 -87.9Q67.8 -93.65 67.1 -101.9L67.05 -102.9L67.05 -103.9L83 -116.25L83.25 -116.9L91.9 -122.7L92.8 -122.9L92.8 -119.9L92.8 -118.9L92.8 -108.9L92.8 -107.9L92.75 -106.9L91.8 -94.9L91.1 -94.65Q79.8 -83.55 69 -71.9Q68.5 -71.9 68.25 -72.15" fill="rgb(93,93,93)" fill-opacity="1"></path><path d="M81.3,-122.4L70.85 -121.9L70.85 -122.9L80.4 -122.9L81.35 -122.9L81.3 -122.4" fill="rgb(130,130,130)" fill-opacity="1"></path><path d="M92.8,-108.9L92.8 -118.9Q94.4 -114.65 93.2 -108L92.8 -107.9L92.8 -108.9" fill="rgb(54,54,54)" fill-opacity="1"></path><path d="M95.6,-93.9L95.6 -94.9L95.6 -102.9L96.6 -102.9L96.65 -101.9Q97.25 -96.65 95.6 -93.9" fill="rgb(0,84,0)" fill-opacity="1"></path><path d="M65.2,-83.9L65.2 -84.9L65.2 -92.9L66.1 -92.9L66.1 -88.9L66.1 -87.9L66.1 -84.9L66.1 -83.9L65.2 -83.9M11.95,-128.9L21.4 -128.9L22.4 -128.9L22.4 -127.9L21.4 -127.9L11.95 -127.9L11.95 -128.9" fill="rgb(17,17,17)" fill-opacity="1"></path><path d="M36.65,-126.9L35.65 -126.9L16.65 -126.9L15.75 -126.8Q12.65 -126.2 11.95 -127.9L21.4 -127.9L22.4 -127.9L35.65 -127.9L36.65 -127.9L36.65 -126.9" fill="rgb(107,107,107)" fill-opacity="1"></path><path d="M17.6,-48.9L17.6 -49.9L22.55 -53.65L23.35 -53.9L23.1 -53.1Q21.05 -50.3 17.6 -48.9M37.6,-127.9L36.65 -127.9L35.65 -127.9L22.4 -127.9L22.4 -128.9L36.65 -128.9L37.6 -128.9L37.6 -127.9" fill="rgb(25,25,25)" fill-opacity="1"></path><path d="M49,-127.9L48.95 -127.4L36.65 -126.9L36.65 -127.9L37.6 -127.9L48.05 -127.9L49 -127.9" fill="rgb(133,133,133)" fill-opacity="1"></path><path d="M50.9,-127.9L49.95 -127.9L49 -127.9L48.05 -127.9L37.6 -127.9L37.6 -128.9L49.95 -128.9L50.9 -128.9L50.9 -127.9" fill="rgb(47,47,47)" fill-opacity="1"></path><path d="M16.65,-113.9L15.8 -114.05Q12.6 -115.15 11.95 -118.9L16.4 -114.65L16.65 -113.9" fill="rgb(28,28,28)" fill-opacity="1"></path><path d="M-0.45,-116.9L-0.45 -117.9L-0.45 -118.9Q1.5 -120.35 5.15 -119.45L5.25 -118.9L4.35 -118.95Q1.75 -119.1 0.55 -117.9L0.55 -116.9L-0.45 -116.9" fill="rgb(16,15,14)" fill-opacity="1"></path><path d="M28.05,-97.9L27.9 -97.15L27.15 -96.9Q27.95 -93.3 28.55 -88.95L29.05 -88.9L29.05 -75.9L29.05 -74.9L28.15 -70.9Q27.8 -68.7 26.35 -70.15Q12.2 -84.2 -0.45 -99.9L-0.45 -100.9L-0.45 -108.9Q1.2 -111.15 0.6 -115.9L0.55 -116.9L0.55 -117.9Q1.75 -119.1 4.35 -118.95L5.25 -118.9L17.8 -107.15Q18.1 -106.9 18.6 -106.9Q22.7 -102.25 27.9 -98.55L28.05 -97.9" fill="rgb(45,40,40)" fill-opacity="1"></path><path d="M-0.45,-109.9L-0.45 -113.9L-0.45 -114.9L-0.45 -116.9L0.55 -116.9L0.6 -115.9Q1.2 -111.15 -0.45 -108.9L-0.45 -109.9" fill="rgb(29,26,26)" fill-opacity="1"></path><path d="M-0.45,-108.9L-0.45 -100.9L-0.45 -99.9L-0.9 -99.95Q-1.4 -106.9 -1.4 -113.9L-0.45 -113.9L-0.45 -109.9L-0.45 -108.9" fill="rgb(8,7,7)" fill-opacity="1"></path><path d="M27.9,-98.55Q22.7 -102.25 18.6 -106.9Q21.15 -106.2 21.4 -107.9L21.4 -108.9L30.7 -99.65L30.95 -98.9L30 -98.9L29.05 -98.9L29.05 -97.9L28.05 -97.9L27.9 -98.55" fill="rgb(20,19,19)" fill-opacity="1"></path><path d="M69,-54.9L68.85 -55.45Q66.55 -56.35 67.05 -59.9Q69.3 -58.7 69.85 -55.9L69.9 -54.9L69 -54.9M21.4,-108.9L20.5 -109.05Q17.4 -110.15 16.65 -113.9L21.2 -109.65L21.4 -108.9" fill="rgb(30,30,30)" fill-opacity="1"></path><path d="M50.9,-128.9L58.5 -128.9L59.45 -128.9L59.45 -127.9L58.5 -127.9L50.9 -127.9L50.9 -128.9" fill="rgb(59,59,59)" fill-opacity="1"></path><path d="M59.45,-128.9L74.65 -128.9L75.65 -128.9L75.65 -127.9L74.65 -127.9L59.45 -127.9L59.45 -128.9M62.3,-94.9L62.3 -93.9L61.4 -93.9L61.4 -94.9L61.4 -104.9L62.3 -104.9L62.3 -94.9" fill="rgb(74,74,74)" fill-opacity="1"></path><path d="M22.4,-121.9L60.4 -121.9L61.4 -121.9L61.35 -121.4Q40.7 -120.15 22.4 -121.9" fill="rgb(125,125,125)" fill-opacity="1"></path><path d="M62.3,-85.9L62.3 -93.9L62.3 -94.9L62.3 -104.9L62.3 -105.9L63.25 -105.9L63.3 -104.9Q64 -93.65 62.3 -84.9L62.3 -85.9" fill="rgb(8,8,8)" fill-opacity="1"></path><path d="M65.2,-92.9L65.2 -93.9L65.2 -102.9L66.1 -102.9L66.1 -93.9L66.1 -92.9L65.2 -92.9" fill="rgb(7,7,7)" fill-opacity="1"></path><path d="M66.1,-88.9L66.1 -92.9L66.1 -93.9L66.1 -102.9L67.05 -102.9L67.1 -101.9Q67.8 -93.65 66.1 -87.9L66.1 -88.9" fill="rgb(75,75,75)" fill-opacity="1"></path><path d="M61.4,-85.9L61.4 -93.9L62.3 -93.9L62.3 -85.9L62.3 -84.9L61.4 -84.9L61.4 -85.9" fill="rgb(86,86,86)" fill-opacity="1"></path><path d="M66.1,-83.9Q64.75 -75.5 68.25 -72.15Q68.5 -71.9 69 -71.9L69 -71.4Q62.8 -72.85 65.2 -83.9L66.1 -83.9" fill="rgb(49,49,49)" fill-opacity="1"></path><path d="M61.4,-64.9L61.4 -75.9L61.4 -76.9L62.3 -76.9Q61.6 -69.15 63.1 -63.85L63.25 -62.9L62.4 -63.1L61.4 -63.9L61.4 -64.9" fill="rgb(19,19,19)" fill-opacity="1"></path><path d="M61.4,-76.9L61.4 -77.9L61.4 -84.9L62.3 -84.9L62.3 -77.9L62.3 -76.9L61.4 -76.9" fill="rgb(43,43,43)" fill-opacity="1"></path><path d="M61.4,-63.9L60.9 -63.95Q60.4 -69.9 60.4 -75.9L61.4 -75.9L61.4 -64.9L61.4 -63.9" fill="rgb(90,90,90)" fill-opacity="1"></path><path d="M69.9,-54.9Q69.9 -54.4 70.15 -54.15L70.85 -53.9L71.65 -52.8L71.85 -51.9L71.85 -50.9L71.85 -49.9Q71.35 -49.9 71.1 -50.15Q69.45 -51.9 68.05 -53.9Q68.45 -53.9 68.75 -54.15L69 -54.9L69.9 -54.9" fill="rgb(113,113,113)" fill-opacity="1"></path><path d="M75,-49.1Q73.85 -51.05 71.85 -51.9L71.65 -52.8L70.85 -53.9Q74.45 -53.1 75.5 -49.85L75.65 -48.9Q75.15 -48.9 75 -49.1" fill="rgb(20,20,20)" fill-opacity="1"></path><path d="M71.85,-49.9L72.05 -49.25Q78.8 -44.8 77.55 -36.9L76.75 -37.1Q63.8 -45.45 56.6 -59.9Q62.75 -62.4 67.4 -54.1Q67.55 -53.9 68.05 -53.9Q69.45 -51.9 71.1 -50.15Q71.35 -49.9 71.85 -49.9" fill="rgb(143,143,143)" fill-opacity="1"></path><path d="M29.05,-88.9L28.55 -88.95Q27.95 -93.3 27.15 -96.9L27.9 -97.15L28.05 -97.9L29.05 -97.9L29.05 -90.9L29.05 -89.9L29.05 -88.9" fill="rgb(18,16,16)" fill-opacity="1"></path><path d="M29.05,-75.9L29.05 -88.9L29.05 -89.9Q30.7 -83.65 29.5 -74.95L29.05 -74.9L29.05 -75.9" fill="rgb(6,5,5)" fill-opacity="1"></path><path d="M32.85,-81.9L32.85 -82.9L32.85 -95.9Q34.45 -90.15 33.85 -81.9L33.8 -80.9L32.85 -80.9L32.85 -81.9" fill="rgb(61,61,61)" fill-opacity="1"></path><path d="M32.85,-71.9L32.85 -72.9L32.85 -80.9L33.8 -80.9L33.8 -72.9L33.8 -71.9L32.85 -71.9" fill="rgb(83,83,83)" fill-opacity="1"></path><path d="M31.85,-71.9L31.85 -72.9L31.85 -81.9L32.85 -81.9L32.85 -80.9L32.85 -72.9L32.85 -71.9L31.85 -71.9" fill="rgb(5,5,5)" fill-opacity="1"></path><path d="M-4.25,-100.9Q-4.95 -95.65 -3 -93.15Q-2.85 -92.9 -2.35 -92.9L7.9 -82.65L8.15 -81.9Q8.8 -78.15 12 -77.05L12.85 -76.9Q13.6 -73.15 16.7 -72.05L17.6 -71.9Q18.35 -68.15 21.45 -67.05L22.4 -66.9L23.35 -66.4Q16.4 -54.65 6.2 -45.9L5.6 -45.7Q4.45 -43.75 2.4 -42.9L2.4 -41.9L2.4 -40.9L1.6 -40.7Q-1.95 -38.45 -4.25 -34.9L-4.25 -30.9L-4.25 -29.9Q-9.15 -33.75 -13.45 -38.25Q-17.7 -42.75 -22.35 -46.5Q-32.3 -54.4 -35.65 -68.9Q-19.8 -84.25 -4.95 -100.65Q-4.7 -100.9 -4.25 -100.9M-33.7,26.1L-33.7 25.1Q-18.85 10.75 -4.95 -4.65Q-4.7 -4.9 -4.25 -4.9Q-4.75 -0.35 -3 1.85L-2.35 2.1Q18.2 5.5 43.3 4.8Q67.55 4.1 91.8 4.1L93.7 4.1L94.65 4.1L94.4 4.85Q79.15 22.3 61.4 37.1L60.4 37.1Q14.05 37.85 -29.9 36.1L-30.05 35.55Q-35.15 34.1 -33.7 26.1" fill="rgb(0,107,36)" fill-opacity="1"></path><path d="M16.7,-72.05Q13.6 -73.15 12.85 -76.9L12 -77.05Q8.8 -78.15 8.15 -81.9L12.6 -77.65L12.85 -76.9L17.4 -72.65L17.6 -71.9L16.7 -72.05" fill="rgb(0,74,25)" fill-opacity="1"></path><path d="M32.85,-71.9L32.85 -63.9L32.85 -62.9L32.6 -62.15Q32.35 -61.9 31.85 -61.9L31.85 -62.9L31.85 -71.9L32.85 -71.9" fill="rgb(21,21,21)" fill-opacity="1"></path><path d="M21.45,-67.05Q18.35 -68.15 17.6 -71.9L22.15 -67.65L22.4 -66.9L21.45 -67.05" fill="rgb(0,75,25)" fill-opacity="1"></path><path d="M26.2,-55.9L26.2 -56.9L26.2 -57.9L30.15 -60.7L30.95 -60.9L30.7 -60.15Q28.55 -57.9 26.2 -55.9" fill="rgb(22,22,22)" fill-opacity="1"></path><path d="M62.3,-33.9L61.4 -33.9L28.05 -33.9L28.05 -34.9L61.4 -34.9L62.3 -34.9L62.3 -33.9" fill="rgb(100,100,100)" fill-opacity="1"></path><path d="M28.05,-33.9L28.05 -32.9L27.15 -32.85Q15 -32.15 5.25 -33.9L27.15 -33.9L28.05 -33.9" fill="rgb(38,38,38)" fill-opacity="1"></path><path d="M64.25,-32.9L63.25 -32.9L28.05 -32.9L28.05 -33.9L61.4 -33.9L62.3 -33.9L63.25 -33.9L64.25 -33.9L64.25 -32.9M16.4,-47.1Q14.4 -44.3 11 -42.9L11 -43.9L15.9 -47.65L16.65 -47.9L16.4 -47.1" fill="rgb(23,23,23)" fill-opacity="1"></path><path d="M2.4,-41.9L2.4 -42.9Q4.45 -43.75 5.6 -45.7L6.2 -45.9L6 -45Q4.9 -42.25 2.4 -40.9L2.4 -41.9" fill="rgb(0,74,23)" fill-opacity="1"></path><path d="M-4.25,-28.9L-4.25 -29.9L-4.25 -30.9L-4.25 -34.9Q-1.95 -38.45 1.6 -40.7L2.4 -40.9L2.15 -40.2Q-0.95 -37.45 -3.3 -33.9L-3.3 -29.9L-3.3 -28.9L-4.25 -28.9" fill="rgb(0,75,24)" fill-opacity="1"></path><path d="M7,-37.3L5.25 -36.9L5.25 -34.9L5.25 -33.9L4.35 -33.85Q2.8 -33.75 3.35 -35.9Q4.1 -37.6 6.2 -37.85L7.15 -37.9L7 -37.3" fill="rgb(27,27,27)" fill-opacity="1"></path><path d="M1.45,-3.9L1.45 -2.9L1 -2.9Q0.55 -15.9 0.55 -28.9L3.2 -28.45L3.35 -27.9L2.4 -27.9L1.45 -27.9L1.45 -26.9L1.45 -3.9M19.55,0.1L18.6 0.15Q9.3 0.85 2.4 -0.9L17.6 -0.9L18.6 -0.9L19.55 -0.9L19.55 0.1" fill="rgb(15,15,16)" fill-opacity="1"></path><path d="M8.15,-27.9L9.05 -27.9L80.4 -27.9L81.35 -27.9L81.35 -27.4Q41.4 -26.9 1.45 -26.9L1.45 -27.9L2.4 -27.9L3.35 -27.9L8.15 -27.9" fill="rgb(57,57,60)" fill-opacity="1"></path><path d="M81.35,-27.9L80.4 -27.9L9.05 -27.9L9.05 -28.9L80.4 -28.9L81.35 -28.9L81.35 -27.9" fill="rgb(14,14,15)" fill-opacity="1"></path><path d="M91.8,-4.9L91.55 -4.15Q90.85 -3.4 89.9 -2.9L88.95 -2.9L66.1 -2.9L65.2 -2.9L53.8 -2.9L53.8 -1.9L52.8 -1.9L48.05 -1.9L47.1 -1.9L29.05 -1.9L28.05 -1.9L18.6 -1.9L18.6 -0.9L17.6 -0.9L2.4 -0.9L2.2 -1.8L1.45 -2.9L1.45 -3.9L1.45 -26.9Q41.4 -26.9 81.35 -27.4L81.35 -27.9Q88.15 -29.1 91.1 -26.15Q91.35 -25.9 91.8 -25.9L91.8 -20.9L91.8 -19.9L91.8 -5.9L91.8 -4.9" fill="rgb(64,64,67)" fill-opacity="1"></path><path d="M29.05,-0.9L28.05 -0.9L19.55 -0.9L18.6 -0.9L18.6 -1.9L28.05 -1.9L29.05 -1.9L29.05 -0.9" fill="rgb(45,45,47)" fill-opacity="1"></path><path d="M48.05,-0.9L47.1 -0.9L30 -0.9L29.05 -0.9L29.05 -1.9L47.1 -1.9L48.05 -1.9L48.05 -0.9" fill="rgb(22,22,23)" fill-opacity="1"></path><path d="M19.55,-0.9L28.05 -0.9L29.05 -0.9L30 -0.9L29.95 -0.4L19.55 0.1L19.55 -0.9" fill="rgb(6,6,7)" fill-opacity="1"></path><path d="M82.3,-33.9L87.05 -33.9L88 -33.9L88 -33.4Q76.1 -32.9 64.25 -32.9L64.25 -33.9L81.35 -33.9L82.3 -33.9" fill="rgb(16,17,16)" fill-opacity="1"></path><path d="M81.35,-33.9L64.25 -33.9L63.25 -33.9L62.3 -33.9L62.3 -34.9Q72.3 -34.9 82.3 -34.4L82.3 -33.9L81.35 -33.9" fill="rgb(79,79,79)" fill-opacity="1"></path><path d="M66.1,-1.9L65.2 -1.9L58.5 -1.9L57.6 -1.9L53.8 -1.9L53.8 -2.9L65.2 -2.9L66.1 -2.9L66.1 -1.9" fill="rgb(46,46,48)" fill-opacity="1"></path><path d="M57.6,-1.9L58.5 -1.9L58.5 -0.9L57.6 -0.9L48.05 -0.9L48.05 -1.9L52.8 -1.9L53.8 -1.9L57.6 -1.9" fill="rgb(12,12,13)" fill-opacity="1"></path><path d="M67.05,-1.9L67 -1.4L58.5 -0.9L58.5 -1.9L65.2 -1.9L66.1 -1.9L67.05 -1.9" fill="rgb(6,6,6)" fill-opacity="1"></path><path d="M66.1,-1.9L66.1 -2.9L88.95 -2.9L89.9 -2.9L89.9 -2.4Q78.5 -1.9 67.05 -1.9L66.1 -1.9" fill="rgb(20,20,21)" fill-opacity="1"></path><path d="M91.1,-26.15Q88.15 -29.1 81.35 -27.9L81.35 -28.9Q88.7 -30.15 91.55 -26.7L91.8 -25.9Q91.35 -25.9 91.1 -26.15" fill="rgb(24,27,25)" fill-opacity="1"></path><path d="M86.1,-39.9Q88.7 -38.1 88.5 -33.95L88 -33.9L87.75 -34.65Q86.15 -36.45 86.1 -39.9" fill="rgb(40,40,40)" fill-opacity="1"></path><path d="M91.8,-5.9L91.8 -19.9Q93.45 -13.65 92.3 -4.95L91.8 -4.9L91.8 -5.9" fill="rgb(44,44,46)" fill-opacity="1"></path><path d="M96.6,-7.9L96.6 -8.9L96.6 -25.9Q98.2 -18.15 97 -7.95L96.6 -7.9" fill="rgb(0,122,0)" fill-opacity="1"></path><path d="M97.1,1.9L96.6 2.1L96.6 1.1L96.6 -0.9L96.6 -1.9L96.6 -6.9Q99.35 -3.35 97.1 1.9" fill="rgb(0,113,23)" fill-opacity="1"></path><path d="M96.35,2.85L94.65 4.1L93.7 4.1L91.8 4.1L91.8 3.1Q96.25 3.8 96.1 -0.9L96.6 -0.9L96.6 1.1L96.6 2.1L96.35 2.85" fill="rgb(0,76,24)" fill-opacity="1"></path><path d="M-4.25,-101.9L-4.25 -102.9L-4.25 -130.9L-3.3 -130.9L-3.3 -102.9L-3.3 -101.9L-4.25 -101.9" fill="rgb(0,90,0)" fill-opacity="1"></path><path d="M-3,-93.15Q-4.95 -95.65 -4.25 -100.9L-4.25 -101.9L-3.3 -101.9Q-4 -96.65 -2.55 -93.8L-2.35 -92.9Q-2.85 -92.9 -3 -93.15" fill="rgb(0,54,17)" fill-opacity="1"></path><path d="M-4.25,-6.9L-4.25 -7.9L-4.25 -28.9L-3.3 -28.9L-3.3 -7.9L-3.3 -6.9L-4.25 -6.9" fill="rgb(0,61,0)" fill-opacity="1"></path><path d="M-3,1.85Q-4.75 -0.35 -4.25 -4.9L-4.25 -5.9L-4.25 -6.9L-3.3 -6.9Q-3.85 -1.8 -2.55 1.2L-2.35 2.1L-3 1.85" fill="rgb(0,69,21)" fill-opacity="1"></path><path d="M-30.05,35.55L-29.9 36.1L-30.85 36Q-36.4 34.9 -35.65 27.1L-34.55 26.3L-33.7 26.1Q-35.15 34.1 -30.05 35.55" fill="rgb(0,121,25)" fill-opacity="1"></path></g></g></g></g></svg>