<svg width="135" height="166" viewBox="-35 -131 135 166"><g><defs></defs></g><rect x="-35" y="-131" width="135" height="166" fill="#006600"></rect><g id="0"><defs></defs><g><g type="shape" id="0:1:136"><defs></defs><g transform="matrix(1,0,0,1,0,0)"><path d="M-3.35,-98.4L-3.35 -97.4L-4.35 -97.4L-4.35 -98.4L-4.35 -129.4L-3.35 -129.4L-3.35 -98.4" fill="rgb(3,92,0)" fill-opacity="1"></path><path d="M-2.45,1.6Q-4.1 -16.65 -3.35 -37.4L-3.35 -38.4L-3.35 -81.4L-3.35 -82.4L-3.35 -97.4L-3.35 -98.4L-3.35 -129.4L-2.4 -129.4Q-0.9 -124.45 2.65 -121.65Q2.95 -121.4 3.45 -121.4L3.45 -120.4L2.5 -120.4L1.5 -120.4L1.5 -82.4L1.5 -81.4L1.5 -55.4L1.5 -54.4Q0.75 -46.65 2.35 -41.35L2.5 -40.4L2.35 -39.45Q0.8 -34.6 -1.4 -30.4Q1.9 -28 4.65 -31.15L5.4 -31.4L5.5 -30.45Q6 -28.25 4.45 -28.4Q4.4 -19.4 4.9 -10.45L5.4 -10.4Q5.4 -9.9 5.65 -9.65Q5.9 -9.4 6.4 -9.4L6.25 -8.85Q0.3 -6.65 -2.4 -1.4Q-2.3 1.5 -0.35 2.4L0.55 2.6L0.35 3.2Q-2.1 4.3 -2.4 2.6L-2.45 1.6" fill="rgb(7,6,0)" fill-opacity="1"></path><path d="M98.55,-34.4L99 -34.4L99 -33.4L99 -32.4L99 -1.4L99 -0.4L98.85 0.55Q98.15 2.75 96.1 3.6L95.2 3.4Q88.15 -0.75 83.4 -7.4L83.15 -8.15L78.55 -12.4Q78.05 -12.4 77.85 -12.65Q71.35 -20.05 63.9 -26.4L63.65 -27.15L62.95 -27.4L62.95 -27.9Q47.8 -28.4 32.7 -28.4L32.7 -27.4L31.75 -27.4L30.75 -27.4L30.75 -26.4Q30.25 -26.4 30.05 -26.15Q16.35 -10.65 0.55 2.6L-0.35 2.4Q-2.3 1.5 -2.4 -1.4Q0.3 -6.65 6.25 -8.85L6.4 -9.4L6.4 -10.4Q7.35 -10.9 8.1 -11.65L8.35 -12.4Q20 -22.4 29.55 -34.6L29.8 -35.4Q31.5 -39.65 30.8 -46.4L30.75 -47.4L31.3 -47.5Q32.45 -52.65 30.75 -55.4L30.8 -56.4Q30.9 -58 28.8 -57.4L28.8 -56.4Q28.3 -56.4 28.1 -56.15Q16.6 -44.9 6.4 -32.4L6.4 -31.4L5.4 -31.4L4.65 -31.15Q1.9 -28 -1.4 -30.4Q0.8 -34.6 2.35 -39.45L2.5 -40.4L5.25 -40.85L5.4 -41.4L17.85 -53.65L18.1 -54.4L23.7 -59.65L23.95 -60.4Q27.5 -62.75 30.05 -66.15Q30.25 -66.4 30.75 -66.4Q43.45 -66.4 56.1 -66.9L56.1 -67.4Q70.75 -66.4 76.9 -56.25Q79.7 -51.6 83.3 -47.45Q87.75 -42.35 92.2 -42.4Q93.9 -44.65 93.2 -49.4L93.15 -50.4L93.15 -51.4Q94.85 -60.15 94.2 -71.4L94.15 -72.4L94.15 -73.4L94.15 -86.4L94.15 -87.4L94.15 -88.4L94.65 -88.5Q95.85 -95.15 94.15 -99.4L94.15 -100.4L94.2 -101.4Q94.85 -110.65 93.15 -117.4L92.95 -118Q88.5 -120.1 85.35 -115.4L85.35 -114.4L84.65 -114.15Q74.75 -103.25 63.9 -93.4L62.95 -93.4L45.4 -93.4L44.4 -93.4L32.7 -93.4L31.75 -93.4L31.55 -94Q28.7 -95.3 26.85 -97.4Q26.35 -97.4 26.1 -97.65Q18.2 -106.55 9.3 -114.4L9.05 -115.2L3.45 -121.4Q2.95 -121.4 2.65 -121.65Q-0.9 -124.45 -2.4 -129.4L-2.4 -130.4L-2.4 -131.4Q6.85 -131.25 12.75 -122.5Q15.75 -118.05 19.7 -114.05Q26.5 -107.05 32.7 -99.4Q46.1 -97.65 61.9 -98.9L61.95 -99.4Q77.25 -116.2 94.8 -130.85Q96.85 -132.65 98.05 -129.4Q98.05 -81.9 98.55 -34.4M61.95,-60.9Q47.8 -61.4 33.7 -61.4L33.7 -60.4L33.7 -49.4L33.7 -48.4L32.7 -48.4Q32.7 -41.9 33.2 -35.45L33.7 -35.4L34.4 -35.15L34.65 -34.4Q45.15 -32.65 58 -33.9L58.05 -34.4Q62.15 -33.7 61.95 -37.4L61.95 -38.4Q63.65 -42.15 63 -48.4L62.95 -49.4L63 -50.4Q63.65 -56.65 61.95 -60.4L61.95 -60.9M64.9,-33.4L64.9 -32.4Q76.25 -20.05 89.45 -9.65L90.25 -9.4L90.75 -9.5Q91.95 -16.15 90.25 -20.4L90.3 -21.4Q90.7 -28.4 89.25 -33.4Q88.75 -33.4 88.55 -33.65L65.85 -57.4L65.65 -58L63.9 -58.4Q63.9 -53.4 64.4 -48.45L64.9 -48.4L64.9 -33.4" fill="rgb(5,6,2)" fill-opacity="1"></path><path d="M3.45,-108.4L3.45 -109.4L3.45 -110.4L3.45 -120.4L3.45 -121.4L9.05 -115.2L9.3 -114.4L9.3 -113.4L8.35 -113.4L5.4 -113.4L5.4 -112.4L4.45 -112.4L4.45 -109.4L4.45 -108.4L3.45 -108.4" fill="rgb(113,113,113)" fill-opacity="1"></path><path d="M86.35,-111.4L87.3 -111.4Q86.55 -79.15 90.2 -49.65L92.2 -49.4L92.2 -48.4L92.2 -47.4Q88.9 -47.05 88.75 -48.55Q85.6 -78.65 86.35 -111.4M4.45,-108.4L4.45 -109.4L4.45 -112.4L5.4 -112.4Q5.5 -105.5 10.1 -103L10.3 -102.4L9.4 -102.6Q5.85 -104.35 4.45 -108.4M34.65,-87.4Q40.6 -86 48.3 -85.9L48.3 -85.4L47.35 -85.4L46.35 -85.35Q39.5 -84.9 34.65 -86.4L34.65 -87.4" fill="rgb(125,125,125)" fill-opacity="1"></path><path d="M30.75,-93.4L31.75 -93.4L32.7 -93.4Q37.35 -91.65 44.4 -92.35L45.4 -92.4Q49.5 -90.65 56.1 -91.35L57.1 -91.4Q66.45 -91.5 65 -85.35L64.9 -84.4L63.9 -84.45L56.1 -85.4L55.15 -85.4L48.3 -85.4L48.3 -85.9Q40.6 -86 34.65 -87.4L33.7 -87.4Q23.5 -86.95 18.1 -91.4L17.9 -92.3Q16.75 -95.05 14.2 -96.4L14 -97.3Q12.85 -100.05 10.3 -101.4L10.3 -102.4L10.1 -103Q5.5 -105.5 5.4 -112.4L5.4 -113.4L8.35 -113.4L9.3 -113.4Q16.25 -101.05 28 -93.6L28.8 -93.4L30.75 -93.4M93.15,-101.4L93.15 -100.4L93.15 -87.4L93.15 -86.4L93.15 -73.4L93.15 -72.4L92.2 -72.4L92.2 -59.4L92.2 -58.4L92.2 -51.4L92.2 -50.4L92.2 -49.4L90.2 -49.65Q86.55 -79.15 87.3 -111.4L87.3 -112.4L87.3 -114.4Q89.75 -116.35 92.35 -114.65Q92.65 -114.4 93.15 -114.4L93.15 -101.4" fill="rgb(144,144,144)" fill-opacity="1"></path><path d="M28.65,-93.95L28.8 -93.4L28 -93.6Q16.25 -101.05 9.3 -113.4L9.3 -114.4Q18.2 -106.55 26.1 -97.65Q26.35 -97.4 26.85 -97.4Q26.65 -94.7 28.65 -93.95M86.35,-111.4L86.45 -112.35Q86.95 -114.5 85.35 -114.4L85.35 -115.4Q88.5 -120.1 92.95 -118L93.15 -117.4L93.15 -115.4L93.15 -114.4Q92.65 -114.4 92.35 -114.65Q89.75 -116.35 87.3 -114.4L87.3 -112.4L87.3 -111.4L86.35 -111.4" fill="rgb(114,114,114)" fill-opacity="1"></path><path d="M3.45,-110.4L3.45 -109.4L2.5 -109.4L2.5 -110.4L2.5 -120.4L3.45 -120.4L3.45 -110.4" fill="rgb(87,86,84)" fill-opacity="1"></path><path d="M1.5,-81.4L1.5 -82.4L1.5 -120.4L2.5 -120.4L2.5 -110.4L2.5 -109.4L2.5 -97.4L2.5 -96.4L2.5 -82.4L2.5 -81.4L1.5 -81.4" fill="rgb(14,11,7)" fill-opacity="1"></path><path d="M88.75,-48.55Q88.9 -47.05 92.2 -47.4L92.2 -43.4L92.2 -42.4Q87.75 -42.35 83.3 -47.45Q79.7 -51.6 76.9 -56.25Q70.75 -66.4 56.1 -67.4L55.15 -67.4L30.75 -67.4L30.75 -66.4Q30.25 -66.4 30.05 -66.15Q27.5 -62.75 23.95 -60.4L23.1 -60.15L18.1 -56.4L18.1 -55.4L18.1 -54.4L17.85 -53.65L5.4 -41.4Q4.9 -41.4 4.65 -41.65Q1.2 -45.6 2.5 -54.4L2.5 -55.4L2.5 -70.4Q4.2 -81.65 3.5 -95.4L3.45 -96.4L3.45 -97.4L3.45 -108.4L4.45 -108.4Q5.85 -104.35 9.4 -102.6L10.3 -102.4L10.3 -101.4Q11.15 -98.3 13.4 -96.65Q13.7 -96.4 14.2 -96.4Q15.05 -93.3 17.3 -91.65Q17.6 -91.4 18.1 -91.4Q21.95 -84.85 33.7 -86.35L34.65 -86.4Q39.5 -84.9 46.35 -85.35L47.35 -85.4Q50 -83.65 55.15 -84.35L56.1 -84.4Q59.6 -83.5 63.9 -83.4L64.9 -83.4Q65.35 -83.4 65.5 -83.65Q71.15 -92.8 57.1 -91.4L56.1 -91.35Q49.5 -90.65 45.4 -92.4Q54.65 -92.4 63.85 -92.9L63.9 -93.4Q74.75 -103.25 84.65 -114.15L85.35 -114.4Q86.95 -114.5 86.45 -112.35L86.35 -111.4Q85.6 -78.65 88.75 -48.55" fill="rgb(115,115,115)" fill-opacity="1"></path><path d="M2.5,-97.4L2.5 -109.4L3.45 -109.4L3.45 -108.4L3.45 -97.4L3.45 -96.4L2.5 -96.4L2.5 -97.4" fill="rgb(96,96,94)" fill-opacity="1"></path><path d="M-33.55,-65.4Q-32.9 -60.65 -34.6 -58.4L-34.6 -59.4L-34.6 -66.4L-33.6 -66.4L-33.55 -65.4" fill="rgb(0,125,22)" fill-opacity="1"></path><path d="M-33.55,29.6Q-32.9 23.35 -34.6 19.6L-34.6 18.6L-34.6 -29.4L-34.6 -30.4L-34.6 -38.4L-34.6 -39.4L-34.6 -42.4L-34.6 -43.4L-34.6 -54.4L-34.6 -55.4L-34.6 -58.4Q-32.9 -60.65 -33.55 -65.4L-33.6 -66.4L-33.6 -67.4L-33.6 -68.4Q-18.9 -82.3 -5.1 -97.15L-4.35 -97.4L-4.35 -82.4L-4.35 -81.4L-4.35 -38.4L-4.35 -37.4Q-5.1 -16.15 -2.9 2.55L-2.4 2.6Q-2.1 4.3 0.35 3.2L0.55 2.6Q16.35 -10.65 30.05 -26.15Q30.25 -26.4 30.75 -26.4L62.95 -26.4L63.9 -26.4Q71.35 -20.05 77.85 -12.65Q78.05 -12.4 78.55 -12.4Q79.25 -8.65 82.5 -7.55L83.4 -7.4Q88.15 -0.75 95.2 3.4L96.1 3.6L95.85 4.3Q78.35 18.9 62.95 35.6L62.2 35.35Q46.95 19 30.75 3.6L29.8 3.6L3.45 3.6L-7.5 15.35Q-13.15 21.1 -17.7 27.55Q-25.6 38.5 -33.6 30.6L-33.55 29.6" fill="rgb(0,107,36)" fill-opacity="1"></path><path d="M-34.6,-42.4L-35.05 -42.45Q-35.55 -48.4 -35.55 -54.4L-34.6 -54.4L-34.6 -43.4L-34.6 -42.4" fill="rgb(0,135,14)" fill-opacity="1"></path><path d="M28.8,-93.4L28.65 -93.95Q26.65 -94.7 26.85 -97.4Q28.7 -95.3 31.55 -94L31.75 -93.4L30.75 -93.4L28.8 -93.4" fill="rgb(73,73,73)" fill-opacity="1"></path><path d="M13.4,-96.65Q11.15 -98.3 10.3 -101.4Q12.85 -100.05 14 -97.3L14.2 -96.4Q16.75 -95.05 17.9 -92.3L18.1 -91.4Q23.5 -86.95 33.7 -87.4L34.65 -87.4L34.65 -86.4L33.7 -86.35Q21.95 -84.85 18.1 -91.4Q17.6 -91.4 17.3 -91.65Q15.05 -93.3 14.2 -96.4Q13.7 -96.4 13.4 -96.65" fill="rgb(123,123,123)" fill-opacity="1"></path><path d="M2.5,-71.4L2.5 -81.4L2.5 -82.4L2.5 -96.4L3.45 -96.4L3.5 -95.4Q4.2 -81.65 2.5 -70.4L2.5 -71.4" fill="rgb(104,104,103)" fill-opacity="1"></path><path d="M-4.35,-81.4L-4.35 -82.4L-4.35 -97.4L-3.35 -97.4L-3.35 -82.4L-3.35 -81.4L-4.35 -81.4" fill="rgb(3,54,17)" fill-opacity="1"></path><path d="M1.5,-54.4L1.5 -55.4L1.5 -81.4L2.5 -81.4L2.5 -71.4L2.5 -70.4L2.5 -55.4L2.5 -54.4L1.5 -54.4" fill="rgb(31,28,25)" fill-opacity="1"></path><path d="M-4.35,-37.4L-4.35 -38.4L-4.35 -81.4L-3.35 -81.4L-3.35 -38.4L-3.35 -37.4L-4.35 -37.4" fill="rgb(3,66,21)" fill-opacity="1"></path><path d="M2.35,-41.35Q0.75 -46.65 1.5 -54.4L2.5 -54.4Q1.2 -45.6 4.65 -41.65Q4.9 -41.4 5.4 -41.4L5.25 -40.85L2.5 -40.4L2.35 -41.35" fill="rgb(50,48,45)" fill-opacity="1"></path><path d="M30.75,-67.4L55.15 -67.4L56.1 -67.4L56.1 -66.9Q43.45 -66.4 30.75 -66.4L30.75 -67.4" fill="rgb(30,36,30)" fill-opacity="1"></path><path d="M18.1,-55.4L18.1 -56.4L23.1 -60.15L23.95 -60.4L23.7 -59.65L18.1 -54.4L18.1 -55.4" fill="rgb(78,78,78)" fill-opacity="1"></path><path d="M29.85,-48.4Q30.5 -53.65 28.8 -56.4L28.8 -57.4Q30.9 -58 30.8 -56.4L30.75 -55.4L30.75 -48.4L30.75 -47.4L29.8 -47.4L29.85 -48.4" fill="rgb(68,68,67)" fill-opacity="1"></path><path d="M7.8,-12.55Q5.65 -18.65 6.4 -27.4L6.4 -28.4L6.4 -31.4L6.4 -32.4Q16.6 -44.9 28.1 -56.15Q28.3 -56.4 28.8 -56.4Q30.5 -53.65 29.85 -48.4L29.8 -47.4L29.8 -36.4L29.8 -35.4L29.55 -34.6Q20 -22.4 8.35 -12.4Q7.85 -12.4 7.8 -12.55" fill="rgb(92,92,92)" fill-opacity="1"></path><path d="M30.75,-48.4L30.75 -55.4Q32.45 -52.65 31.3 -47.5L30.75 -47.4L30.75 -48.4" fill="rgb(16,14,11)" fill-opacity="1"></path><path d="M93.15,-100.4L93.15 -101.4L93.15 -114.4L93.15 -115.4L93.15 -117.4Q94.85 -110.65 94.2 -101.4L94.15 -100.4L93.15 -100.4" fill="rgb(68,67,65)" fill-opacity="1"></path><path d="M93.15,-86.4L93.15 -87.4L93.15 -100.4L94.15 -100.4L94.15 -99.4L94.15 -89.4L94.15 -88.4L94.15 -87.4L94.15 -86.4L93.15 -86.4" fill="rgb(89,88,87)" fill-opacity="1"></path><path d="M61,-99.4L61.95 -99.4L61.9 -98.9Q46.1 -97.65 32.7 -99.4L61 -99.4" fill="rgb(0,47,0)" fill-opacity="1"></path><path d="M45.4,-93.4L62.95 -93.4L63.9 -93.4L63.85 -92.9Q54.65 -92.4 45.4 -92.4L45.4 -93.4" fill="rgb(83,83,83)" fill-opacity="1"></path><path d="M55.15,-84.35Q50 -83.65 47.35 -85.4L48.3 -85.4L55.15 -85.4L56.1 -85.4L56.1 -84.4L55.15 -84.35" fill="rgb(121,121,121)" fill-opacity="1"></path><path d="M65.5,-83.65Q65.35 -83.4 64.9 -83.4L64.9 -84.4L65 -85.35Q66.45 -91.5 57.1 -91.4Q71.15 -92.8 65.5 -83.65" fill="rgb(122,122,122)" fill-opacity="1"></path><path d="M56.1,-85.4L63.9 -84.45L64.9 -84.4L64.9 -83.4L63.9 -83.4Q59.6 -83.5 56.1 -84.4L56.1 -85.4" fill="rgb(124,124,124)" fill-opacity="1"></path><path d="M45.4,-92.4L44.4 -92.35Q37.35 -91.65 32.7 -93.4L44.4 -93.4L45.4 -93.4L45.4 -92.4" fill="rgb(104,104,104)" fill-opacity="1"></path><path d="M34.65,-60.4L34.7 -59.4Q35.4 -52.65 33.7 -48.4L33.7 -49.4L33.7 -60.4L34.65 -60.4" fill="rgb(48,50,51)" fill-opacity="1"></path><path d="M57.1,-34.4L34.65 -34.4L34.4 -35.15L33.7 -35.4L33.7 -36.4L33.7 -48.4Q35.4 -52.65 34.7 -59.4L34.65 -60.4L61 -60.4L61.95 -60.4L61.95 -50.4L61.95 -49.4L61.95 -39.4L61.95 -38.4L61.95 -37.4Q62.15 -33.7 58.05 -34.4L57.1 -34.4" fill="rgb(64,64,67)" fill-opacity="1"></path><path d="M33.7,-60.4L33.7 -61.4Q47.8 -61.4 61.95 -60.9L61.95 -60.4L61 -60.4L34.65 -60.4L33.7 -60.4" fill="rgb(44,44,46)" fill-opacity="1"></path><path d="M33.7,-35.4L33.2 -35.45Q32.7 -41.9 32.7 -48.4L33.7 -48.4L33.7 -36.4L33.7 -35.4" fill="rgb(17,16,16)" fill-opacity="1"></path><path d="M64.9,-57.4L64.9 -49.4L64.9 -48.4L64.4 -48.45Q63.9 -53.4 63.9 -58.4L65.65 -58L65.85 -57.4L64.9 -57.4" fill="rgb(23,19,17)" fill-opacity="1"></path><path d="M90.25,-10.4L90.25 -9.4L89.45 -9.65Q76.25 -20.05 64.9 -32.4L64.9 -33.4L64.9 -48.4L64.9 -49.4L64.9 -57.4L65.85 -57.4L88.55 -33.65Q88.75 -33.4 89.25 -33.4Q90.7 -28.4 90.3 -21.4L90.25 -20.4L90.25 -10.4" fill="rgb(45,40,40)" fill-opacity="1"></path><path d="M61.95,-49.4L62.95 -49.4L63 -48.4Q63.65 -42.15 61.95 -38.4L61.95 -39.4L61.95 -49.4" fill="rgb(16,14,12)" fill-opacity="1"></path><path d="M61.95,-49.4L61.95 -50.4L61.95 -60.4Q63.65 -56.65 63 -50.4L62.95 -49.4L61.95 -49.4" fill="rgb(28,26,25)" fill-opacity="1"></path><path d="M93.15,-72.4L93.15 -73.4L93.15 -86.4L94.15 -86.4L94.15 -73.4L94.15 -72.4L93.15 -72.4" fill="rgb(47,45,42)" fill-opacity="1"></path><path d="M94.15,-89.4L94.15 -99.4Q95.85 -95.15 94.65 -88.5L94.15 -88.4L94.15 -89.4" fill="rgb(19,16,12)" fill-opacity="1"></path><path d="M92.2,-58.4L92.2 -59.4L92.2 -72.4L93.15 -72.4L93.15 -59.4L93.15 -58.4L92.2 -58.4" fill="rgb(129,129,129)" fill-opacity="1"></path><path d="M93.15,-52.4L93.15 -58.4L93.15 -59.4L93.15 -72.4L94.15 -72.4L94.2 -71.4Q94.85 -60.15 93.15 -51.4L93.15 -52.4" fill="rgb(24,22,17)" fill-opacity="1"></path><path d="M92.2,-50.4L92.2 -51.4L92.2 -58.4L93.15 -58.4L93.15 -52.4L93.15 -51.4L93.15 -50.4L92.2 -50.4" fill="rgb(111,110,109)" fill-opacity="1"></path><path d="M92.2,-48.4L92.2 -49.4L92.2 -50.4L93.15 -50.4L93.2 -49.4Q93.9 -44.65 92.2 -42.4L92.2 -43.4L92.2 -47.4L92.2 -48.4" fill="rgb(70,69,67)" fill-opacity="1"></path><path d="M99,-34.4L98.55 -34.4Q98.05 -81.9 98.05 -129.4Q99.75 -83.65 99 -35.4L99 -34.4" fill="rgb(5,38,0)" fill-opacity="1"></path><path d="M90.25,-20.4Q91.95 -16.15 90.75 -9.5L90.25 -9.4L90.25 -10.4L90.25 -20.4" fill="rgb(20,17,13)" fill-opacity="1"></path><path d="M82.5,-7.55Q79.25 -8.65 78.55 -12.4L83.15 -8.15L83.4 -7.4L82.5 -7.55" fill="rgb(0,65,23)" fill-opacity="1"></path><path d="M99,-0.4L99 -1.4L99 -32.4Q100.7 -17.65 99.5 -0.45L99 -0.4" fill="rgb(1,122,0)" fill-opacity="1"></path><path d="M58.05,-34.4L58 -33.9Q45.15 -32.65 34.65 -34.4L57.1 -34.4L58.05 -34.4" fill="rgb(23,21,19)" fill-opacity="1"></path><path d="M61.95,-27.4L32.7 -27.4L32.7 -28.4Q47.8 -28.4 62.95 -27.9L62.95 -27.4L61.95 -27.4" fill="rgb(6,28,8)" fill-opacity="1"></path><path d="M62.95,-27.4L63.65 -27.15L63.9 -26.4L62.95 -26.4L30.75 -26.4L30.75 -27.4L31.75 -27.4L32.7 -27.4L61.95 -27.4L62.95 -27.4" fill="rgb(0,94,32)" fill-opacity="1"></path><path d="M29.8,-36.4L29.8 -47.4L30.75 -47.4L30.8 -46.4Q31.5 -39.65 29.8 -35.4L29.8 -36.4" fill="rgb(55,54,53)" fill-opacity="1"></path><path d="M-3.35,-37.4Q-4.1 -16.65 -2.45 1.6L-2.4 2.6L-2.9 2.55Q-5.1 -16.15 -4.35 -37.4L-3.35 -37.4" fill="rgb(2,69,23)" fill-opacity="1"></path><path d="M6.4,-28.4L6.4 -27.4L5.4 -27.4L5.4 -11.4L5.4 -10.4L4.9 -10.45Q4.4 -19.4 4.45 -28.4Q6 -28.25 5.5 -30.45L5.4 -31.4L6.4 -31.4L6.4 -28.4" fill="rgb(29,27,23)" fill-opacity="1"></path><path d="M5.4,-10.4L5.4 -11.4L5.4 -27.4L6.4 -27.4Q5.65 -18.65 7.8 -12.55Q7.85 -12.4 8.35 -12.4L8.1 -11.65Q7.35 -10.9 6.4 -10.4L6.4 -9.4Q5.9 -9.4 5.65 -9.65Q5.4 -9.9 5.4 -10.4" fill="rgb(80,81,80)" fill-opacity="1"></path><path d="M-34.6,-29.4L-35.05 -29.45Q-35.55 -33.9 -35.55 -38.4L-34.6 -38.4L-34.6 -30.4L-34.6 -29.4" fill="rgb(0,137,12)" fill-opacity="1"></path><path d="M-33.6,30.6L-34.1 30.55Q-34.6 25.1 -34.6 19.6Q-32.9 23.35 -33.55 29.6L-33.6 30.6" fill="rgb(0,134,14)" fill-opacity="1"></path></g></g></g></g></svg>