<svg width="140" height="172" viewBox="-40 -133 140 172"><g><defs><linearGradient gradientTransform="matrix(0.0551453, 0, 0, 0.052124, 45.6, -78.05)" gradientUnits="userSpaceOnUse" spreadMethod="pad" tp="2" x1="-819.2" x2="819.2" y1="0" y2="0" id="f132:11"><stop offset="0" stop-color="rgb(120,120,120)"></stop><stop offset="1" stop-color="rgb(92,95,95)"></stop></linearGradient></defs></g><rect x="-40" y="-133" width="140" height="172" fill="#006600"></rect><g id="0"><defs></defs><g><g type="shape" id="0:1:132"><defs></defs><g transform="matrix(1,0,0,1,0,0)"><path d="M98.15,3.8L97.05 4.1Q69.05 4.6 41.05 4.6Q26.05 4.6 11.1 5.45Q2.25 5.9 -1.95 2.6Q-4.35 1 -4.4 -2.4Q-4.95 -20.9 -4.95 -39.4L-4.95 -98.4L-4.95 -99.4L-4.95 -128.4Q-3.65 -131.6 0.05 -132.3L1.05 -132.4L60.05 -132.4L97.05 -132.4Q99.2 -131.4 100.45 -129.35L100.45 -128.95L100.45 -115.55L100.45 -102.15L100.45 -88.7L100.45 -75.3L100.45 -61.9L100.45 -48.45L100.45 -35.05L100.45 -21.65L100.45 -8.5L100.15 -0.45Q100.05 1.6 99.05 3.6L98.15 3.8M0.95,-118.7L0.95 -93.45Q0.95 -80.85 1.25 -68.25Q1.35 -63.1 0.45 -58.15L0.45 -55.2L0.45 -48.75L0.5 -40.65Q0.55 -37.75 2.05 -36.6L2.05 -36.4Q3.25 -35.85 4.75 -35.5L23.05 -35.45L62.3 -35.4L62.65 -35.4L83.05 -35.35L88.1 -35.35L94.55 -35.35L94.55 -47.4L94.55 -60.8L94.55 -74.2L94.55 -87.65L94.55 -101.05L94.55 -114.5L94.45 -127.9L1.3 -127.9Q1.6 -126.75 1.4 -125.1Q1 -122.15 0.95 -119.2L0.95 -118.7M5.1,-16.4Q5.25 -13.7 3.05 -13.4Q1.85 -0.25 17.2 -2.55L28.05 -3.4Q56.55 -3.4 85.05 -4.1Q88.25 -4.2 91.05 -5.4L91.55 -5.4Q92.05 -16.4 92.05 -27.4L90.05 -27.45L83.05 -27.8L75.05 -28Q46.55 -27.4 18.05 -27.9Q9.85 -28.05 4.05 -26.4Q4.3 -21.45 4.95 -18.4L5.05 -17.4L5.1 -16.4" fill="rgb(9,12,8)" fill-opacity="1"></path><path d="M88,-35.4L86.9 -36.15L86.8 -36.25Q88 -36.5 89.3 -37.55Q89.8 -37.95 89.85 -38.5Q90.85 -50.7 90.7 -63.05Q90.55 -75.7 90.55 -88.3Q90.55 -100.9 90.8 -113.5Q90.85 -116.05 89.6 -118.2Q88.9 -119.4 87.85 -120L87.45 -120.2L83.85 -120.35L2.9 -120.75L2.9 -120.65L2.25 -120.35L1.85 -120.2L0.95 -119.2Q1 -122.15 1.4 -125.1Q1.6 -126.75 1.3 -127.9L94.45 -127.9L94.55 -114.5L94.55 -101.05L94.55 -87.65L94.55 -74.2L94.55 -60.8L94.55 -47.4L94.55 -35.35L88.1 -35.35L88 -35.4" fill="rgb(153,155,155)" fill-opacity="1"></path><path d="M1.05,-133.4L60.05 -133.4Q78.05 -133.4 96.05 -132.9Q96.55 -132.9 97.05 -132.4L60.05 -132.4L1.05 -132.4L1.05 -133.4" fill="rgb(2,95,32)" fill-opacity="1"></path><path d="M38,-70.45L38 -70.5L40.4 -70.5L38 -70.45M37.95,-60.7L37.95 -60.75L38.4 -60.65L37.95 -60.7" fill="rgb(152,153,153)" fill-opacity="1"></path><path d="M62.35,-35.45L62.65 -35.4L62.3 -35.4L62.35 -35.45" fill="rgb(77,88,126)" fill-opacity="1"></path><path d="M2.4,-36.4L2.05 -36.4L2.05 -36.6L2.4 -36.4" fill="rgb(98,91,84)" fill-opacity="1"></path><path d="M2.4,-36.4L6.8 -36.25L7.25 -36.35L7.3 -36.35L23.05 -35.9L23.05 -35.45L4.75 -35.5Q3.25 -35.85 2.05 -36.4L2.4 -36.4" fill="rgb(92,86,79)" fill-opacity="1"></path><path d="M91.3,-14.4Q91.6 -20.4 90.05 -19.4Q89.75 -17.7 88.05 -17.4L77.05 -16.85Q47.55 -17.4 18.05 -17L5.05 -17.4L4.95 -18.4Q4.3 -21.45 4.05 -26.4Q9.85 -28.05 18.05 -27.9Q46.55 -27.4 75.05 -28L83.05 -27.8L90.05 -27.45L92.05 -27.4Q92.05 -16.4 91.55 -5.4L91.05 -5.4Q91.05 -9.9 91.3 -14.4" fill="rgb(56,46,49)" fill-opacity="1"></path><path d="M91.05,-5.4Q88.25 -4.2 85.05 -4.1Q56.55 -3.4 28.05 -3.4L17.2 -2.55Q1.85 -0.25 3.05 -13.4Q5.25 -13.7 5.1 -16.4L5.05 -17.4L18.05 -17Q47.55 -17.4 77.05 -16.85L88.05 -17.4Q89.75 -17.7 90.05 -19.4Q91.6 -20.4 91.3 -14.4Q91.05 -9.9 91.05 -5.4" fill="rgb(94,77,77)" fill-opacity="1"></path><path d="M83.05,-35.4L88 -35.4L88.1 -35.35L83.05 -35.35L83.05 -35.4" fill="rgb(74,85,123)" fill-opacity="1"></path><path d="M-4.95,-98.4L-4.95 -39.4Q-4.95 -20.9 -4.4 -2.4Q-4.35 1 -1.95 2.6Q2.25 5.9 11.1 5.45Q26.05 4.6 41.05 4.6Q69.05 4.6 97.05 4.1L98.15 3.8L99.05 3.6Q99 5.55 98.1 6.65Q91.2 14.75 83.55 22.15Q74.2 31.25 63.05 38.6L42.05 38.6Q12.55 38.6 -16.95 39.35Q-29.05 39.65 -36.95 36.6L-38 32.6Q-39.7 26.85 -39.9 18.6L-40.1 -1.4Q-39.95 -30.9 -39.95 -60.4Q-35.95 -71.4 -27.35 -77.9Q-18.3 -84.75 -10.6 -93.05L-4.95 -98.4" fill="rgb(0,106,36)" fill-opacity="1"></path><path d="M83.05,-35.35L62.65 -35.4L62.35 -35.45L62.3 -35.4L23.05 -35.45L23.05 -35.9L7.3 -36.35L7.25 -36.35L6.8 -36.25L2.4 -36.4L2.05 -36.6Q0.55 -37.75 0.5 -40.65L0.45 -48.75L0.45 -55.2L0.45 -58.15Q1.35 -63.1 1.25 -68.25Q0.95 -80.85 0.95 -93.45L0.95 -118.7L0.95 -119.2L1.85 -120.2L2.25 -120.35L2.9 -120.65L2.9 -120.75L83.85 -120.35L87.45 -120.2L87.85 -120Q88.9 -119.4 89.6 -118.2Q90.85 -116.05 90.8 -113.5Q90.55 -100.9 90.55 -88.3Q90.55 -75.7 90.7 -63.05Q90.85 -50.7 89.85 -38.5Q89.8 -37.95 89.3 -37.55Q88 -36.5 86.8 -36.25L86.9 -36.15L88 -35.4L83.05 -35.4L83.05 -35.35M40.4,-70.5L38 -70.5L38 -70.45L40.4 -70.5M38.4,-60.65L37.95 -60.75L37.95 -60.7L38.4 -60.65" fill="url(#f132:11)"></path></g></g></g></g></svg>