<svg width="89" height="184" viewBox="-13 -159 89 184"><g><defs></defs></g><rect x="-13" y="-159" width="89" height="184" fill="#006600"></rect><g id="0"><defs></defs><g><g type="shape" id="0:1:102"><defs></defs><g transform="matrix(1,0,0,1,0,0)"><path d="M53.5,-49.7L53.65 -50.55Q53.7 -63.1 39.9 -62.1L35.95 -54.55L42.5 -49.7L33.5 -52.7L36.45 -61.75L22.5 -71.7Q19.3 -120.9 46.05 -159.65L50.65 -159.05Q64.3 -155.55 63.15 -141.7L63.35 -141.6Q69.65 -132.6 69.15 -121.7L69.4 -121.6Q75.95 -115.65 76.5 -106.7L76.5 -96.7Q74.25 -79.9 62.5 -67.7L66.5 -52.7L53.5 -49.7M35.65,-111.3L39.25 -93Q37.3 -91.25 35.35 -92.65L31.35 -98.8L29.55 -90.7L23.5 -86.7L26.15 -69.7L32.15 -71.35L36.15 -67L40.05 -68.65L46.4 -64.75Q52.45 -66.35 54.6 -73.05L57.5 -73.7Q67.05 -70.25 65 -83.65L65.5 -83.7L68.2 -82.9Q79.65 -99.6 62.1 -101.15L62 -101.25L72.05 -107.6Q71.1 -120.65 60.5 -129.7Q63.8 -123 60.5 -116.7Q56.9 -116.8 59.35 -120.3L59.5 -120.7L58.5 -130.7Q63.1 -133.8 61.15 -139.4Q60.2 -142.2 58.5 -144.7L59 -144.8Q59.95 -149.15 57.5 -150.7L55.5 -152.7L52.5 -155.7Q44 -153.15 39.3 -145.75Q32.5 -135.1 42.05 -125.75L42.5 -107.7L35.65 -111.3M36.5,-119.7Q36.45 -113.8 38.05 -117.5Q42.05 -126.95 36.5 -119.7M54.15,-65.9Q65.6 -69 53.5 -67.7Q53.55 -65.75 54.15 -65.9" fill="rgb(17,34,16)" fill-opacity="1"></path><path d="M58.5,-98.7L57.5 -93.7Q57.5 -91.9 58.8 -90.6Q60.05 -89.35 61.85 -89.35L65.5 -83.7L65 -83.65Q67.05 -70.25 57.5 -73.7L56.75 -78.5L51.8 -80.4L45.5 -92.7Q51.9 -99.5 43.6 -104.35Q40.85 -105.9 42.5 -107.7L42.05 -125.75Q32.5 -135.1 39.3 -145.75Q44 -153.15 52.5 -155.7L55.5 -152.7L53.5 -150.7L52.5 -128.7L58.5 -98.7" fill="rgb(3,157,1)" fill-opacity="1"></path><path d="M58.5,-144.7Q60.2 -142.2 61.15 -139.4Q63.1 -133.8 58.5 -130.7L59.5 -120.7L52.5 -128.7L53.5 -150.7L55.5 -152.7L57.5 -150.7L58.5 -144.7" fill="rgb(49,218,43)" fill-opacity="1"></path><path d="M38.05,-117.5Q36.45 -113.8 36.5 -119.7Q42.05 -126.95 38.05 -117.5" fill="rgb(16,81,1)" fill-opacity="1"></path><path d="M57.5,-150.7Q59.95 -149.15 59 -144.8L58.5 -144.7L57.5 -150.7" fill="rgb(90,146,5)" fill-opacity="1"></path><path d="M52.5,-128.7L59.5 -120.7L59.35 -120.3Q56.9 -116.8 60.5 -116.7L57.5 -114.7L58.5 -98.7L52.5 -128.7" fill="rgb(28,197,25)" fill-opacity="1"></path><path d="M57.5,-93.7L58.5 -98.7L57.5 -114.7L60.5 -116.7Q63.8 -123 60.5 -129.7Q71.1 -120.65 72.05 -107.6L62 -101.25L62.1 -101.15Q79.65 -99.6 68.2 -82.9L65.5 -83.7L61.85 -89.35L57.5 -93.7" fill="rgb(50,218,44)" fill-opacity="1"></path><path d="M57.5,-93.7L61.85 -89.35Q60.05 -89.35 58.8 -90.6Q57.5 -91.9 57.5 -93.7" fill="rgb(35,192,32)" fill-opacity="1"></path><path d="M43.5,-78.7Q44.2 -81.9 46 -85.7L46.3 -85.15Q52.35 -74.65 43.5 -78.7" fill="rgb(0,2,0)" fill-opacity="1"></path><path d="M53.5,-67.7Q65.6 -69 54.15 -65.9Q53.55 -65.75 53.5 -67.7" fill="rgb(16,79,0)" fill-opacity="1"></path><path d="M42.5,-49.7L35.95 -54.55L39.9 -62.1Q53.7 -63.1 53.65 -50.55L53.5 -49.7L42.5 -49.7" fill="rgb(90,71,0)" fill-opacity="1"></path><path d="M53.5,-49.7L66.5 -52.7L47.45 -35.05L51.65 -23.85L54.5 -22.75Q55.65 -19.95 55 -17Q53.8 -11.55 49.15 -8.65Q33.45 25.15 -5.95 25.25L-13.3 14Q-16.1 -22.3 14.05 -39.2L14.65 -38.95Q32.45 -33.9 33.5 -52.7L42.5 -49.7L53.5 -49.7" fill="rgb(3,108,39)" fill-opacity="1"></path><path d="M57.5,-73.7L54.6 -73.05Q52.45 -66.35 46.4 -64.75L40.05 -68.65L36.15 -67L32.15 -71.35L26.15 -69.7L23.5 -86.7L29.55 -90.7L31.35 -98.8L35.35 -92.65Q37.3 -91.25 39.25 -93L35.65 -111.3L42.5 -107.7Q40.85 -105.9 43.6 -104.35Q51.9 -99.5 45.5 -92.7L51.8 -80.4L56.75 -78.5L57.5 -73.7M46.3,-85.15L46 -85.7Q44.2 -81.9 43.5 -78.7Q52.35 -74.65 46.3 -85.15" fill="rgb(0,102,0)" fill-opacity="1"></path><path d="M65.5,-83.7L65 -83.65" stroke="rgb(0,0,0)" stroke-linecap="round" stroke-linejoin="round" stroke-miterlimit="3" stroke-width="1" fill="none"></path></g></g></g></g></svg>