<svg width="111" height="154" viewBox="-27 -137 111 154"><g><defs></defs></g><rect x="-27" y="-137" width="111" height="154" fill="#006600"></rect><g id="0"><defs></defs><g><g type="shape" id="0:1:104"><defs></defs><g transform="matrix(1,0,0,1,0,0)"><path d="M57.1,-48.6Q52.55 -61.65 40.85 -60.55L38.2 -54.5L37.1 -52.25Q35.05 -49.35 31.75 -51.55Q31.75 -52.05 32 -52.4Q37 -59.9 29.75 -62.55L29.75 -63.55L34.65 -65.7L40.85 -62Q47.25 -65.9 52.75 -60.55Q58.9 -60.9 61.25 -66.55Q62.1 -68.55 62.4 -70.5L75.75 -74.55L78.35 -79.35L77.75 -81.55Q77.75 -82.8 78.35 -83.65Q78.9 -84.55 79.75 -84.55Q80.25 -84.55 80.45 -84.8Q84.7 -90.1 78.75 -91.55L78.65 -92.55Q75.2 -107.65 68.75 -96.55L68.75 -94.55L68.75 -93.55L65.75 -92.55L67.75 -103.55Q67.75 -104.8 68.95 -105.65Q70.05 -106.5 71.6 -106.55Q80.65 -106.75 79.55 -115.3Q78.55 -123.05 70.8 -125.2L68.75 -125.55L66.65 -114.5L63.75 -118.55L70.75 -130.55L83.7 -116Q83.15 -108.75 80.15 -101.85Q78.3 -97.6 80.8 -94.3L84.15 -93.5Q85.25 -89.85 84.6 -85.85Q83.3 -77.4 76.45 -72.75Q70.35 -68.45 63.75 -67.05L57.75 -57.55L57.75 -51.55L57.1 -48.6" fill="rgb(17,34,16)" fill-opacity="1"></path><path d="M61,-135.9Q63.05 -134.6 59.75 -134.55Q53.75 -137 49 -133.2Q48.75 -133.05 48.75 -132.55L33.75 -129.55Q26.7 -125.4 25.9 -117.15L25.75 -114.55L36.75 -101.55L36.6 -100.6Q31.7 -103.1 26.75 -105.55L23.75 -117.9L20.45 -117.2L19.8 -104.55L25 -101.05L15.75 -99.55L29.2 -78.95L29.15 -76.05L15.75 -84.55L13.4 -86.15Q15.4 -86.95 13.75 -88.55Q12.85 -95.05 12.65 -103.05Q12.5 -110.2 16.1 -117.1Q19.3 -123.25 24.5 -127.75Q29.75 -132.45 36.5 -135Q43.75 -137.65 51.55 -137.6L60.75 -136.55Q60.75 -136.05 61 -135.9" fill="rgb(8,26,6)" fill-opacity="1"></path><path d="M14.75,-69.55L15.75 -84.55L29.15 -76.05L29.2 -78.95L15.75 -99.55L25 -101.05L19.8 -104.55L20.45 -117.2L23.75 -117.9L26.75 -105.55Q31.7 -103.1 36.6 -100.6Q36.85 -99 38 -100.25Q39.6 -101.9 40.45 -104.2L36.75 -106.55L36.75 -101.55L25.75 -114.55L25.9 -117.15Q26.7 -125.4 33.75 -129.55L48.75 -132.55L48.3 -127.35Q55.8 -123.9 56.75 -115.7Q48.35 -121.15 40.75 -114.55Q41.9 -105.25 50.5 -101.6L57.75 -109.55L57.25 -104.7L58.75 -103.55Q58.75 -103.05 58.55 -102.95Q54.45 -100.85 52.75 -96.55Q56 -88.7 63.7 -96.5L63.2 -94.7Q61.95 -90.05 65.75 -92.55L68.75 -93.55L63.75 -88.55L57.65 -82.7L50.75 -86.55Q52.05 -79.45 59.05 -77.75L62 -77.3L63.75 -74.55L75.75 -74.55L62.4 -70.5Q62.1 -68.55 61.25 -66.55Q58.9 -60.9 52.75 -60.55Q47.25 -65.9 40.85 -62L34.65 -65.7L29.75 -63.55L28.75 -63.55Q20.1 -63.15 14.75 -69.55M36.9,-114.45Q37.7 -123.75 29.75 -116.55L29.9 -115.6Q32.55 -108.95 36.75 -108.55Q40.45 -110.3 38.3 -111.95Q36.75 -113.05 36.9 -114.45M40.75,-93.55Q45.6 -90.3 49.15 -95.5L40.75 -93.55M56.8,-90.05Q66.45 -89.05 56.75 -90.55L56.8 -90.05M43.55,-73.95Q41.75 -74.55 41.6 -75.1Q39.2 -82.85 35.75 -79.55L35.95 -78.65Q40.3 -70.1 51.75 -73.55L43.55 -73.95M36.55,-92.9Q40.25 -93.5 34.75 -95.55Q34.85 -92.65 36.55 -92.9M25.55,-93.2Q33.1 -95.75 22.75 -96.55Q21.55 -91.85 25.55 -93.2M18.75,-80.55Q17.85 -75.65 20.3 -76.3Q27.9 -78.25 18.75 -80.55" fill="rgb(12,119,2)" fill-opacity="1"></path><path d="M38.3,-111.95Q40.45 -110.3 36.75 -108.55Q32.55 -108.95 29.9 -115.6L29.75 -116.55Q37.7 -123.75 36.9 -114.45Q36.75 -113.05 38.3 -111.95" fill="rgb(0,174,0)" fill-opacity="1"></path><path d="M36.75,-106.55L40.45 -104.2Q39.6 -101.9 38 -100.25Q36.85 -99 36.6 -100.6L36.75 -101.55L36.75 -106.55" fill="rgb(1,174,0)" fill-opacity="1"></path><path d="M59.75,-134.55Q63.05 -134.6 61 -135.9Q60.75 -136.05 60.75 -136.55L68.75 -132.55L68.7 -132.05Q62.45 -131.25 59.75 -134.55" fill="rgb(29,67,32)" fill-opacity="1"></path><path d="M67.75,-103.55L65.75 -92.55Q61.95 -90.05 63.2 -94.7L63.7 -96.5Q56 -88.7 52.75 -96.55Q54.45 -100.85 58.55 -102.95Q58.75 -103.05 58.75 -103.55Q59.25 -103.55 59.45 -103.8Q63.05 -108.65 57.75 -109.55L50.5 -101.6Q41.9 -105.25 40.75 -114.55Q48.35 -121.15 56.75 -115.7Q55.8 -123.9 48.3 -127.35L48.75 -132.55Q48.75 -133.05 49 -133.2Q53.75 -137 59.75 -134.55Q62.45 -131.25 68.7 -132.05L68.75 -132.55L70.75 -130.55L63.75 -118.55L66.65 -114.5L68.75 -125.55L70.8 -125.2Q78.55 -123.05 79.55 -115.3Q80.65 -106.75 71.6 -106.55L66.75 -106.55L67.75 -103.55" fill="rgb(47,215,42)" fill-opacity="1"></path><path d="M57.25,-104.7L57.75 -109.55Q63.05 -108.65 59.45 -103.8Q59.25 -103.55 58.75 -103.55L57.25 -104.7" fill="rgb(8,48,7)" fill-opacity="1"></path><path d="M66.75,-106.55L71.6 -106.55Q70.05 -106.5 68.95 -105.65Q67.75 -104.8 67.75 -103.55L66.75 -106.55" fill="rgb(23,132,13)" fill-opacity="1"></path><path d="M63.75,-88.55L68.75 -93.55L68.75 -94.55L68.75 -96.55Q75.2 -107.65 78.65 -92.55L78.75 -91.55Q81.8 -88.95 79.95 -85.45L79.75 -84.55Q78.9 -84.55 78.35 -83.65Q77.75 -82.8 77.75 -81.55Q70.3 -76.4 65.75 -84.55L63.75 -88.55" fill="rgb(48,219,43)" fill-opacity="1"></path><path d="M65.75,-84.55Q70.3 -76.4 77.75 -81.55L78.35 -79.35L75.75 -74.55L63.75 -74.55L62 -77.3L59.05 -77.75Q52.05 -79.45 50.75 -86.55L57.65 -82.7L63.75 -88.55L65.75 -84.55" fill="rgb(3,175,2)" fill-opacity="1"></path><path d="M79.95,-85.45Q81.8 -88.95 78.75 -91.55Q84.7 -90.1 80.45 -84.8Q80.25 -84.55 79.75 -84.55L79.95 -85.45" fill="rgb(9,145,8)" fill-opacity="1"></path><path d="M56.75,-90.55Q66.45 -89.05 56.8 -90.05L56.75 -90.55" fill="rgb(0,6,0)" fill-opacity="1"></path><path d="M49.15,-95.5Q45.6 -90.3 40.75 -93.55L49.15 -95.5" fill="rgb(1,10,0)" fill-opacity="1"></path><path d="M53.8,-44.45Q38.55 -40.9 29.75 -48.55L31.75 -51.55Q35.05 -49.35 37.1 -52.25L36.75 -51.55Q37.5 -48.3 40.8 -47.75Q48.65 -46.4 47.75 -49.55Q43.5 -64.35 38.2 -54.5L40.85 -60.55Q52.55 -61.65 57.1 -48.6L57.75 -51.55L58.35 -51.35Q60.8 -46 54.75 -44.55L53.8 -44.45" fill="rgb(52,46,4)" fill-opacity="1"></path><path d="M51.75,-73.55Q40.3 -70.1 35.95 -78.65L35.75 -79.55Q39.2 -82.85 41.6 -75.1Q41.75 -74.55 43.55 -73.95L51.75 -73.55" fill="rgb(1,8,0)" fill-opacity="1"></path><path d="M34.75,-95.55Q40.25 -93.5 36.55 -92.9Q34.85 -92.65 34.75 -95.55M22.75,-96.55Q33.1 -95.75 25.55 -93.2Q21.55 -91.85 22.75 -96.55M20.3,-76.3Q17.85 -75.65 18.75 -80.55Q27.9 -78.25 20.3 -76.3" fill="rgb(0,173,0)" fill-opacity="1"></path><path d="M14.75,-69.55L14.75 -67.55Q8.1 -73.15 9.55 -81.05Q10.35 -85.45 13.75 -88.55Q15.4 -86.95 13.4 -86.15L15.75 -84.55L14.75 -69.55" fill="rgb(33,39,33)" fill-opacity="1"></path><path d="M28.75,-63.55L29.75 -63.55L29.75 -62.55L29.65 -62.05Q17.85 -60.15 14.75 -67.55L14.75 -69.55Q20.1 -63.15 28.75 -63.55" fill="rgb(19,21,19)" fill-opacity="1"></path><path d="M47.75,-49.55Q48.65 -46.4 40.8 -47.75Q37.5 -48.3 36.75 -51.55L37.1 -52.25L38.2 -54.5Q43.5 -64.35 47.75 -49.55" fill="rgb(94,71,0)" fill-opacity="1"></path><path d="M54.75,-44.55L54.55 -44.4Q45.6 -39.15 43.85 -29.05L56.7 -16.05L54.8 -11.8Q49.1 1 38.9 10.55Q34.65 14.5 28.75 14.45L24.4 17.95Q14.7 17.75 4.95 15.8L-4.35 14.4Q-11.65 13.45 -15.25 6.4Q-20.35 6.2 -23.95 2.55Q-29.3 -2.85 -27.4 -10.25L-24.3 -12Q-25.4 -26.8 -11.75 -30.1Q-6.15 -31.4 -1.65 -34.9Q2.75 -38.35 6.35 -33.6L9.1 -33.55Q16.05 -33.4 21.7 -37.3Q27.8 -41.5 29.75 -48.55Q38.55 -40.9 53.8 -44.45L54.75 -44.55" fill="rgb(2,108,38)" fill-opacity="1"></path></g></g></g></g></svg>