<svg width="124" height="188" viewBox="-30 -142 124 188"><g><defs></defs></g><rect x="-30" y="-142" width="124" height="188" fill="#006600"></rect><g id="0"><defs></defs><g><g type="shape" id="0:1:100"><defs></defs><g transform="matrix(1,0,0,1,0,0)"><path d="M77.5,-115L75.55 -112.5L67.55 -114.5L67.4 -114.9Q64.55 -118.45 62.55 -113.5Q47.1 -104.2 45.55 -121.6L46.6 -122.55Q53.7 -128.7 59.55 -121Q62.35 -130.6 51.7 -134.45L55.55 -138.5Q69.6 -130.9 77.5 -115" fill="rgb(46,215,40)" fill-opacity="1"></path><path d="M67.8,-104.4L60.1 -98.95L55.55 -101.5L61.55 -110.5L67.55 -114.5L75.55 -112.5L77.35 -101.2L76.55 -100Q72.9 -94.7 66.55 -92.5L67.8 -104.4M60.05,-101.85L70.55 -108.1Q65.25 -111.25 59.75 -105.7L58.55 -104.5L60.05 -101.85" fill="rgb(28,189,23)" fill-opacity="1"></path><path d="M86.55,-86.5L86.75 -87.4Q91.3 -95.45 82.55 -97.5L81.55 -97.5L81.5 -98.5Q80.75 -104.05 77.35 -101.2L75.55 -112.5L77.5 -115Q69.6 -130.9 55.55 -138.5L32.5 -133L30.65 -118.05L39.55 -112.5L42.55 -103.5L28.5 -114Q25.45 -108.15 28.7 -102.95L29.15 -102.55L28.9 -100.15L21.55 -100.5L33.1 -79.55L21.55 -89.5L16.9 -76.9Q16.6 -80.8 17.1 -84.95Q18.65 -98.3 22.6 -111.65L22.6 -111.5Q23.95 -98.95 22.65 -111.8L24.65 -118.2Q27.85 -127.65 31.5 -137L55.55 -142.5L69.1 -134.55Q70.95 -128.55 75 -123.8Q77.5 -120.95 80.5 -118.9L83.9 -101.95Q85.75 -101.2 87.55 -100.5L94.1 -72.4L87.5 -59.1L67.55 -47.5L71.55 -35.5L57.55 -30.5L50.55 -43.5Q41.8 -45.75 36.85 -38.6L35.55 -36.5L43.55 -30.5L33.55 -33.5L35.55 -45.5L31.15 -49.2Q38.6 -52.4 44.15 -46.55L61.6 -46.65L71.1 -57.4L73.2 -57.1Q84.45 -55.9 83.55 -66.5Q83.55 -67.35 84.15 -67.9Q84.7 -68.5 85.55 -68.5Q94.75 -75.75 87.2 -86.25L86.55 -86.5M19.2,-71.75L25.55 -70.3L29.05 -51.2Q18.3 -62.1 17 -75.85L19.2 -71.75M69.55,-90.5L63.3 -89.1Q59.25 -92.65 66.55 -92.5Q72.9 -94.7 76.55 -100L76.55 -99.5L69.55 -90.5" fill="rgb(17,30,10)" fill-opacity="1"></path><path d="M82.55,-97.5L86.55 -86.5Q90.7 -78.2 85.55 -70.5L85.55 -68.5Q84.7 -68.5 84.15 -67.9Q83.55 -67.35 83.55 -66.5L76.75 -61.25L80.35 -82.6Q72.6 -83.55 69.55 -90.5L76.55 -99.5Q80.1 -100.05 81 -97.65Q81.05 -97.5 81.55 -97.5L82.55 -97.5" fill="rgb(45,220,41)" fill-opacity="1"></path><path d="M77.35,-101.2Q80.75 -104.05 81.5 -98.5L81.55 -97.5Q81.05 -97.5 81 -97.65Q80.1 -100.05 76.55 -99.5L76.55 -100L77.35 -101.2" fill="rgb(5,155,5)" fill-opacity="1"></path><path d="M17,-75.85L16.7 -76.4L16.9 -76.9L21.55 -89.5L33.1 -79.55L21.55 -100.5L28.9 -100.15L29.15 -102.55L28.7 -102.95Q25.45 -108.15 28.5 -114L42.55 -103.5L39.55 -112.5L30.65 -118.05L32.5 -133L55.55 -138.5L51.7 -134.45Q62.35 -130.6 59.55 -121Q53.7 -128.7 46.6 -122.55L45.55 -121.6Q47.1 -104.2 62.55 -113.5L61.55 -110.5L55.55 -101.5L60.1 -98.95L67.8 -104.4L66.55 -92.5Q59.25 -92.65 63.3 -89.1L69.55 -90.5Q72.6 -83.55 80.35 -82.6L76.75 -61.25L83.55 -66.5Q84.45 -55.9 73.2 -57.1L71.1 -57.4L61.6 -46.65L44.15 -46.55Q38.6 -52.4 31.15 -49.2L29.55 -48.5L29.05 -51.2L25.55 -70.3L19.2 -71.75L17 -75.85M45.55,-100Q55.25 -100.9 45.55 -100.5L45.55 -100" fill="rgb(12,127,1)" fill-opacity="1"></path><path d="M45.55,-100.5Q55.25 -100.9 45.55 -100L45.55 -100.5" fill="rgb(0,6,0)" fill-opacity="1"></path><path d="M61.55,-110.5L62.55 -113.5Q64.55 -118.45 67.4 -114.9L67.55 -114.5L61.55 -110.5" fill="rgb(5,43,2)" fill-opacity="1"></path><path d="M58.55,-104.5L59.75 -105.7Q65.25 -111.25 70.55 -108.1L60.05 -101.85L58.55 -104.5" fill="rgb(52,227,46)" fill-opacity="1"></path><path d="M87.2,-86.25Q94.75 -75.75 85.55 -68.5L85.55 -70.5Q90.7 -78.2 86.55 -86.5L87.2 -86.25" fill="rgb(5,173,4)" fill-opacity="1"></path><path d="M86.75,-87.4L86.55 -86.5L82.55 -97.5Q91.3 -95.45 86.75 -87.4" fill="rgb(5,170,4)" fill-opacity="1"></path><path d="M43.55,-30.5L35.55 -36.5L36.85 -38.6Q41.8 -45.75 50.55 -43.5L57.55 -30.5L43.55 -30.5" fill="rgb(92,70,0)" fill-opacity="1"></path><path d="M43.55,-30.5L57.55 -30.5L71.55 -35.5L49.55 -17.5L50.25 -9.8L52.5 -7.9L53.6 -4.45L58.55 -4.5Q62.85 19.25 36.55 36.5Q17.05 42 -2.8 45.6Q-19.95 48.7 -25.45 32.5L-22.6 27.15L-29.3 26.25L-30.75 19.1Q-23.85 14.15 -25.9 5.9Q-18.4 -15.6 4.1 -20.4L6.45 -19.6Q27.65 -13.6 33.55 -33.5L43.55 -30.5" fill="rgb(1,107,38)" fill-opacity="1"></path><path d="M22.6,-111.65L22.55 -112.5L22.65 -111.8Q23.95 -98.95 22.6 -111.5L22.6 -111.65" fill="rgb(14,101,0)" fill-opacity="1"></path></g></g></g></g></svg>