<svg width="136" height="74" viewBox="-84 -37 136 74"><g><defs></defs></g><rect x="-84" y="-37" width="136" height="74" fill="#006600"></rect><g id="0"><defs></defs><g><g type="shape" id="0:1:390"><defs></defs><g transform="matrix(1,0,0,1,0,0)"><path d="M39.55,23.65L39.6 23.15L39.6 22.15Q40.15 -3.2 36.6 -24.85L36.6 -25.35Q-15.1 -25.65 -69.4 -24.85L-69.4 23.15L-69.4 24.15Q-36.95 23.1 -3.4 23.15L-2.4 23.15Q17.35 24.9 39.55 23.65M15.6,-30.85L16.6 -30.85L17.6 -30.85L45.6 -30.85L45.6 -29.85L45.6 32.15L44.6 32.15L-76.4 30.15L-76.9 30.15Q-77.4 0.65 -77.4 -28.85Q-70.4 -31.85 -59.4 -30.9L-58.4 -30.85L15.6 -30.85" fill="rgb(238,0,0)" fill-opacity="1"></path><path d="M50.35,-33.6L50.6 -32.85Q50.6 -16.35 51.1 0.15L51.6 0.15Q51.6 5.65 52.1 11.1Q53.6 27.15 48.6 36.15L48.6 37.15L47.6 37.15L17.6 37.15L17.6 36.65Q-16.4 36.15 -50.4 36.15L-50.4 37.15L-51.4 37.15L-77.4 37.15Q-79.85 35.6 -80.1 33Q-83.15 1.9 -82.4 -31.85L-82.4 -32.85Q-76.1 -38.05 -63.4 -36.9L-62.4 -36.85L-54.4 -36.85L-53.4 -36.85Q-4.65 -35.1 46.6 -35.85L47.6 -35.85L50.35 -33.6M16.6,-31.35Q-20.9 -31.85 -58.4 -31.85L-58.4 -30.85L-59.4 -30.9Q-70.4 -31.85 -77.4 -28.85Q-77.4 0.65 -76.9 30.15L-76.4 30.15L44.6 32.15L45.6 32.15L45.6 -29.85L45.6 -30.85L17.6 -30.85L16.6 -30.85L16.6 -31.35" fill="rgb(5,1,1)" fill-opacity="1"></path><path d="M24.6,-36.85L25.6 -36.85Q36.6 -36.85 47.6 -36.35L47.6 -35.85L46.6 -35.85Q-4.65 -35.1 -53.4 -36.85L24.6 -36.85" fill="rgb(31,31,31)" fill-opacity="1"></path><path d="M38.6,23.15L-2.4 23.15L-3.4 23.15Q-36.95 23.1 -69.4 24.15L-69.4 23.15L-69.4 -24.85Q-15.1 -25.65 36.6 -25.35L36.6 -24.85Q40.15 -3.2 39.6 22.15L39.6 23.15L38.6 23.15M23.55,5.65L23.6 5.15Q28.1 4.15 26.95 -2.9L26.35 -4.9Q2.05 -7.8 -23.35 -6.75Q-36.05 -6.2 -37.4 -15.85L-37.4 -16.35Q-48.25 -11.7 -63.4 -5.85Q-53.15 1.9 -44.8 11.5Q-40.45 16.5 -37.4 13.15Q-35.15 1.9 -19.6 5.15Q-16.15 5.9 -10.4 5.15Q5.35 6.9 23.55 5.65M10.6,-12.85L11.6 -12.85Q24.5 -14.75 30.8 -10.1Q31.1 -9.85 31.6 -9.85L31.7 -8.85Q33.8 4.85 27.6 10.15L27.6 11.15L26.6 11.15L-8.4 11.15L-9.4 11.15L-11.4 11.15L-11.45 10.65Q-23.05 9.5 -32.4 11.15Q-32.55 21.8 -18.2 19.65Q-7.9 18.15 2.6 18.15L33.45 16.65L33.6 15.15L33.6 14.15Q34.3 0.95 32.6 -9.85L32.6 -13.85Q32.6 -15.85 31.6 -16.75Q26.55 -21.3 15.6 -19.85L15.6 -20.35Q-8.85 -21.3 -31.4 -19.85Q-33.1 -12.15 -25.4 -13.75L-24.4 -13.85L-21.4 -13.85L-20.4 -13.85L10.6 -12.85M-53.6,-15.9Q-52.45 -16.9 -52.6 -17.25Q-53.75 -19.55 -63.4 -18.85Q-62.3 -8.75 -53.6 -15.9M-61.6,4.55L-63.4 4.15Q-65.95 15.7 -59.2 17L-58.65 17.1Q-56.6 17.95 -53.5 17.8Q-48.45 18.15 -46.9 16.65L-47.4 16.15L-48.1 15.9Q-53.4 9.15 -61.4 5.15Q-61.4 4.65 -61.6 4.55" fill="rgb(7,5,5)" fill-opacity="1"></path><path d="M16.6,-30.85L15.6 -30.85L-58.4 -30.85L-58.4 -31.85Q-20.9 -31.85 16.6 -31.35L16.6 -30.85" fill="rgb(67,4,4)" fill-opacity="1"></path><path d="M22.6,5.15L-10.4 5.15Q-16.15 5.9 -19.6 5.15Q-35.15 1.9 -37.4 13.15Q-40.45 16.5 -44.8 11.5Q-53.15 1.9 -63.4 -5.85Q-48.25 -11.7 -37.4 -16.35L-37.4 -15.85Q-36.05 -6.2 -23.35 -6.75Q2.05 -7.8 26.35 -4.9L26.95 -2.9Q28.1 4.15 23.6 5.15L22.6 5.15" fill="rgb(246,245,245)" fill-opacity="1"></path><path d="M51.6,0.15L51.1 0.15Q50.6 -16.35 50.6 -32.85Q52.35 -18.1 51.6 -0.85L51.6 0.15" fill="rgb(76,76,76)" fill-opacity="1"></path><path d="M39.6,23.15L39.55 23.65Q17.35 24.9 -2.4 23.15L38.6 23.15L39.6 23.15" fill="rgb(115,3,3)" fill-opacity="1"></path><path d="M-10.4,5.15L22.6 5.15L23.6 5.15L23.55 5.65Q5.35 6.9 -10.4 5.15" fill="rgb(70,68,68)" fill-opacity="1"></path><path d="M-50.4,37.15L-50.4 36.15Q-16.4 36.15 17.6 36.65L17.6 37.15L16.6 37.15L15.6 37.15L14.6 37.15L-0.4 37.15L-1.4 37.15L-50.4 37.15" fill="rgb(37,35,35)" fill-opacity="1"></path><path d="M-78.4,37.05Q-84.7 36 -83.4 27.15L-83.4 26.15L-83.4 -9.85L-83.4 -10.85L-83.4 -31.85L-82.4 -31.85Q-83.15 1.9 -80.1 33Q-79.85 35.6 -77.4 37.15L-78.4 37.05" fill="rgb(79,78,78)" fill-opacity="1"></path><path d="M-83.4,27.15L-84.4 27.15L-84.4 26.15L-84.4 -9.85L-83.4 -9.85L-83.4 26.15L-83.4 27.15" fill="rgb(242,242,242)" fill-opacity="1"></path><path d="M11.6,-12.85L10.6 -12.85L-20.4 -13.85Q-4.4 -13.85 11.6 -13.35L11.6 -12.85" fill="rgb(27,27,27)" fill-opacity="1"></path></g></g></g></g></svg>