<svg width="79" height="72" viewBox="0 -72 79 72"><g><defs></defs></g><rect x="0" y="-72" width="79" height="72" fill="#006600"></rect><g id="0"><defs></defs><g><g type="shape" id="0:1:153"><defs></defs><g transform="matrix(1,0,0,1,0,0)"><path d="M78.3,-52.75Q67.45 -63.9 53.05 -71.5L53.05 -72.5Q69.3 -66.25 78.8 -53.3L79.05 -52.5Q78.55 -52.5 78.3 -52.75" fill="rgb(17,13,4)" fill-opacity="1"></path><path d="M50.05,-59.5L30.05 -59.5L30.05 -58.5L29.05 -58.55Q23.7 -58.85 20.05 -57.5Q18.4 -47.35 23.25 -43.75L24.05 -43.5Q36.3 -41.75 51.05 -42.5L52.05 -42.5Q53.3 -26.05 64.3 -37.25L71.5 -43.95L79.05 -50.5L78.85 -49.6Q69.9 -34.1 53.7 -25.8L53.05 -25.75L52.35 -25.6L49.9 -25.45Q47 -26.85 48.05 -32.5Q44.6 -38.55 33.1 -36.25Q13.95 -32.4 15.05 -48.5Q17.5 -53.05 19.5 -58.35L20.05 -58.5Q35.55 -60 49.65 -63.9Q50.05 -64 49.9 -65.5Q49.25 -70.8 53.05 -71.5L53 -70.5L51.05 -59.5L50.05 -59.5" fill="rgb(6,9,3)" fill-opacity="1"></path><path d="M30.05,-58.5L30.05 -59.5L50.05 -59.5L51.05 -59.5L51.05 -59Q40.55 -58.5 30.05 -58.5" fill="rgb(56,0,0)" fill-opacity="1"></path><path d="M52.05,-43L52.05 -42.5L51.05 -42.5Q36.3 -41.75 24.05 -43.5Q38.05 -43.5 52.05 -43" fill="rgb(19,4,1)" fill-opacity="1"></path><path d="M24.05,-43.5L23.25 -43.75Q18.4 -47.35 20.05 -57.5Q23.7 -58.85 29.05 -58.55L30.05 -58.5Q40.55 -58.5 51.05 -59L51.05 -59.5L53 -70.5L53.05 -71.5Q67.45 -63.9 78.3 -52.75Q78.55 -52.5 79.05 -52.5L79.05 -51.5L79.05 -50.5L71.5 -43.95L64.3 -37.25Q53.3 -26.05 52.05 -42.5L52.05 -43Q38.05 -43.5 24.05 -43.5M55.2,-64.55Q60.3 -51.25 73.05 -50.5L72.9 -51.45Q68.35 -62.8 55.05 -65.5Q55.05 -65 55.2 -64.55M50.05,-50.5Q52.75 -50.3 52.95 -52.5Q53.05 -53.5 52.8 -53.6Q36.05 -58.5 23.05 -54.5Q27.4 -47.75 36.05 -49.4L37.05 -49.5L50 -50L50.05 -50.5" fill="rgb(0,0,255)" fill-opacity="1"></path><path d="M55.05,-65.5Q68.35 -62.8 72.9 -51.45L73.05 -50.5Q60.3 -51.25 55.2 -64.55Q55.05 -65 55.05 -65.5M50,-50L37.05 -49.5L36.05 -49.4Q27.4 -47.75 23.05 -54.5Q36.05 -58.5 52.8 -53.6Q53.05 -53.5 52.95 -52.5Q52.75 -50.3 50.05 -50.5L50 -50" fill="rgb(51,204,255)" fill-opacity="1"></path></g></g></g></g></svg>