<svg width="49" height="47" viewBox="-24 -22 49 47"><g><defs></defs></g><rect x="-24" y="-22" width="49" height="47" fill="#006600"></rect><g id="0"><defs></defs><g><g type="shape" id="0:1:469"><defs></defs><g transform="matrix(1,0,0,1,0,0)"><path d="M20.55,-13.75Q29.6 0.2 20.95 15.2Q12.7 29.45 -8.75 23.9Q-26.4 19.35 -24.4 -5.55Q-17.85 -27.35 9.9 -21.05Q16.9 -19.45 20.55 -13.75M8.85,18.1Q-1.1 1.9 -13.15 -12.35L-13.4 -12.25Q-17.75 -7.5 -19.15 0.05Q-18.95 6.4 -16.45 10.55Q-8.1 24.45 8.65 18.1L8.85 18.1M15.5,-10.15Q8.25 -20.6 -6.4 -16.45L-6.3 -16.15Q3.8 -0.9 15.4 12.85Q23.45 1.35 15.5 -10.15" fill="rgb(250,0,0)" fill-opacity="1"></path></g></g></g></g></svg>