<svg width="24" height="56" viewBox="-12 -28 24 56"><g><defs></defs></g><rect x="-12" y="-28" width="24" height="56" fill="#006600"></rect><g id="0"><defs></defs><g><g type="shape" id="0:1:351"><defs></defs><g transform="matrix(1,0,0,1,0,0)"><path d="M12.5,-8.1L12.5 7.9L12.5 8.9L12.45 9.9Q10.45 23.85 -0.5 28.9L-1.5 28.9L-9.5 28.9L-10.25 28.65L-12.5 25.9L-12.5 24.9L-12.5 16.9L-12.25 16.2Q-8.2 13.2 -5.5 8.9L-5.4 7.9Q-4.15 2.25 -4.5 -5.1L-5.05 -5.25Q-7.25 -13.35 -12.5 -18.1L-12.5 -19.1L-12.5 -27.1L-12.5 -28.1Q9.45 -32.95 12.45 -9.1L12.5 -8.1M0.5,4.9L0.5 5.9L0.4 6.9Q-1.1 16.3 -8.5 19.9Q-4.3 27.55 2.45 19.9Q6.95 14.85 7.5 5.9L8 5.8Q9.25 -0.85 7.5 -5.1Q7.4 -10 6.3 -13.35Q1.9 -26.35 -8.5 -23.1Q-2.1 -16 0.4 -5.1L0.5 -4.1L0.5 4.9" fill="rgb(9,9,9)" fill-opacity="1"></path><path d="M7.5,5.9Q6.95 14.85 2.45 19.9Q-4.3 27.55 -8.5 19.9Q-1.1 16.3 0.4 6.9L0.5 5.9L1 5.8Q2.25 -0.35 0.5 -4.1L0.4 -5.1Q-2.1 -16 -8.5 -23.1Q1.9 -26.35 6.3 -13.35Q7.4 -10 7.5 -5.1L7.5 4.9L7.5 5.9" fill="rgb(245,245,245)" fill-opacity="1"></path><path d="M7.5,4.9L7.5 -5.1Q9.25 -0.85 8 5.8L7.5 5.9L7.5 4.9" fill="rgb(101,101,101)" fill-opacity="1"></path><path d="M0.5,5.9L0.5 4.9L0.5 -4.1Q2.25 -0.35 1 5.8L0.5 5.9" fill="rgb(152,152,152)" fill-opacity="1"></path></g></g></g></g></svg>