<svg width="149" height="177" viewBox="-39 -138 149 177"><g><defs><radialGradient cx="0" cy="0" fx="0" fy="0" gradientTransform="matrix(0.0930176, 0, 0, 0.0930176, 42.25, -97.45)" gradientUnits="userSpaceOnUse" r="819.2" spreadMethod="pad" tp="3" id="f124:16"><stop offset="0" stop-color="rgb(0,153,0)"></stop><stop offset="1" stop-color="rgb(0,229,0)"></stop></radialGradient></defs></g><rect x="-39" y="-138" width="149" height="177" fill="#006600"></rect><g id="0"><defs></defs><g><g type="shape" id="0:1:124"><defs></defs><g transform="matrix(1,0,0,1,0,0)"><path d="M104,-120.95L105 -122.2L105 -126.95L105.5 -126.85Q106.9 -119.05 104 -114.95L104 -120.95" fill="rgb(12,164,11)" fill-opacity="1"></path><path d="M95.95,-134.7Q94.5 -134.95 93.45 -134.25Q90.2 -132.25 87 -129.95L48 -129.95L48 -131.95L67 -131.95Q73.15 -136.55 81 -135.95L85.7 -133.5L86.65 -133.95Q92.3 -139.2 100 -137.95L109.95 -127.4L109.95 -118.95L109.85 -118.55Q105.15 -112.2 110 -105.95L109.8 -96.95L109.8 -96.9Q109.2 -92.25 105 -89.95Q108.85 -87.05 109.15 -81.8Q109.5 -75.25 107.4 -69.1Q106.15 -65.4 107.45 -61.7Q109.15 -56.85 109.9 -51.95L109.85 -50.95Q107.35 -40.4 100 -32.95Q100.65 -27 100.35 -20.05Q99.95 -9.7 99.7 0.7Q99.65 3.8 97.15 5.25L64 6.05L45 6.05Q23.1 6.7 1.45 5.5Q-3.65 5.2 -4.2 0.55Q-6 -15.25 -6 -30.95Q-8.8 -30.6 -11.25 -31.9Q-19 -36.1 -14.5 -44.5Q-11 -51.05 -6 -55.95L-6.1 -54.95Q-7.3 -47.75 -12 -43.95Q-13.75 -32.7 -4 -32.65Q-0.3 -32.65 0.6 -29.1L2 -22.95Q8.25 -20.35 11.2 -25.4Q11.9 -26.55 14 -25.95Q16.15 -25.3 16 -26.95L27.15 -26.65L34.95 -26.4L36.1 -26.6Q38.75 -27.15 40 -25.95L26.6 -20.3L20.3 -26.15L1.65 -14.8Q-2.3 -12.4 -0.2 -8.5L0.75 0.75L94.55 1.05L95.4 -7.75L90.95 -16.25Q94.15 -21.15 91.8 -26L88.35 -26.75Q83.5 -19.25 75.05 -22.2Q73.7 -22.6 72.45 -23.4Q63.7 -18 56 -21.95Q63 -19.2 67.35 -25.15L67.9 -26Q85.8 -21.6 95.5 -36.4Q96.4 -37.75 96.45 -39.4L92.6 -40.65L94 -41.95Q102.6 -41.05 104.65 -49.7Q106.35 -57 101.95 -63.15L105.35 -66.25L105.9 -83.25L101 -91.95L104.25 -92.4L105 -105.95L102 -109.95L104 -113.95L104 -114.95Q106.9 -119.05 105.5 -126.85L105 -126.95Q102.95 -133.4 95.95 -134.7" fill="rgb(2,10,1)" fill-opacity="1"></path><path d="M-7,-125.95L4.3 -126.55L6.2 -129.5Q7.85 -130.3 9.6 -130.65Q17.2 -131.35 22.15 -125.35L22.8 -126.75Q28.5 -137.1 39.55 -132.95L48 -129.95L87 -129.95Q90.2 -132.25 93.45 -134.25Q94.5 -134.95 95.95 -134.7Q102.95 -133.4 105 -126.95L105 -122.2L104 -120.95L104 -114.95L104 -113.95L102.45 -118L96.2 -119.1L91 -126.95L87.6 -126.15Q86.15 -115.9 77.05 -117.3L76 -121.25L72.1 -121.65L74 -115.1Q69.55 -109.85 60.15 -110.85L56.25 -104.4Q50.25 -102.3 48.95 -108.2Q48.35 -111 48.5 -113.35L44.55 -113.75Q41.15 -107.5 34 -107.95Q29.8 -115.3 24.35 -122.05Q23.55 -123.05 22.2 -122.85Q23.8 -117.55 20.05 -114.9Q15.4 -111.55 9.65 -111Q7.15 -110.95 5.05 -112.45L4.65 -117.2L-5 -124.95L-7 -125.95" fill="rgb(57,232,51)" fill-opacity="1"></path><path d="M95.1,-46Q91.9 -49.6 94.55 -53.6Q96.1 -55.85 96.2 -59Q96.3 -61.65 97.5 -62.6Q101.65 -66 98 -67.95Q95.3 -67.75 94.85 -69.2Q92 -78.95 100 -78.95L99.85 -82.95Q99.7 -84.65 98.15 -84.3Q93.05 -83 93 -90.95Q95.3 -94.6 98.15 -93.35L99.25 -93.4Q100.95 -96.35 98.15 -95.5Q90.65 -93.1 90 -101.95Q92.2 -105.75 99 -105.45Q99.5 -105.45 99.75 -106.05Q100.65 -108.3 102 -109.95L105 -105.95L104.25 -92.4L101 -91.95L105.9 -83.25L105.35 -66.25L101.95 -63.15Q106.35 -57 104.65 -49.7Q102.6 -41.05 94 -41.95Q96.65 -44.2 95.1 -46" fill="rgb(51,225,46)" fill-opacity="1"></path><path d="M-4,-110.95L1.35 -105.45L-1 -104.95L-7.1 -102.2Q-10.05 -94.95 -4.15 -89.9Q-7.9 -87.6 -10.5 -84.35Q-15.45 -78.05 -12.4 -70.6Q-9.7 -63.95 -6 -57.95Q-13.25 -56.85 -15.95 -63.5Q-17.45 -67.25 -17.1 -71.6Q-16.1 -82.9 -9.5 -92.15L-11 -93.95Q-11.9 -100.25 -7.2 -104.75L-5.85 -105.9Q-5.55 -110.7 -9.9 -113.25Q-14.95 -116.15 -15 -121.95L-6 -130.95L4 -131.95Q9.2 -137.35 16.4 -134.75Q18.8 -133.9 20.55 -131.95Q27.6 -138.65 37.15 -138.25Q43.95 -137.55 48 -131.95L48 -129.95L39.55 -132.95Q28.5 -137.1 22.8 -126.75L22.15 -125.35Q17.2 -131.35 9.6 -130.65Q7.85 -130.3 6.2 -129.5L4.3 -126.55L-7 -125.95L-8 -123.95L-9 -123.95L-9 -123.5Q-13.15 -116.3 -5.45 -111.45L-5 -111.4L-4 -110.95" fill="rgb(1,17,3)" fill-opacity="1"></path><path d="M77.35,-88.8L76.5 -87.45Q76 -86.95 75 -86.95Q71.5 -82.6 67.75 -86.7Q65.1 -89.55 66 -95.95Q69.75 -102.5 75.65 -97.55Q79.7 -94.2 77.35 -88.8M76,-75.95L82.45 -78Q87.85 -73.9 84.25 -67.7L80.75 -66.45Q75.6 -69.7 76 -75.95" fill="rgb(56,232,50)" fill-opacity="1"></path><path d="M51.2,-77.95Q51.2 -74.25 49 -72.95Q43.2 -68.35 40.9 -75.25Q40 -77.95 40 -80.95Q41.25 -83.7 43.45 -85.35Q46.7 -87.85 49.35 -84.45Q51.15 -82.1 51.2 -77.95" fill="rgb(55,231,49)" fill-opacity="1"></path><path d="M54.4,-54.25Q56.55 -52.5 55.6 -48.05Q55.5 -47.45 54.9 -47.1Q53 -45.95 51 -44.95Q45.5 -44.95 45.95 -50.95L46 -51.95Q49.4 -58.45 54.4 -54.25M44.05,-60.9Q38.45 -54.2 36 -62.95Q41.2 -70.5 44.4 -61.75Q44.5 -61.45 44.05 -60.9M66,-51.85Q64.75 -51.65 63.55 -52.3L62.8 -55.65Q68.05 -61.75 76 -59.95Q75.5 -51 66 -51.85M27,-88.95Q20.2 -81.6 15.65 -89.75Q14.25 -92.2 15 -96.95Q22.95 -104.2 28.35 -95.55Q29 -94.45 28.85 -92.95Q28.55 -90.4 27 -88.95M18.1,-81.25Q24.1 -78.7 20.25 -72.4Q20 -71.95 19.05 -71.8Q11.6 -70.55 13 -77.95Q14.8 -82.65 18.1 -81.25M14,-56.95Q18.05 -63.3 23.7 -58.6Q27.4 -55.5 23.5 -51.45L22.1 -50.65L21 -49.95Q14.3 -49.75 14 -55.95L14 -56.95" fill="rgb(15,111,0)" fill-opacity="1"></path><path d="M62.4,-68Q62 -72.45 62 -76.95Q70.35 -80.05 68.6 -69Q68.05 -65.45 63.2 -66.75Q62.5 -66.95 62.4 -68" fill="rgb(55,231,50)" fill-opacity="1"></path><path d="M-6,-57.95Q-9.7 -63.95 -12.4 -70.6Q-15.45 -78.05 -10.5 -84.35Q-7.9 -87.6 -4.15 -89.9Q-10.05 -94.95 -7.1 -102.2L-1 -104.95L2.45 -102.15L4 -96.15L-0.6 -91.65L3.55 -90.1L2.6 -82.55L-1.35 -84.25L-5 -79.95L-0.55 -69L-3.6 -64.35L3.45 -62.1L3.95 -56.95L-1.6 -53.8L-4.1 -47.55L-2.95 -40.85L10.55 -40.3L17.65 -34.05Q21.3 -40.7 28.8 -41.3Q33.5 -41.4 35.65 -37.1L36.3 -35.6L37.75 -35.1L41 -39.95Q47.25 -42.9 52.15 -38.05L59.1 -39.95L70.65 -34.4Q73.5 -39.95 79.6 -41.3Q85.9 -36.9 92.6 -40.65L96.45 -39.4Q96.4 -37.75 95.5 -36.4Q85.8 -21.6 67.9 -26L67.35 -25.15Q63 -19.2 56 -21.95L48.95 -29.7L40 -25.95Q38.75 -27.15 36.1 -26.6L34.95 -26.4L27.15 -26.65L16 -26.95Q16.15 -25.3 14 -25.95Q11.9 -26.55 11.2 -25.4Q8.25 -20.35 2 -22.95L0.6 -29.1Q-0.3 -32.65 -4 -32.65Q-13.75 -32.7 -12 -43.95Q-7.3 -47.75 -6.1 -54.95L-6 -55.95L-6 -57.95M-3.35,-112.8L-5 -111.4L-5.45 -111.45Q-13.15 -116.3 -9 -123.5L-7.75 -123.6Q-6.8 -123.6 -6.15 -122.5Q-5.5 -121.4 -5.5 -119.85L-3.35 -112.8" fill="rgb(15,109,0)" fill-opacity="1"></path><path d="M48.95,-29.7L56 -21.95Q63.7 -18 72.45 -23.4Q73.7 -22.6 75.05 -22.2Q83.5 -19.25 88.35 -26.75L91.8 -26Q94.15 -21.15 90.95 -16.25L95.4 -7.75Q87.1 -5 83.55 -13.65L83 -14.95L57.55 -13Q44.7 -21.85 32 -12.95L18.5 -16.7Q11.25 -10.05 1.55 -7.75L-0.2 -8.5Q-2.3 -12.4 1.65 -14.8L20.3 -26.15L26.6 -20.3L40 -25.95L48.95 -29.7" fill="rgb(67,19,0)" fill-opacity="1"></path><path d="M95.4,-7.75L94.55 1.05L0.75 0.75L-0.2 -8.5L1.55 -7.75Q11.25 -10.05 18.5 -16.7L32 -12.95Q44.7 -21.85 57.55 -13L83 -14.95L83.55 -13.65Q87.1 -5 95.4 -7.75" fill="rgb(97,73,0)" fill-opacity="1"></path><path d="M-6,-55.95Q-11 -51.05 -14.5 -44.5Q-19 -36.1 -11.25 -31.9Q-8.8 -30.6 -6 -30.95Q-6 -15.25 -4.2 0.55Q-3.65 5.2 1.45 5.5Q23.1 6.7 45 6.05Q48.25 7.8 54 7.8Q60.25 7.8 64 6.05L97.15 5.25L97.15 6.6L94.4 9.5Q80 24.55 65 39.05L35 39.05Q5.5 39.05 -24 39.95Q-32.65 40.2 -37 37.05Q-38 35.55 -38.05 34Q-39 16.05 -39 -1.95L-39 -60.95Q-34.1 -71.05 -25.85 -77.75Q-17.25 -84.7 -11 -93.95L-9.5 -92.15Q-16.1 -82.9 -17.1 -71.6Q-17.45 -67.25 -15.95 -63.5Q-13.25 -56.85 -6 -57.95L-6 -55.95" fill="rgb(0,106,36)" fill-opacity="1"></path><path d="M45,6.05L64 6.05Q60.25 7.8 54 7.8Q48.25 7.8 45 6.05" fill="rgb(32,86,21)" fill-opacity="1"></path><path d="M-5,-111.4L-3.35 -112.8L-5.5 -119.85L-4 -117.95Q-0.6 -113.65 -3.75 -111.6L-4 -110.95L-5 -111.4M-9,-123.5L-9 -123.95L-8 -123.95L-7.75 -123.6L-9 -123.5" fill="rgb(16,108,3)" fill-opacity="1"></path><path d="M-5.5,-119.85Q-5.5 -121.4 -6.15 -122.5Q-6.8 -123.6 -7.75 -123.6L-8 -123.95L-7 -125.95L-5 -124.95L-5.55 -123.45L-4 -117.95L-5.5 -119.85" fill="rgb(14,135,4)" fill-opacity="1"></path><path d="M94,-41.95L92.6 -40.65Q85.9 -36.9 79.6 -41.3Q73.5 -39.95 70.65 -34.4L59.1 -39.95L52.15 -38.05Q47.25 -42.9 41 -39.95L37.75 -35.1L36.3 -35.6L35.65 -37.1Q33.5 -41.4 28.8 -41.3Q21.3 -40.7 17.65 -34.05L10.55 -40.3L-2.95 -40.85L-4.1 -47.55L-1.6 -53.8L3.95 -56.95L3.45 -62.1L-3.6 -64.35L-0.55 -69L-5 -79.95L-1.35 -84.25L2.6 -82.55L3.55 -90.1L-0.6 -91.65L4 -96.15L2.45 -102.15L-1 -104.95L1.35 -105.45L-4 -110.95L-3.75 -111.6Q-0.6 -113.65 -4 -117.95L-5.55 -123.45L-5 -124.95L4.65 -117.2L5.05 -112.45Q7.15 -110.95 9.65 -111Q15.4 -111.55 20.05 -114.9Q23.8 -117.55 22.2 -122.85Q23.55 -123.05 24.35 -122.05Q29.8 -115.3 34 -107.95Q41.15 -107.5 44.55 -113.75L48.5 -113.35Q48.35 -111 48.95 -108.2Q50.25 -102.3 56.25 -104.4L60.15 -110.85Q69.55 -109.85 74 -115.1L72.1 -121.65L76 -121.25L77.05 -117.3Q86.15 -115.9 87.6 -126.15L91 -126.95L96.2 -119.1L102.45 -118L104 -113.95L102 -109.95Q100.65 -108.3 99.75 -106.05Q99.5 -105.45 99 -105.45Q92.2 -105.75 90 -101.95Q90.65 -93.1 98.15 -95.5Q100.95 -96.35 99.25 -93.4L98.15 -93.35Q95.3 -94.6 93 -90.95Q93.05 -83 98.15 -84.3Q99.7 -84.65 99.85 -82.95L100 -78.95Q92 -78.95 94.85 -69.2Q95.3 -67.75 98 -67.95Q101.65 -66 97.5 -62.6Q96.3 -61.65 96.2 -59Q96.1 -55.85 94.55 -53.6Q91.9 -49.6 95.1 -46Q96.65 -44.2 94 -41.95M75.65,-97.55Q69.75 -102.5 66 -95.95Q65.1 -89.55 67.75 -86.7Q71.5 -82.6 75 -86.95Q76 -86.95 76.5 -87.45L77.35 -88.8Q79.7 -94.2 75.65 -97.55M49.35,-84.45Q46.7 -87.85 43.45 -85.35Q41.25 -83.7 40 -80.95Q40 -77.95 40.9 -75.25Q43.2 -68.35 49 -72.95Q51.2 -74.25 51.2 -77.95Q51.15 -82.1 49.35 -84.45M46,-51.95L45.95 -50.95Q45.5 -44.95 51 -44.95Q53 -45.95 54.9 -47.1Q55.5 -47.45 55.6 -48.05Q56.55 -52.5 54.4 -54.25Q49.4 -58.45 46 -51.95M44.4,-61.75Q41.2 -70.5 36 -62.95Q38.45 -54.2 44.05 -60.9Q44.5 -61.45 44.4 -61.75M63.2,-66.75Q68.05 -65.45 68.6 -69Q70.35 -80.05 62 -76.95Q62 -72.45 62.4 -68Q62.5 -66.95 63.2 -66.75M76,-59.95Q68.05 -61.75 62.8 -55.65L63.55 -52.3Q64.75 -51.65 66 -51.85Q75.5 -51 76 -59.95M80.75,-66.45L84.25 -67.7Q87.85 -73.9 82.45 -78L76 -75.95Q75.6 -69.7 80.75 -66.45M28.85,-92.95Q29 -94.45 28.35 -95.55Q22.95 -104.2 15 -96.95Q14.25 -92.2 15.65 -89.75Q20.2 -81.6 27 -88.95Q28.55 -90.4 28.85 -92.95M13,-77.95Q11.6 -70.55 19.05 -71.8Q20 -71.95 20.25 -72.4Q24.1 -78.7 18.1 -81.25Q14.8 -82.65 13 -77.95M14,-55.95Q14.3 -49.75 21 -49.95L22.1 -50.65L23.5 -51.45Q27.4 -55.5 23.7 -58.6Q18.05 -63.3 14 -56.95L14 -55.95" fill="url(#f124:16)"></path></g></g></g></g></svg>