<svg width="91" height="88" viewBox="0 -88 91 88"><g><defs><linearGradient gradientTransform="matrix(0.0164795, 0, 0, 0.00524902, 55.25, -38.65)" gradientUnits="userSpaceOnUse" spreadMethod="pad" tp="2" x1="-819.2" x2="819.2" y1="0" y2="0" id="f128:13"><stop offset="0" stop-color="rgb(178,0,0)"></stop><stop offset="1" stop-color="rgb(255,0,0)"></stop></linearGradient><linearGradient gradientTransform="matrix(0.0236816, 0, 0, 0.0222168, 49.15, -54.75)" gradientUnits="userSpaceOnUse" spreadMethod="pad" tp="2" x1="-819.2" x2="819.2" y1="0" y2="0" id="f128:14"><stop offset="0" stop-color="rgb(178,0,0)"></stop><stop offset="1" stop-color="rgb(255,0,0)"></stop></linearGradient><linearGradient gradientTransform="matrix(0.0403748, 0, 0, 0.0421448, 46.8, -49.45)" gradientUnits="userSpaceOnUse" spreadMethod="pad" tp="2" x1="-819.2" x2="819.2" y1="0" y2="0" id="f128:15"><stop offset="0" stop-color="rgb(178,0,0)"></stop><stop offset="1" stop-color="rgb(255,0,0)"></stop></linearGradient><linearGradient gradientTransform="matrix(0.0331421, 0, 0, 0.0341797, 59.6, -56.95)" gradientUnits="userSpaceOnUse" spreadMethod="pad" tp="2" x1="-819.2" x2="819.2" y1="0" y2="0" id="f128:16"><stop offset="0" stop-color="rgb(169,0,0)"></stop><stop offset="1" stop-color="rgb(255,207,68)"></stop></linearGradient><linearGradient gradientTransform="matrix(0.0250244, 0, 0, 0.0207825, 53.25, -60)" gradientUnits="userSpaceOnUse" spreadMethod="pad" tp="2" x1="-819.2" x2="819.2" y1="0" y2="0" id="f128:17"><stop offset="0" stop-color="rgb(169,0,0)"></stop><stop offset="1" stop-color="rgb(255,207,68)"></stop></linearGradient></defs></g><rect x="0" y="-88" width="91" height="88" fill="#006600"></rect><g id="0"><defs></defs><g><g type="shape" id="0:1:128"><defs></defs><g transform="matrix(1,0,0,1,0,0)"><path d="M33.05,-68.95L32.75 -68.65L32.05 -67.95L29.15 -58.75L26.75 -50.75L26.3 -50.4Q25.4 -49.9 24.75 -50.15Q24.2 -50.4 23.85 -51.1L25.6 -64.95L25.75 -65.3L26.15 -66.15L27.75 -68.9L27.8 -68.95L40.3 -78.9L55.35 -79.85L65.2 -76.6Q70.3 -71.15 75.05 -65.3Q77.9 -61.8 77.8 -56.9L75.75 -41.55L71.35 -36L69.55 -38Q75.6 -46.55 74.05 -57.15L73.75 -59.15Q71.6 -64.05 68.1 -67.55Q52.05 -83.8 33.7 -69.55L33.05 -68.95M79.3,-28.05L79.75 -28.9L79.8 -28.95L80.2 -29.55L82.6 -34.75Q91.35 -56.2 76.1 -73.85Q60.95 -91.4 37.95 -83.7Q29.85 -81.3 24 -75.25Q7.55 -57.95 16.75 -34.95Q25.75 -12.75 49.65 -12.3Q70.3 -11.95 79.3 -28.05M71.75,-13.95Q50.55 -7.05 30.65 -16.2Q10.55 -25.45 9.65 -48.3Q9.3 -56.8 11.75 -64.95Q16.9 -78.15 29.95 -83.65Q49.75 -92.15 69.6 -84Q92.15 -74.65 90.95 -50.2Q89.85 -27.25 71.75 -13.95" fill="rgb(19,7,0)" fill-opacity="1"></path><path d="M65.2,-76.6L55.35 -79.85Q60.95 -78.95 65.2 -76.6" fill="rgb(68,6,3)" fill-opacity="1"></path><path d="M26.75,-50.75L29.15 -58.75Q27.8 -43.8 41.75 -36.95Q57.8 -29.9 68.5 -42.15L68.75 -42.95L73.7 -49.45L73.75 -59.15L74.05 -57.15Q75.6 -46.55 69.55 -38Q51.3 -19.7 32.7 -38.1Q28.05 -42.75 26.75 -48.95L26.75 -50.75" fill="rgb(108,0,0)" fill-opacity="1"></path><path d="M24.75,-50.15Q25.4 -49.9 26.3 -50.4L26.75 -48.95Q28.05 -42.75 32.7 -38.1Q51.3 -19.7 69.55 -38L71.35 -36L75.75 -41.55Q73.4 -35.6 68.75 -31.95Q46.35 -17.2 29.9 -35.7Q26.35 -39.65 24.75 -44.95L24.75 -50.15" fill="rgb(15,0,0)" fill-opacity="1"></path><path d="M9.65,-48.3Q10.55 -25.45 30.65 -16.2Q50.55 -7.05 71.75 -13.95L58.75 -1.95L51.75 -1.55Q27.5 0.95 13.75 -18.15Q2.3 -34.05 3.75 -53.95L11.75 -64.95Q9.3 -56.8 9.65 -48.3" fill="rgb(0,104,0)" fill-opacity="1"></path><path d="M33.7,-69.55L33.5 -69.2L33.05 -68.95L33.7 -69.55M32.05,-67.95L32.75 -68.65L32.75 -67.95L32.05 -67.95M27.8,-68.95L27.75 -68.9L27.75 -68.95L27.8 -68.95" fill="rgb(66,0,0)" fill-opacity="1"></path><path d="M26.15,-66.15L25.75 -65.3L25.75 -65.95L26.15 -66.15" fill="rgb(37,0,0)" fill-opacity="1"></path><path d="M24.75,-44.95Q26.35 -39.65 29.9 -35.7Q46.35 -17.2 68.75 -31.95Q52.25 -12.75 30.4 -27Q15.3 -36.9 18.75 -55.95L25.6 -64.95L23.85 -51.1L24.75 -44.95" fill="rgb(106,0,0)" fill-opacity="1"></path><path d="M26.3,-50.4L26.75 -50.75L26.75 -48.95L26.3 -50.4" fill="rgb(57,0,0)" fill-opacity="1"></path><path d="M23.85,-51.1Q24.2 -50.4 24.75 -50.15L24.75 -44.95L23.85 -51.1" fill="rgb(48,0,0)" fill-opacity="1"></path><path d="M49.65,-12.3Q25.75 -12.75 16.75 -34.95Q27.35 -18.1 46.85 -16.45Q65.2 -15.55 79.3 -28.05Q70.3 -11.95 49.65 -12.3M79.8,-28.95L79.75 -28.9L79.75 -28.95L79.8 -28.95" fill="rgb(86,0,0)" fill-opacity="1"></path><path d="M80.2,-29.55L79.8 -28.95L79.75 -28.95L79.75 -29.3L80.2 -29.55" fill="rgb(109,0,0)" fill-opacity="1"></path><path d="M78.5,-28.8Q76.85 -26.9 74.75 -28.95L78.5 -28.8" fill="rgb(239,94,8)" fill-opacity="1"></path><path d="M44,-36.75Q57.5 -34.35 67.75 -42.95L68.75 -42.95L68.5 -42.15Q57.8 -29.9 41.75 -36.95L44 -36.75" fill="url(#f128:13)"></path><path d="M29.15,-58.75L32.05 -67.95L32.75 -67.95L53.75 -72.95L64.75 -65.95L67.75 -59.95L67.75 -42.95Q57.5 -34.35 44 -36.75L41.75 -36.95Q27.8 -43.8 29.15 -58.75" fill="url(#f128:14)"></path><path d="M75.75,-41.55L77.8 -56.9L78.75 -54.45Q82.6 -42.8 74.75 -33.95L74.75 -28.95Q76.85 -26.9 78.5 -28.8L79.75 -29.3L79.75 -28.95L79.75 -28.9L79.3 -28.05Q65.2 -15.55 46.85 -16.45Q27.35 -18.1 16.75 -34.95Q7.55 -57.95 24 -75.25Q29.85 -81.3 37.95 -83.7L32.65 -78.4L34.75 -76.95L40.3 -78.9L27.8 -68.95L27.75 -68.95L27.75 -68.9L26.15 -66.15L25.75 -65.95L25.75 -65.3L25.6 -64.95L18.75 -55.95Q15.3 -36.9 30.4 -27Q52.25 -12.75 68.75 -31.95Q73.4 -35.6 75.75 -41.55" fill="url(#f128:15)"></path><path d="M64.75,-65.95Q67.5 -64.7 67.7 -60.95L67.75 -59.95L64.75 -65.95M79.75,-29.3L78.5 -28.8L74.75 -28.95L74.75 -33.95Q82.6 -42.8 78.75 -54.45L77.8 -56.9Q77.9 -61.8 75.05 -65.3Q70.3 -71.15 65.2 -76.6Q60.95 -78.95 55.35 -79.85L40.3 -78.9L34.75 -76.95L32.65 -78.4L37.95 -83.7Q60.95 -91.4 76.1 -73.85Q91.35 -56.2 82.6 -34.75L80.2 -29.55L79.75 -29.3" fill="url(#f128:16)"></path><path d="M53.75,-72.95L32.75 -67.95L32.75 -68.65L33.05 -68.95L33.5 -69.2L33.7 -69.55Q52.05 -83.8 68.1 -67.55Q71.6 -64.05 73.75 -59.15L73.7 -49.45L68.75 -42.95L67.75 -42.95L67.75 -59.95L67.7 -60.95Q67.5 -64.7 64.75 -65.95L53.75 -72.95" fill="url(#f128:17)"></path></g></g></g></g></svg>