<svg width="97" height="97" viewBox="0 -97 97 97"><g><defs></defs></g><rect x="0" y="-97" width="97" height="97" fill="#006600"></rect><g id="0"><defs></defs><g><g type="shape" id="0:1:246"><defs></defs><g transform="matrix(1,0,0,1,0,0)"><path d="M48,-94.5L48.05 -94.5Q67.25 -94.5 80.85 -80.9Q94.5 -67.25 94.5 -48Q94.5 -28.75 80.85 -15.15Q67.25 -1.5 48 -1.5L47.7 -1.5L45.7 -1.55Q27.95 -2.3 15.1 -15.15Q1.5 -28.75 1.5 -48Q1.5 -67.25 15.1 -80.9Q28.05 -93.8 46.05 -94.45L48 -94.5z" stroke="rgb(204,153,0)" stroke-linecap="round" stroke-linejoin="round" stroke-miterlimit="3" stroke-width="1.5" fill="none"></path><path d="M48.05,-58.5L48.05 -52.5M48.05,-70.5L48.05 -64.5M48.05,-82.5L48.05 -76.5M48.05,-94.5L48.05 -88.5M47.8,-10.5L47.7 -4.5M47.9,-22.5L47.8 -16.5M48,-34.5L47.9 -28.5M48.05,-46.5L48 -40.5" stroke="rgb(204,153,0)" stroke-linecap="round" stroke-linejoin="round" stroke-miterlimit="3" stroke-width="6" fill="none"></path></g></g></g></g></svg>