<svg xmlns="http://www.w3.org/2000/svg" viewBox="0 0 190.63 151.72"><defs><style>.cls-1,.cls-3{fill:#515151;}.cls-1,.cls-3,.cls-4,.cls-7{stroke:#2d2d2d;stroke-miterlimit:10;}.cls-1{stroke-width:3px;}.cls-2{fill:#989a9a;}.cls-3{stroke-width:2px;}.cls-4{fill:#fff;}.cls-5{fill:#212121;}.cls-6{fill:#230000;opacity:0.23;}.cls-7{fill:#7e7069;}.cls-8{fill:#2d2d2d;}</style></defs><title>Cow</title><g id="Слой_2" data-name="Слой 2"><g id="Outlines"><path class="cls-1" d="M19.26,64.49S1.59,78.43,1.59,79.1s-.83,14.83,2.5,15,15.17-4.5,15.17-4.5S26.43,79.89,19.26,64.49Z"/><path class="cls-1" d="M143.93,64.49V95.1a34.94,34.94,0,0,1-34.84,34.83h-64a25.9,25.9,0,0,1-25.82-25.82V64.49a34.27,34.27,0,0,1,.93-8,35,35,0,0,1,33.9-26.87h55A34.94,34.94,0,0,1,143.93,64.49Z"/><path class="cls-2" d="M47.76,82.6s7.67-13.33,21.33-14S84.43,79.3,84.43,79.3,72.09,98.61,59.76,94.1,44.61,86.85,47.76,82.6Z"/><path class="cls-2" d="M85.3,96.1s8.75,19.5,16.75,16,15.75-17.75,12.5-20.25-13.75-10-18.75-8.75S85.3,87.35,85.3,96.1Z"/><path class="cls-2" d="M85.12,52c-5,5.88-13.21,6-32.86,6.33-14.16.23-28-.77-30.68-1a35,35,0,0,1,33.9-26.87c19.14,1.43,31.89,7.13,32.71,14.1C88.58,47.91,86.13,50.79,85.12,52Z"/><path class="cls-2" d="M103.28,74.56S92,70.67,91.46,63.74s9-7.77,9-7.77,16.3,6.25,12.5,12.5S106.87,76.15,103.28,74.56Z"/><path class="cls-3" d="M22.44,116.6s-.25,30,10.75,32.5H46.94s.25,5,12.5-21.5c0,0,.25-3.5-.58-4.5"/><path class="cls-3" d="M101,120.41c-1.39,3.11-.55,8.8,1.13,20.19.66,4.48,1.29,7.2,3.56,8.88.94.7,2.52,1.22,9.31,1.25a54.15,54.15,0,0,0,11.81-1.25,52.1,52.1,0,0,0,7.13-23.38c.36-6.61.79-12-2.5-15.12"/><path class="cls-1" d="M189,71.41c-.37,6.36-1,16.63-8.28,26-11.21,14.37-29.78,15.35-35.66,15.67a58.72,58.72,0,0,1-24.37-4,9.49,9.49,0,0,1-.1,1.54,11.82,11.82,0,0,1-1.58,4.21c-1.3,2.45-2,3.68-2.37,3.84-2.74,1-7.6-6-8-6.58A31,31,0,0,1,104,99.9c-.19-1.54-.2-1.82-.2-1.86,0-.93.32-1.91-.17-2.29A52,52,0,0,1,99,73.14c0-2.27.11-4.63.33-7.06,0-5.43,0-10.22.14-14.48a92.5,92.5,0,0,1,.92-11.26c1.28-8,4-12.18,7.27-15.26a20.9,20.9,0,0,1,2.92-2.26,9.67,9.67,0,0,1-1.25-4c-.14-1.84.26-4,2.5-7.5,1.08-1.66,7.18-11.1,11.63-9.62,2,.68,2.92,3.43,3.62,5.62,1.77,5.6-.42,8.53,1.17,10.8s5.43,1.33,9.36.84a19.39,19.39,0,0,1,4.79-.13C153,20.17,165.61,21.56,175,30.08,190.56,44.15,189.29,65.78,189,71.41Z"/><path class="cls-2" d="M162.27,40.85c-12.27,2.76-16.12-7.54-16.12-7.54l-9.78-10.82.85-3.1a16,16,0,0,1,4.34-.25c9.64,1.11,21.13,2.17,29.92,10.44C171.48,29.58,174.53,38.08,162.27,40.85Z"/><path class="cls-2" d="M125.65,25.62s5.2-18.22-2.57-23.37c0,0-4.64,1.45-11.12,10.23l-2.94,8,15.35,7.68Z"/><path class="cls-2" d="M127.77,50.83c-.25,2.08-2.68,3-4.17,4.16a5.58,5.58,0,0,0-.56.51c-1.4,1.25-2.43,6.6-2.18,21a24.11,24.11,0,0,0-1.26,9.13c.28,4.54,2,9.59,2.36,14.25a27.74,27.74,0,0,1,0,3.75,14,14,0,0,1-.43,3.19,12.15,12.15,0,0,1-.9,2.28c-6.36-2.51-12.59-6.56-16.8-13.12-.06-.08-.11-.17-.17-.26-4.36-6.95-4.35-14.52-4.33-29.67,0-17.66,0-28.6,4.5-36.23a20.65,20.65,0,0,1,3.83-4.77A26.26,26.26,0,0,1,122,18.62c2-.78,3.13-.47,3.73-.17,4.47,2.23-7,20-.8,27.62C126,47.45,128,48.84,127.77,50.83Z"/><path class="cls-4" d="M147,33.65a22.2,22.2,0,0,1-2.93,11.26c-2.58,4.36-6.61,7.17-11.15,7.17-7.77,0-14.07-8.25-14.07-18.43s6.3-18.43,14.07-18.43c5.16,0,9.66,3.62,12.12,9A22.79,22.79,0,0,1,147,33.65Z"/><path class="cls-4" d="M149.52,68a22.06,22.06,0,0,1-1.69,8.55c-2.59,6.15-7.88,10.36-14,10.36-8.65,0-15.67-8.47-15.67-18.91s7-18.91,15.67-18.91c5.28,0,10,3.15,12.79,8A21.55,21.55,0,0,1,149.52,68Z"/><path class="cls-5" d="M149.52,68a22.06,22.06,0,0,1-1.69,8.55,4.15,4.15,0,0,1-2.6,1c-3.39,0-6.13-4.64-6.13-10.37s2.74-10.37,6.13-10.37a3.77,3.77,0,0,1,1.41.28A21.55,21.55,0,0,1,149.52,68Z"/><path class="cls-5" d="M147,33.65a22.2,22.2,0,0,1-2.93,11.26c-3.31-.14-6-4.74-6-10.38s2.75-10.37,6.13-10.37a3.75,3.75,0,0,1,.82.09A22.79,22.79,0,0,1,147,33.65Z"/><ellipse class="cls-5" cx="176.76" cy="53.33" rx="6.17" ry="8.42"/><ellipse class="cls-5" cx="176.76" cy="76.42" rx="6.17" ry="8.42"/><path class="cls-2" d="M103.85,99s3.5,18.62,12.75,19.75c0,0,3.5-3.37,5.38-14.12l-1-8.5H103.85Z"/><path class="cls-6" d="M103.85,29.85c-1.06,3-1.85,6.89,0,10,.91,1.51,1.91,1.93,2.74,2.78,4.29,4.41-.71,15.9-2.32,20.39-2.51,7-4.09,9.88-2.52,12.17s4.28,1.31,6,3.18,2.06,6.48-3.88,17.67l-.17-.26c-4.36-6.95-4.35-14.52-4.33-29.67C99.37,48.42,99.38,37.48,103.85,29.85Z"/><path class="cls-7" d="M100,42.08s15.83,4.33,18.83-10.5c0,0-8-4.67-6.66-19.67C112.19,11.91,95.86,18.08,100,42.08Z"/><path class="cls-8" d="M123.31,109.87c0-2.05.72-4,.87-6.05a20.22,20.22,0,0,0-.44-5.71c-.12-.55-2.3,0-2.17.58a19.47,19.47,0,0,1,.32,6.75,35.31,35.31,0,0,0-.75,5c0,.46,2.18.11,2.17-.58Z"/><path class="cls-7" d="M108.18,56s-11.83,9.37-8.32,19.76c0,0,6,5.89,16,0,0,0,3.76-2.34,1.67-7.14a8.16,8.16,0,0,0-2.82-2.39c-1.67-.84-2.51-.47-3.89-1.34a6.78,6.78,0,0,1-2.59-3.52A8.3,8.3,0,0,1,108.18,56Z"/></g></g></svg>