<svg width="182" height="224" viewBox="-91 -112 182 224"><g><defs></defs></g><rect x="-91" y="-112" width="182" height="224" fill="#006600"></rect><g id="0"><defs></defs><g><g type="shape" id="0:1:159"><defs></defs><g transform="matrix(1,0,0,1,0,0)"><path d="M21.8,-110.95L17.9 -110.5L17.9 -111.5L20.9 -111.5L21.9 -111.5L21.8 -110.95" fill="rgb(53,127,53)" fill-opacity="1"></path><path d="M-17.1,-49.5L-18.1 -49.5L-20.1 -49.5L-21.05 -49.65Q-27.75 -51.85 -27.1 -61.5Q-26.6 -61.5 -26.35 -61.75Q-26.1 -62 -26.1 -62.5L-15.15 -63L-15.1 -63.5L-15.1 -64.5L-15.1 -65.5L-15 -66.5Q-14.4 -69.7 -16.1 -70.5L-16.1 -71.5L-16.1 -81.5Q-8.7 -105.1 16.9 -110.4L17.9 -110.5L21.8 -110.95L21.9 -111.5L25.9 -111.5L26.9 -111.5L33.9 -111.5L34.9 -111.5L35.9 -111.5L36.9 -111.5Q40.65 -109.75 46.9 -110.45L47.9 -110.5Q71.8 -105.9 78.75 -84.45L78.9 -83.5Q78.9 -81.5 79.35 -79.6L79.9 -79.5L79.9 -78.5Q79.9 -76.5 80.35 -74.6L80.9 -74.5L80.9 -72.5L80.9 -71.5L79.9 -71.5L79.9 -68.5L79.9 -67.5L78.9 -67.5Q78.9 -65 79.4 -62.6L79.9 -62.5L80.9 -62.5L80.9 -61.5L79.9 -61.45Q74.15 -60.75 70.9 -62.5L73.75 -62.95L73.9 -63.5L74.65 -63.75L74.9 -64.5L75.7 -65.6L75.9 -66.5L76.45 -66.6Q77.65 -71.75 75.9 -74.5L75.9 -75.5L76 -76.5Q76.6 -79.2 74.9 -79.5L74.9 -80.5L74.9 -82.5L74.8 -83.5Q74.4 -85.5 72.9 -86.5L72.8 -87.5Q72.4 -89.5 70.9 -90.5L70.65 -91.35Q65.65 -98.75 56.9 -102.5L56.65 -103.25L55.9 -103.5L55.65 -104.25Q52.55 -107.15 46.9 -107.5L46.8 -108L41.9 -108.5L40.9 -108.5L27.9 -108.5L26.9 -108.5L23.9 -108.5L23.9 -107.5L22.9 -107.4Q-1.95 -102.85 -9.1 -80.5L-9.1 -79.5L-10.1 -79.5L-10.1 -78.5L-10.1 -77.5L-11.1 -77.5Q-11.1 -75.5 -10.65 -73.6L-10.1 -73.5L-10.1 -69.5L-10.1 -68.5Q-10.1 -66.5 -9.65 -64.6L-9.1 -64.5Q-9.7 -62.4 -8.2 -62.05L-8.1 -61.5L-9.1 -61.5L-18.1 -61.5L-18.1 -60.5L-18.1 -59.5L-19.1 -59.5L-20.1 -59.5Q-20.1 -57 -19.6 -54.6L-19.1 -54.5Q-19 -51.6 -17.35 -50.2Q-17.1 -50 -17.1 -49.5" fill="rgb(8,12,8)" fill-opacity="1"></path><path d="M34.9,-112.5L39.9 -112.5L40.9 -112.5L40.9 -111.5L39.9 -111.5L36.9 -111.5L35.9 -111.5L34.9 -111.5L34.9 -112.5" fill="rgb(63,159,63)" fill-opacity="1"></path><path d="M46.9,-110.45Q40.65 -109.75 36.9 -111.5L39.9 -111.5L40.9 -111.5L46.9 -111.5L47.9 -111.5L47.9 -110.5L46.9 -110.45" fill="rgb(4,61,4)" fill-opacity="1"></path><path d="M34.9,-111.5L33.9 -111.5L26.9 -111.5L26.9 -112.5L33.9 -112.5L34.9 -112.5L34.9 -111.5" fill="rgb(62,135,62)" fill-opacity="1"></path><path d="M27.8,-107.95L23.9 -107.5L23.9 -108.5L26.9 -108.5L27.9 -108.5L27.8 -107.95M45.9,68.5L50.9 68.5L51.9 68.5L51.75 69.05Q47.65 70.2 45.9 68.5" fill="rgb(55,57,55)" fill-opacity="1"></path><path d="M-2.1,-62.5L-2.1 -61.5Q-2.1 -61 -2.35 -60.75Q-2.6 -60.5 -3.1 -60.5L-4.1 -60.5L-4.1 -61.5Q-4.1 -62 -4.35 -62.25Q-6.15 -63.95 -9.1 -64.5L-9.1 -65.5L-9.1 -68.5L-9.1 -69.5L-9.1 -79.5L-9.1 -80.5Q-1.95 -102.85 22.9 -107.4L23.9 -107.5L27.8 -107.95L27.9 -108.5L40.9 -108.5L41.9 -108.5Q42.7 -106.8 45.9 -107.4L46.9 -107.5Q52.55 -107.15 55.65 -104.25L55.9 -103.5L54.9 -103.4Q42.55 -100.85 35.9 -92.5L35.9 -91.5L35.9 -90.5L35.9 -89.5L35 -89.3L31.9 -87.5L31.9 -85.5L31.9 -84.5Q31.4 -84.5 31.05 -84.75Q28.65 -86.25 25.9 -87.5L25.4 -87.6Q25.05 -89.15 22.9 -88.5L22.85 -89L11.9 -89.5L10.9 -89.5L6.9 -89.5L6.9 -88.5L5.9 -88.5L5.9 -87.5Q5.9 -87 6.15 -86.75Q6.4 -86.5 6.9 -86.5L6.7 -85.9Q5.9 -85.5 4.9 -85.5L3.9 -85.45Q-1.7 -85.1 -4.1 -81.5L-4.1 -80.5L-4.1 -79.5Q-4.1 -79 -4.35 -78.75Q-4.6 -78.5 -5.1 -78.5L-5.1 -71.5L-5.1 -70.5Q-3.4 -66.7 -1.35 -63.35Q-1.1 -63 -1.1 -62.5L-2.1 -62.5M0.65,-32.75Q-0.1 -32 -1.1 -31.5L-1.1 -32.5L-1.1 -34.5L-1.1 -35.5Q-0.1 -36 0.65 -36.75L0.9 -37.5L1.9 -37.5L2.65 -37.25L2.9 -36.5L2.4 -36.5Q2.55 -34.4 0.9 -34.5L0.9 -33.5L0.65 -32.75" fill="rgb(80,80,80)" fill-opacity="1"></path><path d="M46.9,-111.5L40.9 -111.5L40.9 -112.5L47.85 -112L47.9 -111.5L46.9 -111.5" fill="rgb(31,163,31)" fill-opacity="1"></path><path d="M45.9,-107.4Q42.7 -106.8 41.9 -108.5L46.8 -108L46.9 -107.5L45.9 -107.4" fill="rgb(52,54,52)" fill-opacity="1"></path><path d="M55.95,-102.35Q43.5 -98.9 35.9 -90.5L35.9 -91.5L35.9 -92.5Q42.55 -100.85 54.9 -103.4L55.9 -103.5L56.65 -103.25L56.9 -102.5L55.95 -102.35" fill="rgb(114,116,116)" fill-opacity="1"></path><path d="M-3.3,-43.1L-5.1 -43.5L-5.1 -44.5L-5.1 -46.5Q-0.3 -46.15 -2.25 -47.3L-3.1 -47.5Q-3.1 -48 -3.35 -48.25L-4.1 -48.5L-4.15 -49L-15.1 -49.5L-16.1 -49.5L-17.1 -49.5Q-17.1 -50 -17.35 -50.2Q-19 -51.6 -19.1 -54.5L-19.1 -55.5L-19.1 -59.5L-18.1 -59.5L-11.1 -59.5L-10.1 -59.5Q-3.2 -53.45 -2.6 -59.5L-3.1 -59.5L-3.1 -60.5Q-2.6 -60.5 -2.35 -60.75Q-2.1 -61 -2.1 -61.5Q-0.4 -59.7 -0.6 -55.5L-0.1 -55.5Q0 -52.6 1.65 -51.2L1.9 -50.5L5.25 -45.75Q5.4 -45.5 5.9 -45.5L5.65 -44.75L3.9 -43.5Q4.95 -38.55 11.9 -39.45L12.9 -39.5L13.8 -35.5L13.9 -34.5L12.9 -34.55Q7.25 -35.35 3.9 -38.5L3.75 -39.05Q-0.05 -40.55 -3.1 -42.5Q-3.1 -43 -3.3 -43.1M40.05,-88.25Q38.25 -87.15 34.9 -87.5L34.9 -88.5L35.65 -88.75L35.9 -89.5L35.9 -90.5Q43.5 -98.9 55.95 -102.35L56.9 -102.5Q65.65 -98.75 70.65 -91.35L70.9 -90.5L72.4 -83.6L72.9 -83.5L72.9 -82.5Q73.85 -81.45 74.35 -79.65Q74.4 -79.5 74.9 -79.5L74.9 -76.5L74.9 -75.5L74.9 -65.5L74.9 -64.5L74.65 -63.75L73.9 -63.5L72.9 -63.5L69.9 -63.5L69.9 -62.5Q69.5 -59.6 72.95 -60.4L73.9 -60.5Q77.65 -58.75 83.9 -59.45L84.9 -59.5L85.45 -59.4Q87.05 -52.35 82.9 -50.5L82.9 -49.5L81.9 -49.5L80.9 -49.5L79.9 -49.5L67.9 -49.5L67.9 -48.5Q67.9 -47.5 68.3 -46.7L68.9 -46.5L71.75 -46.05L71.9 -45.5L71.9 -44.5L71.9 -43.5L70.9 -43.4Q67.95 -42.95 65.9 -41.5L65.9 -40.5L65 -40.3L63.9 -39.5Q63.4 -39.5 63.3 -39.7Q62.9 -40.5 62.9 -41.5L62.9 -42.5L62.9 -46.5L62.9 -47.5L64.65 -48.75L64.9 -49.5L66.65 -51.65L66.9 -52.5L67.4 -52.6Q68.65 -58.25 66.9 -61.5L66.9 -62.5L66.9 -65.5L66.9 -66.5L66.9 -68.5Q70 -70.4 68.45 -76.4L67.9 -76.5L68 -77.45Q68.55 -79.65 66.9 -79.5L66.75 -80.45Q64.95 -86.55 57.9 -87.5L57.7 -88.15Q55.4 -89.5 51.9 -89.5L50.9 -89.5L49.9 -89.5L48.9 -89.55Q44.1 -89.8 40.9 -88.5L40.05 -88.25" fill="rgb(147,149,149)" fill-opacity="1"></path><path d="M72.4,-83.6L70.9 -90.5Q72.4 -89.5 72.8 -87.5L72.9 -86.5L72.9 -84.5L72.9 -83.5L72.4 -83.6" fill="rgb(111,112,112)" fill-opacity="1"></path><path d="M52.9,-87.5L53.9 -87.5L54.9 -87.5L56.9 -87.5L57.9 -87.5Q64.95 -86.55 66.75 -80.45L66.9 -79.5L65.9 -79.5Q65.4 -79.5 65.25 -79.75Q61.55 -85.65 52.9 -86.5L52.9 -87.5" fill="rgb(46,46,46)" fill-opacity="1"></path><path d="M66.8,-77.05Q65.3 -77.4 65.9 -79.5L66.9 -79.5Q68.55 -79.65 68 -77.45L67.9 -76.5L66.9 -76.5L66.8 -77.05" fill="rgb(54,54,54)" fill-opacity="1"></path><path d="M68.45,-76.4Q70 -70.4 66.9 -68.5L66.9 -66.5L66.9 -65.5L66.35 -65.6L64.9 -70.5Q67.65 -71.25 67 -75.5L66.9 -76.5L67.9 -76.5L68.45 -76.4" fill="rgb(79,79,79)" fill-opacity="1"></path><path d="M64.25,-70.75Q62.25 -73.85 59.9 -76.5L59.8 -77.05L55.9 -77.5L55.9 -76.5L54.9 -76.5L54.9 -75.5L53.9 -75.5L53.9 -67.5L53.9 -66.5L52.9 -66.5L38.9 -66.5L37.9 -66.5L37.8 -67.05L33.9 -67.5L33.9 -68.5L33.9 -83.5L34.65 -83.75L34.9 -84.5L38.9 -85.4L39.9 -85.5Q42.75 -78.65 48.65 -83.8L48.9 -84.5Q49.7 -86.2 51.9 -86.45L52.9 -86.5Q61.55 -85.65 65.25 -79.75Q65.4 -79.5 65.9 -79.5Q65.3 -77.4 66.8 -77.05L66.9 -76.5L67 -75.5Q67.65 -71.25 64.9 -70.5Q64.4 -70.5 64.25 -70.75" fill="rgb(247,247,247)" fill-opacity="1"></path><path d="M79.35,-79.6Q78.9 -81.5 78.9 -83.5Q80.6 -83.2 80 -80.5L79.9 -79.5L79.35 -79.6" fill="rgb(55,112,55)" fill-opacity="1"></path><path d="M73.9,-82.5L72.9 -82.5L72.9 -83.5L72.9 -84.5L72.9 -86.5Q74.4 -85.5 74.8 -83.5L74.9 -82.5L73.9 -82.5" fill="rgb(92,93,92)" fill-opacity="1"></path><path d="M74.35,-79.65Q73.85 -81.45 72.9 -82.5L73.9 -82.5L74.9 -82.5L74.9 -80.5L74.9 -79.5Q74.4 -79.5 74.35 -79.65M10.95,42.5Q11.45 46.05 8.9 46.5L7.9 46.5L7.9 45.5L7.9 44.5Q10.1 44.2 10.4 41.55L10.9 41.5L10.95 42.5" fill="rgb(116,116,116)" fill-opacity="1"></path><path d="M74.9,-75.5L74.9 -76.5L74.9 -79.5Q76.6 -79.2 76 -76.5L75.9 -75.5L74.9 -75.5" fill="rgb(75,77,76)" fill-opacity="1"></path><path d="M74.9,-65.5L74.9 -75.5L75.9 -75.5L75.9 -74.5L75.9 -67.5L75.9 -66.5L75.7 -65.6L74.9 -64.5L74.9 -65.5" fill="rgb(117,119,118)" fill-opacity="1"></path><path d="M80.35,-74.6Q79.9 -76.5 79.9 -78.5Q81.6 -78.2 81 -75.5L80.9 -74.5L80.35 -74.6" fill="rgb(56,132,57)" fill-opacity="1"></path><path d="M50.9,-88.5L50.9 -87.5L49.9 -87.5L48.9 -87.5L48.9 -88.5L49.65 -88.75L49.9 -89.5L50.9 -89.5L51.9 -89.5L51.9 -88.5L50.9 -88.5" fill="rgb(48,49,49)" fill-opacity="1"></path><path d="M50.9,-87.5L50.9 -88.5L51.9 -88.5L54.75 -88.05L54.9 -87.5L53.9 -87.5L52.9 -87.5L51.9 -87.5L50.9 -87.5" fill="rgb(33,34,34)" fill-opacity="1"></path><path d="M48.9,-85.5L48.9 -87.5L49.9 -87.5L50.9 -87.5L51.9 -87.5L52.9 -87.5L52.9 -86.5L51.9 -86.45Q49.7 -86.2 48.9 -84.5L48.9 -85.5" fill="rgb(149,149,149)" fill-opacity="1"></path><path d="M57.7,-88.15L57.9 -87.5L56.9 -87.5L54.9 -87.5L54.75 -88.05L51.9 -88.5L51.9 -89.5Q55.4 -89.5 57.7 -88.15" fill="rgb(82,83,83)" fill-opacity="1"></path><path d="M48.9,-84.5L48.65 -83.8Q42.75 -78.65 39.9 -85.5L39.9 -86.5L39.9 -87.5L40.65 -87.75L40.9 -88.5Q44.1 -89.8 48.9 -89.55L49.9 -89.5L49.65 -88.75L48.9 -88.5L48.9 -87.5L48.9 -85.5L48.9 -84.5" fill="rgb(5,5,5)" fill-opacity="1"></path><path d="M34.9,-87.5Q38.25 -87.15 40.05 -88.25L40.9 -88.5L40.65 -87.75L39.9 -87.5L39.9 -86.5L39.9 -85.5L38.9 -85.4L34.9 -84.5L34.9 -85.5L34.9 -86.5L34.9 -87.5" fill="rgb(67,67,67)" fill-opacity="1"></path><path d="M54.9,-67.5L54.9 -66.5L53.9 -66.5L53.9 -67.5L53.9 -75.5L54.9 -75.5L54.9 -68.5L54.9 -67.5" fill="rgb(207,207,207)" fill-opacity="1"></path><path d="M54.9,-68.5L54.9 -75.5L54.9 -76.5L55.9 -76.5L55.9 -77.5L59.8 -77.05L59.9 -76.5L58.9 -76.5L55.9 -76.5L55.95 -75.5Q56.65 -70.25 54.9 -67.5L54.9 -68.5" fill="rgb(136,136,136)" fill-opacity="1"></path><path d="M36.9,-65.5L37.65 -65.75L37.9 -66.5L38.9 -66.5Q38.8 -64.9 40.95 -65.4L41.9 -65.5Q45.15 -63.75 50.8 -65L50.9 -65.5L54.8 -65.95L54.9 -66.5L54.9 -67.5Q56.65 -70.25 55.95 -75.5L55.9 -76.5L58.9 -76.5L59.9 -76.5Q62.25 -73.85 64.25 -70.75Q64.4 -70.5 64.9 -70.5L66.35 -65.6L66.9 -65.5L66.9 -62.5L66.9 -61.5L66.9 -60.5L65.9 -60.5L65.7 -61.4L64.9 -62.5L64.8 -63.45Q63.05 -70.15 57.9 -73.5L56.9 -73.5L56.9 -63.5L56.9 -62.5L56.8 -61.95Q54.95 -61.55 53.9 -62.5L53.8 -63L48.9 -63.5L48.9 -62.5L48 -62.3L46.9 -61.5L46.9 -60.5L46 -60.7L44.9 -61.5L44.65 -62.25Q42.85 -63.95 38.9 -63.5L38.7 -64.1L36.9 -64.5L36.9 -65.5" fill="rgb(27,26,26)" fill-opacity="1"></path><path d="M56.9,-63.5L56.9 -73.5L57.9 -73.5L57.95 -72.5Q58.65 -66.25 56.9 -62.5L56.9 -63.5" fill="rgb(62,55,52)" fill-opacity="1"></path><path d="M64.8,-63.45L64.9 -62.5L64.9 -55.5L64.9 -54.5L65 -53.55Q65.55 -51.4 63.9 -51.5L63.9 -50.5L63 -50.3L61.9 -49.5L61.9 -48.5L61.25 -48.3Q60.05 -46.35 57.9 -45.5L57.9 -44.5L57.4 -44.4Q57.05 -42.9 54.9 -43.5L53.9 -43.5L46.9 -43.5L46.9 -44.5L46.9 -45.5L46.9 -46.5L46.9 -57.5L46.9 -58.5L46.9 -60.5L46.9 -61.5L48 -62.3L48.9 -62.5L52.9 -62.5L53.9 -62.5Q54.95 -61.55 56.8 -61.95L56.9 -62.5Q58.65 -66.25 57.95 -72.5L57.9 -73.5Q63.05 -70.15 64.8 -63.45" fill="rgb(130,114,108)" fill-opacity="1"></path><path d="M49.9,-65.5L41.9 -65.5L40.95 -65.4Q38.8 -64.9 38.9 -66.5L52.9 -66.5L53.9 -66.5L54.9 -66.5L54.8 -65.95L50.9 -65.5L49.9 -65.5" fill="rgb(198,198,198)" fill-opacity="1"></path><path d="M50.9,-65.5L50.8 -65Q45.15 -63.75 41.9 -65.5L49.9 -65.5L50.9 -65.5" fill="rgb(69,69,69)" fill-opacity="1"></path><path d="M53.9,-62.5L52.9 -62.5L48.9 -62.5L48.9 -63.5L53.8 -63L53.9 -62.5" fill="rgb(88,78,74)" fill-opacity="1"></path><path d="M44.9,-61.5L46 -60.7L46.9 -60.5L46.9 -58.5L46.9 -57.5L45.9 -57.5L45.7 -58.4L44.9 -59.5L44.9 -60.5L44.9 -61.5" fill="rgb(47,45,44)" fill-opacity="1"></path><path d="M45.9,-45.5L45.9 -46.5L45.9 -57.5L46.9 -57.5L46.9 -46.5L46.9 -45.5L45.9 -45.5" fill="rgb(95,83,78)" fill-opacity="1"></path><path d="M44.9,-45.5L44.9 -44.5L44.9 -43.5L44.4 -43.6Q43.9 -46 43.9 -48.5L43.9 -49.5L43.9 -54.5Q45.6 -55.3 45 -58.5L44.9 -59.5L45.7 -58.4L45.9 -57.5L45.9 -46.5L45.9 -45.5L44.9 -45.5" fill="rgb(24,22,22)" fill-opacity="1"></path><path d="M44.65,-62.25L44.9 -61.5L44.9 -60.5L44.9 -59.5L43.9 -59.5Q43.9 -60 43.7 -60.1Q40.95 -61.55 38.9 -63.5Q42.85 -63.95 44.65 -62.25M-4.1,-23.5Q-3.6 -23.5 -3.35 -23.75Q-3.1 -24 -3.1 -24.5L-2 -23.7L-1.1 -23.5L-1.2 -22.5Q-1.75 -20.15 -3.1 -18.5L-3.3 -19.4L-4.1 -20.5L-4.1 -21.5L-4.1 -23.5" fill="rgb(125,126,126)" fill-opacity="1"></path><path d="M43.9,-55.5L43.9 -59.5L44.9 -59.5L45 -58.5Q45.6 -55.3 43.9 -54.5L43.9 -55.5" fill="rgb(73,74,74)" fill-opacity="1"></path><path d="M42.9,-54.5L42.9 -49.5L42.9 -48.5L41.9 -48.5Q34.55 -48.15 28.9 -49.5Q28.4 -49.5 28.15 -49.75Q27.4 -50.5 26.9 -51.5L26.95 -52.5Q27.4 -57.5 23.9 -58.5L22.9 -58.5Q22.9 -59 22.7 -59.1Q21.2 -59.8 21.9 -62.5L21.9 -63.5L25.8 -63.95L25.9 -64.5L35.9 -64.5L36.9 -64.5L38.7 -64.1L38.9 -63.5Q40.95 -61.55 43.7 -60.1Q43.9 -60 43.9 -59.5L43.9 -55.5L43.9 -54.5L42.9 -54.5" fill="rgb(150,152,152)" fill-opacity="1"></path><path d="M42.9,-48.5L42.9 -49.5L42.9 -54.5L43.9 -54.5L43.9 -49.5L43.9 -48.5L42.9 -48.5" fill="rgb(101,102,102)" fill-opacity="1"></path><path d="M80.9,-71.5L81 -70.5Q81.6 -67.8 79.9 -67.5L79.9 -68.5L79.9 -71.5L80.9 -71.5" fill="rgb(59,130,60)" fill-opacity="1"></path><path d="M75.9,-67.5L75.9 -74.5Q77.65 -71.75 76.45 -66.6L75.9 -66.5L75.9 -67.5" fill="rgb(44,45,44)" fill-opacity="1"></path><path d="M69.9,-62.5L69.9 -63.5L72.9 -63.5L73.9 -63.5L73.75 -62.95L70.9 -62.5L69.9 -62.5" fill="rgb(73,75,74)" fill-opacity="1"></path><path d="M79.9,-62.5L79.4 -62.6Q78.9 -65 78.9 -67.5L79.9 -67.5L79.9 -64.5L79.9 -63.5L79.9 -62.5" fill="rgb(46,71,46)" fill-opacity="1"></path><path d="M84.9,-62.5L83.9 -62.5L80.9 -62.5L79.9 -62.5L79.9 -63.5L83.9 -63.5L84.9 -63.5L84.9 -62.5" fill="rgb(61,153,61)" fill-opacity="1"></path><path d="M66.9,-53.5L66.9 -60.5L66.9 -61.5Q68.65 -58.25 67.4 -52.6L66.9 -52.5L66.9 -53.5" fill="rgb(78,77,76)" fill-opacity="1"></path><path d="M65.7,-61.4L65.9 -60.5L66 -59.5Q66.6 -55.8 64.9 -54.5L64.9 -55.5L64.9 -62.5L65.7 -61.4" fill="rgb(95,84,80)" fill-opacity="1"></path><path d="M66.9,-52.5L66.65 -51.65L64.9 -49.5L64.65 -50.25L63.9 -50.5L63.9 -51.5Q65.55 -51.4 65 -53.55L64.9 -54.5Q66.6 -55.8 66 -59.5L65.9 -60.5L66.9 -60.5L66.9 -53.5L66.9 -52.5" fill="rgb(50,46,44)" fill-opacity="1"></path><path d="M62.65,-48.25L61.9 -48.5L61.9 -49.5L63 -50.3L63.9 -50.5L64.65 -50.25L64.9 -49.5L64.65 -48.75L62.9 -47.5L62.65 -48.25" fill="rgb(33,30,29)" fill-opacity="1"></path><path d="M84.9,-61.5L84.9 -60.5L83.9 -60.5L73.9 -60.5L72.95 -60.4Q69.5 -59.6 69.9 -62.5L70.9 -62.5Q74.15 -60.75 79.9 -61.45L80.9 -61.5L83.9 -61.5L84.9 -61.5" fill="rgb(55,58,56)" fill-opacity="1"></path><path d="M83.9,-61.5L80.9 -61.5L80.9 -62.5L83.9 -62.5L84.9 -62.5L87.9 -62.5L88.9 -62.5L88.9 -61.5L87.9 -61.5L84.9 -61.5L83.9 -61.5" fill="rgb(8,30,8)" fill-opacity="1"></path><path d="M34.9,-86.5L34.9 -85.5L34.4 -85.4Q34.05 -83.9 31.9 -84.5L31.9 -85.5L31.9 -87.5L35 -89.3L35.9 -89.5L35.65 -88.75L34.9 -88.5L34.9 -87.5L34.9 -86.5M31.9,25.5L31.9 26.5L31.4 26.4Q30.9 24 30.9 21.5L31.7 22.6L31.9 23.5L31.9 25.5" fill="rgb(112,113,113)" fill-opacity="1"></path><path d="M25.4,-87.6L25.9 -87.5Q25.9 -87 25.7 -86.9Q24.9 -86.5 23.9 -86.5L22.9 -86.5Q22.9 -87 22.7 -87.1L20.9 -87.5L19.95 -87.4Q17.8 -86.9 17.9 -88.5L21.9 -88.5L22.9 -88.5Q25.05 -89.15 25.4 -87.6" fill="rgb(17,17,17)" fill-opacity="1"></path><path d="M22.4,-86.5Q22.6 -83.8 20.9 -83.5L20.9 -84.5L20.9 -87.5L22.7 -87.1Q22.9 -87 22.9 -86.5L22.4 -86.5" fill="rgb(62,62,62)" fill-opacity="1"></path><path d="M16.9,-88.5L12.9 -88.5L11.9 -88.5L11.9 -89.5L22.85 -89L22.9 -88.5L21.9 -88.5L17.9 -88.5L16.9 -88.5" fill="rgb(31,31,31)" fill-opacity="1"></path><path d="M29.9,-82.5L29.7 -83.1Q26.45 -84.55 23.9 -86.5Q24.9 -86.5 25.7 -86.9Q25.9 -87 25.9 -87.5Q28.65 -86.25 31.05 -84.75Q31.4 -84.5 31.9 -84.5Q34.05 -83.9 34.4 -85.4L34.9 -85.5L34.9 -84.5L34.65 -83.75L33.9 -83.5L32.9 -83.5L32.9 -82.5L31.9 -82.5L30.9 -82.5L29.9 -82.5M4.65,-84.85Q0.4 -82 -3.1 -78.5Q-3.1 -79 -3.35 -79.25L-4.1 -79.5L-4.1 -80.5L-4.1 -81.5Q-1.7 -85.1 3.9 -85.45L4.9 -85.5L4.65 -84.85M-5.1,-61.5L-8.1 -61.5L-8.2 -62.05Q-9.7 -62.4 -9.1 -64.5Q-6.15 -63.95 -4.35 -62.25Q-4.1 -62 -4.1 -61.5L-5.1 -61.5" fill="rgb(43,43,43)" fill-opacity="1"></path><path d="M-3.1,-78.5Q0.4 -82 4.65 -84.85L4.9 -85.5Q5.9 -85.5 6.7 -85.9L6.9 -86.5Q10.35 -87.4 10.4 -84.5L10.9 -84.5Q11.65 -81.75 14.9 -81.55L15.9 -81.5Q16.7 -79.8 19.75 -80.95L19.9 -81.5L19.9 -82.5L20.65 -82.75L20.9 -83.5Q22.6 -83.8 22.4 -86.5L22.9 -86.5L23.9 -86.5Q26.45 -84.55 29.7 -83.1L29.9 -82.5L29.9 -69.5L29.9 -68.5L29.75 -67.95Q27.95 -67.45 26.9 -66.5L25.9 -66.5L24.9 -66.5L11.9 -66.5L11.9 -67.5L11.9 -68.5L11.7 -69.1Q10.2 -69.8 10.9 -72.5L10.65 -73.25L9.9 -73.5L9.75 -74.05Q4.85 -75.45 1.9 -69.5L1.9 -68.5L1.9 -67.5L0.9 -67.55Q-3.05 -68.05 -3.1 -72.5L-3.1 -73.5L-3.1 -78.5" fill="rgb(242,242,242)" fill-opacity="1"></path><path d="M18.9,-81.5L15.9 -81.5L14.9 -81.55Q11.65 -81.75 10.9 -84.5L10.9 -85.5L10.9 -87.5Q11.9 -87.5 12.7 -87.9L12.9 -88.5L16.9 -88.5L17.9 -88.5Q17.8 -86.9 19.95 -87.4L20.9 -87.5L20.9 -84.5L20.9 -83.5L20.65 -82.75L19.9 -82.5L19.9 -81.5L18.9 -81.5M32.9,-68.5L32.9 -67.5L32.7 -66.9Q30.25 -65.85 30.9 -68.5L30.9 -69.5L30.9 -70.5L31.9 -70.5L32.9 -70.5L32.9 -68.5" fill="rgb(3,3,3)" fill-opacity="1"></path><path d="M32.9,-76.5L32.9 -75.5L31.9 -75.5L32 -76.5Q32.6 -79.2 30.9 -79.5L30.9 -80.5L30.9 -82.5L31.9 -82.5L32.9 -82.5L32.9 -76.5" fill="rgb(66,66,66)" fill-opacity="1"></path><path d="M32.9,-67.5L32.9 -68.5L32.9 -70.5L32.9 -71.5L32.9 -75.5L32.9 -76.5L32.9 -82.5L32.9 -83.5L33.9 -83.5L33.9 -68.5L33.9 -67.5L32.9 -67.5" fill="rgb(181,181,181)" fill-opacity="1"></path><path d="M29.9,-68.5L29.9 -69.5L29.9 -82.5L30.9 -82.5L30.9 -80.5L30.9 -79.5L30.9 -73.5L30.9 -72.5L30.9 -71.5L30.9 -70.5L30.9 -69.5L30.9 -68.5L29.9 -68.5" fill="rgb(168,168,168)" fill-opacity="1"></path><path d="M30.9,-73.5L30.9 -79.5Q32.6 -79.2 32 -76.5L31.9 -75.5L32 -74.55Q32.55 -72.4 30.9 -72.5L30.9 -73.5" fill="rgb(100,100,100)" fill-opacity="1"></path><path d="M32.9,-71.5L32.9 -70.5L31.9 -70.5L30.9 -70.5L30.9 -71.5L30.9 -72.5Q32.55 -72.4 32 -74.55L31.9 -75.5L32.9 -75.5L32.9 -71.5" fill="rgb(33,33,33)" fill-opacity="1"></path><path d="M6.9,-89.5L10.9 -89.5L11.9 -89.5L11.9 -88.5L10.9 -88.5L6.9 -88.5L6.9 -89.5M42.15,58.7Q41.9 59 41.9 59.5L40.9 59.5L40.9 58.5L40.9 54.5Q43.85 56.5 42.15 58.7" fill="rgb(59,59,59)" fill-opacity="1"></path><path d="M9.9,-87.5L5.9 -87.5L5.9 -88.5L6.9 -88.5L10.9 -88.5L11.9 -88.5L12.9 -88.5L12.7 -87.9Q11.9 -87.5 10.9 -87.5L9.9 -87.5" fill="rgb(16,16,16)" fill-opacity="1"></path><path d="M10.4,-84.5Q10.35 -87.4 6.9 -86.5Q6.4 -86.5 6.15 -86.75Q5.9 -87 5.9 -87.5L9.9 -87.5L10.9 -87.5L10.9 -85.5L10.9 -84.5L10.4 -84.5" fill="rgb(52,52,52)" fill-opacity="1"></path><path d="M15.9,-81.5L18.9 -81.5L19.9 -81.5L19.75 -80.95Q16.7 -79.8 15.9 -81.5" fill="rgb(195,195,195)" fill-opacity="1"></path><path d="M8.9,-69.5L8.9 -72.5L8.9 -73.5L9.9 -73.5L10.65 -73.25L10.9 -72.5L9.9 -72.5L9.9 -69.5L9.9 -68.5L8.9 -68.5L8.9 -69.5" fill="rgb(85,77,73)" fill-opacity="1"></path><path d="M10.9,-68.5L10.9 -64.5L10.9 -63.5Q10.4 -63.5 10.15 -63.75Q9.9 -64 9.9 -64.5L9.9 -65.5L9.9 -68.5L9.9 -69.5L9.9 -72.5L10.9 -72.5Q10.2 -69.8 11.7 -69.1L11.9 -68.5L10.9 -68.5" fill="rgb(38,35,34)" fill-opacity="1"></path><path d="M21.9,-62.5Q21.2 -59.8 22.7 -59.1Q22.9 -59 22.9 -58.5L21.9 -58.5L21.9 -57.5L20.9 -57.5L20.85 -58.5Q20.35 -61.95 16.9 -62.5L15.9 -62.5L11.9 -62.5Q11.4 -62.5 11.15 -62.75Q10.9 -63 10.9 -63.5L10.9 -64.5L10.9 -68.5L11.9 -68.5L11.9 -67.5L11.9 -66.5L13 -65.7L13.9 -65.5Q13.8 -63.9 15.95 -64.4L16.9 -64.5Q17.2 -62.8 19.9 -63.4L20.9 -63.5Q20.9 -63 21.15 -62.75Q21.4 -62.5 21.9 -62.5" fill="rgb(18,17,17)" fill-opacity="1"></path><path d="M25.9,-65.5L24.9 -65.5L21.9 -65.5L20.9 -65.5L13.9 -65.5L13 -65.7L11.9 -66.5L24.9 -66.5L25.9 -66.5L25.9 -65.5" fill="rgb(189,189,189)" fill-opacity="1"></path><path d="M20.9,-46.5L21 -45.55Q21.55 -43.4 19.9 -43.5L18.9 -43.5L14.9 -43.5L13.9 -43.6Q10.95 -44.05 8.9 -45.5Q8.4 -45.5 8.15 -45.75L2.9 -51.5L2.65 -52.35Q1.55 -54.15 1.9 -57.5L1.9 -58.5L1.9 -59.5L1.9 -62.5Q3.6 -62.8 3 -65.5L2.9 -66.5L2.9 -67.5Q5.2 -70.2 8.05 -72.25L8.9 -72.5L8.9 -69.5L8.9 -68.5Q8.9 -66.5 9.35 -64.6L9.9 -64.5Q9.9 -64 10.15 -63.75Q10.4 -63.5 10.9 -63.5Q10.9 -63 11.15 -62.75Q11.4 -62.5 11.9 -62.5Q13.2 -60.8 16.75 -61.95L16.9 -62.5Q20.35 -61.95 20.85 -58.5L20.9 -57.5L20.9 -53.5L20.9 -52.5L20.9 -47.5L20.9 -46.5" fill="rgb(129,113,106)" fill-opacity="1"></path><path d="M16.75,-61.95Q13.2 -60.8 11.9 -62.5L15.9 -62.5L16.9 -62.5L16.75 -61.95" fill="rgb(77,67,64)" fill-opacity="1"></path><path d="M20.9,-63.5L19.9 -63.4Q17.2 -62.8 16.9 -64.5L20.8 -64.05L20.9 -63.5" fill="rgb(29,29,29)" fill-opacity="1"></path><path d="M24.9,-64.4L25.9 -64.5L25.8 -63.95L21.9 -63.5L21.9 -62.5Q21.4 -62.5 21.15 -62.75Q20.9 -63 20.9 -63.5L20.8 -64.05L16.9 -64.5L15.95 -64.4Q13.8 -63.9 13.9 -65.5L20.9 -65.5L21.9 -65.5Q22.2 -63.8 24.9 -64.4" fill="rgb(44,44,44)" fill-opacity="1"></path><path d="M23.9,-57.5L23.9 -56.5L23.9 -48.5L23.9 -47.5L22.9 -47.5L22.9 -44.5L22.9 -43.5L22.65 -42.65L20.9 -40.5L20.7 -41.4L19.9 -42.5L19.9 -43.5Q21.55 -43.4 21 -45.55L20.9 -46.5Q22.6 -47.8 22 -51.5L21.9 -52.5L21.9 -53.5Q23.6 -54.3 23 -57.5L22.9 -58.5L23.9 -58.5L23.9 -57.5M8.9,-73.5L8.9 -72.5L8.05 -72.25Q5.2 -70.2 2.9 -67.5L2.9 -66.5Q2.4 -66.5 2.15 -66.75Q1.9 -67 1.9 -67.5L1.9 -68.5L1.9 -69.5Q4.85 -75.45 9.75 -74.05L9.9 -73.5L8.9 -73.5" fill="rgb(30,29,28)" fill-opacity="1"></path><path d="M9.35,-64.6Q8.9 -66.5 8.9 -68.5L9.9 -68.5L9.9 -65.5L9.9 -64.5L9.35 -64.6" fill="rgb(107,94,88)" fill-opacity="1"></path><path d="M1,-57.3L-0.1 -56.5L0 -57.5Q0.6 -61.2 -1.1 -62.5Q-1.1 -63 -1.35 -63.35Q-3.4 -66.7 -5.1 -70.5Q-3.45 -70.4 -3.6 -72.5L-3.1 -72.5Q-3.05 -68.05 0.9 -67.55L1.9 -67.5Q1.9 -67 2.15 -66.75Q2.4 -66.5 2.9 -66.5L3 -65.5Q3.6 -62.8 1.9 -62.5L0.9 -62.5Q0.9 -60.5 1.35 -58.6L1.9 -58.5L1.9 -57.5L1 -57.3" fill="rgb(45,43,43)" fill-opacity="1"></path><path d="M1.9,-58.5L1.35 -58.6Q0.9 -60.5 0.9 -62.5L1.9 -62.5L1.9 -59.5L1.9 -58.5" fill="rgb(53,50,48)" fill-opacity="1"></path><path d="M-0.1,-56.5L1 -57.3L1.9 -57.5Q1.55 -54.15 2.65 -52.35L2.9 -51.5L2.65 -50.75L1.9 -50.5L1.65 -51.2Q0 -52.6 -0.1 -55.5L-0.1 -56.5" fill="rgb(30,29,29)" fill-opacity="1"></path><path d="M8.65,-44.75L7.9 -44.5L7 -44.7L5.9 -45.5Q5.4 -45.5 5.25 -45.75L1.9 -50.5L2.65 -50.75L2.9 -51.5L8.15 -45.75Q8.4 -45.5 8.9 -45.5L8.65 -44.75" fill="rgb(38,35,35)" fill-opacity="1"></path><path d="M30.9,-68.5Q30.25 -65.85 32.7 -66.9L32.9 -67.5L33.9 -67.5L37.8 -67.05L37.9 -66.5L37.65 -65.75L36.9 -65.5L35.9 -65.45Q30.15 -64.75 26.9 -66.5Q27.95 -67.45 29.75 -67.95L29.9 -68.5L30.9 -68.5" fill="rgb(37,37,37)" fill-opacity="1"></path><path d="M25.9,-65.5L25.9 -66.5L26.9 -66.5Q30.15 -64.75 35.9 -65.45L36.9 -65.5L36.9 -64.5L35.9 -64.5L25.9 -64.5L25.9 -65.5M39.8,-46.95Q35.15 -45.75 32.9 -47.5L38.9 -47.5L39.9 -47.5L39.8 -46.95" fill="rgb(104,105,105)" fill-opacity="1"></path><path d="M25.9,-64.5L24.9 -64.4Q22.2 -63.8 21.9 -65.5L24.9 -65.5L25.9 -65.5L25.9 -64.5" fill="rgb(24,24,24)" fill-opacity="1"></path><path d="M21.9,-57.5L21.9 -58.5L22.9 -58.5L23 -57.5Q23.6 -54.3 21.9 -53.5L21.9 -54.5L21.9 -57.5" fill="rgb(11,11,10)" fill-opacity="1"></path><path d="M21.9,-54.5L21.9 -53.5L21.9 -52.5L20.9 -52.5L20.9 -53.5L20.9 -57.5L21.9 -57.5L21.9 -54.5" fill="rgb(71,63,59)" fill-opacity="1"></path><path d="M26.4,-51.5Q26.65 -55.75 23.9 -56.5L23.9 -57.5L23.9 -58.5Q27.4 -57.5 26.95 -52.5L26.9 -51.5L26.4 -51.5" fill="rgb(120,121,121)" fill-opacity="1"></path><path d="M20.9,-47.5L20.9 -52.5L21.9 -52.5L22 -51.5Q22.6 -47.8 20.9 -46.5L20.9 -47.5" fill="rgb(93,81,77)" fill-opacity="1"></path><path d="M45.3,-41.7Q45.4 -41.5 45.9 -41.5L45.9 -40.5Q48.65 -38.75 53.8 -39.95L53.9 -40.5Q57.35 -41.05 59.65 -42.8L59.9 -43.5Q61.4 -44.5 62.3 -46.3L62.9 -46.5L62.9 -42.5L62.9 -41.5L61.9 -41.5L61.9 -39.5L61.9 -38.5L61.65 -37.65Q60.85 -36.55 58.9 -36.5Q61 -31.9 66.2 -38.25L66.9 -38.5Q67.55 -35.15 68.7 -32.4L68.9 -31.5L67.9 -31.5Q67.9 -32 67.7 -32.1L65.9 -32.5Q65.9 -31 66.35 -29.65Q66.4 -29.5 66.9 -29.5Q66.45 -25.05 68.65 -23.2L68.9 -22.5Q70.55 -16.5 70.85 -21.5L70.9 -22.5Q72.6 -22.2 72 -19.5L71.9 -18.5L71.9 -12.5L71.9 -11.5Q71.9 -9.5 72.35 -7.6L72.9 -7.5L72.9 -5.5L72.9 -4.5L72.9 0.5L72.9 1.5Q68.5 -9.65 62.75 -19Q56.9 -28.5 42.9 -29.5L41.9 -29.5L38.9 -29.5L38.9 -28.5L37.9 -28.4Q30.2 -26.7 27.9 -19.5L27.9 -17.5L27.9 -16.5L26.9 -16.5L26.9 -15.5L25.9 -15.5Q25.9 -8.5 26.4 -1.55L26.9 -1.5Q26.9 2.5 27.4 6.45L27.9 6.5Q27.9 8.5 28.35 10.4L28.9 10.5L28.9 12.5L28.9 13.5Q28.9 16 29.4 18.4L29.9 18.5Q29.9 20 30.35 21.35Q30.4 21.5 30.9 21.5Q30.9 24 31.4 26.4L31.9 26.5Q31.9 27.5 32.3 28.3L32.9 28.5Q33.55 32.35 35.25 35.3L35.9 35.5L36.7 36.6L36.9 37.5Q38.7 43.7 44 46.3L44.9 46.5Q45.2 48.2 47.9 47.6L48.9 47.5Q50.2 49.2 53.75 48.05L53.9 47.5L54.9 47.5L55.9 47.5Q57.9 47 59.7 46.1L59.9 45.5Q65.15 44.25 68.2 40.75Q68.4 40.5 68.9 40.5Q69.9 37.5 71.3 34.7L71.9 34.5Q71.9 36 72.35 37.35L72.9 37.5L72.9 38.5L72.9 39.5L72.9 40.5Q72.4 40.5 72.25 40.75Q63.35 53.95 53.9 66.5L55 67.3L55.9 67.5L55.8 68.05L51.9 68.5L50.9 68.5L45.9 68.5L44.9 68.5L44.9 67.5L44.9 62.5Q44.9 62 45.15 61.65Q49.6 55.45 40.9 53.5L40.9 54.5L40.9 58.5L40.9 59.5L40.9 68.5L40.9 69.5L40.65 70.3Q38.5 73.1 34.9 74.5L33.9 74.5L30.9 74.5L30.15 74.25L25.9 69.5L26 68.5Q26.6 64.8 24.9 63.5L25.1 62.6Q27.9 57.25 23.9 54.5L23.65 53.75L22.9 53.5L22.95 52.5Q23.65 47.75 21.9 45.5L20.9 45.45Q19.2 45.2 18.9 43.5Q21.6 43.2 21.85 40.5L21.9 39.5L21.85 39L11.9 38.5L11.9 39.5L11.65 40.25L10.9 40.5L10.9 41.5L10.4 41.55Q10.1 44.2 7.9 44.5L7.9 45.5L7.9 46.5L7.9 52.5L7.9 53.5L6.95 53.35Q-3 49.9 -5.1 38.5L-5.1 37.5L-5.1 30.5L-5.1 29.5L-5.1 25.5L-5.05 24.5Q-4.35 19.75 -6.1 17.5L-6.1 16.5L-6.1 11.5L-6.1 10.5L-6.1 -7.5L-6.1 -8.5L-6.1 -14.5Q-5.6 -14.5 -5.35 -14.75Q-5.1 -15 -5.1 -15.5Q-3.4 -15.8 -3.15 -17.5L-3.1 -18.5Q-1.75 -20.15 -1.2 -22.5L-1.1 -23.5Q1 -25.9 1.8 -29.5L1.9 -30.5Q3.6 -31.8 3 -35.5L2.9 -36.5Q5.7 -34.3 9 -32.7L9.9 -32.5Q10.7 -30.8 13.75 -31.95L13.9 -32.5L13.9 -33.5L13.9 -34.5L13.8 -35.5L12.9 -39.5L11.9 -39.45Q4.95 -38.55 3.9 -43.5L5.65 -44.75L5.9 -45.5L7 -44.7L7.9 -44.5Q8.9 -41.5 11.95 -40.65L12.9 -40.5L12.9 -39.5L20.85 -40L20.9 -40.5L22.65 -42.65L22.9 -43.5Q24.6 -43.8 24 -46.5L23.9 -47.5L23.9 -48.5L23.9 -56.5Q26.65 -55.75 26.4 -51.5L26.9 -51.5Q27.4 -50.5 28.15 -49.75Q28.4 -49.5 28.9 -49.5Q29.9 -48 31.9 -47.6L32.9 -47.5Q35.15 -45.75 39.8 -46.95L39.9 -47.5L42.75 -47.95L42.9 -48.5L43.9 -48.5Q43.9 -46 44.4 -43.6L44.9 -43.5Q44.9 -42.5 45.3 -41.7M11.9,11.5L11.9 10.5L11.9 8.5Q17.75 4.35 18.85 -4.5L18.9 -5.5L19.45 -5.6Q20.65 -10.25 18.9 -12.5L18.7 -13.35L15.9 -17.5L15.7 -18.15Q13.05 -19.65 8.9 -19.5L8.9 -18.5L8.15 -18.25Q1.5 -11.4 -2.1 -1.5L-2.1 1.5L-2.1 2.5L-3.1 2.5L-3.1 3.5L-4.1 3.5Q-4.1 6.5 -3.6 9.4L-3.1 9.5L-2.65 13.4L-2.1 13.5L-0.85 15.25L-0.1 15.5Q2.5 19.85 7.7 17.1Q7.9 17 7.9 16.5L8.65 16.25L8.9 15.5Q11.05 14.65 11.75 12.45L11.9 11.5" fill="rgb(83,83,83)" fill-opacity="1"></path><path d="M31.9,-47.6Q29.9 -48 28.9 -49.5Q34.55 -48.15 41.9 -48.5L42.9 -48.5L42.75 -47.95L39.9 -47.5L38.9 -47.5L32.9 -47.5L31.9 -47.6" fill="rgb(129,130,130)" fill-opacity="1"></path><path d="M24,-46.5Q24.6 -43.8 22.9 -43.5L22.9 -44.5L22.9 -47.5L23.9 -47.5L24 -46.5" fill="rgb(51,50,49)" fill-opacity="1"></path><path d="M19.9,-42.5L20.7 -41.4L20.9 -40.5L19.9 -40.5L13.9 -40.5L13.9 -41.5L16.75 -41.95L16.9 -42.5L18.9 -42.5L19.9 -42.5" fill="rgb(11,11,11)" fill-opacity="1"></path><path d="M13.9,-40.5L19.9 -40.5L20.9 -40.5L20.85 -40L12.9 -39.5L12.9 -40.5L13.9 -40.5" fill="rgb(51,51,51)" fill-opacity="1"></path><path d="M42.8,-28.95L38.9 -28.5L38.9 -29.5L41.9 -29.5L42.9 -29.5L42.8 -28.95" fill="rgb(110,111,111)" fill-opacity="1"></path><path d="M71.9,33.5L71.9 34.5L71.3 34.7Q69.9 37.5 68.9 40.5Q68.4 40.5 68.2 40.75Q65.15 44.25 59.9 45.5L58.9 45.5Q56.95 45.55 55.9 46.5L54.9 46.5L48.9 46.5L48.8 45.95L44.9 45.5L44.2 45.25Q40.85 41.05 36.9 37.5L36.7 36.6L35.9 35.5L35.85 34.5Q35.25 30.65 32.9 28.5L33 27.5Q33.6 24.3 31.9 23.5L31.7 22.6L30.9 21.5L31 20.5Q31.6 17.8 29.9 17.5L29.9 16.5L29.9 13.5L30 12.5Q30.6 9.8 28.9 9.5L28.9 8.5L28.9 5.5L29 4.5Q29.6 1.3 27.9 0.5L27.9 -0.5L27.9 -1.5L27.9 -2.5L27.9 -16.5L27.9 -17.5L27.9 -19.5Q30.2 -26.7 37.9 -28.4L38.9 -28.5L42.8 -28.95L42.9 -29.5Q56.9 -28.5 62.75 -19Q68.5 -9.65 72.9 1.5L72.9 2.5L72.9 6.5L72.9 7.5L72.9 15.5L72.9 16.5L71.9 16.5L71.9 24.5L71.9 25.5L71.9 30.5L71.9 31.5L71.9 33.5" fill="rgb(153,155,155)" fill-opacity="1"></path><path d="M18.9,-42.5L16.9 -42.5L16 -42.7L14.9 -43.5L18.9 -43.5L19.9 -43.5L19.9 -42.5L18.9 -42.5" fill="rgb(86,77,72)" fill-opacity="1"></path><path d="M8.9,-45.5Q10.95 -44.05 13.9 -43.6L14.9 -43.5L16 -42.7L16.9 -42.5L16.75 -41.95L13.9 -41.5L13.9 -40.5L12.9 -40.5L11.95 -40.65Q8.9 -41.5 7.9 -44.5L8.65 -44.75L8.9 -45.5" fill="rgb(47,43,41)" fill-opacity="1"></path><path d="M0.65,-38.3Q-0.4 -39.7 -3.1 -39.5L-3.3 -40.4L-4.1 -41.5Q-3.6 -41.5 -3.35 -41.75Q-3.1 -42 -3.1 -42.5Q-0.05 -40.55 3.75 -39.05L3.9 -38.5L2.9 -38.5L1.9 -38.5L1.9 -37.5L0.9 -37.5L0.65 -38.3" fill="rgb(30,41,30)" fill-opacity="1"></path><path d="M12.9,-32.5L9.9 -32.5L9 -32.7Q5.7 -34.3 2.9 -36.5L2.65 -37.25L1.9 -37.5L1.9 -38.5L2.9 -38.5L3.9 -38.5Q7.25 -35.35 12.9 -34.55L13.9 -34.5L13.9 -33.5L13.9 -32.5L12.9 -32.5" fill="rgb(15,19,15)" fill-opacity="1"></path><path d="M17.9,60.5L9.9 60.5L8.9 60.4Q-6.5 57.4 -11.1 43.5L-11.1 42.5L-11.1 38.5L-11.05 37.5Q-10.35 32.75 -12.1 30.5L-12.1 29.5L-12.1 26.5L-11.55 26.35Q-10.4 23.3 -12.1 22.5L-12.1 21.5L-12.1 20.5L-12.1 15.5L-12.1 14.5L-12.1 1.5L-12.1 0.5L-12.1 -6.5L-12.1 -7.5L-12.1 -15.5Q-9.55 -28.95 -3.35 -38.65Q-3.1 -39 -3.1 -39.5Q-0.4 -39.7 0.65 -38.3L0.9 -37.5L0.65 -36.75Q-0.1 -36 -1.1 -35.5L-1.1 -34.5L-2.1 -34.5L-2.1 -30.5L-2.1 -29.5L-3 -29.3L-4.1 -28.5L-4.1 -24.5L-4.1 -23.5L-4.1 -21.5L-4.1 -20.5Q-4.1 -20 -4.35 -19.75Q-4.6 -19.5 -5.1 -19.5L-5.1 -16.5L-5.1 -15.5Q-5.1 -15 -5.35 -14.75Q-5.6 -14.5 -6.1 -14.5L-6.1 -8.5L-6.1 -7.5L-7.1 -7.5L-7.1 10.5L-7.1 11.5Q-7.1 15 -6.6 18.45L-6.1 18.5L-6.1 24.5L-6.1 25.5L-6.1 29.5L-6.1 30.5Q-6.1 34.5 -5.6 38.45L-5.1 38.5Q-3 49.9 6.95 53.35L7.9 53.5L8.9 53.5Q10.55 54.85 12.95 55.4L13.9 55.5Q14.2 57.2 16.9 56.6L17.9 56.5Q20.6 55.8 20.85 57.5L20.9 58.5L20.95 59.5Q21.05 61.15 18.9 60.5L17.9 60.5" fill="rgb(6,10,6)" fill-opacity="1"></path><path d="M2,-31.45Q2.55 -33.65 0.9 -33.5L0.9 -34.5Q2.55 -34.4 2.4 -36.5L2.9 -36.5L3 -35.5Q3.6 -31.8 1.9 -30.5L2 -31.45M28.9,13.5L28.9 12.5L28.9 10.5L28.9 9.5Q30.6 9.8 30 12.5L29.9 13.5L28.9 13.5M-2.65,13.4L-3.1 9.5L-3.1 8.5L-3.1 3.5L-3.1 2.5L-2.1 2.5L-2.1 12.5L-2.1 13.5L-2.65 13.4" fill="rgb(128,129,129)" fill-opacity="1"></path><path d="M-1.1,-31.5Q-0.1 -32 0.65 -32.75L0.9 -33.5Q2.55 -33.65 2 -31.45L1.9 -30.5L1.8 -29.5Q1 -25.9 -1.1 -23.5L-2 -23.7L-3.1 -24.5L-3.1 -25.5L-3.1 -27.5L-2.3 -28.6L-2.1 -29.5L-1.3 -30.6L-1.1 -31.5" fill="rgb(142,143,143)" fill-opacity="1"></path><path d="M13.9,-32.5L13.75 -31.95Q10.7 -30.8 9.9 -32.5L12.9 -32.5L13.9 -32.5" fill="rgb(54,56,54)" fill-opacity="1"></path><path d="M31.9,23.5Q33.6 24.3 33 27.5L32.9 28.5Q35.25 30.65 35.85 34.5L35.9 35.5L35.25 35.3Q33.55 32.35 32.9 28.5L32.3 28.3Q31.9 27.5 31.9 26.5L31.9 25.5L31.9 23.5M29.9,17.5Q31.6 17.8 31 20.5L30.9 21.5Q30.4 21.5 30.35 21.35Q29.9 20 29.9 18.5L29.9 17.5M8.9,-19.5Q13.05 -19.65 15.7 -18.15L15.9 -17.5L14.95 -17.65Q12.4 -18.55 8.9 -18.5L8.9 -19.5" fill="rgb(124,125,125)" fill-opacity="1"></path><path d="M18.7,-13.35L18.9 -12.5L18.9 -6.5L18.9 -5.5L18.85 -4.5Q17.75 4.35 11.9 8.5L11.9 10.5L11.9 11.5L11.3 11.7Q10.6 13.2 8.9 13.5L8.9 14.5Q8.4 14.5 8.1 14.75Q6.1 16.2 1.9 15.5L0.9 15.5L-0.1 15.5L-0.85 15.25L-2.1 13.5L-2.1 12.5L-2.1 2.5L-2.1 1.5L-2.1 -1.5Q1.5 -11.4 8.15 -18.25L8.9 -18.5Q12.4 -18.55 14.95 -17.65L15.9 -17.5L18.7 -13.35" fill="rgb(152,154,154)" fill-opacity="1"></path><path d="M18.9,-5.5L18.9 -6.5L18.9 -12.5Q20.65 -10.25 19.45 -5.6L18.9 -5.5M-11.1,-60.5L-10.1 -60.5L-10.1 -59.5L-11.1 -59.5L-18.1 -59.5L-18.1 -60.5L-11.1 -60.5" fill="rgb(121,122,122)" fill-opacity="1"></path><path d="M26.9,-1.5L26.4 -1.55Q25.9 -8.5 25.9 -15.5L26.9 -15.5L26.9 -2.5L26.9 -1.5M-3.1,9.5L-3.6 9.4Q-4.1 6.5 -4.1 3.5L-3.1 3.5L-3.1 8.5L-3.1 9.5" fill="rgb(94,94,94)" fill-opacity="1"></path><path d="M26.9,-2.5L26.9 -15.5L26.9 -16.5L27.9 -16.5L27.9 -2.5L27.9 -1.5L26.9 -1.5L26.9 -2.5M-4.1,-60.5L-3.1 -60.5L-3.1 -59.5L-4.1 -59.5L-10.1 -59.5L-10.1 -60.5L-5.1 -60.5L-4.1 -60.5" fill="rgb(134,136,136)" fill-opacity="1"></path><path d="M83.9,-60.5L84.9 -60.5L84.9 -59.5L83.9 -59.45Q77.65 -58.75 73.9 -60.5L83.9 -60.5M27.9,6.5L27.4 6.45Q26.9 2.5 26.9 -1.5L27.9 -1.5L27.9 -0.5L27.9 0.5L27.9 4.5L27.9 5.5L27.9 6.5" fill="rgb(107,108,108)" fill-opacity="1"></path><path d="M75.9,-48.5L67.9 -48.5L67.9 -49.5L79.9 -49.5L80.9 -49.5L80.65 -48.75L79.9 -48.5L78.9 -48.5L76.9 -48.5L75.9 -48.5" fill="rgb(116,119,118)" fill-opacity="1"></path><path d="M84.9,-49.5L84.8 -48.95Q82.1 -48.3 79.9 -47.5L79.9 -48.5L80.65 -48.75L80.9 -49.5L81.9 -49.5L82.9 -49.5L83.9 -49.5L84.9 -49.5" fill="rgb(48,152,48)" fill-opacity="1"></path><path d="M76.9,-47.5L76.9 -48.5L78.9 -48.5L79.9 -48.5L79.9 -47.5L78.95 -47.35Q77.9 -47 76.9 -46.5L76.9 -47.5" fill="rgb(59,141,59)" fill-opacity="1"></path><path d="M68.9,-47.5L75.9 -47.5L76.9 -47.5L76.9 -46.5Q76.4 -46.5 76.3 -46.3Q75.6 -44.8 73.9 -44.5L73 -44.7L71.9 -45.5L71.75 -46.05L68.9 -46.5L68.9 -47.5" fill="rgb(14,34,14)" fill-opacity="1"></path><path d="M76.9,-48.5L76.9 -47.5L75.9 -47.5L68.9 -47.5L68.9 -46.5L68.3 -46.7Q67.9 -47.5 67.9 -48.5L75.9 -48.5L76.9 -48.5" fill="rgb(65,73,66)" fill-opacity="1"></path><path d="M71.9,-43.5L71.9 -44.5L71.9 -45.5L73 -44.7L73.9 -44.5L73.65 -43.75L71.9 -42.5L71.9 -43.5" fill="rgb(39,63,39)" fill-opacity="1"></path><path d="M51.75,69.05L51.9 68.5L55.8 68.05L55.9 67.5Q68.1 65.2 72.35 54.65Q72.4 54.5 72.9 54.5L73.4 54.45Q74.65 45.75 72.9 39.5L72.9 38.5L72.9 37.5L72.9 36.5L72.9 31.5L72.9 30.5L72.9 25.5Q74.6 24.7 74 21.5L73.9 20.5L73.9 19.5L73.9 16.5L73.9 15.5L73.9 7.5L73.9 6.5L73.9 2.5L73.9 1.5L73.9 -4.5L74 -5.5Q74.6 -9.2 72.9 -10.5L72.9 -11.5L72.95 -12.5Q73.6 -16.75 71.9 -18.5L72 -19.5Q72.6 -22.2 70.9 -22.5L71 -23.5Q71.6 -26.7 69.9 -27.5L70 -28.45Q70.55 -30.65 68.9 -30.5L68.9 -31.5L68.7 -32.4Q67.55 -35.15 66.9 -38.5L66.7 -39.4L65.9 -40.5L65.9 -41.5Q67.95 -42.95 70.9 -43.4L71.9 -43.5L71.9 -42.5L71.7 -41.9Q70.9 -41.5 69.9 -41.5L74.8 -21.45L74.9 -20.5Q74.9 -18 75.4 -15.6L75.9 -15.5L75.9 -14.5L75.9 -13.5Q75.9 -11.5 76.35 -9.6L76.9 -9.5L76.9 -6.5L76.9 -5.5L76.9 -2.5L76.9 -1.5L76.9 1.5L76.9 2.5L76.9 18.5L76.9 19.5L76.9 20.5L76.9 21.5L75.9 21.5L75.9 27.5L75.9 28.5L75.9 36.5L75.9 37.5Q75.75 41.65 76.75 44.55L76.9 45.5L76.9 51.5L76.9 52.5L76.8 53.5Q75.1 61.7 69.9 66.5L69.9 67.5Q69.4 67.5 69.1 67.75Q65.55 70.65 59.9 71.5L58.95 71.65Q54.05 73.15 46.9 72.5L46.9 73.5Q46.4 73.5 46.1 73.75Q40.95 77.55 33.9 79.5L32.9 79.5L28.9 79.5L28 79.3Q23.75 77.15 22.9 71.5L22.9 70.5L22.9 57.5L22.9 56.5L23.7 55.4L23.9 54.5Q27.9 57.25 25.1 62.6L24.9 63.5Q24.9 66.5 25.4 69.4L25.9 69.5L30.15 74.25L30.9 74.5Q31.7 76.2 34.75 75.05L34.9 74.5Q38.5 73.1 40.65 70.3L40.9 69.5Q42.55 69.65 42 67.45L41.9 66.5Q43.6 66.2 43.4 63.5L43.9 63.5Q43.9 66 44.4 68.4L44.9 68.5L45.9 68.5Q47.65 70.2 51.75 69.05" fill="rgb(9,14,9)" fill-opacity="1"></path><path d="M59,-43.7L57.9 -44.5L57.9 -45.5Q60.05 -46.35 61.25 -48.3L61.9 -48.5L62.65 -48.25L62.9 -47.5L62.9 -46.5L62.3 -46.3Q61.4 -44.5 59.9 -43.5L59 -43.7" fill="rgb(30,28,27)" fill-opacity="1"></path><path d="M63.7,-38.9Q62.9 -38.5 61.9 -38.5L61.9 -39.5L61.9 -41.5L62.9 -41.5Q62.9 -40.5 63.3 -39.7Q63.4 -39.5 63.9 -39.5L63.7 -38.9" fill="rgb(113,115,114)" fill-opacity="1"></path><path d="M66.9,-38.5L66.2 -38.25Q61 -31.9 58.9 -36.5Q60.85 -36.55 61.65 -37.65L61.9 -38.5Q62.9 -38.5 63.7 -38.9L63.9 -39.5L65 -40.3L65.9 -40.5L66.7 -39.4L66.9 -38.5" fill="rgb(16,20,16)" fill-opacity="1"></path><path d="M66.9,-31.5L66.9 -30.5L66.9 -29.5Q66.4 -29.5 66.35 -29.65Q65.9 -31 65.9 -32.5L67.7 -32.1Q67.9 -32 67.9 -31.5L66.9 -31.5" fill="rgb(111,111,111)" fill-opacity="1"></path><path d="M69.9,-23.5L69.9 -22.5L68.9 -22.5L68.65 -23.2Q66.45 -25.05 66.9 -29.5L66.9 -30.5L66.9 -31.5L67.9 -31.5L68.9 -31.5L68.9 -30.5Q68.9 -28.5 69.35 -26.6L69.9 -26.5L69.9 -23.5" fill="rgb(141,143,143)" fill-opacity="1"></path><path d="M69.9,-26.5L69.35 -26.6Q68.9 -28.5 68.9 -30.5Q70.55 -30.65 70 -28.45L69.9 -27.5L69.9 -26.5" fill="rgb(93,94,93)" fill-opacity="1"></path><path d="M69.9,-26.5L69.9 -27.5Q71.6 -26.7 71 -23.5L70.9 -22.5L69.9 -22.5L69.9 -23.5L69.9 -26.5" fill="rgb(66,69,66)" fill-opacity="1"></path><path d="M54.9,-43.5Q57.05 -42.9 57.4 -44.4L57.9 -44.5L59 -43.7L59.9 -43.5L59.65 -42.8Q57.35 -41.05 53.9 -40.5L53.9 -41Q50.7 -40.8 49.9 -42.5L54.8 -43L54.9 -43.5" fill="rgb(46,42,41)" fill-opacity="1"></path><path d="M48,-42.7L46.9 -43.5L53.9 -43.5L54.9 -43.5L54.8 -43L49.9 -42.5L48.9 -42.5L48 -42.7" fill="rgb(98,86,82)" fill-opacity="1"></path><path d="M52.9,-40.5L53.9 -40.5L53.8 -39.95Q48.65 -38.75 45.9 -40.5L52.9 -40.5" fill="rgb(74,74,74)" fill-opacity="1"></path><path d="M45.9,-40.5L45.9 -41.5L48.75 -41.95L48.9 -42.5L49.9 -42.5Q50.7 -40.8 53.9 -41L53.9 -40.5L52.9 -40.5L45.9 -40.5" fill="rgb(25,25,25)" fill-opacity="1"></path><path d="M48.9,-42.5L48.75 -41.95L45.9 -41.5Q45.4 -41.5 45.3 -41.7Q44.9 -42.5 44.9 -43.5L44.9 -44.5L44.9 -45.5L45.9 -45.5L46.9 -45.5L46.9 -44.5L46.9 -43.5L48 -42.7L48.9 -42.5" fill="rgb(14,13,13)" fill-opacity="1"></path><path d="M75.4,-15.6Q74.9 -18 74.9 -20.5L75.7 -19.4L75.9 -18.5L75.9 -16.5L75.9 -15.5L75.4 -15.6" fill="rgb(12,64,12)" fill-opacity="1"></path><path d="M71.9,31.5L72.9 31.5L72.9 36.5L72.9 37.5L72.35 37.35Q71.9 36 71.9 34.5L71.9 33.5L71.9 31.5M71.9,-11.5L71.9 -12.5L71.9 -18.5Q73.6 -16.75 72.95 -12.5L72.9 -11.5L71.9 -11.5" fill="rgb(53,56,53)" fill-opacity="1"></path><path d="M75.9,-18.5Q77.6 -17.7 77 -14.5L76.9 -13.5L75.9 -13.5L75.9 -14.5L75.9 -15.5L75.9 -16.5L75.9 -18.5" fill="rgb(34,160,34)" fill-opacity="1"></path><path d="M76.35,-9.6Q75.9 -11.5 75.9 -13.5L76.9 -13.5L76.9 -10.5L76.9 -9.5L76.35 -9.6" fill="rgb(59,113,59)" fill-opacity="1"></path><path d="M69.9,-22.5L70.9 -22.5L70.85 -21.5Q70.55 -16.5 68.9 -22.5L69.9 -22.5" fill="rgb(127,129,129)" fill-opacity="1"></path><path d="M72.9,-8.5L72.9 -7.5L72.35 -7.6Q71.9 -9.5 71.9 -11.5L72.9 -11.5L72.9 -10.5L72.9 -8.5" fill="rgb(65,65,65)" fill-opacity="1"></path><path d="M72.9,-4.5L72.9 -5.5L72.9 -7.5L72.9 -8.5L72.9 -10.5Q74.6 -9.2 74 -5.5L73.9 -4.5L72.9 -4.5" fill="rgb(28,30,28)" fill-opacity="1"></path><path d="M72.9,1.5L72.9 0.5L72.9 -4.5L73.9 -4.5L73.9 1.5L73.9 2.5L72.9 2.5L72.9 1.5" fill="rgb(26,29,26)" fill-opacity="1"></path><path d="M76.9,-1.5L76.9 -2.5L76.9 -5.5Q78.6 -5.2 78 -2.5L77.9 -1.5L76.9 -1.5" fill="rgb(32,161,32)" fill-opacity="1"></path><path d="M76.9,1.5L76.9 -1.5L77.9 -1.5L77.9 1.5L77.9 2.5L76.9 2.5L76.9 1.5" fill="rgb(57,137,57)" fill-opacity="1"></path><path d="M84.9,-63.5L89.8 -63L89.9 -62.5L88.9 -62.5L87.9 -62.5L84.9 -62.5L84.9 -63.5" fill="rgb(27,160,27)" fill-opacity="1"></path><path d="M88.9,-62.5L89.9 -62.5Q91.55 -62.65 91 -60.45L90.9 -59.5L90.4 -59.5Q90.55 -61.65 88.9 -61.5L88.9 -62.5" fill="rgb(40,105,40)" fill-opacity="1"></path><path d="M83.9,-49.5L82.9 -49.5L82.9 -50.5Q87.05 -52.35 85.45 -59.4L84.9 -59.5L84.9 -60.5L84.9 -61.5L87.9 -61.5L88.9 -61.5Q90.55 -61.65 90.4 -59.5L90.9 -59.5L90.9 -58.5Q90.9 -51 84.9 -49.5L83.9 -49.5" fill="rgb(7,16,7)" fill-opacity="1"></path><path d="M77.9,16.5L77.9 18.5L77.9 19.5L76.9 19.5L76.9 18.5L76.9 2.5L77.9 2.5L77.9 4.5L77.9 5.5L77.9 15.5L77.9 16.5" fill="rgb(3,68,3)" fill-opacity="1"></path><path d="M72.9,2.5L73.9 2.5L73.9 6.5L73.9 7.5L72.9 7.5L72.9 6.5L72.9 2.5" fill="rgb(45,48,45)" fill-opacity="1"></path><path d="M72.9,7.5L73.9 7.5L73.9 15.5L73.9 16.5L72.9 16.5L72.9 15.5L72.9 7.5" fill="rgb(55,56,56)" fill-opacity="1"></path><path d="M77.9,15.5L77.9 5.5Q79.65 9.75 78.4 16.4L77.9 16.5L77.9 15.5" fill="rgb(28,163,28)" fill-opacity="1"></path><path d="M72.9,20.5L72.9 19.5L72.9 16.5L73.9 16.5L73.9 19.5L73.9 20.5L72.9 20.5" fill="rgb(42,44,43)" fill-opacity="1"></path><path d="M71.9,25.5L71.9 24.5L71.9 16.5L72.9 16.5L72.9 19.5L72.9 20.5L72.9 24.5L72.9 25.5L71.9 25.5" fill="rgb(132,134,134)" fill-opacity="1"></path><path d="M73.9,20.5L74 21.5Q74.6 24.7 72.9 25.5L72.9 24.5L72.9 20.5L73.9 20.5" fill="rgb(59,62,60)" fill-opacity="1"></path><path d="M76.9,26.5L76.9 25.5L76.9 21.5L76.9 20.5L76.9 19.5L77.9 19.5L77.9 25.5L77.9 26.5L76.9 26.5" fill="rgb(58,143,58)" fill-opacity="1"></path><path d="M76.9,27.5L76.9 28.5L75.9 28.5L75.9 27.5L75.9 21.5L76.9 21.5L76.9 25.5L76.9 26.5L76.9 27.5" fill="rgb(14,42,14)" fill-opacity="1"></path><path d="M55.9,46.5Q56.95 45.55 58.9 45.5L59.9 45.5L59.7 46.1Q57.9 47 55.9 47.5L55.9 46.5M44.2,45.25L44.9 45.5L44.9 46.5L44 46.3Q38.7 43.7 36.9 37.5Q40.85 41.05 44.2 45.25" fill="rgb(116,117,117)" fill-opacity="1"></path><path d="M-5.1,-16.5L-5.1 -19.5Q-4.6 -19.5 -4.35 -19.75Q-4.1 -20 -4.1 -20.5L-3.3 -19.4L-3.1 -18.5L-3.15 -17.5Q-3.4 -15.8 -5.1 -15.5L-5.1 -16.5M48.8,45.95L48.9 46.5L47.9 46.5L44.9 46.5L44.9 45.5L48.8 45.95" fill="rgb(136,138,138)" fill-opacity="1"></path><path d="M54.9,46.5L55.9 46.5L55.9 47.5L54.9 47.5L53.9 47.5L52.9 47.5L48.9 47.5L47.9 47.6Q45.2 48.2 44.9 46.5L47.9 46.5L48.9 46.5L54.9 46.5" fill="rgb(115,117,117)" fill-opacity="1"></path><path d="M53.9,47.5L53.75 48.05Q50.2 49.2 48.9 47.5L52.9 47.5L53.9 47.5" fill="rgb(93,94,94)" fill-opacity="1"></path><path d="M77.35,41.4Q76.9 39.5 76.9 37.5L76.9 36.5L76.9 28.5L76.9 27.5L76.9 26.5L77.9 26.5L77.9 40.5L77.9 41.5L77.35 41.4" fill="rgb(32,159,32)" fill-opacity="1"></path><path d="M71.9,31.5L71.9 30.5L71.9 25.5L72.9 25.5L72.9 30.5L72.9 31.5L71.9 31.5" fill="rgb(83,86,84)" fill-opacity="1"></path><path d="M76.9,36.5L76.9 37.5L75.9 37.5L75.9 36.5L75.9 28.5L76.9 28.5L76.9 36.5" fill="rgb(138,141,138)" fill-opacity="1"></path><path d="M76.9,45.5L76.75 44.55Q75.75 41.65 75.9 37.5L76.9 37.5Q76.9 39.5 77.35 41.4L77.9 41.5L77.9 44.5L77.9 45.5L76.9 45.5" fill="rgb(59,111,59)" fill-opacity="1"></path><path d="M72.9,53.5L72.9 54.5Q72.4 54.5 72.35 54.65Q68.1 65.2 55.9 67.5L55 67.3L53.9 66.5Q63.35 53.95 72.25 40.75Q72.4 40.5 72.9 40.5L72.9 53.5" fill="rgb(146,148,148)" fill-opacity="1"></path><path d="M72.9,40.5L72.9 39.5Q74.65 45.75 73.4 54.45L72.9 54.5L72.9 53.5L72.9 40.5" fill="rgb(38,43,39)" fill-opacity="1"></path><path d="M77.9,50.5L77.7 51.4L76.9 52.5L76.9 51.5L76.9 45.5L77.9 45.5L77.9 46.5L77.9 49.5L77.9 50.5" fill="rgb(6,60,6)" fill-opacity="1"></path><path d="M27.9,5.5L27.9 4.5L27.9 0.5Q29.6 1.3 29 4.5L28.9 5.5L27.9 5.5" fill="rgb(135,136,136)" fill-opacity="1"></path><path d="M27.9,5.5L28.9 5.5L28.9 8.5L28.9 9.5L28.9 10.5L28.35 10.4Q27.9 8.5 27.9 6.5L27.9 5.5" fill="rgb(114,115,115)" fill-opacity="1"></path><path d="M29.9,13.5L29.9 16.5L29.9 17.5L29.9 18.5L29.4 18.4Q28.9 16 28.9 13.5L29.9 13.5" fill="rgb(106,107,107)" fill-opacity="1"></path><path d="M11.75,12.45Q11.05 14.65 8.9 15.5L8.9 14.5L8.9 13.5Q10.6 13.2 11.3 11.7L11.9 11.5L11.75 12.45" fill="rgb(123,124,124)" fill-opacity="1"></path><path d="M8.9,15.5L8.65 16.25L7.9 16.5L6.9 16.6Q3.2 17.2 1.9 15.5Q6.1 16.2 8.1 14.75Q8.4 14.5 8.9 14.5L8.9 15.5" fill="rgb(131,133,133)" fill-opacity="1"></path><path d="M6.9,16.6L7.9 16.5Q7.9 17 7.7 17.1Q2.5 19.85 -0.1 15.5L0.9 15.5L1.9 15.5Q3.2 17.2 6.9 16.6" fill="rgb(109,109,109)" fill-opacity="1"></path><path d="M8.9,53.5L7.9 53.5L7.9 52.5L7.9 46.5L8.9 46.5L8.9 52.5L8.9 53.5" fill="rgb(133,134,134)" fill-opacity="1"></path><path d="M20.9,39.5L11.9 39.5L11.9 38.5L21.85 39L21.9 39.5L20.9 39.5" fill="rgb(98,99,99)" fill-opacity="1"></path><path d="M8.9,52.5L8.9 46.5Q11.45 46.05 10.95 42.5L10.9 41.5L10.9 40.5L11.65 40.25L11.9 39.5L20.9 39.5L21.9 39.5L21.85 40.5Q21.6 43.2 18.9 43.5Q19.2 45.2 20.9 45.45L21.9 45.5Q21.9 49.5 22.4 53.45L22.9 53.5L23.65 53.75L23.9 54.5L23.7 55.4L22.9 56.5L22.9 57.5L21.9 57.5L21.75 56.55Q21.1 54.8 17.9 55.5L16.9 55.5L13.9 55.5L12.95 55.4Q10.55 54.85 8.9 53.5L8.9 52.5" fill="rgb(149,151,151)" fill-opacity="1"></path><path d="M22.4,53.45Q21.9 49.5 21.9 45.5Q23.65 47.75 22.95 52.5L22.9 53.5L22.4 53.45" fill="rgb(94,95,94)" fill-opacity="1"></path><path d="M20.85,57.5Q20.6 55.8 17.9 56.5L17.9 55.5Q21.1 54.8 21.75 56.55L21.9 57.5L21.9 58.5L20.9 58.5L20.85 57.5" fill="rgb(71,82,72)" fill-opacity="1"></path><path d="M22.9,57.5L22.9 70.5L22.9 71.5L22.4 71.45Q21.9 65 21.9 58.5L21.9 57.5L22.9 57.5" fill="rgb(54,58,54)" fill-opacity="1"></path><path d="M24.9,63.5Q26.6 64.8 26 68.5L25.9 69.5L25.4 69.4Q24.9 66.5 24.9 63.5" fill="rgb(49,50,49)" fill-opacity="1"></path><path d="M17.9,55.5L17.9 56.5L16.9 56.6Q14.2 57.2 13.9 55.5L16.9 55.5L17.9 55.5" fill="rgb(46,52,47)" fill-opacity="1"></path><path d="M18.9,60.5L18.8 61Q13.15 62.25 9.9 60.5L17.9 60.5L18.9 60.5" fill="rgb(33,68,33)" fill-opacity="1"></path><path d="M30.9,74.5L33.9 74.5L34.9 74.5L34.75 75.05Q31.7 76.2 30.9 74.5" fill="rgb(23,27,23)" fill-opacity="1"></path><path d="M33.9,79.5L33.75 80.05Q30.2 81.2 28.9 79.5L32.9 79.5L33.9 79.5" fill="rgb(143,145,143)" fill-opacity="1"></path><path d="M77.9,49.5L77.9 46.5Q79.6 47.3 78.45 50.35L77.9 50.5L77.9 49.5" fill="rgb(32,163,32)" fill-opacity="1"></path><path d="M69.4,68.6L69.4 68.5L69.8 68.5L69.4 68.6" fill="rgb(30,159,30)" fill-opacity="1"></path><path d="M43.4,63.5Q43.6 66.2 41.9 66.5L41.9 65.5L41.9 59.5Q41.9 59 42.15 58.7Q43.85 56.5 40.9 54.5L40.9 53.5Q49.6 55.45 45.15 61.65Q44.9 62 44.9 62.5L43.9 62.5L43.9 63.5L43.4 63.5" fill="rgb(31,32,31)" fill-opacity="1"></path><path d="M40.9,69.5L40.9 68.5L40.9 59.5L41.9 59.5L41.9 65.5L41.9 66.5L42 67.45Q42.55 69.65 40.9 69.5" fill="rgb(51,52,51)" fill-opacity="1"></path><path d="M44.4,68.4Q43.9 66 43.9 63.5L43.9 62.5L44.9 62.5L44.9 67.5L44.9 68.5L44.4 68.4" fill="rgb(63,64,63)" fill-opacity="1"></path><path d="M59.9,71.5L59.75 72.05Q54.55 74.15 46.9 73.5L46.9 72.5Q54.05 73.15 58.95 71.65L59.9 71.5" fill="rgb(86,89,86)" fill-opacity="1"></path><path d="M-9.1,-69.5L-9.1 -68.5L-10.1 -68.5L-10.1 -69.5L-10.1 -73.5L-10.1 -74.5L-10.1 -77.5L-10.1 -78.5L-10.1 -79.5L-9.1 -79.5L-9.1 -69.5" fill="rgb(42,42,42)" fill-opacity="1"></path><path d="M-10.1,-77.5L-10.1 -74.5L-10.1 -73.5L-10.65 -73.6Q-11.1 -75.5 -11.1 -77.5L-10.1 -77.5" fill="rgb(19,21,19)" fill-opacity="1"></path><path d="M-3.1,-73.5L-3.1 -72.5L-3.6 -72.5Q-3.45 -70.4 -5.1 -70.5L-5.1 -71.5L-5.1 -78.5Q-4.6 -78.5 -4.35 -78.75Q-4.1 -79 -4.1 -79.5L-3.35 -79.25Q-3.1 -79 -3.1 -78.5L-3.1 -73.5" fill="rgb(8,8,8)" fill-opacity="1"></path><path d="M-15.15,-63L-26.1 -62.5L-26.1 -63.5L-16.1 -63.5L-15.1 -63.5L-15.15 -63" fill="rgb(56,103,56)" fill-opacity="1"></path><path d="M-9.1,-64.5L-9.65 -64.6Q-10.1 -66.5 -10.1 -68.5L-9.1 -68.5L-9.1 -65.5L-9.1 -64.5" fill="rgb(26,28,26)" fill-opacity="1"></path><path d="M-0.1,-55.5L-0.6 -55.5Q-0.4 -59.7 -2.1 -61.5L-2.1 -62.5L-1.1 -62.5Q0.6 -61.2 0 -57.5L-0.1 -56.5L-0.1 -55.5" fill="rgb(91,92,92)" fill-opacity="1"></path><path d="M-15.1,-65.5L-15.6 -65.6Q-16.1 -68 -16.1 -70.5Q-14.4 -69.7 -15 -66.5L-15.1 -65.5" fill="rgb(53,115,53)" fill-opacity="1"></path><path d="M-5.1,-60.5L-10.1 -60.5L-11.1 -60.5L-18.1 -60.5L-18.1 -61.5L-9.1 -61.5L-8.1 -61.5L-5.1 -61.5L-4.1 -61.5L-4.1 -60.5L-5.1 -60.5" fill="rgb(58,60,58)" fill-opacity="1"></path><path d="M-19.1,-54.5L-19.6 -54.6Q-20.1 -57 -20.1 -59.5L-19.1 -59.5L-19.1 -55.5L-19.1 -54.5" fill="rgb(73,76,74)" fill-opacity="1"></path><path d="M-3.1,-59.5L-2.6 -59.5Q-3.2 -53.45 -10.1 -59.5L-4.1 -59.5L-3.1 -59.5" fill="rgb(160,162,162)" fill-opacity="1"></path><path d="M-22.45,-47.45L-22.1 -47.5L-22.15 -47.1L-22.45 -47.45" fill="rgb(29,159,29)" fill-opacity="1"></path><path d="M-5.35,-42.75Q-5.6 -42.5 -6.1 -42.5L-7.1 -42.55Q-10.55 -43.05 -11.1 -46.5L-11.1 -47.5L-4.1 -47.5L-3.1 -47.5L-2.25 -47.3Q-0.3 -46.15 -5.1 -46.5L-5.1 -44.5L-5.1 -43.5Q-5.1 -43 -5.35 -42.75" fill="rgb(12,17,12)" fill-opacity="1"></path><path d="M-11.1,-47.5L-11.1 -46.5L-12.1 -46.6Q-14.45 -47.15 -15.1 -49.5L-4.15 -49L-4.1 -48.5L-5.1 -48.5L-11.1 -48.5L-11.1 -47.5" fill="rgb(103,105,104)" fill-opacity="1"></path><path d="M-11.1,-48.5L-5.1 -48.5L-4.1 -48.5L-3.35 -48.25Q-3.1 -48 -3.1 -47.5L-4.1 -47.5L-11.1 -47.5L-11.1 -48.5" fill="rgb(81,83,82)" fill-opacity="1"></path><path d="M-5.1,-43.5L-3.3 -43.1Q-3.1 -43 -3.1 -42.5Q-3.1 -42 -3.35 -41.75Q-3.6 -41.5 -4.1 -41.5L-5 -41.7L-6.1 -42.5Q-5.6 -42.5 -5.35 -42.75Q-5.1 -43 -5.1 -43.5" fill="rgb(31,43,31)" fill-opacity="1"></path><path d="M-1.3,-30.6L-2.1 -29.5L-2.1 -30.5L-2.1 -34.5L-1.1 -34.5L-1.1 -32.5L-1.1 -31.5L-1.3 -30.6" fill="rgb(35,35,35)" fill-opacity="1"></path><path d="M-3.35,-23.75Q-3.6 -23.5 -4.1 -23.5L-4.1 -24.5L-4.1 -28.5L-3 -29.3L-2.1 -29.5L-2.3 -28.6L-3.1 -27.5L-3.1 -25.5L-3.1 -24.5Q-3.1 -24 -3.35 -23.75" fill="rgb(53,53,53)" fill-opacity="1"></path><path d="M-12.1,0.5L-12.1 1.5L-13.1 1.5L-13.1 0.5L-13.1 -6.5L-12.1 -6.5L-12.1 0.5" fill="rgb(61,88,61)" fill-opacity="1"></path><path d="M-7.1,11.5L-7.1 10.5L-7.1 -7.5L-6.1 -7.5L-6.1 10.5L-6.1 11.5L-7.1 11.5" fill="rgb(38,38,38)" fill-opacity="1"></path><path d="M-6.1,18.5L-6.6 18.45Q-7.1 15 -7.1 11.5L-6.1 11.5L-6.1 16.5L-6.1 17.5L-6.1 18.5" fill="rgb(22,22,22)" fill-opacity="1"></path><path d="M-13.1,15.5L-13.1 14.5L-13.1 1.5L-12.1 1.5L-12.1 14.5L-12.1 15.5L-13.1 15.5" fill="rgb(97,116,97)" fill-opacity="1"></path><path d="M-12.1,15.5L-12.1 20.5L-12.1 21.5L-12.6 21.4Q-13.1 18.5 -13.1 15.5L-12.1 15.5" fill="rgb(142,151,142)" fill-opacity="1"></path><path d="M-6.1,25.5L-6.1 24.5L-6.1 18.5L-6.1 17.5Q-4.35 19.75 -5.05 24.5L-5.1 25.5L-6.1 25.5" fill="rgb(64,64,64)" fill-opacity="1"></path><path d="M-6.1,25.5L-5.1 25.5L-5.1 29.5L-5.1 30.5L-6.1 30.5L-6.1 29.5L-6.1 25.5" fill="rgb(27,27,27)" fill-opacity="1"></path><path d="M-6.1,30.5L-5.1 30.5L-5.1 37.5L-5.1 38.5L-5.6 38.45Q-6.1 34.5 -6.1 30.5" fill="rgb(50,50,50)" fill-opacity="1"></path><path d="M-12.1,26.5L-12.1 25.5L-12.1 22.5Q-10.4 23.3 -11.55 26.35L-12.1 26.5" fill="rgb(70,77,70)" fill-opacity="1"></path><path d="M-12.1,38.5L-12.1 37.5L-12.1 30.5Q-10.35 32.75 -11.05 37.5L-11.1 38.5L-12.1 38.5" fill="rgb(50,71,50)" fill-opacity="1"></path><path d="M-11.1,38.5L-11.1 42.5L-11.1 43.5L-11.6 43.4Q-12.1 41 -12.1 38.5L-11.1 38.5" fill="rgb(103,114,103)" fill-opacity="1"></path><path d="M-89.7,112.5L-91.15 112.5L-91.15 111.4Q-90.45 111.9 -89.7 112.5" fill="rgb(11,16,11)" fill-opacity="1"></path></g></g></g></g></svg>