<svg xmlns="http://www.w3.org/2000/svg" viewBox="0 0 130.12 186.94"><defs><style>.cls-1{fill:#515151;stroke-width:3px;}.cls-1,.cls-3,.cls-6{stroke:#2d2d2d;stroke-miterlimit:10;}.cls-2{fill:#989a9a;}.cls-3{fill:#fff;}.cls-4{fill:#212121;}.cls-5{fill:#230000;opacity:0.23;}.cls-6{fill:#7e7069;}</style></defs><title>CowDown</title><g id="Слой_2" data-name="Слой 2"><g id="Outlines"><path class="cls-1" d="M49.56,123.32H77.14a30.34,30.34,0,0,0,30.25-30.25V49.44A30.34,30.34,0,0,0,77.14,19.19h-6.6V8.69A7.19,7.19,0,0,0,63.35,1.5h0a7.19,7.19,0,0,0-7.19,7.19v10.5h-6.6A30.34,30.34,0,0,0,19.31,49.44V93.07A30.34,30.34,0,0,0,49.56,123.32Z"/><path class="cls-2" d="M70.5,93.32C65.59,90,67.07,83.93,66,58.45c-.85-19.5-2.38-31.26,4.39-36.24a10.3,10.3,0,0,1,1.87-1.09,25.24,25.24,0,0,1,14.17,1C95,25.37,99.13,32.46,100.56,35c7.23,12.72,3.33,26.8,1.67,32.78-1.81,6.54-5.5,19.83-16.83,24.89C83.37,93.55,75.85,96.91,70.5,93.32Z"/><path class="cls-2" d="M50,77s4,15.62-5.19,26.28-18.41,3.45-18.41,3.45-4.93-23.53,7-29.36S49.23,71.5,50,77Z"/><path class="cls-2" d="M40.72,33.11s2,7.85-2.61,13.21-9.25,1.73-9.25,1.73S26.38,36.23,32.37,33.3,40.33,30.35,40.72,33.11Z"/><path class="cls-1" d="M76.1,184.28a66.67,66.67,0,0,1-30.58-1.33c-6.26-1.83-11.32-3.31-16.33-7.67C16.82,164.52,17,146.9,17,143.74c.32-11.55,4.35-24.07,4-23.32-.82,1.54-2.6,4.32-5.57,5.21-1,.31-1.92.3-6-.42-5.1-.9-7.66-1.37-7.87-2-.49-1.4,1.92-4.86,16.43-14.33a31.77,31.77,0,0,1,12.24-4.35c1.54-.18,1.82-.19,1.86-.19.93,0,1.91.31,2.29-.16A54,54,0,0,1,57,99.72c2.27,0,4.63.11,7.06.32,5.43,0,10.22,0,14.48.13a96.57,96.57,0,0,1,11.26.88c8,1.22,12.18,3.79,15.26,7a20.13,20.13,0,0,1,2.26,2.79,10,10,0,0,1,4-1.2c1.84-.13,4,.25,7.5,2.39,1.66,1,11.1,6.87,9.62,11.13-.68,2-3.43,2.79-5.62,3.46-5.6,1.69-8.53-.4-10.8,1.12s-1.33,5.2-.84,9c.25,1.95,0,2.94.13,4.58.15,2.35.77,20.46-8.82,31.69C96,180.6,87,182.25,76.1,184.28Z"/><path class="cls-2" d="M83.77,155.78c-.11-4.47,1.86-6.62,2.68-9.4,1.21-4.14.44-10.81-9.13-21.66l35.63-3.12a18.85,18.85,0,0,0-3.22,13.83c0,.53-.07,1.3-.16,2.23a52.28,52.28,0,0,1-2.36,10.85C105.5,153.25,100.89,160.4,93,167,93,167,84.08,168.34,83.77,155.78Z"/><path class="cls-2" d="M77.86,134.21c-2.15,1.19-3.21,1.39-5.14,2.72a30.08,30.08,0,0,0-3.5,3.09c-3.57,3-8.38,2.15-11.83,1.54a24.24,24.24,0,0,1-10.83-5,65.78,65.78,0,0,0-5.5-3.86c-5.77-3.62-8.65-5.42-12.27-5.2-1.9.12-2.59.68-3.75,0-2.66-1.51-2-6.18-4-6.85-1.62-.54-2.43,2.39-6,3.3-1.18.3-2.49.16-5.06-.15a56.52,56.52,0,0,1-6.48-1.16,94.59,94.59,0,0,1,10.85-9.26c4.49-3.27,7.5-5.43,12-6.65a25.43,25.43,0,0,1,7.92-.87,56.14,56.14,0,0,1,14.33-4.34c2.5-.4,4.81-.59,14.33-.48,10.48.12,15.84.19,21.79.92,9.69,1.18,13.52,2.77,16.88,5.5a26.45,26.45,0,0,1,5.17,5.7,10.17,10.17,0,0,1,3.58-1.65c5.94-1.38,10.85,3.66,11.63,4.48,3.27,2,5.17,4.56,4.75,6.36-.38,1.65-2.62,2.31-4.62,2.89-3.42,1-5.56.51-9,.58-2.66.05-2.94.38-8.12,1.16-15.54,2.32-18.34.17-22.31,3.9A23.3,23.3,0,0,1,77.86,134.21Z"/><path class="cls-3" d="M45.81,146.25a24.87,24.87,0,0,1-8.14-1.33c-5.85-2-9.86-6.2-9.86-11,0-6.81,8.06-12.33,18-12.33s18,5.52,18,12.33c0,4.15-3,7.83-7.6,10.06A23.91,23.91,0,0,1,45.81,146.25Z"/><path class="cls-4" d="M45.81,146.25a24.87,24.87,0,0,1-8.14-1.33,3,3,0,0,1-.93-2c0-2.67,4.42-4.82,9.87-4.82s9.87,2.16,9.87,4.82a2.53,2.53,0,0,1-.27,1.11A23.91,23.91,0,0,1,45.81,146.25Z"/><path class="cls-3" d="M81.93,146.25a25.22,25.22,0,0,1-11.07-2.41c-4.29-2.12-7.05-5.44-7.05-9.17,0-6.39,8.11-11.57,18.13-11.57s18.13,5.18,18.13,11.57c0,4.24-3.56,7.95-8.88,10A26.2,26.2,0,0,1,81.93,146.25Z"/><path class="cls-4" d="M82.8,146.25a25.22,25.22,0,0,1-11.07-2.41c.14-2.72,4.66-4.92,10.21-4.92s10.2,2.26,10.2,5a2.6,2.6,0,0,1-.09.67A26.2,26.2,0,0,1,82.8,146.25Z"/><path class="cls-5" d="M100.62,105.53c-3-1.06-6.89-1.85-10,0-1.51.91-1.93,1.91-2.78,2.74-4.41,4.29-15.9-.71-20.39-2.32-7-2.51-9.88-4.09-12.17-2.52s-1.31,4.28-3.18,6-6.48,2.06-17.67-3.88l.26-.17C41.67,101,49.24,101,64.39,101,82.05,101.05,93,101.06,100.62,105.53Z"/><ellipse class="cls-4" cx="52.64" cy="170.34" rx="6.25" ry="4.9"/><ellipse class="cls-4" cx="75.5" cy="170.34" rx="6.25" ry="4.9"/><path class="cls-6" d="M85.5,97.93s11.83,9.37,8.32,19.76c0,0-6,5.89-16,0,0,0-3.76-2.34-1.67-7.14a8.16,8.16,0,0,1,2.82-2.39c1.67-.84,2.51-.47,3.89-1.34a6.78,6.78,0,0,0,2.59-3.52A8.3,8.3,0,0,0,85.5,97.93Z"/><path class="cls-6" d="M42.64,97.93s-11.83,9.37-8.32,19.76c0,0,6,5.89,16,0,0,0,3.76-2.34,1.67-7.14a8.16,8.16,0,0,0-2.82-2.39c-1.67-.84-2.51-.47-3.89-1.34a6.78,6.78,0,0,1-2.59-3.52A8.3,8.3,0,0,1,42.64,97.93Z"/></g></g></svg>