<svg width="117" height="178" viewBox="-47 -89 117 178"><g><defs></defs></g><rect x="-47" y="-89" width="117" height="178" fill="#006600"></rect><g id="0"><defs></defs><g><g type="shape" id="0:1:163"><defs></defs><g transform="matrix(1,0,0,1,0,0)"><path d="M-8.55,-72.6L-8.55 -73.05L-7.45 -73.35L-8.55 -72.6M-6.45,-73.8L-5.85 -74.6L-5.55 -74.6Q-5.55 -74.1 -5.7 -74.05L-6.45 -73.8" fill="rgb(38,144,38)" fill-opacity="1"></path><path d="M-37.8,4.65Q-38.05 4.4 -38.55 4.4L-38.55 3.4Q-37.3 2.2 -34.6 1.9L-34.55 1.4L-29.65 0.9L-29.55 0.4L-29 0.25Q-27.85 -2.8 -29.55 -3.6L-29.55 -4.6L-29.55 -15.6L-29.5 -16.6Q-28.8 -22.35 -30.55 -25.6L-30.55 -26.6L-30.55 -28.6Q-29.8 -43.35 -26.65 -55.65L-26.55 -56.6Q-19.45 -66 -9.4 -72.35L-8.55 -72.6L-7.45 -73.35L-6.7 -73.55L-6.45 -73.8L-5.7 -74.05Q-5.55 -74.1 -5.55 -74.6Q-0.55 -76.1 3.55 -78.4L4.45 -78.6Q6.2 -80.4 5.55 -84.6L5.45 -85.6Q8.4 -86.65 10.65 -88.35L11.45 -88.6L17.45 -88.6L18.45 -88.6Q21.9 -87.55 23.8 -84.85Q23.95 -84.6 24.45 -84.6L24.45 -82.6L24.45 -81.6L23.45 -81.6Q22.95 -81.6 22.7 -81.85Q21.45 -83.1 19.45 -83.6L19.4 -84.1L11.45 -84.6L11.45 -83.6L10.55 -83.4Q8.95 -82.6 7.45 -81.6L6.45 -81.6Q6.45 -79.1 6.95 -76.7L7.45 -76.6L7.45 -75.6L7.45 -74.6L6.5 -74.45Q-17.05 -68.1 -24.55 -45.6L-24.55 -44.6L-25.55 -44.6L-25.55 -35.6L-25.55 -34.6L-26.55 -34.6L-26.55 -26.6L-26.55 -25.6Q-26.55 -19.1 -26.05 -12.65L-25.55 -12.6L-25.55 -11.6L-26.55 -11.6L-26.55 -4.6L-26.55 -3.6L-26.55 -0.6L-26.55 0.4L-26.55 1.4L-26.55 2.4L-27.55 2.45Q-30.35 2.6 -32.55 3.4L-33.55 3.4L-36.55 3.4L-36.55 4.4Q-36.55 4.9 -36.8 5.15L-37.55 5.4Q-37.55 4.9 -37.8 4.65" fill="rgb(9,13,9)" fill-opacity="1"></path><path d="M21.45,-31.6L21.4 -30.6Q19.6 -17.95 11.45 -11.6Q10.15 -10.4 7.6 -11.1Q-12.5 -16.65 -24.55 -30.6L-24.55 -31.6L-24.55 -32.6L-24.55 -44.6L-24.55 -45.6Q-17.05 -68.1 6.5 -74.45L7.45 -74.6L8.45 -74.6Q10.4 -74.55 11.6 -73.85Q11.95 -73.6 12.45 -73.6Q14.9 -72.05 16.25 -69.5L16.45 -68.6Q18.05 -64.7 18.95 -59.7L19.45 -59.6Q19.45 -58.6 19.85 -57.8L20.45 -57.6L20.45 -54.6L20.45 -53.6Q20.45 -51.1 20.95 -48.7L21.45 -48.6L21.45 -44.6L21.45 -43.6L21.45 -32.6L21.45 -31.6" fill="rgb(153,155,155)" fill-opacity="1"></path><path d="M-25.55,-31.6L-25.55 -32.6L-25.55 -34.6L-25.55 -35.6L-25.55 -44.6L-24.55 -44.6L-24.55 -32.6L-24.55 -31.6L-25.55 -31.6" fill="rgb(80,83,81)" fill-opacity="1"></path><path d="M-26.55,-25.6L-26.55 -26.6L-26.55 -34.6L-25.55 -34.6L-25.55 -32.6L-25.55 -31.6L-25.55 -26.6L-25.55 -25.6L-26.55 -25.6" fill="rgb(19,22,20)" fill-opacity="1"></path><path d="M-25.55,-13.6L-25.55 -25.6L-25.55 -26.6L-25.55 -31.6L-24.55 -31.6L-24.55 -30.6L-24.5 -29.6Q-23.8 -19.85 -25.55 -12.6L-25.55 -13.6" fill="rgb(60,61,61)" fill-opacity="1"></path><path d="M-26.55,-25.6L-25.55 -25.6L-25.55 -13.6L-25.55 -12.6L-26.05 -12.65Q-26.55 -19.1 -26.55 -25.6" fill="rgb(28,29,28)" fill-opacity="1"></path><path d="M44.35,-56.1Q39.35 -57.15 36.45 -55.6L36.45 -54.6L36.45 -53.6L36.25 -52.7Q33.75 -47.8 30.45 -43.6L30.45 -41.6L30.45 -40.6L29.45 -40.6L29.45 -33.6L29.45 -32.6Q29.7 -28.85 32.5 -27.75L33.45 -27.6Q36.1 -26.25 37.8 -23.85Q37.95 -23.6 38.45 -23.6Q39.25 -21.9 42.3 -23.05L42.45 -23.6Q49.65 -26.9 51.9 -35.5L52.45 -35.6L52.45 -44.6L52.45 -45.6Q49.7 -51.35 45.25 -55.35L44.45 -55.6L44.35 -56.1M57.45,-13.6L57.55 -12.6Q59.3 -3.25 54.45 -0.6L54.35 -1.15L50.45 -1.6Q49.95 -1.6 49.75 -1.85Q47.15 -4.8 45.45 -8.6L45.4 -9.1L38.45 -9.6L37.45 -9.6L36.45 -9.6L36.45 -8.6L35.45 -8.6L31.45 -8.6L31.45 -7.6L30.45 -7.6L26.45 -7.6L25.45 -7.6L22.45 -7.6L22.45 -6.6L21.5 -6.45Q19 -5.6 15.45 -5.6L15.35 -6.15L11.45 -6.6L10.45 -6.6L5.45 -6.6L5.45 -5.6L4.45 -5.6L3.5 -5.8Q-3.15 -8.5 -11.55 -9.6L-11.65 -10.15L-15.55 -10.6L-15.55 -9.6L-16.3 -9.35Q-17.55 -8.1 -19.55 -7.6Q-19.55 -6.6 -19.15 -5.8L-18.55 -5.6Q-18.55 -5.1 -18.8 -4.85Q-19.05 -4.6 -19.55 -4.6L-19.55 -3.6L-20.35 -3.35Q-22.45 -1.5 -25.55 -0.6L-25.55 -1.6L-25.55 -3.6L-25.55 -4.6L-25.55 -11.6L-25.55 -12.6Q-23.8 -19.85 -24.5 -29.6L-24.55 -30.6Q-12.5 -16.65 7.6 -11.1Q10.15 -10.4 11.45 -11.6Q19.6 -17.95 21.4 -30.6L21.45 -31.6L21.95 -31.7Q23.2 -38.85 21.45 -43.6L21.45 -44.6L21.45 -48.6L21.55 -49.6Q22.15 -52.8 20.45 -53.6L20.45 -54.6L20.45 -57.6L20.55 -58.6Q21.15 -61.3 19.45 -61.6L19.4 -62.6Q19.2 -66.85 16.45 -68.6L16.25 -69.5Q14.9 -72.05 12.45 -73.6L12.2 -74.4Q11.15 -75.8 8.45 -75.6L8.45 -74.6L7.45 -74.6L7.45 -75.6L7.45 -76.6L7.45 -77.6L7.45 -81.6Q8.95 -82.6 10.55 -83.4L11.45 -83.6L18.45 -83.6L19.45 -83.6Q21.45 -83.1 22.7 -81.85Q22.95 -81.6 23.45 -81.6Q27 -69.65 39.2 -65.75Q46.7 -63.35 50.5 -56.65Q54.35 -50 55.45 -40.6Q55.45 -33.6 55.95 -26.65L56.45 -26.6Q56.45 -20.1 56.95 -13.65L57.45 -13.6" fill="rgb(83,83,83)" fill-opacity="1"></path><path d="M-29.55,-15.6L-30.05 -15.65Q-30.55 -20.6 -30.55 -25.6Q-28.8 -22.35 -29.5 -16.6L-29.55 -15.6" fill="rgb(66,85,66)" fill-opacity="1"></path><path d="M-26.55,-3.6L-26.55 -4.6L-26.55 -11.6L-25.55 -11.6L-25.55 -4.6L-25.55 -3.6L-26.55 -3.6" fill="rgb(41,43,41)" fill-opacity="1"></path><path d="M-25.8,0.15L-26.55 0.4L-26.55 -0.6L-26.55 -3.6L-25.55 -3.6L-25.55 -1.6L-25.55 -0.6Q-25.55 -0.1 -25.8 0.15" fill="rgb(60,61,59)" fill-opacity="1"></path><path d="M-29.55,0.4L-29.55 -0.6L-29.55 -3.6Q-27.85 -2.8 -29 0.25L-29.55 0.4" fill="rgb(55,58,55)" fill-opacity="1"></path><path d="M-26.55,0.4L-25.8 0.15Q-25.55 -0.1 -25.55 -0.6Q-22.45 -1.5 -20.35 -3.35L-19.55 -3.6Q-18.55 -3.1 -17.5 -2.75L-16.55 -2.6Q-15.25 -0.9 -11.55 -1.1L-11.55 -0.6L-12.35 -0.35Q-14.8 1.6 -17.55 -0.6L-16.65 3.4L-16.55 4.4Q-16.55 4.9 -16.8 5.15L-17.55 5.4Q-17.55 4.9 -17.8 4.65L-20.55 2.4Q-20.55 1.9 -20.65 1.9L-26.55 1.4L-26.55 0.4" fill="rgb(22,22,21)" fill-opacity="1"></path><path d="M-15.55,-9.6L-15.55 -10.6L-11.65 -10.15L-11.55 -9.6L-12.55 -9.6L-15.55 -9.6M4.45,-5.6L5.45 -5.6L10.45 -5.6L11.45 -5.6L14.45 -5.6L15.45 -5.6L15.35 -5.1Q8.7 -3.85 4.45 -5.6" fill="rgb(56,56,56)" fill-opacity="1"></path><path d="M-9.55,-6.6L-14.55 -6.6L-14.55 -7.6L-8.65 -7.1L-8.55 -6.6L-9.55 -6.6" fill="rgb(45,42,39)" fill-opacity="1"></path><path d="M-15.55,-6.6Q-17.5 -6.55 -18.55 -5.6L-19.15 -5.8Q-19.55 -6.6 -19.55 -7.6Q-17.55 -8.1 -16.3 -9.35L-15.55 -9.6L-12.55 -9.6L-11.55 -9.6Q-3.15 -8.5 3.5 -5.8L4.45 -5.6Q8.7 -3.85 15.35 -5.1L15.45 -5.6Q19 -5.6 21.5 -6.45L22.45 -6.6L26.35 -7.05L26.45 -7.6L30.45 -7.6L31.45 -7.6L31.45 -6.6L30.5 -6.45Q27.7 -5.35 25.45 -3.6L24.45 -3.6Q24.45 -0.1 24.95 3.35L25.45 3.4Q25.05 8.8 28.5 10.25L29.45 10.4Q31.25 12.1 35.3 10.95L35.45 10.4Q37.4 10.35 38.6 9.65Q38.95 9.4 39.45 9.4L40.2 9.65L40.45 10.4L39.45 10.4Q39.45 11.4 39.85 12.2Q39.95 12.4 40.45 12.4L40.45 13.4L39.45 13.4L36.45 13.4L36.35 12.85L32.45 12.4L31.45 12.4L28.45 12.4L28.45 13.4L27.45 13.4L27.45 14.4L26.45 14.35Q23.1 14.05 21.45 15.4L21.2 14.65Q20.95 14.4 20.45 14.4L20.45 13.4Q22.55 14.05 22.9 12.5L23.45 12.4L23.95 12.3Q24.6 8.25 23.45 5.4L23.45 4.4L23.45 3.4L23.55 2.4Q24.2 -1.85 22.45 -3.6L21.45 -3.6L14.45 -3.6L13.45 -3.6L6.45 -3.6L5.45 -3.6L2.45 -3.6L2.45 -2.6L2.45 -1.6L2.45 -0.6L2.5 0.4Q3.25 6.2 0.45 8.4L3.7 12.15L4.45 12.4L4.45 13.4L3.45 13.4L-5.55 13.4L-5.55 14.4L-6.55 14.5L-14.55 16.4L-14.55 15.4Q-11.1 13.9 -12.3 12.25L-12.55 11.4L-12.55 10.4Q-10.45 9.8 -10.1 11.3L-9.55 11.4Q-8.75 13.1 -5.7 11.95Q-5.55 11.9 -5.55 11.4Q-2.4 9.55 -0.75 6.3L-0.55 5.4L0 5.3Q1.2 0.65 -0.55 -1.6L-0.7 -2.55Q-2.35 -6.8 -8.55 -6.6L-8.65 -7.1L-14.55 -7.6L-14.55 -6.6L-15.55 -6.6" fill="rgb(25,25,24)" fill-opacity="1"></path><path d="M-0.55,5.4L-0.75 6.3Q-2.4 9.55 -5.55 11.4L-6.55 11.4L-9.55 11.4L-10.1 11.3Q-10.45 9.8 -12.55 10.4Q-12.55 9.9 -12.7 9.85Q-14.5 9.35 -15.55 8.4L-15.45 7.4Q-14.85 4.7 -16.55 4.4L-16.65 3.4L-17.55 -0.6Q-14.8 1.6 -12.35 -0.35L-11.55 -0.6L-11.05 -0.6Q-11.3 -3.85 -16.55 -2.6L-17.5 -2.75Q-18.55 -3.1 -19.55 -3.6L-19.55 -4.6Q-19.05 -4.6 -18.8 -4.85Q-18.55 -5.1 -18.55 -5.6Q-17.5 -6.55 -15.55 -6.6L-14.55 -6.6L-9.55 -6.6L-8.55 -6.6Q-2.35 -6.8 -0.7 -2.55L-0.55 -1.6L-0.55 4.4L-0.55 5.4" fill="rgb(126,111,104)" fill-opacity="1"></path><path d="M-11.55,-1.1Q-15.25 -0.9 -16.55 -2.6Q-11.3 -3.85 -11.05 -0.6L-11.55 -0.6L-11.55 -1.1" fill="rgb(89,79,74)" fill-opacity="1"></path><path d="M36.45,-53.6L36.45 -54.6L36.45 -55.6Q39.35 -57.15 44.35 -56.1L44.45 -55.6L43.45 -55.65Q38.45 -56.1 36.45 -53.6M1.45,58.4L1.45 57.4L4.2 55.15L4.45 54.4Q6.6 53.55 7.8 51.6L8.45 51.4L9.45 51.4L9.2 52.15L1.45 59.4L1.45 58.4" fill="rgb(115,116,116)" fill-opacity="1"></path><path d="M38.45,-23.6Q37.95 -23.6 37.8 -23.85Q36.1 -26.25 33.45 -27.6L33.2 -28.3Q31.15 -29.8 30.45 -32.6L30.45 -33.6L30.45 -40.6L30.45 -41.6L30.45 -43.6Q33.75 -47.8 36.25 -52.7L36.45 -53.6Q38.45 -56.1 43.45 -55.65L44.45 -55.6L45.25 -55.35Q49.7 -51.35 52.45 -45.6L52.45 -44.6L52.45 -35.6L51.9 -35.5Q49.65 -26.9 42.45 -23.6L41.45 -23.6L38.45 -23.6" fill="rgb(151,153,153)" fill-opacity="1"></path><path d="M24.7,-80.85Q24.45 -81.1 24.45 -81.6L24.45 -82.6L24.45 -84.6Q26.15 -84.3 25.55 -81.6L25.45 -80.6Q24.95 -80.6 24.7 -80.85" fill="rgb(51,142,51)" fill-opacity="1"></path><path d="M62.45,-0.6Q70.95 8.35 70.5 19.3Q70.45 20.4 68.45 21.4L68.45 20.4L68.45 19.4L68.55 18.4Q69.15 15.7 67.45 15.4L67.35 14.4Q65.45 3.4 54.45 1.4L54.45 0.4L54.45 -0.6Q59.3 -3.25 57.55 -12.6L57.45 -13.6L57.5 -14.6Q58.2 -22.35 56.45 -27.6L56.45 -28.6Q56.95 -28.6 57 -28.75Q58.15 -32.3 56.45 -33.6L56.55 -34.6Q57.2 -38.85 55.45 -40.6Q54.35 -50 50.5 -56.65Q46.7 -63.35 39.2 -65.75Q27 -69.65 23.45 -81.6L24.45 -81.6Q24.45 -81.1 24.7 -80.85Q24.95 -80.6 25.45 -80.6Q54 -73.65 59.35 -43.6L59.45 -42.6Q59.45 -40.6 59.9 -38.7L60.45 -38.6L60.45 -34.6L60.45 -33.6Q60.45 -31.6 60.9 -29.7L61.45 -29.6L61.45 -28.6L61.45 -27.6L61.45 -22.6L61.45 -21.6L61.45 -12.6L61.45 -11.6Q61.45 -6.1 61.95 -0.65L62.45 -0.6" fill="rgb(6,11,6)" fill-opacity="1"></path><path d="M11.45,-88.6L11.45 -89.6L18.4 -89.1L18.45 -88.6L17.45 -88.6L11.45 -88.6" fill="rgb(55,102,55)" fill-opacity="1"></path><path d="M4.45,-78.6L4.45 -79.6L4.45 -85.6L5.45 -85.6L5.55 -84.6Q6.2 -80.4 4.45 -78.6" fill="rgb(31,160,31)" fill-opacity="1"></path><path d="M7.45,-76.6L6.95 -76.7Q6.45 -79.1 6.45 -81.6L7.45 -81.6L7.45 -77.6L7.45 -76.6" fill="rgb(38,41,38)" fill-opacity="1"></path><path d="M8.45,-74.6L8.45 -75.6Q11.15 -75.8 12.2 -74.4L12.45 -73.6Q11.95 -73.6 11.6 -73.85Q10.4 -74.55 8.45 -74.6" fill="rgb(111,112,112)" fill-opacity="1"></path><path d="M11.45,-83.6L11.45 -84.6L19.4 -84.1L19.45 -83.6L18.45 -83.6L11.45 -83.6M22.95,3.3Q22.45 0.4 22.45 -2.6L22.45 -3.6Q24.2 -1.85 23.55 2.4L23.45 3.4L22.95 3.3" fill="rgb(59,59,59)" fill-opacity="1"></path><path d="M18.95,-59.7Q18.05 -64.7 16.45 -68.6Q19.2 -66.85 19.4 -62.6L19.45 -61.6L19.45 -60.6L19.45 -59.6L18.95 -59.7" fill="rgb(121,123,123)" fill-opacity="1"></path><path d="M19.85,-57.8Q19.45 -58.6 19.45 -59.6L19.45 -60.6L19.45 -61.6Q21.15 -61.3 20.55 -58.6L20.45 -57.6L19.85 -57.8" fill="rgb(99,100,100)" fill-opacity="1"></path><path d="M20.95,-48.7Q20.45 -51.1 20.45 -53.6Q22.15 -52.8 21.55 -49.6L21.45 -48.6L20.95 -48.7" fill="rgb(127,128,128)" fill-opacity="1"></path><path d="M21.45,-32.6L21.45 -43.6Q23.2 -38.85 21.95 -31.7L21.45 -31.6L21.45 -32.6" fill="rgb(122,123,123)" fill-opacity="1"></path><path d="M29.45,-32.6L29.45 -33.6L29.45 -40.6L30.45 -40.6L30.45 -33.6L30.45 -32.6L29.45 -32.6" fill="rgb(129,130,130)" fill-opacity="1"></path><path d="M30.45,-32.6Q31.15 -29.8 33.2 -28.3L33.45 -27.6L32.5 -27.75Q29.7 -28.85 29.45 -32.6L30.45 -32.6" fill="rgb(109,110,110)" fill-opacity="1"></path><path d="M10.4,-1.1L10.45 -0.6L9.45 -0.6L2.45 -0.6L2.45 -1.6L10.4 -1.1" fill="rgb(112,113,113)" fill-opacity="1"></path><path d="M6.45,-2.6L5.45 -2.6L2.45 -2.6L2.45 -3.6L5.45 -3.6L6.45 -3.6L6.45 -2.6" fill="rgb(65,65,64)" fill-opacity="1"></path><path d="M22.55,5.2L21.45 4.4L21.2 3.65Q17.55 -0.2 10.45 -0.6L10.4 -1.1L2.45 -1.6L2.45 -2.6L5.45 -2.6L6.45 -2.6L13.45 -2.6L14.45 -2.6L21.45 -2.6L22.45 -2.6Q22.45 0.4 22.95 3.3L23.45 3.4L23.45 4.4L23.45 5.4L22.55 5.2" fill="rgb(82,82,82)" fill-opacity="1"></path><path d="M14.45,-2.6L13.45 -2.6L6.45 -2.6L6.45 -3.6L13.45 -3.6L14.45 -3.6L14.45 -2.6M10.7,41.15L11.45 41.4L11.25 42Q9.45 42.9 7.45 43.4L7.25 42.5L6.45 41.4Q7.5 40.45 9.45 40.4L10.45 40.4Q10.45 40.9 10.7 41.15" fill="rgb(50,50,50)" fill-opacity="1"></path><path d="M11.45,-5.6L10.45 -5.6L5.45 -5.6L5.45 -6.6L10.45 -6.6L11.45 -6.6L11.45 -5.6" fill="rgb(101,102,102)" fill-opacity="1"></path><path d="M4.45,12.4L3.7 12.15L0.45 8.4Q3.25 6.2 2.5 0.4L2.45 -0.6L9.45 -0.6L10.45 -0.6Q17.55 -0.2 21.2 3.65L21.45 4.4Q22.05 8.3 23.3 11.45L23.45 12.4L22.9 12.5Q22.55 14.05 20.45 13.4L20.45 14.4L19.5 14.55L14.45 16.4L13.45 16.3L9.45 15.4L9.45 16.4L8.7 16.15Q8.45 15.9 8.45 15.4L8.2 14.6Q6.8 13.05 4.45 12.4" fill="rgb(149,151,151)" fill-opacity="1"></path><path d="M11.45,-6.6L15.35 -6.15L15.45 -5.6L14.45 -5.6L11.45 -5.6L11.45 -6.6" fill="rgb(93,93,93)" fill-opacity="1"></path><path d="M14.45,-2.6L14.45 -3.6L21.45 -3.6L22.45 -3.6L22.45 -2.6L21.45 -2.6L14.45 -2.6M38.45,44.4L39.45 44.4L39.35 44.9Q32.7 46.15 28.45 44.4L38.45 44.4" fill="rgb(65,65,65)" fill-opacity="1"></path><path d="M22.45,-6.6L22.45 -7.6L25.45 -7.6L26.45 -7.6L26.35 -7.05L22.45 -6.6" fill="rgb(53,53,52)" fill-opacity="1"></path><path d="M25.45,3.4L24.95 3.35Q24.45 -0.1 24.45 -3.6L25.45 -3.6L25.45 2.4L25.45 3.4" fill="rgb(67,59,56)" fill-opacity="1"></path><path d="M40.5,-8.5L41.45 -8.6L41.45 -7.6L40.45 -7.6L37.45 -7.6L37.2 -8.35L36.45 -8.6L36.45 -9.6L37.45 -9.6L38.45 -9.6Q38.3 -7.95 40.5 -8.5" fill="rgb(75,69,66)" fill-opacity="1"></path><path d="M25.45,2.4L25.45 -3.6Q27.7 -5.35 30.5 -6.45L31.45 -6.6Q33.1 -7.95 36.45 -7.65L37.45 -7.6L40.45 -7.6L41.45 -7.6Q41.45 -7.1 41.7 -6.75Q45.75 -1.15 36.45 -3.6Q35.75 -0.9 37.25 -0.2Q37.45 -0.1 37.45 0.4Q38.25 2.1 41.45 1.9L41.45 2.4L41.35 3.4Q40.7 6.15 39.45 8.4L39.45 9.4Q38.95 9.4 38.6 9.65Q37.4 10.35 35.45 10.4L34.45 10.4L29.45 10.4L28.5 10.25Q25.05 8.8 25.45 3.4L25.45 2.4" fill="rgb(124,110,103)" fill-opacity="1"></path><path d="M37.2,-8.35L37.45 -7.6L36.45 -7.65Q33.1 -7.95 31.45 -6.6L31.45 -7.6L31.45 -8.6L35.45 -8.6L36.45 -8.6L37.2 -8.35" fill="rgb(33,31,30)" fill-opacity="1"></path><path d="M41.45,2.4L41.95 2.35Q42.15 -0.8 37.45 0.4Q37.45 -0.1 37.25 -0.2Q35.75 -0.9 36.45 -3.6Q45.75 -1.15 41.7 -6.75Q41.45 -7.1 41.45 -7.6L41.45 -8.6L44.45 -8.6L45.45 -8.6Q47.15 -4.8 49.75 -1.85Q49.95 -1.6 50.45 -1.6L50.45 -0.6L49.45 -0.6L47.45 -0.6L47.45 0.4L46.45 0.4L44.45 0.4L43.45 0.4L43.45 3.4L43.45 4.4L43.35 5.4Q42.75 8.7 40.45 10.4L40.2 9.65L39.45 9.4L39.45 8.4Q40.7 6.15 41.35 3.4L41.45 2.4" fill="rgb(28,26,25)" fill-opacity="1"></path><path d="M60.45,-33.6Q62.15 -33.3 61.55 -30.6L61.45 -29.6L60.9 -29.7Q60.45 -31.6 60.45 -33.6" fill="rgb(63,143,63)" fill-opacity="1"></path><path d="M59.45,-42.6Q61.15 -42.3 60.55 -39.6L60.45 -38.6L59.9 -38.7Q59.45 -40.6 59.45 -42.6" fill="rgb(53,112,53)" fill-opacity="1"></path><path d="M56.45,-28.6L56.45 -27.6L56.45 -26.6L55.95 -26.65Q55.45 -33.6 55.45 -40.6Q57.2 -38.85 56.55 -34.6L56.45 -33.6L56.45 -29.6L56.45 -28.6" fill="rgb(63,63,63)" fill-opacity="1"></path><path d="M56.45,-29.6L56.45 -33.6Q58.15 -32.3 57 -28.75Q56.95 -28.6 56.45 -28.6L56.45 -29.6" fill="rgb(16,16,16)" fill-opacity="1"></path><path d="M56.95,-13.65Q56.45 -20.1 56.45 -26.6L56.45 -27.6Q58.2 -22.35 57.5 -14.6L57.45 -13.6L56.95 -13.65" fill="rgb(51,52,51)" fill-opacity="1"></path><path d="M41.45,-23.6L42.45 -23.6L42.3 -23.05Q39.25 -21.9 38.45 -23.6L41.45 -23.6M8.45,51.4L8.45 50.4L8.45 49.4Q8.95 48.9 9.55 48.6L10.45 48.4L11.45 48.4L11.2 49.25L9.45 51.4L8.45 51.4M-21.75,64.8Q-21.55 64.9 -21.55 65.4L-21.55 66.4L-22.5 66.25Q-28.1 63.95 -29.55 57.4Q-26.75 62.1 -21.75 64.8" fill="rgb(114,115,115)" fill-opacity="1"></path><path d="M44.45,-8.6L41.45 -8.6L40.5 -8.5Q38.3 -7.95 38.45 -9.6L45.4 -9.1L45.45 -8.6L44.45 -8.6" fill="rgb(44,43,43)" fill-opacity="1"></path><path d="M53.45,0.4L47.45 0.4L47.45 -0.6L49.45 -0.6L50.45 -0.6L53.45 -0.6L54.45 -0.6L54.45 0.4L53.45 0.4" fill="rgb(6,6,6)" fill-opacity="1"></path><path d="M50.45,-1.6L54.35 -1.15L54.45 -0.6L53.45 -0.6L50.45 -0.6L50.45 -1.6" fill="rgb(53,52,52)" fill-opacity="1"></path><path d="M61.45,-21.6L61.45 -22.6L61.45 -27.6Q63.15 -26.3 62.55 -22.6L62.45 -21.6L61.45 -21.6" fill="rgb(59,156,59)" fill-opacity="1"></path><path d="M61.45,-11.6L61.45 -12.6L61.45 -21.6L62.45 -21.6L62.45 -12.6L62.45 -11.6L61.45 -11.6" fill="rgb(30,160,30)" fill-opacity="1"></path><path d="M61.95,-0.65Q61.45 -6.1 61.45 -11.6L62.45 -11.6L62.45 -1.6L62.45 -0.6L61.95 -0.65" fill="rgb(61,136,61)" fill-opacity="1"></path><path d="M67.45,19.4L67.45 18.4L67.45 15.4Q69.15 15.7 68.55 18.4L68.45 19.4L67.45 19.4" fill="rgb(91,93,92)" fill-opacity="1"></path><path d="M60.45,20.4L59.45 20.4L59.35 19.9L53.45 19.4L53.3 18.85L50.45 18.4L49.8 18.15Q46.8 13.55 40.45 12.4Q39.95 12.4 39.85 12.2Q39.45 11.4 39.45 10.4L40.45 10.4Q42.75 8.7 43.35 5.4L43.45 4.4Q45.05 4.55 44.55 2.35L44.45 1.4L53.45 1.4L54.45 1.4Q65.45 3.4 67.35 14.4L67.45 15.4L67.45 18.4L67.45 19.4Q67.45 19.9 67.25 20L65.45 20.4L64.45 20.4L61.45 20.4L60.45 20.4" fill="rgb(148,150,150)" fill-opacity="1"></path><path d="M61.45,20.4L64.45 20.4L65.45 20.4L65.45 21.4L64.45 21.4L61.45 21.4L61.45 20.4" fill="rgb(56,81,56)" fill-opacity="1"></path><path d="M67.25,20Q67.45 19.9 67.45 19.4L68.45 19.4L68.45 20.4L68.45 21.4L67.45 21.4L65.45 21.4L65.45 20.4L67.25 20" fill="rgb(37,63,37)" fill-opacity="1"></path><path d="M61.45,21.4L64.45 21.4L65.45 21.4L67.45 21.4L68.45 21.4L68.4 21.9L61.45 22.4L61.45 21.4" fill="rgb(26,161,26)" fill-opacity="1"></path><path d="M-25,80.45L-25.55 80.1L-25.8 79.75Q-31.75 75.6 -35.55 69.4L-35.45 68.4Q-34.85 65.7 -36.55 65.4L-36.55 64.4L-36.55 59.4L-36.55 58.4L-36.55 53.4L-36.55 52.4Q-34.65 48.8 -34.55 43.4L-34.55 42.4Q-32.85 42.1 -33.45 39.4L-33.55 38.4L-33.55 37.4L-33.55 32.4L-33 32.25Q-31.8 28.15 -33.55 26.4L-33.55 25.4L-33.55 22.4L-33.55 21.4L-29.55 21.4L-28.55 21.4Q-23.85 23.95 -28.3 30.55L-28.55 31.4L-29.55 31.4L-30.55 31.4L-30.55 39.4L-30.55 40.4L-30.55 44.4L-30.55 45.4L-31.55 45.4L-31.55 49.4L-31.55 50.4L-32.55 50.4L-32.1 54.3L-31.55 54.4L-31.55 55.4L-31.55 56.4Q-31.55 60.9 -31.05 65.35L-30.55 65.4Q-23.2 80.05 -8.55 81.9L-8.55 81.4Q-8.1 74.85 -2.5 73.5L-1.55 73.4L7.45 73.4L8.45 73.4L9.3 75.45L9.45 76.4L9.45 79.4L9.45 80.4L9.3 81.35Q8.6 83.55 6.45 84.4Q7.55 86.3 10.45 86.4L11.45 86.4Q13.7 88.15 18.35 86.95L18.45 86.4L18.95 86.35Q19.15 82.55 17.45 75.4Q19 73.45 22.45 73.4L23.45 73.4L29.45 73.4L30.45 73.4Q36.15 76.7 39.8 82.55Q40.15 83.1 40.45 81.4Q51.7 76.15 57.25 65.3L57.45 64.4L58.2 64.15L58.45 63.4L58.95 63.3Q60.2 57.15 58.45 53.4L58.55 52.45Q59.05 50.3 57.45 50.4L57.45 49.4L57.45 46.4L57.55 45.4Q58.15 42.7 56.45 42.4L56.45 41.4L56.45 40.4L56.55 39.4Q57.15 36.7 55.45 36.4L55.45 35.4L55.45 31.4L55.45 30.4L55.45 27.4L56 27.25Q57.15 24.2 55.45 23.4L55.2 22.65L54.45 22.4L54.45 21.9Q52.3 22.05 52.45 20.4L58.45 20.4L59.45 20.4L60.45 20.4L61.45 20.4L61.45 21.4L60.45 21.4L60.45 24.4L60.45 25.4L60.2 26.15L59.45 26.4L59.45 30.4L59.45 31.4Q59.45 33.4 59.9 35.3L60.45 35.4L60.45 36.4Q60.45 38.4 60.9 40.3L61.45 40.4L61.45 41.4L61.45 42.4Q61.45 44.4 61.9 46.3L62.45 46.4L62.45 47.4L62.45 48.4Q62.45 50.4 62.9 52.3L63.45 52.4L63.45 53.4L63.45 64.4L63.45 65.4L63.25 66.25Q54.35 80.8 37.45 87.4L36.45 87.4L31.45 87.4L31.45 88.4L30.45 88.4L28.45 88.4L27.45 88.4L24.45 88.4L23.45 88.4L20.45 88.4L20.45 89.4L19.45 89.4L2.45 89.4L2.4 88.9L-4.55 88.4L-5.45 88.4Q-8 86.7 -11.15 85.7L-12.2 85.45Q-16.35 84.85 -20.15 83.15Q-20.7 82.7 -21.5 82.55L-22.5 82L-22.6 81.95L-22.8 81.55Q-23.5 80.6 -25 80.45" fill="rgb(5,8,6)" fill-opacity="1"></path><path d="M60.45,24.4L60.45 21.4L61.45 21.4L61.45 22.4L61.55 23.35Q62.05 25.55 60.45 25.4L60.45 24.4" fill="rgb(53,110,54)" fill-opacity="1"></path><path d="M44.45,0.4L46.45 0.4L47.45 0.4L53.45 0.4L54.45 0.4L54.45 1.4L53.45 1.4L44.45 1.4L44.45 0.4" fill="rgb(103,105,105)" fill-opacity="1"></path><path d="M43.45,3.4L43.45 0.4L44.45 0.4L44.45 1.4L44.55 2.35Q45.05 4.55 43.45 4.4L43.45 3.4" fill="rgb(67,67,66)" fill-opacity="1"></path><path d="M41.95,2.35L41.45 2.4L41.45 1.9Q38.25 2.1 37.45 0.4Q42.15 -0.8 41.95 2.35" fill="rgb(87,78,73)" fill-opacity="1"></path><path d="M40.45,13.4L40.45 12.4Q46.8 13.55 49.8 18.15L50.45 18.4Q50.95 19.4 51.7 20.15L52.45 20.4Q52.3 22.05 54.45 21.9L54.45 22.4L53.45 22.4L52.45 22.4Q53.6 25.25 53.45 29.4L53.45 30.4L53.3 31.35Q52.1 35.1 49.45 37.4L49.2 36.65L48.45 36.4L48.65 35.5Q55.65 20.55 40.45 14.4L40.45 13.4" fill="rgb(46,46,46)" fill-opacity="1"></path><path d="M50.45,18.4L53.3 18.85L53.45 19.4L52.45 19.4L52.45 20.4L51.7 20.15Q50.95 19.4 50.45 18.4" fill="rgb(124,125,125)" fill-opacity="1"></path><path d="M58.45,20.4L52.45 20.4L52.45 19.4L53.45 19.4L59.35 19.9L59.45 20.4L58.45 20.4" fill="rgb(52,54,53)" fill-opacity="1"></path><path d="M55.45,26.4L55.45 27.4L55.45 30.4L55.45 31.4L54.55 31.2L53.45 30.4L53.45 29.4Q53.6 25.25 52.45 22.4L53.45 22.4L54.45 22.4L55.2 22.65L55.45 23.4L55.45 26.4" fill="rgb(66,66,66)" fill-opacity="1"></path><path d="M55.45,27.4L55.45 26.4L55.45 23.4Q57.15 24.2 56 27.25L55.45 27.4M7.45,73.4L-1.55 73.4L-1.55 72.4L8.4 72.9L8.45 73.4L7.45 73.4" fill="rgb(44,45,44)" fill-opacity="1"></path><path d="M55.9,40.3L56.45 40.4L56.45 41.4L56.45 42.4Q56.45 44.4 56.9 46.3L57.45 46.4L57.45 49.4L57.45 50.4L57.45 63.4L57.45 64.4L57.25 65.3Q51.7 76.15 40.45 81.4Q40.15 83.1 39.8 82.55Q36.15 76.7 30.45 73.4L30.4 72.9L23.45 72.4L23.45 73.4L22.45 73.4Q19 73.45 17.45 75.4Q19.15 82.55 18.95 86.35L18.45 86.4L17.45 86.4L11.45 86.4L10.45 86.4Q7.55 86.3 6.45 84.4Q8.6 83.55 9.3 81.35L9.45 80.4L10 80.25Q11.15 77.2 9.45 76.4L9.3 75.45L8.45 73.4L8.4 72.9L-1.55 72.4L-1.55 73.4L-2.5 73.5Q-8.1 74.85 -8.55 81.4L-8.55 81.9Q-23.2 80.05 -30.55 65.4Q-23.25 66.1 -19.8 70.6L-19.55 71.4L-8.55 71.9L-8.55 71.4Q6.85 58.8 19.2 43.2L19.45 42.4Q22.9 43.95 27.45 44.35L28.45 44.4Q32.7 46.15 39.35 44.9L39.45 44.4Q42.25 43.7 43.75 41.65Q43.95 41.4 44.45 41.4Q45.5 40.45 47.3 39.95L47.45 39.4L49.2 38.15L49.45 37.4Q52.1 35.1 53.3 31.35L53.45 30.4L54.55 31.2L55.45 31.4L55.45 35.4L55.45 36.4Q55.45 38.4 55.9 40.3" fill="rgb(80,80,80)" fill-opacity="1"></path><path d="M59.9,35.3Q59.45 33.4 59.45 31.4Q61.15 31.7 60.55 34.4L60.45 35.4L59.9 35.3" fill="rgb(50,106,50)" fill-opacity="1"></path><path d="M49.2,36.65L49.45 37.4L49.2 38.15L47.45 39.4L46.7 39.15Q46.45 38.9 46.45 38.4L46.45 37.4Q46.95 36.9 47.55 36.6L48.45 36.4L49.2 36.65M28.45,44.4L27.45 44.35Q22.9 43.95 19.45 42.4L19.4 41.9Q16.7 41.65 15.45 40.4L14.45 40.4L13.45 40.4L13.45 39.4L16.3 38.95L16.45 38.4Q24.5 44.95 27.9 36.55Q27.95 36.4 28.45 36.4L34.45 36.4L35.45 36.4Q40.45 37.85 38.45 42.4L39.75 41.45Q40.75 40.7 42.45 40.4L44.25 40.8L44.45 41.4Q43.95 41.4 43.75 41.65Q42.25 43.7 39.45 44.4L38.45 44.4L28.45 44.4" fill="rgb(29,29,29)" fill-opacity="1"></path><path d="M39.75,41.45L38.45 42.4Q40.45 37.85 35.45 36.4L35.4 35.9L28.45 35.4L28.45 36.4Q27.95 36.4 27.9 36.55Q24.5 44.95 16.45 38.4L16.45 37.4L16.45 36.4L16.45 28.4L16.45 27.4L16.45 18.4L17.2 18.15L17.45 17.4Q19.45 16.9 20.7 15.65Q20.95 15.4 21.45 15.4Q23.1 14.05 26.45 14.35L27.45 14.4L35.45 14.4L36.45 14.4L39.45 14.4L40.45 14.4Q55.65 20.55 48.65 35.5L48.45 36.4L47.55 36.6Q46.95 36.9 46.45 37.4L46.45 38.4Q45.95 38.4 45.85 38.6Q45.15 40.1 42.45 39.4L42.45 40.4Q40.75 40.7 39.75 41.45M11.85,18.2Q11.95 18.4 12.45 18.4L12.45 37.4L12.45 38.4L12.2 39.15L10.45 40.4L9.45 40.4Q7.5 40.45 6.45 41.4L6.2 40.6Q4.05 37.8 0.45 36.4L0.35 35.85L-3.55 35.4L-3.55 36.4L-4.45 36.6Q-7 37.95 -8.55 40.4L-8.55 41.4L-9.55 41.4L-12.55 41.4L-13.45 41.2Q-17.5 38.85 -20.55 35.4L-20.75 34.5L-21.55 33.4L-21.55 32.4L-21.55 26.4L-21.55 25.4L-20.75 24.3L-20.55 23.4Q-18.1 19.85 -14.8 17.1Q-14.55 16.9 -14.55 16.4L-6.55 14.5L-5.55 14.4L3.45 14.4L4.45 14.4Q7.15 13.7 7.85 15.2L8.45 15.4Q8.45 15.9 8.7 16.15L9.45 16.4Q11.15 16.7 11.85 18.2" fill="rgb(247,247,247)" fill-opacity="1"></path><path d="M44.25,40.8L42.45 40.4L42.45 39.4Q45.15 40.1 45.85 38.6Q45.95 38.4 46.45 38.4Q46.45 38.9 46.7 39.15L47.45 39.4L47.3 39.95Q45.5 40.45 44.45 41.4L44.25 40.8" fill="rgb(62,62,62)" fill-opacity="1"></path><path d="M56.45,40.4L55.9 40.3Q55.45 38.4 55.45 36.4Q57.15 36.7 56.55 39.4L56.45 40.4" fill="rgb(49,50,49)" fill-opacity="1"></path><path d="M9.45,79.4L9.45 76.4Q11.15 77.2 10 80.25L9.45 80.4L9.45 79.4M57.55,45.4L57.45 46.4L56.9 46.3Q56.45 44.4 56.45 42.4Q58.15 42.7 57.55 45.4" fill="rgb(39,40,39)" fill-opacity="1"></path><path d="M60.9,40.3Q60.45 38.4 60.45 36.4Q62.15 36.7 61.55 39.4L61.45 40.4L60.9 40.3" fill="rgb(49,136,50)" fill-opacity="1"></path><path d="M61.9,46.3Q61.45 44.4 61.45 42.4Q63.15 42.7 62.55 45.4L62.45 46.4L61.9 46.3" fill="rgb(50,121,51)" fill-opacity="1"></path><path d="M34.45,10.4L35.45 10.4L35.3 10.95Q31.25 12.1 29.45 10.4L34.45 10.4" fill="rgb(67,60,56)" fill-opacity="1"></path><path d="M23.3,11.45Q22.05 8.3 21.45 4.4L22.55 5.2L23.45 5.4Q24.6 8.25 23.95 12.3L23.45 12.4L23.3 11.45" fill="rgb(119,120,120)" fill-opacity="1"></path><path d="M31.45,13.4L28.45 13.4L28.45 12.4L31.45 12.4L32.45 12.4L32.45 13.4L31.45 13.4" fill="rgb(63,63,62)" fill-opacity="1"></path><path d="M32.45,13.4L35.45 13.4L36.45 13.4L36.45 14.4L35.45 14.4L27.45 14.4L27.45 13.4L28.45 13.4L31.45 13.4L32.45 13.4" fill="rgb(212,212,212)" fill-opacity="1"></path><path d="M14.7,17.15Q14.45 16.9 14.45 16.4L19.5 14.55L20.45 14.4Q20.95 14.4 21.2 14.65L21.45 15.4Q20.95 15.4 20.7 15.65Q19.45 16.9 17.45 17.4L16.45 17.4L15.45 17.4L14.7 17.15" fill="rgb(40,40,40)" fill-opacity="1"></path><path d="M36.45,13.4L39.45 13.4L40.45 13.4L40.45 14.4L39.45 14.4L36.45 14.4L36.45 13.4" fill="rgb(184,184,183)" fill-opacity="1"></path><path d="M32.45,12.4L36.35 12.85L36.45 13.4L35.45 13.4L32.45 13.4L32.45 12.4" fill="rgb(39,39,38)" fill-opacity="1"></path><path d="M14.45,30.4L14.45 29.4L14.45 27.4L14.5 26.4Q15.2 21.15 13.45 18.4L12.45 18.4Q11.95 18.4 11.85 18.2Q11.15 16.7 9.45 16.4L9.45 15.4L13.45 16.3L14.45 16.4Q14.45 16.9 14.7 17.15L15.45 17.4L15.45 27.4L15.45 28.4L15.45 29.4L15.45 30.4L14.45 30.4" fill="rgb(29,29,28)" fill-opacity="1"></path><path d="M4.45,13.4L4.45 12.4Q6.8 13.05 8.2 14.6L8.45 15.4L7.85 15.2Q7.15 13.7 4.45 14.4L4.45 13.4" fill="rgb(78,78,78)" fill-opacity="1"></path><path d="M4.45,13.4L4.45 14.4L3.45 14.4L-5.55 14.4L-5.55 13.4L3.45 13.4L4.45 13.4" fill="rgb(139,139,138)" fill-opacity="1"></path><path d="M15.45,28.4L15.45 27.4L15.45 17.4L16.45 17.4L17.45 17.4L17.2 18.15L16.45 18.4L16.45 27.4L16.45 28.4L15.45 28.4" fill="rgb(124,124,124)" fill-opacity="1"></path><path d="M12.45,38.4L12.45 37.4L12.45 18.4L13.45 18.4L13.45 26.4L13.45 27.4L13.45 36.4L13.45 37.4L13.2 38.15L12.45 38.4" fill="rgb(215,215,215)" fill-opacity="1"></path><path d="M15.45,37.4L15.45 36.4L15.45 30.4L15.45 29.4L15.45 28.4L16.45 28.4L16.45 36.4L16.45 37.4L15.45 37.4M-9.55,68.4L-9.65 68.95Q-14.8 70.15 -17.55 68.4L-11.55 68.4L-10.55 68.4L-9.55 68.4" fill="rgb(109,109,109)" fill-opacity="1"></path><path d="M13.45,27.4L13.45 26.4L13.45 18.4Q15.2 21.15 14.5 26.4L14.45 27.4L13.45 27.4" fill="rgb(96,96,96)" fill-opacity="1"></path><path d="M13.45,37.4L13.45 36.4L13.45 27.4L14.45 27.4L14.45 29.4L14.45 30.4L14.45 36.4L14.45 37.4L13.45 37.4" fill="rgb(116,116,116)" fill-opacity="1"></path><path d="M15.45,37.9Q14.95 37.9 14.45 37.4L14.45 36.4L14.45 30.4L15.45 30.4L15.45 36.4L15.45 37.4L15.45 37.9" fill="rgb(0,0,0)" fill-opacity="1"></path><path d="M-3.55,36.4L-3.55 35.4L0.35 35.85L0.45 36.4L-0.55 36.4L-3.55 36.4" fill="rgb(193,193,193)" fill-opacity="1"></path><path d="M-21.55,35.4L-20.55 35.4Q-17.5 38.85 -13.45 41.2L-12.55 41.4Q-11.75 43.1 -8.7 41.95Q-8.55 41.9 -8.55 41.4L-8.55 40.4Q-7 37.95 -4.45 36.6L-3.55 36.4L-0.55 36.4L0.45 36.4Q4.05 37.8 6.2 40.6L6.45 41.4L7.25 42.5L7.45 43.4L7.35 43.9L2.45 44.4L1.45 44.4L-7.55 44.4L-8.55 44.35Q-18.15 43 -21.55 35.4" fill="rgb(29,30,30)" fill-opacity="1"></path><path d="M0.3,45.95Q-3.75 47.1 -5.55 45.4L-0.55 45.4L0.45 45.4L0.3 45.95" fill="rgb(136,138,138)" fill-opacity="1"></path><path d="M-29.55,57.4L-29.55 56.4L-29.55 55.4L-29.55 54.4L-29.55 45.4L-29.55 44.4L-29.55 40.4L-29.55 39.4Q-27.8 37.15 -28.5 32.4L-28.55 31.4L-28.3 30.55Q-23.85 23.95 -28.55 21.4Q-28.55 20.9 -28.65 20.9L-33.55 20.4L-33.55 21.4L-34.55 21.4L-40.55 21.4Q-41.05 21.4 -41.15 21.2Q-41.55 20.4 -41.55 19.4L-41.55 18.4L-41.55 15.4L-41.55 14.4Q-39.8 12.65 -38.75 10.3L-38.55 9.4Q-37 6.95 -34.8 5.1Q-34.55 4.9 -34.55 4.4Q-33.55 4.4 -32.75 4L-32.55 3.4Q-30.35 2.6 -27.55 2.45L-26.55 2.4L-21.55 2.4L-20.55 2.4L-17.8 4.65Q-17.55 4.9 -17.55 5.4L-16.7 7.45L-16.55 8.4Q-15.35 10.2 -13.45 11.2L-12.55 11.4L-12.3 12.25Q-11.1 13.9 -14.55 15.4L-14.55 16.4L-15.55 16.45Q-20.15 16.8 -21.55 20.4L-21.55 21.4L-22.55 21.4L-22.55 22.4L-22.55 23.4Q-22.55 23.9 -22.8 24.15L-23.55 24.4L-23.55 25.4L-24.55 25.4Q-24.55 27.9 -24.05 30.3L-23.55 30.4Q-23.55 31.9 -23.1 33.25L-22.55 33.4Q-22.55 34.4 -22.15 35.2L-21.55 35.4Q-18.15 43 -8.55 44.35L-7.55 44.4L-6.45 45.2L-5.55 45.4Q-3.75 47.1 0.3 45.95L0.45 45.4L2.25 45L2.45 44.4L7.35 43.9L7.45 43.4Q9.45 42.9 11.25 42L11.45 41.4L13.25 41Q13.45 40.9 13.45 40.4L14.45 40.4L15.45 40.4L15.45 41.4L15.45 42.4Q14.95 42.4 14.8 42.65Q13 45.45 10.45 47.4L10.45 48.4L9.55 48.6Q8.95 48.9 8.45 49.4Q7.95 49.4 7.65 49.65L4.45 52.4L4.45 53.4L4.45 54.4L4.2 55.15L1.45 57.4L1.45 58.4Q0.95 58.4 0.85 58.6Q0.15 60.1 -1.55 60.4Q-2.05 60.4 -2.15 60.6Q-2.85 62.1 -4.55 62.4L-4.55 64.4L-4.55 65.4L-5.45 65.6L-6.55 66.4L-6.55 67.4L-7.55 67.4L-10.55 67.4L-11.55 67.3L-21.55 65.4Q-21.55 64.9 -21.75 64.8Q-26.75 62.1 -29.55 57.4" fill="rgb(150,152,152)" fill-opacity="1"></path><path d="M2.25,45L0.45 45.4L-0.55 45.4L-5.55 45.4L-6.45 45.2L-7.55 44.4L1.45 44.4L2.45 44.4L2.25 45" fill="rgb(70,71,71)" fill-opacity="1"></path><path d="M13.2,38.15L13.45 37.4L14.45 37.4Q14.95 37.9 15.45 37.9L15.45 37.4L16.45 37.4L16.45 38.4L16.3 38.95L13.45 39.4L13.45 40.4Q13.45 40.9 13.25 41L11.45 41.4L10.7 41.15Q10.45 40.9 10.45 40.4L12.2 39.15L12.45 38.4L13.2 38.15" fill="rgb(26,26,26)" fill-opacity="1"></path><path d="M15.45,42.4L15.45 41.4L15.45 40.4Q16.7 41.65 19.4 41.9L19.45 42.4L19.2 43.2Q6.85 58.8 -8.55 71.4L-8.55 71.9L-19.55 71.4L-19.8 70.6Q-23.25 66.1 -30.55 65.4L-30.55 64.4L-30.55 56.4L-30.55 55.4L-29.55 55.4L-29.55 56.4L-29.55 57.4Q-28.1 63.95 -22.5 66.25L-21.55 66.4L-18.45 68.2L-17.55 68.4Q-14.8 70.15 -9.65 68.95L-9.55 68.4L-6.7 67.95Q-6.55 67.9 -6.55 67.4L-6.55 66.4L-5.45 65.6L-4.55 65.4Q-2.35 65.1 -2.05 62.45L-1.55 62.4L1.2 60.15L1.45 59.4L9.2 52.15L9.45 51.4L11.2 49.25L11.45 48.4Q14 46.45 15.25 43.35L15.45 42.4" fill="rgb(90,90,90)" fill-opacity="1"></path><path d="M15.25,43.35Q14 46.45 11.45 48.4L10.45 48.4L10.45 47.4Q13 45.45 14.8 42.65Q14.95 42.4 15.45 42.4L15.25 43.35" fill="rgb(122,124,124)" fill-opacity="1"></path><path d="M28.45,36.4L28.45 35.4L35.4 35.9L35.45 36.4L34.45 36.4L28.45 36.4" fill="rgb(194,194,194)" fill-opacity="1"></path><path d="M29.45,73.4L23.45 73.4L23.45 72.4L30.4 72.9L30.45 73.4L29.45 73.4" fill="rgb(41,42,41)" fill-opacity="1"></path><path d="M7.8,51.6Q6.6 53.55 4.45 54.4L4.45 53.4L4.45 52.4L7.65 49.65Q7.95 49.4 8.45 49.4L8.45 50.4L8.45 51.4L7.8 51.6" fill="rgb(138,139,139)" fill-opacity="1"></path><path d="M-1.55,61.4L-1.55 60.4Q0.15 60.1 0.85 58.6Q0.95 58.4 1.45 58.4L1.45 59.4L1.2 60.15L-1.55 62.4L-1.55 61.4" fill="rgb(123,124,124)" fill-opacity="1"></path><path d="M18.35,86.95Q13.7 88.15 11.45 86.4L17.45 86.4L18.45 86.4L18.35 86.95" fill="rgb(21,23,22)" fill-opacity="1"></path><path d="M2.4,88.9L2.45 89.4L1.45 89.45Q-2.75 90.1 -4.55 88.4L2.4 88.9" fill="rgb(58,114,59)" fill-opacity="1"></path><path d="M24.45,88.4L27.45 88.4L28.45 88.4L28.35 88.95L24.45 89.4L24.45 88.4" fill="rgb(62,145,62)" fill-opacity="1"></path><path d="M20.45,88.4L23.45 88.4L24.45 88.4L24.45 89.4L23.45 89.4L20.45 89.4L20.45 88.4" fill="rgb(50,79,51)" fill-opacity="1"></path><path d="M31.45,87.4L36.45 87.4L37.45 87.4L37.35 87.9L31.45 88.4L31.45 87.4" fill="rgb(57,121,57)" fill-opacity="1"></path><path d="M62.9,52.3Q62.45 50.4 62.45 48.4Q64.15 48.7 63.55 51.4L63.45 52.4L62.9 52.3" fill="rgb(53,110,53)" fill-opacity="1"></path><path d="M63.45,64.4L63.45 53.4Q65.2 58.15 63.95 65.3L63.45 65.4L63.45 64.4" fill="rgb(54,148,54)" fill-opacity="1"></path><path d="M57.45,64.4L57.45 63.4L57.45 50.4Q59.05 50.3 58.55 52.45L58.45 53.4L58.45 62.4L58.45 63.4L58.2 64.15L57.45 64.4" fill="rgb(70,71,70)" fill-opacity="1"></path><path d="M58.45,62.4L58.45 53.4Q60.2 57.15 58.95 63.3L58.45 63.4L58.45 62.4" fill="rgb(33,33,33)" fill-opacity="1"></path><path d="M-0.55,4.4L-0.55 -1.6Q1.2 0.65 0 5.3L-0.55 5.4L-0.55 4.4" fill="rgb(74,66,63)" fill-opacity="1"></path><path d="M-5.55,11.4Q-5.55 11.9 -5.7 11.95Q-8.75 13.1 -9.55 11.4L-6.55 11.4L-5.55 11.4" fill="rgb(43,40,37)" fill-opacity="1"></path><path d="M-16.7,7.45L-17.55 5.4L-16.8 5.15Q-16.55 4.9 -16.55 4.4Q-14.85 4.7 -15.45 7.4L-15.55 8.4L-16.55 8.4L-16.7 7.45" fill="rgb(37,35,34)" fill-opacity="1"></path><path d="M-13.45,11.2Q-15.35 10.2 -16.55 8.4L-15.55 8.4Q-14.5 9.35 -12.7 9.85Q-12.55 9.9 -12.55 10.4L-12.55 11.4L-13.45 11.2" fill="rgb(51,49,48)" fill-opacity="1"></path><path d="M-20.75,22.5L-21.55 21.4L-21.55 20.4Q-20.15 16.8 -15.55 16.45L-14.55 16.4Q-14.55 16.9 -14.8 17.1Q-18.1 19.85 -20.55 23.4L-20.75 22.5" fill="rgb(59,60,60)" fill-opacity="1"></path><path d="M-26.55,1.4L-20.65 1.9Q-20.55 1.9 -20.55 2.4L-21.55 2.4L-26.55 2.4L-26.55 1.4" fill="rgb(95,97,96)" fill-opacity="1"></path><path d="M-34.55,1.4L-34.55 0.4L-30.55 0.4L-29.55 0.4L-29.65 0.9L-34.55 1.4" fill="rgb(50,53,50)" fill-opacity="1"></path><path d="M-38.55,8.4L-38.55 6.4L-37.8 6.15Q-37.55 5.9 -37.55 5.4L-36.8 5.15Q-36.55 4.9 -36.55 4.4L-35.55 4.4L-34.55 4.4Q-34.55 4.9 -34.8 5.1Q-37 6.95 -38.55 9.4L-38.55 8.4" fill="rgb(55,57,56)" fill-opacity="1"></path><path d="M-35.55,4.4L-36.55 4.4L-36.55 3.4L-33.55 3.4L-32.55 3.4L-32.75 4Q-33.55 4.4 -34.55 4.4L-35.55 4.4" fill="rgb(36,39,37)" fill-opacity="1"></path><path d="M-40.55,22.4L-41.55 22.4L-44.55 22.4L-45.3 22.15L-46.55 20.4L-46.55 19.4L-46.55 14.4L-46.55 13.4L-46.55 12.4Q-44.05 7.4 -39.4 4.6L-38.55 4.4Q-38.05 4.4 -37.8 4.65Q-37.55 4.9 -37.55 5.4Q-37.55 5.9 -37.8 6.15L-38.55 6.4L-38.55 8.4L-38.55 9.4L-38.75 10.3Q-39.8 12.65 -41.55 14.4L-41.55 15.4L-42.55 15.4Q-42.55 17.4 -42.1 19.3L-41.55 19.4Q-41.55 20.4 -41.15 21.2Q-41.05 21.4 -40.55 21.4L-40.55 22.4" fill="rgb(10,13,10)" fill-opacity="1"></path><path d="M-40.55,21.4L-34.55 21.4L-33.55 21.4L-33.55 22.4L-34.55 22.4L-35.55 22.4L-40.55 22.4L-40.55 21.4" fill="rgb(61,76,62)" fill-opacity="1"></path><path d="M-28.55,21.4L-29.55 21.4L-33.55 21.4L-33.55 20.4L-28.65 20.9Q-28.55 20.9 -28.55 21.4" fill="rgb(82,86,84)" fill-opacity="1"></path><path d="M-34.55,38.4L-34.55 37.4L-34.55 23.4L-34.55 22.4L-33.55 22.4L-33.55 25.4L-33.55 26.4L-33.55 31.4L-33.55 32.4L-33.55 37.4L-33.55 38.4L-34.55 38.4" fill="rgb(139,145,139)" fill-opacity="1"></path><path d="M-40.55,22.4L-35.55 22.4L-34.55 22.4L-34.55 23.4L-35.55 23.4L-40.55 23.4L-40.55 22.4" fill="rgb(153,157,153)" fill-opacity="1"></path><path d="M-21.75,24.5L-22.55 23.4L-22.55 22.4L-22.55 21.4L-21.55 21.4L-20.75 22.5L-20.55 23.4L-20.75 24.3L-21.55 25.4L-21.75 24.5" fill="rgb(58,58,58)" fill-opacity="1"></path><path d="M-22.05,26.4Q-21.85 29.6 -23.55 30.4L-23.55 29.4L-23.55 25.4L-23.55 24.4L-22.8 24.15Q-22.55 23.9 -22.55 23.4L-21.75 24.5L-21.55 25.4L-21.55 26.4L-22.05 26.4" fill="rgb(18,18,18)" fill-opacity="1"></path><path d="M-22.55,33.4L-23.1 33.25Q-23.55 31.9 -23.55 30.4Q-21.85 29.6 -22.05 26.4L-21.55 26.4L-21.55 32.4L-21.55 33.4L-22.55 33.4" fill="rgb(42,43,43)" fill-opacity="1"></path><path d="M-24.05,30.3Q-24.55 27.9 -24.55 25.4L-23.55 25.4L-23.55 29.4L-23.55 30.4L-24.05 30.3" fill="rgb(117,119,119)" fill-opacity="1"></path><path d="M-29.55,31.4L-28.55 31.4L-28.5 32.4Q-27.8 37.15 -29.55 39.4L-29.55 38.4L-29.55 31.4" fill="rgb(76,77,77)" fill-opacity="1"></path><path d="M-21.55,35.4L-22.15 35.2Q-22.55 34.4 -22.55 33.4L-21.55 33.4L-20.75 34.5L-20.55 35.4L-21.55 35.4" fill="rgb(40,41,41)" fill-opacity="1"></path><path d="M-33.55,31.4L-33.55 26.4Q-31.8 28.15 -33 32.25L-33.55 32.4L-33.55 31.4" fill="rgb(7,32,7)" fill-opacity="1"></path><path d="M-29.55,38.4L-29.55 39.4L-29.55 40.4L-30.55 40.4L-30.55 39.4L-30.55 31.4L-29.55 31.4L-29.55 38.4" fill="rgb(17,20,18)" fill-opacity="1"></path><path d="M-33.55,38.4L-33.45 39.4Q-32.85 42.1 -34.55 42.4L-34.55 41.4L-34.55 38.4L-33.55 38.4" fill="rgb(75,77,75)" fill-opacity="1"></path><path d="M-31.55,50.4L-31.55 49.4L-31.55 45.4L-30.55 45.4L-30.55 49.4L-30.55 50.4L-31.55 50.4" fill="rgb(32,34,33)" fill-opacity="1"></path><path d="M-29.55,40.4L-29.55 44.4L-29.55 45.4L-30.55 45.4L-30.55 44.4L-30.55 40.4L-29.55 40.4" fill="rgb(38,41,40)" fill-opacity="1"></path><path d="M-30.55,54.4L-30.55 50.4L-30.55 49.4L-30.55 45.4L-29.55 45.4L-29.55 54.4L-29.55 55.4L-30.55 55.4L-30.55 54.4" fill="rgb(130,131,131)" fill-opacity="1"></path><path d="M-12.55,41.4L-9.55 41.4L-8.55 41.4Q-8.55 41.9 -8.7 41.95Q-11.75 43.1 -12.55 41.4" fill="rgb(118,118,118)" fill-opacity="1"></path><path d="M-42.1,19.3Q-42.55 17.4 -42.55 15.4L-41.55 15.4L-41.55 18.4L-41.55 19.4L-42.1 19.3" fill="rgb(66,69,67)" fill-opacity="1"></path><path d="M-46.55,20.4L-47.05 20.3Q-47.55 17.4 -47.55 14.4L-46.55 14.4L-46.55 19.4L-46.55 20.4" fill="rgb(57,60,57)" fill-opacity="1"></path><path d="M-40.55,23.4L-41.55 23.5Q-44.25 24.1 -44.55 22.4L-41.55 22.4L-40.55 22.4L-40.55 23.4" fill="rgb(145,146,145)" fill-opacity="1"></path><path d="M-4.55,64.4L-4.55 62.4Q-2.85 62.1 -2.15 60.6Q-2.05 60.4 -1.55 60.4L-1.55 61.4L-1.55 62.4L-2.05 62.45Q-2.35 65.1 -4.55 65.4L-4.55 64.4" fill="rgb(132,133,133)" fill-opacity="1"></path><path d="M-21.55,65.4L-11.55 67.3L-10.55 67.4L-10.55 68.4L-11.55 68.4L-17.55 68.4L-18.45 68.2L-21.55 66.4L-21.55 65.4" fill="rgb(134,135,135)" fill-opacity="1"></path><path d="M-10.55,68.4L-10.55 67.4L-7.55 67.4L-6.55 67.4Q-6.55 67.9 -6.7 67.95L-9.55 68.4L-10.55 68.4" fill="rgb(117,118,118)" fill-opacity="1"></path><path d="M-31.55,53.4L-31.55 54.4L-32.1 54.3L-32.55 50.4L-31.55 50.4L-31.55 53.4" fill="rgb(18,20,19)" fill-opacity="1"></path><path d="M-31.55,56.4L-31.55 55.4L-31.55 54.4L-31.55 53.4L-31.55 50.4L-30.55 50.4L-30.55 54.4L-30.55 55.4L-30.55 56.4L-31.55 56.4" fill="rgb(78,79,79)" fill-opacity="1"></path><path d="M-36.55,58.4L-36.55 59.4L-37.05 59.3Q-37.55 56.4 -37.55 53.4L-36.55 53.4L-36.55 58.4" fill="rgb(142,143,143)" fill-opacity="1"></path><path d="M-30.55,56.4L-30.55 64.4L-30.55 65.4L-31.05 65.35Q-31.55 60.9 -31.55 56.4L-30.55 56.4" fill="rgb(66,67,67)" fill-opacity="1"></path><path d="M-35.45,68.4L-35.55 69.4L-36.1 69.3Q-36.55 67.4 -36.55 65.4Q-34.85 65.7 -35.45 68.4" fill="rgb(106,108,107)" fill-opacity="1"></path><path d="M-22.8,81.55L-22.6 81.95L-25 80.45Q-23.5 80.6 -22.8 81.55" fill="rgb(143,144,144)" fill-opacity="1"></path></g></g></g></g></svg>