<svg width="194" height="151" viewBox="-79 -91 194 151"><g><defs></defs></g><rect x="-79" y="-91" width="194" height="151" fill="#006600"></rect><g id="0"><defs></defs><g><g type="shape" id="0:1:161"><defs></defs><g transform="matrix(1,0,0,1,0,0)"><path d="M42,-91L49 -91L50 -91L50 -90L49 -90L42 -90L42 -91" fill="rgb(130,133,130)" fill-opacity="1"></path><path d="M51,-90L51 -84L51 -83L51 -82L50 -82L49 -82Q49 -84 48 -85.05Q43.25 -90.1 37 -85L36.5 -85Q36.7 -82.3 35 -82L34.15 -81.8Q26.6 -77.4 25 -67L25 -65L25 -64L24 -64Q24 -59.5 24.5 -55.05L25 -55L30.9 -55.5L31 -56Q38.8 -55.7 40.85 -61.05L41 -62L41.55 -62.15Q42.7 -65.2 41 -66L40.75 -66.75L40 -67L40 -68L41 -68L42 -68Q47.95 -67.6 48.95 -77L49 -78Q50.7 -78.3 50.5 -81L51 -81Q55.45 -76.7 63 -76.6Q67 -76.5 70 -74Q71.3 -72.3 75 -72.9L76 -73Q103.7 -67.2 113.8 -43.9L114 -43Q114 -40 114.5 -37.1L115 -37L115 -18L115 -17L114 -17L114 -13L114 -12L113.9 -11Q106.3 22.8 65 23L64.85 23.95Q61.35 35.35 56 45L56 46L56 46.6L55.75 47L55.5 47L55.55 47.4L54.75 48.75Q54.35 49.45 54.25 50.25L54.1 51.95L54 52L54 52.6L53.9 53.7L53.8 53.9Q51.9 57.4 48 59L47 59L26 59Q22 56.5 21.8 50Q21.5 40.5 12 40L11.9 39.45L8 39L7 39L-3 39L-4 39L-12 39L-12 40Q-14.5 40 -15.65 41.25L-31 58L-32 58L-37 58L-38 58L-41 58L-42 57.9Q-55.8 55.3 -56 39L-55.9 38Q-55.3 34.8 -57 34L-57 33L-57 30L-57 29L-57 26L-57 25L-57 24L-56.45 23.85Q-55.3 20.8 -57 20L-57.5 19.95Q-57.8 17.3 -59 16L-58.9 15Q-58.3 12.3 -60 12Q-60 11.5 -60.25 11.15Q-61.2 9.7 -61 7L-60.9 6.05Q-60.4 3.9 -62 4L-62 2.5Q-74.65 5.15 -78 -4L-78 -5L-78 -12L-78 -13Q-75.4 -17.85 -70.85 -20.75L-70 -21L-70 -20L-70.2 -19.1Q-71.2 -17.2 -73 -16L-73 -15L-74 -15L-74 -14L-74 -13L-75 -13Q-75 -10 -74.5 -7.1L-74 -7Q-74 -5 -73.55 -3.1L-73 -3L-72.75 -2.25L-72 -2Q-71.2 -0.3 -68.15 -1.45Q-68 -1.5 -68 -2Q-58.7 -7.25 -56.15 2.05Q-56 2.5 -56 3L-56 6L-56 7Q-56 10 -55.5 12.9L-55 13Q-55 17.5 -54.5 21.95L-54 22L-54 23L-54 24Q-54.15 28.15 -53.15 31.05L-53 32Q-53 34.5 -52.5 36.9L-52 37Q-51.8 39.8 -51.15 42.05Q-51 42.5 -51 43Q-51 45.5 -50.5 47.9L-50 48Q-47.25 53.75 -39 54L-38 54Q-35.75 55.75 -31.1 54.55L-31 54Q-25.15 42.85 -18.65 32.2L-18 32Q-17.7 36.7 -10.95 35.1L-10 35Q-5.75 36.75 1 36.05L2 36L7 36L8 36L18.95 35.5L19 35L19 34Q25 44 31.35 53.75Q31.5 54 32 54Q37.75 55.75 45.95 54.5L46 54Q53.45 51.95 54.9 43.15Q56.2 35.2 59 28Q60.7 27.7 60.1 25L60 24L59.9 23.5Q51.45 21.55 46 17L45 17L40 17L39.15 16.75Q35.4 14.1 31 12L30.75 11.25Q26.6 7.4 24 2L24 1L23.75 0.15Q22.8 -1.3 23 -4L23 -5L23 -11L23 -12L23 -13L23 -15L25.15 -16.75L26 -17Q26 -16.5 26.25 -16.25Q26.5 -16 27 -16L27 -12L27 -11Q27 -8.5 27.5 -6.1L28 -6Q30.95 9.05 42 10.5L42 10Q43.7 9.7 43.1 7L43 6L43 5L43 4Q44.55 1.55 45.45 -1.9L46 -2Q51.55 1.45 52.2 10.9Q52.75 18.75 62 19Q65.75 20.75 71.9 19.5L72 19L74 19L75 19L78.9 18.55L79 18Q99.45 12.45 108.8 -4.1L109 -5Q110.7 -5.3 110.1 -8L110 -9L110 -10L110 -11Q111.7 -11.3 111.1 -14L111 -15Q112.7 -15.3 112.1 -18L112 -19L112 -20L112 -25L112 -26L112.5 -26.1Q113.75 -32.75 112 -37L111.9 -38Q109.05 -55.55 95 -62L94.75 -62.75L94 -63Q94 -63.5 93.8 -63.6Q86.05 -67.05 79 -71L78 -71L69 -71Q69.4 -65.4 71.4 -61.2Q71.5 -61 72 -61Q72 -59 72.45 -57.1L73 -57L73 -56L73 -55L73 -51L73 -50L72.9 -49Q72 -43 68 -40Q71.3 -34.8 72.9 -27.95L73 -27L73 -21L73 -20L73 -17L73 -16L72.9 -15Q70.9 -6.1 63 -3L62 -3L57 -3L56 -3.1Q50.8 -4.3 47 -7L46.75 -7.75L46 -8L45.8 -8.9L45 -10L44.8 -10.9Q43.05 -15.05 42 -20L42 -21L42 -28L42 -29L42 -34L42 -35L42 -36Q43.2 -37.8 44.75 -39.25L45 -40L45.75 -40.25L46 -41Q46.5 -41 46.8 -41.25Q48.9 -43.15 46 -44L45 -44L44.9 -44.55Q43.35 -44.9 44 -47L44.1 -48Q44.7 -50.7 43 -51L42.95 -52Q42.4 -58.5 36 -54L35 -54L32 -54L32 -53L31 -53L30 -53L28 -53L27 -53L24 -53L24 -52L23 -52Q23 -50 23.45 -48.1L24 -48L24 -47Q24 -44.5 24.5 -42.1L25 -42L25 -35L25 -34L24 -34L24 -31L24 -30L23.75 -29.25Q23.5 -29 23 -29L23 -28L22 -28L22 -24L22 -23L21.75 -22.25L21 -22L21 -23L21 -24L21 -25L21 -30L21 -31Q22.6 -30.9 22.1 -33.05L22 -34L22.5 -34.1Q23.75 -39.75 22 -43L21.9 -44Q21.25 -47.25 21 -51L21 -52L21 -57L21 -58L21 -61L20.9 -61.5L15 -62L14 -62L12 -62L11.9 -62.55L8 -63L7 -63L-2 -63L-3 -63L-17 -63L-17 -62L-18 -62L-21 -62L-21 -61L-22 -60.9Q-48.1 -56.6 -57 -35L-57 -34L-58 -34L-58 -35L-58 -38Q-49.2 -60.25 -24 -65.9L-23 -66L-19.1 -66.45L-19 -67L-15 -67L-14 -67L-8 -67L-7 -67L-2 -67L-1 -67L0 -67L1 -67Q2.3 -65.3 6 -65.9L7 -66L14 -66L15 -66L20 -66L21 -66Q22.7 -66.3 22.1 -69L22 -70L22 -71Q27.4 -84.6 41.05 -89.85L42 -90L49 -90L50 -90L51 -90M45,-63Q45 -57 45.5 -51.05L46 -51Q46.7 -47.7 48.75 -45.75L49 -45Q52.25 -43.25 58 -43.95L59 -44Q66.35 -40.55 67.85 -44.45Q70.25 -50.75 67 -57L67 -58L67 -61L67 -62Q67.5 -62 67.55 -62.15Q68.7 -65.2 67 -66L66.8 -66.9Q64.65 -71.15 60 -73L59.9 -73.5L54 -74L54 -73L53.15 -72.75Q48.7 -69.8 46 -65L46 -64L46 -63L45 -63M66,-23L66 -26L66 -27L66 -31Q67.35 -37.35 64.15 -39.25Q52.45 -46.25 45 -36L45 -35L44 -35L44 -32L44 -31L44 -28L44 -27Q44 -23 44.5 -19.05L45 -19Q46.6 -7.1 58 -5.1L59 -5Q64.45 -5.05 66.75 -8.2L67 -9Q68.4 -14.55 66.15 -21.05L66 -22L66 -23" fill="rgb(8,12,8)" fill-opacity="1"></path><path d="M51,-81L50.5 -81Q50.7 -78.3 49 -78L49 -79L49 -82L50 -82L51 -82L51 -81" fill="rgb(40,45,41)" fill-opacity="1"></path><path d="M37,-78L37 -79L37 -85Q43.25 -90.1 48 -85.05Q49 -84 49 -82L49 -79L49 -78L48.95 -77Q47.95 -67.6 42 -68L41.85 -68.55Q38.05 -69.55 38 -74L38.1 -75Q38.7 -77.7 37 -78" fill="rgb(147,149,148)" fill-opacity="1"></path><path d="M22,-70L22.1 -69Q22.7 -66.3 21 -66L21 -67L21 -70L22 -70M51,-83L51 -84L51 -90Q52.75 -87.75 51.55 -83.1L51 -83" fill="rgb(55,114,55)" fill-opacity="1"></path><path d="M59,-73L54 -73L54 -74L59.9 -73.5L60 -73L59 -73" fill="rgb(64,68,64)" fill-opacity="1"></path><path d="M58.9,-44.55L55 -45L54.9 -45.55L51 -46L51 -45L50 -45L49 -45L48.75 -45.75Q46.7 -47.7 46 -51L46 -52L46 -63L46 -64L46 -65Q48.7 -69.8 53.15 -72.75L54 -73L59 -73L60 -73Q64.65 -71.15 66.8 -66.9L67 -66L67 -63L67 -62L67 -61L66 -61Q66 -59 66.45 -57.1L67 -57Q70.25 -50.75 67.85 -44.45Q66.35 -40.55 59 -44L58.9 -44.55M65.45,-22.1L66 -22L66.15 -21.05Q68.4 -14.55 67 -9L66.75 -8.2Q64.45 -5.05 59 -5L58 -5.1Q46.6 -7.1 45 -19L45 -20L45 -27L45 -28L45 -31L45 -32L45 -35L45 -36Q52.45 -46.25 64.15 -39.25Q67.35 -37.35 66 -31L65 -31L65 -27L65 -26Q65 -24 65.45 -22.1" fill="rgb(246,246,246)" fill-opacity="1"></path><path d="M30,-56L25 -56L25 -57L25 -64L25 -65L25 -67Q26.6 -77.4 34.15 -81.8L35 -82L35 -81Q35 -78 35.5 -75.1L36 -75L36 -74Q37.05 -70.05 39.3 -67.25Q39.5 -67 40 -67L40.75 -66.75L41 -66L41 -63L41 -62L40.85 -61.05Q38.8 -55.7 31 -56L30 -56" fill="rgb(126,112,105)" fill-opacity="1"></path><path d="M41,-63L41 -66Q42.7 -65.2 41.55 -62.15L41 -62L41 -63" fill="rgb(60,56,50)" fill-opacity="1"></path><path d="M39.3,-67.25Q37.05 -70.05 36 -74L37 -74L38 -74Q38.05 -69.55 41.85 -68.55L42 -68L41 -68L40 -68L40 -67Q39.5 -67 39.3 -67.25" fill="rgb(28,31,26)" fill-opacity="1"></path><path d="M46,-51L45.5 -51.05Q45 -57 45 -63L46 -63L46 -52L46 -51" fill="rgb(111,114,111)" fill-opacity="1"></path><path d="M45,-41L45 -40L44.75 -39.25Q43.2 -37.8 42 -36L42 -35L41 -35L38 -35L37.1 -35.2Q35.5 -36 34 -37L33.9 -37.5L29 -38L29 -39L29 -42L29 -43Q30.75 -45.75 30.05 -51L30 -52L30.75 -52.25L31 -53L32 -53L35.9 -53.45L36 -54Q42.4 -58.5 42.95 -52L43 -51Q43 -49 43.45 -47.1L44 -47Q43.35 -44.9 44.9 -44.55L45 -44L45 -41" fill="rgb(149,150,150)" fill-opacity="1"></path><path d="M76,-73L75 -72.9Q71.3 -72.3 70 -74L75.9 -73.5L76 -73" fill="rgb(55,96,55)" fill-opacity="1"></path><path d="M94,-59L94 -58L93.8 -57.1Q90.65 -51.35 85 -48L84 -48L75 -48Q74.5 -48 74.4 -48.2Q74 -49 74 -50L74.1 -51Q74.7 -54.2 73 -55L73 -56L73 -57L73.1 -58Q73.7 -60.7 72 -61Q71.5 -61 71.4 -61.2Q69.4 -65.4 69 -71L78 -71L79 -71Q86.05 -67.05 93.8 -63.6Q94 -63.5 94 -63L94 -59" fill="rgb(148,149,149)" fill-opacity="1"></path><path d="M67,-66Q68.7 -65.2 67.55 -62.15Q67.5 -62 67 -62L67 -63L67 -66" fill="rgb(127,130,127)" fill-opacity="1"></path><path d="M67,-61L67 -58L67 -57L66.45 -57.1Q66 -59 66 -61L67 -61" fill="rgb(137,138,137)" fill-opacity="1"></path><path d="M73,-57L72.45 -57.1Q72 -59 72 -61Q73.7 -60.7 73.1 -58L73 -57" fill="rgb(93,97,94)" fill-opacity="1"></path><path d="M73,-50L73 -51L73 -55Q74.7 -54.2 74.1 -51L74 -50L73 -50" fill="rgb(112,115,113)" fill-opacity="1"></path><path d="M71,19L62 19Q52.75 18.75 52.2 10.9Q51.55 1.45 46 -2L46 -3Q47.7 -3.3 47.1 -6L47 -7Q50.8 -4.3 56 -3.1L57 -3Q58.8 -1.25 62.85 -2.45L63 -3Q70.9 -6.1 72.9 -15L73 -16Q74.7 -16.3 74.1 -19L74 -20L74.1 -21Q74.75 -25.2 73 -27L72.9 -27.95Q71.3 -34.8 68 -40Q72 -43 72.9 -49L73 -50L74 -50Q74 -49 74.4 -48.2Q74.5 -48 75 -48Q78.75 -46.25 84.9 -47.5L85 -48Q90.65 -51.35 93.8 -57.1L94 -58Q95.7 -58.3 95.1 -61L95 -62Q109.05 -55.55 111.9 -38L112 -37L112 -27L112 -26L112 -25L111 -25L111 -20L111 -19L111 -16L111 -15L111.1 -14Q111.7 -11.3 110 -11L110 -10L110 -9L109 -9L109 -6L109 -5L108.8 -4.1Q99.45 12.45 79 18L78 18L75 18L75 19L74 19L72 19L71 19M95,-39Q95 -36.5 95.5 -34.1L96 -34Q100.65 -22.8 109.75 -30.3L110 -31Q110.5 -31 110.55 -31.15Q111.7 -34.7 110 -36L109.95 -37Q109.4 -41.4 107 -44L106.9 -44.5L101 -45L101 -44L100.2 -43.75Q98.25 -42.25 96 -41L96 -40L96 -39L95 -39M103,-7Q107.9 -7.6 107.75 -12Q107.25 -30.6 94 -20L94 -18L94 -17L93 -17Q93 -15 93.45 -13.1L94 -13Q93.55 -7.55 98 -7.05L99 -7Q99.8 -5.3 102.85 -6.45L103 -7" fill="rgb(81,81,81)" fill-opacity="1"></path><path d="M37,-74L36 -74L36 -75L36.1 -76Q36.7 -79.7 35 -81L35 -82Q36.7 -82.3 36.5 -85L37 -85L37 -79L37 -78L37 -75L37 -74" fill="rgb(17,23,17)" fill-opacity="1"></path><path d="M36,-75L35.5 -75.1Q35 -78 35 -81Q36.7 -79.7 36.1 -76L36 -75" fill="rgb(81,74,67)" fill-opacity="1"></path><path d="M38.1,-75L38 -74L37 -74L37 -75L37 -78Q38.7 -77.7 38.1 -75" fill="rgb(96,99,96)" fill-opacity="1"></path><path d="M7,-67L14.95 -66.5L15 -66L14 -66L7 -66L7 -67" fill="rgb(62,141,62)" fill-opacity="1"></path><path d="M15,-61L14 -60.9Q10.3 -60.3 9 -62L11 -62L12 -62L14 -62L15 -62L15 -61M112,-37Q113.75 -32.75 112.5 -26.1L112 -26L112 -27L112 -37" fill="rgb(57,57,57)" fill-opacity="1"></path><path d="M8,-62L8 -63L11.9 -62.55L12 -62L11 -62L9 -62L8 -62" fill="rgb(15,17,15)" fill-opacity="1"></path><path d="M2,-67L1 -67L0 -67L-1 -67L-1 -68L2 -68L3 -68L3 -67L2 -67" fill="rgb(63,158,63)" fill-opacity="1"></path><path d="M7,-66L6 -65.9Q2.3 -65.3 1 -67L2 -67L3 -67L6 -67L7 -67L7 -66" fill="rgb(2,52,2)" fill-opacity="1"></path><path d="M6.9,-67.55L7 -67L6 -67L3 -67L3 -68L6.9 -67.55" fill="rgb(34,165,34)" fill-opacity="1"></path><path d="M-2,-63L7 -63L8 -63L8 -62L7 -62L0 -62L-1 -62L-2 -62L-2 -63" fill="rgb(62,63,62)" fill-opacity="1"></path><path d="M-32,54L-38 54L-39 54Q-47.25 53.75 -50 48L-49.9 47Q-49.3 43.8 -51 43Q-51 42.5 -51.15 42.05Q-51.8 39.8 -52 37L-51.9 36Q-51.3 32.8 -53 32L-53.15 31.05Q-54.15 28.15 -54 24Q-53.5 24 -53.45 23.85Q-52.25 19.75 -54 18L-54 21L-54 22L-54.5 21.95Q-55 17.5 -55 13L-55 12L-55 7L-54.9 6Q-54.3 3.3 -56 3Q-56 2.5 -56.15 2.05Q-58.7 -7.25 -68 -2L-69 -2L-72 -2L-72.75 -2.25L-73 -3L-73 -4L-73 -15L-73 -16Q-71.2 -17.2 -70.2 -19.1L-70 -20Q-61.45 -21.45 -58.55 -28.85L-58 -29L-57 -29Q-56.7 -27.3 -55 -27.05L-54 -27L-23 -26L-22 -26L-18.1 -26.45L-18 -27L-13 -27L-12 -27L-7.1 -27.5Q-7 -27.5 -7 -28Q6.95 -32.05 16.75 -40.3L17 -41Q13.7 -56.2 0.15 -61.45Q0 -61.5 0 -62L7 -62L8 -62L9 -62Q10.3 -60.3 14 -60.9L15 -61L20 -61L21 -61L21 -58L21 -57L20 -57Q20 -54 20.5 -51.1L21 -51Q21.25 -47.25 21.9 -44L22 -43L22 -35L22 -34L22.1 -33.05Q22.6 -30.9 21 -31L21 -30L20 -30L20 -25L20 -24L19.75 -23.25L19 -23L19 -21L19 -20Q19 -18 19.45 -16.1L20 -16Q20.1 -13.1 22.1 -12.2L23 -12L23 -11L22 -11Q22 -7.5 22.5 -4.05L23 -4Q22.8 -1.3 23.75 0.15L24 1L23 1L15 1L15 2L14.05 2.15Q4.4 5.9 1 16Q0.8 28.2 11 29.9L12 30Q16.25 31.75 22.9 30.5L23 30Q31.5 29 31.95 20L32 19L32.1 18Q32.7 14.3 31 13L31 12Q35.4 14.1 39.15 16.75L40 17Q41.8 18.7 45.85 17.55L46 17Q51.45 21.55 59.9 23.5L60 24L59 24L59 27L59 28Q56.2 35.2 54.9 43.15Q53.45 51.95 46 54L45 54L32 54Q31.5 54 31.35 53.75Q25 44 19 34L19 35L18 35L8 35L7 35L2 35L1 35L-4 35Q-4 34.5 -4.1 34.5L-10 34L-11 34.05Q-16.35 34.85 -18 32L-18.65 32.2Q-25.15 42.85 -31 54L-32 54M-24,12Q-6.4 9.1 -0.2 -5.1L0 -6L0.55 -6.1Q1.75 -10.75 0 -13L-0.2 -13.9Q-3 -19.5 -10 -21L-10.1 -21.5L-16 -22L-16 -21L-16.95 -20.85Q-30.15 -16.15 -39 -7L-39 -5L-39 -4L-40 -4Q-40 0 -39.5 3.95L-39 4Q-37.35 10.35 -30.95 11.9L-30 12Q-28.2 13.75 -24.15 12.55Q-24 12.5 -24 12" fill="rgb(82,82,82)" fill-opacity="1"></path><path d="M15,-61L15 -62L20.9 -61.5L21 -61L20 -61L15 -61M21,-57L21 -52L21 -51L20.5 -51.1Q20 -54 20 -57L21 -57" fill="rgb(44,46,44)" fill-opacity="1"></path><path d="M-54,-27L-55 -27.05Q-56.7 -27.3 -57 -29L-57 -30L-57 -34L-57 -35Q-48.1 -56.6 -22 -60.9L-21 -61L-17.1 -61.45L-17 -62L-3 -62L-2 -62L-1 -62L0 -62Q0 -61.5 0.15 -61.45Q13.7 -56.2 17 -41L16.75 -40.3Q6.95 -32.05 -7 -28L-8 -28L-12 -28L-12 -27L-13 -27L-18 -27L-19 -27L-22 -27L-23 -27L-54 -27M-0.2,-5.1Q-6.4 9.1 -24 12L-25 12L-30 12L-30.95 11.9Q-37.35 10.35 -39 4L-39 3L-39 -4L-39 -5L-39 -7Q-30.15 -16.15 -16.95 -20.85L-16 -21L-11 -21L-10 -21Q-3 -19.5 -0.2 -13.9L0 -13L0 -7L0 -6L-0.2 -5.1" fill="rgb(152,154,154)" fill-opacity="1"></path><path d="M25,-55L24.5 -55.05Q24 -59.5 24 -64L25 -64L25 -57L25 -56L25 -55" fill="rgb(65,61,54)" fill-opacity="1"></path><path d="M24,-48L23.45 -48.1Q23 -50 23 -52L24 -52L24 -49L24 -48" fill="rgb(22,27,23)" fill-opacity="1"></path><path d="M24,-52L24 -53L27 -53L28 -53L28 -52L27 -52L24 -52" fill="rgb(43,46,43)" fill-opacity="1"></path><path d="M28,-42L28 -43L28 -52L28 -53L30 -53L31 -53L30.75 -52.25L30 -52L29 -52L29 -44L29 -43L29 -42L28 -42" fill="rgb(91,92,92)" fill-opacity="1"></path><path d="M23,-15L23 -13L23 -12L22.1 -12.2Q20.1 -13.1 20 -16L20 -17L20 -20L20 -21L21 -21Q22.45 -18.95 22.9 -16L23 -15M30,-52L30.05 -51Q30.75 -45.75 29 -43L29 -44L29 -52L30 -52" fill="rgb(141,142,142)" fill-opacity="1"></path><path d="M25.25,-33.25Q25 -33.5 25 -34L25 -35L25 -42L25.1 -43Q25.7 -46.2 24 -47L24 -48L24 -49L24 -52L27 -52L28 -52L28 -43L28 -42Q28 -40 28.45 -38.1L29 -38Q28.85 -36.4 31.05 -36.9L32 -37L31.8 -36.4Q29 -35 26 -34L26 -33Q25.5 -33 25.25 -33.25" fill="rgb(80,81,81)" fill-opacity="1"></path><path d="M25,-56L30 -56L31 -56L30.9 -55.5L25 -55L25 -56" fill="rgb(91,82,75)" fill-opacity="1"></path><path d="M32,-53L32 -54L35 -54L36 -54L35.9 -53.45L32 -53" fill="rgb(62,66,62)" fill-opacity="1"></path><path d="M25,-42L24.5 -42.1Q24 -44.5 24 -47Q25.7 -46.2 25.1 -43L25 -42" fill="rgb(33,37,33)" fill-opacity="1"></path><path d="M47.1,-6Q47.7 -3.3 46 -3L46 -4L46 -6L46 -7L46 -8L46.75 -7.75L47 -7L47.1 -6M28,-42L29 -42L29 -39L29 -38L28.45 -38.1Q28 -40 28 -42" fill="rgb(111,112,112)" fill-opacity="1"></path><path d="M42,-34L42 -29L42 -28L41 -28L40 -28Q40 -28.5 39.8 -28.6Q34.05 -31.3 32 -25L32 -24L31.4 -24.2Q31 -25 31 -26L31.2 -26.85Q35.75 -34.45 27 -32L26.75 -32.75L26 -33L26 -34Q29 -35 31.8 -36.4L32 -37L33 -37L34 -37Q35.5 -36 37.1 -35.2L38 -35Q38.3 -33.3 41 -33.9L42 -34" fill="rgb(26,25,24)" fill-opacity="1"></path><path d="M26,-33L26.75 -32.75L27 -32Q26.5 -32 26.4 -31.8Q25.7 -30.3 24 -30L24 -31L24 -34L25 -34Q25 -33.5 25.25 -33.25Q25.5 -33 26 -33" fill="rgb(18,19,16)" fill-opacity="1"></path><path d="M23,-23L23 -24L23 -28L23 -29Q23.5 -29 23.75 -29.25L24 -30Q25.7 -30.3 26.4 -31.8Q26.5 -32 27 -32Q35.75 -34.45 31.2 -26.85L31 -26L30.1 -25.8Q29.5 -25.5 29 -25Q28.6 -22.1 31.8 -23.45Q32 -23.5 32 -24L32 -25Q34.05 -31.3 39.8 -28.6Q40 -28.5 40 -28L40 -25L40 -24L40.1 -23.05Q40.6 -20.9 39 -21L39 -20L38.1 -19.8Q37.5 -19.5 37 -19L36 -19L26 -19Q25.5 -19 25.15 -19.25Q23.45 -20.45 23 -23" fill="rgb(126,111,104)" fill-opacity="1"></path><path d="M22,-43Q23.75 -39.75 22.5 -34.1L22 -34L22 -35L22 -43" fill="rgb(50,53,50)" fill-opacity="1"></path><path d="M20,-24L20 -25L20 -30L21 -30L21 -25L21 -24L20 -24" fill="rgb(63,64,63)" fill-opacity="1"></path><path d="M22,-23L22 -24L22 -28L23 -28L23 -24L23 -23L22 -23" fill="rgb(54,50,45)" fill-opacity="1"></path><path d="M31.8,-23.45Q28.6 -22.1 29 -25Q29.5 -25.5 30.1 -25.8L31 -26Q31 -25 31.4 -24.2L32 -24Q32 -23.5 31.8 -23.45" fill="rgb(85,74,70)" fill-opacity="1"></path><path d="M33,-37L32 -37L31.05 -36.9Q28.85 -36.4 29 -38L33.9 -37.5L34 -37L33 -37" fill="rgb(125,126,126)" fill-opacity="1"></path><path d="M41.1,-27Q41.7 -24.3 40 -24L40 -25L40 -28L41 -28L41.1 -27" fill="rgb(67,60,56)" fill-opacity="1"></path><path d="M19,-20L19 -21L19 -23L19.75 -23.25L20 -24L21 -24L21 -23L21 -22L21 -21L20 -21L20 -20L19 -20" fill="rgb(106,108,107)" fill-opacity="1"></path><path d="M19,-20L20 -20L20 -17L20 -16L19.45 -16.1Q19 -18 19 -20M12,30L22 30L23 30L22.9 30.5Q16.25 31.75 12 30" fill="rgb(112,113,113)" fill-opacity="1"></path><path d="M0.55,-6.1L0 -6L0 -7L0 -13Q1.75 -10.75 0.55 -6.1" fill="rgb(122,124,124)" fill-opacity="1"></path><path d="M36,-18L27 -18Q26.5 -18 26.25 -18.25Q26 -18.5 26 -19L36 -19L37 -19L37 -18L36 -18" fill="rgb(114,100,94)" fill-opacity="1"></path><path d="M41,-20L40 -20L39 -20L39 -21Q40.6 -20.9 40.1 -23.05L40 -24Q41.7 -24.3 41.1 -27L41 -28L42 -28L42 -21L42 -20L41 -20" fill="rgb(19,18,18)" fill-opacity="1"></path><path d="M39.75,-19.25L38 -18L37 -18L37 -19Q37.5 -19.5 38.1 -19.8L39 -20L40 -20L39.75 -19.25" fill="rgb(37,35,35)" fill-opacity="1"></path><path d="M42,6L42 9L42 10L42 10.5Q30.95 9.05 28 -6L28 -7L28 -11L28 -12L28 -15L33 -15L34 -15L37.9 -15.45L38 -16L38 -17L38 -18L39.75 -19.25L40 -20L41 -20L42 -20Q43.05 -15.05 44.8 -10.9L45 -10Q45 -8 45.45 -6.1L46 -6L46 -4L46 -3L46 -2L45.45 -1.9Q44.55 1.55 43 4L43 5L43 6L42 6" fill="rgb(147,149,149)" fill-opacity="1"></path><path d="M28,-16L29 -16L30 -16L33 -16L34 -16L34 -15L33 -15L28 -15L28 -16" fill="rgb(88,89,89)" fill-opacity="1"></path><path d="M37.9,-15.45L34 -15L34 -16L37 -16L38 -16L37.9 -15.45" fill="rgb(122,123,123)" fill-opacity="1"></path><path d="M38,-17L38 -16L37 -16L34 -16L33 -16L30 -16L30 -17L36.95 -17.5L37 -18L38 -18L38 -17" fill="rgb(23,22,22)" fill-opacity="1"></path><path d="M27,-18L36 -18L37 -18L36.95 -17.5L30 -17L29 -17L27 -17L27 -18" fill="rgb(57,50,47)" fill-opacity="1"></path><path d="M27,-17L26 -17L25.15 -16.75L23 -15L22.9 -16Q22.45 -18.95 21 -21L21 -22L21.75 -22.25L22 -23L23 -23Q23.45 -20.45 25.15 -19.25Q25.5 -19 26 -19Q26 -18.5 26.25 -18.25Q26.5 -18 27 -18L27 -17" fill="rgb(30,28,27)" fill-opacity="1"></path><path d="M27,-16Q26.5 -16 26.25 -16.25Q26 -16.5 26 -17L27 -17L29 -17L30 -17L30 -16L29 -16L28 -16L27 -16" fill="rgb(12,11,11)" fill-opacity="1"></path><path d="M27,-11L27 -12L27 -16L28 -16L28 -15L28 -12L28 -11L27 -11" fill="rgb(44,46,45)" fill-opacity="1"></path><path d="M28,-11L28 -7L28 -6L27.5 -6.1Q27 -8.5 27 -11L28 -11" fill="rgb(14,15,14)" fill-opacity="1"></path><path d="M110,-9L110.1 -8Q110.7 -5.3 109 -5L109 -6L109 -9L110 -9M23,-11L23 -5L23 -4L22.5 -4.05Q22 -7.5 22 -11L23 -11" fill="rgb(44,45,44)" fill-opacity="1"></path><path d="M66,-27L66 -26L65 -26L65 -27L65 -31L66 -31L66 -27" fill="rgb(94,98,94)" fill-opacity="1"></path><path d="M66,-22L65.45 -22.1Q65 -24 65 -26L66 -26L66 -23L66 -22" fill="rgb(139,141,139)" fill-opacity="1"></path><path d="M51,-46L54.9 -45.55L55 -45L54 -45L51 -45L51 -46" fill="rgb(226,226,226)" fill-opacity="1"></path><path d="M59,-44L58 -43.95Q52.25 -43.25 49 -45L50 -45L51 -45L54 -45L55 -45L58.9 -44.55L59 -44" fill="rgb(84,87,84)" fill-opacity="1"></path><path d="M43.45,-47.1Q43 -49 43 -51Q44.7 -50.7 44.1 -48L44 -47L43.45 -47.1" fill="rgb(36,37,36)" fill-opacity="1"></path><path d="M46,-41L45.75 -40.25L45 -40L45 -41L45 -44L46 -44L46 -42L46 -41" fill="rgb(105,106,106)" fill-opacity="1"></path><path d="M46,-42L46 -44Q48.9 -43.15 46.8 -41.25Q46.5 -41 46 -41L46 -42" fill="rgb(29,31,30)" fill-opacity="1"></path><path d="M44,-31L44 -32L44 -35L45 -35L45 -32L45 -31L44 -31" fill="rgb(55,59,55)" fill-opacity="1"></path><path d="M41,-33.9Q38.3 -33.3 38 -35L41 -35L42 -35L42 -34L41 -33.9" fill="rgb(85,85,85)" fill-opacity="1"></path><path d="M44,-31L45 -31L45 -28L45 -27L44 -27L44 -28L44 -31" fill="rgb(120,123,120)" fill-opacity="1"></path><path d="M44,-27L45 -27L45 -20L45 -19L44.5 -19.05Q44 -23 44 -27" fill="rgb(162,164,162)" fill-opacity="1"></path><path d="M45,-10L45.8 -8.9L46 -8L46 -7L46 -6L45.45 -6.1Q45 -8 45 -10" fill="rgb(127,128,128)" fill-opacity="1"></path><path d="M74,-20L74.1 -19Q74.7 -16.3 73 -16L73 -17L73 -20L74 -20M110.55,-31.15Q110.5 -31 110 -31L110 -32L110 -36Q111.7 -34.7 110.55 -31.15" fill="rgb(48,51,48)" fill-opacity="1"></path><path d="M73,-20L73 -21L73 -27Q74.75 -25.2 74.1 -21L74 -20L73 -20" fill="rgb(32,36,32)" fill-opacity="1"></path><path d="M57,-3L62 -3L63 -3L62.85 -2.45Q58.8 -1.25 57 -3" fill="rgb(47,49,47)" fill-opacity="1"></path><path d="M95.1,-61Q95.7 -58.3 94 -58L94 -59L94 -63L94.75 -62.75L95 -62L95.1 -61M-39.5,3.95Q-40 0 -40 -4L-39 -4L-39 3L-39 4L-39.5 3.95" fill="rgb(128,129,129)" fill-opacity="1"></path><path d="M115,-37L114.5 -37.1Q114 -40 114 -43Q115.7 -41.7 115.1 -38L115 -37" fill="rgb(51,94,51)" fill-opacity="1"></path><path d="M101,-45L106.9 -44.5L107 -44L106 -44L101 -44L101 -45" fill="rgb(31,34,31)" fill-opacity="1"></path><path d="M109.95,-37L110 -36L110 -32L110 -31L109.75 -30.3Q100.65 -22.8 96 -34L96 -35L96 -39L96 -40L96 -41Q98.25 -42.25 100.2 -43.75L101 -44L106 -44L107 -44Q109.4 -41.4 109.95 -37M94,-18L94 -20Q107.25 -30.6 107.75 -12Q107.9 -7.6 103 -7L102 -7L99 -7L98 -7.05Q93.55 -7.55 94 -13L94 -14L94 -17L94 -18" fill="rgb(7,13,7)" fill-opacity="1"></path><path d="M111,-19L111 -20L111 -25L112 -25L112 -20L112 -19L111 -19" fill="rgb(62,62,62)" fill-opacity="1"></path><path d="M8,40L8 39L11.9 39.45L12 40L11 40L8 40M96,-39L96 -35L96 -34L95.5 -34.1Q95 -36.5 95 -39L96 -39" fill="rgb(50,52,50)" fill-opacity="1"></path><path d="M84.9,-47.5Q78.75 -46.25 75 -48L84 -48L85 -48L84.9 -47.5" fill="rgb(130,131,131)" fill-opacity="1"></path><path d="M93.45,-13.1Q93 -15 93 -17L94 -17L94 -14L94 -13L93.45 -13.1" fill="rgb(47,50,47)" fill-opacity="1"></path><path d="M112,-19L112.1 -18Q112.7 -15.3 111 -15L111 -16L111 -19L112 -19" fill="rgb(34,35,34)" fill-opacity="1"></path><path d="M114,-12L114 -13L114 -17L115 -17L115.1 -16Q115.7 -12.8 114 -12" fill="rgb(55,93,55)" fill-opacity="1"></path><path d="M102.85,-6.45Q99.8 -5.3 99 -7L102 -7L103 -7L102.85 -6.45" fill="rgb(64,65,64)" fill-opacity="1"></path><path d="M-19,-67L-19.1 -66.45L-23 -66L-23 -67L-20 -67L-19 -67" fill="rgb(54,123,54)" fill-opacity="1"></path><path d="M-17.1,-61.45L-21 -61L-21 -62L-18 -62L-17 -62L-17.1 -61.45" fill="rgb(76,79,77)" fill-opacity="1"></path><path d="M-7,-67L-8 -67L-14 -67L-14 -68L-8 -68L-7 -68L-7 -67" fill="rgb(63,143,63)" fill-opacity="1"></path><path d="M-7,-68L-2 -68L-1 -68L-1 -67L-2 -67L-7 -67L-7 -68" fill="rgb(54,89,54)" fill-opacity="1"></path><path d="M-3,-62L-17 -62L-17 -63L-3 -63L-2 -63L-2 -62L-3 -62" fill="rgb(94,97,95)" fill-opacity="1"></path><path d="M-57,-30L-57 -29L-58 -29L-58 -30L-58 -34L-57 -34L-57 -30" fill="rgb(111,114,112)" fill-opacity="1"></path><path d="M-58,-29L-58.55 -28.85Q-61.45 -21.45 -70 -20L-70 -21L-70 -22Q-62.15 -25.65 -58.6 -33.8L-58 -34L-58 -30L-58 -29" fill="rgb(12,20,12)" fill-opacity="1"></path><path d="M-73,-3L-73.55 -3.1Q-74 -5 -74 -7L-74 -8L-74 -13L-74 -14L-74 -15L-73 -15L-73 -4L-73 -3" fill="rgb(68,68,68)" fill-opacity="1"></path><path d="M-74,-7L-74.5 -7.1Q-75 -10 -75 -13L-74 -13L-74 -8L-74 -7" fill="rgb(23,24,23)" fill-opacity="1"></path><path d="M-78,-12L-78 -5L-78 -4L-78.5 -4.05Q-79 -8 -79 -12L-78 -12" fill="rgb(56,118,56)" fill-opacity="1"></path><path d="M-68,-2Q-68 -1.5 -68.15 -1.45Q-71.2 -0.3 -72 -2L-69 -2L-68 -2" fill="rgb(42,43,42)" fill-opacity="1"></path><path d="M-22,-27L-19 -27L-18 -27L-18.1 -26.45L-22 -26L-22 -27" fill="rgb(100,101,101)" fill-opacity="1"></path><path d="M-12,-28L-8 -28L-7 -28Q-7 -27.5 -7.1 -27.5L-12 -27L-12 -28" fill="rgb(126,128,128)" fill-opacity="1"></path><path d="M-23,-27L-22 -27L-22 -26L-23 -26L-54 -27L-23 -27" fill="rgb(134,136,136)" fill-opacity="1"></path><path d="M-10,-21L-11 -21L-16 -21L-16 -22L-10.1 -21.5L-10 -21" fill="rgb(116,117,117)" fill-opacity="1"></path><path d="M-24.15,12.55Q-28.2 13.75 -30 12L-25 12L-24 12Q-24 12.5 -24.15 12.55" fill="rgb(98,99,99)" fill-opacity="1"></path><path d="M-4,35L-5 35L-10 35L-10 34L-4.1 34.5Q-4 34.5 -4 35" fill="rgb(66,67,67)" fill-opacity="1"></path><path d="M-5,35L-4 35L1 35L2 35L2 36L1 36.05Q-5.75 36.75 -10 35L-5 35" fill="rgb(14,16,14)" fill-opacity="1"></path><path d="M-11,34.05L-10 34L-10 35L-10.95 35.1Q-17.7 36.7 -18 32Q-16.35 34.85 -11 34.05" fill="rgb(55,56,55)" fill-opacity="1"></path><path d="M-3,40L-4 40L-12 40L-12 39L-4 39L-3 39L-3 40" fill="rgb(2,60,2)" fill-opacity="1"></path><path d="M-3,39L7 39L8 39L8 40L7 40L-3 40L-3 39" fill="rgb(91,94,91)" fill-opacity="1"></path><path d="M-56,7L-56 6L-56 3Q-54.3 3.3 -54.9 6L-55 7L-56 7" fill="rgb(47,48,47)" fill-opacity="1"></path><path d="M46,54L45.95 54.5Q37.75 55.75 32 54L45 54L46 54M-31,54L-31.1 54.55Q-35.75 55.75 -38 54L-32 54L-31 54M-55,7L-55 12L-55 13L-55.5 12.9Q-56 10 -56 7L-55 7" fill="rgb(22,24,22)" fill-opacity="1"></path><path d="M-60,12Q-58.3 12.3 -58.9 15L-59 16L-59.55 15.9L-60 12" fill="rgb(108,110,108)" fill-opacity="1"></path><path d="M-57,20Q-55.3 20.8 -56.45 23.85L-57 24L-57 23L-57 20" fill="rgb(65,68,65)" fill-opacity="1"></path><path d="M-54,24L-54 23L-54 22L-54 21L-54 18Q-52.25 19.75 -53.45 23.85Q-53.5 24 -54 24" fill="rgb(89,90,90)" fill-opacity="1"></path><path d="M-62,4Q-60.4 3.9 -60.9 6.05L-61 7L-61.3 7Q-61.55 6.2 -62.05 5.7L-61.95 5L-62 4" fill="rgb(49,143,49)" fill-opacity="1"></path><path d="M-57,26L-57 29L-57 30L-57.55 29.9L-58 26L-57 26" fill="rgb(114,115,114)" fill-opacity="1"></path><path d="M-52,37L-52.5 36.9Q-53 34.5 -53 32Q-51.3 32.8 -51.9 36L-52 37" fill="rgb(36,38,36)" fill-opacity="1"></path><path d="M-57,34Q-55.3 34.8 -55.9 38L-56 39L-56.5 38.9Q-57 36.5 -57 34" fill="rgb(71,73,71)" fill-opacity="1"></path><path d="M-50,48L-50.5 47.9Q-51 45.5 -51 43Q-49.3 43.8 -49.9 47L-50 48" fill="rgb(56,57,56)" fill-opacity="1"></path><path d="M-41,58L-38 58L-37 58L-37 59L-38 59.1Q-40.7 59.7 -41 58" fill="rgb(134,146,134)" fill-opacity="1"></path><path d="M-31.1,58.5L-37 59L-37 58L-32 58L-31 58L-31.1 58.5" fill="rgb(53,55,53)" fill-opacity="1"></path><path d="M75,18L78 18L79 18L78.9 18.55L75 19L75 18" fill="rgb(59,60,59)" fill-opacity="1"></path><path d="M72,19L71.9 19.5Q65.75 20.75 62 19L71 19L72 19" fill="rgb(24,28,24)" fill-opacity="1"></path><path d="M43,6L43.1 7Q43.7 9.7 42 10L42 9L42 6L43 6" fill="rgb(95,97,96)" fill-opacity="1"></path><path d="M40,17L45 17L46 17L45.85 17.55Q41.8 18.7 40 17" fill="rgb(28,29,28)" fill-opacity="1"></path><path d="M60,24L60.1 25Q60.7 27.7 59 28L59 27L59 24L60 24" fill="rgb(26,29,26)" fill-opacity="1"></path><path d="M54,52.6L54 52L54.1 51.95L54 52.6M55.55,47.4L55.5 47L55.75 47L55.55 47.4" fill="rgb(42,149,42)" fill-opacity="1"></path><path d="M31,13Q31 16 31.5 18.9L32 19L31.95 20Q31.5 29 23 30L22 30L12 30L11 29.9Q0.8 28.2 1 16Q4.4 5.9 14.05 2.15L15 2L23 2L24 2Q26.6 7.4 30.75 11.25L31 12L31 13" fill="rgb(151,153,153)" fill-opacity="1"></path><path d="M15,2L15 1L23 1L24 1L24 2L23 2L15 2" fill="rgb(115,116,116)" fill-opacity="1"></path><path d="M32,19L31.5 18.9Q31 16 31 13Q32.7 14.3 32.1 18L32 19" fill="rgb(109,110,110)" fill-opacity="1"></path><path d="M8,35L18 35L19 35L18.95 35.5L8 36L8 35M26,59L47 59L48 59L47.95 59.5Q35.75 60.75 26 59" fill="rgb(61,62,61)" fill-opacity="1"></path><path d="M2,35L7 35L8 35L8 36L7 36L2 36L2 35" fill="rgb(41,42,41)" fill-opacity="1"></path></g></g></g></g></svg>