<svg width="120" height="60" viewBox="-60 -30 120 60"><g><defs></defs></g><rect x="-60" y="-30" width="120" height="60" fill="#006600"></rect><g id="0"><defs></defs><g><g type="shape" id="0:1:276"><defs></defs><g transform="matrix(1,0,0,1,0,0)"><path d="M42.3,-21.65L47.25 -18.65L48 -17.95L53.5 -12.25Q59 -6.05 60.05 2L60.55 7.35Q60.8 12.25 57.8 16Q54.3 20.3 49.55 22.55Q48.3 23.8 46.6 24.35Q34.85 28.25 22.6 30.25L20.35 30.45L-7.85 30.85Q-23.9 31.05 -38.7 25.25L-45.1 22.85Q-51.2 20.6 -55.5 16.05L-55.7 15.75Q-56.2 14.75 -57.15 14.05L-58.45 12.8L-59.7 11.25L-59.8 10.7L-59.9 10.35L-60 10.05L-60.15 9.8L-60.6 8.85L-60.5 5Q-60.75 -0.95 -59.75 -6.65Q-59.35 -9.15 -58.05 -11.35Q-52.55 -20.85 -42.5 -25.4Q-31.65 -30.3 -19.6 -30.6Q12 -32.1 41.1 -22.1L42.3 -21.65" fill="rgb(0,0,0)" fill-opacity="1"></path></g></g></g></g></svg>