<svg width="91" height="89" viewBox="0 -86 91 89"><g><defs></defs></g><rect x="0" y="-86" width="91" height="89" fill="#006600"></rect><g id="0"><defs></defs><g><g type="shape" id="0:1:76"><defs></defs><g transform="matrix(1,0,0,1,0,0)"><path d="M90.2,-75.95L90.2 -77.2Q91 -76.75 91 -76.1L90.2 -75.95" fill="rgb(255,226,226)" fill-opacity="1"></path><path d="M90.2,-75.95L58.75 -41.8L89.95 -6.85L85.45 -5L79.15 3.2L44.8 -23.5L10 0.45L9.5 0.45L1 -12.5L29.8 -39.35L1.75 -75.95L11.65 -85.7L43.9 -55.95L80.05 -86.8L90.2 -77.2L90.2 -75.95" fill="rgb(255,14,14)" fill-opacity="1"></path><path d="M9.7,0.75L9.5 0.45L10 0.45L9.7 0.75" fill="rgb(255,190,190)" fill-opacity="1"></path></g></g></g></g></svg>