<svg width="147" height="239" viewBox="-51 -179 147 239"><g><defs></defs></g><rect x="-51" y="-179" width="147" height="239" fill="#006600"></rect><g id="0"><defs></defs><g><g type="shape" id="0:1:122"><defs></defs><g transform="matrix(1,0,0,1,0,0)"><path d="M78.8,-137.35Q87.65 -133.6 90.7 -124.05L90.85 -122.9L90.25 -122.9Q90.45 -125.45 88.45 -125.3L80 -134.95L78.8 -137.35" fill="rgb(111,102,2)" fill-opacity="1"></path><path d="M66.75,-130.15L61.9 -137.35L67.95 -137.35L80 -134.95L88.45 -125.3L88.4 -124.7Q80.65 -124.15 71.55 -128.9L66.75 -130.15" fill="rgb(253,229,118)" fill-opacity="1"></path><path d="M90.25,-122.9L90.85 -122.9L89.65 -114.45L86.05 -115.65L71.55 -128.9Q80.65 -124.15 88.4 -124.7L88.45 -125.3Q90.45 -125.45 90.25 -122.9" fill="rgb(247,221,5)" fill-opacity="1"></path><path d="M90.85,-113.25L89.65 -113.25L89.65 -114.45L90.85 -122.9L90.85 -113.25" fill="rgb(119,103,0)" fill-opacity="1"></path><path d="M66.75,-130.15L71.55 -128.9L86.05 -115.65L83.65 -115.65L66.75 -130.15" fill="rgb(218,173,4)" fill-opacity="1"></path><path d="M83.65,-115.65Q85.5 -110.95 88.65 -112.95L89.65 -113.25L90.85 -113.25L89.65 -110.85Q87.65 -110.85 86.25 -110.1Q84.85 -109.4 84.85 -108.4L78.8 -100L77.6 -100L63.15 -128.9L63.15 -130.15L64.35 -130.15L66.75 -130.15L83.65 -115.65" fill="rgb(115,73,0)" fill-opacity="1"></path><path d="M89.65,-113.25L88.65 -112.95Q85.5 -110.95 83.65 -115.65L86.05 -115.65L89.65 -114.45L89.65 -113.25" fill="rgb(212,167,0)" fill-opacity="1"></path><path d="M90.7,-124.05Q87.65 -133.6 78.8 -137.35L76.4 -139.75L76.1 -140.7Q72.35 -144.2 65.55 -144.6L65.3 -145.3Q61.55 -147.2 63.15 -154.25L65.55 -154.25Q65.55 -153.65 65.25 -153.35Q64.95 -153.05 64.35 -153.05Q68.6 -145.3 77.2 -141.3Q91.2 -134.7 96.9 -119.25Q95.9 -105.15 92.75 -92.85L92.05 -92.75L92.25 -93.9Q96.15 -105.65 90.85 -109.6Q90.25 -109.65 89.95 -109.95Q89.65 -110.25 89.65 -110.85L90.85 -113.25L90.85 -122.9L90.7 -124.05" fill="rgb(1,25,0)" fill-opacity="1"></path><path d="M89.65,-108.4L89.65 -106L83.65 -98.75L82.4 -98.75L81.2 -98.75Q81.2 -99.4 81.5 -99.65Q86.4 -103.5 84.85 -108.4Q84.85 -109.4 86.25 -110.1Q87.65 -110.85 89.65 -110.85Q89.65 -110.25 89.95 -109.95Q90.25 -109.65 90.85 -109.6L89.65 -108.4" fill="rgb(81,29,0)" fill-opacity="1"></path><path d="M87.25,-84.3L84.85 -83.1L86.05 -89.1L86.05 -90.35Q91.1 -95.55 90.25 -105.95L89.65 -106L89.65 -108.4L90.85 -109.6Q96.15 -105.65 92.25 -93.9L92.05 -92.75L87.25 -84.3" fill="rgb(81,37,0)" fill-opacity="1"></path><path d="M83.65,-98.75L89.65 -106L90.25 -105.95Q91.1 -95.55 86.05 -90.35L86.15 -91.55Q87.55 -97.9 83.65 -98.75" fill="rgb(202,155,5)" fill-opacity="1"></path><path d="M80,-98.75L79.7 -99.7L78.8 -100L84.85 -108.4Q86.4 -103.5 81.5 -99.65Q81.2 -99.4 81.2 -98.75L80 -98.75" fill="rgb(28,2,0)" fill-opacity="1"></path><path d="M51.05,-172.35L48.7 -173.35L46.25 -169.9L46.25 -168.7Q44.75 -168.7 43.7 -168Q42.65 -167.3 42.65 -166.3Q40.65 -166.3 39.25 -164.55Q37.8 -162.8 37.8 -160.3Q34.35 -154.6 36.75 -146.7L37.8 -143.4L37.8 -142.2L36.6 -141L36.6 -137.35Q34.85 -139.25 31.85 -139Q17.95 -137.9 10.05 -124.1L8.3 -123.4L8.85 -115.65L8.85 -110.85L12.5 -102.4L9.85 -104.5L12.5 -89.1L11.25 -86.7L10.05 -86.7L9.9 -87.2Q1.75 -100.9 4 -116.7Q5.25 -125.25 10.45 -132.2Q18.45 -143.05 31.75 -147.75L30.55 -166.3Q39.15 -178.9 54 -179.1L54.7 -175.95L51.05 -172.35" fill="rgb(3,5,0)" fill-opacity="1"></path><path d="M51.05,-172.35L54.7 -175.95L55.9 -175.95L61.9 -169.9L61.9 -168.7L55.9 -171.15L59.5 -165.1L57.1 -165.1L52.25 -168.7Q52.25 -169.35 52.05 -169.45L49.85 -169.9L51.05 -172.35" fill="rgb(106,81,0)" fill-opacity="1"></path><path d="M49.85,-169.9L48.65 -169.9L46.25 -169.9L48.7 -173.35L51.05 -172.35L49.85 -169.9" fill="rgb(45,14,0)" fill-opacity="1"></path><path d="M49.85,-155.45L48.65 -169.9L49.85 -169.9L52.05 -169.45Q52.25 -169.35 52.25 -168.7L51.05 -165.1L51.05 -155.45L49.85 -155.45" fill="rgb(137,94,0)" fill-opacity="1"></path><path d="M52.25,-168.7L57.1 -165.1L60.7 -160.3Q60.7 -159.7 60.5 -159.55L58.3 -159.05L52.25 -165.1L51.05 -165.1L52.25 -168.7" fill="rgb(230,205,3)" fill-opacity="1"></path><path d="M54.7,-156.65L51.05 -155.45L51.05 -165.1L52.25 -165.1L54.7 -156.65" fill="rgb(227,190,19)" fill-opacity="1"></path><path d="M61.85,-167.5Q61.55 -165.45 59.5 -165.1L55.9 -171.15L61.9 -168.7L61.85 -167.5" fill="rgb(27,9,0)" fill-opacity="1"></path><path d="M60.7,-160.3L57.1 -165.1L59.5 -165.1Q61.55 -165.45 61.85 -167.5L61.9 -168.7L61.9 -169.9L63.15 -162.7L60.7 -160.3" fill="rgb(117,91,0)" fill-opacity="1"></path><path d="M43.85,-144.6L37.8 -147L37.8 -143.4L36.75 -146.7Q34.35 -154.6 37.8 -160.3Q39.8 -160.4 39.6 -157.85L40.2 -157.85L42.65 -156.65Q48.1 -155.4 46.3 -167.5L46.25 -168.7L46.25 -169.9L48.65 -169.9L49.85 -155.45L53.5 -153.05L53.5 -151.85L39 -153.05L40.05 -151.55Q45.1 -145.3 53.5 -147L53.5 -144.6L43.85 -144.6" fill="rgb(86,32,0)" fill-opacity="1"></path><path d="M43.35,-156.9Q47.35 -164.1 42.65 -163.9L42.65 -166.3Q42.65 -167.3 43.7 -168Q44.75 -168.7 46.25 -168.7L46.3 -167.5Q48.1 -155.4 42.65 -156.65L43.35 -156.9" fill="rgb(137,89,0)" fill-opacity="1"></path><path d="M37.8,-160.3Q37.8 -162.8 39.25 -164.55Q40.65 -166.3 42.65 -166.3L42.65 -163.9L42.35 -161.75L40.2 -160.3L40.2 -157.85L39.6 -157.85Q39.8 -160.4 37.8 -160.3" fill="rgb(120,78,0)" fill-opacity="1"></path><path d="M40.2,-157.85L40.2 -160.3L42.35 -161.75L42.65 -163.9Q47.35 -164.1 43.35 -156.9L42.65 -156.65L40.2 -157.85" fill="rgb(215,168,0)" fill-opacity="1"></path><path d="M54.7,-156.65L52.25 -165.1L58.3 -159.05L58.3 -157.85L54.7 -156.65" fill="rgb(250,226,104)" fill-opacity="1"></path><path d="M63.15,-162.7L65.55 -168.7Q68.4 -162.2 65.7 -155.4L65.55 -154.25L63.15 -154.25L60.7 -155.45L59.5 -155.45Q58.9 -155.45 58.8 -155.7Q58.3 -156.65 58.3 -157.85L58.3 -159.05L60.5 -159.55Q60.7 -159.7 60.7 -160.3L63.15 -162.7" fill="rgb(4,17,0)" fill-opacity="1"></path><path d="M51.05,-155.45L54.7 -156.65L58.3 -157.85Q58.3 -156.65 58.8 -155.7Q58.9 -155.45 59.5 -155.45L53.5 -153.05L49.85 -155.45L51.05 -155.45" fill="rgb(110,90,0)" fill-opacity="1"></path><path d="M53.5,-151.85L53.5 -153.05L59.5 -155.45L60.7 -155.45L60.6 -154.3Q59.3 -149.6 54.7 -148.2L53.5 -151.85" fill="rgb(236,212,0)" fill-opacity="1"></path><path d="M54.7,-148.2L54.4 -147.3Q54.1 -147 53.5 -147Q45.1 -145.3 40.05 -151.55L39 -153.05L53.5 -151.85L54.7 -148.2M24.25,-114.15Q26.35 -118.05 29.35 -118.05L22.15 -104.8Q22.15 -110.3 24.25 -114.15" fill="rgb(207,160,0)" fill-opacity="1"></path><path d="M65.55,-143.4L63.15 -138.55L61.9 -138.55L61.9 -137.35L60.7 -133.75L59.5 -133.75Q58.3 -133.75 57.35 -133.25Q57.1 -133.15 57.1 -132.55L53.5 -132.55L51.05 -132.55L51.25 -133.2Q59.8 -136.1 45.05 -136.15Q44.4 -136.15 44.15 -136.45Q43.8 -136.75 43.85 -137.35L55.9 -138.55Q55.85 -139.2 56.2 -139.55Q63.7 -148 53.5 -144.6L53.5 -147Q54.1 -147 54.4 -147.3L54.7 -148.2Q59.3 -149.6 60.6 -154.3L60.7 -155.45L63.15 -154.25Q61.55 -147.2 65.3 -145.3L65.55 -144.6L65.55 -143.4" fill="rgb(118,87,0)" fill-opacity="1"></path><path d="M63.15,-162.7L61.9 -169.9L55.9 -175.95L65.55 -168.7L63.15 -162.7" fill="rgb(14,58,0)" fill-opacity="1"></path><path d="M37.8,-147L43.85 -144.6L42.7 -144.75Q38 -146.1 39 -142.2L37.8 -142.2L37.8 -143.4L37.8 -147" fill="rgb(164,114,0)" fill-opacity="1"></path><path d="M53.5,-144.6Q52.6 -140.15 54.85 -138.8L55.9 -138.55L43.85 -137.35L42.65 -137.35L39 -142.2Q38 -146.1 42.7 -144.75L43.85 -144.6L53.5 -144.6" fill="rgb(212,165,0)" fill-opacity="1"></path><path d="M36.6,-137.35L36.6 -141L37.8 -142.2L39 -142.2L42.65 -137.35Q41.15 -137.35 40.1 -136.65Q39 -135.95 39 -134.95L37.8 -134.95L36.6 -137.35" fill="rgb(78,24,0)" fill-opacity="1"></path><path d="M12.5,-119.25L10.05 -121.7L10.05 -124.1Q17.95 -137.9 31.85 -139Q34.85 -139.25 36.6 -137.35L37.8 -134.95L12.5 -119.25" fill="rgb(109,67,0)" fill-opacity="1"></path><path d="M41.4,-132.55Q40.6 -125.75 38.7 -119.15Q37.1 -113.55 34.35 -108.3Q30.8 -101.65 31.75 -93.95L30.55 -93.95L22.15 -98.75L20.9 -98.7Q18.95 -98.6 19.7 -101.2L22.15 -104.8L29.35 -118.05L37.8 -134.95L39 -134.95L41.4 -132.55" fill="rgb(117,75,0)" fill-opacity="1"></path><path d="M37.8,-134.95L29.35 -118.05Q26.35 -118.05 24.25 -114.15Q22.15 -110.3 22.15 -104.8L19.7 -101.2L14.9 -104.8L11.25 -110.85L10.05 -115.65L12.5 -119.25L37.8 -134.95" fill="rgb(210,164,0)" fill-opacity="1"></path><path d="M41.4,-132.55L39 -134.95Q39 -135.95 40.1 -136.65Q41.15 -137.35 42.65 -137.35L43.85 -137.35Q43.8 -136.75 44.15 -136.45Q44.4 -136.15 45.05 -136.15L48.65 -131.35L43.85 -132.55L41.4 -132.55" fill="rgb(10,0,0)" fill-opacity="1"></path><path d="M10.05,-121.7L8.85 -115.65L8.3 -123.4L10.05 -124.1L10.05 -121.7" fill="rgb(26,4,0)" fill-opacity="1"></path><path d="M12.5,-119.25L10.05 -115.65L8.85 -115.65L10.05 -121.7L12.5 -119.25" fill="rgb(106,63,0)" fill-opacity="1"></path><path d="M11.25,-110.85L8.85 -110.85L8.85 -115.65L10.05 -115.65L11.25 -110.85" fill="rgb(62,25,0)" fill-opacity="1"></path><path d="M11.25,-110.85L14.9 -104.8L13.7 -101.2Q13.05 -101.2 12.8 -101.5Q12.45 -101.8 12.5 -102.4L8.85 -110.85L11.25 -110.85" fill="rgb(35,3,0)" fill-opacity="1"></path><path d="M13.7,-91.55L13.7 -89.1L12.5 -89.1L9.85 -104.5L12.5 -102.4Q12.45 -101.8 12.8 -101.5Q13.05 -101.2 13.7 -101.2L13.7 -100L13.7 -91.55" fill="rgb(107,64,0)" fill-opacity="1"></path><path d="M19.7,-101.2Q18.95 -98.6 20.9 -98.7L22.15 -98.75L18.5 -96.35L17.3 -96.35L17 -97.25Q16.7 -97.6 16.1 -97.55L13.7 -100L13.7 -101.2L14.9 -104.8L19.7 -101.2" fill="rgb(52,5,0)" fill-opacity="1"></path><path d="M31.75,-93.95Q30.8 -101.65 34.35 -108.3Q37.1 -113.55 38.7 -119.15Q40.6 -125.75 41.4 -132.55L43.85 -132.55L40.2 -104.8Q42.3 -98.15 38.1 -93.7Q37.8 -93.35 37.8 -92.75L31.75 -93.95" fill="rgb(175,116,0)" fill-opacity="1"></path><path d="M48.65,-90.35L45.05 -90.35Q44.4 -90.35 44.3 -90.55Q43.45 -92.4 40.2 -91.55L39.95 -92.25Q39 -92.75 37.8 -92.75Q37.8 -93.35 38.1 -93.7Q42.3 -98.15 40.2 -104.8L43.85 -132.55L48.65 -131.35L48.65 -98.75L48.65 -90.35" fill="rgb(111,68,0)" fill-opacity="1"></path><path d="M76.4,-139.75L78.8 -137.35L76.4 -137.35L63.15 -138.55L65.55 -143.4L76.4 -139.75" fill="rgb(200,155,0)" fill-opacity="1"></path><path d="M80,-134.95L67.95 -137.35L76.4 -137.35L78.8 -137.35L80 -134.95" fill="rgb(246,221,37)" fill-opacity="1"></path><path d="M65.55,-143.4L65.55 -144.6Q72.35 -144.2 76.1 -140.7L76.4 -139.75L65.55 -143.4" fill="rgb(79,40,0)" fill-opacity="1"></path><path d="M76.4,-137.35L67.95 -137.35L61.9 -137.35L61.9 -138.55L63.15 -138.55L76.4 -137.35" fill="rgb(241,209,11)" fill-opacity="1"></path><path d="M60.7,-133.75L61.9 -137.35L66.75 -130.15L64.35 -130.15L60.7 -133.75" fill="rgb(205,167,31)" fill-opacity="1"></path><path d="M59.5,-133.75L60.7 -133.75L64.35 -130.15L63.15 -130.15L63.15 -128.9L59.5 -133.75" fill="rgb(131,88,0)" fill-opacity="1"></path><path d="M63.15,-128.9L77.6 -100L72.8 -97.55L63.15 -120.5L63 -121.7Q62.4 -125.8 59.5 -127.7L57.1 -132.55Q57.1 -133.15 57.35 -133.25Q58.3 -133.75 59.5 -133.75L63.15 -128.9" fill="rgb(217,171,0)" fill-opacity="1"></path><path d="M54.85,-138.8Q52.6 -140.15 53.5 -144.6Q63.7 -148 56.2 -139.55Q55.85 -139.2 55.9 -138.55L54.85 -138.8" fill="rgb(240,215,0)" fill-opacity="1"></path><path d="M45.05,-136.15Q59.8 -136.1 51.25 -133.2L51.05 -132.55L49.85 -132.55L49.85 -131.35L48.65 -131.35L45.05 -136.15" fill="rgb(88,42,0)" fill-opacity="1"></path><path d="M49.85,-98.75L49.85 -131.35L49.85 -132.55L51.05 -132.55L53.5 -132.55L53.5 -131.35Q48.75 -129.65 50.75 -120.55L53.8 -106Q55.2 -98.8 57.1 -91.55L55.9 -91.55Q49.25 -91.5 49.85 -98.75" fill="rgb(222,177,0)" fill-opacity="1"></path><path d="M49.85,-98.75L48.65 -98.75L48.65 -131.35L49.85 -131.35L49.85 -98.75" fill="rgb(180,135,0)" fill-opacity="1"></path><path d="M60.7,-121.7L65.85 -96.1L61.9 -95.15L53.5 -131.35L53.5 -132.55L57.1 -132.55L59.5 -127.7L60.7 -121.7" fill="rgb(254,230,112)" fill-opacity="1"></path><path d="M60.85,-92.6Q58.35 -93.05 58.3 -91.55L57.1 -91.55Q55.2 -98.8 53.8 -106L50.75 -120.55Q48.75 -129.65 53.5 -131.35L61.9 -95.15L60.85 -92.6" fill="rgb(253,228,5)" fill-opacity="1"></path><path d="M60.7,-121.7L59.5 -127.7Q62.4 -125.8 63 -121.7L63.15 -120.5L60.7 -121.7" fill="rgb(238,202,2)" fill-opacity="1"></path><path d="M58.3,-91.55Q58.35 -93.05 60.85 -92.6L61.9 -95.15L65.85 -96.1L60.7 -121.7L63.15 -120.5L72.8 -97.55L72.8 -96.35L63.15 -91.55L58.3 -91.55" fill="rgb(239,212,22)" fill-opacity="1"></path><path d="M72.8,-96.35L72.8 -97.55L77.6 -100L78.8 -100L79.7 -99.7L80 -98.75L76.4 -96.35L72.8 -96.35" fill="rgb(91,37,0)" fill-opacity="1"></path><path d="M76.4,-93.95L76.4 -96.35L80 -98.75L81.2 -98.75L82.4 -98.75L76.4 -93.95" fill="rgb(116,80,1)" fill-opacity="1"></path><path d="M69.15,-90.35L63.15 -91.55L72.8 -96.35L76.4 -96.35L76.4 -93.95L75.2 -93.95L75.2 -92.75L74 -92.75L74 -91.55L69.15 -90.35" fill="rgb(51,36,0)" fill-opacity="1"></path><path d="M75.2,-79.5L74 -91.55L74 -92.75L75.2 -92.75L75.2 -79.5" fill="rgb(238,203,67)" fill-opacity="1"></path><path d="M70.35,-74.65L67.95 -89.1Q68.55 -89.1 68.85 -89.4L69.15 -90.35L74 -91.55L75.2 -79.5Q75.15 -78.9 75.5 -78.55Q75.75 -78.25 76.4 -78.25L70.35 -74.65" fill="rgb(216,168,0)" fill-opacity="1"></path><path d="M75.5,-78.55Q75.15 -78.9 75.2 -79.5L75.2 -92.75L75.2 -93.95L76.4 -93.95L82.4 -98.75L83.65 -98.75Q87.55 -97.9 86.15 -91.55L86.05 -90.35L86.05 -89.1L80 -80.7L79.3 -80.45Q78.45 -78.65 76.4 -78.25Q75.75 -78.25 75.5 -78.55" fill="rgb(249,225,121)" fill-opacity="1"></path><path d="M58.3,-90.35L58.3 -91.55L63.15 -91.55L69.15 -90.35L68.85 -89.4Q68.55 -89.1 67.95 -89.1L67.25 -88.9Q66.4 -87.1 63.15 -87.9L59.5 -87.9L58.3 -90.35" fill="rgb(61,10,0)" fill-opacity="1"></path><path d="M53.5,-86.7L53.5 -87.9L59.5 -87.9L63.15 -87.9Q63.15 -87.3 62.85 -87Q62.5 -86.7 61.9 -86.7L53.5 -86.7" fill="rgb(109,57,0)" fill-opacity="1"></path><path d="M67.25,-88.9L67.95 -89.1L70.35 -74.65L70.35 -73.45L61.9 -71.05L61.9 -86.7Q62.5 -86.7 62.85 -87Q63.15 -87.3 63.15 -87.9Q66.4 -87.1 67.25 -88.9" fill="rgb(186,125,0)" fill-opacity="1"></path><path d="M84.85,-83.1L82.4 -80.7L80 -80.7L86.05 -89.1L84.85 -83.1" fill="rgb(129,99,7)" fill-opacity="1"></path><path d="M82.4,-80.7L82.4 -78.25L77.6 -73.45L75.2 -73.45L70.35 -73.45L70.35 -74.65L76.4 -78.25Q78.45 -78.65 79.3 -80.45L80 -80.7L82.4 -80.7" fill="rgb(83,46,0)" fill-opacity="1"></path><path d="M52.25,-90.35L48.65 -90.35L48.65 -98.75L49.85 -98.75Q49.25 -91.5 55.9 -91.55L57.1 -91.55L58.3 -91.55L58.3 -90.35L52.25 -90.35" fill="rgb(177,129,0)" fill-opacity="1"></path><path d="M45.05,-90.35L48.65 -90.35L52.25 -90.35L52.25 -89.1Q51.65 -89.15 51.25 -88.8Q47.75 -86.55 45.05 -89.1L45.05 -90.35" fill="rgb(80,27,0)" fill-opacity="1"></path><path d="M53.2,-88.8L53.5 -87.9L53.5 -86.7L43.85 -86.7L40.2 -86.7L40.2 -87.9L45.05 -89.1Q47.75 -86.55 51.25 -88.8Q51.65 -89.15 52.25 -89.1Q52.85 -89.15 53.2 -88.8" fill="rgb(53,6,0)" fill-opacity="1"></path><path d="M58.3,-90.35L59.5 -87.9L53.5 -87.9L53.2 -88.8Q52.85 -89.15 52.25 -89.1L52.25 -90.35L58.3 -90.35" fill="rgb(70,11,0)" fill-opacity="1"></path><path d="M49.85,-85.5L46.25 -85.5L45.05 -85.5Q44.4 -85.5 44.15 -85.8Q43.8 -86.1 43.85 -86.7L53.5 -86.7L53.5 -85.5L52.25 -85.5L49.85 -85.5" fill="rgb(115,57,0)" fill-opacity="1"></path><path d="M61.9,-69.85L60.3 -68.6L51.05 -68.6L51.05 -69.85L52.25 -69.85L57.8 -70.65L57.6 -85.1L53.5 -85.5L53.5 -86.7L61.9 -86.7L61.9 -71.05L61.9 -69.85" fill="rgb(210,163,6)" fill-opacity="1"></path><path d="M37.8,-89.1L35.7 -90.3L40.2 -91.55Q43.45 -92.4 44.3 -90.55Q44.4 -90.35 45.05 -90.35L45.05 -89.1L40.2 -87.9L37.8 -89.1" fill="rgb(11,0,0)" fill-opacity="1"></path><path d="M35.4,-69.85L34.2 -72.25L35.4 -72.25L36.6 -72.25L39.3 -71.15L40.2 -86.7L43.85 -86.7Q43.8 -86.1 44.15 -85.8Q44.4 -85.5 45.05 -85.5L45.05 -72.25L44.1 -69.6L35.4 -69.85" fill="rgb(212,164,1)" fill-opacity="1"></path><path d="M46.25,-85.5L49.85 -85.5L49.85 -84.3L46.25 -80.7L46.25 -85.5" fill="rgb(187,125,0)" fill-opacity="1"></path><path d="M51.05,-69.85L51.05 -68.6L44.1 -69.6L45.05 -72.25L46.25 -80.7L49.85 -84.3L51.05 -69.85" fill="rgb(189,129,0)" fill-opacity="1"></path><path d="M49.85,-84.3L49.85 -85.5L52.25 -85.5L51.05 -84.3L52.25 -69.85L51.05 -69.85L49.85 -84.3" fill="rgb(225,180,22)" fill-opacity="1"></path><path d="M45.05,-85.5L46.25 -85.5L46.25 -80.7L45.05 -72.25L45.05 -85.5" fill="rgb(204,149,0)" fill-opacity="1"></path><path d="M53.5,-85.5L57.6 -85.1L57.8 -70.65L52.25 -69.85L51.05 -84.3L52.25 -85.5L53.5 -85.5" fill="rgb(252,227,120)" fill-opacity="1"></path><path d="M53.5,-63.8L53.5 -56.55L45.05 -57.75Q49.7 -59.05 46.55 -62.85Q46.2 -63.2 46.25 -63.8L53.5 -63.8" fill="rgb(100,59,0)" fill-opacity="1"></path><path d="M45.05,-57.75L53.5 -56.55L59.5 -56.55L60.7 -56.55L59.5 -54.15L55.9 -51.75L54.7 -51.75L54.7 -50.55L49.85 -50.55L46.25 -50.55L41.4 -51.75L39 -52.95L29.35 -60.2L33 -44.5L29.35 -43.3L26.95 -48.1L26.95 -57.75L28.15 -62.6L35.4 -69.85L44.1 -69.6L51.05 -68.6L60.3 -68.6L61.9 -69.85Q65.15 -70.7 66 -68.85Q66.1 -68.65 66.75 -68.6L61.9 -66.2L59.3 -64.65Q57 -65.55 57.1 -63.8L53.5 -63.8L46.25 -63.8L34.4 -64.95L39 -58.95L45.05 -57.75" fill="rgb(12,3,0)" fill-opacity="1"></path><path d="M59.5,-56.55L53.5 -56.55L53.5 -63.8L57.1 -63.8L55.9 -62.6L56.25 -58.35L59.5 -57.75L59.5 -56.55" fill="rgb(127,89,0)" fill-opacity="1"></path><path d="M61.9,-61.4L61.9 -60.2L59.5 -57.75L56.25 -58.35L55.9 -62.6L57.1 -63.8Q62 -65.15 61.9 -61.4M57.1,-62.6Q57.1 -62 57.35 -61.8Q62.95 -58.3 57.1 -62.6" fill="rgb(205,178,0)" fill-opacity="1"></path><path d="M61.9,-60.2L61.9 -61.4Q62 -65.15 57.1 -63.8Q57 -65.55 59.3 -64.65L61.9 -66.2Q66.05 -65.15 62.7 -60.5Q62.5 -60.2 61.9 -60.2" fill="rgb(129,88,0)" fill-opacity="1"></path><path d="M40.15,-63.25L39 -58.95L34.4 -64.95L46.25 -63.8L40.15 -63.25" fill="rgb(91,50,0)" fill-opacity="1"></path><path d="M39,-58.95L40.15 -63.25L46.25 -63.8Q46.2 -63.2 46.55 -62.85Q49.7 -59.05 45.05 -57.75L39 -58.95" fill="rgb(137,96,0)" fill-opacity="1"></path><path d="M49.85,-38.45L45.05 -38.45L45.05 -44.5L46.25 -45.6L46.25 -50.55L49.85 -50.55L49.85 -38.45" fill="rgb(249,226,0)" fill-opacity="1"></path><path d="M39,-39.7L39 -40.3Q36.45 -40.1 36.6 -42.1L41.4 -51.75L46.25 -50.55L46.25 -45.6L45.05 -44.5L45.05 -38.45L39 -39.7" fill="rgb(149,107,0)" fill-opacity="1"></path><path d="M34.2,-46.9L39 -52.95L41.4 -51.75L36.6 -42.1L34.2 -44.5L34.2 -46.9" fill="rgb(180,118,0)" fill-opacity="1"></path><path d="M67.95,-50.55Q70.05 -53.85 68.15 -58.2L60.7 -56.55L59.5 -56.55L59.5 -57.75L61.9 -60.2Q62.5 -60.2 62.7 -60.5Q66.05 -65.15 61.9 -66.2L66.75 -68.6L75.2 -73.45L77.6 -73.45Q79.65 -59.8 80.15 -43.3Q80.6 -26.4 76.4 -15.55L20.9 -15.55L21.85 -39.3L23.35 -36.05L24.55 -36.05L26.95 -36.05L35.4 -36.05L39 -39.7L45.05 -38.45Q52.95 -36 60.5 -40.15Q60.7 -40.3 60.7 -40.9L61.9 -40.9L64.35 -36.05L75.2 -37.25L76.4 -51.75L75.2 -65L74.7 -68.6Q70.55 -69.6 72.8 -63.8L72.95 -52.8L71.55 -51.75L71.55 -46.9L67.95 -40.9L63.15 -42.1L67.95 -50.55M25.75,-19.2L74 -19.2L75.2 -31.25L59.5 -32.45L58.3 -32.45L25.75 -32.45L25.75 -31.25L25.75 -19.2" fill="rgb(4,9,0)" fill-opacity="1"></path><path d="M55.9,-40.9L60.7 -40.9Q60.7 -40.3 60.5 -40.15Q52.95 -36 45.05 -38.45L49.85 -38.45L49.85 -50.55L54.7 -50.55L55.9 -40.9" fill="rgb(139,99,0)" fill-opacity="1"></path><path d="M55.9,-40.9L54.7 -50.55L54.7 -51.75L55.9 -51.75L55.9 -40.9" fill="rgb(185,151,0)" fill-opacity="1"></path><path d="M55.9,-51.75L59.5 -54.15Q66.25 -57.7 67.85 -51.7L67.95 -50.55L63.15 -42.1L61.9 -42.1L61.9 -40.9L60.7 -40.9L55.9 -40.9L55.9 -51.75" fill="rgb(245,221,0)" fill-opacity="1"></path><path d="M68.15,-58.2Q70.05 -53.85 67.95 -50.55L67.85 -51.7Q66.25 -57.7 59.5 -54.15L60.7 -56.55L68.15 -58.2" fill="rgb(142,107,0)" fill-opacity="1"></path><path d="M57.35,-61.8Q57.1 -62 57.1 -62.6Q62.95 -58.3 57.35 -61.8" fill="rgb(254,234,0)" fill-opacity="1"></path><path d="M75.2,-73.45L66.75 -68.6Q66.1 -68.65 66 -68.85Q65.15 -70.7 61.9 -69.85L61.9 -71.05L70.35 -73.45L75.2 -73.45" fill="rgb(52,8,0)" fill-opacity="1"></path><path d="M75.2,-55.35L74 -55.35L72.8 -63.8Q70.55 -69.6 74.7 -68.6L75.2 -65L75.2 -55.35" fill="rgb(202,178,72)" fill-opacity="1"></path><path d="M71.55,-46.9L71.55 -51.75L72.95 -52.8L72.8 -63.8L74 -55.35L74.15 -51.6L72.8 -49.35L71.55 -46.9" fill="rgb(127,107,8)" fill-opacity="1"></path><path d="M64.8,-38.2L65.55 -38.45Q76.65 -34 73.4 -49.2L72.8 -49.35L74.15 -51.6L74 -55.35L75.2 -55.35L75.2 -51.75L75.2 -37.25L64.35 -36.05Q64.35 -37.25 64.8 -38.2" fill="rgb(224,201,96)" fill-opacity="1"></path><path d="M75.2,-51.75L75.2 -55.35L75.2 -65L76.4 -51.75L75.2 -51.75" fill="rgb(101,104,0)" fill-opacity="1"></path><path d="M75.2,-51.75L76.4 -51.75L75.2 -37.25L75.2 -51.75" fill="rgb(46,92,0)" fill-opacity="1"></path><path d="M26.95,-91.55Q29.3 -91.6 30.25 -92.9L30.55 -93.95L31.75 -93.95L37.8 -92.75Q39 -92.75 39.95 -92.25L40.2 -91.55L35.7 -90.3L37.8 -89.1L31.75 -89.1L30.55 -89.1L26.95 -91.55" fill="rgb(43,4,0)" fill-opacity="1"></path><path d="M33,-85.5L31.75 -73.45L29.35 -74.65L29.35 -89.1L30.55 -89.1L31.75 -89.1Q31.75 -88.5 32.05 -88.2Q32.35 -87.9 33 -87.9L33 -85.5" fill="rgb(188,126,0)" fill-opacity="1"></path><path d="M35.4,-72.25L34.2 -72.25L33 -72.25L33 -85.5L33 -87.9L37.8 -86.7L36.6 -86.7L35.4 -72.25" fill="rgb(219,172,7)" fill-opacity="1"></path><path d="M40.2,-87.9L40.2 -86.7L37.8 -86.7L33 -87.9Q32.35 -87.9 32.05 -88.2Q31.75 -88.5 31.75 -89.1L37.8 -89.1L40.2 -87.9" fill="rgb(114,64,2)" fill-opacity="1"></path><path d="M18.5,-95.15L26.95 -91.55L30.55 -89.1L29.35 -89.1L28.15 -74.65L17.3 -84.3L18.5 -95.15" fill="rgb(114,72,0)" fill-opacity="1"></path><path d="M36.6,-86.7L37.8 -86.7L40.2 -86.7L39.3 -71.15L36.6 -72.25L36.6 -86.7" fill="rgb(254,230,126)" fill-opacity="1"></path><path d="M36.6,-86.7L36.6 -72.25L35.4 -72.25L36.6 -86.7" fill="rgb(243,210,83)" fill-opacity="1"></path><path d="M18.5,-95.15L18.5 -96.35L22.15 -98.75L30.55 -93.95L30.25 -92.9Q29.3 -91.6 26.95 -91.55L18.5 -95.15" fill="rgb(11,1,0)" fill-opacity="1"></path><path d="M29.35,-89.1L29.35 -74.65L28.15 -74.65L29.35 -89.1" fill="rgb(168,112,0)" fill-opacity="1"></path><path d="M34.2,-72.25L35.4 -69.85L28.15 -62.6L28.15 -67.4L27.95 -68.55Q26.65 -71.95 22.15 -72.25L14.9 -80.7L11.25 -86.7L12.5 -89.1L13.7 -89.1L16.1 -85.5Q16.05 -84.9 16.4 -84.6Q16.7 -84.3 17.3 -84.3L28.15 -74.65L29.35 -74.65L31.75 -73.45Q31.75 -72.85 32.05 -72.55Q32.35 -72.25 33 -72.25L34.2 -72.25" fill="rgb(39,3,0)" fill-opacity="1"></path><path d="M33,-72.25Q32.35 -72.25 32.05 -72.55Q31.75 -72.85 31.75 -73.45L33 -85.5L33 -72.25" fill="rgb(207,155,0)" fill-opacity="1"></path><path d="M16.1,-85.5L13.7 -89.1L13.7 -91.55L16.1 -97.55Q16.7 -97.6 17 -97.25L17.3 -96.35L16.1 -85.5" fill="rgb(183,120,0)" fill-opacity="1"></path><path d="M13.7,-100L16.1 -97.55L13.7 -91.55L13.7 -100" fill="rgb(160,105,0)" fill-opacity="1"></path><path d="M17.3,-84.3Q16.7 -84.3 16.4 -84.6Q16.05 -84.9 16.1 -85.5L17.3 -96.35L18.5 -96.35L18.5 -95.15L17.3 -84.3" fill="rgb(145,93,0)" fill-opacity="1"></path><path d="M10.05,-86.7L11.25 -86.7L14.9 -80.7L10.05 -86.7" fill="rgb(0,16,0)" fill-opacity="1"></path><path d="M20.9,-15.55L76.4 -15.55Q73.55 -8.05 65.45 -6.2Q58.3 -4.65 51.05 -5.9Q43.25 -4.15 40.35 3.8Q40.25 4 40.3 4.3Q50.3 20.95 44.2 38.2Q42.15 43.9 37.35 47.55Q22.25 59.1 3.75 56.65Q-9.3 55.1 -18.9 45.95Q-28.9 48 -29.75 58.5Q-37.3 62 -44.8 58.85Q-51.05 56.15 -51.6 48.8Q-52.4 38.4 -43.15 32.9Q-39.05 30.45 -34.6 29.5Q-39.15 10.15 -38.15 -9.55L-23.7 -24L6.45 -26.4Q14.15 -38.3 8.9 -52.35L19.7 -66.2L19.7 -42.1L20.9 -15.55" fill="rgb(0,107,36)" fill-opacity="1"></path><path d="M25.75,-67.4L24 -66.7L23.35 -56.55L23.35 -44.5L22.75 -44.5Q22.9 -41.3 19.7 -42.1L19.7 -66.2L19.5 -67.35Q17.55 -73.2 22.15 -72.25Q26.65 -71.95 27.95 -68.55L28.15 -67.4L25.75 -67.4" fill="rgb(1,26,0)" fill-opacity="1"></path><path d="M25.75,-57.75L25.75 -54.15L25.15 -54.15Q25.3 -56.7 23.35 -56.55L24 -66.7L25.75 -67.4L25.75 -57.75" fill="rgb(147,126,20)" fill-opacity="1"></path><path d="M26.95,-57.75L25.75 -57.75L25.75 -67.4L28.15 -67.4L28.15 -62.6L26.95 -57.75" fill="rgb(106,77,2)" fill-opacity="1"></path><path d="M26.95,-57.75L26.95 -48.1L25.75 -50.55L25.75 -54.15L25.75 -57.75L26.95 -57.75" fill="rgb(101,74,4)" fill-opacity="1"></path><path d="M24.55,-36.05L23.35 -36.05L23.35 -44.5L23.35 -56.55Q25.3 -56.7 25.15 -54.15L25.75 -54.15L25.75 -50.55L24.55 -36.05" fill="rgb(187,176,67)" fill-opacity="1"></path><path d="M25.75,-50.55L26.95 -48.1L29.35 -43.3L33 -38.45L26.95 -36.05L24.55 -36.05L25.75 -50.55" fill="rgb(231,218,111)" fill-opacity="1"></path><path d="M34.2,-44.5L33 -44.5L29.35 -60.2L39 -52.95L34.2 -46.9L34.2 -44.5" fill="rgb(99,57,0)" fill-opacity="1"></path><path d="M36.6,-42.1Q36.45 -40.1 39 -40.3L39 -39.7L35.4 -36.05L33 -38.45L29.35 -43.3L33 -44.5L34.2 -44.5L36.6 -42.1" fill="rgb(67,30,1)" fill-opacity="1"></path><path d="M26.95,-36.05L33 -38.45L35.4 -36.05L26.95 -36.05" fill="rgb(223,209,102)" fill-opacity="1"></path><path d="M23.35,-36.05L21.85 -39.3L20.9 -15.55L19.7 -42.1Q22.9 -41.3 22.75 -44.5L23.35 -44.5L23.35 -36.05" fill="rgb(24,63,0)" fill-opacity="1"></path><path d="M59.5,-31.25L25.75 -31.25L25.75 -32.45L58.3 -32.45L59.5 -32.45L59.5 -31.25" fill="rgb(111,113,77)" fill-opacity="1"></path><path d="M75.2,-31.25L74 -19.2L25.75 -19.2L25.75 -31.25L59.5 -31.25L75.2 -31.25" fill="rgb(162,162,127)" fill-opacity="1"></path><path d="M71.55,-46.9L72.8 -49.35L73.4 -49.2Q76.65 -34 65.55 -38.45L67.95 -40.9L71.55 -46.9" fill="rgb(248,226,122)" fill-opacity="1"></path><path d="M65.55,-38.45L64.8 -38.2Q64.35 -37.25 64.35 -36.05L61.9 -40.9L61.9 -42.1L63.15 -42.1L67.95 -40.9L65.55 -38.45" fill="rgb(99,77,10)" fill-opacity="1"></path><path d="M59.5,-31.25L59.5 -32.45L75.2 -31.25L59.5 -31.25" fill="rgb(102,110,72)" fill-opacity="1"></path><path d="M84.85,-83.1L87.25 -84.3L82.4 -78.25L82.4 -80.7L84.85 -83.1" fill="rgb(22,39,0)" fill-opacity="1"></path></g></g></g></g></svg>