<svg xmlns="http://www.w3.org/2000/svg" viewBox="0 0 108.36 59.09"><defs><style>.cls-1{fill:#735c32;}.cls-2{fill:#2d2d2d;}.cls-3{fill:#907f3e;}.cls-4{fill:#b4a86b;}.cls-5{opacity:0.2;}</style></defs><title>FenceH</title><g id="Слой_2" data-name="Слой 2"><g id="Outlines"><path class="cls-1" d="M98.06,57.07A14.84,14.84,0,0,1,94,56.53a12.58,12.58,0,0,1-2.89-1.21l-.5-.29V6.45h12.26l.07.93c.55,7.93,2.28,29.27,3.61,32.71,1.75,4.53.12,14.12.05,14.53l-.09.51-.47.22A20.37,20.37,0,0,1,98.06,57.07Z"/><path class="cls-2" d="M101.94,7.45s2,28.66,3.67,33,0,14,0,14a19.48,19.48,0,0,1-7.55,1.62,13.82,13.82,0,0,1-3.78-.5,11.58,11.58,0,0,1-2.67-1.12v-47h10.33m0-2H89.61V55.61l1,.58a13.59,13.59,0,0,0,3.13,1.31,15.82,15.82,0,0,0,4.32.58,21.48,21.48,0,0,0,8.41-1.82l.93-.45.18-1c.18-1,1.71-10.35-.1-15.06-1.14-3-2.78-21.45-3.54-32.42l-.13-1.86Z"/><path class="cls-3" d="M99,29.36c-.88,2.46-4.28,5.63-7.37,8.15V7.45h6.51c.81,3,1.24,5.41,1.24,5.41S100.69,24.61,99,29.36Z"/><path class="cls-4" d="M96.7,9.7a11.44,11.44,0,0,1-2.59-.29A6.36,6.36,0,0,1,91.2,8a2.55,2.55,0,0,1-.91-1.88c0-2,2.76-3.58,6.42-3.58s6.43,1.54,6.43,3.58S100.37,9.7,96.7,9.7Z"/><path class="cls-2" d="M96.7,3.28c3.14,0,5.68,1.27,5.68,2.83S99.84,8.95,96.7,8.95a10.74,10.74,0,0,1-2.42-.27,5.66,5.66,0,0,1-2.57-1.23A1.85,1.85,0,0,1,91,6.11c0-1.56,2.54-2.83,5.67-2.83m0-1.5c-4.09,0-7.17,1.86-7.17,4.33a3.29,3.29,0,0,0,1.16,2.44,7.09,7.09,0,0,0,3.25,1.59,12.2,12.2,0,0,0,2.77.31c4.09,0,7.18-1.87,7.18-4.34S100.8,1.78,96.7,1.78Z"/><path class="cls-1" d="M44.62,58.09a19.71,19.71,0,0,1-8.54-1.78,15.32,15.32,0,0,1-3.81-2.54l-.33-.3,0-12.58.07-34,1.64,1.38a9.59,9.59,0,0,0,.82.59,19.06,19.06,0,0,0,8.76,3.08c.4,0,.81,0,1.23,0a18.34,18.34,0,0,0,11.9-4.74L58,5.88l.6,49-.59.27A35.66,35.66,0,0,1,44.62,58.09Z"/><path class="cls-2" d="M57,8l.57,46.25a35,35,0,0,1-13,2.83,18.78,18.78,0,0,1-8.11-1.68A14.26,14.26,0,0,1,32.93,53l0-12.14L33,9a10.1,10.1,0,0,0,.92.66,19.88,19.88,0,0,0,9.23,3.24c.43,0,.86,0,1.3,0C48.2,13,52.54,11.78,57,8M59,3.76,55.74,6.48A17.37,17.37,0,0,1,44.48,11c-.38,0-.77,0-1.15,0A18,18,0,0,1,35.05,8a9,9,0,0,1-.75-.53L31,4.8,31,9,31,40.88l0,12.14v.89l.66.6a16.32,16.32,0,0,0,4.07,2.71,20.69,20.69,0,0,0,9,1.87,36.77,36.77,0,0,0,13.81-3l1.18-.54,0-1.3L59,8,59,3.76Z"/><path class="cls-4" d="M45.51,10.41l-1,0c-7.14-.29-9.53-1.49-11.06-2.74a3.25,3.25,0,0,1-1.48-2.41c0-1.06.91-2,2.64-2.9A12.73,12.73,0,0,1,40.65,1.1c.9,0,1.89,0,3,.08l2.74.09,1.11,0c3,.05,5.23.09,8.11,1.45,1.71.8,2.83,1.42,2.85,2.54,0,1.51-1.91,2.35-4.17,3.32a21.58,21.58,0,0,1-8.58,1.81Z"/><path class="cls-2" d="M40.65,1.85c1.58,0,3.41.11,5.72.17,3.6.08,5.85,0,8.91,1.39,1.63.77,2.41,1.25,2.42,1.88,0,1-1.83,1.81-3.71,2.62A20.83,20.83,0,0,1,45.7,9.66h-.18l-1,0c-7-.29-9.2-1.41-10.62-2.57-.87-.71-1.22-1.27-1.21-1.82,0-.32.15-1.21,2.23-2.25a12,12,0,0,1,5.76-1.14m0-1.5a13.41,13.41,0,0,0-6.43,1.3c-2,1-3,2.19-3.06,3.55a3.9,3.9,0,0,0,1.76,3c1.88,1.54,4.56,2.62,11.51,2.91l1.07,0h.19a22.33,22.33,0,0,0,8.88-1.87c2.4-1,4.67-2,4.62-4,0-1.67-1.76-2.48-3.28-3.2C52.9.63,50.52.59,47.51.54L46.4.52,43.67.43c-1.12,0-2.1-.08-3-.08Z"/><path class="cls-3" d="M45.31,29.47c-.55,6.92-4.53,9.33-4.53,9.33L35.6,40.18,33,40.89,33,9a10.1,10.1,0,0,0,.92.66,19.88,19.88,0,0,0,9.23,3.24l.43.53S45.87,22.56,45.31,29.47Z"/><path class="cls-1" d="M73.56,57.73c-6.09,0-11.12-1.42-15-4.23l-.41-.3V6.82l1.56,1a19.74,19.74,0,0,0,3,1.53,27.39,27.39,0,0,0,9.09,2.18c.49,0,1,0,1.5,0a26.23,26.23,0,0,0,15-4.83l1.53-1,.88,48.81L90,54.8s-1,.38-2.65.84A51.39,51.39,0,0,1,73.56,57.73Z"/><path class="cls-2" d="M88.86,7.62l.83,46.25s-1,.36-2.57.82a50.83,50.83,0,0,1-13.56,2c-4.94,0-10.17-1-14.37-4V8.7a20.34,20.34,0,0,0,3.14,1.62,28.36,28.36,0,0,0,9.42,2.26q.76,0,1.56,0a27.15,27.15,0,0,0,15.55-5M90.8,3.87,87.73,6a25.25,25.25,0,0,1-14.42,4.66c-.48,0-1,0-1.44,0a26.37,26.37,0,0,1-8.74-2.1A19,19,0,0,1,60.31,7L57.2,5V53.71l.82.6c4,2.93,9.25,4.42,15.55,4.42a52.41,52.41,0,0,0,14.11-2.12c1.66-.48,2.68-.85,2.72-.87l1.32-.5,0-1.41L90.86,7.58,90.8,3.87Z"/><path class="cls-4" d="M74.25,10l-.89,0c-5.48-.17-9.15-.69-11.56-1.64a10.27,10.27,0,0,1-2-1C59,6.78,58,6,58,4.88s1-2,2.92-2.79L61.22,2A18.79,18.79,0,0,1,68.7.75c1.11,0,2.31,0,3.66.07l3.32.08,1.39,0C80.79,1,83.47,1,87,2.33c2.14.82,3.45,1.4,3.48,2.55.06,1.57-2.32,2.4-5.08,3.36A31.91,31.91,0,0,1,74.8,10Z"/><path class="cls-2" d="M68.7,1.5c1.93,0,4.17.11,7,.16,4.45.07,7.24-.07,11,1.37,2,.77,3,1.24,3,1.87,0,1-2.26,1.82-4.58,2.63A31.24,31.24,0,0,1,74.8,9.3h-.16l-1.26,0C67.19,9.07,64,8.44,62.07,7.67a9.46,9.46,0,0,1-1.84-1C59.15,6,58.72,5.45,58.73,4.9c0-.3.18-1.13,2.47-2.12l.29-.12A18,18,0,0,1,68.7,1.5m0-1.5a19.47,19.47,0,0,0-7.78,1.27l-.33.14c-.8.35-3.29,1.42-3.36,3.44,0,1.49,1.15,2.45,2.18,3.12a11,11,0,0,0,2.12,1.09c2.49,1,6.24,1.52,11.81,1.69l1.26,0h.21a32.65,32.65,0,0,0,10.8-1.85c3-1.06,5.67-2,5.58-4.11-.05-1.72-2-2.45-4-3.21C83.61.25,80.87.22,77.09.18L75.7.16,72.39.08C71,0,69.83,0,68.7,0Z"/><path class="cls-3" d="M74.44,29.11c-.66,6.92-5.58,9.34-5.58,9.34l-4.72,1-4.95,1.07V8.7a20.34,20.34,0,0,0,3.14,1.62,28.36,28.36,0,0,0,9.42,2.26l.53.53S75.11,22.2,74.44,29.11Z"/><path class="cls-1" d="M15.36,58.08h0C9.72,58,5,56.52,1.4,53.82l-.4-.3L1.11,6.65,2.73,8.24a26,26,0,0,0,11.76,3.69c.49,0,1,0,1.52,0A25.48,25.48,0,0,0,30.68,7.19l1.54-1.06L33,54.94l-.66.25a50.72,50.72,0,0,1-16.15,2.9Z"/><path class="cls-2" d="M31.25,8,32,54.26a50.21,50.21,0,0,1-15.79,2.83h-.44C11,57,6,56,2,53L2.1,9l.06,0a26.79,26.79,0,0,0,12.27,3.87q.77,0,1.58,0A26.41,26.41,0,0,0,31.25,8M.11,4.2V9L0,53v1l.81.6c3.71,2.76,8.45,4.26,14.1,4.44l0,0h1.23a51.84,51.84,0,0,0,16.5-3l1.31-.5,0-1.4L33.25,8l-.06-3.74L30.11,6.36A24.5,24.5,0,0,1,16,11c-.48,0-1,0-1.46,0A25,25,0,0,1,3.37,7.46L.11,4.2Z"/><path class="cls-4" d="M17.27,10.4l-1.26,0C7.4,10.07,4.53,8.89,2.71,7.66,1.81,7.06.89,6.29.91,5.21S2,3.14,4.09,2.28a18,18,0,0,1,7.25-1.19c1.09,0,2.27,0,3.6.08,1,0,2.15.07,3.38.09l1.4,0a37,37,0,0,1,6.07.41,19.13,19.13,0,0,1,3.61,1c2.1.82,3.38,1.4,3.42,2.56,0,1.56-2.3,2.39-5,3.35A31,31,0,0,1,17.58,10.4Z"/><path class="cls-2" d="M11.34,1.84c1.93,0,4.16.12,7,.17a47.62,47.62,0,0,1,7.35.42,18.31,18.31,0,0,1,3.47,1c2,.77,2.92,1.25,2.94,1.88,0,1-2.22,1.81-4.51,2.62a30,30,0,0,1-10,1.74h-.3L16,9.62C7.58,9.33,4.86,8.21,3.13,7,2.07,6.33,1.65,5.78,1.66,5.23,1.67,4.91,1.85,4,4.37,3a17.23,17.23,0,0,1,7-1.14m0-1.5A18.69,18.69,0,0,0,3.8,1.59C2.92,2,.23,3.07.16,5.18c0,1.47,1.13,2.43,2.13,3.1C4.5,9.78,7.68,10.83,16,11.12l1.3,0h.3A31.8,31.8,0,0,0,28.06,9.32c3-1.06,5.57-2,5.51-4.08C33.52,3.5,31.65,2.78,29.68,2A19.9,19.9,0,0,0,25.93,1,38,38,0,0,0,19.75.53l-1.41,0C17.11.49,16,.45,15,.42c-1.35,0-2.52-.08-3.63-.08Z"/><path class="cls-3" d="M17,29.46C14.57,34.52,8.61,36,8.36,41.19c-.14,2.9,1.61,4.13.83,6.58C8.3,50.63,4.93,52.16,2,53L2.1,9a26.71,26.71,0,0,0,12.33,3.91l.52.53C19.1,21.78,18.44,26.59,17,29.46Z"/><path class="cls-5" d="M35.6,40.18a36.13,36.13,0,0,0,0,5.18,74.64,74.64,0,0,1,.89,10A14.26,14.26,0,0,1,32.93,53l0-12.14L33,9a10.1,10.1,0,0,0,.92.66c.44,2.39,2.73,14.92,2.59,16.5C36.42,27.4,35.83,34.85,35.6,40.18Z"/><path class="cls-5" d="M87.12,54.69c-5.59,1.61-19.07,4.48-27.93-2V8.7a20.34,20.34,0,0,0,3.14,1.62c-.1,4.27-.38,20.65,1.36,24a9.52,9.52,0,0,1,.45,5.12c-.48,4-2,8.38-1.17,8.72,1.22.5,7.56,4.32,15.72,4.82A27.54,27.54,0,0,1,87.12,54.69Z"/><path class="cls-5" d="M15.73,57.08C11,57,6,56,2,53L2.1,9l.06,0c.51.45,4.13,3.7,3.2,7.72C4.36,21.11,2.69,33.95,3,35.53S2.19,51.86,6.94,54.11A39.46,39.46,0,0,0,15.73,57.08Z"/><path class="cls-5" d="M94.28,10.14V55.57a11.79,11.79,0,0,1-2.67-1.09V8.95h.1A5.74,5.74,0,0,0,94.28,10.14Z"/></g></g></svg>