<?xml version="1.0" encoding="utf-8"?>
<!-- Generator: Adobe Illustrator 24.3.0, SVG Export Plug-In . SVG Version: 6.00 Build 0)  -->
<svg version="1.1" id="Layer_1" xmlns="http://www.w3.org/2000/svg" xmlns:xlink="http://www.w3.org/1999/xlink" x="0px" y="0px"
	 viewBox="0 0 1000 1000" style="enable-background:new 0 0 1000 1000;" xml:space="preserve">
<style type="text/css">
	.st0{fill:#5B3406;}
</style>
<rect x="133.5" y="197.5" class="st0" width="85" height="609"/>
<rect x="469.8" y="197" class="st0" width="85" height="609"/>
<rect x="628.5" y="197" class="st0" width="85" height="609"/>
<rect x="787.5" y="198" class="st0" width="85" height="609"/>
<polygon class="st0" points="176,130.5 218.5,197.5 133.5,197.5 "/>
<polygon class="st0" points="512.3,130.5 554.8,197.5 469.8,197.5 "/>
<rect x="301.5" y="197.5" class="st0" width="85" height="609"/>
<polygon class="st0" points="344,130.5 386.5,197.5 301.5,197.5 "/>
<polygon class="st0" points="671,130 713.5,197 628.5,197 "/>
<polygon class="st0" points="830,131 872.5,198 787.5,198 "/>
<rect x="133" y="635" class="st0" width="739" height="72"/>
<rect x="133" y="377" class="st0" width="739" height="72"/>
</svg>
