<?xml version="1.0" encoding="utf-8"?>
<!-- Generator: Adobe Illustrator 24.3.0, SVG Export Plug-In . SVG Version: 6.00 Build 0)  -->
<svg version="1.1" id="Layer_1" xmlns="http://www.w3.org/2000/svg" xmlns:xlink="http://www.w3.org/1999/xlink" x="0px" y="0px"
	 viewBox="0 0 1000 1000" style="enable-background:new 0 0 1000 1000;" xml:space="preserve">
<style type="text/css">
	.st0{fill:#5B3406;}
</style>
<g>
	<circle class="st0" cx="502" cy="134" r="121.5"/>
	<path d="M502,13c32.3,0,62.7,12.6,85.6,35.4C610.4,71.3,623,101.7,623,134s-12.6,62.7-35.4,85.6C564.7,242.4,534.3,255,502,255
		s-62.7-12.6-85.6-35.4C393.6,196.7,381,166.3,381,134s12.6-62.7,35.4-85.6C439.3,25.6,469.7,13,502,13 M502,12
		c-67.4,0-122,54.6-122,122s54.6,122,122,122s122-54.6,122-122S569.4,12,502,12L502,12z"/>
</g>
<g>
	<circle class="st0" cx="502" cy="378" r="121.5"/>
	<path d="M502,257c32.3,0,62.7,12.6,85.6,35.4c22.9,22.9,35.4,53.2,35.4,85.6s-12.6,62.7-35.4,85.6C564.7,486.4,534.3,499,502,499
		c-32.3,0-62.7-12.6-85.6-35.4C393.6,440.7,381,410.3,381,378s12.6-62.7,35.4-85.6C439.3,269.6,469.7,257,502,257 M502,256
		c-67.4,0-122,54.6-122,122s54.6,122,122,122s122-54.6,122-122S569.4,256,502,256L502,256z"/>
</g>
<g>
	<circle class="st0" cx="502" cy="622" r="121.5"/>
	<path d="M502,501c32.3,0,62.7,12.6,85.6,35.4S623,589.7,623,622s-12.6,62.7-35.4,85.6S534.3,743,502,743s-62.7-12.6-85.6-35.4
		C393.6,684.7,381,654.3,381,622s12.6-62.7,35.4-85.6C439.3,513.6,469.7,501,502,501 M502,500c-67.4,0-122,54.6-122,122
		s54.6,122,122,122s122-54.6,122-122S569.4,500,502,500L502,500z"/>
</g>
<g>
	<circle class="st0" cx="498" cy="866" r="121.5"/>
	<path d="M498,745c32.3,0,62.7,12.6,85.6,35.4S619,833.7,619,866s-12.6,62.7-35.4,85.6S530.3,987,498,987s-62.7-12.6-85.6-35.4
		C389.6,928.7,377,898.3,377,866s12.6-62.7,35.4-85.6C435.3,757.6,465.7,745,498,745 M498,744c-67.4,0-122,54.6-122,122
		s54.6,122,122,122s122-54.6,122-122S565.4,744,498,744L498,744z"/>
</g>
</svg>
