<svg xmlns="http://www.w3.org/2000/svg" viewBox="0 0 128.7 141.67"><defs><style>.cls-1{fill:#ba6323;}.cls-1,.cls-2,.cls-4,.cls-5,.cls-6{stroke:#2d2d2d;stroke-miterlimit:10;}.cls-2{fill:#ffd968;stroke-width:0.75px;}.cls-3,.cls-5{fill:#deb100;}.cls-4{fill:#904918;}.cls-6{fill:#b78d09;}</style></defs><title>Goblet</title><g id="Слой_2" data-name="Слой 2"><g id="Outlines"><rect class="cls-1" x="33.98" y="81.94" width="56.5" height="40.69"/><path class="cls-2" d="M17.8,36.95S6.51,32.1,1.78,28a.85.85,0,0,0-1.4.75c1.43,11.1,8.18,53.58,28,55.89,22.83,2.66,20.44,2.07,20.44,2.07a24.65,24.65,0,0,1-.54-3L28.74,80.85S7.95,72.61,8.45,39.73l9.35,5.15Z"/><path class="cls-2" d="M44.06,85.84c-5.58,6.88-4.5,12.88-4.5,12.88,0,.22,0,.45,0,.67l-.06,0c0,10.68,10.15,19.33,22.67,19.33,12.25,0,22.23-8.29,22.65-18.66q0-.44,0-.88c.13-1.09.46-6.52-4.53-12.66"/><path class="cls-3" d="M44.18,85.84c-4.95,6-4,11.26-4,11.26,0,.2,0,.39,0,.59l-.06,0c0,9.34,9,16.91,20.08,16.91,10.86,0,19.69-7.25,20.06-16.32q0-.38,0-.77c.11-1,.41-5.7-4-11.08"/><path class="cls-2" d="M80.4,79.94v4.24c0,8.56-8.13,15.5-18.17,15.5s-18.17-6.94-18.17-15.5v-5.4"/><path class="cls-3" d="M76.25,77.37v2.94C76.25,86.24,69.12,91,60.33,91S44.42,86.24,44.42,80.31V76.57"/><path class="cls-2" d="M110.9,30.72v21.8c0,16.13-20.82,29.2-46.5,29.2C42.29,81.72,23.78,72,19.06,59a19.06,19.06,0,0,1-1.16-6.52V30.72Z"/><rect class="cls-4" x="33.96" y="122.86" width="56.5" height="18.31"/><path class="cls-2" d="M110.9,30.72c0,9.15-6.22,17.36-16.05,22.91C86.69,58.25,76,61,64.4,61,38.72,61,17.9,47.47,17.9,30.72S38.72.38,64.4.38,110.9,14,110.9,30.72Z"/><path class="cls-5" d="M104.76,30.72c0,10.58-9.57,19.71-23.38,23.88a58.26,58.26,0,0,1-17,2.45,57.85,57.85,0,0,1-18.15-2.82C33.06,49.91,24,41,24,30.72,24,16.17,42.1,4.38,64.39,4.38S104.76,16.17,104.76,30.72Z"/><path class="cls-6" d="M81.38,54.6a58.26,58.26,0,0,1-17,2.45,57.85,57.85,0,0,1-18.15-2.82c2.4-4.8,9.33-8.27,17.49-8.27C72.1,46,79.16,49.61,81.38,54.6Z"/><path class="cls-2" d="M110.9,37.21s11.28-4.94,16-9.08a.85.85,0,0,1,1.4.74c-1.43,11.28-8.18,54.6-28,57-22.83,2.71-20.44,2.1-20.44,2.1a25.54,25.54,0,0,0,.54-3.06L100,81.94s20.79-8.4,20.29-41.9L110.9,45.3Z"/></g></g></svg>