<svg width="135" height="156" viewBox="-32 -121 135 156"><g><defs></defs></g><rect x="-32" y="-121" width="135" height="156" fill="#006600"></rect><g id="0"><defs></defs><g><g type="shape" id="0:1:229"><defs></defs><g transform="matrix(1,0,0,1,0,0)"><path d="M91.85,-37.35Q98.45 -27.8 93.15 -17.35Q92.05 -15.2 90 -14.4L95.9 -1.7L45.55 0.05L43.75 -10.6L43.75 -11.5Q44.1 -26.55 43.75 -41.8Q33.3 -42.5 25.15 -40.5Q7.15 -36.15 3.65 -48.9Q-0.4 -56.55 0.7 -65.1Q1.5 -71.2 1.1 -77.45L20.2 -88.05L32.1 -88.5L35.1 -88.6L46.45 -89L46.45 -88.6Q46.55 -85.7 42.85 -85.45L38.4 -81.9Q41.85 -74.95 37.2 -68L36.6 -67.3L39.25 -53.9Q33.8 -49.95 27.75 -53.4Q33.7 -40.95 45.15 -48.85Q43.15 -66.15 50 -81.9L50 -80.1L50 -72.1L49.1 -64.95L47.35 -52.5Q47.7 -51.65 48.3 -50.95Q63.45 -34.15 85.65 -46.25L65.5 -46.95Q44.8 -50.45 58.9 -63.2Q58.6 -63.9 58.65 -64.55Q59.2 -75.1 55.35 -80.1L55.35 -82.8L59.8 -82.8L78.5 -84.55L79.85 -85.55Q82.2 -87.4 85.3 -87.65Q88.15 -88.05 90 -86.45L90.1 -78.3L86.5 -74.75L95.4 -61.75L91.85 -42.7Q84.85 -40.25 77.55 -39.8Q83.5 -35.1 91 -37.2L91.85 -37.35M9.05,-44.1Q18.3 -41.5 25.95 -47.15Q16.25 -53.75 9.1 -44.35Q9 -44.3 9.05 -44.1M71.2,-39.8L52.2 -41.45L48.2 -41.8L48.2 -4.4L54.45 -12.4L53.45 -37.35Q62.3 -40.4 72.25 -35.55L77.05 -39.75Q74.15 -39.65 71.2 -39.8" fill="rgb(154,139,0)" fill-opacity="1"></path><path d="M-2.55,-66.75L-3.45 -74.4L-3.45 -74.75L-3.1 -74.75L-2.55 -74.75Q-2.15 -74.75 -1.9 -74.55L-1.65 -73.85L-2.55 -66.75" fill="rgb(68,71,0)" fill-opacity="1"></path><path d="M-1.65,-73.85L-1.65 -66.75L-2.55 -66.75L-1.65 -73.85" fill="rgb(81,79,0)" fill-opacity="1"></path><path d="M50,-81.9Q43.15 -66.15 45.15 -48.85Q33.7 -40.95 27.75 -53.4Q33.8 -49.95 39.25 -53.9L36.6 -67.3L37.2 -68Q41.85 -74.95 38.4 -81.9Q43.35 -79.2 43.3 -85.45L42.85 -85.45Q46.55 -85.7 46.45 -88.6L46.45 -89Q49.25 -89.65 50.25 -88.35Q50.45 -88.15 50.9 -88.1L50 -81.9" fill="rgb(133,117,0)" fill-opacity="1"></path><path d="M50.9,-88.1L59.8 -82.8L55.35 -82.8L55.35 -80.1L54.8 -79.95Q52.95 -76.75 50 -80.1L50 -81.9L50.9 -88.1" fill="rgb(109,96,0)" fill-opacity="1"></path><path d="M91,-37.2Q83.5 -35.1 77.55 -39.8Q84.85 -40.25 91.85 -42.7L91.85 -37.35L91 -37.2M50,-72.1L50 -80.1Q52.95 -76.75 54.8 -79.95L55.35 -80.1Q59.2 -75.1 58.65 -64.55Q58.6 -63.9 58.9 -63.2Q44.8 -50.45 65.5 -46.95L85.65 -46.25Q63.45 -34.15 48.3 -50.95Q47.7 -51.65 47.35 -52.5L49.1 -64.95L52.05 -68.6L50 -72.1M77.05,-39.75L72.25 -35.55Q62.3 -40.4 53.45 -37.35L54.45 -12.4L48.2 -4.4L48.2 -41.8L52.2 -41.45L71.2 -39.8Q74.15 -39.65 77.05 -39.75" fill="rgb(134,118,0)" fill-opacity="1"></path><path d="M38.4,-81.9L42.85 -85.45L43.3 -85.45Q43.35 -79.2 38.4 -81.9" fill="rgb(121,105,0)" fill-opacity="1"></path><path d="M52.05,-68.6L49.1 -64.95L50 -72.1L52.05 -68.6" fill="rgb(125,109,0)" fill-opacity="1"></path><path d="M89.2,-73.85Q95.55 -77.6 89.3 -72.15L89.2 -73.85" fill="rgb(77,69,0)" fill-opacity="1"></path><path d="M93.05,-10.9Q91.25 -15.35 97.2 -14.75L93.05 -10.9" fill="rgb(89,82,0)" fill-opacity="1"></path><path d="M-0.8,-49.8L-0.6 -49Q1.6 -43.85 -1.65 -44.45L-0.8 -49.8" fill="rgb(106,91,0)" fill-opacity="1"></path><path d="M9.1,-44.35Q16.25 -53.75 25.95 -47.15Q18.3 -41.5 9.05 -44.1Q9 -44.3 9.1 -44.35" fill="rgb(134,119,0)" fill-opacity="1"></path><path d="M-1.65,-44.45Q-4.4 -50.2 -0.8 -50.15L-0.8 -49.8L-1.65 -44.45" fill="rgb(53,52,0)" fill-opacity="1"></path><path d="M34.85,-4.4L43.75 -10.6L42 0.05L34.85 -0.8L34.85 -4.4" fill="rgb(118,102,0)" fill-opacity="1"></path><path d="M50.9,-88.1Q50.45 -88.15 50.25 -88.35Q49.25 -89.65 46.45 -89L35.1 -88.6Q45.75 -92.65 56.4 -88.8Q59.35 -87.8 62.05 -86.35L88.35 -91.55Q97.05 -85.25 94.5 -73.55L93.75 -70.25L99 -62.3Q97.15 -48.35 97.55 -34.5Q97.65 -31.6 98.7 -28.7Q99.25 -27.2 99.95 -25.8L101.45 -22.95L96.3 1.85L36.65 3.65L33.05 1.85L30.4 0.95L29 -0.8L28.6 -0.8Q24.1 -5.95 17.25 -2.25L17.05 -1.7L15.25 -0.8L8.15 -0.8L6.35 -1.7L4.55 -4.4L-0.8 -5.25L-0.8 -5.5L1.8 -7.3L13.5 -5.25L28.6 -7.95L34.85 -0.8L42 0.05L45.55 0.05L95.9 -1.7L90 -14.4Q92.05 -15.2 93.15 -17.35Q98.45 -27.8 91.85 -37.35L91.85 -42.7L95.4 -61.75L86.5 -74.75L90.1 -78.3L90 -86.45Q88.15 -88.05 85.3 -87.65Q82.2 -87.4 79.85 -85.55L78.5 -84.55L59.8 -82.8L50.9 -88.1M1.9,-40L0.1 -39.1L-0.55 -26.4L-0.8 -22.2L-2.55 -20.4L-4.35 -63.2Q-1.95 -63.45 -1.7 -65.85L-1.65 -66.75L-1.65 -73.85L-1.9 -74.55Q-2.15 -74.75 -2.55 -74.75L-2.55 -75.2L-3.1 -74.75L-3.45 -74.75L-3.45 -74.4Q-4.95 -72.65 -5.25 -69.4L-5.25 -75.65L-5.25 -80.1Q4 -85.05 14.05 -88.2Q22.95 -91 32.1 -88.5L20.2 -88.05L1.1 -77.45Q1.5 -71.2 0.7 -65.1Q-0.4 -56.55 3.65 -48.9L1.9 -40M89.3,-72.15Q95.55 -77.6 89.2 -73.85L89.3 -72.15M97.2,-14.75Q91.25 -15.35 93.05 -10.9L97.2 -14.75M-0.6,-49L-0.8 -49.8L-0.8 -50.15Q-4.4 -50.2 -1.65 -44.45Q1.6 -43.85 -0.6 -49" fill="rgb(8,10,0)" fill-opacity="1"></path><path d="M34.85,-4.4L29.5 -7.95Q34.35 -15.4 35.65 -26.55Q36.4 -33.2 33.05 -39.1L17.9 -34.15L1.9 -40L3.65 -48.9Q7.15 -36.15 25.15 -40.5Q33.3 -42.5 43.75 -41.8Q44.1 -26.55 43.75 -11.5L43.75 -10.6L34.85 -4.4M38.9,-30.45Q46.5 -33.15 37.55 -32.9Q37.05 -29.75 38.9 -30.45" fill="rgb(133,118,0)" fill-opacity="1"></path><path d="M-0.8,-7.95L-0.8 -9.75L1.9 -10.6L2.55 -10.85L2.8 -11.5Q3.2 -11.55 3.4 -11.75Q6.15 -15.2 1.9 -15.95L0.1 -16.85Q-0.35 -16.9 -0.55 -17.1L-0.8 -17.75L-0.8 -20.4L-0.55 -26.4L0.1 -39.1L1.9 -40L17.9 -34.15L33.05 -39.1Q36.4 -33.2 35.65 -26.55Q34.35 -15.4 29.5 -7.95L28.6 -7.95L13.5 -5.25L1.8 -7.3L-0.8 -7.95" fill="rgb(157,141,0)" fill-opacity="1"></path><path d="M-0.8,-20.4L-0.8 -22.2L-0.55 -26.4L-0.8 -20.4" fill="rgb(139,125,0)" fill-opacity="1"></path><path d="M-0.8,-20.4L-0.8 -17.75L-1.65 -15.05L-2.55 -20.4L-0.8 -22.2L-0.8 -20.4" fill="rgb(36,80,0)" fill-opacity="1"></path><path d="M-0.8,-10.6L-1.65 -15.05L-0.8 -17.75L-0.55 -17.1Q-0.35 -16.9 0.1 -16.85L0.1 -15.05L-0.8 -10.6" fill="rgb(5,28,0)" fill-opacity="1"></path><path d="M1.9,-15.95L2.8 -11.5L2.55 -10.85L1.9 -10.6L0.1 -15.05L0.1 -16.85L1.9 -15.95" fill="rgb(71,92,0)" fill-opacity="1"></path><path d="M-0.8,-9.75L-0.8 -10.6L0.1 -15.05L1.9 -10.6L-0.8 -9.75" fill="rgb(5,6,0)" fill-opacity="1"></path><path d="M2.8,-11.5L1.9 -15.95Q6.15 -15.2 3.4 -11.75Q3.2 -11.55 2.8 -11.5" fill="rgb(125,136,0)" fill-opacity="1"></path><path d="M1.8,-7.3L-0.8 -5.5L-0.8 -7.95L1.8 -7.3" fill="rgb(27,59,0)" fill-opacity="1"></path><path d="M-0.8,-5.25L4.55 -4.4L0.1 -4.4L0.1 -0.8L0.1 0.05L-0.8 0.05L-0.8 -5.25" fill="rgb(59,62,0)" fill-opacity="1"></path><path d="M0.1,-0.8L0.1 -4.4L4.55 -4.4L6.35 -1.7L0.1 -0.8" fill="rgb(112,96,0)" fill-opacity="1"></path><path d="M29,-0.8L30.4 0.95L7.25 1.85L-0.8 1.85L-0.8 0.05L0.1 0.05L8.15 0.05L15.25 0.05L29 -0.8" fill="rgb(18,27,0)" fill-opacity="1"></path><path d="M8.15,0.05L0.1 0.05L0.1 -0.8L6.35 -1.7L8.15 -0.8L8.15 0.05" fill="rgb(70,62,0)" fill-opacity="1"></path><path d="M8.15,-0.8L15.25 -0.8L15.25 0.05L8.15 0.05L8.15 -0.8" fill="rgb(42,36,0)" fill-opacity="1"></path><path d="M15.25,-0.8L17.05 -1.7L28.6 -0.8L29 -0.8L15.25 0.05L15.25 -0.8" fill="rgb(69,61,0)" fill-opacity="1"></path><path d="M17.05,-1.7L17.25 -2.25Q24.1 -5.95 28.6 -0.8L17.05 -1.7" fill="rgb(104,89,0)" fill-opacity="1"></path><path d="M34.85,-0.8L28.6 -7.95L29.5 -7.95L34.85 -4.4L34.85 -0.8" fill="rgb(147,132,0)" fill-opacity="1"></path><path d="M37.55,-32.9Q46.5 -33.15 38.9 -30.45Q37.05 -29.75 37.55 -32.9" fill="rgb(119,103,0)" fill-opacity="1"></path><path d="M43.75,-10.6L45.55 0.05L42 0.05L43.75 -10.6" fill="rgb(139,123,0)" fill-opacity="1"></path><path d="M7.25,1.85L30.4 0.95L33.05 1.85L7.25 1.85" fill="rgb(2,71,0)" fill-opacity="1"></path><path d="M-2.55,-66.75L-1.65 -66.75L-1.7 -65.85Q-1.95 -63.45 -4.35 -63.2L-5.25 -69.4Q-4.95 -72.65 -3.45 -74.4L-2.55 -66.75M-3.1,-74.75L-2.55 -75.2L-2.55 -74.75L-3.1 -74.75" fill="rgb(15,45,0)" fill-opacity="1"></path><path d="M-0.8,0.05L-0.8 1.85L7.25 1.85L33.05 1.85L36.65 3.65Q26.45 7.4 15.35 7.7Q5.25 8.7 -4.65 6.3L-10.6 -68.5L-5.25 -75.65L-5.25 -69.4L-4.35 -63.2L-2.55 -20.4L-1.65 -15.05L-0.8 -10.6L-0.8 -9.75L-0.8 -7.95L-0.8 -5.5L-0.8 -5.25L-0.8 0.05" fill="rgb(0,0,0)" fill-opacity="0.2705882352941176"></path></g></g></g></g></svg>