<svg width="108" height="129" viewBox="-5 -121 108 129"><g><defs></defs></g><rect x="-5" y="-121" width="108" height="129" fill="#006600"></rect><g id="0"><defs></defs><g><g type="shape" id="0:2:98"><defs></defs><g transform="matrix(1,0,0,1,0,0)"><path d="M81.25,-117.5L78.55 -115.75L78.55 -116.45L81.25 -117.5M85.95,-117.8L85.8 -117.65Q85.6 -117.45 85.2 -117.4L85.95 -117.8" fill="rgb(4,36,0)" fill-opacity="1"></path><path d="M78.25,-115.55L78.2 -115.5Q77.6 -115.15 76.95 -115.15L74.85 -115.5L74.85 -115.55L77.65 -115.55L78.25 -115.55" fill="rgb(36,32,0)" fill-opacity="1"></path><path d="M77.65,-116.45L78.55 -116.45L78.55 -115.75L78.25 -115.55L77.65 -115.55L74.85 -115.55L74.6 -115.55Q72.45 -116.05 70.45 -117.15L70.15 -117.4Q73.5 -116.6 77.65 -116.45" fill="rgb(62,104,0)" fill-opacity="1"></path><path d="M74.85,-115.55L74.85 -115.5L74.6 -115.55L74.85 -115.55M68.15,-115.6L66.8 -115.55L66.9 -115.95L67.2 -116.1L67.85 -115.75L68.15 -115.6" fill="rgb(31,36,0)" fill-opacity="1"></path><path d="M91.5,-116.45Q90.85 -118.55 88.05 -118.55Q90.6 -119 91.9 -116.7L91.9 -116.55L91.9 -116.4L91.95 -116.2L92 -116L91.85 -115.35L91.65 -115.55L91.5 -116.45M94.5,-114.6L94.45 -113.7L94.45 -113.65L94.2 -113.7L94.2 -114.3L94.2 -115.8Q94.1 -118.4 92.6 -119.75Q94.75 -118.4 94.5 -114.6" fill="rgb(26,46,0)" fill-opacity="1"></path><path d="M85.1,-117.35L84.9 -116.6Q83.95 -115.1 81.85 -114.7L82.7 -115.5L85.1 -117.35" fill="rgb(39,89,0)" fill-opacity="1"></path><path d="M91.9,-110.65Q91 -109.7 91.95 -108.6L91.05 -106.7Q90.5 -106.35 89.8 -106.2L89.8 -105.25L88.95 -105.05Q88.35 -104.8 87.9 -104.35L87.85 -103.8Q86.65 -102.6 87.4 -100.9Q87.8 -100.1 88.35 -99.5Q89.05 -98.3 90.5 -97.9L91.1 -97.55Q94.3 -95.65 96.1 -92.25L96.35 -91.4L96.5 -90.65L96.4 -90.25L96.35 -89.35L96.35 -88.85L95.85 -88.6Q95.45 -88.4 95.35 -88L95.15 -87.35L94.45 -87.5Q94.45 -85.65 94.9 -83.85L95.4 -83.75Q97.3 -80.95 95.6 -78L95.4 -77.2L95.15 -76.5L94.45 -76.3L94.45 -75.45L94.1 -74.9Q92.75 -72.5 92.85 -70.15Q70.55 -69.4 48.65 -70.7L48.65 -69.75Q49.35 -53.15 47.75 -38.9Q48.65 -27.45 53.1 -36.65Q56.85 -44.45 54.6 -51.45L53.5 -55.55Q51.45 -63.95 55.2 -67.9Q64.1 -68.7 70.9 -63.2Q71.95 -62.35 72.95 -63.2Q75.45 -73.2 83 -65.75L83.25 -65.05Q89 -64.45 92.65 -65.85L93.5 -66L95.15 -62.65Q95.55 -61.15 96.3 -59.7L96.7 -58.6L99 -49.55L98.9 -49.4L98.2 -49.2L98.2 -48.25L97.55 -48Q96.05 -46.2 92.6 -46.4L92.6 -45.45L91.75 -45.25Q91.15 -45 90.7 -44.5L90.75 -43.25L90.1 -42.45Q89.65 -41.8 89.9 -41.1Q90.35 -39.9 91.2 -39L91.25 -38.95L91.8 -38.4Q92.5 -36.2 94.55 -35.35L95.4 -35.15Q97.15 -34.15 97.75 -31.5L97.95 -31.45L98.2 -30.6Q97.75 -30.15 97.75 -29.6Q96.35 -30.85 94.2 -30.45L93.6 -30.65Q84.5 -31.2 75.65 -29.55L74.4 -29.3Q70.2 -27.95 65.9 -28.15L65.25 -28.7L64.95 -29.3Q64.25 -31.75 61.75 -31.75L61.75 -31.7L61.2 -31.5L60.8 -31.6Q59.55 -31.35 58.45 -30.4L57.6 -29.9L57.5 -29.85L56.85 -30.1Q51.4 -28.45 45.75 -27.55Q47.05 -31.1 44.9 -35.15L44.9 -36.1L44.9 -38.9L44.9 -39.85Q45.2 -55.05 44.9 -70.7L18.85 -69.2Q9.7 -68 7.7 -71.35Q5.45 -70.5 4.25 -71.95Q4.6 -73.05 4.6 -74.35Q4.6 -77.8 2.6 -80.6Q0.35 -83.7 1.35 -87.15Q1.8 -88.8 1.1 -89.8Q2.1 -90.95 2.25 -92.65L2.5 -93.6L3.35 -97.9Q3.7 -103.2 0.75 -107.55L1 -107.6Q7.35 -106.6 9.85 -112.15L10.15 -112.9L10.2 -113.05L13.3 -113.3L16.05 -114.2Q18.25 -115.2 19.95 -116.9L20.75 -117Q24.1 -116.7 27.05 -115.2Q29.45 -114.1 32.05 -114.9L38.5 -117L39.65 -117.3L43.65 -118.05L47.3 -118.2Q48.35 -114.45 44 -115.55L44 -114.6L43.3 -114.35Q41.2 -112.25 38.4 -110.85L38.4 -109.95L38.4 -109Q39.3 -103.85 41.05 -100.05Q41.65 -98.7 40.5 -98Q31.25 -92.6 40.25 -89.35L40.7 -87.5Q40.6 -76.1 28.1 -82.85Q31.95 -69.55 45.05 -76.8Q45.85 -77.25 45.85 -79.1L45.85 -80.95L45.85 -81.9L45.85 -82.85L46.35 -82.85Q46.45 -90.35 45.85 -95.9Q46.25 -105.3 49.6 -111.8L50.55 -110.85L50.55 -101.5L50.55 -100.6L50.05 -100.6Q50.25 -97.15 48.65 -95.9Q48.45 -92.05 49.9 -93.8L50.55 -94.05L51 -94.05Q49.6 -88.45 48.65 -81.9Q47.25 -69.75 62 -72.05L68.3 -72.2Q79.25 -71.85 87.45 -73.95L87 -74.4Q82 -78.15 77.4 -73.7L76.7 -73.5L58 -76.25L57.05 -76.3Q52.85 -82.35 53.3 -88.45L53.35 -89.35Q63.95 -91.45 56.85 -98.5L56.15 -98.7Q59.25 -105.4 60.35 -108.55L57.9 -108.6Q56.6 -107.85 56.15 -109.95L56.15 -110.85L56.15 -111.8L59.9 -112L61.3 -111.7Q65.6 -111.65 66.8 -115.55L68.15 -115.6Q70.6 -114.05 73.5 -113.2L74.25 -113Q78.55 -112 81.85 -114.7Q83.95 -115.1 84.9 -116.6L85.1 -117.35L85.2 -117.4Q85.6 -117.45 85.8 -117.65L85.95 -117.8L87.45 -118.4L88.05 -118.55Q90.85 -118.55 91.5 -116.45L91.65 -115.55L90.7 -115.55L91.7 -112.1L91.9 -110.65M-1.8,-90.2L-1.75 -90.15L-1.8 -90.1L-1.8 -90.2M26.3,-75.05Q23.55 -79.25 17.8 -80.05Q15.4 -78.7 13.75 -76.25Q12.15 -74 9.3 -72.2L8.35 -71.6L8.5 -71.6Q19.2 -72.1 28.1 -74.4Q26.7 -74.4 26.3 -75.05" fill="rgb(156,141,0)" fill-opacity="1"></path><path d="M91.7,-112.1L90.7 -115.55L91.65 -115.55L91.85 -115.35Q91.55 -113.75 91.7 -112.1M94.45,-113.65L94.2 -113.45L94.2 -113.7L94.45 -113.65M93.45,-105.8L94.1 -107.2L94.1 -105.75L93.45 -105.8" fill="rgb(19,38,0)" fill-opacity="1"></path><path d="M89.8,-105.25L89.8 -106.2Q90.5 -106.35 91.05 -106.7L89.8 -105.25M92.6,-101.5L92.6 -101L91.9 -100.1L90.65 -101.15L90.15 -102.15Q92.2 -103.65 93.45 -105.8L94.1 -105.75L93.5 -101.85L93.5 -101.8L92.6 -101.5" fill="rgb(96,86,0)" fill-opacity="1"></path><path d="M90.5,-97.9Q89.05 -98.3 88.35 -99.5L89.65 -98.45L90.5 -97.9M87.85,-103.8L87.9 -104.35Q88.35 -104.8 88.95 -105.05L89.8 -105.25L88.7 -104.45L87.85 -103.8M90.65,-101.15L89.75 -101.85L90.15 -102.15L90.65 -101.15" fill="rgb(45,40,0)" fill-opacity="1"></path><path d="M94.9,-98.65L94.5 -99.1L94.8 -99.4L95.3 -100.15L95.4 -100.4L95.4 -99.65L95.4 -98.7L94.9 -98.7L94.9 -98.65M93.5,-101.8L93 -101.35L92.6 -101L92.6 -101.5L93.5 -101.8" fill="rgb(17,19,0)" fill-opacity="1"></path><path d="M95.4,-100.4L96.3 -104Q96.5 -101.8 95.85 -98.8L95.4 -98.7L95.4 -99.65L95.4 -100.4" fill="rgb(3,90,0)" fill-opacity="1"></path><path d="M100.05,-91.9L99.9 -92.2L100.05 -92.2L100.05 -91.9M94.9,-98.7L95.4 -98.7L95.4 -98.15L94.9 -98.65L94.9 -98.7M96.5,-89.3L96.35 -89.35L96.4 -90.25L96.5 -90.65L96.5 -89.3" fill="rgb(52,49,0)" fill-opacity="1"></path><path d="M99.9,-93L100.05 -92.2L99.9 -92.2L99.6 -92.75L96.1 -97.35Q98.5 -95.7 99.9 -93" fill="rgb(72,98,0)" fill-opacity="1"></path><path d="M14.1,-116.45L14.1 -117.4Q16.6 -116.75 17.25 -118.15L17.8 -118.35L18.1 -118.3L15.35 -116.3L14.1 -116.45" fill="rgb(29,38,0)" fill-opacity="1"></path><path d="M23.45,-119.3L24.35 -119.3L24.8 -118.8L23.25 -119.3L23.45 -119.3M17.8,-118.35L17.8 -119.3L19.35 -119.3L18.95 -119.05L18.1 -118.3L17.8 -118.35" fill="rgb(12,25,0)" fill-opacity="1"></path><path d="M24.35,-119.3Q27.95 -117.75 32.75 -117.45L32.9 -117.45L29.05 -117.25Q27.1 -117.75 25.3 -118.6L24.8 -118.8L24.35 -119.3" fill="rgb(19,35,0)" fill-opacity="1"></path><path d="M36.5,-119.3L36.7 -119.1L36.5 -119.05L36.5 -119.3M33.7,-118.35L34.75 -118.4L34.6 -118.35L34 -118L33.7 -117.85L33.7 -118.35" fill="rgb(48,58,0)" fill-opacity="1"></path><path d="M6.6,-115.55L6.95 -115.5Q6.2 -114.65 6.45 -113.2Q5 -111.2 2.85 -111L2.85 -111.8Q3.8 -111.85 4.55 -112.2Q4.75 -112.3 4.75 -112.75Q6.3 -113.05 6.15 -115.55L6.6 -115.55" fill="rgb(29,33,0)" fill-opacity="1"></path><path d="M15.35,-116.3L15.05 -116.1L9.85 -115.55Q9.3 -116.15 8.25 -116.35Q7.85 -116.3 7.55 -116.05L6.95 -115.5L6.6 -115.55L6.6 -116.45L13.15 -116.45L14.1 -116.45L15.35 -116.3" fill="rgb(39,51,0)" fill-opacity="1"></path><path d="M4.75,-112.75Q4.75 -112.3 4.55 -112.2Q3.8 -111.85 2.85 -111.8L2.85 -111L1.45 -111.1L0 -111.5L-0.85 -111.8Q0.65 -113.1 3.8 -112.8L4.75 -112.75" fill="rgb(59,104,0)" fill-opacity="1"></path><path d="M-4.25,-110.2Q-4.45 -108.8 -3.85 -107.45L-4.6 -108.05L-4.6 -109L-4.6 -109.95L-4.25 -110.2" fill="rgb(9,28,0)" fill-opacity="1"></path><path d="M-1.8,-104.35L-1.85 -104.65L-1.4 -103.95L-1.8 -104.35" fill="rgb(21,122,0)" fill-opacity="1"></path><path d="M-0.85,-100.6L-0.9 -101.5Q-1.15 -103.1 -2.75 -103.4L-2.75 -96.85L-2.75 -95.9L-3.65 -95.9L-3.65 -96.85L-3.65 -104.35L-2.75 -104.35L-1.8 -104.35L-1.4 -103.95L-0.6 -102.35L-0.3 -101.3L-0.85 -100.6" fill="rgb(25,41,0)" fill-opacity="1"></path><path d="M-0.85,-96.85L-0.85 -95.9L-1.8 -95.9L-2.75 -95.9L-2.75 -96.85L-2.75 -103.4Q-1.15 -103.1 -0.9 -101.5L-0.85 -100.6L-0.85 -98.7L-0.85 -97.8L-0.85 -96.85" fill="rgb(95,88,0)" fill-opacity="1"></path><path d="M-0.85,-100.6L-0.3 -101.3Q-0.05 -100.1 -0.25 -98.8L-0.45 -97.75L-0.85 -97.8L-0.85 -98.7L-0.85 -100.6" fill="rgb(65,65,0)" fill-opacity="1"></path><path d="M-3.65,-78.15L-3.65 -79.1Q-3 -84.95 -4.6 -88.45L-4.6 -89.35L-4.6 -108.05L-3.85 -107.45L-2.55 -105.55L-1.85 -104.65L-1.8 -104.35L-2.75 -104.35L-3.65 -104.35L-3.65 -96.85L-3.65 -95.9Q-3.8 -89.95 -1.05 -95.05L-0.85 -95.9L-0.85 -96.85L-0.85 -97.8L-0.45 -97.75L-1.3 -93.7L-1.75 -92.2Q-2.25 -91.05 -1.8 -90.2L-1.8 -90.1L-1.9 -89.9L-2.35 -88.6Q-3.65 -83.9 -1 -79.95L-0.85 -79.7Q-3.05 -79.9 -3.65 -78.15" fill="rgb(12,29,0)" fill-opacity="1"></path><path d="M-1.05,-95.05Q-3.8 -89.95 -3.65 -95.9L-2.75 -95.9L-1.8 -95.9L-0.85 -95.9L-1.05 -95.05" fill="rgb(12,57,0)" fill-opacity="1"></path><path d="M63.9,-115.55L62.25 -114Q61.85 -114.05 61.5 -114.3L60.15 -114.8Q59 -116.1 57.35 -116.6L58.9 -116.95L58.95 -117.4L62.75 -115.7L63.6 -115.55L63.9 -115.55M55.35,-114.9Q57.35 -114.45 58.7 -112.9L59.15 -112.5Q56 -112.45 55.2 -114.6L55.3 -114.9L55.35 -114.9" fill="rgb(18,30,0)" fill-opacity="1"></path><path d="M70.05,-117.9L70.15 -117.4L69.2 -118.05L70.05 -117.9M63.6,-115.55L63.6 -116.45Q64.3 -117.35 65.35 -117.75L63.9 -115.55L63.6 -115.55" fill="rgb(12,54,0)" fill-opacity="1"></path><path d="M58.05,-117.55L58.95 -117.4L58.9 -116.95L57.35 -116.6L57.15 -116.65L56.5 -117L54.75 -118.2L58.05 -117.55M54.4,-114.85Q54.05 -115.1 53.8 -115.5L55.3 -114.9L55.2 -114.6Q54.75 -114.6 54.4 -114.85" fill="rgb(9,11,0)" fill-opacity="1"></path><path d="M47.75,-121.15Q53.55 -120 58.8 -117.9L58.95 -117.4L58.05 -117.55L54.75 -118.2Q51.45 -120.2 47.75 -120.6L47.75 -121.15" fill="rgb(17,57,0)" fill-opacity="1"></path><path d="M47.75,-120.6Q45.9 -120.8 44 -120.6L42.7 -120.45L36.7 -119.1L36.5 -119.3L36.5 -120.2L46.8 -121.15L47.75 -121.15L47.75 -120.6" fill="rgb(14,52,0)" fill-opacity="1"></path><path d="M45.9,-83.75Q46.7 -89.35 44 -87.5Q44.6 -81.75 45.15 -81.2Q45.4 -80.95 45.85 -80.95L45.85 -79.1Q45.85 -77.25 45.05 -76.8Q31.95 -69.55 28.1 -82.85Q40.6 -76.1 40.7 -87.5L40.25 -89.35Q31.25 -92.6 40.5 -98Q41.65 -98.7 41.05 -100.05Q39.3 -103.85 38.4 -109Q47.1 -110.9 44.6 -114.35L44 -114.6L44 -115.55Q48.35 -114.45 47.3 -118.2Q49.9 -117.95 52.2 -116.55Q51.45 -115.1 49.6 -114.6Q50.45 -113.65 50.55 -111.8L50.55 -110.85L49.6 -111.8Q46.25 -105.3 45.85 -95.9Q46.45 -90.35 46.35 -82.85L45.85 -82.85L45.9 -83.75" fill="rgb(133,117,0)" fill-opacity="1"></path><path d="M55.65,-109.8Q54.05 -104.25 50.55 -110.85L50.55 -111.8Q50.45 -113.65 49.6 -114.6Q51.45 -115.1 52.2 -116.55L53 -116L53.8 -115.5Q54.05 -115.1 54.4 -114.85Q54.75 -114.6 55.2 -114.6Q56 -112.45 59.15 -112.5L59.6 -112.2L59.9 -112L56.15 -111.8L56.15 -110.85L56.15 -109.95Q55.65 -109.95 55.65 -109.8" fill="rgb(111,97,0)" fill-opacity="1"></path><path d="M44.6,-114.35Q47.1 -110.9 38.4 -109L38.4 -109.95L38.4 -110.85Q41.2 -112.25 43.3 -114.35L44 -114.6L44.6 -114.35" fill="rgb(119,103,0)" fill-opacity="1"></path><path d="M50.55,-94.05L49.9 -93.8Q48.45 -92.05 48.65 -95.9Q50.25 -97.15 50.05 -100.6L50.55 -100.6Q54.45 -100.2 50.75 -94.85Q50.5 -94.5 50.55 -94.05" fill="rgb(123,107,0)" fill-opacity="1"></path><path d="M50.75,-94.85Q54.45 -100.2 50.55 -100.6L50.55 -101.5L50.55 -110.85Q54.05 -104.25 55.65 -109.8Q55.65 -109.95 56.15 -109.95Q56.6 -107.85 57.9 -108.6L60.35 -108.55Q59.25 -105.4 56.15 -98.7L56.85 -98.5Q63.95 -91.45 53.35 -89.35L53.3 -88.45Q52.85 -82.35 57.05 -76.3L58 -76.25L76.7 -73.5L77.4 -73.7Q82 -78.15 87 -74.4L87.45 -73.95Q79.25 -71.85 68.3 -72.2L62 -72.05Q47.25 -69.75 48.65 -81.9Q49.6 -88.45 51 -94.05L50.55 -94.05Q50.5 -94.5 50.75 -94.85M93.5,-67.2L93.5 -66.95L93.5 -66L92.65 -65.85Q89 -64.45 83.25 -65.05L83 -65.75Q75.45 -73.2 72.95 -63.2Q71.95 -62.35 70.9 -63.2Q64.1 -68.7 55.2 -67.9Q51.45 -63.95 53.5 -55.55L54.6 -51.45Q56.85 -44.45 53.1 -36.65Q48.65 -27.45 47.75 -38.9Q49.35 -53.15 48.65 -69.75L48.65 -70.7Q70.55 -69.4 92.85 -70.15Q92.9 -68.65 93.5 -67.2" fill="rgb(134,118,0)" fill-opacity="1"></path><path d="M45.85,-82.85L45.85 -81.9L45.85 -80.95Q45.4 -80.95 45.15 -81.2Q44.6 -81.75 44 -87.5Q46.7 -89.35 45.9 -83.75L45.85 -82.85M36.5,-29.55L36.35 -30.1Q34.9 -30.8 35.6 -33.3L36.5 -33.3Q41.1 -35.2 44.25 -38.65L44.9 -38.9L44.9 -36.1L44.9 -35.15L44.45 -35.15Q44.85 -25.5 36.5 -29.55" fill="rgb(118,102,0)" fill-opacity="1"></path><path d="M35.6,-33.3Q34.9 -30.8 36.35 -30.1L36.5 -29.55L36.3 -28.85L35.75 -28.6L35.45 -28.85Q33.5 -30.25 32.55 -32.3Q31 -35.65 27.65 -36.65Q26.65 -36.65 26.2 -35.9L25.55 -35.8L23.2 -35.6Q22.55 -35.6 22.3 -35.15L19.8 -35.4Q15.4 -35.95 14.2 -32.4L14.1 -32.35L14.1 -31.95L14.05 -31.75L13.25 -31.45L13.15 -31.45L11.3 -31.45L10.85 -31.55L10.8 -31.65L10.3 -32.8Q9.95 -35.3 7.3 -35.5L6.55 -35.25L6.35 -35.05L4.45 -35.65L2.8 -36.05L-0.9 -36.45Q-1.15 -36.95 -0.85 -37.95L1.3 -38.1L2 -38.25L2.75 -38.4L2.85 -38.9Q3.35 -38.9 3.5 -39.15Q7.25 -45 1.95 -44.5Q1.45 -44.5 1.35 -44.7Q0.8 -45.9 -0.45 -46.3L-1 -47.1L-0.5 -50.15L-0.4 -50.2Q0.45 -54.15 -0.2 -56.8L-0.3 -65.8L-0.1 -66.1L0.05 -66.95L0.05 -67.8L0.15 -67.9L0.75 -68.1L0.8 -68.15L1.9 -68.75Q11.25 -68 18.9 -62.5L19.7 -62.25Q24.05 -67.7 32.75 -68.35L32.75 -67.9Q38.15 -64.3 37.15 -57.35L37.45 -55.75Q37.3 -47.65 35.15 -40.9L34.65 -40.75Q24.15 -38.75 36.35 -33.8L36.5 -33.3L35.6 -33.3" fill="rgb(158,142,0)" fill-opacity="1"></path><path d="M4.25,-71.95Q5.45 -70.5 7.7 -71.35Q9.7 -68 18.85 -69.2L44.9 -70.7Q45.2 -55.05 44.9 -39.85L44.9 -38.9L44.25 -38.65Q41.1 -35.2 36.5 -33.3L36.35 -33.8Q24.15 -38.75 34.65 -40.75L35.15 -40.9Q37.3 -47.65 37.45 -55.75L37.15 -57.35Q38.15 -64.3 32.75 -67.9L32.75 -68.35Q24.05 -67.7 19.7 -62.25L18.9 -62.5Q11.25 -68 1.9 -68.75Q3.65 -69.95 4.25 -71.95M43.05,-57.6Q42.95 -66.45 37.45 -59.45L42.2 -57.85L43.05 -57.6M28.1,-74.4Q19.2 -72.1 8.5 -71.6L8.35 -71.6L9.3 -72.2Q12.15 -74 13.75 -76.25Q15.4 -78.7 17.8 -80.05Q23.55 -79.25 26.3 -75.05Q26.7 -74.4 28.1 -74.4" fill="rgb(133,118,0)" fill-opacity="1"></path><path d="M42.2,-57.85L37.45 -59.45Q42.95 -66.45 43.05 -57.6L42.2 -57.85" fill="rgb(116,100,0)" fill-opacity="1"></path><path d="M1,-74.4L1 -74.75L1.1 -73.8L1 -73.65L1 -74.4" fill="rgb(46,79,0)" fill-opacity="1"></path><path d="M-0.5,-79.1L0 -78.15L-0.85 -78.15L-0.85 -73.5L-0.85 -72.55L-1.35 -72.6Q-1.8 -75.85 -1.8 -79.1L-0.85 -79.1L-0.5 -79.1" fill="rgb(93,81,0)" fill-opacity="1"></path><path d="M-0.85,-72.55L-0.85 -73.5L-0.85 -78.15L0 -78.15Q0.75 -76.55 1 -74.75L1 -74.4L1 -73.65L0.75 -73.05Q0.6 -72.5 0.1 -72.05L-0.85 -71.75L-0.85 -72.55" fill="rgb(110,95,0)" fill-opacity="1"></path><path d="M-3.35,-72.55L-3.45 -73.3L-3.45 -73.65L-3.55 -76.6L-3.6 -76.95L-3.65 -77.25L-3.65 -78.15Q-3.05 -79.9 -0.85 -79.7L-0.5 -79.1L-0.85 -79.1L-1.8 -79.1Q-1.8 -75.85 -1.35 -72.6L-0.85 -72.55L-0.85 -71.75Q-2.2 -71.25 -2.9 -70.05L-3.35 -72.55M0.8,-68.15L0.75 -68.1L0.15 -67.9L0.35 -67.95L0.8 -68.15M-0.3,-66.9Q-0.35 -67.5 0.05 -67.8L0.05 -66.95L-0.3 -66.9" fill="rgb(19,28,0)" fill-opacity="1"></path><path d="M0.05,-66.95L-0.1 -66.1L-0.3 -65.8L-0.3 -66.9L0.05 -66.95" fill="rgb(138,132,0)" fill-opacity="1"></path><path d="M-0.2,-56.8Q0.45 -54.15 -0.4 -50.2L-0.5 -50.15L-0.2 -54.8L-0.2 -56.8" fill="rgb(127,118,0)" fill-opacity="1"></path><path d="M28.8,-30.9L29.25 -30.1L26.25 -32.35L26.25 -33.3L26.85 -33.45L28.8 -30.9M87.9,-27.05L87.9 -26.75L87 -26.75L82.7 -26.75L87.9 -27.05M36.7,-23.9L36.5 -23.95L36.5 -24L36.7 -23.9M42.1,-23L41.2 -23.05L41.1 -23.05L41.2 -23.15L42.1 -23.2L42.1 -23" fill="rgb(41,36,0)" fill-opacity="1"></path><path d="M14.1,-31.95L14.1 -32.35L14.2 -32.4L14.1 -31.95M16.9,-29.6L17.8 -31.5L18.3 -31.65Q18.2 -29.8 16.9 -29.55L16.9 -29.6" fill="rgb(44,38,0)" fill-opacity="1"></path><path d="M25.35,-33.3L26.85 -33.45L26.25 -33.3L25.35 -33.3" fill="rgb(16,14,0)" fill-opacity="1"></path><path d="M25.35,-33.3L26.25 -33.3L26.25 -32.35L25.3 -32.35L24.85 -32.35Q25.3 -32.7 25.35 -33.3" fill="rgb(59,51,0)" fill-opacity="1"></path><path d="M33.65,-25.7L36.5 -24L36.5 -23.95L36.55 -23Q37.8 -14 32.75 -8.05Q36.3 2.9 38.15 -6.45L41.2 -22.1L41.2 -11.8L41.2 -10.85Q41.8 4.35 42.9 -9Q43.65 -16.95 45.35 -23.8L45.85 -23.8L45.95 -23Q46.85 -18.2 44.9 -11.8Q44.25 1.9 46 -8.35Q47.05 -14.8 48.9 -19.8Q49.3 -21 48.65 -23.95L48.65 -24.05L49.75 -24.3L56.4 -26.1L57.8 -27.1Q59 -27.4 60.1 -28.15Q61.15 -26.3 63.25 -25.45Q65.85 -23.75 69.2 -24.35L74.75 -25.5L82.7 -26.75L87 -26.75L87.9 -26.75L90.7 -26.75L91.65 -26.75L92.7 -26.9L93.15 -26.9L94.35 -26.75Q95 -26.45 95.25 -25.75L95.4 -24.9L94.9 -24.8Q93.95 -21.2 92.6 -18.35L92.6 -11.8L92.6 -10.85Q93.05 -7.15 93.95 -3.5L94.45 -3.4L94.45 -1L94.4 -1L93.85 -0.45Q93.2 1 91.75 1.2Q88.45 1.55 85.15 1.2L84.7 1.2Q82.25 -1.6 78.85 0Q77.8 -0.05 77.1 0.7L76.55 1.55L75.75 2.2L75.75 3.15L73.65 3.25L70.5 3.45Q69.25 2.8 67.95 3L63.9 2.15Q62.45 1.25 59.9 1.3L55.75 0.35L52 -0.05Q48.65 -0.9 44.9 0.35L44.9 1.15L37.2 0.75Q35.05 -0.7 32.5 0.4Q30.3 0.1 28.3 -0.8Q25.65 -2.05 22.75 -2.1Q20.05 -1.4 17 -1.4Q16.45 -1.4 16.05 -0.95L12.9 -0.75L11.45 -1Q9.55 -1.75 8.35 -0.3L7.85 -0.25L7.65 -0.3L5.85 -0.4L2.15 -0.7L0.65 -0.85L0.15 -1.4Q0.4 -7.9 0.3 -14.5L0.05 -24.75L0.05 -31.05L0.15 -31.85L0.05 -33.3Q1 -33.3 1.75 -33.65L1.8 -33.7L4.85 -33.15L5.15 -32.5L5.65 -32.35Q5.85 -31.05 7 -30.6Q8 -28.35 10.65 -27.8Q14.85 -26.85 16.85 -29.55L16.9 -29.55Q18.2 -29.8 18.3 -31.65L18.6 -31.65L23.6 -31.95L24.85 -32.35L25.3 -32.35L26.25 -32.35L29.25 -30.1Q30.9 -27.4 33.65 -25.7M77.65,-25.35Q92.95 -25.35 77.65 -25.8L77.65 -25.35" fill="rgb(113,97,0)" fill-opacity="1"></path><path d="M38.55,-27L35.75 -28.6L36.3 -28.85L36.5 -29.55Q44.85 -25.5 44.45 -35.15L44.9 -35.15Q47.05 -31.1 45.75 -27.55L45.2 -27.45Q44.15 -27.3 43.65 -26.8L43.3 -26.85L42.2 -26.8L38.55 -27M42.15,-21.15L42.1 -22.1L42.1 -23L42.1 -23.2Q43.3 -23.35 44.4 -23.9L45.35 -23.8Q43.65 -16.95 42.9 -9Q41.8 4.35 41.2 -10.85Q42.8 -14.85 42.15 -21.15" fill="rgb(141,125,0)" fill-opacity="1"></path><path d="M2.2,-41.85L1.1 -43.3L0.7 -43.85L0.55 -44.3L-0.45 -46.3Q0.8 -45.9 1.35 -44.7Q1.45 -44.5 1.95 -44.5L2.75 -42.6L2.85 -41.7L2.2 -41.85" fill="rgb(65,100,0)" fill-opacity="1"></path><path d="M-5.65,-38.2L-5.75 -40.15L-5.55 -40.6L-5.6 -40.9L-5 -42.45L-4.6 -43.5Q-4.15 -44.75 -4.3 -46.05L-4.25 -45.9L-2.8 -42.45L-2.5 -41.9Q-4.6 -41.4 -4.35 -38.85Q-4.95 -38.5 -5.65 -38.2M2.85,-41.7L2.85 -39.85L2.85 -38.9L2.6 -38.9L2.75 -39.75Q2.7 -40.9 2.2 -41.85L2.85 -41.7M-1.65,-39.5L-1.55 -39.5L-1.5 -39.45L-1.65 -39.5" fill="rgb(13,18,0)" fill-opacity="1"></path><path d="M2.85,-39.85L2.85 -41.7L2.75 -42.6L1.95 -44.5Q7.25 -45 3.5 -39.15Q3.35 -38.9 2.85 -38.9L2.85 -39.85" fill="rgb(118,132,0)" fill-opacity="1"></path><path d="M2.6,-38.9L2.85 -38.9L2.75 -38.4L2 -38.25Q2.4 -38.45 2.6 -38.9M-1.8,-36.45L-1.8 -37.35Q-1.75 -38.45 -1.95 -39.45L-1.65 -39.5L-1.5 -39.45L0.3 -38.35L1.3 -38.1L-0.85 -37.95Q-1.15 -36.95 -0.9 -36.45L-1.8 -36.45" fill="rgb(109,98,0)" fill-opacity="1"></path><path d="M-0.25,-34.05L1.8 -33.7L1.75 -33.65Q1 -33.3 0.05 -33.3L-0.25 -34.05M-0.05,-28.35L0.05 -31.05L0.05 -24.75L-0.05 -28.35" fill="rgb(66,56,0)" fill-opacity="1"></path><path d="M-3.3,-34.55L-3.1 -34.45L-3.15 -34.2L-3.55 -29.45L-3.65 -31.55L-3.65 -34.25L-3.3 -34.55M-0.85,4.05L-1.7 3.75L-2.3 3.3L-2.75 2.2L-2.75 2.1L-2.1 2.55Q-2.1 3.2 -1.55 3.55L-0.5 4.05L-0.85 4.05" fill="rgb(7,15,0)" fill-opacity="1"></path><path d="M5.4,-33L5.6 -32.9L5.6 -32.85L5.8 -32.35L5.65 -32.35L5.15 -32.5L4.85 -33.15L5.4 -33" fill="rgb(26,22,0)" fill-opacity="1"></path><path d="M10.3,-32.8L10.8 -31.65L10.55 -31.95L10.35 -32.25L10.3 -32.8M6.7,-31.35L7 -30.6Q5.85 -31.05 5.65 -32.35L5.8 -32.35L6.7 -31.35" fill="rgb(35,30,0)" fill-opacity="1"></path><path d="M11.3,-31.45L13.15 -31.45L13.25 -31.45Q12.3 -31.15 11.3 -31.45M16.9,-29.6L16.9 -29.55L16.85 -29.55L16.9 -29.6" fill="rgb(33,28,0)" fill-opacity="1"></path><path d="M77.65,-25.8Q92.95 -25.35 77.65 -25.35L77.65 -25.8" fill="rgb(117,101,0)" fill-opacity="1"></path><path d="M48.1,-23.95L48.65 -24.05L48.65 -23.95L48.1 -23.95" fill="rgb(36,31,0)" fill-opacity="1"></path><path d="M60.55,-28.5L61.35 -27.85Q61.8 -26.5 63 -25.65L63.25 -25.45Q61.15 -26.3 60.1 -28.15L60.55 -28.5" fill="rgb(40,35,0)" fill-opacity="1"></path><path d="M48.65,-23.95Q49.3 -21 48.9 -19.8Q47.05 -14.8 46 -8.35Q44.25 1.9 44.9 -11.8Q46.85 -18.2 45.95 -23L45.85 -23.8L48.1 -23.95L48.65 -23.95M42.1,-22.1L41.2 -22.1L38.15 -6.45Q36.3 2.9 32.75 -8.05Q37.8 -14 36.55 -23L36.5 -23.95L36.7 -23.9L39.15 -22.6L40.5 -22.65L41.1 -23.05L41.2 -23.05L42.1 -23L42.1 -22.1" fill="rgb(91,72,0)" fill-opacity="1"></path><path d="M42.2,-26.8Q41.2 -26.7 40.6 -26.05L40.15 -26.3Q39.3 -26.6 38.55 -27L42.2 -26.8" fill="rgb(118,103,0)" fill-opacity="1"></path><path d="M41.2,-10.85L41.2 -11.8L41.2 -22.1L42.1 -22.1L42.15 -21.15Q42.8 -14.85 41.2 -10.85" fill="rgb(120,103,0)" fill-opacity="1"></path><path d="M47.15,0.95L46.1 1.15L44.9 1.15L44.9 0.35Q48.65 -0.9 52 -0.05Q49.55 0.05 47.15 0.95" fill="rgb(33,29,0)" fill-opacity="1"></path><path d="M100.6,-83.9L100.3 -84.9L100.05 -85.45L100.05 -87.5L100.05 -88.45L100.05 -88.6Q100.5 -89.6 100.45 -90.55Q101.55 -88.1 100.6 -83.9" fill="rgb(19,84,0)" fill-opacity="1"></path><path d="M100.05,-88.45L100.05 -87.5L99.35 -87.5L100.05 -88.6L100.05 -88.45M95.85,-83.9L95.4 -83.75L94.9 -83.85Q94.45 -85.65 94.45 -87.5L95.15 -87.35Q94.75 -85.35 95.85 -83.9M96.35,-88.85L96.35 -89.35L96.5 -89.3L96.4 -88.9L96.35 -88.85" fill="rgb(37,34,0)" fill-opacity="1"></path><path d="M100.05,-85.45L98.9 -86.65Q98.8 -86.95 99.05 -87.15L99.35 -87.5L100.05 -87.5L100.05 -85.45" fill="rgb(97,86,0)" fill-opacity="1"></path><path d="M95.4,-77.2L95.6 -78Q97.3 -80.95 95.4 -83.75L95.85 -83.9L97.05 -82.8L97.15 -82.6L97.35 -82.25L97.4 -82.1L97.05 -79.7L96.9 -79.1L96.85 -78.95L95.4 -77.2" fill="rgb(48,47,0)" fill-opacity="1"></path><path d="M99.25,-73.8L99.15 -74.5L99.15 -77.1L99.35 -77.95L99.7 -80.05L100.1 -80.7L100.25 -81.05Q100.5 -76.7 99.25 -73.8" fill="rgb(6,71,0)" fill-opacity="1"></path><path d="M99.15,-74.5Q98.95 -75.6 99 -76.65L99.15 -77.1L99.15 -74.5M96.85,-78.95L96.6 -77.5L96.4 -76.7L96.35 -76.7Q95.2 -76.45 94.45 -75.45L94.45 -76.3L95.15 -76.5L95.4 -77.2L96.85 -78.95" fill="rgb(10,21,0)" fill-opacity="1"></path><path d="M95.15,-62.65L93.5 -66L93.5 -66.95L93.5 -67.2Q93.9 -66.25 94.6 -65.3L94.7 -65.15L95.15 -62.65" fill="rgb(24,37,0)" fill-opacity="1"></path><path d="M92.6,-45.45L92.6 -46.4Q96.05 -46.2 97.55 -48L98.2 -48.25Q98.2 -47.8 98.45 -47.55L98.5 -47.5L97.05 -46.9Q95 -46.4 93.35 -45.4L92.6 -45.45" fill="rgb(68,62,0)" fill-opacity="1"></path><path d="M101.45,-46.45L101.3 -46.4L101.2 -46.55L101.65 -47.3L101.45 -46.45" fill="rgb(12,66,0)" fill-opacity="1"></path><path d="M98.5,-47.5L98.45 -47.55Q98.2 -47.8 98.2 -48.25L98.2 -49.2L98.9 -49.4L99 -49.55L99.35 -48.25L98.5 -47.5" fill="rgb(12,18,0)" fill-opacity="1"></path><path d="M97.05,-37.95L94.5 -39.55L94.45 -39.6L92.6 -41.15L92.6 -41.6L93.75 -42.55L98.95 -45.05L99.1 -44.65Q98.8 -41.15 97.25 -38.9L97.25 -37.95L97.05 -37.95" fill="rgb(107,96,0)" fill-opacity="1"></path><path d="M100.05,-33.3L99.9 -33.7L100.05 -34.65L100.05 -33.3M95.4,-36.1L96.75 -34.6L97.05 -33.75L97.95 -31.45L97.75 -31.5Q97.15 -34.15 95.4 -35.15L95.4 -36.1M97.25,-37.95L97.25 -38.9Q98.8 -41.15 99.1 -44.65L99.15 -44.5L99.4 -43.6Q99.55 -42.3 99.05 -41Q98.25 -39.1 97.95 -37.05L97.25 -37.75L97.25 -37.95" fill="rgb(16,30,0)" fill-opacity="1"></path><path d="M93.35,-45.4Q91.9 -44.55 90.75 -43.25L90.7 -44.5Q91.15 -45 91.75 -45.25L92.6 -45.45L93.35 -45.4M92.6,-41.15L92.4 -41.35L92.6 -41.6L92.6 -41.15" fill="rgb(25,27,0)" fill-opacity="1"></path><path d="M95.4,-35.15L94.55 -35.35Q92.5 -36.2 91.8 -38.4L93.95 -37.2L95.4 -36.1L95.4 -35.15M97.25,-37.95L97.25 -37.75L97.05 -37.95L97.25 -37.95" fill="rgb(55,54,0)" fill-opacity="1"></path><path d="M97.8,-26.8L97.5 -27.2L98.1 -28.1L98.25 -28.55L98.85 -28.55Q99.85 -28.75 100.3 -29.35Q100.05 -27.05 97.8 -26.8M91.65,-26.95L91.65 -26.75L90.7 -26.75L87.9 -26.75L87.9 -27.05L91.65 -26.95" fill="rgb(15,18,0)" fill-opacity="1"></path><path d="M95.4,-24.9L95.25 -25.75Q95 -26.45 94.35 -26.75L94.8 -26.6L95.1 -26.55Q95.25 -25.4 96.1 -24.4L95.85 -24.15L95.4 -24.9M91.65,-26.95L92.7 -26.9L91.65 -26.75L91.65 -26.95" fill="rgb(20,38,0)" fill-opacity="1"></path><path d="M92.6,-10.85L92.6 -11.8L92.6 -18.35Q93.95 -21.2 94.9 -24.8L95.4 -24.9L95.85 -24.15Q94 -22.05 93.35 -19.3Q92.95 -17.85 92.85 -16.2Q92.65 -12.95 93.1 -9.85L92.6 -10.85" fill="rgb(21,19,0)" fill-opacity="1"></path><path d="M94.45,-3.4L93.95 -3.5Q93.05 -7.15 92.6 -10.85L93.1 -9.85Q93.4 -7.2 94.2 -4.65L94.55 -3.25L94.45 -3.4" fill="rgb(32,32,0)" fill-opacity="1"></path><path d="M94.85,-1L94.45 -1L94.45 -3.4L94.55 -3.25L94.85 -1" fill="rgb(57,49,0)" fill-opacity="1"></path><path d="M76.35,3.2L75.75 3.15L75.75 2.2L76.55 1.55Q76.15 2.3 76.35 3.2M83.7,1.35Q81.6 0.4 79.25 0L78.85 0Q82.25 -1.6 84.7 1.2L83.7 1.35" fill="rgb(22,28,0)" fill-opacity="1"></path><path d="M68.8,3.2L67.95 3Q69.25 2.8 70.5 3.45L68.8 3.2" fill="rgb(105,91,0)" fill-opacity="1"></path><path d="M59.9,1.3Q62.45 1.25 63.9 2.15L59.9 1.3" fill="rgb(115,99,0)" fill-opacity="1"></path><path d="M35.65,0.6L35.3 0.55L32.5 0.4Q35.05 -0.7 37.2 0.75L35.65 0.6" fill="rgb(114,98,0)" fill-opacity="1"></path><path d="M-4.6,-89.35L-4.6 -88.45L-4.6 -87.95L-4.65 -88.1L-4.75 -88.3L-4.7 -89.65Q-4.7 -90.4 -5.45 -90.35L-5.55 -90.3L-5.55 -109.95L-4.6 -109.95L-4.6 -109L-4.6 -108.05L-4.6 -89.35" fill="rgb(1,92,0)" fill-opacity="1"></path><path d="M-3.65,-79.1L-3.65 -78.15L-3.65 -77.25L-4 -79.4Q-3.7 -79.75 -3.8 -80.2L-3.9 -81.45L-4.15 -83.45L-4.3 -85.6L-4.3 -86.15Q-4.3 -87 -4.6 -87.7L-4.6 -87.95L-4.6 -88.45Q-3 -84.95 -3.65 -79.1" fill="rgb(3,62,0)" fill-opacity="1"></path><path d="M-2.9,-70.05L-3.55 -68.25L-3.9 -64.1L-3.9 -62.65L-4.15 -64.95L-4.25 -65.9L-4.15 -66.7L-3.95 -68.2L-3.75 -68.9Q-3.45 -69.6 -3.4 -70.35L-3.35 -72.55L-2.9 -70.05" fill="rgb(1,59,0)" fill-opacity="1"></path><path d="M-3.65,-34.25L-3.9 -34.95L-5.35 -36.4L-5.35 -36.5L-5.4 -36.75L-5.4 -37.15L-5.55 -37.75L-5.65 -38.2Q-4.95 -38.5 -4.35 -38.85L-4.35 -38.8L-4.35 -38.1Q-4.45 -36.25 -3.55 -34.85L-3.3 -34.55L-3.65 -34.25" fill="rgb(34,31,0)" fill-opacity="1"></path><path d="M-2.75,2.2L-3.15 2.2L-3.25 2.05L-3.45 -0.75L-3.35 -2.8L-3.55 -5.9L-3.35 -6.2L-3.2 -6.45L-3.3 -0.55L-3.15 0.55L-3.15 0.7Q-3.2 1.55 -2.75 2.1L-2.75 2.2" fill="rgb(8,101,0)" fill-opacity="1"></path><path d="M-0.9,-36.45L2.8 -36.05L4.45 -35.65L6.35 -35.05L6.55 -35.25L7.3 -35.5Q9.95 -35.3 10.3 -32.8L10.35 -32.25L10.55 -31.95L10.8 -31.65L10.85 -31.55L11.3 -31.45Q12.3 -31.15 13.25 -31.45L14.05 -31.75L14.1 -31.95L14.2 -32.4Q15.4 -35.95 19.8 -35.4L22.3 -35.15Q22.55 -35.6 23.2 -35.6L25.55 -35.8L26.2 -35.9Q26.65 -36.65 27.65 -36.65Q31 -35.65 32.55 -32.3Q33.5 -30.25 35.45 -28.85L35.75 -28.6L38.55 -27Q39.3 -26.6 40.15 -26.3L40.6 -26.05Q41.2 -26.7 42.2 -26.8L43.3 -26.85L43.65 -26.8Q44.15 -27.3 45.2 -27.45L45.75 -27.55Q51.4 -28.45 56.85 -30.1L57.5 -29.85L57.6 -29.9L58.45 -30.4Q59.55 -31.35 60.8 -31.6L61.2 -31.5L61.75 -31.7L61.75 -31.75Q64.25 -31.75 64.95 -29.3L65.25 -28.7L65.9 -28.15Q70.2 -27.95 74.4 -29.3L75.65 -29.55Q84.5 -31.2 93.6 -30.65L94.2 -30.45Q96.35 -30.85 97.75 -29.6Q97.75 -30.15 98.2 -30.6L97.95 -31.45L97.05 -33.75L96.75 -34.6L95.4 -36.1L93.95 -37.2L91.8 -38.4L91.25 -38.95L91.2 -39Q90.35 -39.9 89.9 -41.1Q89.65 -41.8 90.1 -42.45L90.75 -43.25Q91.9 -44.55 93.35 -45.4Q95 -46.4 97.05 -46.9L98.5 -47.5L99.35 -48.25L99 -49.55L96.7 -58.6L96.3 -59.7Q95.55 -61.15 95.15 -62.65L94.7 -65.15L94.6 -65.3Q93.9 -66.25 93.5 -67.2Q92.9 -68.65 92.85 -70.15Q92.75 -72.5 94.1 -74.9L94.45 -75.45Q95.2 -76.45 96.35 -76.7L96.4 -76.7L96.6 -77.5L96.85 -78.95L96.9 -79.1L97.05 -79.7L97.4 -82.1L97.35 -82.25L97.15 -82.6L97.05 -82.8L95.85 -83.9Q94.75 -85.35 95.15 -87.35L95.35 -88Q95.45 -88.4 95.85 -88.6L96.35 -88.85L96.4 -88.9L96.5 -89.3L96.5 -90.65L96.35 -91.4L96.1 -92.25Q94.3 -95.65 91.1 -97.55L90.5 -97.9L89.65 -98.45L88.35 -99.5Q87.8 -100.1 87.4 -100.9Q86.65 -102.6 87.85 -103.8L88.7 -104.45L89.8 -105.25L91.05 -106.7L91.95 -108.6Q91 -109.7 91.9 -110.65L91.7 -112.1Q91.55 -113.75 91.85 -115.35L92 -116L91.95 -116.2L91.9 -116.4L91.9 -116.55L91.9 -116.7Q90.6 -119 88.05 -118.55L87.45 -118.4L85.95 -117.8L85.2 -117.4L85.1 -117.35L82.7 -115.5L81.85 -114.7Q78.55 -112 74.25 -113L73.5 -113.2Q70.6 -114.05 68.15 -115.6L67.85 -115.75L67.2 -116.1L66.9 -115.95L66.8 -115.55Q65.6 -111.65 61.3 -111.7L59.9 -112L59.6 -112.2L59.15 -112.5L58.7 -112.9Q57.35 -114.45 55.35 -114.9L55.3 -114.9L53.8 -115.5L53 -116L52.2 -116.55Q49.9 -117.95 47.3 -118.2L43.65 -118.05L39.65 -117.3L38.5 -117L32.05 -114.9Q29.45 -114.1 27.05 -115.2Q24.1 -116.7 20.75 -117L19.95 -116.9Q18.25 -115.2 16.05 -114.2L13.3 -113.3L10.2 -113.05L10.15 -112.9L9.85 -112.15Q7.35 -106.6 1 -107.6L0.75 -107.55Q3.7 -103.2 3.35 -97.9L2.5 -93.6L2.25 -92.65Q2.1 -90.95 1.1 -89.8Q1.8 -88.8 1.35 -87.15Q0.35 -83.7 2.6 -80.6Q4.6 -77.8 4.6 -74.35Q4.6 -73.05 4.25 -71.95Q3.65 -69.95 1.9 -68.75L0.8 -68.15L0.35 -67.95L0.15 -67.9L0.05 -67.8Q-0.35 -67.5 -0.3 -66.9L-0.3 -65.8L-0.2 -56.8L-0.2 -54.8L-0.5 -50.15L-1 -47.1L-0.45 -46.3L0.55 -44.3L0.7 -43.85L1.1 -43.3L2.2 -41.85Q2.7 -40.9 2.75 -39.75L2.6 -38.9Q2.4 -38.45 2 -38.25L1.3 -38.1L0.3 -38.35L-1.5 -39.45L-1.55 -39.5L-1.65 -39.5L-1.95 -39.45Q-1.75 -38.45 -1.8 -37.35L-1.8 -36.45L-0.9 -36.45M95.4,-100.4L95.3 -100.15L94.8 -99.4L94.5 -99.1L94.9 -98.65L95.4 -98.15L96.1 -97.35L99.6 -92.75L99.9 -92.2L100.05 -91.9L100.45 -90.55Q100.5 -89.6 100.05 -88.6L99.35 -87.5L99.05 -87.15Q98.8 -86.95 98.9 -86.65L100.05 -85.45L100.3 -84.9L100.6 -83.9L100.6 -83.85Q100.8 -82.55 100.25 -81.05L100.1 -80.7L99.7 -80.05L99.35 -77.95L99.15 -77.1L99 -76.65Q98.95 -75.6 99.15 -74.5L99.25 -73.8L99.35 -73.45Q99.6 -72.7 99.45 -71.95L99.35 -71.4Q99.4 -70.25 99 -69.55L98.35 -66.8L98.1 -65.95L98 -65.65L98.1 -65.45L98.2 -65.05L101.1 -57.2L101.25 -56.65Q103 -53.75 103.3 -50.2L103.3 -48.95Q103 -46.8 101.65 -47.35L101.65 -47.3L101.2 -46.55L101.3 -46.4L101.4 -45.7L101.35 -45.55Q102.2 -43.65 101.8 -41.5L101.5 -40.95Q100.55 -37.9 100.05 -34.65L99.9 -33.7L100.05 -33.3L100.6 -31Q100.7 -30 100.3 -29.35Q99.85 -28.75 98.85 -28.55L98.25 -28.55L98.1 -28.1L97.5 -27.2L97.8 -26.8L98 -26.4L98.6 -25.05Q99.65 -22.4 97.1 -21.1L97 -20.85L96.35 -19.85Q95 -14.05 96.7 -8.3Q97.4 -5.95 97.7 -3.5L97.6 -3.2Q97.25 -1.9 97.2 -0.55Q96.45 0.7 95.85 2.05Q94.85 4.35 93.35 6.3L92 7.25L90.85 7.65Q89.9 7.95 89.25 8.4L88 8.4L87.95 8.45L87.6 8.6L87.45 8.7L86.65 8.5L86.45 8.15L85.2 7.45Q84.3 6.9 83.05 6.8L82.95 6.75L82.85 6.7Q82.25 5.95 81.3 5.8L80.35 5.75L79.85 5.65Q77.65 5.1 75.8 6.4L75.3 6.75L74.75 6.85L73.15 7.15L68.15 7.55L66.95 7.6L66.35 7.7L65.5 7.65L64.25 7.5L60.8 7L59.65 6.75L59.25 6.65L58.8 6.2L57.2 5.4L57.1 5.35Q55.35 4.2 53.4 3.9L51.95 3.75L50.7 3.8L49.7 3.7L48.15 3.95L47.95 4L44.15 4.25L36.8 4.85L34.4 4.75L32.8 4.25L31.05 3.65Q30.05 3.15 29.15 2.5Q27.1 1.05 24.8 0.7L24.15 0.4L23.6 0.5L23.2 0.55L22.3 0.5L20.7 0.95L20.6 1Q20.25 1.1 20 1.3L19.5 1.5L17.45 3.05L17.3 3.2L16.75 3.55Q16.35 3.55 15.85 3.95L15.8 4L15.5 4.05L14 4.3L13.5 4.4L13.05 4.5L13 4.5L12.95 4.55L11.2 4.4L11.05 4.4L10.85 4.45L10.7 4.5L10.55 4.5L10.35 4.55L8.8 5Q5.5 5.6 2.2 4.95Q0.75 4.65 -0.5 4.05L-1.55 3.55Q-2.1 3.2 -2.1 2.55L-2.75 2.1Q-3.2 1.55 -3.15 0.7L-3.15 0.55L-3.3 -0.55L-3.2 -6.45L-3.1 -6.8Q-2.65 -8.55 -3.25 -10.1L-3.35 -14.4L-3.55 -21.95L-3.6 -23.3Q-3.45 -24.2 -3.45 -25.15L-3.55 -29.45L-3.15 -34.2L-3.1 -34.45L-3.3 -34.55L-3.55 -34.85Q-4.45 -36.25 -4.35 -38.1L-4.35 -38.8L-4.35 -38.85Q-4.6 -41.4 -2.5 -41.9L-2.8 -42.45L-4.25 -45.9L-4.3 -46.05L-4.35 -46.4L-4.45 -47.3L-4.25 -49.75L-4.1 -50.15L-3.5 -52.3Q-3.3 -53.05 -3.25 -53.85L-3.25 -55.5L-3.4 -57.7L-3.7 -60.6L-3.85 -62.05L-3.9 -62.65L-3.9 -64.1L-3.55 -68.25L-2.9 -70.05Q-2.2 -71.25 -0.85 -71.75L0.1 -72.05Q0.6 -72.5 0.75 -73.05L1 -73.65L1.1 -73.8L1 -74.75Q0.75 -76.55 0 -78.15L-0.5 -79.1L-0.85 -79.7L-1 -79.95Q-3.65 -83.9 -2.35 -88.6L-1.9 -89.9L-1.8 -90.1L-1.75 -90.15L-1.8 -90.2Q-2.25 -91.05 -1.75 -92.2L-1.3 -93.7L-0.45 -97.75L-0.25 -98.8Q-0.05 -100.1 -0.3 -101.3L-0.6 -102.35L-1.4 -103.95L-1.85 -104.65L-2.55 -105.55L-3.85 -107.45Q-4.45 -108.8 -4.25 -110.2L-3.9 -111.5Q-3.8 -111.9 -3.3 -111.95L-0.85 -111.8L0 -111.5L1.45 -111.1L2.85 -111Q5 -111.2 6.45 -113.2Q6.2 -114.65 6.95 -115.5L7.55 -116.05Q7.85 -116.3 8.25 -116.35Q9.3 -116.15 9.85 -115.55L15.05 -116.1L15.35 -116.3L18.1 -118.3L18.95 -119.05L19.35 -119.3L19.55 -119.35Q21.4 -119.7 23.25 -119.3L24.8 -118.8L25.3 -118.6Q27.1 -117.75 29.05 -117.25L32.9 -117.45L33.7 -117.85L34 -118L34.6 -118.35L34.75 -118.4L36.5 -119.05L36.7 -119.1L42.7 -120.45L44 -120.6Q45.9 -120.8 47.75 -120.6Q51.45 -120.2 54.75 -118.2L56.5 -117L57.15 -116.65L57.35 -116.6Q59 -116.1 60.15 -114.8L61.5 -114.3Q61.85 -114.05 62.25 -114L63.9 -115.55L65.35 -117.75L65.5 -117.95Q65.75 -118.55 66.4 -118.6Q67.95 -118.7 69.2 -118.05L70.15 -117.4L70.45 -117.15Q72.45 -116.05 74.6 -115.55L74.85 -115.5L76.95 -115.15Q77.6 -115.15 78.2 -115.5L78.25 -115.55L78.55 -115.75L81.25 -117.5L82.65 -118.6Q85.15 -120.7 88.6 -121.05L89.3 -121.1Q91.4 -120.85 92.6 -119.75Q94.1 -118.4 94.2 -115.8L94.2 -114.3L94.2 -113.7L94.2 -113.45L94.45 -113.65L94.45 -113.7Q94.9 -114 95.65 -114.1Q97.65 -113.2 96 -111.45L95.9 -111.35Q96.8 -107.65 96.3 -104L95.4 -100.4M91.9,-100.1L92.6 -101L93 -101.35L93.5 -101.8L93.5 -101.85L94.1 -105.75L94.1 -107.2L93.45 -105.8Q92.2 -103.65 90.15 -102.15L89.75 -101.85L90.65 -101.15L91.9 -100.1M0.05,-33.3L0.15 -31.85L0.05 -31.05L-0.05 -28.35L0.05 -24.75L0.3 -14.5Q0.4 -7.9 0.15 -1.4L0.65 -0.85L2.15 -0.7L5.85 -0.4L7.65 -0.3L7.85 -0.25L8.35 -0.3Q9.55 -1.75 11.45 -1L12.9 -0.75L16.05 -0.95Q16.45 -1.4 17 -1.4Q20.05 -1.4 22.75 -2.1Q25.65 -2.05 28.3 -0.8Q30.3 0.1 32.5 0.4L35.3 0.55L35.65 0.6L37.2 0.75L44.9 1.15L46.1 1.15L47.15 0.95Q49.55 0.05 52 -0.05L55.75 0.35L59.9 1.3L63.9 2.15L67.95 3L68.8 3.2L70.5 3.45L73.65 3.25L75.75 3.15L76.35 3.2Q76.15 2.3 76.55 1.55L77.1 0.7Q77.8 -0.05 78.85 0L79.25 0Q81.6 0.4 83.7 1.35L84.7 1.2L85.15 1.2Q88.45 1.55 91.75 1.2Q93.2 1 93.85 -0.45L94.4 -1L94.45 -1L94.85 -1L94.55 -3.25L94.2 -4.65Q93.4 -7.2 93.1 -9.85Q92.65 -12.95 92.85 -16.2Q92.95 -17.85 93.35 -19.3Q94 -22.05 95.85 -24.15L96.1 -24.4Q95.25 -25.4 95.1 -26.55L94.8 -26.6L94.35 -26.75L93.15 -26.9L92.7 -26.9L91.65 -26.95L87.9 -27.05L82.7 -26.75L74.75 -25.5L69.2 -24.35Q65.85 -23.75 63.25 -25.45L63 -25.65Q61.8 -26.5 61.35 -27.85L60.55 -28.5L60.1 -28.15Q59 -27.4 57.8 -27.1L56.4 -26.1L49.75 -24.3L48.65 -24.05L48.1 -23.95L45.85 -23.8L45.35 -23.8L44.4 -23.9Q43.3 -23.35 42.1 -23.2L41.2 -23.15L41.1 -23.05L40.5 -22.65L39.15 -22.6L36.7 -23.9L36.5 -24L33.65 -25.7Q30.9 -27.4 29.25 -30.1L28.8 -30.9L26.85 -33.45L25.35 -33.3Q25.3 -32.7 24.85 -32.35L23.6 -31.95L18.6 -31.65L18.3 -31.65L17.8 -31.5L16.9 -29.6L16.85 -29.55Q14.85 -26.85 10.65 -27.8Q8 -28.35 7 -30.6L6.7 -31.35L5.8 -32.35L5.6 -32.85L5.6 -32.9L5.4 -33L4.85 -33.15L1.8 -33.7L-0.25 -34.05L0.05 -33.3M98.95,-45.05L93.75 -42.55L92.6 -41.6L92.4 -41.35L92.6 -41.15L94.45 -39.6L94.5 -39.55L97.05 -37.95L97.25 -37.75L97.95 -37.05Q98.25 -39.1 99.05 -41Q99.55 -42.3 99.4 -43.6L99.15 -44.5L99.1 -44.65L98.95 -45.05" fill="rgb(0,0,0)" fill-opacity="1"></path><path d="M3.05,-93.9L1.6 -93.9L1.6 -79.6M3.05,-93.9L15.45 -93.9M15.45,-0.9L1.6 -0.9L1.6 -15.45M82.5,-93.9L94.6 -93.9L94.6 -79.6M94.6,-15.45L94.6 -2.35L94.6 -0.9L82.5 -0.9" stroke="rgb(0,0,0)" stroke-linecap="round" stroke-linejoin="round" stroke-miterlimit="3" stroke-width="3" fill="none"></path><path d="M3.05,-80.05L3.05 -93.9L3.05 -95.35L15.9 -95.35M15.9,-2.35L3.05 -2.35L3.05 -15.9M82.95,-95.35L96.05 -95.35L96.05 -80.05M94.6,-2.35L82.95 -2.35M94.6,-2.35L96.05 -2.35L96.05 -15.9" stroke="rgb(255,255,255)" stroke-linecap="round" stroke-linejoin="round" stroke-miterlimit="3" stroke-width="3" fill="none"></path></g></g></g></g></svg>