<svg width="32" height="36" viewBox="-16 -18 32 36"><g><defs></defs></g><rect x="-16" y="-18" width="32" height="36" fill="#006600"></rect><g id="0"><defs></defs><g><g type="shape" id="0:1:420"><defs></defs><g transform="matrix(1,0,0,1,0,0)"><path d="M10,12.6Q9.7 14.8 7.05 15.05Q-9.55 16.65 -11 3.6L-11 2.6L-11 -9.4L-11 -10.4L-11 -12.4Q-1.95 -13.35 -5 2.6Q-6.1 8.2 -1 7.6Q6.8 5.4 5.15 -7.55Q4.1 -15.65 10.05 -11.15Q11 -10.4 11 -8.4L11 -5.4L10 -5.4L10 11.6L10 12.6" fill="rgb(249,249,249)" fill-opacity="1"></path><path d="M-16,-15.4Q-6.6 -20.4 2.35 -17.45L3.2 -17.55L10 -18.4Q13.7 -17.6 15.75 -15.2L16 -14.4L16 -3.4L16 -2.4L15 -2.4L15 14.6L15 15.6L14.75 16.35L12 18.6L11 18.6L3 18.6L2 18.6L-7 18.6L-7.95 18.5Q-15.85 16.45 -16 6.6L-16 5.6L-16 -12.4L-16 -13.4L-16 -15.4M7.05,15.05Q9.7 14.8 10 12.6Q11.75 5.35 11.05 -4.4L11 -5.4L11 -8.4Q11 -10.4 10.05 -11.15Q4.1 -15.65 5.15 -7.55Q6.8 5.4 -1 7.6Q-6.1 8.2 -5 2.6Q-1.95 -13.35 -11 -12.4L-11 -10.4L-11 -9.4L-12 -9.4Q-12 -2.9 -11.5 3.55L-11 3.6Q-9.55 16.65 7.05 15.05" fill="rgb(5,5,5)" fill-opacity="1"></path><path d="M-11,2.6L-11 3.6L-11.5 3.55Q-12 -2.9 -12 -9.4L-11 -9.4L-11 2.6" fill="rgb(160,160,160)" fill-opacity="1"></path><path d="M10,11.6L10 -5.4L11 -5.4L11.05 -4.4Q11.75 5.35 10 12.6L10 11.6" fill="rgb(189,189,189)" fill-opacity="1"></path></g></g></g></g></svg>