<svg width="30" height="36" viewBox="-15 -18 30 36"><g><defs></defs></g><rect x="-15" y="-18" width="30" height="36" fill="#006600"></rect><g id="0"><defs></defs><g><g type="shape" id="0:1:416"><defs></defs><g transform="matrix(1,0,0,1,0,0)"><path d="M-8,-17.35Q5.2 -20.8 13.75 -15L14 -14.35L14 -4.35L14 -3.35L13.75 -2.6L13 -2.35Q13.5 -0.35 14.75 0.9L15 1.65L15 9.65L15 10.65L14.8 11.55Q12.2 17.35 5 18.65L4 18.65L-8 18.65L-8.95 18.5Q-13.05 17.2 -15 13.65L-15 12.65L-15 4.65L-15 3.65Q-11.75 2.45 -13.75 0.4L-14 -0.35L-14 -1.35L-14 -11.35L-14 -12.35Q-10.85 -14.2 -8.7 -17.1L-8 -17.35M-0.05,-7.2Q11.05 -2.65 9 -11.35L8.85 -11.9Q-4.15 -15.95 -10 -7.35L-9.8 -6.45Q-5.55 2.2 3 6.65L3 7.15L-11 7.65L-10.85 8.6Q-8.05 15.7 4 13.65L4.95 13.5Q9.2 11.85 10 6.65Q9.8 2.85 7.5 1.9Q-2.35 -2.3 -1 -7.35L-0.05 -7.2" fill="rgb(7,7,7)" fill-opacity="1"></path><path d="M-1,-7.35Q-2.35 -2.3 7.5 1.9Q9.8 2.85 10 6.65Q9.2 11.85 4.95 13.5L4 13.65Q-8.05 15.7 -10.85 8.6L-11 7.65L3 7.15L3 6.65Q-5.55 2.2 -9.8 -6.45L-10 -7.35Q-4.15 -15.95 8.85 -11.9L9 -11.35Q11.05 -2.65 -0.05 -7.2L-1 -7.35" fill="rgb(242,242,242)" fill-opacity="1"></path></g></g></g></g></svg>