<svg width="34" height="50" viewBox="-17 -25 34 50"><g><defs></defs></g><rect x="-17" y="-25" width="34" height="50" fill="#006600"></rect><g id="0"><defs></defs><g><g type="shape" id="0:1:402"><defs></defs><g transform="matrix(1,0,0,1,0,0)"><path d="M10.15,-10.95Q16.1 -8.4 16.15 0.05L16.15 1.05Q16.15 5.55 16.65 10L17.15 10.05L17.15 11.05L17.15 12.05L17.15 21.05L17.15 22.05L16.9 22.9Q15.7 24.6 13.15 25.05L12.15 25.05L5.15 25.05L4.4 24.8L1.15 21.05L1.15 20.05Q1.05 17.15 -0.85 16.05L-0.85 20.05L-0.85 21.05Q-0.85 21.55 -1.1 21.8L-3.85 24.05L-4.85 24.05L-12.85 24.05L-13.65 23.8Q-18.05 20.25 -16.85 11.05Q-15.1 -3.2 -15.85 -19.95L-15.85 -20.95L-15.85 -21.95Q-3.8 -30.15 -0.45 -16.8Q0.15 -14.45 0.15 -11.95Q3.4 -10.2 9.15 -10.9L10.15 -10.95M-11.85,-18.95L-11.85 -9.95L-11.85 -8.95L-11.85 13.05L-11.85 14.05Q-6.7 25.1 -5.75 11Q-5.1 0.8 4.15 0.05Q4.15 6.55 4.65 13L5.15 13.05Q6.4 24.35 11.25 16.5Q12.15 15.05 12.15 13.05L12.2 12.05Q12.9 6.8 11.15 4.05L11.2 3.05Q11.95 -6.75 3.15 -6.95Q-0.6 -7.2 -2.5 -5.85L-3.8 -4.9Q-2.1 -19.65 -10.85 -18.95L-11.85 -18.95" fill="rgb(4,4,4)" fill-opacity="1"></path><path d="M12.15,13.05Q12.15 15.05 11.25 16.5Q6.4 24.35 5.15 13.05L5.2 12.05Q5.9 4.8 4.15 0.05Q-5.1 0.8 -5.75 11Q-6.7 25.1 -11.85 14.05Q-10.1 4.3 -10.8 -7.95L-10.85 -8.95L-10.85 -9.95L-10.85 -18.95Q-2.1 -19.65 -3.8 -4.9L-2.5 -5.85Q-0.6 -7.2 3.15 -6.95Q11.95 -6.75 11.2 3.05L11.15 4.05Q11.15 8.55 11.65 13L12.15 13.05" fill="rgb(248,248,248)" fill-opacity="1"></path><path d="M5.2,12.05L5.15 13.05L4.65 13Q4.15 6.55 4.15 0.05Q5.9 4.8 5.2 12.05" fill="rgb(119,119,119)" fill-opacity="1"></path><path d="M11.65,13Q11.15 8.55 11.15 4.05Q12.9 6.8 12.2 12.05L12.15 13.05L11.65 13" fill="rgb(106,106,106)" fill-opacity="1"></path><path d="M-11.85,-8.95L-11.85 -9.95L-11.85 -18.95L-10.85 -18.95L-10.85 -9.95L-10.85 -8.95L-11.85 -8.95" fill="rgb(143,143,143)" fill-opacity="1"></path><path d="M-10.85,-8.95L-10.8 -7.95Q-10.1 4.3 -11.85 14.05L-11.85 13.05L-11.85 -8.95L-10.85 -8.95" fill="rgb(191,191,191)" fill-opacity="1"></path></g></g></g></g></svg>