<svg width="44" height="40" viewBox="-26 -20 44 40"><g><defs></defs></g><rect x="-26" y="-20" width="44" height="40" fill="#006600"></rect><g id="0"><defs></defs><g><g type="shape" id="0:1:408"><defs></defs><g transform="matrix(1,0,0,1,0,0)"><path d="M10,-18.05Q18.75 -12.8 18 1.95L18 2.95L18 13.95L18 14.95Q15.1 20.55 5.25 18L5 17.95Q-4 22.95 -13 16.95L-14 16.95L-23 16.95L-23.85 16.7Q-25.55 15.5 -26 12.95L-26 11.95L-26 -2.05L-26 -3.05L-26 -15.05L-26 -16.05L-26 -17.05Q-18.2 -21.9 -5 -19.15L-4 -19.05Q1.25 -17.3 9 -18L10 -18.05M-21,9.95Q-17.25 16.65 -15.15 8.9L-15 7.95Q-13.25 4.7 -13.95 -1.05L-14 -2.05L-13.15 -3.15Q-9.1 -10.1 -9.45 -3.1Q-10.15 10.6 -3 14.95Q-0.1 13.85 -1.35 9.05Q-4.4 -2.5 2 -6.05Q5.45 -8.95 5.15 -3.05Q4.6 8.35 10 13.95Q12.15 14.6 12.5 13.1Q15.7 0.15 9 -12.05L8.8 -12.65Q1.8 -15.9 -2 -11.05Q-5.4 -15.45 -10.9 -12.8L-12.5 -12.05Q-14.6 -15.3 -21 -14.05L-21 -13.05L-21 -12.05L-22 -12.05Q-22 -1.05 -21.5 9.95L-21 9.95" fill="rgb(7,7,7)" fill-opacity="1"></path><path d="M-15,-2.05L-15 6.95L-15 7.95L-15.15 8.9Q-17.25 16.65 -21 9.95L-21 8.95L-21 -12.05L-21 -13.05L-21 -14.05Q-14.6 -15.3 -12.5 -12.05L-10.9 -12.8Q-5.4 -15.45 -2 -11.05Q1.8 -15.9 8.8 -12.65L9 -12.05Q15.7 0.15 12.5 13.1Q12.15 14.6 10 13.95Q4.6 8.35 5.15 -3.05Q5.45 -8.95 2 -6.05Q-4.4 -2.5 -1.35 9.05Q-0.1 13.85 -3 14.95Q-10.15 10.6 -9.45 -3.1Q-9.1 -10.1 -13.15 -3.15L-14 -2.05L-15 -2.05" fill="rgb(244,244,244)" fill-opacity="1"></path><path d="M-21.5,9.95Q-22 -1.05 -22 -12.05L-21 -12.05L-21 8.95L-21 9.95L-21.5 9.95" fill="rgb(140,140,140)" fill-opacity="1"></path><path d="M-15,7.95L-15 6.95L-15 -2.05L-14 -2.05L-13.95 -1.05Q-13.25 4.7 -15 7.95" fill="rgb(130,130,130)" fill-opacity="1"></path></g></g></g></g></svg>