<svg width="16" height="46" viewBox="-8 -23 16 46"><g><defs></defs></g><rect x="-8" y="-23" width="16" height="46" fill="#006600"></rect><g id="0"><defs></defs><g><g type="shape" id="0:1:21"><defs></defs><g transform="matrix(1,0,0,1,0,0)"><path d="M-8.5,-20L-4.35 -22.8L-3.5 -23L3.5 -23L4.5 -23Q7.7 -22.75 8.4 -19.95L8.5 -19L8.5 -11L8.5 -10L8.25 -9.25L7.5 -9L7.5 -8L7.5 3L7.5 4L7.6 5Q9.6 18.1 3.5 23L2.5 23L-5.5 23L-6.25 22.75L-8.5 20L-8.5 19L-8.5 -8L-8.5 -9L-8.5 -20M-1.8,-12.7Q10.45 -17.3 -3.5 -17Q-3.5 -15 -2.55 -13.7L-1.8 -12.7M0.5,17.25Q3.15 13.65 3.95 7.2Q5.7 -6.2 -3.5 -7L-3.5 -6L-3.5 -5L-4.5 -5Q-4.5 6 -4 17L-3.5 17Q-1.9 20.45 0.5 17.25" fill="rgb(5,5,5)" fill-opacity="1"></path><path d="M-2.55,-13.7Q-3.5 -15 -3.5 -17Q10.45 -17.3 -1.8 -12.7L-2.55 -13.7" fill="rgb(230,230,230)" fill-opacity="1"></path><path d="M-3.5,16L-3.5 17L-4 17Q-4.5 6 -4.5 -5L-3.5 -5L-3.5 16" fill="rgb(171,171,171)" fill-opacity="1"></path><path d="M-3.5,-5L-3.5 -6L-3.5 -7Q5.7 -6.2 3.95 7.2Q3.15 13.65 0.5 17.25Q-1.9 20.45 -3.5 17L-3.5 16L-3.5 -5" fill="rgb(252,252,252)" fill-opacity="1"></path></g></g></g></g></svg>