<svg width="32" height="52" viewBox="-16 -26 32 52"><g><defs></defs></g><rect x="-16" y="-26" width="32" height="52" fill="#006600"></rect><g id="0"><defs></defs><g><g type="shape" id="0:1:400"><defs></defs><g transform="matrix(1,0,0,1,0,0)"><path d="M14.9,-12.05Q20.6 1.9 6.5 3.5L5.5 3.5L5.5 20.5L5.5 21.5L5.25 22.3Q-2.5 31 -10.5 22.5L-10.5 21.5L-10.5 13.5L-10.5 12.5Q-10.3 3.3 -16.5 0.5L-16.5 -0.5L-16.5 -8.5L-16.5 -9.5Q-8.1 -13.6 -4 -22.85L-2.5 -25.5Q8.5 -28.8 15.25 -23.2L15.5 -22.5L15.5 -15.5L15.5 -14.5Q14.5 -13 14.9 -12.05M1.55,-0.5L1.5 -1.5Q7.1 -0.9 9.5 -3.45Q10.5 -4.5 10.15 -4.55Q2.85 -5.85 1.5 -11.5Q2.5 -12.5 3.7 -12.9Q13.55 -16.35 7.5 -21.5Q2.35 -22.15 0.05 -20L-0.55 -19.35Q-2.35 -8.85 -11.5 -6.5Q-11.2 0.2 -6.35 3Q-5.5 3.5 -5.8 5.45Q-7.5 17 -1.8 20.3Q0.75 21.75 0.5 18.5Q2.25 10.25 1.55 -0.5" fill="rgb(8,8,8)" fill-opacity="1"></path><path d="M0.5,-1.5L0.5 17.5L0.5 18.5Q0.75 21.75 -1.8 20.3Q-7.5 17 -5.8 5.45Q-5.5 3.5 -6.35 3Q-11.2 0.2 -11.5 -6.5Q-2.35 -8.85 -0.55 -19.35L0.05 -20Q2.35 -22.15 7.5 -21.5Q13.55 -16.35 3.7 -12.9Q2.5 -12.5 1.5 -11.5Q2.85 -5.85 10.15 -4.55Q10.5 -4.5 9.5 -3.45Q7.1 -0.9 1.5 -1.5L0.5 -1.5" fill="rgb(248,248,248)" fill-opacity="1"></path><path d="M1.5,-1.5L1.55 -0.5Q2.25 10.25 0.5 18.5L0.5 17.5L0.5 -1.5L1.5 -1.5" fill="rgb(123,123,123)" fill-opacity="1"></path></g></g></g></g></svg>