<svg width="32" height="36" viewBox="-16 -18 32 36"><g><defs></defs></g><rect x="-16" y="-18" width="32" height="36" fill="#006600"></rect><g id="0"><defs></defs><g><g type="shape" id="0:1:392"><defs></defs><g transform="matrix(1,0,0,1,0,0)"><path d="M14.95,-13.35Q18 -5.3 12.75 -0.6L11.95 -0.35L10.95 -0.4Q3.2 -1.45 0.95 0.65Q4.25 1.45 10.95 0.7L11.95 0.65Q14.5 1.1 15.7 2.8L15.95 3.65L15.95 11.65L15.95 12.65L15.7 13.45Q12.45 17.15 6.95 18.65L5.95 18.65L-5.05 18.65L-6 18.5Q-13.45 15.55 -16.05 7.65L-16.05 6.65L-16.05 -2.35L-16.05 -3.35L-16.05 -4.35Q-13 -13.3 -5.25 -17.75Q-5.05 -17.85 -5.05 -18.35Q8.2 -19.65 14.7 -14.05L14.95 -13.35M1,-13.25Q-8.6 -10.9 -11.05 -1.35L-11.1 -0.35Q-11.95 6.55 -9.05 9.65Q-8.55 9.65 -8.25 9.9Q2.45 18.4 11.95 8.65Q11.45 7.65 11.1 7.7Q2.45 9 -4.05 4.65L-4.55 4.65Q-4.25 -9.9 5.95 -5.35L6.8 -5.6Q15.1 -10.85 1.95 -13.35L1 -13.25" fill="rgb(9,9,9)" fill-opacity="1"></path><path d="M1.95,-13.35Q15.1 -10.85 6.8 -5.6L5.95 -5.35Q-4.25 -9.9 -4.55 4.65L-4.05 4.65Q2.45 9 11.1 7.7Q11.45 7.65 11.95 8.65Q2.45 18.4 -8.25 9.9Q-8.55 9.65 -9.05 9.65Q-11.95 6.55 -11.1 -0.35L-11.05 -1.35Q-8.6 -10.9 1 -13.25L1.95 -13.35" fill="rgb(245,245,245)" fill-opacity="1"></path></g></g></g></g></svg>