<svg width="31" height="40" viewBox="-14 -20 31 40"><g><defs></defs></g><rect x="-14" y="-20" width="31" height="40" fill="#006600"></rect><g id="0"><defs></defs><g><g type="shape" id="0:1:23"><defs></defs><g transform="matrix(1,0,0,1,0,0)"><path d="M13.15,-17.25Q13.65 -16.9 14.2 -16.8Q14.65 -16.2 15.25 -15.7Q17.4 -12.7 17.35 -8.95Q17.35 -6.3 16.8 -3.85Q15.95 -0.05 16.1 3.95L16.35 6.55Q17.25 11.15 17.15 15.95Q17.15 17.1 16.6 18.2Q7.8 22.8 -1 16.95L-2 16.95L-11 16.95L-11.85 16.7Q-13.55 15.5 -14 12.95L-14 11.95L-14 -2.05L-14 -3.05L-14 -15.05L-14 -16.05L-14 -17.05Q-6.2 -21.9 7 -19.15L8 -19.05L11.85 -18.15L13.15 -17.25M-9,9.95Q-5.25 16.65 -3.15 8.9L-3 7.95Q-1.25 4.7 -1.95 -1.05L-2 -2.05L-1.15 -3.15Q2.9 -10.1 2.55 -3.1Q1.85 10.6 9 14.95Q11.9 13.85 10.65 9.05Q8.65 1.45 10.75 -2.65L10.75 -2.85L11.05 -4.85Q11.15 -7.4 10.65 -9.85L10.05 -11.1L10 -11.05Q6.6 -15.45 1.1 -12.8L-0.5 -12.05Q-2.6 -15.3 -9 -14.05L-9 -13.05L-9 -12.05L-10 -12.05Q-10 -1.05 -9.5 9.95L-9 9.95" fill="rgb(7,7,7)" fill-opacity="1"></path><path d="M-3,-2.05L-3 6.95L-3 7.95L-3.15 8.9Q-5.25 16.65 -9 9.95L-9 8.95L-9 -12.05L-9 -13.05L-9 -14.05Q-2.6 -15.3 -0.5 -12.05L1.1 -12.8Q6.6 -15.45 10 -11.05L10.05 -11.1L10.65 -9.85Q11.15 -7.4 11.05 -4.85L10.75 -2.85L10.75 -2.65Q8.65 1.45 10.65 9.05Q11.9 13.85 9 14.95Q1.85 10.6 2.55 -3.1Q2.9 -10.1 -1.15 -3.15L-2 -2.05L-3 -2.05" fill="rgb(244,244,244)" fill-opacity="1"></path><path d="M-9.5,9.95Q-10 -1.05 -10 -12.05L-9 -12.05L-9 8.95L-9 9.95L-9.5 9.95" fill="rgb(140,140,140)" fill-opacity="1"></path><path d="M-3,7.95L-3 6.95L-3 -2.05L-2 -2.05L-1.95 -1.05Q-1.25 4.7 -3 7.95" fill="rgb(130,130,130)" fill-opacity="1"></path></g></g></g></g></svg>