<svg width="34" height="48" viewBox="-17 -24 34 48"><g><defs></defs></g><rect x="-17" y="-24" width="34" height="48" fill="#006600"></rect><g id="0"><defs></defs><g><g type="shape" id="0:1:25"><defs></defs><g transform="matrix(1,0,0,1,0,0)"><path d="M-17.1,-11.8L-17.1 -12.8Q-13.7 -20.4 -5.25 -23.25Q-5.1 -23.3 -5.1 -23.8Q10.1 -25.5 16.65 -18.55L16.9 -17.8L16.9 -7.8L16.9 -6.8L17 -5.8Q17.6 -2.1 15.9 -0.8L15.9 3.2L15.9 4.2L14.9 4.2L14.9 12.2L14.9 13.2L14.8 14.15Q12.7 22.5 3.9 24.2L2.9 24.2L-11.1 24.2L-12.1 24.1Q-15.85 23.45 -17.1 20.2L-17.1 19.2L-17.1 12.2L-16.85 11.5Q-12.5 8.15 -17.1 2.2L-17.1 1.2L-17.1 -10.8L-17.1 -11.8M0.9,0.2Q-6.95 3.5 -6.15 -6.8L-6.1 -7.8Q-1.95 -15.55 3.9 -9.8Q4.9 -8.8 4.85 -6.8Q4.75 -1.45 0.9 0.2M0.8,19.7L0.9 19.2Q9.05 18.35 9.85 10.2L9.9 9.2Q11.65 6.95 10.95 2.2L10.9 1.2L11 0.25Q13.7 -11.4 8.9 -16.8L8.8 -17.35Q-6.55 -21.15 -12.1 -9.8Q-13.6 0.2 -9.35 4.45Q-9.1 4.7 -9.1 5.2Q-1.35 7.2 3.15 9.6Q4.55 10.35 2.9 10.2Q-1.85 15.7 -11 16.1Q-13.55 16.2 -11.7 18.65Q-10.8 19.9 -8.1 19.2Q-4.85 20.95 0.8 19.7" fill="rgb(10,10,10)" fill-opacity="1"></path><path d="M4.85,-6.8Q4.9 -8.8 3.9 -9.8Q-1.95 -15.55 -6.1 -7.8L-6.15 -6.8Q-6.95 3.5 0.9 0.2Q4.75 -1.45 4.85 -6.8M9.9,9.2L9.85 10.2Q9.05 18.35 0.9 19.2L-0.1 19.2L-8.1 19.2Q-10.8 19.9 -11.7 18.65Q-13.55 16.2 -11 16.1Q-1.85 15.7 2.9 10.2Q4.55 10.35 3.15 9.6Q-1.35 7.2 -9.1 5.2Q-9.1 4.7 -9.35 4.45Q-13.6 0.2 -12.1 -9.8Q-6.55 -21.15 8.8 -17.35L8.9 -16.8Q13.7 -11.4 11 0.25L10.9 1.2L9.9 1.2L9.9 8.2L9.9 9.2" fill="rgb(246,246,246)" fill-opacity="1"></path><path d="M9.9,8.2L9.9 1.2L10.9 1.2L10.95 2.2Q11.65 6.95 9.9 9.2L9.9 8.2" fill="rgb(159,159,159)" fill-opacity="1"></path><path d="M0.9,19.2L0.8 19.7Q-4.85 20.95 -8.1 19.2L-0.1 19.2L0.9 19.2" fill="rgb(166,166,166)" fill-opacity="1"></path></g></g></g></g></svg>