<svg width="16" height="49" viewBox="-8 -24 16 49"><g><defs></defs></g><rect x="-8" y="-24" width="16" height="49" fill="#006600"></rect><g id="0"><defs></defs><g><g type="shape" id="0:1:13"><defs></defs><g transform="matrix(1,0,0,1,0,0)"><path d="M6.3,-21.45Q8.65 -1.25 7.9 21.5L7.65 22.2Q-1.35 29.1 -8.1 21.5L-8.1 20.5L-8.1 -20.5L-8.1 -21.5L-8.1 -22.5L-5 -24.3L-4.1 -24.5L2.9 -24.5L3.9 -24.5Q6.05 -23.65 6.3 -21.45M-4.1,-18.5Q-4.1 0 -3.6 18.5L-3.1 18.5Q-2.6 19.5 -1.85 19.75Q1.25 20.85 1.45 19.35L4.45 -5.3Q6.1 -18.7 -3.1 -19.5L-3.1 -18.5L-4.1 -18.5" fill="rgb(2,2,2)" fill-opacity="1"></path><path d="M-3.1,17.5L-3.1 -18.5L-3.1 -19.5Q6.1 -18.7 4.45 -5.3L1.45 19.35Q1.25 20.85 -1.85 19.75Q-2.6 19.5 -3.1 18.5L-3.1 17.5" fill="rgb(252,252,252)" fill-opacity="1"></path><path d="M-3.1,18.5L-3.6 18.5Q-4.1 0 -4.1 -18.5L-3.1 -18.5L-3.1 17.5L-3.1 18.5" fill="rgb(188,188,188)" fill-opacity="1"></path></g></g></g></g></svg>