<svg width="32" height="50" viewBox="-16 -25 32 50"><g><defs></defs></g><rect x="-16" y="-25" width="32" height="50" fill="#006600"></rect><g id="0"><defs></defs><g><g type="shape" id="0:1:410"><defs></defs><g transform="matrix(1,0,0,1,0,0)"><path d="M3.5,7Q9.8 5.3 11.4 -1.05L11.5 -2L12.05 -2.1Q13.25 -7.25 11.5 -10Q10.9 -18.9 1.55 -19.65Q-6.35 -20.35 -11.5 -19L-11.5 -6L-11.5 -5Q-11.5 6.5 -11 18L-10.5 18Q-8.45 21.6 -4.75 18.7Q-4.5 18.5 -4.5 18L-4.5 17L-4.5 13.3Q-3.45 7.55 3.5 7.5L3.5 7M-16.5,-20L-16.5 -21L-16.5 -22Q-14.35 -22.85 -13.15 -24.8L-12.5 -25L-4.5 -25L-3.5 -25L-2.5 -25Q0.25 -23.25 5.5 -23.95L6.5 -24Q15.4 -21.9 16.45 -12L16.5 -11L16.5 0L16.5 1L16.35 1.95Q14.2 9.7 6.5 12L5.5 12L0.5 12L0.5 18.35L0.5 20L0.5 21L0.25 21.75L-3.5 25L-4.5 25L-11.5 25L-12.25 24.75L-15.5 21L-15.45 20Q-14.75 7.75 -16.5 -2L-16.5 -3L-16.5 -11L-16.5 -12L-16.5 -20" fill="rgb(5,5,5)" fill-opacity="1"></path><path d="M11.5,-3L11.5 -2L11.4 -1.05Q9.8 5.3 3.5 7L2.5 7L-4.5 7L-4.5 13.3L-4.5 17L-4.5 18Q-4.5 18.5 -4.75 18.7Q-8.45 21.6 -10.5 18L-10.45 17Q-9.75 4.75 -11.5 -5L-11.5 -6L-11.5 -19Q-6.35 -20.35 1.55 -19.65Q10.9 -18.9 11.5 -10L11.5 -3M-4.5,-10Q-4.5 -5 -4 -0.05L-3.5 0Q1.05 2.5 4.25 -1.2L4.5 -2L5.05 -2.1Q6.25 -7.25 4.5 -10L4.25 -10.8Q1.1 -14.8 -3.5 -11L-3.5 -10L-4.5 -10" fill="rgb(250,250,250)" fill-opacity="1"></path><path d="M-11,18Q-11.5 6.5 -11.5 -5Q-9.75 4.75 -10.45 17L-10.5 18L-11 18" fill="rgb(127,127,127)" fill-opacity="1"></path><path d="M-3.5,0L-4 -0.05Q-4.5 -5 -4.5 -10L-3.5 -10L-3.5 -1L-3.5 0" fill="rgb(64,64,64)" fill-opacity="1"></path><path d="M4.5,-2L4.25 -1.2Q1.05 2.5 -3.5 0L-3.5 -1L-3.5 -10L-3.5 -11Q1.1 -14.8 4.25 -10.8L4.5 -10L4.5 -3L4.5 -2" fill="rgb(8,8,8)" fill-opacity="1"></path><path d="M4.5,-3L4.5 -10Q6.25 -7.25 5.05 -2.1L4.5 -2L4.5 -3" fill="rgb(89,89,89)" fill-opacity="1"></path><path d="M3.5,7.5Q-3.45 7.55 -4.5 13.3L-4.5 7L2.5 7L3.5 7L3.5 7.5" fill="rgb(78,78,78)" fill-opacity="1"></path><path d="M11.5,-2L11.5 -3L11.5 -10Q13.25 -7.25 12.05 -2.1L11.5 -2" fill="rgb(99,99,99)" fill-opacity="1"></path></g></g></g></g></svg>