<svg width="34" height="36" viewBox="-17 -18 34 36"><g><defs></defs></g><rect x="-17" y="-18" width="34" height="36" fill="#006600"></rect><g id="0"><defs></defs><g><g type="shape" id="0:1:17"><defs></defs><g transform="matrix(1,0,0,1,0,0)"><path d="M7,-18.2Q19.35 -13.9 16.35 2.85Q16.05 4.75 17 5.8L17 13.8L17 14.8Q16.5 14.8 16.3 15.05Q12.6 19.4 3 17.8L2 17.8L-6 17.8L-6.95 17.7Q-14.95 15.75 -17 7.8L-17 6.8L-17 -6.2L-17 -7.2L-17 -8.2Q-12.75 -14.95 -4.95 -18.05L-4 -18.2L6 -18.2L7 -18.2M-7.85,10.35Q2.75 13.7 11 11.8L11.5 11.8Q8.65 2.2 11 -8.2L10.9 -9.15Q10.2 -11.95 7 -12.2L6.95 -12.7Q-7.55 -14.25 -12 -5.2L-12 -4.2L-12 -3.2L-13 -3.2Q-13 0.8 -12.5 4.75L-12 4.8Q-11.4 9.25 -7.85 10.35" fill="rgb(8,8,8)" fill-opacity="1"></path><path d="M-6.05,-1.2Q-7.2 6.5 -1 6.8Q5.05 7.85 4.6 1.75Q3.35 -14.6 -6 -2.2L-6.05 -1.2M-12,-3.2L-12 -4.2L-12 -5.2Q-7.55 -14.25 6.95 -12.7L7 -12.2Q10.2 -11.95 10.9 -9.15L11 -8.2Q8.65 2.2 11.5 11.8L11 11.8Q2.75 13.7 -7.85 10.35Q-11.4 9.25 -12 4.8L-12 3.8L-12 -3.2" fill="rgb(249,249,249)" fill-opacity="1"></path><path d="M-12,3.8L-12 4.8L-12.5 4.75Q-13 0.8 -13 -3.2L-12 -3.2L-12 3.8" fill="rgb(157,157,157)" fill-opacity="1"></path><path d="M-6,-2.2Q3.35 -14.6 4.6 1.75Q5.05 7.85 -1 6.8Q-7.2 6.5 -6.05 -1.2L-6 -2.2" fill="rgb(14,14,14)" fill-opacity="1"></path></g></g></g></g></svg>