<svg width="34" height="36" viewBox="-17 -18 34 36"><g><defs></defs></g><rect x="-17" y="-18" width="34" height="36" fill="#006600"></rect><g id="0"><defs></defs><g><g type="shape" id="0:1:396"><defs></defs><g transform="matrix(1,0,0,1,0,0)"><path d="M7,-18Q13.6 -17.1 15.8 -11.9L16 -11L16 -4L16 -3L15.8 -2.1L15 -1Q14.8 1.7 16.85 2.45L17 3L17 10L17 11L16.75 11.75Q13.4 15.4 9 18L8 18L-7 18Q-7 17.5 -7.15 17.45Q-14.95 14.95 -17 7L-17 6L-17 -5L-17 -6L-17 -8Q-13.4 -14.9 -5.95 -17.85L-5 -18L6 -18L7 -18M-5.8,-11.75Q-9.4 -8.9 -12 -5L-12.05 -4Q-12.9 4.4 -10 9L-9.2 9.25Q2.1 17.6 12 8L12 6.5L-5 6L-4.9 5.45Q7.3 2.3 11 -9Q10.5 -9 10.3 -9.25Q5.4 -15.9 -5 -12L-5.8 -11.75" fill="rgb(11,11,11)" fill-opacity="1"></path><path d="M-5,-12Q5.4 -15.9 10.3 -9.25Q10.5 -9 11 -9Q7.3 2.3 -4.9 5.45L-5 6L12 6.5L12 8Q2.1 17.6 -9.2 9.25L-10 9Q-12.9 4.4 -12.05 -4L-12 -5Q-9.4 -8.9 -5.8 -11.75L-5 -12M1.9,-5.15Q-1.2 -9.1 -6 -3Q-3.4 -1.95 0.8 -4.35L1.9 -5.15" fill="rgb(247,247,247)" fill-opacity="1"></path><path d="M0.8,-4.35Q-3.4 -1.95 -6 -3Q-1.2 -9.1 1.9 -5.15L0.8 -4.35" fill="rgb(23,23,23)" fill-opacity="1"></path></g></g></g></g></svg>