<svg width="28" height="60" viewBox="-14 -30 28 60"><g><defs></defs></g><rect x="-14" y="-30" width="28" height="60" fill="#006600"></rect><g id="0"><defs></defs><g><g type="shape" id="0:1:404"><defs></defs><g transform="matrix(1,0,0,1,0,0)"><path d="M8,-30Q11.2 -29.75 11.9 -26.95L12 -26Q12 -21 12.5 -16.05L13 -16L13 -10L13 -9Q13 -5 13.5 -1.05L14 -1L14 3L14 4L14 20L14 21L13.85 21.95Q11.75 27.75 6 30L5 30L-4 30L-4.85 29.75Q-10.55 26.05 -14 20L-14 19L-14 11Q-8.75 8.25 -3.2 5.6L-3 5L-2.95 4Q-2.25 -1.75 -4 -5L-4 -6L-5 -27L-0.85 -29.8L0 -30L7 -30L8 -30M0,-24Q0 -22 0.95 -20.7L1.7 -19.7Q13.95 -24.3 0 -24M1.5,1.95L2 2L2 7L2 8L2 17L2 18L2 18.5Q-1.9 12.5 -9 14Q-6.55 28.45 5.95 22.95Q8.75 21.75 9 18L9.5 17.9Q10.75 11.25 9 7L9 6L9 2L9.05 1Q9.75 -3.75 8 -6L8 -7Q8.5 -18.35 1 -13L1 -9L1 -8Q1 -3 1.5 1.95" fill="rgb(5,5,5)" fill-opacity="1"></path><path d="M1.7,-19.7L0.95 -20.7Q0 -22 0 -24Q13.95 -24.3 1.7 -19.7" fill="rgb(230,230,230)" fill-opacity="1"></path><path d="M2,8L2 7L2 2L2.05 1Q2.75 -4.75 1 -8L1 -9L1 -13Q8.5 -18.35 8 -7L8 -6Q8 -2 8.5 1.95L9 2L9 6L9 7L9 17L9 18Q8.75 21.75 5.95 22.95Q-6.55 28.45 -9 14Q-1.9 12.5 2 18.5L2 18L2.5 17.9Q3.75 11.75 2 8" fill="rgb(250,250,250)" fill-opacity="1"></path><path d="M2,2L1.5 1.95Q1 -3 1 -8Q2.75 -4.75 2.05 1L2 2" fill="rgb(129,129,129)" fill-opacity="1"></path><path d="M8.5,1.95Q8 -2 8 -6Q9.75 -3.75 9.05 1L9 2L8.5 1.95" fill="rgb(161,161,161)" fill-opacity="1"></path><path d="M9,17L9 7Q10.75 11.25 9.5 17.9L9 18L9 17" fill="rgb(95,95,95)" fill-opacity="1"></path><path d="M2.5,17.9L2 18L2 17L2 8Q3.75 11.75 2.5 17.9" fill="rgb(106,106,106)" fill-opacity="1"></path></g></g></g></g></svg>