<svg width="104" height="98" viewBox="-7 -98 104 98"><g><defs></defs></g><rect x="-7" y="-98" width="104" height="98" fill="#006600"></rect><g id="0"><defs></defs><g><g type="shape" id="0:1:94"><defs></defs><g transform="matrix(1,0,0,1,0,0)"><path d="M54.1,-33.9L54.1 -32.9L53.9 -32Q50.7 -26.3 43.1 -24.9L42.1 -24.9L33.1 -24.9L33 -25.4Q24.25 -27.05 24.1 -36.9L24.15 -37.9Q24.8 -43.7 19.1 -47.9L18.3 -47.65Q13.6 -43.9 12.1 -36.9Q11.9 -29.7 14.85 -25.7L15.1 -24.9Q19.25 -16.55 29.15 -14L30.1 -13.9Q33.3 -14.6 34.4 -13.15Q34.6 -12.9 35.1 -12.9Q38.35 -11.15 44 -12.4L44.1 -12.9L45.05 -13.05L54.1 -14.9Q54.1 -15.4 54.3 -15.5Q63.25 -20.25 67.1 -29.9L67.1 -30.9L67.1 -38.9L66.55 -39.05Q63.2 -50 54.1 -54.9L53.15 -55.05Q46.55 -57.35 37.1 -56.9Q43.25 -47.05 53.9 -41.5Q54.1 -41.4 54.1 -40.9L54.1 -33.9M13.1,-54L14.1 -53.9Q27.35 -55.65 31.55 -66.75L32.1 -66.9L32.1 -76.9L32.1 -77.9L31.9 -78.8Q27.1 -89.4 14.1 -91.9L13.15 -91.8Q4.65 -89.85 -0.9 -84.9L-1.1 -84L-4.9 -75.9Q-4.45 -63.85 2.3 -58.15Q2.6 -57.9 3.1 -57.9Q7.15 -54.95 13.1 -54M43.1,-10.9L35.1 -10.9L34.1 -11L27.1 -11.9L26.95 -12.45Q18.2 -16 13.1 -22.9L12.95 -23.85Q11.75 -27.05 10.1 -29.9L10.1 -30.9L10.1 -39.9Q10.6 -39.9 10.65 -40.05Q13.2 -46.3 16.1 -51.9L15.1 -51.9Q-3.75 -52.05 -7.9 -66.9L-7.9 -67.9L-7.9 -79.9Q-5.45 -82.45 -4.05 -85.95L-3.9 -86.9Q0.2 -91.3 6.95 -93.35L7.1 -93.9L20.1 -93.9L21.1 -93.9Q30.75 -90.05 34.55 -80.05Q34.6 -79.9 35.1 -79.9Q34.9 -67.6 34.15 -60.9L34.1 -59.9Q60.8 -60.6 68.55 -42.1Q68.6 -41.9 69.1 -41.9L69.1 -29.9L69.1 -28.9Q63.55 -13.45 45.1 -10.95L44.1 -10.9L43.1 -10.9M33.1,-27.8L34.1 -27.9Q37.35 -26.15 43 -27.4L43.1 -27.9L44.05 -28Q54.35 -30.5 51.1 -41.9L50.15 -42.05Q38.05 -46.85 32.1 -57.9L32.1 -58.4Q26.6 -55.4 21.1 -51.9Q24.4 -45.2 28.6 -39.9L28.1 -39.9Q25.6 -33.75 29.4 -29.15Q29.6 -28.9 30.1 -28.9Q30.4 -27.2 33.1 -27.8" fill="rgb(9,17,5)" fill-opacity="1"></path><path d="M35.1,-12.9Q34.6 -12.9 34.4 -13.15Q33.3 -14.6 30.1 -13.9L30.1 -14.9Q38.15 -17.85 42.85 -24.1L43.1 -24.9Q50.7 -26.3 53.9 -32L54.1 -32.9L54.65 -33Q55.85 -38.15 54.1 -40.9Q54.1 -41.4 53.9 -41.5Q43.25 -47.05 37.1 -56.9Q46.55 -57.35 53.15 -55.05L54.1 -54.9Q63.2 -50 66.55 -39.05L67.1 -38.9L67.1 -30.9L67.1 -29.9Q63.25 -20.25 54.3 -15.5Q54.1 -15.4 54.1 -14.9L45.05 -13.05L44.1 -12.9L43.1 -12.9L35.1 -12.9" fill="rgb(114,114,109)" fill-opacity="1"></path><path d="M31.6,-77.8Q29.05 -63.45 18.1 -57.9L17.1 -57.9L3.1 -58.9L3.1 -57.9Q2.6 -57.9 2.3 -58.15Q-4.45 -63.85 -4.9 -75.9L-1.1 -84L-0.9 -84.9Q4.65 -89.85 13.15 -91.8L14.1 -91.9Q27.1 -89.4 31.9 -78.8L32.1 -77.9L31.6 -77.8M15.5,-84.1L14.85 -84.95Q3.85 -87.6 -0.9 -77.9L-1 -76.9Q-2.45 -67.35 4.1 -65.9Q4.6 -65.9 4.65 -66.05Q8.8 -76.7 16.1 -83.9L15.5 -84.1" fill="rgb(201,11,0)" fill-opacity="1"></path><path d="M3.1,-57.9L3.1 -58.9L17.1 -57.9L18.1 -57.9Q29.05 -63.45 31.6 -77.8L32.1 -77.9L32.1 -76.9L32.1 -66.9L31.55 -66.75Q27.35 -55.65 14.1 -53.9L13.1 -54Q7.15 -54.95 3.1 -57.9" fill="rgb(237,139,9)" fill-opacity="1"></path><path d="M16.1,-83.9Q8.8 -76.7 4.65 -66.05Q4.6 -65.9 4.1 -65.9Q-2.45 -67.35 -1 -76.9L-0.9 -77.9Q3.85 -87.6 14.85 -84.95L15.5 -84.1L16.1 -83.9" fill="rgb(250,150,10)" fill-opacity="1"></path><path d="M31.5,-57.7Q30.4 -55.1 28.1 -53.9Q33.8 -43.55 40.85 -34.7L41.1 -33.9Q37.05 -30.45 30.2 -29.4L30.1 -28.9Q29.6 -28.9 29.4 -29.15Q25.6 -33.75 28.1 -39.9L28.6 -39.9Q24.4 -45.2 21.1 -51.9Q26.6 -55.4 32.1 -58.4L32.1 -57.9Q31.6 -57.9 31.5 -57.7" fill="rgb(64,74,77)" fill-opacity="1"></path><path d="M34.1,-27.9L33.1 -27.8Q30.4 -27.2 30.1 -28.9L30.2 -29.4Q37.05 -30.45 41.1 -33.9L40.85 -34.7Q33.8 -43.55 28.1 -53.9Q30.4 -55.1 31.5 -57.7Q31.6 -57.9 32.1 -57.9Q38.05 -46.85 50.15 -42.05L51.1 -41.9Q54.35 -30.5 44.05 -28L43.1 -27.9L42.1 -27.9L34.1 -27.9" fill="rgb(114,112,109)" fill-opacity="1"></path><path d="M23.4,-36.65Q18.85 -31.15 15.1 -24.9L14.85 -25.7Q11.9 -29.7 12.1 -36.9Q13.6 -43.9 18.3 -47.65L19.1 -47.9Q24.8 -43.7 24.15 -37.9L24.1 -36.9L23.4 -36.65" fill="rgb(111,112,107)" fill-opacity="1"></path><path d="M42.85,-24.1Q38.15 -17.85 30.1 -14.9L30.1 -13.9L29.15 -14Q19.25 -16.55 15.1 -24.9Q18.85 -31.15 23.4 -36.65L24.1 -36.9Q24.25 -27.05 33 -25.4L33.1 -24.9L42.1 -24.9L43.1 -24.9L42.85 -24.1" fill="rgb(62,73,75)" fill-opacity="1"></path><path d="M42.1,-27.9L43.1 -27.9L43 -27.4Q37.35 -26.15 34.1 -27.9L42.1 -27.9" fill="rgb(66,65,64)" fill-opacity="1"></path><path d="M54.1,-32.9L54.1 -33.9L54.1 -40.9Q55.85 -38.15 54.65 -33L54.1 -32.9" fill="rgb(56,55,54)" fill-opacity="1"></path><path d="M44.1,-10.9L44 -10.4Q38.35 -9.15 35.1 -10.9L43.1 -10.9L44.1 -10.9" fill="rgb(0,80,0)" fill-opacity="1"></path><path d="M43.1,-12.9L44.1 -12.9L44 -12.4Q38.35 -11.15 35.1 -12.9L43.1 -12.9" fill="rgb(23,61,22)" fill-opacity="1"></path></g></g><g type="shape" id="0:2:95"><defs></defs><g transform="matrix(1,0,0,1,0,0)"><path d="M3.05,-93.9L15.45 -93.9M3.05,-93.9L1.6 -93.9L1.6 -79.6M15.45,-0.9L1.6 -0.9L1.6 -15.45M82.5,-93.9L94.6 -93.9L94.6 -79.6M94.6,-15.45L94.6 -2.35L94.6 -0.9L82.5 -0.9" stroke="rgb(0,0,0)" stroke-linecap="round" stroke-linejoin="round" stroke-miterlimit="3" stroke-width="3" fill="none"></path><path d="M3.05,-80.05L3.05 -93.9L3.05 -95.35L15.9 -95.35M15.9,-2.35L3.05 -2.35L3.05 -15.9M82.95,-95.35L96.05 -95.35L96.05 -80.05M94.6,-2.35L96.05 -2.35L96.05 -15.9M94.6,-2.35L82.95 -2.35" stroke="rgb(255,255,255)" stroke-linecap="round" stroke-linejoin="round" stroke-miterlimit="3" stroke-width="3" fill="none"></path></g></g></g></g></svg>