<svg width="121" height="124" viewBox="-35 -99 121 124"><g><defs></defs></g><rect x="-35" y="-99" width="121" height="124" fill="#006600"></rect><g id="0"><defs></defs><g><g type="shape" id="0:1:210"><defs></defs><g transform="matrix(1,0,0,1,0,0)"><path d="M13.1,-22.9Q9.4 -32.15 11.2 -42.05Q12.15 -47.4 15.1 -51.9Q9.8 -51.65 5 -53.7Q-2.55 -56.95 -6.2 -64.15Q-11 -73.6 -6.05 -82.8Q0.6 -95.15 14.95 -94.2Q26 -93.45 32.4 -84.45Q39.85 -73.9 34.1 -59.9Q41.65 -60.1 49.05 -58.1Q61.2 -54.95 66.25 -43.6Q72.25 -30.1 62.3 -19.85Q51.35 -8.5 35.1 -10.9L27.1 -11.9L13.1 -22.9M30.1,-28.9Q41.8 -23.45 49.55 -32.95Q52.4 -36.35 51.45 -40.8Q39.55 -46.3 32.1 -57.9L21.1 -51.9L27.6 -38.35L30.1 -28.9M17.1,-90.35Q6.25 -92.5 -0.65 -83.65Q-7.25 -75.15 -3.1 -65.3Q-1.1 -60.5 3.1 -57.9Q12.6 -51.05 22.65 -56.8Q29.1 -60.5 32.1 -66.9L32.1 -77.9Q27.9 -88.1 17.1 -90.35M15.1,-24.9Q19.25 -16.55 29.15 -14L30.1 -13.9L32.8 -14.05Q42.8 -10.85 52.8 -14.9Q62.6 -18.8 65.85 -28.8Q69.1 -38.9 62.1 -47.1Q54.75 -55.85 43.25 -56.75L37.1 -56.9L54.1 -40.9L53.9 -32L43.1 -24.9Q31.2 -22 25.45 -31.65Q24 -34.05 24.1 -36.9Q24.95 -43.9 19 -47.75L18.65 -47.8Q8.6 -39.05 14.45 -26.85L15.1 -24.9" fill="rgb(9,17,5)" fill-opacity="1"></path><path d="M30.1,-13.9L43.1 -24.9L53.9 -32L54.1 -40.9L37.1 -56.9L43.25 -56.75Q54.75 -55.85 62.1 -47.1Q69.1 -38.9 65.85 -28.8Q62.6 -18.8 52.8 -14.9Q42.8 -10.85 32.8 -14.05L30.1 -13.9" fill="rgb(114,114,109)" fill-opacity="1"></path><path d="M14.85,-84.95Q-2.45 -86.85 0 -70.1Q0.55 -66.3 4.5 -65.9L16.1 -83.9L14.85 -84.95M32.1,-77.9Q30.05 -67.6 20.9 -61.95Q12.2 -56.45 3.1 -57.9Q-1.1 -60.5 -3.1 -65.3Q-7.25 -75.15 -0.65 -83.65Q6.25 -92.5 17.1 -90.35Q27.9 -88.1 32.1 -77.9" fill="rgb(201,11,0)" fill-opacity="1"></path><path d="M20.9,-61.95Q30.05 -67.6 32.1 -77.9L32.1 -66.9Q29.1 -60.5 22.65 -56.8Q12.6 -51.05 3.1 -57.9Q12.2 -56.45 20.9 -61.95" fill="rgb(237,139,9)" fill-opacity="1"></path><path d="M16.1,-83.9L4.5 -65.9Q0.55 -66.3 0 -70.1Q-2.45 -86.85 14.85 -84.95L16.1 -83.9" fill="rgb(250,150,10)" fill-opacity="1"></path><path d="M27.6,-38.35L21.1 -51.9L32.1 -57.9L29.2 -54.55L41.05 -34.35L30.1 -28.9L27.6 -38.35" fill="rgb(64,74,77)" fill-opacity="1"></path><path d="M51.45,-40.8Q52.4 -36.35 49.55 -32.95Q41.8 -23.45 30.1 -28.9L41.05 -34.35L29.2 -54.55L32.1 -57.9Q39.55 -46.3 51.45 -40.8" fill="rgb(114,112,109)" fill-opacity="1"></path><path d="M14.45,-26.85Q8.6 -39.05 18.65 -47.8L19 -47.75Q24.95 -43.9 24.1 -36.9L15.1 -24.9L14.45 -26.85" fill="rgb(111,112,107)" fill-opacity="1"></path><path d="M30.1,-13.9L29.15 -14Q19.25 -16.55 15.1 -24.9L24.1 -36.9Q24 -34.05 25.45 -31.65Q31.2 -22 43.1 -24.9L30.1 -13.9" fill="rgb(62,73,75)" fill-opacity="1"></path><path d="M13.1,-22.9L27.1 -11.9Q15.45 -5.1 12.65 8.2Q8.35 12 4.3 15.95Q-5.9 26 -19.65 25.7Q-26.1 25.55 -30.3 20.75Q-39.1 10.75 -32.3 -2Q-25.85 -13.95 -12.9 -16.85L5.1 -15.9L13.1 -22.9" fill="rgb(0,107,36)" fill-opacity="1"></path></g></g></g></g></svg>