<svg width="34" height="48" viewBox="-17 -24 34 48"><g><defs></defs></g><rect x="-17" y="-24" width="34" height="48" fill="#006600"></rect><g id="0"><defs></defs><g><g type="shape" id="0:1:370"><defs></defs><g transform="matrix(1,0,0,1,0,0)"><path d="M-17,-16.05L-17 -17.05Q-12.6 -21.15 -6.9 -23.85L-6 -24.05L5 -24.05L6 -24.05Q13.2 -22.75 15.8 -16.95L16 -16.05L16 -5.05L16 -4.05L15.8 -3.1Q13.65 2.1 9 4.95Q13.45 7 16.75 10.2L17 10.95L17 17.95L17 18.95Q15.65 23.1 10.05 23.65Q-8.05 25.45 -17 18.95L-17 17.95L-17 5.95Q-16.25 1.7 -13.9 -0.95Q-12.95 -2 -12.7 -2.7Q-12.25 -4 -17 -7.05L-17 -8.05L-17 -16.05M7,17.95Q15.25 17.2 9.75 12.2L9 11.95L8.95 11.45L-4 10.95L-4 11.95Q-6.65 12.6 -4.95 11.35Q6.45 2.9 12 -11.05L11.85 -12Q10.1 -17.15 5 -19.05L4 -19.05Q-8 -19.55 -13 -13.05Q-8.95 -6.4 0.8 -11.6Q4.5 -13.55 5 -10.05Q-4.45 -1.5 -12.45 8.6Q-13.7 10.25 -13 13.95Q-12.3 19.25 -5 18.05L-4 17.95L6 17.95L7 17.95" fill="rgb(7,7,7)" fill-opacity="1"></path><path d="M8,11.95L9 11.95L9.75 12.2Q15.25 17.2 7 17.95L6.95 17.45L-4 16.95L-4 17.95L-5 18.05Q-12.3 19.25 -13 13.95Q-13.7 10.25 -12.45 8.6Q-4.45 -1.5 5 -10.05Q4.5 -13.55 0.8 -11.6Q-8.95 -6.4 -13 -13.05Q-8 -19.55 4 -19.05L5 -19.05Q10.1 -17.15 11.85 -12L12 -11.05Q6.45 2.9 -4.95 11.35Q-6.65 12.6 -4 11.95L8 11.95" fill="rgb(244,244,244)" fill-opacity="1"></path><path d="M6,17.95L-4 17.95L-4 16.95L6.95 17.45L7 17.95L6 17.95" fill="rgb(191,191,191)" fill-opacity="1"></path><path d="M9,11.95L8 11.95L-4 11.95L-4 10.95L8.95 11.45L9 11.95" fill="rgb(157,157,157)" fill-opacity="1"></path></g></g></g></g></svg>