<svg width="34" height="48" viewBox="-17 -24 34 48"><g><defs></defs></g><rect x="-17" y="-24" width="34" height="48" fill="#006600"></rect><g id="0"><defs></defs><g><g type="shape" id="0:1:372"><defs></defs><g transform="matrix(1,0,0,1,0,0)"><path d="M3.2,-12.2Q6.55 -4.85 -6 -4.1Q-6 -2.6 -5.5 -2.4Q2.25 0.65 5 7.9Q5.65 10.05 4.95 10.8Q3.2 12.6 0.65 11.45Q-7.5 7.85 -13 9.9L-12.85 10.85Q-10.05 19.45 2 18.9L2.9 18.7Q8.55 15.95 12 10.9L12.05 9.9Q12.4 2.5 9 -1.1L8.5 -1.1Q11.6 -4.5 10 -13.1L9.75 -13.85Q0.55 -23.65 -11 -15.1L-10.8 -14.2Q-8.05 -8.5 3 -13.1L3.2 -12.2M4,-24.1Q13.35 -22.95 15.85 -15.05L16 -14.1L16 -6.1L16 -5.1L16.05 -4.1Q17.25 4.15 17 13.9Q16.5 13.9 16.35 14.1Q12.7 20.1 7 23.9L6 23.95Q-3.1 24.5 -10 22.9L-10.75 22.65L-17 15.9L-17 14.9L-17 6.9L-17 5.9Q-6.9 0.5 -15.75 -8.35L-16 -9.1L-16 -10.1L-16 -17.1L-16 -18.1Q-12.2 -21.8 -6.95 -23.95L-6 -24.1L3 -24.1L4 -24.1" fill="rgb(10,10,10)" fill-opacity="1"></path><path d="M3,-13.1Q-8.05 -8.5 -10.8 -14.2L-11 -15.1Q0.55 -23.65 9.75 -13.85L10 -13.1Q11.6 -4.5 8.5 -1.1L9 -1.1Q12.4 2.5 12.05 9.9L12 10.9Q8.55 15.95 2.9 18.7L2 18.9Q-10.05 19.45 -12.85 10.85L-13 9.9Q-7.5 7.85 0.65 11.45Q3.2 12.6 4.95 10.8Q5.65 10.05 5 7.9Q2.25 0.65 -5.5 -2.4Q-6 -2.6 -6 -4.1Q6.55 -4.85 3.2 -12.2L3 -13.1" fill="rgb(247,247,247)" fill-opacity="1"></path></g></g></g></g></svg>