<svg width="38" height="48" viewBox="-19 -24 38 48"><g><defs></defs></g><rect x="-19" y="-24" width="38" height="48" fill="#006600"></rect><g id="0"><defs></defs><g><g type="shape" id="0:1:366"><defs></defs><g transform="matrix(1,0,0,1,0,0)"><path d="M14,3.55L13.95 4.55Q13.25 10.3 11 14.55Q10.5 14.55 10.35 14.75Q6.95 20.5 -3 19.55L-3.95 19.4Q-13.25 16.3 -14 4.55L-14 3.55L-14 -6.45L-14 -7.45L-14 -8.45Q-11.6 -14.55 -6.2 -17.8Q-6 -17.95 -6 -18.45Q-0.05 -20.5 5.05 -18.6L6 -18.45Q11.9 -14.85 13.9 -7.4L14 -6.45L14 2.55L14 3.55M7.5,5.45Q8.75 -1.7 7 -6.45L6.75 -7.3Q-1.2 -19.35 -8 -5.45Q-9.4 6.95 -3.75 12.3L-3 12.55Q5.2 15.15 6.9 6.55L7 5.55L7.5 5.45" fill="rgb(248,248,248)" fill-opacity="1"></path><path d="M7,4.55L7 5.55L6.9 6.55Q5.2 15.15 -3 12.55L-3.75 12.3Q-9.4 6.95 -8 -5.45Q-1.2 -19.35 6.75 -7.3L7 -6.45L7 4.55M0.25,4.35Q4.25 -10.4 -3 -3.45Q-3 -0.95 -2.65 1.5Q-1.35 10.25 0.25 4.35" fill="rgb(12,12,12)" fill-opacity="1"></path><path d="M8,-24.45Q15.6 -19.55 18.85 -10.4L19 -9.45L19 5.55L19 6.55L18.9 7.55Q16.85 19.4 8 24.55L7 24.55L-8 24.55Q-8 24.05 -8.15 24Q-18.1 20.2 -19 7.55L-19 6.55L-19 -9.45L-19 -10.45L-19 -11.45Q-16 -18.95 -9.2 -22.85L-9 -23.45Q-2 -24.95 7 -24.45L8 -24.45M-15,-6.45Q-15 -0.95 -14.5 4.5L-14 4.55Q-13.25 16.3 -3.95 19.4L-3 19.55Q6.95 20.5 10.35 14.75Q10.5 14.55 11 14.55Q13.25 10.3 13.95 4.55L14 3.55L14.5 3.45Q15.75 -2.7 14 -6.45L13.9 -7.4Q11.9 -14.85 6 -18.45L5.05 -18.6Q-0.05 -20.5 -6 -18.45Q-6 -17.95 -6.2 -17.8Q-11.6 -14.55 -14 -8.45L-14 -7.45L-14 -6.45L-15 -6.45" fill="rgb(8,8,8)" fill-opacity="1"></path><path d="M14,2.55L14 -6.45Q15.75 -2.7 14.5 3.45L14 3.55L14 2.55" fill="rgb(105,105,105)" fill-opacity="1"></path><path d="M7,-6.45Q8.75 -1.7 7.5 5.45L7 5.55L7 4.55L7 -6.45" fill="rgb(102,102,102)" fill-opacity="1"></path><path d="M-2.65,1.5Q-3 -0.95 -3 -3.45Q4.25 -10.4 0.25 4.35Q-1.35 10.25 -2.65 1.5" fill="rgb(232,232,232)" fill-opacity="1"></path><path d="M-14,4.55L-14.5 4.5Q-15 -0.95 -15 -6.45L-14 -6.45L-14 3.55L-14 4.55" fill="rgb(154,154,154)" fill-opacity="1"></path></g></g></g></g></svg>