<svg width="34" height="48" viewBox="-17 -24 34 48"><g><defs></defs></g><rect x="-17" y="-24" width="34" height="48" fill="#006600"></rect><g id="0"><defs></defs><g><g type="shape" id="0:1:378"><defs></defs><g transform="matrix(1,0,0,1,0,0)"><path d="M8.5,-10.85Q14.15 -7 17.3 -0.75L17.5 0.15L17.5 12.15L17.5 13.15L17.35 14.1Q14.3 21.45 6.5 24.15L5.5 24.15L-7.5 24.15L-8.45 24Q-16.2 21.35 -17.5 12.15L-17.5 11.15L-17.5 -3.85L-17.5 -4.85L-17.5 -5.85Q-12.15 -20.5 3.7 -23.85Q9.15 -25 10.5 -20.85L10.5 -13.85L10.5 -12.85L10.25 -12.1L8.5 -10.85M-13.5,0.15Q-13.5 4.65 -13 9.1L-12.5 9.15Q-11.95 17.1 -5.45 19L-4.5 19.15Q-1.7 20.9 3.4 19.7L3.5 19.15L4.45 19Q13.7 16.35 12.5 3.15L12.35 2.2Q10 -6.35 -1.5 -5.85L-2 -5.85Q2.7 -10.65 4.5 -18.85L4.5 -19.35Q-7.85 -15.2 -12.5 -2.85L-12.5 -0.85L-12.5 0.15L-13.5 0.15" fill="rgb(7,7,7)" fill-opacity="1"></path><path d="M-4.5,19.15L-5.45 19Q-11.95 17.1 -12.5 9.15L-12.5 8.15L-12.5 0.15L-12.5 -0.85L-12.5 -2.85Q-7.85 -15.2 4.5 -19.35L4.5 -18.85Q2.7 -10.65 -2 -5.85L-1.5 -5.85Q10 -6.35 12.35 2.2L12.5 3.15Q13.7 16.35 4.45 19L3.5 19.15L2.5 19.15L-4.5 19.15M-6.55,3.15Q-7.55 10.7 -3.5 13.15L-2.55 13.3Q6.1 15.75 6.5 5.15L6.25 4.35Q2 -1.1 -6.5 2.15L-6.55 3.15" fill="rgb(247,247,247)" fill-opacity="1"></path><path d="M-12.5,9.15L-13 9.1Q-13.5 4.65 -13.5 0.15L-12.5 0.15L-12.5 8.15L-12.5 9.15" fill="rgb(162,162,162)" fill-opacity="1"></path><path d="M-6.5,2.15Q2 -1.1 6.25 4.35L6.5 5.15Q6.1 15.75 -2.55 13.3L-3.5 13.15Q-7.55 10.7 -6.55 3.15L-6.5 2.15" fill="rgb(17,17,17)" fill-opacity="1"></path><path d="M2.5,19.15L3.5 19.15L3.4 19.7Q-1.7 20.9 -4.5 19.15L2.5 19.15" fill="rgb(155,155,155)" fill-opacity="1"></path></g></g></g></g></svg>