<svg width="122" height="165" viewBox="-22 -134 122 165"><g><defs></defs></g><rect x="-22" y="-134" width="122" height="165" fill="#006600"></rect><g id="0"><defs></defs><g><g type="shape" id="0:2:189"><defs></defs><g transform="matrix(1,0,0,1,0,0)"><path d="M35.9,-112.7L34.45 -111.5Q39.75 -97.7 36.8 -83Q35.25 -75.4 35.65 -67.75Q36.1 -59.25 37.8 -51Q38.5 -47.45 37.65 -43.85L36.85 -41.05L29.85 -38.8L28.05 -39.65L25.45 -39.1L23.6 -39.95L18.45 -39L16.45 -91.3L31.7 -91.3L31.7 -122.35L36.65 -125.45L39.65 -123.3Q40.65 -116.95 35.9 -112.7M31.65,-1.4L33.25 0.6L38.2 1.55Q56.8 -4.1 76.35 -2L83.2 -5.3L87.5 -4.25L88.6 -1.7L92.6 1.25L94.65 -0.9L99 0.05Q100.8 3.05 99.15 6.2Q92.55 18.75 83.2 29.95L-21.95 31.1L-22.3 28.8L-0.6 -2.85L5.55 2.05L7.4 1.7L8.25 0.7Q11.8 -3.05 16.15 -0.2L26.2 -3.35L27.45 -1.9L31.65 -1.4" fill="rgb(0,104,0)" fill-opacity="1"></path><path d="M51.85,-128.45L40.8 -127.6L31.8 -116.6L31.8 -122.6L43.8 -133.6Q52.8 -135.6 59.5 -129.75Q62.85 -126.8 63.8 -122.6L62.8 -122.6L51.85 -128.45" fill="rgb(3,12,3)" fill-opacity="1"></path><path d="M31.8,-116.6L40.8 -127.6L42.8 -123.6Q38.25 -123.6 35.05 -120.05Q31.9 -116.65 31.8 -111.9L31.8 -116.6M40.8,-91.6L42.75 -87.6Q38.25 -87.6 35.05 -84.05Q31.9 -80.65 31.8 -75.9L31.8 -80.6L40.8 -91.6M40.8,-100.6L42.8 -96.6Q38.25 -96.6 35.05 -93.05Q31.9 -89.65 31.8 -84.9L31.8 -89.6L40.8 -100.6M31.8,-58.9L31.8 -63.6L40.8 -74.6L42.8 -70.6Q38.25 -70.6 35.05 -67.05Q31.9 -63.65 31.8 -58.9M31.8,-50.6L31.8 -54.6L40.8 -65.6L42.8 -61.6Q38.65 -61.6 35.75 -58.35Q32.8 -55.15 32.8 -50.6L31.8 -50.6" fill="rgb(43,43,44)" fill-opacity="1"></path><path d="M51.8,-124.6Q59.85 -122.15 63.6 -115.5L63.8 -114.6L63.55 -113.85L62.8 -113.6L51.75 -119.45L40.8 -118.6L31.8 -107.6L31.8 -111.9Q31.9 -116.65 35.05 -120.05Q38.25 -123.6 42.8 -123.6L51.8 -124.6" fill="rgb(8,8,8)" fill-opacity="1"></path><path d="M51.85,-128.45L51.8 -124.6L42.8 -123.6L40.8 -127.6L51.85 -128.45M51.8,-106.6L42.75 -105.6L40.8 -109.6L52.4 -110.5Q50.9 -109.9 51.8 -106.6M51.8,-97.6L42.8 -96.6L40.8 -100.6L51.8 -101.45L51.8 -97.6M40.8,-91.6L52.4 -92.5Q50.9 -91.9 51.8 -88.6L42.75 -87.6L40.8 -91.6" fill="rgb(77,76,78)" fill-opacity="1"></path><path d="M41.8,-114.6L33.8 -106.6L33.3 -106.6Q33.5 -103.9 31.8 -103.6L31.8 -107.6L40.8 -118.6L41.8 -114.6" fill="rgb(44,44,45)" fill-opacity="1"></path><path d="M51.8,-115.6L41.8 -114.6L40.8 -118.6L51.75 -119.45L51.8 -115.6M51.8,-57.45L51.8 -53.6L42.8 -52.6L40.8 -56.6L51.8 -57.45M40.8,-44.6L40.8 -47.6L52.5 -48.5Q50.9 -47.8 51.8 -44.6L40.8 -44.6" fill="rgb(77,76,79)" fill-opacity="1"></path><path d="M51.8,-115.6Q59.95 -113.75 63.6 -107.45L63.8 -106.6L62.8 -104.6L52.4 -110.5L40.8 -109.6L34.8 -104.6Q34.3 -104.6 34.2 -104.8Q33.8 -105.6 33.8 -106.6L41.8 -114.6L51.8 -115.6" fill="rgb(6,6,6)" fill-opacity="1"></path><path d="M34.8,-104.6L40.8 -109.6L42.75 -105.6Q38.25 -105.6 35.05 -102.05Q31.9 -98.65 31.8 -93.9L31.8 -98.6L34.8 -104.6" fill="rgb(43,42,44)" fill-opacity="1"></path><path d="M31.8,-63.6L31.8 -67.95Q31.85 -70.7 32.95 -73L31.8 -71.6L31.8 -75.9Q31.9 -80.65 35.05 -84.05Q38.25 -87.6 42.75 -87.6L51.8 -88.6Q59.85 -86.15 63.6 -79.5L63.8 -78.6L63.55 -77.85L62.8 -77.6L52.15 -83.45L40.8 -82.6L36.75 -77.6Q39.35 -79.55 42.6 -79.6L42.65 -79.6L51.8 -80.6L62.8 -73.6L63.8 -70.6L63.55 -69.85L62.8 -69.6L53.8 -75.6L51.8 -75.45L40.8 -74.6L31.8 -63.6M31.8,-80.6L31.8 -84.9Q31.9 -89.65 35.05 -93.05Q38.25 -96.6 42.8 -96.6L51.8 -97.6Q59.85 -95.15 63.6 -88.5L63.8 -87.6L63.55 -86.85L62.8 -86.6L52.4 -92.5L40.8 -91.6L31.8 -80.6M31.8,-89.6L31.8 -93.9Q31.9 -98.65 35.05 -102.05Q38.25 -105.6 42.75 -105.6L51.8 -106.6Q59.85 -104.15 63.6 -97.5L63.8 -96.6L63.55 -95.85L62.8 -95.6L53.8 -101.6L51.8 -101.45L40.8 -100.6L31.8 -89.6" fill="rgb(8,7,8)" fill-opacity="1"></path><path d="M31.8,-98.6L31.8 -103.6Q33.5 -103.9 33.3 -106.6L33.8 -106.6Q33.8 -105.6 34.2 -104.8Q34.3 -104.6 34.8 -104.6L31.8 -98.6" fill="rgb(11,11,11)" fill-opacity="1"></path><path d="M32.95,-73Q31.85 -70.7 31.8 -67.95L31.8 -71.6L32.95 -73M36.75,-77.6L40.8 -82.6Q40.1 -79.9 41.8 -79.65L42.6 -79.6Q39.35 -79.55 36.75 -77.6M33.8,-44.6L33.8 -49.6L40.8 -56.6L42.8 -52.6L33.8 -44.6" fill="rgb(42,41,43)" fill-opacity="1"></path><path d="M52.15,-83.45Q51.05 -83 51.8 -80.6L42.65 -79.6L42.6 -79.6L41.8 -79.65Q40.1 -79.9 40.8 -82.6L52.15 -83.45" fill="rgb(75,75,77)" fill-opacity="1"></path><path d="M35.05,-67.05Q38.25 -70.6 42.8 -70.6L51.8 -71.6Q59.85 -69.15 63.6 -62.5L63.8 -61.6L63.55 -60.85L62.8 -60.6L53.8 -66.6L51.9 -66.45L40.8 -65.6L31.8 -54.6L31.8 -58.9Q31.9 -63.65 35.05 -67.05" fill="rgb(7,7,8)" fill-opacity="1"></path><path d="M51.8,-71.6L42.8 -70.6L40.8 -74.6L51.8 -75.45L51.8 -71.6" fill="rgb(76,76,78)" fill-opacity="1"></path><path d="M62.8,-122.6L65.8 -116.6L65.8 -111.6L65.3 -111.6Q65.5 -114.3 63.8 -114.6L63.6 -115.5Q59.85 -122.15 51.8 -124.6L51.85 -128.45L62.8 -122.6" fill="rgb(111,111,115)" fill-opacity="1"></path><path d="M65.8,-107.6L65.8 -103.6L65.3 -103.6Q65.5 -106.3 63.8 -106.6L63.6 -107.45Q59.95 -113.75 51.8 -115.6L51.75 -119.45L62.8 -113.6L65.8 -107.6" fill="rgb(115,116,120)" fill-opacity="1"></path><path d="M62.8,-122.6L63.8 -122.6L65.8 -116.6L62.8 -122.6" fill="rgb(18,34,19)" fill-opacity="1"></path><path d="M62.8,-113.6L63.55 -113.85L63.8 -114.6Q65.5 -114.3 65.3 -111.6L65.8 -111.6L65.8 -107.6L62.8 -113.6" fill="rgb(36,38,37)" fill-opacity="1"></path><path d="M62.8,-104.6L63.8 -106.6Q65.5 -106.3 65.3 -103.6L65.8 -103.6L65.8 -98.6L62.8 -104.6" fill="rgb(27,27,28)" fill-opacity="1"></path><path d="M65.8,-98.6L65.8 -93.6L65.3 -93.6Q65.5 -96.3 63.8 -96.6L63.6 -97.5Q59.85 -104.15 51.8 -106.6Q50.9 -109.9 52.4 -110.5L62.8 -104.6L65.8 -98.6M63.8,-87.6L63.6 -88.5Q59.85 -95.15 51.8 -97.6L51.8 -101.45L53.8 -101.6L62.8 -95.6L65.8 -89.6L65.8 -84.6L65.3 -84.6Q65.5 -87.3 63.8 -87.6M62.8,-86.6L65.8 -80.6L65.8 -75.6L65.3 -75.6Q65.5 -78.3 63.8 -78.6L63.6 -79.5Q59.85 -86.15 51.8 -88.6Q50.9 -91.9 52.4 -92.5L62.8 -86.6M63.8,-61.6L63.6 -62.5Q59.85 -69.15 51.8 -71.6L51.8 -75.45L53.8 -75.6L62.8 -69.6L65.8 -63.6L65.8 -58.6L65.3 -58.6Q65.5 -61.3 63.8 -61.6M65.8,-54.6L65.8 -49.6L64.8 -49.6L64.65 -50.55Q61.65 -59.95 51.8 -62.6L51.9 -66.45L53.8 -66.6L62.8 -60.6L65.8 -54.6" fill="rgb(112,112,117)" fill-opacity="1"></path><path d="M62.8,-95.6L63.55 -95.85L63.8 -96.6Q65.5 -96.3 65.3 -93.6L65.8 -93.6L65.8 -89.6L62.8 -95.6M65.3,-84.6L65.8 -84.6L65.8 -80.6L62.8 -86.6L63.55 -86.85L63.8 -87.6Q65.5 -87.3 65.3 -84.6M65.8,-75.6L65.8 -71.6L65.3 -71.6Q65.5 -74.3 63.8 -74.6L62.8 -77.6L63.55 -77.85L63.8 -78.6Q65.5 -78.3 65.3 -75.6L65.8 -75.6M62.8,-69.6L63.55 -69.85L63.8 -70.6Q65.5 -70.3 65.3 -67.6L65.8 -67.6L65.8 -63.6L62.8 -69.6M62.8,-60.6L63.55 -60.85L63.8 -61.6Q65.5 -61.3 65.3 -58.6L65.8 -58.6L65.8 -54.6L62.8 -60.6" fill="rgb(32,32,33)" fill-opacity="1"></path><path d="M62.8,-77.6L63.8 -74.6L63.55 -73.85L62.8 -73.6L51.8 -80.6Q51.05 -83 52.15 -83.45L62.8 -77.6" fill="rgb(112,112,116)" fill-opacity="1"></path><path d="M51.9,-66.45L51.8 -62.6L42.8 -61.6L40.8 -65.6L51.9 -66.45" fill="rgb(76,75,78)" fill-opacity="1"></path><path d="M65.3,-67.6Q65.5 -70.3 63.8 -70.6L62.8 -73.6L63.55 -73.85L63.8 -74.6Q65.5 -74.3 65.3 -71.6L65.8 -71.6L65.8 -67.6L65.3 -67.6" fill="rgb(95,95,99)" fill-opacity="1"></path><path d="M65.8,-43.6L65.8 -44.6L97.8 -43.6L65.8 -43.6M1.8,-43.6L30.8 -44.6L31.8 -44.6L31.8 -43.6L1.8 -43.6" fill="rgb(0,102,0)" fill-opacity="1"></path><path d="M96.8,-37.6L97.5 -38.7L97.75 -39.6Q50.55 -42.35 0.8 -41.6L1.8 -43.6L31.8 -43.6Q32.8 -43.6 33.6 -44L33.8 -44.6L42.8 -52.6L51.8 -53.6L63.8 -44.6L65.8 -43.6L97.8 -43.6L98.8 2.4L-1.2 1.4L-1.2 -40.6Q1.7 -41 1.3 -37.6L1.8 -37.6L2.8 -37.6L48.8 -37.6L96.8 -37.6M2.8,-1.6L95.8 -1.6L95.8 -32.6L2.8 -32.6L2.8 -1.6M60.55,-45.35L59.8 -45.6L52.5 -48.5L40.8 -47.6L37.1 -43.85L40.8 -43.6L50.8 -43.6Q57.45 -40.45 61.3 -44.6L60.8 -44.6L60.55 -45.35" fill="rgb(1,2,0)" fill-opacity="1"></path><path d="M2.8,-37.6L1.8 -37.6L1.8 -40.6L60.2 -39.7L2.8 -37.6M48.8,-37.6L91.3 -39.25L96.8 -37.6L48.8 -37.6" fill="rgb(112,112,112)" fill-opacity="1"></path><path d="M97.75,-39.6L97.5 -38.7L96.8 -37.6L91.3 -39.25L95.8 -39.6L60.2 -39.7L1.8 -40.6L1.8 -37.6L1.3 -37.6Q1.7 -41 -1.2 -40.6L-1 -41.2L0.8 -41.6Q50.55 -42.35 97.75 -39.6" fill="rgb(38,39,38)" fill-opacity="1"></path><path d="M21.8,-27.6L6.8 -28.6L6.8 -14.6Q10.2 -5.35 16.9 -14.8Q20.5 -19.9 22.2 -26.75Q22.3 -27.1 21.8 -27.6M35,-24.1Q33.8 -22.65 33.8 -20.6L27.8 -13.6Q26.15 -13.6 25 -12.1Q23.8 -10.65 23.8 -8.6L21.05 -6.1L28.8 -4.6L39.8 -16.6L43.8 -21.6L47.8 -26.6L47.55 -27.25Q45.45 -32.5 39.05 -27.3Q38.8 -27.1 38.8 -26.6L37.8 -26.6L37.8 -25.6Q36.15 -25.6 35 -24.1M2.8,-32.6L95.8 -32.6L95.8 -1.6L2.8 -1.6L2.8 -32.6M62.8,-21.6Q61.15 -21.6 60 -20.1Q58.8 -18.65 58.8 -16.6L52.8 -9.6L49.8 -7.6Q55.8 -1.75 62.8 -5.6L66.8 -10.6L70.8 -15.6L74.8 -20.6L78.8 -25.6Q80.25 -31.55 69.2 -30.05Q67.1 -29.85 67.8 -27.6L62.8 -21.6M93.8,-17.6Q93.8 -25 90.95 -20.2L90.8 -19.6Q83.55 -12.9 80.4 -5.6L87.8 -4.6Q96.8 -4.1 93.9 -15.65L93.8 -16.35L93.8 -17.6" fill="rgb(254,253,0)" fill-opacity="1"></path><path d="M48.8,-37.6L2.8 -37.6L60.2 -39.7L95.8 -39.6L91.3 -39.25L48.8 -37.6" fill="rgb(117,117,117)" fill-opacity="1"></path><path d="M93.8,-17.6L93.8 -16.35Q93.8 -11.6 92.05 -8.1Q90.3 -4.6 87.8 -4.6L80.4 -5.6Q83.55 -12.9 90.8 -19.6Q93.35 -21.85 93.3 -17.6L93.8 -17.6" fill="rgb(253,17,1)" fill-opacity="1"></path><path d="M93.3,-17.6Q93.35 -21.85 90.8 -19.6L90.95 -20.2Q93.8 -25 93.8 -17.6L93.3 -17.6" fill="rgb(248,107,10)" fill-opacity="1"></path><path d="M92.05,-8.1Q93.8 -11.6 93.8 -16.35L93.9 -15.65Q96.8 -4.1 87.8 -4.6Q90.3 -4.6 92.05 -8.1" fill="rgb(250,85,8)" fill-opacity="1"></path><path d="M51.8,-57.45L40.8 -56.6L33.8 -49.6Q33.3 -49.6 33.05 -49.85Q32.8 -50.1 32.8 -50.6Q32.8 -55.15 35.75 -58.35Q38.65 -61.6 42.8 -61.6L51.8 -62.6Q61.65 -59.95 64.65 -50.55L64.8 -49.6L63.8 -49.6L51.8 -57.45" fill="rgb(7,7,7)" fill-opacity="1"></path><path d="M51.8,-53.6L51.8 -57.45L63.8 -49.6L63.8 -44.6L51.8 -53.6" fill="rgb(115,114,119)" fill-opacity="1"></path><path d="M52.5,-48.5L59.8 -45.6L51.8 -44.6Q50.9 -47.8 52.5 -48.5" fill="rgb(114,114,118)" fill-opacity="1"></path><path d="M51.8,-44.6L51.8 -43.6L50.8 -43.6L40.8 -43.6L40.8 -44.6L51.8 -44.6" fill="rgb(54,54,56)" fill-opacity="1"></path><path d="M51.8,-43.6L60.8 -44.6L61.3 -44.6Q57.45 -40.45 50.8 -43.6L51.8 -43.6" fill="rgb(15,15,15)" fill-opacity="1"></path><path d="M51.8,-44.6L59.8 -45.6L60.55 -45.35L60.8 -44.6L51.8 -43.6L51.8 -44.6" fill="rgb(81,81,84)" fill-opacity="1"></path><path d="M65.8,-43.6L63.8 -44.6L63.8 -49.6L64.8 -49.6L65.8 -49.6L65.8 -44.6L65.8 -43.6" fill="rgb(54,55,56)" fill-opacity="1"></path><path d="M78.6,-26.5Q76.8 -30.6 67.8 -27.6Q67.1 -29.85 69.2 -30.05Q80.25 -31.55 78.8 -25.6L78.6 -26.5" fill="rgb(248,97,9)" fill-opacity="1"></path><path d="M62.8,-21.6L67.8 -27.6Q76.8 -30.6 78.6 -26.5L78.8 -25.6Q77.15 -25.6 76 -24.1Q74.8 -22.65 74.8 -20.6Q73.15 -20.6 72 -19.1Q70.8 -17.65 70.8 -15.6Q69.15 -15.6 68 -14.1Q66.8 -12.65 66.8 -10.6Q65.15 -10.6 64 -9.1Q62.8 -7.65 62.8 -5.6L51.6 -6.8L52.8 -9.6L58.8 -16.6L62.8 -21.6" fill="rgb(254,5,0)" fill-opacity="1"></path><path d="M58.8,-16.6Q58.8 -18.65 60 -20.1Q61.15 -21.6 62.8 -21.6L58.8 -16.6" fill="rgb(247,110,10)" fill-opacity="1"></path><path d="M78.8,-25.6L74.8 -20.6Q74.8 -22.65 76 -24.1Q77.15 -25.6 78.8 -25.6" fill="rgb(247,98,9)" fill-opacity="1"></path><path d="M74.8,-20.6L70.8 -15.6Q70.8 -17.65 72 -19.1Q73.15 -20.6 74.8 -20.6" fill="rgb(247,100,9)" fill-opacity="1"></path><path d="M70.8,-15.6L66.8 -10.6Q66.8 -12.65 68 -14.1Q69.15 -15.6 70.8 -15.6" fill="rgb(246,100,9)" fill-opacity="1"></path><path d="M66.8,-10.6L62.8 -5.6Q62.8 -7.65 64 -9.1Q65.15 -10.6 66.8 -10.6" fill="rgb(247,102,9)" fill-opacity="1"></path><path d="M51.6,-6.8L62.8 -5.6Q55.8 -1.75 49.8 -7.6L52.8 -9.6L51.6 -6.8" fill="rgb(249,89,8)" fill-opacity="1"></path><path d="M31.8,-44.6L30.8 -44.6L31.8 -63.6L31.8 -58.9L31.8 -54.6L31.8 -50.6L31.8 -44.6" fill="rgb(6,130,5)" fill-opacity="1"></path><path d="M31.8,-50.6L32.8 -50.6Q32.8 -50.1 33.05 -49.85Q33.3 -49.6 33.8 -49.6L33.8 -44.6L33.6 -44Q32.8 -43.6 31.8 -43.6L31.8 -44.6L31.8 -50.6" fill="rgb(23,24,24)" fill-opacity="1"></path><path d="M40.8,-44.6L40.8 -43.6L37.1 -43.85L40.8 -47.6L40.8 -44.6" fill="rgb(36,35,36)" fill-opacity="1"></path><path d="M22.2,-26.75Q20.5 -19.9 16.9 -14.8Q10.2 -5.35 6.8 -14.6L6.8 -28.6L21.8 -27.6Q22.3 -27.1 22.2 -26.75" fill="rgb(254,13,0)" fill-opacity="1"></path><path d="M33.8,-20.6Q33.8 -22.65 35 -24.1Q36.15 -25.6 37.8 -25.6L33.8 -20.6" fill="rgb(248,107,11)" fill-opacity="1"></path><path d="M47.55,-27.25L47.8 -26.6Q46.15 -26.6 45 -25.1Q43.8 -23.65 43.8 -21.6Q42.15 -21.6 41 -20.1Q39.8 -18.65 39.8 -16.6L28.8 -4.6L21.05 -6.1L23.8 -8.6L27.8 -13.6L33.8 -20.6L37.8 -25.6L37.8 -26.6L38.8 -26.6Q42.65 -30.25 47.55 -27.25" fill="rgb(253,15,1)" fill-opacity="1"></path><path d="M38.8,-26.6Q38.8 -27.1 39.05 -27.3Q45.45 -32.5 47.55 -27.25Q42.65 -30.25 38.8 -26.6" fill="rgb(250,99,11)" fill-opacity="1"></path><path d="M47.8,-26.6L43.8 -21.6Q43.8 -23.65 45 -25.1Q46.15 -26.6 47.8 -26.6" fill="rgb(250,94,11)" fill-opacity="1"></path><path d="M43.8,-21.6L39.8 -16.6Q39.8 -18.65 41 -20.1Q42.15 -21.6 43.8 -21.6" fill="rgb(249,94,10)" fill-opacity="1"></path><path d="M23.8,-8.6Q23.8 -10.65 25 -12.1Q26.15 -13.6 27.8 -13.6L23.8 -8.6" fill="rgb(246,120,10)" fill-opacity="1"></path></g></g></g></g></svg>