<svg width="125" height="160" viewBox="-30 -132 125 160"><g><defs></defs></g><rect x="-30" y="-132" width="125" height="160" fill="#006600"></rect><g id="0"><defs></defs><g><g type="shape" id="0:1:198"><defs></defs><g transform="matrix(1,0,0,1,0,0)"><path d="M93.05,-54.8L93.05 -49.7L92.1 -48.8Q85 -42.85 79.1 -36Q73.5 -30.45 66.35 -32.6L45.9 -32.6L4.6 -33.15Q4.2 -43.55 4.2 -53.95L4.9 -54.8L93.05 -54.8M-4.8,-86.8L-5.8 -63.8L-1.9 2.2L3.15 1.05L-30.75 28.4L-30.5 -70.5L-4.8 -97.35L-4.8 -86.8" fill="rgb(0,104,0)" fill-opacity="1"></path><path d="M-0.65,-87.25L-0.35 -97.65L-0.55 -81.35L-0.65 -87.25" fill="rgb(121,122,122)" fill-opacity="1"></path><path d="M-0.55,-81.35L-0.35 -97.65L0.2 -128.8L1.4 -97.7L1.4 -96.95L1.75 -85.3L1.95 -79.2L2.6 -50.1L2.7 -44.8Q2.9 -34.85 -0.8 -33.9L-0.65 -75.4L-0.55 -81.35" fill="rgb(62,62,62)" fill-opacity="1"></path><path d="M-4.8,-97.35L-3.8 -132.8L4.2 -131.8L4.2 -86.8L4.2 -74.8Q1.6 -64.7 9.15 -65.3L9.2 -65.8L10.2 -73.8L10.2 -86.8L11.2 -86.8L12.2 -74.8L12.2 -73.8Q9.75 -64.35 17.15 -65.3L17.2 -65.8L17.2 -74.8L18.2 -86.8L19.2 -86.8L19.2 -73.8L20.2 -65.8Q27.05 -62.95 25.3 -73.8L25.2 -74.8L25.2 -86.8L27.2 -86.8L27.2 -74.8L28.2 -64.8Q34.4 -65.1 32.3 -73.85L32.2 -74.8L32.2 -86.8L34.2 -86.8L34.2 -74.8L35.2 -64.8Q41.3 -64.7 39.3 -72.85L39.2 -73.8L40.2 -86.8L41.2 -86.8L41.2 -78.8L42.2 -65.8L45.9 -65.45L46.15 -67.25L46.25 -67.95L47.2 -74.8L47.2 -86.8L49.2 -86.8L49.2 -74.8L49.2 -65.8Q57.1 -62.4 55.3 -73.8L55.2 -74.8L55.2 -86.8L57.9 -86.8L57.9 -74.8L57.9 -65.8L62.55 -65.3L63.9 -74.8L63.9 -86.8L65.9 -86.8L65.9 -74.8L65.9 -65.8L69.75 -65.5L70.9 -74.8L70.9 -85.8L70.9 -86.8L72.9 -86.8L72.9 -85.8L72.9 -74.8L73.55 -66.4L76.35 -66L76.9 -65.8L77.9 -65.8L78.9 -73.8L78.9 -86.8L79.9 -86.8L80.9 -74.8Q77.95 -66.1 85.9 -65.4L85.9 -65.8L86.9 -74.8L86.9 -86.8L88.9 -86.8L88.9 -74.8L89.9 -65.8L93.05 -65L93.05 -54.8L4.9 -54.8L4.2 -54.8L4.2 -53.95Q4.2 -43.55 4.6 -33.15Q5.05 -21.05 6.05 -8.95Q6.65 -1.4 3.15 1.05L-1.9 2.2L-5.8 -63.8L-4.8 -86.8L-4.8 -97.35M-0.65,-87.25L-0.65 -75.4L-0.8 -33.9Q2.9 -34.85 2.7 -44.8L2.6 -50.1L1.95 -79.2L1.75 -85.3L1.4 -96.95L1.4 -97.7L0.2 -128.8L-0.35 -97.65L-0.65 -87.25M1.2,-28.8L-1.8 -29.8L-1.8 0.2L1.2 0.2L1.2 -28.8" fill="rgb(1,2,1)" fill-opacity="1"></path><path d="M72.9,-86.8L76.9 -86.8L76.9 -82.8L73.9 -82.8L72.9 -85.8L72.9 -86.8" fill="rgb(128,130,134)" fill-opacity="1"></path><path d="M78.9,-73.8L77.9 -73.8L77.9 -74.8L77.9 -86.8L78.9 -86.8L78.9 -73.8M28.2,-65.8L28.2 -64.8L27.2 -74.8L28.2 -74.8L28.2 -66.8L28.2 -65.8" fill="rgb(22,22,22)" fill-opacity="1"></path><path d="M76.9,-74.8L76.9 -78.8L76.9 -82.8L76.9 -86.8L77.9 -86.8L77.9 -74.8L76.9 -74.8" fill="rgb(97,97,101)" fill-opacity="1"></path><path d="M79.9,-86.8L80.9 -86.8L80.9 -74.8L79.9 -86.8M42.2,-65.8L41.2 -78.8L42.2 -78.8L42.2 -73.8L42.2 -65.8" fill="rgb(13,13,13)" fill-opacity="1"></path><path d="M53.2,-79.8L51.2 -79.8L50.2 -79.8L50.2 -86.8L53.2 -86.8L53.2 -79.8M58.9,-79.8L58.9 -86.8L61.9 -86.8L61.9 -79.8L59.9 -79.8L58.9 -79.8" fill="rgb(126,126,131)" fill-opacity="1"></path><path d="M53.2,-86.8L54.2 -86.8L54.2 -74.8L53.2 -74.8L53.2 -79.8L53.2 -86.8M61.9,-86.8L62.9 -86.8L62.9 -74.8L61.9 -74.8L61.9 -79.8L61.9 -86.8" fill="rgb(100,100,104)" fill-opacity="1"></path><path d="M55.2,-74.8L54.2 -74.8L54.2 -86.8L55.2 -86.8L55.2 -74.8M62.9,-86.8L63.9 -86.8L63.9 -74.8L62.9 -74.8L62.9 -86.8" fill="rgb(36,37,38)" fill-opacity="1"></path><path d="M66.9,-79.8L66.9 -86.8L68.9 -86.8L68.85 -81.05L66.9 -79.8" fill="rgb(133,133,138)" fill-opacity="1"></path><path d="M65.9,-86.8L66.9 -86.8L66.9 -79.8L66.9 -74.8L65.9 -74.8L65.9 -86.8" fill="rgb(69,69,72)" fill-opacity="1"></path><path d="M68.85,-81.05L68.9 -86.8L70.9 -86.8L70.9 -85.8L69.9 -74.8L66.9 -74.8L66.9 -79.8L68.85 -81.05" fill="rgb(110,109,113)" fill-opacity="1"></path><path d="M69.9,-74.8L70.9 -85.8L70.9 -74.8L69.9 -74.8M28.2,-66.8Q31.4 -67.1 30.7 -71.8L31.2 -71.8L31.3 -70.85Q32.65 -65.35 28.2 -65.8L28.2 -66.8" fill="rgb(52,51,53)" fill-opacity="1"></path><path d="M59.9,-79.8L61.9 -79.8L61.9 -74.8L59.9 -79.8M53.2,-79.8L53.2 -74.8L51.2 -79.8L53.2 -79.8" fill="rgb(111,110,115)" fill-opacity="1"></path><path d="M62.55,-65.3L57.9 -65.8L58.9 -65.8L62.7 -67.25L62.9 -74.8L63.9 -74.8L62.55 -65.3M54.2,-74.8L55.2 -74.8L55.3 -73.8Q57.1 -62.4 49.2 -65.8L50.2 -65.8Q56.3 -65.7 54.3 -73.85L54.2 -74.8" fill="rgb(20,20,21)" fill-opacity="1"></path><path d="M62.7,-67.25L58.9 -65.8L58.9 -73.8L61.9 -74.8L62.9 -74.8L62.7 -67.25M54.3,-73.85Q56.3 -65.7 50.2 -65.8L50.2 -73.8L53.2 -74.8L54.2 -74.8L54.3 -73.85M9.2,-73.8L9.2 -65.8L8.2 -65.85Q3.4 -66.5 5.2 -73.8L8.2 -74.8L9.2 -74.8L9.2 -73.8" fill="rgb(53,53,55)" fill-opacity="1"></path><path d="M58.9,-74.8L58.9 -79.8L59.9 -79.8L61.9 -74.8L58.9 -73.8L58.9 -74.8M51.2,-79.8L53.2 -74.8L50.2 -73.8L50.2 -74.8L50.2 -79.8L51.2 -79.8" fill="rgb(89,87,90)" fill-opacity="1"></path><path d="M66.9,-74.8L69.9 -74.8L69.9 -73.8L66.9 -66.8L66.9 -74.8" fill="rgb(62,62,64)" fill-opacity="1"></path><path d="M66.9,-66.8L66.9 -65.8L65.9 -65.8L65.9 -74.8L66.9 -74.8L66.9 -66.8" fill="rgb(33,33,34)" fill-opacity="1"></path><path d="M69.75,-65.5L65.9 -65.8L66.9 -65.8L69.65 -67L69.9 -73.8L69.9 -74.8L70.9 -74.8L69.75 -65.5" fill="rgb(26,26,26)" fill-opacity="1"></path><path d="M76.9,-78.8Q73.7 -79.6 74.75 -75.75L74.9 -74.8L73.9 -74.8L73.9 -82.8L76.9 -82.8L76.9 -78.8" fill="rgb(122,120,126)" fill-opacity="1"></path><path d="M72.9,-85.8L73.9 -82.8L73.9 -74.8L72.9 -74.8L72.9 -85.8" fill="rgb(55,54,57)" fill-opacity="1"></path><path d="M74.9,-74.8L74.75 -75.75Q73.7 -79.6 76.9 -78.8L76.9 -74.8L74.9 -74.8" fill="rgb(107,105,110)" fill-opacity="1"></path><path d="M76.35,-66Q72.15 -69.1 73.9 -74.8L74.9 -74.8L76.9 -74.8L77.9 -74.8L77.9 -73.8L76.9 -65.8L76.35 -66" fill="rgb(59,58,60)" fill-opacity="1"></path><path d="M76.35,-66L73.55 -66.4L72.9 -74.8L73.9 -74.8Q72.15 -69.1 76.35 -66" fill="rgb(27,27,27)" fill-opacity="1"></path><path d="M81.9,-82.8L81.9 -79.8L81.9 -74.8L80.9 -74.8L80.9 -86.8L81.9 -86.8L81.9 -82.8M16.2,-86.8L17.2 -86.8L17.2 -74.8L16.2 -74.8L16.2 -79.8L16.2 -83.8L16.2 -86.8" fill="rgb(77,77,80)" fill-opacity="1"></path><path d="M27.2,-86.8L28.2 -86.8L28.2 -82.8L28.2 -79.8L28.2 -74.8L27.2 -74.8L27.2 -86.8M49.2,-86.8L50.2 -86.8L50.2 -79.8L50.2 -74.8L49.2 -74.8L49.2 -86.8M57.9,-86.8L58.9 -86.8L58.9 -79.8L58.9 -74.8L57.9 -74.8L57.9 -86.8" fill="rgb(47,46,48)" fill-opacity="1"></path><path d="M46.2,-82.8Q42.6 -82.35 43.05 -85.8L43.2 -86.8L46.2 -86.8L46.2 -82.8" fill="rgb(131,133,136)" fill-opacity="1"></path><path d="M41.2,-86.8L42.2 -86.8L42.2 -79.8L42.2 -78.8L41.2 -78.8L41.2 -86.8" fill="rgb(24,24,24)" fill-opacity="1"></path><path d="M42.2,-86.8L43.2 -86.8L43.05 -85.8Q42.6 -82.35 46.2 -82.8L46.2 -79.8L43.2 -79.8L42.2 -79.8L42.2 -86.8" fill="rgb(118,118,124)" fill-opacity="1"></path><path d="M46.2,-86.8L47.2 -86.8L47.2 -74.8L46.2 -74.8L46.2 -79.8L46.2 -82.8L46.2 -86.8" fill="rgb(58,58,60)" fill-opacity="1"></path><path d="M43.45,-75.6L46.2 -74.8L46.2 -73.8L42.2 -73.8L42.2 -78.8L42.2 -79.8L43.2 -79.8L43.45 -75.6" fill="rgb(84,82,85)" fill-opacity="1"></path><path d="M46.2,-74.8L43.45 -75.6L43.2 -79.8L46.2 -79.8L46.2 -74.8" fill="rgb(110,109,114)" fill-opacity="1"></path><path d="M58.9,-73.8L58.9 -65.8L57.9 -65.8L57.9 -74.8L58.9 -74.8L58.9 -73.8M50.2,-65.8L49.2 -65.8L49.2 -74.8L50.2 -74.8L50.2 -73.8L50.2 -65.8" fill="rgb(23,23,24)" fill-opacity="1"></path><path d="M46.25,-67.95L46.2 -73.8L46.2 -74.8L47.2 -74.8L46.25 -67.95M46.15,-67.25L45.9 -65.45L42.2 -65.8L46.15 -67.25" fill="rgb(29,29,29)" fill-opacity="1"></path><path d="M46.25,-67.95L46.15 -67.25L42.2 -65.8L42.2 -73.8L46.2 -73.8L46.25 -67.95" fill="rgb(54,54,56)" fill-opacity="1"></path><path d="M77.9,-65.8L77.9 -73.8L78.9 -73.8L77.9 -65.8" fill="rgb(11,11,11)" fill-opacity="1"></path><path d="M76.9,-65.8L77.9 -73.8L77.9 -65.8L76.9 -65.8" fill="rgb(46,46,48)" fill-opacity="1"></path><path d="M85.9,-65.8L85.9 -65.4Q77.95 -66.1 80.9 -74.8L81.9 -74.8L85.9 -65.8M39.2,-73.8L39.3 -72.85Q41.3 -64.7 35.2 -64.8L35.2 -65.8Q40 -66.5 38.3 -73.85L38.2 -74.8L39.2 -74.8L39.2 -73.8" fill="rgb(36,36,37)" fill-opacity="1"></path><path d="M69.9,-73.8L69.65 -67L66.9 -65.8L66.9 -66.8L69.9 -73.8" fill="rgb(52,52,53)" fill-opacity="1"></path><path d="M38.2,-82.8L35.2 -82.8L35.2 -86.8L38.2 -86.8L38.2 -82.8" fill="rgb(126,128,132)" fill-opacity="1"></path><path d="M38.2,-86.8L39.2 -86.8L39.2 -74.8L38.2 -74.8L38.2 -78.8L38.2 -82.8L38.2 -86.8" fill="rgb(80,80,83)" fill-opacity="1"></path><path d="M39.2,-73.8L39.2 -74.8L39.2 -86.8L40.2 -86.8L39.2 -73.8M85.9,-65.8L85.9 -74.8L86.9 -74.8L85.9 -65.8" fill="rgb(15,15,15)" fill-opacity="1"></path><path d="M31.2,-86.8L32.2 -86.8L32.2 -74.8L31.2 -74.8L31.2 -79.8L31.2 -82.8L31.2 -86.8" fill="rgb(68,68,70)" fill-opacity="1"></path><path d="M34.2,-86.8L35.2 -86.8L35.2 -82.8L35.2 -79.8L35.2 -74.8L34.2 -74.8L34.2 -86.8" fill="rgb(35,35,36)" fill-opacity="1"></path><path d="M31.2,-82.8L28.2 -82.8L28.2 -86.8L31.2 -86.8L31.2 -82.8" fill="rgb(129,131,134)" fill-opacity="1"></path><path d="M24.2,-82.8L24.2 -86.8L25.2 -86.8L25.2 -74.8L24.2 -74.8L24.2 -82.8" fill="rgb(54,53,56)" fill-opacity="1"></path><path d="M20.2,-82.8L20.2 -86.8L24.2 -86.8L24.2 -82.8L23.2 -82.8L23.05 -83.1Q21.25 -84.7 21.2 -82.8L20.2 -82.8" fill="rgb(119,121,124)" fill-opacity="1"></path><path d="M31.2,-82.8L31.2 -79.8L28.2 -79.8L28.2 -82.8L31.2 -82.8" fill="rgb(125,123,130)" fill-opacity="1"></path><path d="M23.3,-81.8Q23.85 -79.15 21.2 -79.8L21.2 -82.8Q21.25 -84.7 23.05 -83.1L23.2 -82.8L23.3 -81.8" fill="rgb(133,131,138)" fill-opacity="1"></path><path d="M20.2,-73.8L20.2 -82.8L21.2 -82.8L21.2 -79.8Q20 -75.1 23.2 -74.85L24.2 -74.8L24.2 -73.8L20.2 -73.8" fill="rgb(87,86,90)" fill-opacity="1"></path><path d="M24.2,-74.8L23.2 -74.85Q20 -75.1 21.2 -79.8Q23.85 -79.15 23.3 -81.8L23.2 -82.8L24.2 -82.8L24.2 -74.8" fill="rgb(107,106,111)" fill-opacity="1"></path><path d="M25.3,-73.8Q27.05 -62.95 20.2 -65.8Q26.15 -65.35 24.3 -72.85L24.2 -73.8L24.2 -74.8L25.2 -74.8L25.3 -73.8" fill="rgb(27,27,28)" fill-opacity="1"></path><path d="M28.2,-74.8L28.2 -79.8L31.2 -79.8L31.2 -74.8L28.2 -74.8" fill="rgb(108,106,111)" fill-opacity="1"></path><path d="M30.7,-71.8Q31.4 -67.1 28.2 -66.8L28.2 -74.8L31.2 -74.8L31.2 -71.8L30.7 -71.8" fill="rgb(61,60,62)" fill-opacity="1"></path><path d="M38.2,-82.8L38.2 -78.8L35.2 -79.8L35.2 -82.8L38.2 -82.8" fill="rgb(120,118,125)" fill-opacity="1"></path><path d="M35.2,-74.8L35.2 -79.8L38.2 -78.8L38.2 -74.8L35.2 -74.8" fill="rgb(104,103,108)" fill-opacity="1"></path><path d="M34.2,-74.8L35.2 -74.8L35.2 -65.8L35.2 -64.8L34.2 -74.8" fill="rgb(16,16,16)" fill-opacity="1"></path><path d="M32.3,-73.85Q34.4 -65.1 28.2 -64.8L28.2 -65.8Q32.65 -65.35 31.3 -70.85L31.2 -71.8L31.2 -74.8L32.2 -74.8L32.3 -73.85" fill="rgb(32,32,32)" fill-opacity="1"></path><path d="M35.2,-74.8L38.2 -74.8L38.3 -73.85Q40 -66.5 35.2 -65.8L35.2 -74.8M81.9,-74.8L85.9 -74.8L85.9 -65.8L81.9 -74.8" fill="rgb(57,57,58)" fill-opacity="1"></path><path d="M12.2,-74.8L11.2 -86.8L12.2 -86.8L12.2 -74.8" fill="rgb(11,12,12)" fill-opacity="1"></path><path d="M13.2,-73.8L12.2 -73.8L12.2 -74.8L12.2 -86.8L13.2 -86.8L13.2 -83.8L13.2 -79.8L13.2 -73.8" fill="rgb(75,75,78)" fill-opacity="1"></path><path d="M19.2,-86.8L20.2 -86.8L20.2 -82.8L20.2 -73.8L19.2 -73.8L19.2 -86.8" fill="rgb(29,29,31)" fill-opacity="1"></path><path d="M17.2,-74.8L17.2 -86.8L18.2 -86.8L17.2 -74.8" fill="rgb(12,12,12)" fill-opacity="1"></path><path d="M16.2,-83.8L13.2 -83.8L13.2 -86.8L16.2 -86.8L16.2 -83.8" fill="rgb(128,131,133)" fill-opacity="1"></path><path d="M8.2,-86.8L9.2 -86.8L9.2 -74.8L8.2 -74.8L8.2 -79.8L8.2 -86.8" fill="rgb(95,94,98)" fill-opacity="1"></path><path d="M8.2,-79.8L5.2 -82.8L5.2 -86.8L8.2 -86.8L8.2 -79.8" fill="rgb(127,127,132)" fill-opacity="1"></path><path d="M4.2,-86.8L5.2 -86.8L5.2 -82.8L5.2 -74.8L4.2 -74.8L4.2 -86.8" fill="rgb(55,55,57)" fill-opacity="1"></path><path d="M5.2,-74.8L5.2 -82.8L8.2 -79.8L8.2 -74.8L5.2 -73.8L5.2 -74.8" fill="rgb(104,102,107)" fill-opacity="1"></path><path d="M10.2,-73.8L9.2 -73.8L9.2 -74.8L9.2 -86.8L10.2 -86.8L10.2 -73.8" fill="rgb(28,28,29)" fill-opacity="1"></path><path d="M5.2,-73.8Q3.4 -66.5 8.2 -65.85L9.2 -65.8L9.15 -65.3Q1.6 -64.7 4.2 -74.8L5.2 -74.8L5.2 -73.8" fill="rgb(28,28,28)" fill-opacity="1"></path><path d="M13.2,-79.8L13.2 -83.8L16.2 -83.8L16.2 -79.8L13.2 -79.8" fill="rgb(135,133,140)" fill-opacity="1"></path><path d="M13.2,-79.8L16.2 -79.8L16.2 -74.8L16.2 -73.8L13.2 -73.8L13.2 -79.8" fill="rgb(109,107,112)" fill-opacity="1"></path><path d="M16.2,-74.8L17.2 -74.8L17.2 -65.8L16.2 -65.8L16.2 -68.8L16.2 -73.8L16.2 -74.8" fill="rgb(38,38,39)" fill-opacity="1"></path><path d="M15.45,-69.05Q14.55 -69.9 13.2 -66.8L13.2 -73.8L16.2 -73.8L16.2 -68.8Q15.7 -68.8 15.45 -69.05" fill="rgb(59,59,61)" fill-opacity="1"></path><path d="M13.2,-66.8Q14.55 -69.9 15.45 -69.05Q15.7 -68.8 16.2 -68.8L16.2 -65.8L13.2 -66.8" fill="rgb(55,55,56)" fill-opacity="1"></path><path d="M19.2,-73.8L20.2 -73.8L20.2 -65.8L19.2 -73.8M89.9,-65.8L88.9 -74.8L89.9 -74.8L89.9 -73.8L89.9 -65.8" fill="rgb(14,14,15)" fill-opacity="1"></path><path d="M10.2,-73.8L9.2 -65.8L9.2 -73.8L10.2 -73.8" fill="rgb(14,14,14)" fill-opacity="1"></path><path d="M16.2,-65.8L17.2 -65.8L17.15 -65.3Q9.75 -64.35 12.2 -73.8L13.2 -73.8L13.2 -66.8L16.2 -65.8" fill="rgb(34,34,34)" fill-opacity="1"></path><path d="M24.2,-73.8L24.3 -72.85Q26.15 -65.35 20.2 -65.8L20.2 -73.8L24.2 -73.8" fill="rgb(53,53,54)" fill-opacity="1"></path><path d="M1.2,0.2L-1.8 0.2L-1.8 -29.8L1.2 -28.8L1.2 0.2" fill="rgb(46,47,48)" fill-opacity="1"></path><path d="M92.9,-83.8Q89.55 -84.6 90.75 -80.75L90.9 -79.8L89.9 -79.8L89.9 -86.8L93.05 -86.8L93.05 -84.8L92.9 -83.8" fill="rgb(117,118,122)" fill-opacity="1"></path><path d="M85.9,-82.8L81.9 -82.8L81.9 -86.8L85.9 -86.8L85.9 -82.8" fill="rgb(128,130,133)" fill-opacity="1"></path><path d="M86.9,-74.8L85.9 -74.8L85.9 -80.8L85.9 -82.8L85.9 -86.8L86.9 -86.8L86.9 -74.8" fill="rgb(37,38,39)" fill-opacity="1"></path><path d="M88.9,-86.8L89.9 -86.8L89.9 -79.8L89.9 -74.8L88.9 -74.8L88.9 -86.8" fill="rgb(31,31,32)" fill-opacity="1"></path><path d="M90.9,-79.8L90.75 -80.75Q89.55 -84.6 92.9 -83.8L92.9 -79.8L90.9 -79.8" fill="rgb(130,129,137)" fill-opacity="1"></path><path d="M81.9,-79.8L81.9 -82.8L85.9 -82.8L85.9 -80.8L81.9 -79.8" fill="rgb(124,122,129)" fill-opacity="1"></path><path d="M85.9,-80.8L85.9 -74.8L81.9 -74.8L81.9 -79.8L85.9 -80.8" fill="rgb(106,104,110)" fill-opacity="1"></path><path d="M92.9,-79.8L92.9 -74.8L90.9 -79.8L92.9 -79.8" fill="rgb(109,107,113)" fill-opacity="1"></path><path d="M90.9,-79.8L92.9 -74.8L89.9 -73.8L89.9 -74.8L89.9 -79.8L90.9 -79.8" fill="rgb(83,82,85)" fill-opacity="1"></path><path d="M92.9,-83.8L93.05 -84.8L93.05 -74.8L92.9 -74.8L92.9 -79.8L92.9 -83.8" fill="rgb(90,89,93)" fill-opacity="1"></path><path d="M89.9,-65.8L89.9 -73.8L92.9 -74.8L93.05 -74.8L93.05 -65L89.9 -65.8" fill="rgb(49,49,50)" fill-opacity="1"></path><path d="M-0.55,-81.35L-0.65 -75.4L-0.65 -87.25L-0.55 -81.35" fill="rgb(88,96,91)" fill-opacity="1"></path></g></g></g></g></svg>