<svg width="576" height="368" viewBox="-287 -184 576 368"><g><defs></defs></g><rect x="-287" y="-184" width="576" height="368" fill="#006600"></rect><g id="0"><defs></defs><g><g type="shape" id="0:1:44"><defs></defs><g transform="matrix(1,0,0,1,0,0)"><path d="M172.2,161L72.2 161L-106.8 161L-285.8 161L-285.8 -3L-285.8 -182L-106.8 -182L72.2 -182L245.2 -182L245.2 -3L245.2 144Q243.45 72.25 243.8 -2Q244.2 -91.5 244.2 -181L73.2 -181L-105.8 -181L-284.8 -181L-284.8 -2L-284.8 160L-105.8 160Q-16.3 160 73.2 159.55Q123.5 159.3 172.2 160.4L197.2 161L172.2 161" fill="rgb(148,147,164)" fill-opacity="1"></path><path d="M280.45,174.35L280.1 174L280.2 174L280.45 174.35" fill="rgb(177,174,210)" fill-opacity="1"></path><path d="M284.85,180.25Q284.7 180 284.2 180L283.95 179.15L280.45 174.35L280.2 174L281.2 174L282.2 174L284.45 176.75L285.2 177Q287.7 178.9 287.85 181.05Q287.9 182.05 287.4 183.1L286.05 183.7L284.7 184L283.2 184L283.1 183.45L279.2 183L278.2 183L278.05 182.45Q274.95 181.25 271.2 181L270.2 181L270.1 180.45L266.2 180L266.1 179.45L262.2 179L261.2 179L261.05 178.45Q255.95 176.75 250.2 176L250.1 175.45L246.2 175L246.15 174.45L246.1 174.45L245.95 174.45L245.5 174.35L242.2 174L241.2 174L241.1 173.45L237.2 173L236.2 173L236.05 172.45Q230.95 170.75 225.2 170L225.2 169.6L225.1 169.45L224.7 169.35L223 169.1L221.2 169L221.2 168.7L221.15 168.55L221.1 168.45L219.65 168.2L218.4 168.05L217.2 168L216.2 168L216.15 167.55L216.1 167.45L214.8 167.2L212.2 167L211.2 167L211 166.4L210.55 166.2L209.8 166.05L209.2 166L209.2 165.9L209.2 165.75L209.1 165.45L206.05 165.05L205.35 165L205.2 165L204.2 165L204.2 164.75L204.2 164.6L204.1 164.45L202.15 164.1L201.2 164.05L200.3 164L200.2 164L200.2 163.8L200.2 163.65L200.1 163.45L197.6 163.05L196.75 163L196.7 163L196.2 163L172.2 163L70.2 163L-108.8 163L-287.8 163L-287.8 -5L-287.8 -184L-108.8 -184L70.2 -184L247.2 -184Q247.2 -94.5 246.8 -5Q246.45 70.75 248.2 144L248.2 144.95L248.2 145L248.2 146Q247.7 146 247.6 145.8Q246.9 144.3 245.2 144L245.2 -3L245.2 -182L72.2 -182L-106.8 -182L-285.8 -182L-285.8 -3L-285.8 161L-106.8 161L72.2 161L172.2 161L197.2 161L200.3 161.75Q241 171.6 282.2 180.9L283.2 181Q286.9 183.2 284.85 180.25" fill="rgb(0,0,0)" fill-opacity="1"></path><path d="M250.2,147L249.2 147L248.45 146.75Q248.2 146.5 248.2 146L248.2 145L248.2 144.95L248.2 144L250.95 146.25L251.2 147L250.45 147L250.2 147" fill="rgb(15,50,23)" fill-opacity="1"></path><path d="M267.2,161Q268.2 161.5 268.95 162.25L269.2 163Q270.05 165.15 272 166.35L272.2 166.8L272.2 167L271.3 166.8Q267.55 164.65 265.2 161L265.8 161L266.2 161L267.2 161M262.05,157.55Q262.8 158.6 264 159.35L264.05 159.4L264.2 160L263.3 159.8Q259.55 157.65 257.2 154L258.15 154L258.2 154L259.2 154Q260.2 154.5 260.95 155.25L261.2 156L262.05 157.55M256,152.35Q256.2 152.5 256.2 153L255.3 152.8Q251.55 150.65 249.2 147L250.2 147L250.45 147L251.2 147Q252.2 147.5 252.95 148.25L253.2 149L253.65 149.9Q254.45 151.4 256 152.35" fill="rgb(5,10,8)" fill-opacity="1"></path><path d="M273.2,168L272.45 167.75Q272.2 167.5 272.2 167L272.2 166.8L273.5 168L273.2 168M261.2,156Q264.8 157.4 266.95 160.2L267.2 161L266.2 161L265.8 161L265.2 161L264.45 160.75Q264.2 160.5 264.2 160L264.05 159.4L264 159.35Q262.8 158.6 262.05 157.55L261.2 156M253.65,149.9L253.2 149Q256.8 150.4 258.95 153.2L259.2 154L258.2 154L258.15 154L257.2 154L256.45 153.75L256.2 153Q256.2 152.5 256 152.35Q254.45 151.4 253.65 149.9" fill="rgb(17,55,25)" fill-opacity="1"></path><path d="M280.1,174L279.3 173.8Q275.55 171.65 273.2 168L273.5 168L274.2 168L275.2 168L275.95 168.25L276.2 169Q277.55 171.65 279.95 173.35L280.2 174L280.1 174" fill="rgb(3,6,5)" fill-opacity="1"></path><path d="M283.2,181L283.95 180.75L284.2 180Q284.7 180 284.85 180.25Q286.9 183.2 283.2 181" fill="rgb(37,41,55)" fill-opacity="1"></path><path d="M247.6,145.8Q247.7 146 248.2 146Q248.2 146.5 248.45 146.75L249.2 147Q251.55 150.65 255.3 152.8L256.2 153L256.45 153.75L257.2 154Q259.55 157.65 263.3 159.8L264.2 160Q264.2 160.5 264.45 160.75L265.2 161Q267.55 164.65 271.3 166.8L272.2 167Q272.2 167.5 272.45 167.75L273.2 168Q275.55 171.65 279.3 173.8L280.1 174L280.45 174.35L283.95 179.15L284.2 180L283.95 180.75L283.2 181L282.2 180.9Q241 171.6 200.3 161.75L197.2 161L172.2 160.4Q123.5 159.3 73.2 159.55Q-16.3 160 -105.8 160L-284.8 160L-284.8 -2L-284.8 -181L-105.8 -181L73.2 -181L244.2 -181Q244.2 -91.5 243.8 -2Q243.45 72.25 245.2 144Q246.9 144.3 247.6 145.8" fill="rgb(120,174,210)" fill-opacity="1"></path><path d="M225.1,169.45L224.7 169.35M221.15,168.55L219.65 168.2M209.2,165.75L206.05 165.05M204.2,164.6L202.15 164.1M200.2,163.65L197.6 163.05M200.2,163.65L202.15 164.1M204.2,164.6L206.05 165.05M209.2,165.75L219.65 168.2M221.15,168.55L224.7 169.35M225.1,169.45L286.05 183.7" stroke="rgb(0,0,0)" stroke-linecap="round" stroke-linejoin="round" stroke-miterlimit="3" stroke-width="1.5" fill="none"></path><path d="M280.45,174.35L280.1 174M272.2,166.8L273.5 168L280.1 174M248.2,144.95L250.45 147L253.65 149.9L258.15 154M248.2,144.95L246.45 143.35M272.2,166.8L265.8 161L264.05 159.4L264 159.35Q262.8 158.6 262.05 157.55L258.15 154M280.45,174.35L287.85 181.05" stroke="rgb(0,0,0)" stroke-linecap="round" stroke-linejoin="round" stroke-miterlimit="3" stroke-width="3" fill="none"></path></g></g><g type="sprite" id="0:2:45"><defs></defs><g transform="matrix(1,0,0,1,-262.05,-156.1)"></g></g><g type="sprite" id="0:4:45"><defs></defs><g transform="matrix(1,0,0,1,7.85,-154.1)"></g></g><g type="sprite" id="0:6:45"><defs></defs><g transform="matrix(1,0,0,1,-262.05,-118.1)"></g></g><g type="sprite" id="0:8:47"><defs></defs><g transform="matrix(1,0,0,1,194.95,124)"></g></g><g type="sprite" id="0:10:49"><defs></defs><g transform="matrix(1,0,0,1,166.4,106.55)"></g></g><g type="text" id="0:12:51"><defs></defs><g><text font-size="21" font-family="ft50" fill="rgb(0,0,0)" x="-2" y="31.6" fill-rule="nonzero" style="white-space:pre" transform="matrix(1,0,0,1,72,-170.75)">ABCDEFGHIJ</text></g></g></g></g></svg>