<svg width="106" height="168" viewBox="-4 -132 106 168"><g><defs></defs></g><rect x="-4" y="-132" width="106" height="168" fill="#006600"></rect><g id="0"><defs></defs><g><g type="shape" id="0:1:207"><defs></defs><g transform="matrix(1,0,0,1,0,0)"><path d="M0.6,-93.1L-0.4 -63.1L0.6 -51.1L0.6 -34.1L0.6 -22.1L1.6 -8.1Q4.9 3.25 16.4 -2.2Q25.65 -6.5 35.15 -10.3L51.75 -16.75Q61 -20.15 70.45 -22.8Q80.8 -25.65 88.9 -32.4Q97.25 -39.5 95.6 -50.1L95.6 -97.1L94.6 -111.1L91.6 -123.1L80.6 -122.1L51.6 -113.1L7.6 -97.1L0.6 -93.1M-1.4,4.9L-2.4 3.9L-3 2.8L-3.5 -0.15Q-4.4 -19.1 -4.4 -38.1L-4.4 -97.1Q4.35 -103.35 16.45 -106.6Q28 -109.7 38.85 -113.3Q61.4 -120.85 83.3 -128.9L91.35 -131.75Q93.65 -132.55 96.65 -132.85Q98.55 -133.05 99.6 -132.1Q102.7 -127.7 102.45 -119.1Q101.6 -89.6 101.6 -60.1L101.45 -1.1Q101.4 1.7 100.6 3.9L-1.4 4.9M89.6,-24.1L35.6 -5.1L91.6 -5.35L91.6 -13.1L91.85 -15.05Q93.4 -23.2 89.6 -24.1" fill="rgb(12,16,9)" fill-opacity="1"></path><path d="M76.6,-44.35Q67.15 -42.1 57.45 -41.65Q47.1 -41.1 36.6 -42.1Q21.75 -48.35 14.3 -62.65Q10.1 -70.8 9.25 -80.05Q8.8 -85.05 9.65 -90.05Q10.35 -94.15 7.6 -97.1L51.6 -113.1L80.6 -122.1L91.6 -123.1L94.6 -111.1L95.6 -97.1L95.6 -50.1Q88 -47 76.6 -44.35" fill="rgb(121,113,105)" fill-opacity="1"></path><path d="M1.6,-22.1L0.6 -34.1L0.6 -51.1L0.6 -63.1L0.6 -93.1L7.6 -97.1Q10.35 -94.15 9.65 -90.05Q8.8 -85.05 9.25 -80.05Q10.1 -70.8 14.3 -62.65Q21.75 -48.35 36.6 -42.1Q47.1 -41.1 57.45 -41.65Q67.15 -42.1 76.6 -44.35Q88 -47 95.6 -50.1Q97.25 -39.5 88.9 -32.4Q80.8 -25.65 70.45 -22.8Q61 -20.15 51.75 -16.75L35.15 -10.3Q25.65 -6.5 16.4 -2.2Q4.9 3.25 1.6 -8.1L1.6 -22.1" fill="rgb(153,154,154)" fill-opacity="1"></path><path d="M0.6,-63.1L0.6 -51.1L-0.4 -63.1L0.6 -63.1" fill="rgb(56,54,50)" fill-opacity="1"></path><path d="M-0.4,-63.1L0.6 -93.1L0.6 -63.1L-0.4 -63.1" fill="rgb(115,116,115)" fill-opacity="1"></path><path d="M1.6,-22.1L0.6 -22.1L0.6 -34.1L1.6 -22.1" fill="rgb(106,106,103)" fill-opacity="1"></path><path d="M1.6,-8.1L0.6 -22.1L1.6 -22.1L1.6 -8.1" fill="rgb(59,59,55)" fill-opacity="1"></path><path d="M91.6,-5.35L35.6 -5.1L89.6 -24.1L91.6 -13.1L91.6 -5.35" fill="rgb(78,63,64)" fill-opacity="1"></path><path d="M91.85,-15.05L91.6 -13.1L89.6 -24.1Q93.4 -23.2 91.85 -15.05" fill="rgb(52,42,44)" fill-opacity="1"></path><path d="M-1.4,4.9L100.6 3.9L66.6 36.9Q58.65 35.9 51.5 32.65Q41.75 28.2 32.2 23.35L17.45 15.65Q7.8 10.6 -1.4 4.9" fill="rgb(0,106,36)" fill-opacity="1"></path></g></g></g></g></svg>