<svg width="133" height="170" viewBox="-33 -132 133 170"><g><defs></defs></g><rect x="-33" y="-132" width="133" height="170" fill="#006600"></rect><g id="0"><defs></defs><g><g type="shape" id="0:1:203"><defs></defs><g transform="matrix(1,0,0,1,0,0)"><path d="M1.25,-41.25Q1.9 -34.4 6.35 -31.4Q10.85 -28.35 16.3 -26.45Q38.4 -18.9 59.35 -10.45Q68.7 -6.7 78.25 -3.25Q83 -1.5 88.35 -0.85Q95 0 94.25 -7.25L95.25 -16.25L95.25 -29.25L95.25 -83.25Q95.95 -94.65 85.3 -98.4L67.35 -105.05Q58.7 -108.15 49.9 -110.75L40.25 -113.25Q27.4 -119.8 13.85 -123.75Q9.1 -125 4.65 -123.25Q2.25 -118.2 1.2 -112.85Q-0.65 -103.45 1.25 -94.25L0.25 -80.25L0.25 -69.25L0.25 -52.25L1.25 -41.25M7.2,6.7Q1.2 6.95 -3.75 3.75L-4.45 3.2L-4.65 3L-5.55 -70.35L-4.9 -120.25L-4.75 -129.25L-4.75 -130.25Q0.55 -134.25 5.7 -129.75Q6.25 -129.25 7.15 -128.95Q29.5 -122 51.3 -114.45L74.1 -106.8Q80.65 -104.65 87.4 -102.8Q93.6 -101.05 97.95 -97.85Q98.75 -97.25 99.25 -96.25Q100.95 -90.45 100.8 -82.25Q100.25 -52.75 100.75 -23.25Q101 -9 98.6 2.6Q98.25 4.25 96.95 5.45Q95.95 6.45 93.25 5.75Q50.15 5.1 7.2 6.7M57.25,-5.25L45.7 -9.3L4.25 -24.25L4.25 -11.25L4.25 -4.25Q10 -2.5 18.25 -2.7L58.2 -4.15Q60.15 -4.25 57.25 -5.25" fill="rgb(8,11,5)" fill-opacity="1"></path><path d="M41.25,-105Q39.55 -94.1 41.75 -83.2Q43.9 -72.7 48.35 -62.8Q52.35 -53.9 58.9 -46.85Q66.3 -38.85 75.15 -32.65Q83.9 -26.4 94.25 -23.25L94.25 -16.25L94.25 -7.25Q95 0 88.35 -0.85Q83 -1.5 78.25 -3.25Q68.7 -6.7 59.35 -10.45Q38.4 -18.9 16.3 -26.45Q10.85 -28.35 6.35 -31.4Q1.9 -34.4 1.25 -41.25L1.25 -52.25L1.25 -69.25L1.25 -80.25L1.25 -94.25Q-0.65 -103.45 1.2 -112.85Q2.25 -118.2 4.65 -123.25Q9.1 -125 13.85 -123.75Q27.4 -119.8 40.25 -113.25Q41.9 -109.3 41.25 -105" fill="rgb(153,155,155)" fill-opacity="1"></path><path d="M94.25,-23.25Q83.9 -26.4 75.15 -32.65Q66.3 -38.85 58.9 -46.85Q52.35 -53.9 48.35 -62.8Q43.9 -72.7 41.75 -83.2Q39.55 -94.1 41.25 -105Q41.9 -109.3 40.25 -113.25L49.9 -110.75Q58.7 -108.15 67.35 -105.05L85.3 -98.4Q95.95 -94.65 95.25 -83.25L95.25 -29.25L94.25 -23.25" fill="rgb(121,113,105)" fill-opacity="1"></path><path d="M0.25,-80.25L1.25 -94.25L1.25 -80.25L0.25 -80.25" fill="rgb(120,121,120)" fill-opacity="1"></path><path d="M0.25,-80.25L1.25 -80.25L1.25 -69.25L0.25 -69.25L0.25 -80.25" fill="rgb(118,119,118)" fill-opacity="1"></path><path d="M1.25,-69.25L1.25 -52.25L0.25 -52.25L0.25 -69.25L1.25 -69.25" fill="rgb(130,131,130)" fill-opacity="1"></path><path d="M0.25,-52.25L1.25 -52.25L1.25 -41.25L0.25 -52.25" fill="rgb(109,111,109)" fill-opacity="1"></path><path d="M58.2,-4.15L18.25 -2.7Q10 -2.5 4.25 -4.25L57.25 -5.25Q60.15 -4.25 58.2 -4.15" fill="rgb(61,49,47)" fill-opacity="1"></path><path d="M45.7,-9.3L4.25 -11.25L4.25 -24.25L45.7 -9.3" fill="rgb(56,45,48)" fill-opacity="1"></path><path d="M45.7,-9.3L57.25 -5.25L4.25 -4.25L4.25 -11.25L45.7 -9.3" fill="rgb(96,78,78)" fill-opacity="1"></path><path d="M94.25,-16.25L94.25 -23.25L95.25 -29.25L95.25 -16.25L94.25 -16.25" fill="rgb(79,77,71)" fill-opacity="1"></path><path d="M95.25,-16.25L94.25 -7.25L94.25 -16.25L95.25 -16.25" fill="rgb(60,61,58)" fill-opacity="1"></path><path d="M-5.55,-70.35L-4.65 3L-4.45 3.2L-3.75 3.75Q1.2 6.95 7.2 6.7Q50.15 5.1 93.25 5.75L92.15 6.45L90.35 7L44.3 19.95Q21.3 26.3 -2.6 32.35Q-8.25 33.75 -13.75 35.8Q-22.65 39.15 -31.75 37.75L-32.85 35.85L-33.25 34.75Q-33.75 16.25 -33.75 -2.25L-33.75 -61.25Q-28.85 -71.35 -20.75 -78.25Q-12.65 -85.15 -5.75 -93.25L-5.55 -70.35" fill="rgb(0,106,36)" fill-opacity="1"></path><path d="M-5.75,-93.25L-4.9 -120.25L-5.55 -70.35L-5.75 -93.25" fill="rgb(3,50,16)" fill-opacity="1"></path></g></g></g></g></svg>