<svg width="140" height="172" viewBox="-40 -133 140 172"><g><defs></defs></g><rect x="-40" y="-133" width="140" height="172" fill="#006600"></rect><g id="0"><defs></defs><g><g type="shape" id="0:1:130"><defs></defs><g transform="matrix(1,0,0,1,0,0)"><path d="M-4.95,-98.4L-4.95 -99.4L-4.95 -128.4L-4 -130.05Q-3.7 -131.4 -2 -132.3L0.05 -132.3L1.05 -132.4L60.05 -132.4L97.05 -132.4L97.3 -132.25Q99.15 -132.15 100.1 -131.1L100.15 -119.35L100.15 -98.6L100.15 -77.85L100.15 -57.05L100.15 -36.3L100.15 -15.5L100.15 -0.45Q100.05 1.6 99.05 3.6L98.15 3.8L97.05 4.1Q69.05 4.6 41.05 4.6Q26.05 4.6 11.1 5.45Q2.25 5.9 -1.95 2.6Q-4.35 1 -4.4 -2.4Q-4.95 -20.9 -4.95 -39.4L-4.95 -98.4M54.6,-85.3L92.8 -85.1L94.55 -85.25L94.55 -86.3L94.55 -96.2L94.3 -116.95Q94.2 -121.35 94.65 -125.65L94.05 -126.4L93.8 -127.1L93.05 -127.65L91.3 -127.6L55.05 -126.75L54.75 -126.75L54.9 -124.85L54.65 -119.1L54.6 -115.95L54.6 -114.5L54.6 -114.4L54.6 -93.7L54.6 -91.95L54.6 -85.3M2.05,-118.3L2 -116.1L1.95 -106.15L2.05 -101.95L2.05 -89.4L2.05 -88.4Q1.65 -86.75 2.05 -85.9L2.05 -85.45L2.35 -85.45L30.6 -85.4L35.4 -85.4L42.1 -85.35L46 -85.35L47.35 -85.35L48.4 -85.35L48.4 -88.85L48.4 -96.65L48.2 -117.4Q48.05 -122 48.8 -126.4L48.85 -126.7L48.7 -126.7L48.05 -126.7Q27.15 -126.4 6.2 -126.5Q3.95 -125.7 2.2 -124.5L2.05 -119.65L2.05 -118.3M94.55,-79.4L94.55 -80.85L54.6 -79.9L54.6 -78.4L54.6 -72.95L54.65 -52.2Q54.75 -44.05 54.4 -35.95L55.4 -35.95L92.85 -35.75L94.4 -36.95L94.45 -39.3L94.55 -54.65L94.55 -75.45L94.55 -78.4L94.55 -79.4M48.4,-79.8Q25.25 -79.5 2.05 -79.6L2.05 -79.4L48.4 -79.4L48.4 -79.8M47.05,-78.4L29.05 -78.4L28.05 -78.4L16.05 -78.4L16.05 -77.4L15.05 -77.4L2.05 -77.4L2.05 -76.4L2.05 -72.4L2.05 -71.95L2.05 -70.5L2.05 -64.6L2.05 -59.15L2.1 -57.3L2.3 -43.85Q2.4 -40.05 2.05 -36.4L2.8 -36.1L19.3 -36.05L48.05 -35.95L48.4 -35.95L48.4 -55.1L48.4 -75.85L48.4 -77.55L48.05 -78.4L47.05 -78.4M5.1,-16.4Q5.25 -13.7 3.05 -13.4Q1.85 -0.25 17.2 -2.55L28.05 -3.4Q56.55 -3.4 85.05 -4.1Q88.25 -4.2 91.05 -5.4L91.55 -5.4Q92.05 -16.4 92.05 -27.4L90.05 -27.45L83.05 -27.8L75.05 -28Q46.55 -27.4 18.05 -27.9Q9.85 -28.05 4.05 -26.4Q4.3 -21.45 4.95 -18.4L5.05 -17.4L5.1 -16.4M-3.95,-127.4L-3.95 -125.8L-3.75 -127.4L-3.95 -127.4" fill="rgb(9,12,8)" fill-opacity="1"></path><path d="M94.65,-125.65Q94.2 -121.35 94.3 -116.95L94.55 -96.2L94.55 -86.3L89.35 -86.15L89.6 -86.25Q90.4 -86.5 90.5 -87.35Q91.45 -96.55 91.25 -105.95Q91.15 -111.15 91.45 -116.35Q91.6 -118.75 90.4 -119.9L89.15 -120.65L87.1 -120.95L86.7 -120.65L56.55 -120.95Q55.65 -120.55 55.05 -119.75L55.05 -126.75L91.3 -127.6L93.2 -126.65L94.05 -126.4L94.65 -125.65M55.05,-114.4L55.05 -115L55.25 -114.7L55.15 -114.4L55.05 -114.4M85.05,-87.4L84.75 -87.65L85.35 -87.85L85.6 -87.15L85.05 -87.4" fill="rgb(153,155,155)" fill-opacity="1"></path><path d="M93.05,-127.65L93.8 -127.1L94.05 -126.4L93.2 -126.65L91.3 -127.6L93.05 -127.65" fill="rgb(80,78,75)" fill-opacity="1"></path><path d="M1.05,-132.4L1.05 -133.2L92.45 -133L96.05 -132.9Q96.55 -132.9 97.05 -132.4L60.05 -132.4L1.05 -132.4" fill="rgb(2,95,32)" fill-opacity="1"></path><path d="M85.6,-87.15Q86.4 -85.2 89.35 -86.15L94.55 -86.3L94.55 -85.25L92.8 -85.1L54.6 -85.3L54.6 -91.95Q55.75 -95.85 55.4 -101.4L55.1 -111.2L55.25 -110.4Q56.1 -107.25 59.5 -108Q61.3 -108.4 61.4 -110.25L61.7 -113.4L61.8 -114.55L77.25 -115.2Q76.65 -114.15 77.1 -112.55Q77.4 -111.45 78.2 -110.65Q78.55 -103.85 80.4 -97.35L80.8 -95.2L81.4 -90.2Q81.85 -87 84.75 -87.65L85.05 -87.4L85.6 -87.15M55.05,-114.4L55.15 -114.4L55.05 -114.05L55.05 -114.4" fill="rgb(121,113,105)" fill-opacity="1"></path><path d="M46,-85.35L42.1 -85.35L42.85 -85.75L43.3 -86.45Q44.3 -95.9 44.05 -105.6Q43.95 -110.8 44.25 -116Q44.4 -118.45 43.15 -119.6L42.05 -120.25L39.85 -120.6L39.6 -120.25L4 -120.6Q2.45 -119.95 2.05 -118.4L2.05 -119.65L2.2 -124.5Q3.95 -125.7 6.2 -126.5Q27.15 -126.4 48.05 -126.7L48.05 -89.4L48.05 -88.4L47.85 -87.5L47.05 -86.4L46.5 -86.25L46 -85.35" fill="rgb(141,152,190)" fill-opacity="1"></path><path d="M48.7,-126.7L48.85 -126.7L48.8 -126.4L48.7 -126.7M48.4,-88.85L48.4 -85.35L47.35 -85.35L47.25 -85.5L47.05 -86.4L47.85 -87.5L48.05 -88.4L48.4 -88.85M2.35,-85.45L2.05 -85.45L2.05 -85.9L2.35 -85.45M62.05,-78.4L55.05 -78.4L54.6 -78.4L54.6 -79.9L94.55 -80.85L94.55 -79.4L78.05 -79.4L77.05 -79.4L63.05 -79.4L63.05 -78.4L62.05 -78.4M48.4,-79.4L2.05 -79.4L2.05 -79.6Q25.25 -79.5 48.4 -79.8L48.4 -79.4M-3.75,-127.4L-3.95 -125.8L-3.95 -127.4L-3.75 -127.4" fill="rgb(2,13,51)" fill-opacity="1"></path><path d="M2.05,-115.8L2.05 -101.95L1.95 -106.15L2 -116.1L2.05 -115.8M2.05,-118.3L2.05 -119.65L2.05 -118.4L2.05 -118.3" fill="rgb(70,81,119)" fill-opacity="1"></path><path d="M2.05,-85.9Q1.65 -86.75 2.05 -88.4L2.05 -89.4L2.05 -101.95L2.05 -115.8Q2.35 -114.8 3.15 -114.25Q3.4 -113.25 4.65 -112.35Q7.2 -110.5 10.5 -110.55L37.5 -111.8L37.5 -110.85L37.75 -94.65L37.4 -94.7L37.3 -94.6Q36.3 -94.25 36 -93.2Q35.2 -90.35 34.9 -87.4Q34.8 -86.3 35.3 -85.5L30.6 -85.4L2.35 -85.45L2.05 -85.9" fill="rgb(104,115,153)" fill-opacity="1"></path><path d="M48.05,-89.4L48.05 -126.7L48.7 -126.7L48.8 -126.4Q48.05 -122 48.2 -117.4L48.4 -96.65L48.4 -88.85L48.05 -88.4L48.05 -89.4" fill="rgb(44,55,93)" fill-opacity="1"></path><path d="M54.65,-119.1L54.9 -124.85L54.75 -126.75L55.05 -126.75L55.05 -119.75L54.65 -119.1M54.6,-114.4L54.6 -114.5L54.6 -115.95L54.85 -115.4L55.05 -115L55.05 -114.4L54.6 -114.4" fill="rgb(110,110,109)" fill-opacity="1"></path><path d="M55.4,-101.4Q55.75 -95.85 54.6 -91.95L54.6 -93.7L54.6 -114.4L55.05 -114.4L55.05 -114.05L55.1 -111.2L55.4 -101.4" fill="rgb(91,85,78)" fill-opacity="1"></path><path d="M78.05,-78.4L77.05 -78.4L63.05 -78.4L63.05 -79.4L77.05 -79.4L78.05 -79.4L78.05 -78.4" fill="rgb(42,53,91)" fill-opacity="1"></path><path d="M55.05,-78.4L62.05 -78.4L63.05 -78.4L77.05 -78.4L78.05 -78.4L78.05 -77.9Q66.55 -77.4 55.05 -77.4L55.05 -78.4" fill="rgb(122,133,171)" fill-opacity="1"></path><path d="M94.55,-78.4L94.55 -75.45L94.55 -54.65L94.45 -39.3Q92.1 -36.35 87.75 -38.1Q88.25 -38.4 88.35 -39.1Q89.3 -48.3 89.15 -57.7Q89.05 -62.85 89.3 -68.05Q89.45 -70.45 88.25 -71.55L88.25 -71.6L87.75 -72Q86.7 -72.7 84.95 -72.7L84.35 -72.2L83.05 -72.3L83.05 -72.4L82.05 -72.4L81.05 -72.4L72.9 -72.7L72.4 -72.4L55.05 -72.4L55.05 -73.4L55.05 -77.4Q66.55 -77.4 78.05 -77.9L78.05 -78.4L94.55 -78.4M82.9,-67.3L83.15 -67.3L82.9 -62.3L82.9 -67.3" fill="rgb(142,153,191)" fill-opacity="1"></path><path d="M94.55,-78.4L78.05 -78.4L78.05 -79.4L94.55 -79.4L94.55 -78.4" fill="rgb(91,102,140)" fill-opacity="1"></path><path d="M46.5,-86.25L47.05 -86.4L47.25 -85.5L47.35 -85.35L46 -85.35L46.5 -86.25" fill="rgb(68,79,117)" fill-opacity="1"></path><path d="M29.05,-78.4L47.05 -78.4L48.05 -78.4L48.05 -77.4L47.05 -77.4L29.05 -77.4L29.05 -78.4" fill="rgb(103,104,103)" fill-opacity="1"></path><path d="M17,-76.9L17.05 -77.4L28.05 -77.4L29.05 -77.4L47.05 -77.4L48.05 -77.4L48.05 -39.4L48.05 -38.4Q44.5 -36.9 42.4 -37.9L42.85 -38.15Q43.25 -38.4 43.3 -38.9Q44.3 -48.35 44.05 -58.05Q43.95 -63.25 44.25 -68.4Q44.35 -69.8 43.95 -70.75L43.4 -72.65Q42.9 -73.7 41.8 -73.7L4 -74.1Q2.7 -73.35 2.2 -72.35L2.05 -72.4L2.05 -76.4L17 -76.9" fill="rgb(152,153,153)" fill-opacity="1"></path><path d="M48.05,-36.4L48.05 -38.4L48.05 -39.4L48.05 -77.4L48.05 -78.4L48.4 -77.55L48.4 -75.85L48.4 -55.1L48.4 -35.95L48.05 -35.95L48.05 -36.4" fill="rgb(58,57,54)" fill-opacity="1"></path><path d="M55.4,-35.95L54.4 -35.95Q54.75 -44.05 54.65 -52.2L54.6 -72.95L54.6 -78.4L55.05 -78.4L55.05 -77.4L55.05 -73.4L55.05 -72.4Q55.05 -54.4 55.35 -36.4L55.4 -35.95" fill="rgb(77,88,126)" fill-opacity="1"></path><path d="M16.05,-77.4L16.05 -78.4L28.05 -78.4L29.05 -78.4L29.05 -77.4L28.05 -77.4L17.05 -77.4L16.05 -77.4" fill="rgb(57,56,54)" fill-opacity="1"></path><path d="M35.4,-85.4L30.6 -85.4L35.3 -85.5L35.4 -85.4" fill="rgb(89,100,138)" fill-opacity="1"></path><path d="M17.05,-77.4L17 -76.9L2.05 -76.4L2.05 -77.4L15.05 -77.4L16.05 -77.4L17.05 -77.4" fill="rgb(117,118,117)" fill-opacity="1"></path><path d="M54.6,-115.95L54.65 -119.1L55.05 -119.75Q55.65 -120.55 56.55 -120.95L86.7 -120.65L87.1 -120.95L89.15 -120.65L90.4 -119.9Q91.6 -118.75 91.45 -116.35Q91.15 -111.15 91.25 -105.95Q91.45 -96.55 90.5 -87.35Q90.4 -86.5 89.6 -86.25L89.35 -86.15Q86.4 -85.2 85.6 -87.15L85.35 -87.85L84.75 -87.65Q81.85 -87 81.4 -90.2L80.8 -95.2L80.4 -97.35Q78.55 -103.85 78.2 -110.65Q77.4 -111.45 77.1 -112.55Q76.65 -114.15 77.25 -115.2L61.8 -114.55L61.7 -113.4L61.4 -110.25Q61.3 -108.4 59.5 -108Q56.1 -107.25 55.25 -110.4L55.1 -111.2L55.05 -114.05L55.15 -114.4L55.25 -114.7L55.05 -115L54.85 -115.4L54.6 -115.95M3.05,-36.4Q3.05 -41.9 3.4 -47.4Q3.8 -53.6 2.1 -57.3L2.05 -59.15L2.05 -64.6L2.05 -70.5L2.05 -71.95L2.05 -72.4L2.2 -72.35Q2.7 -73.35 4 -74.1L41.8 -73.7Q42.9 -73.7 43.4 -72.65L43.95 -70.75Q44.35 -69.8 44.25 -68.4Q43.95 -63.25 44.05 -58.05Q44.3 -48.35 43.3 -38.9Q43.25 -38.4 42.85 -38.15L42.4 -37.9Q44.5 -36.9 48.05 -38.4L48.05 -36.4L48.05 -35.95L19.3 -36.05L3.05 -36.4" fill="rgb(122,114,106)" fill-opacity="1"></path><path d="M2.05,-36.4Q2.4 -40.05 2.3 -43.85L2.1 -57.3Q3.8 -53.6 3.4 -47.4Q3.05 -41.9 3.05 -36.4L2.05 -36.4" fill="rgb(98,91,84)" fill-opacity="1"></path><path d="M3.05,-36.4L19.3 -36.05L2.8 -36.1L2.05 -36.4L3.05 -36.4" fill="rgb(92,86,79)" fill-opacity="1"></path><path d="M91.3,-14.4Q91.6 -20.4 90.05 -19.4Q89.75 -17.7 88.05 -17.4L77.05 -16.85Q47.55 -17.4 18.05 -17L5.05 -17.4L4.95 -18.4Q4.3 -21.45 4.05 -26.4Q9.85 -28.05 18.05 -27.9Q46.55 -27.4 75.05 -28L83.05 -27.8L90.05 -27.45L92.05 -27.4Q92.05 -16.4 91.55 -5.4L91.05 -5.4Q91.05 -9.9 91.3 -14.4" fill="rgb(56,46,49)" fill-opacity="1"></path><path d="M91.05,-5.4Q88.25 -4.2 85.05 -4.1Q56.55 -3.4 28.05 -3.4L17.2 -2.55Q1.85 -0.25 3.05 -13.4Q5.25 -13.7 5.1 -16.4L5.05 -17.4L18.05 -17Q47.55 -17.4 77.05 -16.85L88.05 -17.4Q89.75 -17.7 90.05 -19.4Q91.6 -20.4 91.3 -14.4Q91.05 -9.9 91.05 -5.4" fill="rgb(94,77,77)" fill-opacity="1"></path><path d="M35.3,-85.5Q34.8 -86.3 34.9 -87.4Q35.2 -90.35 36 -93.2Q36.3 -94.25 37.3 -94.6L37.4 -94.7L37.75 -94.65L37.5 -110.85L37.5 -111.8L10.5 -110.55Q7.2 -110.5 4.65 -112.35Q3.4 -113.25 3.15 -114.25Q2.35 -114.8 2.05 -115.8L2 -116.1L2.05 -118.3L2.05 -118.4Q2.45 -119.95 4 -120.6L39.6 -120.25L39.85 -120.6L42.05 -120.25L43.15 -119.6Q44.4 -118.45 44.25 -116Q43.95 -110.8 44.05 -105.6Q44.3 -95.9 43.3 -86.45L42.85 -85.75L42.1 -85.35L35.4 -85.4L35.3 -85.5M94.4,-36.95L92.85 -35.75L55.4 -35.95L55.35 -36.4Q55.05 -54.4 55.05 -72.4L72.4 -72.4L72.9 -72.7L81.05 -72.4L82.05 -72.4L83.05 -72.4L83.05 -72.3L84.35 -72.2L84.95 -72.7Q86.7 -72.7 87.75 -72L88.25 -71.6L88.25 -71.55Q89.45 -70.45 89.3 -68.05Q89.05 -62.85 89.15 -57.7Q89.3 -48.3 88.35 -39.1Q88.25 -38.4 87.75 -38.1Q92.1 -36.35 94.45 -39.3L94.4 -36.95M82.9,-62.3L83.15 -67.3L82.9 -67.3L82.9 -62.3" fill="rgb(103,114,152)" fill-opacity="1"></path><path d="M-4.95,-39.4Q-4.95 -20.9 -4.4 -2.4Q-4.35 1 -1.95 2.6Q2.25 5.9 11.1 5.45Q26.05 4.6 41.05 4.6Q69.05 4.6 97.05 4.1L98.15 3.8L99.05 3.6Q99 5.55 98.1 6.65Q91.2 14.75 83.55 22.15Q74.2 31.25 63.05 38.6L42.05 38.6Q12.55 38.6 -16.95 39.35Q-29.05 39.65 -36.95 36.6L-38 32.6Q-39.7 26.85 -39.9 18.6L-40.1 -1.4Q-39.95 -30.9 -39.95 -60.4Q-35.95 -71.4 -27.35 -77.9Q-18.3 -84.75 -10.6 -93.05L-4.95 -98.4L-4.95 -39.4" fill="rgb(0,106,36)" fill-opacity="1"></path></g></g></g></g></svg>