<svg width="137" height="136" viewBox="-34 -133 137 136"><g><defs></defs></g><rect x="-34" y="-133" width="137" height="136" fill="#006600"></rect><g id="0"><defs></defs><g><g type="shape" id="0:1:205"><defs></defs><g transform="matrix(1,0,0,1,0,0)"><path d="M98.6,-124.95L100.15 -5.25L99.75 -4.8L99.4 -4.55Q92.95 -1.75 86.05 -0.9Q43.4 1.5 1.3 -2L0.35 -129L98.05 -128.75L98.6 -124.95" fill="rgb(132,128,123)" fill-opacity="1"></path><path d="M101.45,-2.15L101.45 -1.85L101.45 -1L101.45 -0.65L101.45 -0.5L100.55 2.75L0.1 3.3L-3.6 -4L-3.6 -99L-2.6 -131L-0.65 -132.8L24.45 -132.95L49.45 -133L74.45 -133L99.45 -132.9Q101.45 -132.9 101.45 -131L101.45 -2.15M98.05,-128.75L0.35 -129L1.3 -2Q43.4 1.5 86.05 -0.9Q92.95 -1.75 99.4 -4.55L99.75 -4.8L100.15 -5.25L98.6 -124.95L98.05 -128.75" fill="rgb(10,10,7)" fill-opacity="1"></path><path d="M-20.9,-35.2Q-29 -50.4 -34.35 -69L-5.35 -98.75L-4.6 -99L-3.6 -99L-3.6 -4Q-12.4 -19.15 -20.9 -35.2" fill="rgb(5,109,41)" fill-opacity="1"></path><path d="M101.45,-0.65L101.45 -1L101.45 -1.85L101.45 -0.65" fill="rgb(120,120,118)" fill-opacity="1"></path><path d="M101.45,-1L101.45 -1.85L101.45 -2.15L101.45 -131" stroke="rgb(0,0,0)" stroke-linecap="round" stroke-linejoin="round" stroke-miterlimit="3" stroke-width="3.25" fill="none"></path></g></g></g></g></svg>