<svg width="138" height="144" viewBox="-34 -105 138 144"><g><defs></defs></g><rect x="-34" y="-105" width="138" height="144" fill="#006600"></rect><g id="0"><defs></defs><g><g type="shape" id="0:1:201"><defs></defs><g transform="matrix(1,0,0,1,0,0)"><path d="M94.45,-101.6L96.6 -101.6L100.95 -97.4L99.85 -41.5L99.6 -40.6L99.4 -39.65Q96.95 -33.75 86.6 -35.6L86.6 -35.1Q45.35 -33.85 6.6 -35.6L5.65 -35.75Q1.6 -37.1 2.6 -43.6L2.6 -44.6L2.6 -64.6Q14.05 -61.05 29.9 -58.1Q44.95 -55.25 55.75 -57.9Q89.2 -65.95 94.45 -101.6" fill="rgb(153,155,155)" fill-opacity="1"></path><path d="M103.6,0.4L102.05 3.35L92.4 4.15L73.75 5.2L54.75 6Q33.1 7.35 11.4 5.9Q5.25 5.15 -0.9 3.4L-1.4 -92.6L0.55 -77.7L1.6 -73.6L2.6 -43.6Q1.6 -37.1 5.65 -35.75L6.6 -35.6Q45.35 -33.85 86.6 -35.1L86.6 -35.6Q96.95 -33.75 99.4 -39.65L99.6 -40.6L99.85 -41.5L100.95 -97.4L96.6 -101.6L94.45 -101.6L8.15 -101.6L1.6 -100.6L1.6 -99.6L0.6 -99.6L0.6 -96.6L0.05 -96.5Q-1.3 -91 -1.4 -98.6L-1.4 -101.6L3.6 -105.6L100.6 -105.1L103.6 -101.6L103.6 -99.95L103.6 -85.6L103.6 -35.6L103.6 0.4M92.5,-30.35Q87.4 -32.4 81.6 -32.3Q66.55 -32 55.6 -32.2Q30.1 -32.7 3.6 -29.6L3.6 -21.6L3.6 -20.6L3.6 -3.6L97.6 -2.6L97.6 -20.6Q97.75 -28.25 92.5 -30.35" fill="rgb(13,22,12)" fill-opacity="1"></path><path d="M55.75,-57.9Q44.95 -55.25 29.9 -58.1Q14.05 -61.05 2.6 -64.6L2.6 -44.6L2.6 -43.6L1.6 -73.6L0.6 -91.6L1.6 -99.6L1.6 -100.6L8.15 -101.6L94.45 -101.6Q89.2 -65.95 55.75 -57.9" fill="rgb(121,113,105)" fill-opacity="1"></path><path d="M0.6,-91.6L0.6 -92.6L0.6 -96.6L0.6 -99.6L1.6 -99.6L0.6 -91.6" fill="rgb(87,94,82)" fill-opacity="1"></path><path d="M102.9,2.9Q89.45 22.25 71.6 37.4L71.6 37.9Q24.35 40.15 -25.4 39.4L-26.4 39.45Q-35.95 39.95 -34.4 29.4Q-17 -33.2 -1.95 -98.5L-1.4 -98.6Q-1.3 -91 0.05 -96.5L0.6 -96.6L0.6 -92.6L0.6 -91.6L1.6 -73.6L0.55 -77.7L-1.4 -92.6L-0.9 3.4Q5.25 5.15 11.4 5.9Q33.1 7.35 54.75 6L73.75 5.2L92.4 4.15L102.05 3.35L103.6 0.4Q103.6 1.9 102.9 2.9" fill="rgb(1,106,37)" fill-opacity="1"></path><path d="M3.6,-20.6L3.6 -21.6L3.6 -29.6Q30.1 -32.7 55.6 -32.2Q66.55 -32 81.6 -32.3Q87.4 -32.4 92.5 -30.35Q97.75 -28.25 97.6 -20.6L3.6 -20.6" fill="rgb(60,48,51)" fill-opacity="1"></path><path d="M97.6,-20.6L97.6 -2.6L3.6 -3.6L3.6 -20.6L97.6 -20.6" fill="rgb(99,80,80)" fill-opacity="1"></path><path d="M103.6,-99.95L103.6 -101.6M103.6,-35.6L103.6 -85.6" stroke="rgb(0,0,0)" stroke-linecap="round" stroke-linejoin="round" stroke-miterlimit="3" stroke-width="1" fill="none"></path><path d="M0.6,-92.6L0.6 -96.6L0.6 -99.6M0.55,-77.7L0.35 -37.4M0.55,-77.7L0.6 -91.6" stroke="rgb(0,0,0)" stroke-linecap="round" stroke-linejoin="round" stroke-miterlimit="3" stroke-width="3.25" fill="none"></path></g></g></g></g></svg>