<svg width="97" height="142" viewBox="0 -142 97 142"><g><defs></defs></g><rect x="0" y="-142" width="97" height="142" fill="#006600"></rect><g id="0"><defs></defs><g><g type="shape" id="0:2:74"><defs></defs><g transform="matrix(1,0,0,1,0,0)"><path d="M3.05,-93.9L1.6 -93.9L1.6 -79.6M3.05,-93.9L15.45 -93.9M15.45,-0.9L1.6 -0.9L1.6 -15.45M82.5,-93.9L94.6 -93.9L94.6 -79.6M94.6,-15.45L94.6 -2.35L94.6 -0.9L82.5 -0.9" stroke="rgb(0,0,0)" stroke-linecap="round" stroke-linejoin="round" stroke-miterlimit="3" stroke-width="3" fill="none"></path><path d="M3.05,-80.05L3.05 -93.9L3.05 -95.35L15.9 -95.35M15.9,-2.35L3.05 -2.35L3.05 -15.9M82.95,-95.35L96.05 -95.35L96.05 -80.05M94.6,-2.35L82.95 -2.35M94.6,-2.35L96.05 -2.35L96.05 -15.9" stroke="rgb(255,255,255)" stroke-linecap="round" stroke-linejoin="round" stroke-miterlimit="3" stroke-width="3" fill="none"></path><path d="M62.55,-113.5L61.75 -113.25Q49.25 -103.35 44.55 -120.5Q52.35 -130.3 59.55 -121L59.9 -122.4Q60.05 -123 60.55 -123.5Q61.55 -130.1 53.2 -133.2Q50.35 -134.25 52.7 -136.3Q54.05 -137.5 55.55 -138.5Q66.35 -136.8 68.45 -126.5L68.55 -125.5Q72.05 -120.5 76.55 -116.4Q78.25 -114.8 76.85 -114Q76.05 -113.5 75.55 -112.5L74.55 -112.5Q70.25 -112.7 67.55 -114.5L67.35 -115.4Q65.95 -118.3 62.55 -114.5L62.55 -113.5" fill="rgb(46,215,40)" fill-opacity="1"></path><path d="M66.55,-92.5L66.4 -93.45Q65 -98.55 68.55 -103.5Q67.55 -106.55 62.05 -100.05Q59.75 -97.35 55.55 -101.5Q57.85 -106.2 61.3 -109.75L61.55 -110.5L67.3 -113.85L67.55 -114.5Q70.25 -112.7 74.55 -112.5L75.55 -112.5Q77.4 -109.85 77.95 -107.15Q78.65 -103.7 77.35 -101.2L76.55 -100.5L76.55 -100Q72.9 -94.7 66.55 -92.5M60.55,-101.5Q62.7 -102.85 65.2 -103.8Q72.85 -106.85 69.55 -109.5L68.55 -109.5Q63.35 -109.6 58.55 -104.5Q58.85 -102.8 60.05 -101.85L60.55 -101.5" fill="rgb(28,189,23)" fill-opacity="1"></path><path d="M57.45,-31.5Q56.1 -39.55 50.55 -43.5L49.6 -43.6Q39.75 -45.9 35.55 -36.5Q37.15 -31.6 43.5 -31L43.55 -30.5L42.55 -30.5Q36.6 -30.6 33.55 -33.5L33.05 -33.6Q32.15 -39 35.55 -45.5L34.6 -45.6Q24.2 -48.15 21.55 -58.5L21.65 -59.5Q22.55 -65 19.55 -66.5Q19.05 -67.5 18.25 -67.8Q16.55 -68.5 15.9 -69.45Q11.9 -75.35 12.55 -85.5L13.35 -86.6L13.55 -87.5Q16.55 -89 15.65 -94.5L15.55 -95.5L15.55 -96.5Q18.15 -109.9 25.3 -118.7L25.55 -119.5Q28.7 -121.85 27.65 -128.5L27.55 -129.5L27.55 -130.5Q29.7 -133.35 31.35 -136.6L31.55 -137.5Q41.65 -141.4 54.55 -142.45L55.55 -142.5Q62.55 -139 68.7 -134.75L69.55 -134.5Q72.15 -124.1 80.35 -119.15L80.55 -118.5Q81.3 -113.25 83.35 -109.4L83.55 -108.5Q81.75 -101.2 86.55 -100.55L87.55 -100.5L88.1 -100.35Q92.75 -87.7 94.55 -72.5L93.75 -72.25Q88.5 -68.05 87.55 -59.5Q87.55 -59 87.35 -58.9Q76.5 -54.05 67.55 -47.5Q68.15 -40.6 71.3 -36.3L71.55 -35.5L71.35 -34.9Q65.5 -31.55 57.55 -30.5L57.45 -31.5M83.55,-67.5Q84.05 -68 84.65 -68.3L85.55 -68.5Q94.75 -75.75 87.2 -86.25L86.55 -86.5L86.75 -87.4Q91.3 -95.45 82.55 -97.5L81.55 -97.5L81.5 -98.5Q80.75 -104.05 77.35 -101.2Q78.65 -103.7 77.95 -107.15Q77.4 -109.85 75.55 -112.5Q76.05 -113.5 76.85 -114Q78.25 -114.8 76.55 -116.4Q72.05 -120.5 68.55 -125.5L68.45 -126.5Q66.35 -136.8 55.55 -138.5L54.55 -138.5Q43.55 -138.4 32.55 -133.5L32.35 -132.6Q29.2 -125.65 30.55 -118.5Q30.55 -118 30.8 -117.7Q34.9 -112.65 39.55 -112.5Q39.55 -112 39.7 -111.55Q42 -105.95 42.55 -103.5Q42.05 -103.5 41.85 -103.75Q36.4 -110.35 28.55 -114.5L28.35 -113.6Q25.15 -106.75 28.55 -102.5L29.55 -103Q30.55 -97.8 21.55 -100.5Q21.8 -95.75 24.7 -93.7Q32.85 -87.8 33.55 -79.5L32.65 -79.7Q25.4 -83.5 21.55 -89.5L21.55 -90Q18.95 -84.1 16.55 -77.5Q16.8 -70.65 22.65 -71.1Q26.55 -71.4 26.35 -67.45Q25.8 -55.2 29.55 -48.5Q38.7 -53.2 43.85 -46.75Q44.05 -46.5 44.55 -46.5Q53.3 -49.35 61.6 -46.65L62.55 -46.5Q65.65 -52.9 70.75 -57.25L71.55 -57.5Q84.55 -55.1 83.6 -65.5L83.55 -66.5L83.55 -67.5M76.4,-98.55Q74.45 -93.1 69.55 -90.5L68.7 -90.3Q63 -86.8 61.55 -91.5L65.55 -92.4L66.55 -92.5Q72.9 -94.7 76.55 -100L76.55 -99.5L76.4 -98.55M22.6,-111.5Q24 -98.6 22.55 -112.5L22.6 -111.5" fill="rgb(17,30,10)" fill-opacity="1"></path><path d="M86.75,-85.6Q90.65 -76.75 85.55 -70.5L85.55 -69.5L85.55 -68.5L84.65 -68.3Q84.05 -68 83.55 -67.5L83.55 -66.5Q83.05 -66.5 82.95 -66.3Q80.35 -60.2 75.55 -61.5L75.65 -62.5Q77.05 -69 80.55 -78.5Q81.75 -83.2 78.55 -83.5Q71.4 -84.1 69.55 -90.5Q74.45 -93.1 76.4 -98.55L76.55 -99.5Q80.1 -100.05 81 -97.65Q81.05 -97.5 81.55 -97.5L82.55 -97.5Q86.85 -92.9 86.05 -86.5L86.55 -86.5L86.75 -85.6" fill="rgb(45,220,41)" fill-opacity="1"></path><path d="M81,-97.65Q80.1 -100.05 76.55 -99.5L76.55 -100L76.55 -100.5L77.35 -101.2Q80.75 -104.05 81.5 -98.5L81.55 -97.5Q81.05 -97.5 81 -97.65" fill="rgb(5,155,5)" fill-opacity="1"></path><path d="M52.7,-136.3Q50.35 -134.25 53.2 -133.2Q61.55 -130.1 60.55 -123.5Q60.05 -123 59.9 -122.4L59.55 -121Q52.35 -130.3 44.55 -120.5Q49.25 -103.35 61.75 -113.25L62.55 -113.5L62.3 -112.75Q61.55 -112 60.55 -111.5Q60.55 -111 60.8 -110.75Q61.05 -110.5 61.55 -110.5L61.3 -109.75Q57.85 -106.2 55.55 -101.5Q59.75 -97.35 62.05 -100.05Q67.55 -106.55 68.55 -103.5Q65 -98.55 66.4 -93.45L66.55 -92.5L65.55 -92.4L61.55 -91.5Q63 -86.8 68.7 -90.3L69.55 -90.5Q71.4 -84.1 78.55 -83.5Q81.75 -83.2 80.55 -78.5Q77.05 -69 75.65 -62.5L75.55 -61.5Q80.35 -60.2 82.95 -66.3Q83.05 -66.5 83.55 -66.5L83.6 -65.5Q84.55 -55.1 71.55 -57.5L70.75 -57.25Q65.65 -52.9 62.55 -46.5L61.6 -46.65Q53.3 -49.35 44.55 -46.5Q44.05 -46.5 43.85 -46.75Q38.7 -53.2 29.55 -48.5Q25.8 -55.2 26.35 -67.45Q26.55 -71.4 22.65 -71.1Q16.8 -70.65 16.55 -77.5Q18.95 -84.1 21.55 -90L21.55 -89.5Q25.4 -83.5 32.65 -79.7L33.55 -79.5Q32.85 -87.8 24.7 -93.7Q21.8 -95.75 21.55 -100.5Q30.55 -97.8 29.55 -103L28.55 -102.5Q25.15 -106.75 28.35 -113.6L28.55 -114.5Q36.4 -110.35 41.85 -103.75Q42.05 -103.5 42.55 -103.5Q42 -105.95 39.7 -111.55Q39.55 -112 39.55 -112.5Q34.9 -112.65 30.8 -117.7Q30.55 -118 30.55 -118.5Q29.2 -125.65 32.35 -132.6L32.55 -133.5Q43.55 -138.4 54.55 -138.5L55.55 -138.5Q54.05 -137.5 52.7 -136.3M45.55,-100.5L45.55 -100Q55.25 -100.9 45.55 -100.5M48.1,-68.2Q47.15 -72.7 45.55 -75.5Q45.3 -70.75 47.1 -68.2Q48.55 -66.15 48.1 -68.2" fill="rgb(12,127,1)" fill-opacity="1"></path><path d="M45.55,-100L45.55 -100.5Q55.25 -100.9 45.55 -100" fill="rgb(0,6,0)" fill-opacity="1"></path><path d="M62.55,-114.5Q65.95 -118.3 67.35 -115.4L67.55 -114.5L67.3 -113.85L61.55 -110.5Q61.05 -110.5 60.8 -110.75Q60.55 -111 60.55 -111.5Q61.55 -112 62.3 -112.75L62.55 -113.5L62.55 -114.5" fill="rgb(5,43,2)" fill-opacity="1"></path><path d="M60.05,-101.85Q58.85 -102.8 58.55 -104.5Q63.35 -109.6 68.55 -109.5L69.55 -109.5Q72.85 -106.85 65.2 -103.8Q62.7 -102.85 60.55 -101.5L60.05 -101.85" fill="rgb(52,227,46)" fill-opacity="1"></path><path d="M47.1,-68.2Q45.3 -70.75 45.55 -75.5Q47.15 -72.7 48.1 -68.2Q48.55 -66.15 47.1 -68.2" fill="rgb(2,8,0)" fill-opacity="1"></path><path d="M86.55,-86.5L87.2 -86.25Q94.75 -75.75 85.55 -68.5L85.55 -69.5L85.55 -70.5Q90.65 -76.75 86.75 -85.6L86.55 -86.5" fill="rgb(5,173,4)" fill-opacity="1"></path><path d="M82.55,-97.5Q91.3 -95.45 86.75 -87.4L86.55 -86.5L86.05 -86.5Q86.85 -92.9 82.55 -97.5" fill="rgb(5,170,4)" fill-opacity="1"></path><path d="M43.55,-30.5L43.5 -31Q37.15 -31.6 35.55 -36.5Q39.75 -45.9 49.6 -43.6L50.55 -43.5Q56.1 -39.55 57.45 -31.5L57.55 -30.5L56.55 -30.45Q52.15 -30.2 43.55 -30.5" fill="rgb(92,70,0)" fill-opacity="1"></path><path d="M22.55,-112.5Q24 -98.6 22.6 -111.5L22.55 -112.5" fill="rgb(14,101,0)" fill-opacity="1"></path></g></g></g></g></svg>