<svg xmlns="http://www.w3.org/2000/svg" viewBox="0 0 66.17 103.87"><defs><style>.cls-1{fill:#5b4501;}.cls-1,.cls-3{stroke:#060000;stroke-miterlimit:10;stroke-width:3px;}.cls-2{opacity:0.35;}.cls-3{fill:#0c7e02;}.cls-4{fill:#2dd527;}.cls-5{fill:#106807;}</style></defs><title>Tree</title><g id="Слой_2" data-name="Слой 2"><g id="Outlines"><path class="cls-1" d="M41.66,98a26.67,26.67,0,0,1-3.47,2.33h0C28.05,106,23.26,98,23.26,98l.37-4.48.73-8.82,1.28-15.38.27-3.23,2.52-30.29h6.72l2.91,27.81L39.17,74.3l2,19.14Z"/><path class="cls-2" d="M41.18,93.44c-13.77-.91-16.82-8.72-16.82-8.72l1.28-15.38.27-3.23,12.15-2.48L39.17,74.3Z"/><path class="cls-3" d="M64.67,55.18a30.85,30.85,0,0,1-2.42,12.11C58.78,75.42,51.93,80.95,44,80.95a17.17,17.17,0,0,1-8.43-2.24,18.7,18.7,0,0,1-13.49,6c-.38,0-.76,0-1.14,0h0C10.12,84,1.5,73.2,1.5,60A28,28,0,0,1,5.32,45.68a27.58,27.58,0,0,1-2-6.49,29.32,29.32,0,0,1-.49-5.38C2.79,20.16,12,9.09,23.41,9.09a17.41,17.41,0,0,1,4.15.5c3.6-5,8.28-8.09,13.39-8.09A14.42,14.42,0,0,1,50,5h0c6.83,5.51,11.53,17,11.53,30.33a55,55,0,0,1-.3,5.74A30.41,30.41,0,0,1,64.67,55.18Z"/><path class="cls-4" d="M64.12,55.26A30.85,30.85,0,0,1,61.7,67.37c-1.95,0-6.62,5-7.36,2.83s2.08-9.06,2.82-10.12c.47-.67.33-2.47-.47-4A4.39,4.39,0,0,0,54.59,54C52,53,49,43.39,49,43.39c-2.69,4-6.24,1.47-6.24,1.47l6.78-11S45,32,38.55,36.41c-2.4,1.63-5.41.61-7.7-1.52-3.9-3.63-5.71-10.5,1-13,10.74-4,11.18,2.82,13.77,2.2s2.42-7.1.76-12.85S49.5,5,49.5,5h0C56.33,10.55,61,22.06,61,35.37a55,55,0,0,1-.3,5.74A30.41,30.41,0,0,1,64.12,55.26Z"/><path class="cls-5" d="M21.35,84.32h0C10.49,83.61,1.87,72.83,1.87,59.64A28,28,0,0,1,5.68,45.31a27.58,27.58,0,0,1-2-6.49c.12.13,7.57,8.41,10.36,8.9s3.43,6,3.43,6S14,60.33,14.5,62.53s6.86,6.2,6.86,6.2S25.64,82.84,21.35,84.32Z"/></g></g></svg>